<?xml version="1.0" encoding="UTF-8" standalone="no"?>
<svg
   xmlns:dc="http://purl.org/dc/elements/1.1/"
   xmlns:cc="http://creativecommons.org/ns#"
   xmlns:rdf="http://www.w3.org/1999/02/22-rdf-syntax-ns#"
   xmlns:svg="http://www.w3.org/2000/svg"
   xmlns="http://www.w3.org/2000/svg"
   xmlns:sodipodi="http://sodipodi.sourceforge.net/DTD/sodipodi-0.dtd"
   xmlns:inkscape="http://www.inkscape.org/namespaces/inkscape"
   version="1.1"
   id="Layer_1"
   x="0px"
   y="0px"
   viewBox="0 0 875 500"
   style="enable-background:new 0 0 875 500;"
   xml:space="preserve"
   sodipodi:docname="Flag_of_American_Samoa-edit-01.svg"
   inkscape:version="1.0.2 (e86c8708, 2021-01-15)"><metadata
   id="metadata161"><rdf:RDF><cc:Work
       rdf:about=""><dc:format>image/svg+xml</dc:format><dc:type
         rdf:resource="http://purl.org/dc/dcmitype/StillImage" /></cc:Work></rdf:RDF></metadata><defs
   id="defs159" /><sodipodi:namedview
   pagecolor="#ffffff"
   bordercolor="#666666"
   borderopacity="1"
   objecttolerance="10"
   gridtolerance="10"
   guidetolerance="10"
   inkscape:pageopacity="0"
   inkscape:pageshadow="2"
   inkscape:window-width="1344"
   inkscape:window-height="812"
   id="namedview157"
   showgrid="false"
   inkscape:zoom="0.57690135"
   inkscape:cx="490.1558"
   inkscape:cy="333.63495"
   inkscape:window-x="0"
   inkscape:window-y="0"
   inkscape:window-maximized="1"
   inkscape:current-layer="Layer_1" />
<style
   type="text/css"
   id="style10">
	.st0{fill:#000066;}
	.st1{fill:#BD1021;}
	.st2{fill:#FFFFFF;}
	.st3{fill:#FFC221;}
	.st4{fill:#5A3719;}
	.st5{fill:#7B3C20;}
	.st6{fill:#AA5323;}
	.st7{fill:#999999;}
</style>
<path
   class="st0"
   d="m -1.5,0 h 875 v 500 h -875 z"
   id="path12"
   style="stroke-width:0.935414" />
<path
   class="st1"
   d="M -1.5,250 873.5,0 v 500 z"
   id="path14"
   style="stroke-width:0.935414" />
<path
   class="st2"
   d="M 105.6,250 873.5,26.8 v 446.4"
   id="path16"
   style="stroke-width:0.927365" />
<g
   id="g154">
	<path
   d="M646.6,272.5c5.8,0.4,5.6,6.2,5.6,6.2l20.7,0.5c2.6-7.2,5.4-6.4,10.4-2.8c4.8,3.4,10,4.9,10,4.9c2-10.3,16.7-8.3,16.7-8.3   c6.3-14.9,6.8-14.7,3.1-16.6c-3.7-1.9-5.2-5.1-5.2-5.1c-3.5-4.3-5.4-10.4-5.8-14.2c-0.4-3.8-4.8,1.9-5.6,0.7   c-0.8-1.2-7.3-0.5-7.3-0.5c1.6,1.7-3.9,0.7-3.9,0.7c0.5,0.4,0,2,0,2c-0.5-0.7-4.7-1.4-4.7-1.4c-0.4,0.9-1.3,1.9-1.3,1.9   c-2.3-1-6.8-0.8-6.8-0.8c-6.7-0.1-10.6,2-12.5,3.1c-1.9,1.1-8.5,4.5-14,9.8c-5.5,5.3-8.5,4.7-8.5,4.7c-1.6,5.9-14.6,13-14.6,13   c-2.1,1.9-8.6,2.8-12,0s0-7.8,0-7.8c1.2-2.3,2.5-2.2,2.6-10.3c0.1-5.5,5.7-9.8,11.5-16.1c7.1-7.8,17-20.5,17-20.5   c0,3.9,2.2,4.6,2.2,4.6c1.9-4,4.7-7.2,4.7-7.2c0.1,0.3,0.5,0.6,0.5,0.6c2.2-3,3.5-4.2,3.5-4.2c-0.7-0.3-6.9,0-12.6,5   c-5.7,5-9.7,3.3-9.7,3.3c-4-1.3-4.3-4.3-4.3-4.3c-2.9-12.5,8.5-21.5,8.5-21.5c-15.4-3.7-4.3-23.2,14.8-31.4   c19.1-8.3,18.9-12,18.9-12c1.1,1.3,2,3.5,2,3.5c0.2-0.1,1.6-2.2,12.6-7.1c11-4.9,16.3-9,16.3-9c1.4,2.7,1.1,4.6,1.1,4.6   c30-10.5,59.6-34.7,59.6-34.7c0.8,2,0.4,5.1,0.4,5.1c4.9-4.5,22.6-15.1,22.6-15.1c0.3,6.7-5.2,9.3-5.2,9.3c0.6,1,0.9,2.7,0.9,2.7   c2.9-1.6,16.4-11,16.4-11c4.9,4.3,0.4,11.2,0.4,11.2c1.7-0.3,3-1.8,3-1.8c1.2,7.2-6.8,13.6-6.8,13.6c1.4,0,3.7-1.3,3.7-1.3   C794,126.3,779,135,779,135c2.2,1.9,0.1,4.5-1.7,5.7c-1.8,1.2-5,3.7-4,4.7c1,1,7.6-3.6,7.6-3.6c1.1,3.3-7.4,9.9-7.4,9.9   c5.9,0.8,22.5-6.7,22.5-6.7c-1.3,6.4-7.6,11.4-15.3,14.2c-7.7,2.9-7.3,3.3-7.3,3.3c1.3,1.1,12-2,12-2c-3.2,7.1-14.3,12-14.3,12   c3,2.6,7.2-0.4,11.3-3.2c4.1-2.8,9.8-5.3,16-7.4c6.2-2.1,10.6-0.5,10.6-0.5c5.2-1.6,9.6,0.7,9.6,0.7c10,0.8,11,4.4,11,4.4   c1.1,0.3,1.9,0.7,4.5,2.6c2.5,1.9,2.4,7.7,2.3,10.5c-0.1,2.8-0.9,2.8-1.4,3.6c-0.5,0.8-0.5,1.7-0.5,2.8c0,1.1-2.5,7.8-17.9,7.9   c-15.4,0.1-23.4,0-23.4,0c-1.3,0-2.8,0.7-2.8,0.7c-6.5,3.2-3.1-2.2-10.8,4.2C772,205.1,768,204,768,204c-1.3,1.5-9.3,9-14,12   s-3.8,2.7,0.2,4.5c4,1.7,10.1,0,10.1,0c-3.9,2.6-1.2,3.8-1.2,3.8c5.1-3.1,8.2-2,8.2-2c1.6,4.5-4.2,11.5-4.2,11.5   c2.3,0.3,6.5,0,6.5,0c-1,3-5.3,6.3-8.4,7.3c-3.1,1-2.6,1.4-1.6,3.3c0.9,1.9,0.1,3.8,0.1,3.8c-5.5-3.8-5.7-0.4-5.7-0.4   c-0.6,4.5-0.5,10.9-0.5,10.9c-3.9-1.9-4.1,0.6-4.1,0.6c-1,4.1-5.7,8.8-5.7,8.8c-0.2-2.5-2.5-3.2-2.5-3.2c-2.5,4.7-7,7.6-7,7.6   c-0.6,4.1,0.5,9.8,0.5,9.8c-2.9-0.6-4-0.5-4.5,0.1s0.7,1,0.7,1l38.1,0.9c0.5,0,2.8,0.3,2.9,4.4c0.1,4.1-3.3,4.3-3.3,4.3l-41.7-1   c0,0,0.2,1.1-2,2.3s-1.5-1.3-2.1,3.8c-0.6,5.1-8.9-0.4-8.9-0.4c-1.3,2-4.6,4.6-4.6,4.6c-1.9-5.6-3.8-7.4-6.8-2.5   c-3,4.9,5.4,4,5.4,4s49-7.2,51.6-7.5c2.7-0.2,5.6-0.1,6.8,3.6c1.2,3.7-5.9,4.3-5.9,4.3l-50.2,5.5c-1.1,3-5.3,2.7-5.3,2.7   c0.3,2.8-2.7,4.6-4.2,5.7c-1.5,1-6.3,0.5-6.3,0.5c-5.9,4-8.7,0.8-8.7,0.8c-3.8,1.6-6.2,0.9-9.3-0.4c-3.1-1.3-2.9-5.1-2.9-5.1   l-31.7,3.3c-1.5,0.5-2.5,1.5-2.5,1.5c1.1,1.4-2.3,4.8-2.3,4.8c0.9,0.7,2.8,2.5,3,6.4c0.3,4.2-5.1,4.9-2.4,7.8   c2.7,2.9,7.6,0.5,13.1-2.1c5.5-2.6,10.9-2.3,13.2-2.3c2.3,0,8.9,1.7,12.9,3.1c4.1,1.4,5.5,0.6,5.7-1.5s2.1-2.7,2.1-2.7   c-0.5,2.1,0.6,3,0.6,3c1.6,0.1,4.3-1.4,4.3-1.4c-0.2,1.5-2.2,2.5-2.2,2.5c-4,2.7,1.5,1.7,1.5,1.7c10.9-2.2,14.8-2,17.7-1.7   c2.8,0.3,16.3,6,16.3,6c0.5-1.3,0.1-4.7,0.1-4.7c3.4,0.9,4.8,2.9,4.8,2.9c1.3-1.4,0.4-3.8,0.4-3.8c11.1,6.2-2.3,9-5.8,10.2   c-3.5,1.2-3.5,2.7-3.5,2.7c2.9-0.9,5-1.3,7.4-1.5c2.4-0.2,1.6,0,7.4-1.2c5.8-1.2,8.8,1.3,8.8,1.3c-4.9,0.3-6.3,1.7-6.3,1.7   c3.1,2.1,0.1,3.9,0.1,3.9c-4.4-5.6-8.2,0.2-8.2,0.2c1.5-0.2,6,0.7,7.3,1.5c1,0.6,3.3,1.8,6.2,3.1c4.1,1.9,3.3,0.7,6.4,1.9   s1.9,4.2,1.9,4.2c-1.3-2.5-4.2-3.3-4.2-3.3c-0.2,3.3-3.6,3.9-3.6,3.9c4.1-4.6-4.7-6.5-8.9-6.5c-4.1,0.1-7.2,2.7-7.2,2.7   c8.3,7.8,14.1,5.3,14.1,5.3c-1,2.8-7.9,1.7-7.9,1.7c3.2,2.4,2.8,4.1,2.8,4.1c-1.7-1.6-4.5-0.8-10.5-4.7c-6-3.9-11.3-2.6-11.3-2.6   c5.8,6.2-2.1,9.9-2.1,9.9c-2.9,1.7,1.2,4,1.2,4c-3.7,0.7-4.2-3-4.2-3c-1.9-0.4-4.7,2-4.7,2c0.2-3.8,5.2-1.9,5.3-5.9   c0.1-4-4.6-7-18.8-5.1c-14.1,1.9-18.3-2.6-18.3-2.6c-1.2,0-1.4,1.2-1.4,1.2c2.3,2.2,3.4,3.2,3,4.7c-0.4,1.6,0.7,2.1,0.7,2.1   c-2.6-0.1-2.8-3.2-2.8-3.2c0,1.3-0.6,1.4-1.4,2.7c-0.8,1.3,0,3.1,0,3.1c-1.1-1-3.1-2.1-1.2-4.9c1.5-2.1-3-4.9-3-4.9   c-1.7-1.8-6.4-0.1-6.4-0.1c-9.6,1.9-15.3-4.2-15.3-4.2c-1.1,0-3.2-0.6-3.2-0.6c-10.2,4.6-19.1-5.3-19.1-5.3   c-7.7,1.5-11.2-2.2-13.5-5.9s-2.8-3.9-5.9-5.8c-3.1-1.9-6-7.2-3.1-9.9c2.5-2.4,1.7-3,1.7-3c-4-6.7,7.1-8.9,7.3-10.5   c0.3-2.3,2.6-3.8,5.1-4c2.5-0.1,2.5,0.1,4.1-1.6c1.6-1.7,4.8,0.4,4.8,0.4c0.6-0.5,6.1-4.7,11-2.5c4.9,2.2,8.9,0.6,8.9,0.6   c3.4-0.7,32-4.6,32-4.6c1.8-2.8,3.1-6.1,11-7.9c7.9-1.8,13.9-6.7,13.9-6.7c-1.4-1.5-3.7-1.4-4.9-1.6s-3.7-2.3-3.7-2.3   c-1.4,0.6-2.2,0.3-12.5,6.6c-9.2,5.6-9.5-5.5-9.5-5.5l-20.1,0c-0.3,4.3-3.6,5.9-3.6,5.9l-7.3,0.4c-4.1-2.2-4.1-9.4-4.1-9.4   c-22.2,0.3-34.5,8.3-34.5,8.3c-25.1-12.8-44.8-15.8-44.8-15.8c30.5-3.3,46.6-11.8,46.6-11.8c16.8,10.1,32.6,10.3,32.6,10.3   c0.6-6.1,4.7-7.6,4.7-7.6L646.6,272.5L646.6,272.5z"
   id="path18" />
	<path
   class="st3"
   d="M610.4,323.1c-6.4,3.7-5.2,5.8-4.7,6.9c0.6,1.2,0.6,2.3-1.1,4c-1.7,1.7-1.6,2.3-1.6,2.3c0.3,6.2,4.7,7.5,6.5,9   c1.5,1.3,4.1,5.3,4.1,5.3c3.3,4.7,6.7,4.7,9.3,4.7c2.6,0,2.3-0.2,1-1.4c-1.2-1.1-3.8-3.2-3.8-3.2c3.4,1.2,6.7,4.8,6.7,4.8   c6.5,7.1,12.4,6.1,15.1,5.8s2.2-1.9,2.2-1.9c-0.1-0.3-2.7-0.4-2.7-0.4c-9.7-0.9-12.6-7.3-12.6-7.3c5.9,5.8,15,6.9,17.9,6.8   c2.8-0.1,2.7,0.7,2.1,0.9c-0.6,0.1-1.5,0-2.8-0.1c-1.3-0.1-1.3,0.2-1,0.8c0.3,0.5,1.5,0.6,3.1,0.5s0.3,0.1,4.3,3.2   c4,3.1,14,0.6,14,0.6c-6.5-1.6-7.4-4.5-7.4-4.5c-8.8,1-12.3-4.2-12.3-4.2c-1.6-1.6-6.3-4-6.3-4c-5-2.1-5.7-6.6-5.7-6.6   c1.4,2,4.1,4.3,7.6,5.2c3.4,1,4.4,1.5,4.4,1.5c-1.6,0.2-2.6-0.3-2.6-0.3c-3.4-1-1.5,0.4-1.5,0.4c3.8,3,4.8,2.8,4.8,2.8   c10,1,5-3,5-3c7.1,1.7,8.3-1,8.3-1c1.5,3.1,6.8,2,6.8,2c-7.1,3.4-1.7,2.5-1.7,2.5c7.2-1.4,8.6,0.5,8.6,0.5c2,1.8,3.9,1.6,3.9,1.6   s1.3,0,4,0.6s6.9,2.9,10.9,2.4s4.6,0.8,4.6,0.8c-0.7-0.3-2.5-0.5-5.6,0.9c-3.1,1.4-8.4,1.8-16.2,0c-7.8-1.8-8.4-1.6-8.4-1.6   c1.8,1.4,3.5,3.3,3.8,4.7c0.3,1.3,1.7,1.4,1.7,1.4c0.5-1.7,2.9-2.5,2.9-2.5c1.5,1.4,5.6,3.3,5.6,3.3c0.4-0.9,0-1.6,0-1.6   c3,2.9,6.5,2,6.5,2c0.9-0.7,0.6-2.3,0.6-2.3c1.2,0,1.4,0.7,2.2,1.3s3.5,0.2,3.5,0.2c-1-0.4-1.7-1.9-1.7-1.9   c3.9-2.7,12.5-1.5,12.5-1.5c6.2,1.1,5.4,5.1,5.4,5.1c1.2,0.6,2.9,2.5,2.9,2.5c0.5-1.4,0-2.9,0-2.9c2.8,1.3,3.4,4.6,3.4,4.6   c3.3-3.7-3.1-7.9-3.1-7.9c3.1-0.4,6.5-0.1,8.6,0.2s5,1.4,7.5,3.4c2.4,2,6.8,3,6.8,3c-0.1-0.8-2.4-2.2-3-2.5c-0.5-0.3-0.7-1-0.7-1   c2.1,0.4,3.6,0.2,3.6,0.2c-7.5-4.6-9.3-6.7-9.3-6.7c2.8,0.4,4.3-1.4,4.3-1.4c-5.9,0.1-6.1-1.4-6.1-1.4c0.7,0.2,3.4,0.9,6.9,0.2   c3.5-0.7,8.4,0,8.4,0c-2.5-4.1-12.4-3.4-15.5-3.2c-3.1,0.2-4.4-0.2-4.4-0.2c0.5-0.2,1-0.8,3.5-0.8c2.5,0,4.9,0.2,7.7-1.7   c2.8-1.9,6.6-1.3,6.6-1.3c-0.9-1.8-5.4-2.5-9.2,0c-3.9,2.5-7.4,1.7-7.4,1.7c6.2-0.9,8-3,8-3c-1.9-0.4-2.9,0.1-6.6,0.9   c-3.7,0.7-4.7-0.5-4.7-0.5c4.1-2.4,6.9-3.4,6.9-3.4c-3.5-0.7-6.7-2.2-6.7-2.2c-3.6,3.4-6.4,5.3-13.3,1.7   c-6.9-3.6-10.5-3.2-10.5-3.2c6.1-3.6,12.3-2,16.8,0.7c4.5,2.7,5.8,0.5,5.8,0.5c-1.4-0.9-1.2-1.7-1.2-1.7c11,5.6,15.7,2.1,18.2,0.5   c2.4-1.6-1.1-3.8-1.1-3.8c-0.2,3.6-4.7,5.2-8.2,4s-6.8-2.7-11.9-4.8s-11.4-1-17.3,0.2c-5.9,1.2-6.7,0.6-7.2,0.2   c-0.5-0.5-0.8-1.9-3.9-0.7c-3,1.2-10.1-2.1-14.5-3.1c-4.4-1-11.6-0.5-17.8,2.9c-6.2,3.4-9.3,2.6-11.1,1.7c-1.9-0.8-3-3.2-1-5.3   c2-2.1,2.2-2.7,2-5.7c-0.2-3-3.1-4.8-3.1-4.8c2.7-2.8,3.4-3.4,2.5-4.7c-0.9-1.2,0.5-1.2,2.1-1.9s0.9-0.8,0.5-1.7   c-0.4-0.9-1.3-0.8-1.3-0.8c-3.6,0.1-5.6-0.8-5.6-0.8c-6-2.8-11.6,2.6-11.6,2.6c-3.4-2.6-4.2-0.9-4.8-0.3c-0.6,0.6-1.8,1.1-3.4,1.2   c-1.5,0.1-3.6,0.7-4.4,2.1c0,0-0.7,1.1,0.2,2.3c0,0,0.9,1.4-0.8,3.1c-1.7,1.7-2.3,2.1-1.8,3.7c0.5,1.6,0.4,2.8-0.3,3.9   c0,0-0.8-0.9-0.6-2c0.2-1.1,0.2-1.7,0-2.3c0,0-1.7,1.6-2,2.8c0,0-0.7-1.8,1.7-4.2c2.4-2.4,3.5-3.6,2.8-4.6   C612.6,321.7,610.8,322.9,610.4,323.1L610.4,323.1z"
   id="path20" />
	<path
   d="M617.3,349.9c0,0-3-2.3-2.7-5.5c0.4-3.2,0.3-3.6,0-4.3c0,0-0.6,0.3-0.5,1.6c0,1.2-0.2,2.4-0.3,2.6c0,0-1.6-2.7-2.2-3.2   c0,0,0.5-2.8-0.3-4c-0.9-1.2-1.7-1.3-2.7-0.9c-1.4,0.5-2.4,1.8,2.2,5.6c0,0,1.7,1.4,2.9,4.4C614.9,349.2,616.9,349.7,617.3,349.9z    M632.3,341c0,0-0.2-1.8,1.4-5c1.6-3.2,0.7-5.6,0.3-6.4c-0.4-0.8-0.6-0.5,1.1-1.9c2-1.7-0.8-3.8,2.5-6.8c0,0,2.2-1.9,2.7-2.7   c0,0-3.5,1.9-5.8,2.8c-2.3,0.9-11.1,5.3-9.1,8.1s1.7,3,1.4,4.2c0,0-5.2-2.8-3.4-7.2c0,0,0.8-1.8,3-3.8c2-1.8,0.8,0.4,4.9-1.9   c0,0,3.2-1.9,4.9-4.5c0,0-2.1,1.3-2.9,1.6c0,0-4.7,0.8-6.6,2.8c-1.9,2-5.9,5.5-4.6,9.3c0,0-4.7-0.6-5.8-5.5c0,0-8.7,10.7,9.5,15.7   C625.9,339.9,629.2,340.7,632.3,341z"
   id="path22" />
	<path
   class="st3"
   d="M712.4,305.2c6.8-1,46.3-7,49.8-7.4c3.9-0.4,5.4-0.9,6.7,2.2c1.5,3.6-5.4,3.6-5.4,3.6l-47,5.3   c-2.3,0.3-2.8-0.6-2.8-0.6c-0.4-0.8-1.2-1.8-1.7-2.4C712,306,711.4,305.3,712.4,305.2L712.4,305.2z"
   id="path24" />
	<path
   class="st4"
   d="M616.1,326.6c0,0-5.1,10.7,14.9,13.4c0,0,0-1.2,0.8-2.9s2.5-5.1,0.9-7.3c-1.6-2.2,1.3-1,1.8-3.9   c0.4-2.9-0.3-2.5,1.1-4.3c0,0-6.3,2.3-8.7,5c-2.4,2.8,3.2,4.9-0.1,7.9c0,0-2.8-1-4.4-4C622.4,330.4,618.5,330.5,616.1,326.6   L616.1,326.6z"
   id="path26" />
	<path
   d="M635.7,339.8c0,0,4.9,4.3,10.8,4.1c5.9-0.2,8.4-1.8,9.9-4.1c0,0,1.1,1.8,1.1,3c0,0,5.1-4.2,13.9-0.6c8.8,3.7,6.1,2.7,8,2.9   c0,0-3.7-0.7-12.3,3.2C658.4,352.4,635.5,351,635.7,339.8L635.7,339.8z"
   id="path28" />
	<path
   class="st4"
   d="M627.5,320.8c0,0,2.2,0.3,4.4-2.2C631.9,318.7,628.9,319.2,627.5,320.8z M610.7,340.7c0,0-4.1-3.2-1.5-3.9   C609.2,336.9,611.1,336.6,610.7,340.7z"
   id="path30" />
	<path
   d="M700.6,361.1c0,0,2.2-3.9,8.5-3.9s7.1,2.9,15.1,3.5c0,0-9.6,2.7-16.3,0.2C704.4,359.5,701.3,360.6,700.6,361.1z"
   id="path32" />
	<path
   class="st4"
   d="M637.9,342.6c0,0,9.5,5.8,17.9-0.5c0,0,0.7,0.7,1.3,2.2c0,0,6.4-6.2,17.8,0.5c0,0-1.4-0.2-6.8,2.2   C661.1,350,643.5,352,637.9,342.6z"
   id="path34" />
	<path
   d="M674.4,348.4c0,0,9.1,1.1,16.8,0.6c4.7-0.3,9.8-1.1,7.3,0.5c-2.5,1.6-1.3,1.7,9.6,0.7s-0.1,2.1,7.4,3   C715.4,353.3,697.3,362.5,674.4,348.4z"
   id="path36" />
	<path
   class="st4"
   d="M698.3,342.6c0,0,5.3-1.9,10.3,0.4c4.9,2.3,4.2,2.5,7.5,2.8c0,0-2.3,3.3-7.7,0.6   C702.9,343.8,701.4,343.3,698.3,342.6z M704.2,359c0,0,5.2-2.6,11,0.1c0.7,0.3,2.3,1,3.8,1.3c0,0-4.4,1.4-9,0   C708.2,359.8,706.7,359.4,704.2,359L704.2,359z M678.3,349.7c0,0,11.7,1.1,18-0.2c0,0-7.3,3.5,11.1,1.9c0,0,4.1-0.4,3.6,0.2   c-0.5,0.6-0.8,1.1,1.2,1.7C712.2,353.3,698.5,359.4,678.3,349.7L678.3,349.7z"
   id="path38" />
	<path
   d="M620,339.8c0,0,0.1,0.9,2.7,2.1s4,3.2,4.5,4.4c0.5,1.1,1.9,2.8,4,3.3c0,0-9.2,1.9-13.3-2.9   C618,346.6,614.9,343.2,620,339.8"
   id="path40" />
	<path
   class="st4"
   d="M692,360.9c0,0-3.6-0.2-8.6-1.9c-4.9-1.7-6.2-0.3-9-2.4c-2.8-2.1-8.4-0.8-9.5-0.6c-1,0.1-4,0-0.3-2.4   c0,0-3-0.1-4.1-1.6c0,0-1.3,1.3-6.4,0.8c0,0,2.2,3.5-6.8,2.5c0,0,2.7,3.1,5.9,3.8c3.2,0.6,4.6,0.4,6.7-0.2c0,0-0.6,2.7,3.6,3.8   s5,1.9,7.2,2.7c0,0,0.3-1.8-5.3-5.8c0,0,3-0.1,7.3,0.9C677,361.5,686.8,364,692,360.9L692,360.9z M694.3,365.1c0,0,0.9,2.1,3.7,1.6   c2.8-0.5,7.3-1.3,11.7,1c0,0,0.7-3.7-8.1-4C701.6,363.6,696.1,363.9,694.3,365.1L694.3,365.1z M619.7,341.1c0,0-3.4,2.8-0.3,5.7   c2.8,2.6,7.2,2.4,9.2,2.3c0,0-1.2-0.7-2.3-2.4c-1.1-1.6-1.1-2.8-3.4-3.8C620.4,341.8,620.1,341.6,619.7,341.1z M616.1,326.6   c0,0-5.1,10.7,14.9,13.4c0,0,0-1.2,0.8-2.9s2.5-5.1,0.9-7.3c-1.6-2.2,1.3-1,1.8-3.9c0.4-2.9-0.3-2.5,1.1-4.3c0,0-6.3,2.3-8.7,5   c-2.4,2.8,3.2,4.9-0.1,7.9c0,0-2.8-1-4.4-4C622.4,330.4,618.5,330.5,616.1,326.6L616.1,326.6z"
   id="path42" />
	<path
   d="M668.7,351.3c0,0,4.2-0.7,14.9,3.3s15.1,3,16.7,2.9c0,0-6,3.1-15.4-1C676.7,352.9,676.1,354.3,668.7,351.3L668.7,351.3z"
   id="path44" />
	<path
   class="st3"
   d="M735.5,348.9c0,0,2.4-0.1,3.9,0.6c0,0,0.9-0.8,3.2-1C742.6,348.5,741.1,347,735.5,348.9z M728.2,343   c0,0,2.4-0.1,3.2-1.3c0,0-1.2-1.6-3.1-2.3C728.3,339.4,728.7,341.1,728.2,343z M646.2,315.7c0,0-0.4-1.2,2.1-1.6   c2.5-0.4,35.8-5.1,35.8-5.1s1.8,0,2,1.2c0.3,1.3-0.2,2.2-8.2,3.1s-29.2,3.6-29.2,3.6S646.4,317.3,646.2,315.7z"
   id="path46" />
	<path
   class="st3"
   d="M678.6,314.3c0,0,0,4.7,4.8,5.4c4.6,0.7,6.2-0.3,7.5-2.7c0.3-0.6,1.8-5.6-0.3-5.9c-0.8-0.1-2.3-0.1-3.3,0.4   c-1.6,0.7-3.1,1.5-2.6,2.3c1.1,1.7,1.4,2.1,0.9,2.2c-1.1,0.3-2-0.7-2.2-1.4c-0.3-0.9,0.6-1.4-2.5-1   C679.7,313.8,678.6,313.7,678.6,314.3L678.6,314.3z"
   id="path48" />
	<path
   class="st3"
   d="M698.6,310.7c2.4,0.3,2.3,5.5-0.7,7.8c-3.2,2.5-6.2,1.6-6.2,1.6c-1.6-0.7-1.4-0.4-0.2-2.3   c1.2-1.8,1.7-4.1,1.1-5.8c-0.2-0.5,0.4-1,1.2-1.1C693.8,310.8,696,310.4,698.6,310.7z"
   id="path50" />
	<path
   class="st3"
   d="M700.7,311.1c0,0,1.7,2.2-0.4,6.2c0,0-1,1.2,1.2,1c2.2-0.2,7-2.5,6.5-5.5c0,0-0.2-0.7-1.4-0.6   c-1.3,0.1-0.2-0.7,0.3-0.8c0.5-0.1,2.2-0.8-2.1-3.5c0,0-0.7-0.6-1.5-0.4c-0.7,0.2-2.9,1.1-2.9,2.5   C700.3,310.6,700.7,311.1,700.7,311.1L700.7,311.1z"
   id="path52" />
	<path
   class="st3"
   d="M705.4,307.4c0,0,3.4,2.4,3.4,3.2c0,0.7-0.3,1.7,0.6,1.6c0.9-0.1,4.6-0.9,3.6-3.3c-1-2.4-2-3.3-3.7-3.9   c-1.7-0.6-2.1,0.2-3.6,1.3C705.6,306.3,704.5,307,705.4,307.4z M686.9,310.9c0,0,0.6-1.8-2.5-2.5c0,0,1.3-1.1,3.9-0.5   c2.6,0.6,2.3,2.3,2.3,2.5C690.6,310.4,688.6,310.3,686.9,310.9L686.9,310.9z M693.6,310.4c0,0,3.5-0.6,5.1-0.4c0,0-1.7-3.9-6.5-2.6   C692.2,307.4,693.9,309.3,693.6,310.4L693.6,310.4z M699.6,309.5c0,0,0-1.2,3-2.4c0,0-1.5-1.4-3.5-1.2c-2.3,0.1-2.8,1-2.8,1   S698.9,307.7,699.6,309.5z M700.8,305.4c0,0,1.9,0.5,3,1.5c0,0,1.8-1.9,3.3-2.3C707.1,304.5,704.2,302.9,700.8,305.4z"
   id="path54" />
	<path
   class="st4"
   d="M602.9,296c0,0,8.2-7,12.8-6.1c4.6,0.8,2.3,0.3,7.3-0.5c5-0.8,10.2-1.3,12.3-1c0,0-6.1-4.4-17-4.3   c0,0-7.7,2.7-13,6.2c0,0-10.2-5.7-20.7-2.3C584.7,287.9,596.1,292,602.9,296L602.9,296z"
   id="path56" />
	<path
   class="st3"
   d="M690.3,308l1.4-0.2c0,0,2.3,2.9,0.6,2.9c-1.3,0-0.8-0.4-1-1.2C691,308.6,690.5,308.3,690.3,308z M679.9,308.3   c0,0-0.8,1,0.7,0.8c1.9-0.3,1.5,0.1,3.6-1.3c0,0,1.3-1.4,3.6-0.5c0,0,2,0.7,3.6-0.1c1.6-0.8,2-0.7,2.9-0.7c0.9,0.1,0.8,0.3,2-0.6   c1.2-0.9,3.2-0.2,4.5-1.3c1.3-1.1,2.9-0.2,0-2.2c0,0-0.6-0.6-0.5-1.1c0,0,1.1,0.3,2,1.1c0.9,0.8,2.3,0.5,2.6,0.4   c0,0,0.1-2.6,2.7-4.9s2.6-2.5,1.1-2.6c-1.5,0-4-0.6-4.9,0c-0.8,0.6-8.3,5.5-12.6,6.3C686.7,302.4,682.7,303.6,679.9,308.3z    M564.1,281.5c0,0,13.3,3.4,16.3,4.9c0,0,0.7-2.2-5.3-4c0,0,14.7-0.4,30.3,6.6c0,0,7.5-6.4,31.7-4.4c0,0,0-2.1,0.2-3.8   c0,0-17-0.5-32.5-10C604.7,270.8,590.8,277.7,564.1,281.5L564.1,281.5z M638.2,287.9c-0.9-13.6,4.3-14.8,4.3-14.8s2.5,0,5.1,0.4   c0,0-4.1,4.9-3,14.6c0,0,0.4,1.6-3.1,1.6C638,289.7,638.2,287.9,638.2,287.9z"
   id="path58" />
	<path
   class="st4"
   d="M641.7,296.9c0,0-2.5-2.6-2.8-5.6c0,0-0.1-0.8,2.5-0.7c2.6,0.1,2.9-0.2,3.5,1.2c0.6,1.4,2.2,4.5,2.6,4.9   L641.7,296.9L641.7,296.9z"
   id="path60" />
	<path
   class="st3"
   d="M647.2,290.1c-0.2-1.8-0.3-3.3-0.3-5.2c0.2-7.6,1.4-6.9,1.9-6l2.6,0c0,0-1.9-8.6-4.1-3.6   c-2.2,4.9-2,8.1-1.8,12c0.2,2.2,0.4,3.6,0.7,4.5L647.2,290.1z"
   id="path62" />
	<path
   class="st4"
   d="M676.5,290.2c0,0,5,0.8-2.7,2.6c0,0,0.4,9.3,9.5,2.8c0,0,5.4-3.4,9.1-4.8c0,0,1.9-0.6,1.6-2   c0,0,0.1-1.6-1.8-1.3c0,0-1.5,0-2.5-0.3c0,0-1.1-1.3-1.8-0.8s-2.4,0.2-1.1,1.8c1.3,1.6,1.7,1.2,2.4,0.7c0.6-0.5,3.5-1.6,0.9,0.8   c-2.6,2.4-4.7-1.3-5.6-2L676.5,290.2L676.5,290.2z M651.4,291.2l-2.2,0c0,0-1.2,1.8-2-1l-0.9,1.8   C646.2,291.9,649,301.9,651.4,291.2z"
   id="path64" />
	<path
   class="st3"
   d="M648.3,279.7c0,0-1.1,6.5,0.3,10.6l24.1,0.4c0,0-0.3-4.7,0.1-11h-3.4c0,0-0.5,5.3,0,8.5l-0.6,0   c0,0-0.4-4.5,0-8.5h-2.8c0,0-0.5,4.9-0.1,8.5h-0.5c0,0-0.4-4.3,0.1-8.5h-2.8c0,0-0.5,4.4,0,8.5l-0.7,0c0,0-0.6-4.5,0-8.5h-3.1   c0,0-0.8,4.1,0,8.5h-0.6c0,0-0.7-4.2,0.1-8.5h-3.1c0,0-0.7,4.7-0.1,8.5h-0.6c0,0-0.5-4.5,0.2-8.5h-2.9c0,0-0.8,3.9-0.1,8.5H651   c0,0-0.5-3.4,0.1-8.5L648.3,279.7L648.3,279.7z M673.7,291.6c0,0-0.7-11.8,1.6-14.8s2.7-2.4,6.6,0c3.9,2.4,8.8,5.1,9.6,5.4   c0.8,0.3,1.9,0.6,1.9,2.7c0,2.1,0.4,2.8-2.9,0.1c-0.5-0.4-2.1-1.8-3.2-2.2c-3-1,0.7,0.7,1.8,2.2c0.9,1.3,1.6,1.1-0.7,1.7   C686.1,287.3,678.1,290,673.7,291.6L673.7,291.6z"
   id="path66" />
	<path
   d="M682.2,283.2c0,0-1.7-2.2,0.5-2.7c2.2-0.5,2.4,3.5,2.8,5.9C685.8,288.8,682.6,283.9,682.2,283.2z M678.9,293.4   c0,0-2.6,1-0.9,1.8c1.7,0.8,6.5-3.1,4.8-2.9C681.2,292.6,678.9,293.4,678.9,293.4z M682.5,289.8c0,0,2.3-0.2,1.8,0.8   c-0.4,1-1.3,0.4-1.6,0.1C682.3,290.5,680.7,289.9,682.5,289.8L682.5,289.8z"
   id="path68" />
	<path
   class="st3"
   d="M694.7,286.7c0,0,0.6,4.5,4.5,5.6c0,0,2.2,0.6,1.8-1.4c0,0-0.4-1.6-0.7-2.3c-0.3-0.7-1.9-1.1-2-1.2   c-0.2-0.1-0.4-0.5,0.7-0.2c1.1,0.3,1.2,0.4,1.1-0.4c-0.1-0.7-0.7-0.4-1.7-0.9c-0.4-0.2,0-0.4,0.4-0.3c0.4,0.1,1.3,0.4,1.4-1.2   c0,0,0.2-0.9-1-0.9c-1.3-0.1-1.2-0.6-0.8-0.7c0.4-0.1,1.7,0.8,2.1-0.7c0.4-1.6-1.8-0.7-1.5-1.5c0.3-0.8,1.9,0.5,2-0.5   c0.1-0.9,1.4-1.3-0.8-1.6c-1-0.1-0.1-0.6,1.1-0.4c1.2,0.2,2-1.4,2.7-1.9c0.7-0.5,4.8-2.9-0.6-2.1c-5.4,0.8-7,3.4-7.3,3.9   C695.7,278.5,694.2,281.6,694.7,286.7L694.7,286.7z"
   id="path70" />
	<path
   class="st3"
   d="M707.2,290.2c0.7-0.1,1.3,0.1,1.6,0.5c0.9,1.8-1.1,1.2-2.3,2.5c-1.1,1.3-1.2,1.1-2.8,0.6   c-1.6-0.5-2.2-2.9-2.2-2.9c-0.2-0.7,0.5-0.8,1.3-0.7C702.9,290.2,705.6,290.5,707.2,290.2L707.2,290.2z M701.4,289.2   c0,0,0.1,0.5,1,0.6c0.9,0.1,3.6,0.3,5.2-0.2c0,0,0.6-0.1,0.3-1.1c0,0,0-0.7-1.4-0.4c-1.4,0.3-3.5,0-4.2-0.1   C701.6,287.8,701.1,288,701.4,289.2L701.4,289.2z M701.2,286c0,0,0,1.4,1.4,1.6c1.4,0.2,3.2,0.2,4,0c0.6-0.1,1.6-0.3,1.7-1.2   c0.1-0.8,0.3-1.5-1.4-1c-1.8,0.4-3.9,0.1-4.1,0.1C702.4,285.5,701.2,285.1,701.2,286L701.2,286z M701.8,283.1c0,0-0.3,0.6-0.3,1.3   c0,0.6,1.1,0.8,2.9,0.9c1.9,0,3.5-0.2,3.6-0.9c0.1-0.6,0.6-1.3-0.9-1.1s-3.3,0.3-4,0C702.5,282.9,702,282.8,701.8,283.1z"
   id="path72" />
	<path
   class="st4"
   d="M770.2,290.3c0,0,0,1.3,1,2.6l-51.7-1.5c0,0,0.8-0.5,0.9-2.5L770.2,290.3L770.2,290.3z"
   id="path74" />
	<path
   class="st3"
   d="M702.3,281c0,0-0.4,1.3,0.5,1.6c0.9,0.3,2.5,0.5,4.6,0.2c0,0,1.1,0.1,1.4-1.1c0.4-1.1,0.3-0.5-2.7-1.1   c0,0-0.9-0.3,1.8-0.3c0,0,1.5,0,1.8-0.2c0.2-0.3,2.3-1.9-0.4-1.8c-2.6,0.1-1.3-0.5,0-0.5c1.3,0,1.7,0.3,2.2-0.1   c0.4-0.4,0-0.1-0.7-0.9c-0.7-0.7-0.2-0.5,0.3-0.1c0.5,0.4,0.8,0.5,1.4,0c0.6-0.5-0.4-1.3,0-1.2c0.4,0.1,0.7,0.9,2.4,0.1   c1.7-0.8,4-0.4,4.6,0.1s2.4,1.1,3.5,0s-1.3-2-0.3-2.1s1.7,0.2,2.1-0.6c0.4-0.8-1.5-1.6,0.3-2.1c1.9-0.5,0.3-5.8-0.3-6.2   c0,0-2.1,1.2-4.4,4.9c-2.3,3.7-3.6,5.9-6.8,4.7c-4.5-1.6-6.8,0.7-7.5,1.1c-1.1,0.7,2.3,1,0.3,1c-1.9,0-1.9,0.2-2.1,0.5   c-0.2,0.3,0,0.6,0.3,0.6c0.3,0,1.1,0.8-0.1,0.7c-1.2,0-2-0.2-1.7,1c0,0,0,0.3,0.7,0.4c0.7,0.1,0.9,0.8-0.3,0.8   C702.4,280.6,702.3,280.9,702.3,281L702.3,281z M707,293.9c0,0-0.9,0.7,0.3,0.7c1.3,0.1,1.9,0.3,2.3-0.4c0.4-0.7,2.1-0.4,1-1.4   C709.6,292,708.8,292.5,707,293.9L707,293.9z"
   id="path76" />
	<path
   class="st3"
   d="M712.4,278.4c0,0,4.3-4.1,7.9-1.3s3.9,3.2,4,3.2c0,0.1,0.4,0.4-0.5,1.2c-1,0.9,0,0.8,1,0.3   c1.1-0.5,1.1,0,1.7,0.5c0.5,0.6,1.2,0.9-0.4,0.9c-1.7,0-5.2,0-5.2,0s-2.4,0.2-1.2-0.8c1.2-1,1-2.2,0.4-2.2s0,0.6-0.4,1.1   c-0.4,0.5-1.2,0.9-2.1,0.9c-0.8,0-1.6,0.6-0.2,1.1c1.3,0.5-0.1,0.8-0.8,0.8c-0.7,0-4.1,0.3-0.6,0.7c3.4,0.4-0.3,0.3,2.2,1.7   c2.8,1.6,0.8,4.9-0.3,5.2c0,0-1.1,0.6,0.3,0.5c1.4-0.2,2.2-0.4,1.2,0.4c-1,0.8-3.1,3.4-5.9,1.4c0,0-1.3-0.6,1-0.7   c2.3-0.1-1.9-0.6-2.6-1.1c-0.7-0.5-3.4-3.2-1.7-2.9s1.1-0.6,0.1-1c-1-0.4-1.2-1.9-0.1-1.5s2.4,1,3.3,0.9c0.9,0,0.6-0.4-1.3-1   c-1.9-0.6-2.7-0.7-2.3-2.3s2.5,0.6,2-0.6c-0.5-1.2-2.3-0.6-1.3-2.2c1-1.6,1.2-0.9,1.6-0.7c0.4,0.2,1.2,0.1-0.1-0.9   C711.3,279.4,712.1,278.6,712.4,278.4L712.4,278.4z"
   id="path78" />
	<path
   d="M715.5,279.5c0,0,0-0.5,0.7-0.4c0.8,0.1,0.6-0.3,0.8-0.4c0.2-0.1,2.2,0.6,0.3,1.2C716.7,280.1,715.6,280,715.5,279.5   L715.5,279.5z"
   id="path80" />
	<path
   class="st3"
   d="M719.6,284.1c0,0-1.5,0.7-0.1,2.3c1.1,1.3,1.1,1.7,1,2.6c-0.1,0.9,49.8,1.4,49.8,1.4s-0.1-3.2,2-5   C772.3,285.3,745,284.7,719.6,284.1L719.6,284.1z"
   id="path82" />
	<path
   class="st4"
   d="M771.1,289.4c0,0,0.2-2.7,1.7-3.6c0.8-0.5,1.9-0.2,2.4,2c0.7,3.1-2,5.7-3.2,4.6   C770.8,291.3,771.1,289.4,771.1,289.4L771.1,289.4z"
   id="path84" />
	<path
   class="st5"
   d="M714,301.1c0,0,3.3-2.8,3.8-4.1c0,0,9,6.4,8.4,0.5c0,0,0-1.6,0.3-3.1c0,0,3.2,0.3,3.7-2.3l-8.4-0.2   c0,0-0.9-0.2-2.2,1.2s-4,2.9-6.5,1.6c0,0-1-0.9-2.1-0.1c-1.1,0.8-1.1,1-0.2,1.8C711.7,297.2,713.6,299.8,714,301.1L714,301.1z    M733.2,283.5l-4.9-0.2c0,0-1.8-2.5-5.3-5.3c0,0-1-0.4,0.9-2c2-1.6,2.5-3.2,2.6-4c0.1-0.8-0.1-2,0.6-1c0.7,0.9,5.8,5.5,6.6,4.1   c0.7-1.4,0.8-2,1-2.4c0.1-0.4,0.3-1.7,1-0.4c0.7,1.3,1.2,1,1.2,4.4c0,0,0.1,3.4,0.6,4.6C737.7,281.4,731.2,279.3,733.2,283.5   L733.2,283.5z M711.9,273.1c0,0,3.7,2.1,5.6-0.7c1.8-2.8,3.1-3.3,1.7-6c-1.4-2.7,0-4,1.1-5.1c1.1-1.1,2-0.9,2.1-5.3   c0.1-4.3,3.1-5.8,4.5-7.1c1.3-1.3,4.7-3.4-0.4-4.3c-5.1-0.9-15.3-3.5-18-7.5c-2.6-4-3.8-1.6-3.9-1.5c0,0.1-0.9,3.1,1.7,8.3   c2.6,5.3,4.9,8.7,7.4,10.4c2.5,1.7,4.8,2.6,3.5,6.1C716,264,713.8,270.2,711.9,273.1z"
   id="path86" />
	<path
   class="st4"
   d="M725.7,261.9c0,0,0.6,9,7.2,12.2c0,0,1.5-3.5,0.9-7c0,0,2.1,0.2,2.7,1.2c0,0,0.1-2.6-3-3.6   c-3.1-1-1.6-6.8-0.5-7.5s0.7-1.8,0-2.9c-0.7-1.1-0.9-2.7,1.6-2c2.6,0.7,2.2-0.7,0.6-2c-1.5-1.3-1.5-2.8,0.7-2.8   c2.2,0,5.8-2.1,3.6-2.8c-2.2-0.7-2.9-1.4,0.1-2.2s4.4-1.9,2.2-2.2c-2.2-0.3-3.7-1-1.5-1.4s-0.4-2.6-2.9-2.7c-2.5-0.1-8,0.9-3.7-2.5   c4.3-3.5-6.2-0.9-1.9-3.2c4.3-2.3-1.4-1.3-2.2-1.3c-0.8,0-0.8,0-0.5-1.2c0.3-1.2-0.6-1.7-1.9-1c-1.2,0.7-1.2,0.7-1.2-0.9   s-1.5-0.4-2.4,0c-0.9,0.4-3.3,2.2-4.3,1.2c-0.9-1-1.5-2-4.4-0.2c-2.9,1.8-2.2,0.2-2.2-0.6c0-0.8,1.1-3.9-2.9-0.6   c-4,3.3-0.7-3.6-3.9-1.2c-3.2,2.4-3.5,2.8-4,1.7c-0.5-1-1.1-1.9-4.6,0.3s-0.9-1.3-0.4-2.1c0.5-0.8,2-5.9-1.1-1.9   c0,0-1.5,2.8-4.8-2.2c0,0-3.5,4.9-4.4,2.7c-0.9-2.2-1.8-2.4-2.9-1c-1.1,1.4-0.3-0.1-0.8-1.3c-0.5-1.2-0.8-3.4-6.7,0.9   c-5.9,4.3,2,1.2-2.4,3.1c-4.5,1.9-15.3,8.1-5.4,6.6c9.9-1.4-4.8,3.9-1.4,4.9c3.4,1,2.3,4,15.3,0.4c12.9-3.5,10.8-0.6,17.4-3.4   s-1.5,1,7.3,0.8c8.8-0.2,1.5,0,3.2,1.9c1.7,1.8,9.2,6.2,16.2,6.9c7,0.7,8.7-1.9,6.7,1.1c-2,3-2.7,4.2-3.9,5.2   c-1.2,1-4.5,3.4-4.5,7.6c0,4.2-5.5,4.9-3.5,9.5C721,266.5,724.1,263.5,725.7,261.9L725.7,261.9z"
   id="path88" />
	<path
   class="st4"
   d="M737.2,271.9c0,0-1.6-1.1-1.6-3.1c0,0,1.1,0.2,1.6,0.9c0,0,4-4.6-0.8-6.2c-4.8-1.6-2.4-6-0.8-6   c1.6,0,1.9-0.5,0.5-2.3c-1.4-1.8-1.3-1.9,1.5-2.4c2.7-0.5,2.4-1,1.1-1.7c-1.2-0.7-2.1-1.8-2.1-1.8s7.7-3.4,5.2-4.9   c-2.5-1.5,0-1.1,2.2-2.7c2.2-1.6,2.5-1.9,2.9-2.5c0,0-2.2,0.2-3.8-0.1c0,0,1.9-0.9,0-2.5c-1.9-1.6-2.7-3-5.8-2.3   c-3.1,0.7-2.1-0.3-0.9-1.6c1.2-1.3,0.6-2-1.5-2.3c0,0,0.3-1.3,1.9-2.9c0,0-4.2,0.3-5.6-0.4c0,0,1.7-1.1,1.8-2.5   c0,0-2.3,0.7-5.2,0.5c0,0,1.7-1.5,1.7-2.8c0,0-5,1.1-7.4,2.9c0,0-0.5-0.1-0.9-0.6c-0.4-0.5-0.7-1.1-6.3,0.7c0,0,0.6-2.5,2-3.5   c1.3-1,1.1-3-7.5,2.4c0,0-1.2-0.7-2.1-3.3c0,0-1.9,2.6-3.3,3.5c0,0-1.2,0.5-1-1.2s-0.8-0.5-1.7,0c-0.9,0.5-1.5,1.7-1-1.7   c0.4-3.4-1.2-4.1-1.2-4.1s-2.7,3.8-4.2,4.2c0,0-2.8-2.8-3.8-4.6c-1-1.8-1-2.5-2,0.7c-1,3.2-2.2,3.4-2.2,3.4s-1.7-1.5-1.9-2.2   c0,0-0.3,0.9-0.8,1.2c0,0-1.5-1.8-1.4-4.3c0,0-9.3,5.1-10.4,8.2c0,0-8.8-0.5-12.4,0.1c0,0,0.9-2.8,3.2-4.3c0,0-2.3-0.3-2.4-2.6   c0,0,1.8,0.3,3,0c1.1-0.3-1.6-3.6,1.3-3.7c2.9-0.1,4.7,1.4,3.4-2.5c-1.3-3.8-0.7-3.8-0.7-3.8s5,3,5.8,2.2c0.8-0.7-0.6-2.4,3.8-1.6   c4.5,0.7,3.2-1.8,5-1.9c1.7-0.1,2.7,1.1,1.6-7c-1.1-8.1,5.4,4,1-8.3c0,0-1.1-3.7-3.8-5.3c0,0-0.6,2.7-3.6,0.3c-3-2.4-9-3.2-6.5-5.1   c2.5-1.9,3.7-4.4,2.9-5.9c0,0-2.9,3.1-8.1,0.9c-4-1.7-4.9,1.5-9,0.5c0,0,0.1-1.1,3.6-3.8s-2,0.9-4.2,1.4c-2.2,0.5-2.8,0.1,1.8-3.5   c4.6-3.5,13.7-9.8,12.4-15c0,0,2.1,2.7,7.8,0.7c5.6-2,9.8-2.7,11.5-5.6c1.7-2.9,6.1-5.9,7.3-6.5c1.1-0.6,2.7-1.1,0.9,1.7   c-1.7,2.8-4.6,7.5-12.4,10.7c-7.8,3.2-10.8,5.6-12.2,7.2c-1.4,1.7-8.5,5.5-3.9,4.8c4.6-0.6,12.6,0.1,8.8-1c-3.7-1.1-8,0.7-4.5-2.5   c3.4-3.1,4-4.2,9-6.3c5-2.1,10.5-6.9,10-1.8c-0.5,5.1-9.8,10.5-12.1,12.1c-2.3,1.6-1.4,1.4-1.4,2.1c0,0.7-0.3,2.1-1.3,2.7   c-0.9,0.6-0.6,1.3-0.4,2.8c0.2,1.4-0.2,2,0.4,2.2s1.4,0.3,1.6,1.3c0.2,1,0.7,1.1,2.1,1c1.3-0.1,2.2,0,2.3,0.8   c0.1,0.8,1.4,1.8,1.5-0.5c0.1-2.4,1-2.9-1.4-1.8s-3,0.7-2.9-0.4s-0.2-0.9-1.2-1s-1.4-1.5,0.4-2.5c1.8-1,1.8,0,4.1-1.9   s2.3-2.4,2.6-3.3s-3.2,2.6-5,3.3c-1.7,0.8-1.3-0.5-1-2.5s4.6-4.5,6.6-4.6c2,0,6.4,1.1,4.5,3.8c-1.9,2.7-7.4,5.9-5,6.1   c2.3,0.2,2.7-0.7,4.1,0.5s0.1,3.6-0.5,4.9c-0.6,1.3-1.9,2.9-2.5,3.2c0,0-2.5-4.4-2.4-0.9c0.1,3.5-0.5,4.7,0,4.9   c0.5,0.1,3.3,2,4.1,2c0.9,0-4.7,2.6-2.4,2.8c2.3,0.2,6.1-1,7.4-3.5c0,0-4.8-1.2-6.7-3c0,0,5.6-1.3,4-6.7c0,0,5.5,1.5,3.1,4   c-2.4,2.5-3.8,2.1-1.8,2.8c2.1,0.7,3.1,1.3,3.1,1.3s1.4,0.7,0.6,1.9c-0.8,1.2-0.8,2.9-0.1,2.9c0.7,0,3-1.1,1.1-2.3s2.2-1,0.4-2   c-1.8-1-2.3-1.3-2.7-1.7c-0.5-0.5,22.6-14,10.9-8.9c0,0,2.4-5.2,5.8-5.3c3.4,0,3.6,2.7,1.7,4.7c-1.9,2-3.2,5.2-7.7,6   c0,0,6.5,3.2-1.2,8.3c0,0-1.7,0.8-1.1,1.4c0.6,0.6,5.1-2,5.8-3.4c0.6-1.4,1.6-2.6,3.3-3.4c1.7-0.8,10.2-6.6,12.8-11   c2.6-4.4,3.3-4.5,8.2-8.5c5-4,4.1-3.2,4.8-4.2c0.6-1,0.9-2.6,3.2-3.9c2.3-1.3,11.2-6.2,14-8.3c2.8-2,8.5-5.7,11-8.9   c2.5-3.1,9.1-7.1,10.7-6.4c1.7,0.7-0.2,3.1-4.1,6.1c-3.9,3-13.5,10.8-15.1,12s-9.7,7.2-12.8,7.6c-3.1,0.4-2.7,1.5-4.6,3.5   s-6.1,6.2-7.5,7.3c-1.4,1.1-4.8,3.5-5,5.1c-0.2,1.6,0.6,1.8-2.1,4.4s-10.7,8.4-13.6,9.3c0,0,5.1,1.7,2.1,5.2s-2.9,3-3.1,3.2   c0,0,7.8-1.1,2.3,4.9c0,0-1.1,1.7,1.4-0.1c2.6-1.9,1.5-4.6,1.2-5c0,0,4.1-2.6,8.9-2.6c4.8-0.1,4.6-0.4,0.3-1.6c0,0,3-3.7,5.6-1.9   c2.6,1.8,1.7,2.9-1,4.3c-2.7,1.4-6.7,2-9.6,3.7c0,0,5.6,1.1,8.6-1.2c3-2.3,3.2-1.1,3.6-0.7c0.4,0.4,0.7,1.1-0.6,3.1   c-1.3,1.9-1.5,2-1.4,2.4c0.1,0.4-0.1,1.7-2.8,2.2c-2.7,0.4-4,1.6-3,2.9s1,4.5-1.4,4.2s-1.7-2.1-2.6-2.9c-0.9-0.7-2.2-1.8-6.2,0.3   c-4.1,2.1-4.4-0.4-4.2-1.7c0,0-2.6,2.3-4.8,0.2c-2.2-2.1-0.2-2.9,1.1-4c1.3-1.1,6.4-3.3,3.3-2.9c-3.1,0.4-7.7,0.6-8.8-1.8   c-1.1-2.4,2.3-2.1,2.8-1.9c0.5,0.2,2.7,2,2.8-0.3c0.1-2.3,3.5-2.6,2.3-3c-1.2-0.5-2.8,1-3.3,1.6c0,0-2.4-3.3-6.3-2.2   c-3.9,1.1,1.2,0.6,2.3,0.8c1,0.2,0.4,2.1-3,5.2c-3.5,3.1-1.9,2.2,0.7,2.2c2.6,0,8.8,0,5.2,3s-5.1,4.5-7,4c-1.9-0.5,0.2-1.8,1.1-2.3   s1.3-1.4-0.5-0.8c-1.8,0.7-2.4,0.8-3.9-1.7c-1.4-2.5-0.8-1.8-0.2-3.5c0.6-1.7,2-3.4,0.3-2.8c-1.7,0.6-1.5,0.7-1.4-1.2   c0.1-1.9-1.9-2.3-1.9-2.3s0.8,1.9,0.1,3.1s-0.8,1.6,0.4,2c1.2,0.3,2.3,1.3,0.7,2.5s-1.4,1-0.4,1.6c1,0.7,2.5,1.4,0.9,3   c-1.6,1.6-0.3,1.1,0.5,1.1c0.8,0,2.6,0.7,2.6,2.2c0,1.5-0.1,1.9,2.5,0.5c2.6-1.4,7.8-1.3,7.7,0.7c-0.1,2-0.7,2.5,2.1,0.8   s4,1.6,5.9,0c1.9-1.6,3.1-3.2,5.3-0.4s1.5,3.6-1.2,5.6s1.3,0.4,3.3-0.6c2-1,7.7-1.7,11-0.3c3.3,1.4,4.2,1.1,6.6,0.1   c2.4-1,3.6-1.2,7.3,1.2c3.6,2.4,6.5,2.9,8.3,2.8c0,0-4,1.6-8.5,1.9c-4.5,0.3-6.8,1.1-7.7,1.8c0,0,2.7,1.6,3.3,3.7   c0,0,3-0.4,4.4,0.2c0,0-0.8,2.1,1.1,3.3c1.8,1.1,3.1,1.6,1.7,3.1c-1.4,1.6,2.1,0.9,0.1,3.1c-2,2.2-2.5,3.3-2.6,5.1   c-0.1,1.8,0.4,2.1-1.3,2.2c-1.8,0.2,0.3,2.1-0.5,4.5c-0.8,2.3-5.7,2.1-5.5,8.4c0,0,1.4-3.1,4.3-5.8c2.9-2.7,3-2.9,3-4.6   c-0.1-1.6-0.2-1.2,1.4-2.5c1.6-1.2-0.7-2.4,0.9-4.1c1.6-1.7,0.2-1.4,2-3.2c1.8-1.8-1.6-2,0.3-3.8c1.9-1.8-4.5-3.9-2.7-5.1   s5-2.8-5.7-2.6c0,0,2.6-4.2,11.5-3.3c0,0-2.4,1.7-2.6,3.3c0,0,1,0.5,1.7,0.7c0,0-0.3,1.2-2.1,2.7c0,0,4.8,2.7,5.5,4.2   c0,0-2.9,0.9-3.6,2.2c0,0,1.3,1.4,1.7,3.3c0,0-3.2-0.4-3.7,2c-0.4,2.4-1.4,0.8-1.4,2.2c0,1.4,0.1,2-1,2.2c-1.1,0.2-0.2,1.4,0,2.2   c0.2,0.8,0.6,2.6,0.4,3.2c0,0-1.6,0-2.4,0.2c0,0,0.5,3.5-1.4,4s1,1.2-1,1.6c-2.1,0.4-1.8,0.5-4.3,5c0,0,2.2-1.2,4.4-2.7   c2.2-1.5-0.2-1,3.5-4.7c3.7-3.6,3-3.9,2.7-5.8c-0.3-1.8-0.4-3.3,1-5.1c1.3-1.7,1.8-3.7,6.5-3.5c0,0-1.4-3.1-3.1-4   c0,0,2.3-1.6,4.7-1.8c0,0-2.1-2.5-6.4-5c0,0,3.5-3,4.4-4.5c0,0-1.6,0.2-2.9,0c0,0,0.6-1.5,3.8-3.5c0,0,1.7,1.6,1.6,3.4   c0,0,5.5-3.1,8.5-2.8c0,0,1.6,3.9-6,11.3c0,0,4.7,0.4,6.7,0.2c0,0-1.1,3.6-6.8,5.8s1.2,4.6-4.6,4.2c-5.8-0.4-4,1.6-3.9,4.5   c0.2,3,0.4,6,0.2,6.8c0,0-4.7-1.5-4.6,3s-2.4,5.5-2.9,5.9c0,0-1.4-1.2-3.4-1.9C744.8,263.2,741.9,268.7,737.2,271.9L737.2,271.9z"
   id="path90" />
	<path
   class="st5"
   d="M730.6,215.4c0,0,1.6-0.3,4.3,1.4c2.7,1.7,5.3-1.8,2.3-2.7c-3-0.9,0-1.9,2.7,0.2c2.7,2.2,3.7,1.1,4.7,0.3   c1-0.7,2.2-1.2,0.3-2.4c-1.8-1.3,1.2-0.7,2.6,0.2c1.4,0.9,0.8,1.8,0.6,2.1c-0.2,0.3-0.3,3.2,2.4,0.4s4.1-5.5,4-6.8   c0,0,1.5,0.9,1.7,2.7c0.2,1.7,2.3-0.9,3-1.9c0.7-0.9,1.9-3.3,1.7-5.1c0,0,1.8,2.9,4.6,0c2.7-2.9,1.5-1.1,4.8-1.9s7.4-3.3,9.7-6   c2.2-2.7,2.4-0.9,5.3-1.6c2.9-0.7,8.7-4.7,9.3-6.9c0.5-2.2,0.4-3.5-0.4-2.8c-0.8,0.7-0.5,0.1-1.7-0.6c-1.2-0.8-3.1,1-3.1,1   s1.8,1.4,0.4,2s-2.7,2.6-5.4,1.8c-2.6-0.7-5.4,2.4-5.4,2.4s2.3,1.9-0.8,3.1c-3.1,1.2-2.6,1.6-4.5,0.3c0,0-3.3,4.2-5.2,5   c0,0-0.9-0.1-1.5-0.9c0,0-2.1,2.4-3.2,2.9c0,0-1.3-1.3-2.6-1.7c0,0-2.6,3.2-4.8,4.2c0,0-0.6-1.2-2-2c0,0-0.7,4.2-5.3,6.7   c0,0,0.3-1.1-2-2.7c0,0-5.7,4.9-7.9,5.4c-2.2,0.5-0.1-1,0.1-1.7c0.3-0.6,1.7-2.7-1-3.6s-2.3,0.6-2.9,0.9c-0.6,0.3-0.6-0.5-2.5-0.2   c-1.8,0.3-1.5,1.1-2.3,1.4c-0.8,0.3-4-0.5-3.8,1.6c0.1,2.1,1.6,3.6-1.1,4.8C723,216.3,726.9,216,730.6,215.4L730.6,215.4z"
   id="path92" />
	<path
   class="st4"
   d="M742.1,209.4c0,0,0.6-2.7-1.7-4c0,0,15.1-2.3,3.7-8.1c0,0,13.5-2.8,10.3-7.1c-3.2-4.3-6.3-3.4-6.8-3.3   c-0.5,0.1,2.9-2.5,3.8-2.2c0.9,0.3,11.8,4.5,9,0.9s-2.5-3.4-3-4.4c0,0,3.6,0,9,5.3c0,0,1.1-1.2,1-3.4c0,0,3.9,1.1,5.1,2.2   c0,0,0.6-1.3,0.4-2.1c0,0,3.3,1.8,4.5,3.7c0,0,1.5-1.3,1.8-2.9c0,0,3.3,1.4,4.2,2.4c0,0,1.1-1.5,0.7-3.5c0,0,5.5,1.6,6.3-1.8   c0,0,5.6,1.2,2,3.4c-4.7,2.8-0.5-0.7-5.2,2.6c-3.7,2.6-5.8,5.6-7.6,5c-1.3-0.5-2.9,3.3-4.7,1.5c-1.8-1.9-1.8-1-3,0.9   c-1.2,1.9-3.2,3.9-3.2,3.9s-1-0.6-1.7-1.3c0,0-1.1,1.8-2.5,3.1c0,0-1.1-1.5-2.8-2.4c0,0-2.7,3.2-4.4,4.3c0,0-1.6-1.6-3.3-2.1   c0,0-0.2,4.3-3.6,6.5c0,0-0.7-1.4-2.8-2.3C747.4,204.5,745.7,207.2,742.1,209.4L742.1,209.4z"
   id="path94" />
	<path
   class="st4"
   d="M734.2,202.9c0,0-1.8,1.4-0.6,2.9c1.2,1.5,1.2-0.3,2.7-0.4c1.5-0.1,20-3.3,3.2-8.3c0,0,0.7-0.6,3.6-0.9   s13.4-3.1,8.5-6.8c-4.9-3.7-9,1.3-4.8-3.2c3.3-3.6,0.6-5.3,0.6-5.3s-9.7,6.5-11.9,7.7s-5.2,3.5-1.6,4.7s6.1-4,6.5-2.8   c0.3,1.2-7.3,5.4-6.2,7.4c1.1,2,0.8,3.6,2.7,3.2c1.9-0.4,7,1,2.8,0.8C735.6,201.6,734.2,202.9,734.2,202.9L734.2,202.9z"
   id="path96" />
	<path
   d="M740.8,193.6c0,0-1.7,1.2,0.5,0.6c2.2-0.6,6.7-1.6,5.9-2.7C746.4,190.3,743.4,191.7,740.8,193.6z"
   id="path98" />
	<path
   class="st5"
   d="M770.5,174.3c0,0,8.6-0.2,12.1,2.2s5.2,4,6.3,4.3c0,0-0.1,3.2-5.6,0.9c0,0,0.3,1.6-0.3,3.1c0,0-2-1.3-4.4-1.9   c0,0-0.4,1.2-1.1,1.9c0,0-2.4-2.5-5.2-3.2c0,0-0.5,1.2-1,1.7c0,0-2.9-1.7-5.2-1.6c0,0,0.4,1.8,0,2.5c0,0-6.2-4.9-11.8-4.3   c0,0,2.7,3.9,4.4,5.9c0,0-11.2-0.9-9.4-6.9s-0.1-4.5,7.2-4.5C763.8,174.3,770.5,174.3,770.5,174.3z"
   id="path100" />
	<path
   class="st4"
   d="M717.8,191c0,0-1.3,1.1,0,2c1.3,0.9,5.7-2.3,6.3-2.8c0.6-0.4,2.2-0.4,0,1.3c-2.2,1.6-4.4,3.4-5.8,5.2   c0,0,7.4-2,12.3-6.2c4.8-4.2-0.2-1.5,8-5.5c8.3-4,12.6-10.4,8.1-9.7c-4.4,0.7-8.4,5.8-11.9,7.7c-3.4,1.9-5.4,2.2-4.8,1.1   c0.5-1.1,3.1-0.7,7.8-4.5c4.7-3.8,3.7-3.5,3.7-4.9s-1.8-4.7,5.3-8.4c7.1-3.7,29.3-16.7,31.2-21.2c0,0-6.5,0.7-15,7   c-8.5,6.3-13.1,9.3-15.5,10c-2.4,0.8-2.1,0.3-3.6,2.1c-1.5,1.8-10,10-11.5,11.2c-1.5,1.2-2,2-2.1,4.4   C730.4,181,720.8,188.3,717.8,191L717.8,191z"
   id="path102" />
	<path
   class="st4"
   d="M747.2,174.1c0,0-1.6,0.8-3.2,0c-1.6-0.8-1.1-4.2,2.7-6.3c3.8-2.1,10.8-5.1,14.4-5.6c0,0-0.5,4.4-11.5,8.2   C749.5,170.4,750.2,172.8,747.2,174.1z"
   id="path104" />
	<path
   class="st6"
   d="M751.1,171.2c0,0,0.3,1.1,0,2.1c0,0,20.5,2,31.1-10.5c0,0-14.5,1.3-20.3,4.8c0,0,3.6-4.6,14.5-8.3   c10.9-3.8,15.3-8.4,16.3-11c0,0-13.8,4.8-20.3,4.8c0,0-1.3,0-2.5,0.7c-1.2,0.7-10,7.1-12.4,8.2c0,0,4.9-0.4,6.7-2   C764.1,159.9,760.7,169.1,751.1,171.2L751.1,171.2z"
   id="path106" />
	<path
   class="st4"
   d="M711.8,182.9c0,0-2.6,1.9-1.5,2.8s3,1.1,7-2.2s13.7-11.7,7.6-12.1c0,0-7.9-0.5-7.6,4.3   C717.5,180.6,712.2,182.6,711.8,182.9z M693.6,180.1c0,0,5.2,3,3.2,5.5c0,0,15.9-13.5,11.4-16.4c-4.5-2.9-8,2.6-6.9,3.1   c1.1,0.6,3.4-0.5,2.6,0.6C703.1,173.9,694.6,179.6,693.6,180.1L693.6,180.1z M689.5,175.7c0,0,3.5,1,3.6,2.5   c0.1,1.5,10.5-7.3,7.8-11c-1.3-1.7-7-2.4-7.3,0.9c-0.2,3.3,5.2-0.3,3.3,2.1C694.4,173.4,690.2,175.2,689.5,175.7z M726.9,168.3   c0,0-2.2,1.6-0.2,2.6c2,1,3.3-0.6,4.3-1.5c1-0.9,5.9-4.5,7.1-6.8s2.8-3,4.6-4.2c1.8-1.2,14.5-7.5,22.3-14.5s4.5-5.2,12.6-9.7   c8.1-4.5,13.4-8.6,15.1-13.4c0,0-3.7,1.2-7,3.4c-3.3,2.1-10.7,6.8-12.2,7.4c-1.5,0.6-3.6,0.7-4.7,1.9c-1.1,1.2-1,2.5-4.9,5.8   c-3.9,3.2-24,17.4-26.4,19.4C734.9,160.7,726.9,168.3,726.9,168.3L726.9,168.3z"
   id="path108" />
	<path
   class="st6"
   d="M710.7,173c0,0,2.2-1.2,6.3-0.9c4.1,0.3,20.4-15.5,25.1-18.7s19.5-13.8,21.5-15.8c2-1.9,2.3-4,4.1-5.2   c1.7-1.1,3.3-1,7.3-3.3s23.2-13.7,22-20.4c0,0-28.5,17.1-35.1,22.7c-6.6,5.6-24.9,18.2-28.1,20.3c-3.3,2-5.9,5.6-11.3,10   S711.6,169.9,710.7,173L710.7,173z"
   id="path110" />
	<path
   class="st6"
   d="M704.7,167c0,0,5.3-0.5,6,2c0,0,11.3-7.8,13.9-11c2.6-3.2-0.9-1.3,5.6-5.6c6.5-4.2,27.9-19.2,30.9-21.9   c3.1-2.7,8.8-6.2,13.5-9.4c4.7-3.1,22.9-12.1,20.8-19.4c0,0-13.4,9-16.4,10.9c-3,1.9-4.3,0.8-7.3,3.2c-3.1,2.4-9.8,7.2-11,8.7   c-1.2,1.5-11.4,9.4-16.4,12.7c-5,3.3-16.2,9.8-21.6,14.5C717.4,156.5,706.9,165.2,704.7,167L704.7,167z"
   id="path112" />
	<path
   class="st6"
   d="M688.2,165.4c0,0,2.7,0,3.5,1.1c0,0,4.9-4.3,10.2-0.1c0,0,19.3-13,21.2-16.3c1.9-3.3,5.1-3.3,12.6-8.8   s12.2-7.8,17.2-11.7c5-3.9,9.2-8.3,12.8-10.6c3.6-2.3,12.6-8.3,11.1-13.4c0,0-7.3,4.2-12.1,9.4c-4.8,5.2-4.4,0.7-9.2,5.1   c-4.9,4.4-12.4,10.4-18.6,13.4c-6.3,3.1-2.5,2.7-7,5.6c-4.5,2.9-4.2,2.4-5.9,2.8c-1.7,0.4-4.2,1.6-5.9,3.5c-1.7,1.9-6.1,4.6-11,7.3   C702.3,155.7,690.3,162.8,688.2,165.4L688.2,165.4z"
   id="path114" />
	<path
   class="st6"
   d="M694,155.4c0,0-1-2.2,0.8-3.7c1.8-1.5,5.2-5.6,5.7-8.1c0.5-2.5,0.1-2.1,5.5-4.3c5.3-2.2,17.5-7.9,24.3-12.1   c6.8-4.2,17.2-11,19.4-12.7c2.1-1.6,7.4-5.3,9.5-7c0,0,1,2.9-1.3,4.9c-2.3,2-11.1,8.2-12.6,9.2c-1.4,1-9.6,6.4-12.1,7.8   c-2.5,1.4-8.7,4.5-10.9,6.3c-2.2,1.8-1.9,2.4-11.7,7.2c-9.8,4.8-10.2,5.3-9.9,5.6c0.3,0.4,4.7-1.5,6.8-2.8   c2.1-1.2,10.1-4.9,12.5-6.8c2.4-1.9,6.4-4.9,8.2-5.9c1.7-1,16.2-9.6,20.4-12.7c4.1-3.1,5.3-4.1,6.2-3.5c0.9,0.5,2.3,0.6,0.5,2.3   c-1.8,1.8-7.7,6.9-10,8.4c-2.2,1.5-9.3,5.7-11.2,6.7c-1.9,1-2.7,2.9-3.8,3.7c-1.1,0.8-4.3,3.1-8.2,4s-4.6,3.8-7.1,5.5   s-20.7,11.4-21.2,11.9C693.7,159.2,694.8,158,694,155.4L694,155.4z"
   id="path116" />
	<path
   class="st6"
   d="M756.7,114.8c0,0-1,0.9-0.4,1.4c0.7,0.7,3.2,2.4,6.4-0.7c3.1-3.1,11.6-9.9,14.3-11.5c2.7-1.6,4-3.1,3.9-5.3   C780.9,98.6,767.9,105.5,756.7,114.8z M774.6,113.6c0,0,2-3.3,6.9-6.5s12.2-7.7,13.2-8.8c0,0,1.7,2-2.1,4.4   c-3.8,2.4-11.3,7.4-12.2,8.1C779.5,111.5,778,112.6,774.6,113.6z"
   id="path118" />
	<path
   class="st5"
   d="M675.1,149.8c0,0-5.4,2.9-3.5,4.7c1.9,1.8,4.8,1.3,6,0.7c1.2-0.5,3.5-1.1,3.8-1.2c0.3-0.1,5.1-1.5,6.3-3.7   c1.2-2.2,4.4-4.7,6.9-6.6c2.5-1.8,3.4-3.7,3.1-5C697.8,138.8,676.4,149,675.1,149.8z M642.8,174.9c0,0,3.8-2.2,9-0.8   c0,0-0.2-1.3-1-1.9c0,0,6.4-1.7,7.8-4.5s1.7-2.2,2.9-3.1c1.2-0.8,9.9-7.8,8.9-9.3c-1-1.5-1.2-3.4-1.9-4.2c0,0-1.8,2.5-10.2,6.5   c-8.4,4.1-17.7,7.1-24.5,16.3c-6.8,9.2-6.1,14.5,2.2,16.8c0,0,5.8-3.7,20.1-2.4c14.2,1.3,19.1,6.6,20,7.6c0.9,1,3.8,4.5,1,10.4   c0,0,2.8,1.2,3.1-1.5s0.4-2.1,1-1.7c0.6,0.4,1.4,0.5,1.1-1.6c-0.3-2.1-1.3-6.8-2.6-8.4c-1.3-1.6,0.1-0.9,1-0.6   c0.8,0.3,3.8,2.8,2-1.7c-1.8-4.5-2.2-2.3-2.3-2.1c0,0.2-0.4,1.3-4.3-1.6c-3.9-2.9-7.4-4.3-10.1-5.1c-2.6-0.7-0.8-0.7,0.7-1.3   c1.5-0.6,3.6-0.9,4.3-2.6c0,0-1.5,0.4-4.4-0.6c-2.8-1-8.5-1.1-13.1,2.3c0,0,1.4-5.3-2.7-5c-4.2,0.3-7.1,0.2-11.6,3.7   c0,0-0.2-5.3,3.9-8.1s3.6-1.1,6-1.8c2.3-0.7,2.5-3.1,1.5-3.8c0,0,5.5,0.9,14.7-6.7c0,0-5,6.5-11,7.8c0,0-1,3.5-6.4,4.2   C642.6,170.9,642.7,174.1,642.8,174.9L642.8,174.9z"
   id="path120" />
	<path
   class="st4"
   d="M627,206.5c0,0,2.7-16.1,17.8-17.3c13.2-1,17.4,0.6,20,1.5s9,2.7,6.6,4.8c-2.5,2.1-3.9,1.7-3.9,1.7   s2.9-3.2,0.3-3.8c-2.6-0.5-2.9,1-3.2,2.4c-0.4,1.3-0.5,3-1.8,4c0,0-1.3-1.5-3.2-0.2c-1.9,1.3-0.3,1.4,0.5,1.2   c0.8-0.2,1.8-0.6,1.6,0.5c-0.2,1.2-1.3,3.2-4.4,4.8c-3.1,1.6-3,1.5-6.7,2.1c-3.7,0.6-7.2,2.1-11.9,6.1c-4.8,4.1-10,2.7-11-1.8   C626.6,208.8,627,206.5,627,206.5L627,206.5z"
   id="path122" />
	<path
   d="M644.3,206c0,0,1.4-3.2-1.1-4.6c0,0-7.9,1.4-10.3-1c0,0,8.6-0.4,14-2.5c5.3-2.1,3.7-3.5,1.9-3.9c-1.8-0.3-5.2,0.5-5.6,2.2   c0,0-1-1.8,0.3-3c1.3-1.2,3.4-1.4,5.3-0.9c1.9,0.6,3.6,1.4,9.8-1.9c0,0,3.6,0.8,3.7,3.2s-0.2,3.4-0.5,3.8c-0.3,0.4-0.7,1.1-1.5,1   c-0.7-0.1-1.7-0.3-2.6,1.4c-0.9,1.7-1.5,3.1-3.1,4.3c0,0,1.9-5.2-2.7-6.5c0,0-3.8,2.2-6.7,2.4C645.1,200,648.8,203.5,644.3,206   L644.3,206z"
   id="path124" />
	<path
   class="st4"
   d="M652.6,196.4c0,0-1.7-1.9,0.5-2.1c2.3-0.2,5.3,1.5,4.7,2.9C657.3,198.6,654.6,198.6,652.6,196.4L652.6,196.4z"
   id="path126" />
	<path
   class="st2"
   d="M782.3,170.9c0,0-4.2,1.2-0.3,3.8s5.8,4.8,8.6,5.6c2.8,0.7,5.8,1.8,5.7,4.6c0,2.8-0.6,4-2.1,5.9   c-1.5,1.9,0.8,2.8,2.9,1.7c2-1.1,3.8-1.7,5.1-2.5s3.6-0.7,1.5,0.4c-2,1-4.2,1.7-1.5,1.8c2.6,0.1,18.6,0.4,21.9-0.7   c3.3-1.1,7.7-1.4,8.1-5.8c0,0,0.1-1.9,1.4-2.7c1.2-0.8,2.1-2.7,0.3-1.4c-1.8,1.3-3.2,1.9-3.6,1.5s-0.4-0.6,0.9-1.3   c1.3-0.6,2.1,0,3.3-1.8c1.2-1.8,1.1-1.5,0.5-2.2c-0.7-0.7-2-1.2-1.3-2.1s1.3-3.5-1.6-2c-2.9,1.5-8.7,5.5-11.3,6.1s-4.7,1.4-8.3,2.2   s-5.8,1.5-9.6,3.6c-3.8,2.1-3.6-1.2-2.9-1.6c0,0,1.5,2.6,5.4-0.8c3.9-3.3,2.6-0.2,12.1-3.3c9.5-3.1,7.2-3.6,10.9-5.6   c3.7-1.9,7.3-2,4.7-4.6c-2.6-2.6-2.9-2.8-6.3,0c-3.4,2.8-12.6,7.3-18.2,7.5c0,0,21.5-9.3,19.3-10.6c-2.2-1.3-4.6-2.5-6.1-2.9   s-1.9-0.7-5.4,0.8s-4,1.9-5,2c-1,0.1-3.9,0.7-8,2.8c-4.1,2.1-6.3,3-9,4.6c0,0,1.9-3.8,10.3-6.4c8.4-2.5,12.8-4.9,11.8-5.3   c-0.9-0.4-3-0.8-4.6-0.5c-1.6,0.2-1.1-0.1-6.3,1.9s-3,1.6-7.1,2.5c-4.2,0.9-5.9,1.8-7.9,2.7c0,0,0.8-1.1,3.6-2.1   c1.4-0.5-1.6-1.1,2.4-1.2c0.3,0,0.7,0.1,1.1,0c5.2-1.5,10.8-3.5,9.9-3.7c-0.9-0.1-5.9-0.7-11,1.7c-5.1,2.3-2.8,1.5-4.6,1.9   c-1.8,0.4-5.6,2.8-6.9,3.8C784,170.2,782.3,170.9,782.3,170.9L782.3,170.9z"
   id="path128" />
	<path
   class="st4"
   d="M656.6,194.1c0,0,2,0.6,2.5,2c0.5,1.4,1.7-0.6,1.7-1.3c0-0.6-1.3-3.4-3.4-2.1C655.2,194,656.3,194,656.6,194.1   L656.6,194.1z"
   id="path130" />
	<path
   class="st5"
   d="M651,221.8c0,0,4.3-2,7.8-1.8c0,0-1.4-5,1.1-4.2c2.5,0.9,1.8,0.5,2.3,0.5c0,0,0.1-3.3-0.5-4.6   c0,0,2.5,0.6,5.1,0.6c0,0-2.4-4.8,0.2-8.1c0,0,1.5,3.1,4.8,3.9c0,0,0-1.3,0-2.8c0,0,2-0.2,3.5,0.6c1.5,0.8,2.8-8.7-1.7-10.8   c0,0-1.1,1.8-5.4,2.7c-4.3,0.9-4.3,1.8-6,5c-1.8,3.2-3.3,3.3-6.9,5.6c-3.6,2.3-5.8,7-6,7.4C649.4,216,651.3,218.3,651,221.8   L651,221.8z"
   id="path132" />
	<path
   class="st7"
   d="M794.2,166.7c1.6-0.3-1.6-1.1,2.4-1.2c0.3,0,0.7,0.1,1.1,0c5.2-1.5,10.8-3.5,9.9-3.7c-0.9-0.1-5.9-0.7-11,1.7   c-5.1,2.3-2.8,1.5-4.6,1.9c-1.8,0.4-5.6,2.8-6.9,3.8c-1.3,1-3,1.8-3,1.8s-4.2,1.2-0.3,3.8s5.8,4.8,8.6,5.6s5.8,1.8,5.7,4.6   c0,2.8-0.6,4-2.1,5.9c-1.5,1.9,0.8,2.8,2.9,1.7s3.8-1.7,5.1-2.5c1.3-0.8,3.6-0.7,1.5,0.4c-2,1-4.2,1.7-1.5,1.8   c2.6,0.1,18.6,0.4,21.9-0.7c3.3-1.1,7.7-1.4,8.1-5.8c0,0,0.1-1.9,1.4-2.7c1.2-0.8,2.1-2.7,0.3-1.4c-1.8,1.3-3.2,1.9-3.6,1.5   c-0.3-0.4-0.4-0.6,0.9-1.3c1.3-0.6,2.1,0,3.3-1.8c1.2-1.8,1.1-1.5,0.5-2.2c-0.3-0.4-0.9-0.7-1.2-1c0,0-1-0.8-2.1-0.1   c-1.1,0.7-6,2.8-8,3c-2,0.2-4,1.1-7.5,2.8c-3.5,1.7-9.4,5.2-10.3,2c0,0-2.6,0.9-3.1,1.2c-3.9,2-3.6-0.8-2.9-1.6c0,0-2.1,2.3-2,0.2   c0.1-2.1,1.4-1.7,3.7-2.4c2.3-0.7,5.9-2.2,4.4-3.4c-1.5-1.2-3.1,1.2-4.7,2s-5,1.4-5.5-1s-0.5-4.1-5-4.4s-4.3-3.1-3.1-4.3   S790,167.4,794.2,166.7L794.2,166.7z"
   id="path134" />
	<path
   d="M808.5,188.5c0,0,7-3.2,13.5-4.8c6.5-1.5,1.4,0.2,0.3,0.5s-11.1,3.7-13.5,4.8C806.4,190.2,806.9,189.2,808.5,188.5   L808.5,188.5z M810.1,190c0,0,7.9-2.6,9.3-1.5c1.5,1.1,0.3,0.5-1.5,0.8c-1.7,0.2-6.5,1-7.8,1C809,190.2,810.1,190,810.1,190z    M822.8,187.2c0,0,1.5-0.3,1.7,0.3c0.2,0.5-0.7,0.6-1.5,0.5C822.1,187.9,821.4,187.4,822.8,187.2z"
   id="path136" />
	<path
   class="st2"
   d="M614.5,255.9c0,0-0.3-6.9,3.2-10.4s20.5-21.2,23.1-26.1c0,0,2.2,1.5,2.3,4.3c0,0,2.8-4.9,5.1-6.7   c0,0,2,2,1.6,6.1c0,0,4.1-2.2,10.4-2.2c0,0-2.3,2.8-2.4,4.4c0,0,8.8-1,13.4-0.2c0,0-12.1,6.8-8.7,7.4c3.4,0.6,6.9,0,6.9,0   s-3.8,3.9-10,4.7c0,0,7.8-0.1,9.3,1.6c0,0-7.6,1.2-13.7,5.8c0,0-0.6-0.3-0.6-2c0,0-0.2,1.5-1.9,3s-5.9,4.6-7.5,6.1   c-1.5,1.6-4.4,4.7-7.5,4.5c0,0,0.7-2.4-1.6-3.1c-2.3-0.7-4.9-0.2-6.8,1.8c0,0-8.2,0.1-10.8,0.5c0,0,1.8-3,3.5-2.9   c1.7,0.1,8.5,1,9.1-3.7c0.6-4.7-4.4-3.4-2.5-6.2c1.9-2.8,1.4-2.7,1.5-2.9c0,0-1.5,0.9-2.4,3.3c-0.9,2.5-1.5,4.4-4.8,6.8   s-4.6,4-5.5,5.7C617.4,255.4,615.9,255.6,614.5,255.9z"
   id="path138" />
	<path
   class="st2"
   d="M622.4,251.7c0,0,0.3-0.9,2.7-1.3c2.4-0.4,2.5-1.5,2.2-2s-1.7-0.5,0.6-3.1c0,0,0.8,0.2,1.4,0.9   C629.8,246.7,632.5,252.3,622.4,251.7z"
   id="path140" />
	<path
   class="st7"
   d="M616.7,246.8c0.1,4.6,6.2,2.9,6.2,2.9c-2.2,1.6-3.5,2.8-4.4,4c0.4-2.2-3.4-2.8-3.4-2.8   C615.4,249.5,615.9,248.1,616.7,246.8z M638.9,222.2c0.9-1.1,1.5-2.1,1.9-2.8c0,0,2.2,1.5,2.3,4.3c0,0,2.8-4.9,5.1-6.7   c0,0,2,2,1.6,6.1c0,0,4.1-2.2,10.4-2.2c0,0-2.3,2.8-2.4,4.4c0,0,8.8-1,13.4-0.2c0,0-12.1,6.8-8.7,7.4c3.4,0.6,6.9,0,6.9,0   s-3.8,3.9-10,4.7c0,0,7.8-0.1,9.3,1.6c0,0-2.2,0.3-5.2,1.4c0,0-2.2-2.1-8.7-1.8c0,0,5-2.8,9-3.7c0,0-1.8-2.3-4.5-0.2   c0,0-5.5-3.8-1-7c0,0-3.2-0.7-5.3,0.8c0,0,0.1-2.6,2.4-3.8c0,0-6.2-1-7.7,3.5c0,0-1.2-1.9-0.6-4c0,0-3.7,2.1-5.4,4.6   C641.8,228.5,641.3,223.9,638.9,222.2 M627,251.5c-1.1,0.3-2.6,0.4-4.5,0.3c0,0,0.2-0.6,1.4-1C623.9,250.7,624.2,251.4,627,251.5"
   id="path142" />
	<path
   d="M638.2,234c0,0,2.8,2.2,3.8,3.5c0,0,2.5-1.8,3.5-3.2c0,0,2,1.3,2.7,3.2c0,0,1.4-1,1.7-2.3c0,0,3.5,0.7,4.7,1.9   c0,0,0.5-3.4,0-5.5c0,0,2.5,0.2,4,0.8c0,0-1.4-2.2,5.7-5.1c0,0-5.4,1.2-7.4,3.5c0,0-2.3,0.1-3.3-0.6c0,0,0.1,3.4,0,5.1   c0,0-1.4-0.6-4.1-1.2c0,0-0.7,1.1-1.1,1.4c0,0-1.7-1.3-2.4-3.1c0,0-2.6,2.4-3.6,3.4C642.3,235.8,639.8,234.1,638.2,234L638.2,234z"
   id="path144" />
	<path
   class="st3"
   d="M622.1,269c0,0,1.1,0.5,3.7-1.6c2.6-2.1,9.9-6.8,10.6-10.5c0.7-3.7-2.3-4-4.7-2.9c-2.4,1.1-1.4,3.2-1.3,3.8   c0.1,0.7,0.1,3.3-3.7,6.9C622.7,268.4,622.1,269,622.1,269L622.1,269z"
   id="path146" />
	<path
   class="st3"
   d="M621.2,270.2c0,0-5.9-2.5-0.6-5.1s7.6-3.4,8.2-5.6c0.6-2.2,0.2-1.8-1.7-0.9c-1.9,0.9-9.4,4.3-10.6,1.2   c0,0,3.1,1.2,6.9-0.7s7-2.4,4.5-3.2c-2.4-0.8-11.3,0.2-12.7,0.6s-1.1,0.3-1.3,1.8c-0.2,1.5-1.9,4.5-2.5,5.4c-0.6,0.9-2,4.6,0.6,6.3   C614.9,271.6,619.1,271.5,621.2,270.2z"
   id="path148" />
	<path
   d="M618.9,257.3c0,0-1.3,0.2-1.1,0.7s0.6,0.4,1.1,0.5c0.5,0,1.2-0.3,1.3-0.6C620.4,257.6,619.4,257.2,618.9,257.3L618.9,257.3   z"
   id="path150" />
	<path
   class="st2"
   d="M620.9,268.9c0,0-2.8-1.3,0.3-3.1s6.5-3.4,7-4.1C628.2,261.7,626.7,263.8,620.9,268.9L620.9,268.9z"
   id="path152" />
</g>
</svg>
