<?xml version="1.0" encoding="UTF-8" standalone="no"?>
<svg
   xmlns:dc="http://purl.org/dc/elements/1.1/"
   xmlns:cc="http://creativecommons.org/ns#"
   xmlns:rdf="http://www.w3.org/1999/02/22-rdf-syntax-ns#"
   xmlns:svg="http://www.w3.org/2000/svg"
   xmlns="http://www.w3.org/2000/svg"
   xmlns:xlink="http://www.w3.org/1999/xlink"
   xmlns:sodipodi="http://sodipodi.sourceforge.net/DTD/sodipodi-0.dtd"
   xmlns:inkscape="http://www.inkscape.org/namespaces/inkscape"
   width="875"
   height="500"
   version="1.1"
   id="svg286"
   sodipodi:docname="Andorra.svg"
   inkscape:version="1.0.2 (e86c8708, 2021-01-15)">
  <metadata
     id="metadata292">
    <rdf:RDF>
      <cc:Work
         rdf:about="">
        <dc:format>image/svg+xml</dc:format>
        <dc:type
           rdf:resource="http://purl.org/dc/dcmitype/StillImage" />
      </cc:Work>
    </rdf:RDF>
  </metadata>
  <defs
     id="defs290" />
  <sodipodi:namedview
     pagecolor="#ffffff"
     bordercolor="#666666"
     borderopacity="1"
     objecttolerance="10"
     gridtolerance="10"
     guidetolerance="10"
     inkscape:pageopacity="0"
     inkscape:pageshadow="2"
     inkscape:window-width="1344"
     inkscape:window-height="729"
     id="namedview288"
     showgrid="false"
     inkscape:zoom="0.66644481"
     inkscape:cx="436.27516"
     inkscape:cy="246.30581"
     inkscape:window-x="0"
     inkscape:window-y="25"
     inkscape:window-maximized="1"
     inkscape:current-layer="svg286" />
  <path
     fill="#d0103a"
     d="M 583,0 H 875 V 500 H 583 Z"
     id="path10"
     style="stroke-width:0.456696" />
  <path
     fill="#fedf00"
     d="M 292,0 H 583 V 500 H 292 Z"
     id="path12"
     style="stroke-width:0.552877" />
  <path
     fill="#0018a8"
     d="M 0,0 H 292 V 500 H 0 Z"
     id="path14"
     style="stroke-width:0.807333" />
  <g
     id="g627"
     transform="translate(192.34581,0.50555111)">
    <path
       fill="#c7b37f"
       d="m 223.27786,134.11071 c 8.60785,0 12.12785,7.38429 20.735,7.38429 5.31428,0 8.41214,-1.73572 13.04357,-4.34786 3.23143,-1.83 5.29285,-2.805 9.00357,-2.805 3.79928,0 6.12857,1.14857 8.07214,4.405 1.09786,1.84286 2.01,5.44857 1.52714,7.51786 -0.91571,3.92357 -1.47928,5.62928 -3.04428,9.25214 -0.745,1.74143 -1.44857,2.78429 -1.44857,4.69 0,4.56857 6.21714,6.13857 10.44428,6.20357 0.92143,0.0143 8.67072,0.14143 13.43929,-4.68571 -2.58714,-0.11429 -5.48214,-2.11786 -5.48214,-4.70572 0,-2.92785 2.05714,-4.90928 4.84642,-5.755 0.53,-0.15143 1.43286,0.31643 1.91215,0.0643 0.68143,-0.35357 0.36285,-1.12 0.96857,-1.6 1.38857,-1.11072 2.29071,-1.80357 4.07071,-1.80357 1.16072,0 1.84143,0.16357 2.775,0.83214 0.49286,0.35357 0.67357,0.79071 1.27857,0.79071 1.27572,0 1.90715,-0.80714 3.18143,-0.80714 1.035,0 1.66572,0.13857 2.57429,0.60572 0.75714,0.39142 0.74071,1.67785 1.59857,1.67785 0.42929,0 2.69929,-0.92571 3.88571,-0.92571 2.46143,0 3.775,0.89143 5.36572,2.75928 0.42857,0.505 0.70357,1.52643 1.14,1.52643 0.87857,0 2.90357,0.56572 4.16571,1.82786 0.54286,0.54286 0.78286,0.8 1.2,1.45571 0.29,0.46715 0.73572,1.60715 1.24857,1.80429 0.60143,0.23143 1.10572,0.18643 1.89643,0.69357 1.80357,1.15643 3.19143,3.33 3.12643,5.43643 -0.0214,0.70643 -0.34428,1.69143 -0.53571,2.36429 -2.10143,7.34571 -7.1,9.67714 -12.14929,15.98714 -2.14571,2.68786 -3.83928,4.83357 -3.83928,8.27857 0,0.83357 1.02571,2.35929 1.48071,3.05357 -0.27786,-1.61928 0.46214,-3.60786 2.17357,-3.7 2.34429,-0.12714 4.155,1.655 4.47072,3.97714 0.0628,0.54286 -0.13929,1.48072 -0.37072,2.03572 1.26214,-0.83357 2.92643,-1.39643 4.44072,-1.57286 a 13.810714,13.810714 0 0 1 2.12785,-0.0929 c 3.74643,0.0929 7.88143,2.2 10.39072,4.33143 7.67785,6.52143 8.60643,16.06572 8.18714,18.71643 -0.93214,5.89 -0.34571,16.54857 -15.4,20.79786 2.78357,1.17214 4.67857,3.26643 4.67857,5.84143 0,2.80214 -2.14643,5.2 -4.94786,5.2 -1.60357,0 -2.71428,-0.39143 -3.83714,-1.51429 -3.13,3.12929 -3.73571,6.32286 -3.73571,10.75286 0,2.65 0.50428,4.215 1.615,6.61286 1.17428,2.53714 2.01928,4.02642 4.14,5.85714 1.12357,-1.69214 2.31,-2.92857 4.34143,-2.92857 1.96928,0 3.63571,0.63071 4.44285,2.42285 0.24,0.54286 0.025,0.985 0.30286,1.51429 0.35357,0.68214 0.94714,0.83357 1.31286,1.515 0.56785,1.04786 0.0129,1.94357 0.505,3.02857 0.315,0.70714 1.00928,0.80857 1.31214,1.515 0.48,1.08572 0.60643,1.83 0.60643,3.02857 0,3.35786 -3.055,5.75572 -6.41214,5.75572 -1.00929,0 -1.56429,-0.40357 -2.57429,-0.30286 1.91857,1.91857 3.38214,2.75143 4.84643,5.04857 2.12,3.31929 2.65,5.67929 3.13,9.59214 0.0886,0.73215 0.10143,1.17358 0.10143,1.91858 0,5.02285 -0.78286,8.02714 -3.02929,12.52 -2.14571,4.30357 -3.97571,6.68928 -7.87571,9.49071 -6.08357,4.37929 -10.51429,5.64214 -17.87143,7.06786 -4.72072,0.90857 -7.42143,1.31285 -12.21786,1.61571 -6.13428,0.39143 -9.63,0.40357 -15.75143,0.80714 -8.02714,0.54286 -13.59285,1.67858 -19.28571,7.37143 2.68928,1.96857 4.54428,3.9 4.54428,7.21929 0,3.40714 -2.10785,5.84286 -5.35142,6.91643 -0.75715,0.25214 -1.31286,0.025 -2.01929,0.40357 -0.84571,0.44143 -0.80786,1.41357 -1.61571,1.91857 -1.42643,0.90857 -2.53715,1.11071 -4.24072,1.11071 -3.00357,0 -5.04857,-0.70714 -7.16928,-2.82785 -2.46072,2.045 -3.29429,3.88785 -6.05786,5.45285 -0.90929,0.505 -1.37643,1.21143 -2.42357,1.21143 -1.65357,0 -2.41072,-1.04714 -3.73572,-2.01928 -2.10785,-1.54 -3.23143,-2.56215 -4.94785,-4.54286 -2.51143,1.50143 -4.05143,2.72571 -6.96715,2.72571 -1.79214,0 -2.92857,-0.25285 -4.44285,-1.21214 -0.795,-0.49214 -0.92143,-1.22428 -1.71643,-1.71643 -0.83286,-0.51714 -1.52715,-0.32785 -2.42286,-0.70714 -3.37,-1.45071 -5.55357,-3.95 -5.55357,-7.62214 0,-3.21857 2.03214,-5.26357 4.94786,-6.61429 -5.59143,-5.59071 -11.09429,-6.56214 -18.98286,-7.06714 -6.09643,-0.39143 -9.56714,-0.40357 -15.65072,-0.80786 -4.83428,-0.32857 -7.52214,-0.82071 -12.31857,-1.61571 -3.62285,-0.59286 -5.76785,-0.78215 -9.08714,-2.32215 -11.42214,-5.32642 -18.705,-12.63357 -20.19429,-25.14142 -0.12642,-1.07286 -0.10142,-1.69143 -0.10142,-2.77643 0,-6.51286 2.56214,-10.48786 7.16857,-15.095 -1.18572,-0.27857 -1.98143,0.11357 -3.13,-0.30286 -2.87786,-1.04786 -4.94715,-3.04214 -4.94715,-6.10929 0,-1.13571 0.05,-1.89285 0.60572,-2.87714 0.39143,-0.69428 1.13571,-0.83357 1.31214,-1.61571 0.22714,-1.035 -0.0757,-1.76715 0.40429,-2.72643 0.31571,-0.64286 0.90857,-0.77 1.21143,-1.41357 0.99714,-2.06929 2.24714,-3.73572 4.54357,-3.73572 1.96928,0 3.23143,1.035 4.24071,2.72643 1.91857,-0.88357 2.44857,-2.32286 3.53429,-4.14 1.805,-3.01643 2.625,-5.12428 2.625,-8.63286 0,-2.44857 -0.23929,-3.88714 -1.00929,-6.20928 -0.55571,-1.66643 -0.78286,-2.80214 -2.01928,-4.03857 -1.12358,1.12285 -2.23429,1.51428 -3.83715,1.51428 -3.20571,0 -5.65428,-2.75143 -5.65428,-5.95714 0,-2.38571 1.17357,-4.15214 3.33214,-5.15 -1.72929,-1.48857 -3.23143,-1.615 -5.15,-2.82643 -2.915,-1.84286 -3.93714,-3.78643 -5.85571,-6.66428 -1.25,-1.88072 -1.57858,-3.19286 -2.22143,-5.35143 -0.77,-2.6 -1.21215,-4.15215 -1.21215,-6.86572 0,-0.70714 0.0129,-1.12357 0.10072,-1.81785 0.72,-5.47715 1.70428,-8.91072 5.15,-13.22715 2.04428,-2.56214 3.43286,-4.13928 6.46214,-5.45214 2.57429,-1.11071 4.11429,-1.91857 6.91643,-1.91857 0.84571,0 1.33786,0 2.17143,0.10143 1.28643,0.16428 2.10714,0.27714 3.23071,0.90857 0.42857,0.24 1.21143,0.95928 1.21143,0.45428 0,-0.58071 -0.30286,-0.88357 -0.30286,-1.46428 0,-2.32143 1.66572,-4.44286 3.98858,-4.44286 1.67857,0 2.36,1.47714 3.18071,2.92857 0.53,-0.88357 0.80714,-1.48928 0.80714,-2.52428 0,-3.83715 -2.05714,-5.79286 -4.44285,-8.78429 -5.2,-6.5 -11.71215,-9.54143 -11.71215,-17.87143 0,-2.48571 1.19857,-4.17785 3.33215,-5.45214 0.61785,-0.36643 1.45,0 2.055,-0.38786 0.51785,-0.32857 0.45857,-0.99643 0.78642,-1.52643 0.51786,-0.82 0.97572,-1.17285 1.695,-1.80357 1.18643,-1.035 2.22858,-0.725 3.54072,-1.63357 0.65643,-0.45428 0.81143,-1.045 1.31643,-1.65 1.46428,-1.76714 2.77857,-2.62071 5.08785,-2.62071 1.16072,0 1.81286,0.007 2.88572,0.43357 0.36571,0.13928 1.05,0.69071 1.13857,0.58428 0.23071,-0.27785 0.85714,-0.94214 1.60214,-1.295 0.97143,-0.46714 1.36643,-0.64785 2.45143,-0.64785 1.23714,0 2.04714,0.69357 3.28429,0.69357 0.45428,0 0.55928,-0.45357 0.925,-0.69357 1.09785,-0.74429 1.73,-1.16572 3.06785,-1.16572 1.28786,0 1.99858,0.42572 3.08429,1.11929 1.02143,0.64428 1.16929,1.50571 2.21643,2.11214 0.58071,0.34072 1.07286,0.18929 1.71714,0.40357 2.87714,0.95929 5.04857,2.87786 5.04857,5.90715 0,1.64071 -0.39143,2.81428 -1.61571,3.88714 -0.97214,0.85786 -1.89286,0.70714 -3.13,1.11071 4.01357,3.20572 7.50571,4.00072 12.63,4.00072 4.695,0 10.43714,-1.91929 10.43714,-6.61429 0,-2.18357 -1.20714,-3.35714 -2.06571,-5.36357 -1.54,-3.57143 -2.375,-5.67286 -2.375,-9.56 0,-3.07929 0.33571,-4.94786 2.12785,-7.44714 1.84286,-2.57429 4.09358,-3.175 7.26215,-3.175 z"
       id="path16"
       style="stroke-width:0.714286" />
    <g
       fill="none"
       stroke="#703d29"
       id="g220"
       transform="matrix(0.71428571,0,0,0.71428571,-111.98643,-0.51786)">
      <path
         stroke-width="1.041"
         stroke-linejoin="round"
         d="m 425.59,223.46 c 0.432,1.631 1.752,3.16 3.82,3.807 1.244,0.388 4.12,0.233 5.986,-2.177 1.513,-1.954 1.397,-4.374 0.833,-6.297 -0.366,-1.245 -1.371,-2.446 -2.698,-3.468 l -7.938,8.057 -0.002,0.079 z"
         id="path18" />
      <path
         stroke-width="1.037"
         stroke-linecap="round"
         d="m 626.61,343.94 c -1.866,-4.51 -6.686,-2.488 -6.983,0 -0.683,5.732 4.34,7.464 7.916,6.53 1.771,-0.461 3.067,-1.577 3.896,-3.03 0.934,-1.64 1.217,-3.78 0.61,-5.824 -0.275,-0.927 -0.663,-1.707 -1.326,-2.581 -0.665,-0.878 -1.354,-1.48 -1.999,-1.89 -1.375,-0.878 -2.874,-0.965 -5.224,-0.965 -8.708,0 -16.327,10.289 -18.886,20.977 -0.842,3.52 -2.001,11.37 -0.396,18.815 1.71,7.93 5.138,13.42 9.16,17.585 2.177,2.254 5.146,4.262 8.99,6.435 1.185,0.67 4.32,2.06 6.496,2.683 2.236,0.639 4.3,0.545 6.159,0.142 5.16,-1.12 7.559,-5.92 4.96,-10.83 -2.129,-4.02 -8.397,-6.219 -11.352,-1.088 -0.25,0.436 -0.64,1.384 -0.628,2.411 0.016,1.368 0.584,3.017 1.561,3.64 2.246,1.428 5.838,1.024 5.672,-2.941"
         id="path20" />
      <path
         stroke-width="1.276"
         d="m 599.69,403.07 c 1.748,-2.056 5.757,-5.14 10.343,-5.703 4.654,-0.572 8.699,0.783 12.828,3.004 8.06,4.335 12.554,8.995 15.549,17.641 0.76,2.196 1.391,5.506 1.304,9.022 -0.14,5.604 -1.563,11.73 -3.092,14.692 -1.334,2.583 -4.82,13.994 -23.946,21.868 -11.161,4.594 -28.3,5.653 -40.118,6.12 -16.256,0.642 -31.254,1.244 -39.962,11.973"
         id="path22" />
      <g
         stroke-width="1.121"
         id="g28">
        <path
           d="m 603.75,421.45 c -0.466,-1.71 -0.035,-3.35 1.322,-5.209 1.814,-2.486 5.675,-3.343 9.174,-1.4 1.17,0.65 2.638,1.507 3.965,3.266 0.502,0.665 1.35,1.739 1.788,2.488 1.059,1.81 1.494,3.292 1.703,3.887 3.846,10.928 -2.265,22.771 -10.255,27.522 -6.206,3.69 -13.608,5.336 -22.469,6.375 -3.982,0.468 -6.256,0.437 -10.263,0.623 -3.223,0.149 -6.008,0.096 -8.63,0.064 -2.157,-0.027 -4.205,-0.016 -6.297,-0.064 -3.415,-0.08 -6.95,-0.16 -11.274,0.155 -4.55,0.331 -7.972,0.448 -11.818,1.089 -2.511,0.418 -5.455,0.822 -8.542,1.515 -0.926,0.207 -1.865,0.377 -2.809,0.661 -0.634,0.192 -1.26,0.386 -1.881,0.575 -5.572,1.7 -10.985,3.77 -15.257,6.521 -1.32,0.85 -2.81,1.701 -3.877,2.708 -0.665,0.627 -1.472,1.256 -2.124,1.898 -2.99,2.941 -6.047,6.126 -6.762,10.438 -0.132,0.795 -0.132,1.629 -0.132,2.507 0,2.798 2.278,6.608 8.42,7.852 M 516.37,229.11 c 1.285,2.324 1.992,3.738 1.244,6.142 -0.847,2.723 -2.778,4.354 -5.52,4.354 -6.22,0 -9.878,-7.364 -7.075,-12.051 4.976,-8.319 14.539,-3.647 23.402,0.474 -0.428,-2.134 -1.174,-2.828 -1.096,-5.471 0.193,-6.565 5.061,-9.542 7.005,-15.605 1.157,-3.613 1.618,-6.75 -1.025,-9.316 -2.308,-2.24 -4.982,-2.205 -7.994,-1.025 -6.018,2.359 -13.246,9.138 -25.97,9.326 -12.724,-0.188 -20.012,-6.967 -26.03,-9.326 -3.012,-1.18 -5.686,-1.214 -7.994,1.025 -2.643,2.566 -2.183,5.703 -1.025,9.316 1.944,6.064 6.812,9.04 7.005,15.605 0.077,2.643 -0.669,3.337 -1.096,5.47 8.863,-4.12 18.798,-9.211 23.402,-0.473 2.565,4.869 -0.855,12.05 -7.075,12.05 -2.742,0 -4.667,-1.747 -5.52,-4.353 -0.76,-2.323 0,-4.354 1.244,-6.142"
           id="path24" />
        <path
           stroke-linecap="round"
           d="m 491.5,224.79 c 2.403,1.838 4.1,4.1 3.817,7.775 -0.307,3.986 -1.273,4.947 -4.382,7.068 m 3.745,-5.933 c -0.141,2.403 -1.13,3.958 -3.534,4.947"
           id="path26" />
      </g>
      <path
         fill="#c7b37f"
         d="m 432.4,214.49 1.088,0.777 1.166,1.245 0.778,1.555 0.389,1.321 0.078,1.71 -0.078,1.167 -0.389,1.322 -0.778,0.932 -0.933,1.011 -1.321,0.7 -1.71,0.389 -1.478,0.233 -1.555,-0.7 -1.399,-1.01 -0.855,-1.245 -0.622,-1.555 v -0.621 l 7.62,-7.231 z"
         stroke="none"
         id="path30" />
      <path
         stroke-width="1.041"
         stroke-linecap="round"
         d="m 430.01,220.57 c -0.478,-2.581 -3.496,-3.11 -4.665,-1.586 -1.8,2.348 -0.485,6.257 3.176,7.401 1.244,0.39 4.12,0.234 5.987,-2.177 1.512,-1.953 1.396,-4.373 0.832,-6.296 -0.366,-1.245 -1.365,-2.33 -2.698,-3.344 -4.252,-3.233 -11.118,-2.488 -13.373,2.954 -2.909,7.02 3.42,12.284 9.252,16.25 7.34,4.991 15.705,5.899 22.003,5.83 14.306,-0.155 25.19,-6.997 32.265,-10.884 1.648,-0.905 3.345,-0.72 4.198,0.311 0.963,1.165 0.947,3.043 -0.389,4.276"
         id="path32" />
      <path
         stroke-width="1.057"
         d="m 387.6,414.35 -3.188,1.166 -3.265,2.488 -1.4,1.944 -1.788,3.11 -0.777,2.332 -0.622,2.877 -0.311,2.177 m 29.701,-15.784 -0.233,2.8 -0.467,1.943 -1.4,3.343 -2.176,2.877 -2.333,1.865 -1.71,0.856 -2.41,0.544"
         id="path34" />
      <path
         stroke-width="1.197"
         d="m 499.6,489.23 c -0.58,2.588 -3.004,5.548 -8.279,6.617 l -1.025,0.212"
         id="path36" />
      <path
         stroke-width="1.356"
         d="m 631.59,406.57 c 3.34,3.114 5.685,6.905 7.488,12.109 0.76,2.195 1.391,5.506 1.303,9.021 -0.14,5.604 -1.562,11.73 -3.091,14.692 -1.334,2.584 -4.82,13.994 -23.946,21.868 -11.161,4.595 -28.3,5.654 -40.118,6.12 -16.022,0.633 -30.822,1.227 -39.582,11.517"
         id="path38" />
      <path
         stroke-width="0.929"
         d="m 605.45,416.95 c 1.188,-1.621 5.517,-3.673 9.016,-1.73 1.152,0.64 2.517,1.45 3.714,3.243"
         id="path40" />
      <path
         stroke-width="1.356"
         d="m 627.51,402.79 c 0.782,0.3 1.56,0.572 2.244,0.767 2.236,0.639 4.337,0.688 6.158,0.142 4.423,-1.327 7.261,-5.459 4.96,-10.83 -0.534,-1.244 -1.556,-2.438 -2.717,-3.333"
         id="path42" />
      <path
         stroke-width="1.041"
         stroke-linecap="round"
         d="m 375.44,287.13 c -2.969,1.838 -5.182,2.273 -7.492,4.947 -2.3,4.554 -3.203,7 -4.1,10.65 M 435.88,221.96 c 0,2.686 -1.98,4.382 -4.665,4.947"
         id="path44" />
      <path
         stroke-width="0.997"
         d="m 620.49,275.03 c 7.39,-0.15 28.859,5.64 29.012,30.876 0.15,24.925 -15.383,28.997 -21.607,30.656"
         id="path46" />
      <path
         stroke-width="1.037"
         d="m 622.43,275.03 c 12.743,-0.554 25.892,8.826 26.472,32.236 0.452,18.289 -12.517,26.584 -18.742,28.243"
         id="path48" />
      <g
         stroke-width="0.881"
         id="g52">
        <path
           d="m 615.33,363.16 0.196,-2.502 0.834,-3.974 1.178,-3.091 1.324,-2.551 1.717,-2.06 m 12.161,-5.312 -0.195,2.449 -0.7,1.672 -1.088,1.594 -1.244,0.933 -1.904,0.7 -1.672,0.116 -1.244,-0.195 m -22.363,-82.519 0.544,-2.643 1.166,-2.45 1.517,-2.449 2.604,-3.343 2.06,-2.293 3.343,-3.382 2.877,-2.916 1.827,-2.099 2.41,-2.915 2.138,-3.227 1.283,-2.643 0.7,-3.421 0.212,-4.242 -0.388,-1.23 m -19.183,200.273 2.527,-0.505 1.905,-1.011 1.05,-1.05 0.738,-1.205 0.505,-1.943 0.04,-1.361 M 364.94,403.38 l 1.866,0.155 2.41,-0.194 2.41,-0.855 m 7.814,-57.106 -0.31,2.177 -0.506,0.972 -0.739,0.933 -1.01,0.777 -1.128,0.505 -1.477,0.234 -1.011,0.078 m 15.471,-24.406 -0.544,3.382 -0.661,1.477 -1.36,1.866 -1.828,1.4 -1.866,0.932 -3.615,0.894 m 23.904,-62.121 -0.7,2.021 -0.855,1.478 -1.166,1.632 -1.633,1.477 -1.943,0.934 -1.633,0.388 -1.01,-0.078 m 0.59,-9.682 0.04,1.555"
           id="path50" />
      </g>
      <g
         stroke-width="0.987"
         id="g202">
        <path
           stroke-linecap="round"
           d="m 397.32,325.09 a 10.712,10.712 0 0 1 -3.265,2.029 M 629.24,397.16 c 0.134,0.145 0.581,0.217 0.739,0.31 2.215,1.323 6.577,-0.325 5.294,-3.746"
           id="path54" />
        <path
           d="m 621.54,349.38 c 1.573,2.055 4.538,2.588 6.883,1.976 1.771,-0.462 3.067,-1.578 3.895,-3.03 0.935,-1.64 1.218,-3.78 0.61,-5.825 -0.274,-0.926 -0.662,-1.706 -1.325,-2.58 -0.666,-0.878 -1.492,-1.812 -2.132,-2.23 -0.17,-0.111 -0.339,-0.262 -0.518,-0.383 m 10.037,53.152 c 0.068,-0.365 0.103,-0.74 0.103,-1.125 0,-1.81 -0.757,-3.468 -2.009,-4.586 -0.427,-0.381 -0.841,-0.973 -1.36,-1.233 m 0.746,0.734 c -0.073,-2.912 -2.456,-4.995 -5.41,-5.513 m -6.52,4.433 c -0.679,-0.554 -1.406,-1.025 -2.042,-1.69 -3.826,-4.004 -6.704,-9.924 -6.742,-16.677 -0.037,-6.473 2.566,-13.062 5.598,-15.627 m -88.284,132.264 2.799,-2.566 1.944,-1.477 3.654,-2.255 3.42,-1.632 2.41,-0.622 4.821,-1.089 5.598,-0.855 M 511.61,501.2 c -2.022,3.11 -6.842,7.775 -11.896,9.64 -5.054,-1.865 -9.874,-6.53 -11.895,-9.64"
           id="path56" />
        <path
           stroke-linecap="round"
           d="m 491.28,494.73 c -0.634,2.349 -1.785,4.626 -3.468,6.451"
           id="path58" />
        <path
           d="m 491.78,491.47 -0.7,3.42 m -3.65,6.53 -1.477,1.477 -2.644,1.477 -3.032,0.934 M 471.46,227.45 c 0.38,-1.182 0.767,-2.072 0.71,-4.014 -0.193,-6.565 -5.06,-9.542 -7.005,-15.606 -1.157,-3.612 -1.618,-6.75 1.026,-9.316 2.307,-2.24 4.981,-2.205 7.993,-1.025 6.018,2.36 13.308,9.138 26.032,9.326 -12.724,-0.188 -20.015,-6.967 -26.032,-9.326 -3.012,-1.18 -5.935,-1.525 -8.242,0.714 -2.644,2.566 -1.934,6.015 -0.777,9.627 1.944,6.064 6.563,9.041 6.756,15.606 0.057,1.942 -0.455,2.832 -0.834,4.014 m 29.093,-21.08 c 12.517,-0.661 23.245,-9.071 26.706,-9.757 3.086,-0.612 4.809,-0.336 7.072,1.721 -2.264,-2.057 -4.842,-1.993 -7.77,-0.845 -6.018,2.359 -13.246,9.138 -25.97,9.326 M 624.59,383.2 c -5.209,-3.732 -9.672,-10.856 -9.718,-19.274 -0.036,-6.474 2.565,-13.061 5.597,-15.627 M 511.17,500.76 c -2.021,3.11 -6.842,7.775 -11.895,9.64 -5.054,-1.865 -9.874,-6.53 -11.895,-9.64"
           id="path60" />
        <path
           stroke-linecap="round"
           d="m 479.17,230.74 c 1.302,-0.72 2.51,-1.406 3.624,-2.018 1.649,-0.906 3.63,-0.716 4.483,0.316 0.962,1.164 1.11,3.182 -0.226,4.416"
           id="path62" />
        <path
           d="m 460.48,239.49 c 8.588,-1.792 15.585,-5.638 20.875,-8.597 M 531.78,487.43 c 0.71,0.484 1.166,1.493 1.166,1.493 0.197,0.468 0.45,0.911 0.521,1.326 0.404,2.379 -1.156,3.86 -3.083,4.085 -2.648,0.308 -4.635,-1.265 -5.482,-3.17 M 460.04,239.05 c 8.588,-1.792 15.585,-5.638 20.875,-8.597 M 633.38,397.49 c -1.633,0.63 -2.526,0.544 -4.557,-0.358 -0.834,-0.37 -1.788,-0.943 -2.907,-1.578 -3.98,-2.261 -8.708,-5.824 -13.139,-14.143 a 29.394,29.394 0 0 1 -2.672,-6.992 c -0.423,-1.736 -0.716,-3.451 -0.78,-5.212 -0.107,-3 0.215,-6.132 0.964,-9.72 1.237,-5.926 2.725,-9.144 6.376,-14.15 1.795,-2.463 3.343,-3.966 6.686,-4.043 M 398.83,279.88 c 2.78,2.362 4.12,5.287 4.12,8.94 0,4.842 -4.05,12.75 -14.001,15.55 -3.814,1.072 -7.588,0.207 -9.87,-1.18"
           id="path64" />
        <path
           d="m 400.46,296.28 c 1.788,1.244 2.488,2.64 2.488,5.07 0,1.664 -1.076,3.822 -2.907,5.866 -2.998,3.346 -8.082,6.19 -13.716,6.26 -3.057,0.039 -6.23,-0.6 -9.422,-2.735 -3.413,-2.282 -5.21,-5.365 -5.987,-8.397"
           id="path66" />
        <path
           d="m 400.3,306.71 c 2.026,1.862 2.648,4.193 2.648,7.129 0,4.29 -1.742,7.6 -5.75,11.107 a 19.69,19.69 0 0 1 -3.032,2.178 M 596.4,292.63 v 5.519 m -0.44,-6.879 v 7.774 m 0.44,-24.604 v 10.185 m -0.44,-12.435 v 13.918 m -2.97,128.062 c -1.93,3.835 -3.473,5.85 -6.53,8.863 -3.086,3.041 -5.225,4.435 -9.097,6.375 -3.772,1.89 -6.148,2.492 -10.263,3.421 -4.113,0.929 -6.518,1.131 -10.73,1.322 -3.861,0.175 -6.052,0.014 -9.909,-0.255 -4.127,-0.285 -6.417,-0.86 -10.538,-1.222 -3.404,-0.3 -5.326,-0.574 -8.743,-0.566 -3.512,0.01 -5.525,0.031 -8.983,0.643 -3.224,0.571 -5.052,1.026 -8.086,2.255 -4.198,1.7 -8.941,4.665 -9.952,5.987 -1.01,-1.322 -5.754,-4.286 -9.952,-5.987 -3.033,-1.229 -4.862,-1.684 -8.085,-2.255 -3.46,-0.612 -5.471,-0.634 -8.984,-0.643 -3.417,-0.01 -5.339,0.267 -8.743,0.566 -4.121,0.362 -6.41,0.937 -10.538,1.222 -3.857,0.267 -6.047,0.43 -9.91,0.255 -4.211,-0.19 -6.617,-0.39 -10.728,-1.322 -4.115,-0.931 -6.489,-1.534 -10.263,-3.42 -3.875,-1.937 -6.011,-3.335 -9.097,-6.376 a 63.37,63.37 0 0 1 -0.948,-0.953 m 65.889,83.39 2.799,-0.35 m 47.301,-3.68 2.825,-0.269 2.69,-1.076 1.884,-1.144 2.556,-3.027 0.538,-1.144 0.404,-2.623 0.134,-1.21 M 613.23,277.36 c 1.213,-4.128 -0.268,-8.483 -4.266,-8.366 M 402.79,341.75 c -1.014,3.428 -3.194,5.77 -5.62,7.293 m 5.69,-72.993 c -1,2.889 -2.829,4.953 -5.724,6.26 -2.886,1.304 -6.227,0.086 -8.014,-1.292"
           id="path68" />
        <path
           stroke-linecap="round"
           d="m 380.95,291.2 c 2.392,1.253 4.82,-0.584 4.322,-3.696 -0.234,-1.458 -1.805,-3.299 -3.933,-3.433"
           id="path70" />
        <path
           d="m 390.87,422.86 c 0.516,0.485 0.626,1.115 1.322,1.244 1.05,0.194 1.866,0.583 2.915,-0.816 1.294,-1.725 0.599,-4.409 -0.747,-6.098 -1.44,-1.808 -5.613,-3.405 -9.112,-1.461 -1.17,0.65 -2.638,1.506 -3.965,3.265 -0.502,0.665 -1.35,1.739 -1.788,2.488 -1.06,1.81 -1.494,3.292 -1.704,3.887 -3.2,9.098 0.6,18.664 6.489,24.493"
           id="path72" />
        <path
           stroke-linecap="round"
           d="m 531.59,487.23 a 9.195,9.195 0 0 1 1.01,1.244 c 0.197,0.468 0.358,0.911 0.428,1.327 0.403,2.378 -1.156,3.86 -3.083,4.084 -2.647,0.309 -4.42,-1.251 -5.267,-3.156"
           id="path74" />
        <path
           d="m 608.5,216.81 c 5.228,0.638 9.784,5.628 9.784,10.992 0,6.92 -2.331,9.496 -5.974,14.446 -3.899,5.297 -16.638,15.005 -16.638,26.045 0,6.686 1.866,10.962 6.686,13.139 3.108,1.404 6.742,-0.116 8.397,-1.61 4.042,-3.655 2.426,-10.063 -1.788,-10.829 -5.132,-0.933 -6.096,7.145 -1.089,6.609 M 635.73,383.51 c -0.46,-2.77 -2.813,-4.88 -5.648,-4.88 -3.164,0 -5.729,2.628 -5.729,5.87 0,1.588 0.615,3.029 1.615,4.085"
           id="path76" />
        <path
           d="m 599.79,279.88 c -2.78,2.362 -4.12,5.287 -4.12,8.94 0,4.842 4.05,12.75 14.001,15.55 3.814,1.072 7.458,0.971 9.74,-0.417 M 375.61,287.8 c -2.378,0.794 -5.349,2.277 -7.55,5.395 -1.856,2.63 -2.938,6.286 -3.608,9.485 -0.294,1.4 -0.643,5.832 0.252,10.41 0.661,3.38 2.057,6.527 3.602,8.806 0.553,0.817 1.055,1.367 1.62,1.932 0.518,0.518 1.253,0.975 1.774,1.373 M 471.72,469.02 c 7.576,3.359 13.13,5.875 17.839,13.31 1.477,2.333 1.866,5.676 1.866,7.62 0,4.197 -1.71,8.94 -5.21,11.894 -3.245,2.742 -6.452,3.576 -10.417,3.188 -3.007,-0.295 -5.831,-2.488 -6.298,-4.043 M 396.88,325.2 c 4.276,3.343 6.064,6.586 6.064,11.74 0,5.909 -2.876,9.563 -6.22,11.662"
           id="path78" />
        <path
           stroke-linecap="round"
           d="m 392.99,344.41 c 6.375,7.93 9.758,12.637 9.952,22.08 0.181,8.863 -2.644,14.927 -7.93,21.303"
           id="path80" />
        <path
           d="m 515.23,239.57 c 1.16,-0.76 2.01,-1.98 2.497,-3.485 0.753,-2.325 0.77,-4.308 -0.474,-6.096 1.534,2.009 1.675,3.705 1.243,6.142 -0.274,1.552 -1.264,2.369 -2.497,3.485 M 596.4,374.24 v 25.241 h 0.067 c 0,0.018 -0.01,2.389 -0.212,3.887 -0.133,0.983 -0.272,1.87 -0.429,2.703"
           id="path82" />
        <path
           d="m 595.96,371.81 v 27.223 h 0.067 c 0,0.018 -0.009,2.389 -0.212,3.887 -0.211,1.563 -0.437,2.887 -0.729,4.125 m 0.874,-67.105 v 22.702 m 0.44,-20.912 v 18.463 m 0,-41.943 v 13.841 m -0.44,-15.471 v 17.064 M 596.4,304.1 v 5.37 m -0.44,-6.46 v 7.776 m -2.88,101.864 c -0.165,0.35 -0.342,0.71 -0.53,1.084 -1.93,3.835 -3.473,5.85 -6.53,8.863 -3.086,3.041 -5.224,4.435 -9.097,6.376 -3.772,1.89 -6.148,2.491 -10.263,3.42 -4.112,0.93 -6.518,1.132 -10.73,1.322 -3.86,0.175 -6.052,0.011 -9.908,-0.255 -4.128,-0.285 -6.417,-0.86 -10.538,-1.222 -3.404,-0.3 -5.327,-0.574 -8.743,-0.566 -3.513,0.01 -5.525,0.031 -8.984,0.644 -3.223,0.57 -5.052,1.025 -8.086,2.254 -4.197,1.7 -8.94,4.665 -9.951,5.987 -1.011,-1.322 -5.754,-4.286 -9.952,-5.987 -3.034,-1.229 -4.862,-1.684 -8.086,-2.254 -3.458,-0.613 -5.47,-0.635 -8.983,-0.644 -3.417,-0.01 -5.34,0.267 -8.743,0.566 -4.122,0.362 -6.41,0.937 -10.538,1.222 -3.857,0.267 -6.047,0.43 -9.91,0.255 -4.212,-0.19 -6.617,-0.39 -10.729,-1.321 -4.114,-0.933 -6.489,-1.534 -10.263,-3.421 -3.875,-1.938 -6.01,-3.335 -9.096,-6.376 -1.616,-1.592 -2.808,-2.905 -3.858,-4.355 m -3.142,-4.982 c 0.666,4.942 -1.413,9.8 -3.523,12.034 -1.321,1.4 -4.2,4.074 -7.775,4.12 -5.908,0.078 -7.672,-3.986 -8.03,-4.975"
           id="path84" />
        <path
           d="m 399.4,410.7 c 1.097,1.083 2.07,2.405 2.893,3.965 1.477,2.799 1.022,7.48 -0.148,9.64 -0.129,0.238 -0.288,0.49 -0.475,0.749 M 370.04,453.2 c 3.514,3.687 8.828,7.692 16.99,11.052 11.161,4.595 28.3,5.654 40.118,6.12 15.715,0.62 30.193,1.266 39.01,10.998 m 27.132,-6.36 c 2.598,2.556 5.247,5.295 6.366,8.798 M 488.18,501.7 c -0.34,0.362 -0.7,0.707 -1.083,1.03 -3.246,2.74 -6.453,3.576 -10.418,3.187 -3.007,-0.295 -5.908,-2.548 -6.685,-4.025 m -8.364,-4.542 c 0.145,0.198 0.297,0.39 0.457,0.577 1.888,2.198 4.868,3.576 7.978,3.833 m 41.985,-0.12 c -2.022,3.11 -6.842,7.774 -11.895,9.64 -5.054,-1.866 -9.874,-6.53 -11.896,-9.64 l -0.472,-0.727 m 24.343,0.707 c 0.36,0.392 0.746,0.762 1.156,1.109 3.246,2.74 6.453,3.576 10.418,3.187 3.007,-0.294 5.395,-2.303 6.36,-4.043 0,0 0.54,-0.581 0.692,-1.136"
           id="path86" />
        <path
           d="m 529.75,500.99 -1.16,1.867 -1.766,1.463 -2.674,1.11 -2.421,0.1"
           id="path88" />
        <path
           d="m 536.03,483.22 c 1.43,1.097 2.835,2.76 3.599,4.534 0.49,1.141 0.718,2.396 0.787,3.698 0.133,2.468 -0.735,4.741 -2.222,6.474 -1.998,2.326 -5.113,3.733 -8.43,3.866 -0.246,0.01 -0.491,0.011 -0.734,0 m 0.29,-0.442 c -3.17,0.127 -6.004,-1.231 -8.092,-3.375 M 620.72,391.93 c -2.474,-2.28 -5.036,-5.44 -7.507,-10.077 a 29.38,29.38 0 0 1 -2.672,-6.992 c -0.423,-1.736 -0.716,-3.451 -0.78,-5.211 -0.107,-3 0.215,-6.133 0.964,-9.722 1.236,-5.925 3.443,-10.509 6.376,-14.15 1,-1.242 2.154,-2.791 3.25,-3.488 M 618.2,223.83 c 3.965,0.31 7.639,4.58 7.59,8.764 -0.07,6.078 -2.108,8.59 -6.89,14.545 -4.12,5.131 -16.482,14.15 -16.171,22.78 0.055,1.532 0.88,3.115 1.802,4.39 m -4.941,5.411 c 0.878,0.867 1.94,1.584 3.207,2.156 2.261,1.021 4.801,0.495 6.654,-0.443 M 576.37,213.9 c 1.328,0.904 2.681,2.29 3.415,4.061 2.908,7.02 -3.42,12.284 -9.252,16.25 -4.181,2.842 -8.694,4.36 -12.968,5.128"
           id="path90" />
        <path
           d="m 569.69,227.43 c -1.414,-0.014 -3.095,-0.417 -4.92,-2.34 -0.42,-0.442 -0.913,-1.027 -1.106,-1.552 M 540.45,231.2 c -0.738,-0.37 -1.531,-0.91 -2.063,-1.504 -1.386,-1.55 -2.31,-3.65 -1.242,-6.853 0.987,-2.963 5.746,-11.274 5.98,-17.027 0.356,-8.79 -3.025,-13.977 -8.313,-16"
           id="path92" />
        <path
           stroke-linecap="round"
           d="m 542.68,203.85 -0.206,3.305 -0.895,3.374 -1.722,4.613 -1.308,2.96 -1.377,2.961 -0.688,2.066 -0.276,1.515 0.207,1.446 M 595.81,423.4 c 0.272,0.66 0.933,1.306 0.933,1.306 1.01,1.687 4.94,4.655 8.514,4.701 5.91,0.078 7.312,-4.057 7.464,-4.975 0.746,-4.509 -0.796,-5.743 -3.11,-7.013 0,0 -1.361,-0.705 -2.994,-0.433"
           id="path94" />
        <path
           d="m 370.23,403.67 c -2.086,0.534 -4.045,0.547 -5.757,0.033 -4.423,-1.326 -8.007,-5.564 -6.18,-10.829 M 379.21,343.15 c 0.443,0.445 0.586,1.108 0.653,1.67 0.683,5.732 -4.34,7.402 -7.916,6.469 -1.771,-0.462 -3.882,-2.107 -4.71,-3.56 a 7.354,7.354 0 0 1 -0.963,-3.6 M 400.74,307.15 a 7.554,7.554 0 0 1 1.931,2.757 M 400.9,296.6 a 5.98,5.98 0 0 1 1.825,2.042"
           id="path96" />
        <path
           stroke-linecap="round"
           d="m 402.91,303.94 c -0.483,1.19 -1.317,2.475 -2.43,3.718 -2.998,3.346 -8.083,6.19 -13.716,6.26 -3.057,0.038 -6.23,-0.6 -9.422,-2.736 -3.413,-2.282 -5.638,-5.528 -6.377,-8.715"
           id="path98" />
        <path
           d="m 399.11,280.13 c 1.73,1.471 3.06,3.347 3.698,5.295"
           id="path100" />
        <path
           stroke-linecap="round"
           d="m 402.86,292.56 c -1.384,4.574 -5.51,10.231 -13.473,12.248 -3.804,0.964 -8.702,-0.241 -10.374,-1.664"
           id="path102" />
        <path
           d="m 375.06,291.49 c 0.417,4.12 3.174,7.209 8.401,7.308 7.35,0.138 11.818,-10.574 5.287,-18.094"
           id="path104" />
        <path
           stroke-linecap="round"
           d="m 358.52,327.39 c 1.074,1.347 2.337,2.561 3.63,3.636 2.621,2.182 5.712,4.102 9.272,5.153 m 8.248,0.771 c 6.569,-0.789 10.272,-5.684 9.538,-11.41 -0.56,-4.363 -4.563,-7.718 -7.285,-7.912"
           id="path106" />
        <path
           d="m 390.39,268.92 c 2.85,-0.105 4.47,2.483 4.444,4.665"
           id="path108" />
        <path
           stroke-linecap="round"
           d="m 389.72,229.81 c 1.56,4.083 4.603,7.275 7.86,9.099 m 225.28,48.381 c 2.686,3.679 0.927,10.932 -6.379,11.07 -2.854,0.054 -5.43,-1.528 -6.939,-3.924"
           id="path110" />
        <path
           d="m 596.4,239.25 v 24.686"
           id="path112" />
        <path
           stroke-linecap="round"
           d="m 380.87,291.14 c 2.255,1.632 5.15,-1.124 4.03,-4.05 -0.757,-1.975 -3.563,-4.106 -7.45,-1.463 -4.294,2.92 -3.11,12.13 5.13,12.284 7.35,0.139 11.819,-10.574 5.287,-18.093 -6.282,-7.234 -17.727,-5.542 -25.19,0.396 -3.176,2.526 -9.174,9.145 -11.04,18.164 -0.58,2.808 -0.956,5.112 -0.912,7.93 0.03,1.857 0.2,3.937 0.757,6.53 1.123,5.241 2.968,9.08 4.805,11.746 0.704,1.022 1.347,1.87 2.037,2.56 1.279,1.28 1.662,1.957 2.954,3.032 4.223,3.515 9.665,6.27 16.327,5.987 7.308,-0.311 11.507,-5.442 10.729,-11.507 -0.754,-5.88 -6.69,-8.805 -10.574,-6.064 -2.644,1.866 -3.584,7.644 1.088,9.018 2.644,0.778 4.976,-2.565 3.11,-4.509 M 584.4,210.68 c 4.218,-2.29 7.47,-1.867 9.874,1.47 2.613,3.626 2.986,8.453 2.41,11.28 -0.855,4.199 -2.068,5.942 -5.407,8.988"
           id="path114" />
        <path
           stroke-linecap="round"
           d="m 594.58,212.55 c 4.82,-3.187 10.041,-1.834 12.906,2.41 2.1,3.11 2.636,5.712 2.488,9.563 -0.254,6.6 -4.384,11.832 -8.941,14.383"
           id="path116" />
        <path
           d="m 617.28,223.67 c 3.965,0.31 7.153,3.9 7.153,8.086 0,5.986 -1.671,8.583 -6.454,14.539 -4.12,5.131 -16.482,14.15 -16.17,22.78 0.117,3.263 2.868,6.338 5.241,6.51"
           id="path118" />
        <path
           stroke-linecap="round"
           d="m 617.75,291.14 c -2.255,1.632 -5.131,-1.004 -3.887,-3.803 0.859,-1.932 3.42,-4.353 7.308,-1.71 4.293,2.92 3.11,12.13 -5.131,12.284 -7.35,0.139 -12.317,-10.297 -5.287,-18.093 6.416,-7.116 18.315,-5.723 25.778,0.214 3.176,2.527 9.566,9.466 10.936,18.573 1.658,11.02 1.445,24.575 -9.937,32.922 -4.576,3.356 -10.918,4.882 -16.516,4.637 -7.308,-0.32 -11.506,-5.443 -10.729,-11.507 0.754,-5.88 6.416,-8.368 10.574,-6.065 4.32,2.393 3.565,8.466 -1.088,9.019 -2.736,0.325 -4.976,-2.566 -3.11,-4.51"
           id="path120" />
        <path
           d="m 613.86,287.34 c 1.212,-5.454 5.885,-5.962 9.658,-5.907 10.296,0.151 17.416,12.364 17.535,24.178 0.15,14.923 -6.334,23.711 -17.241,24.178 -2.823,0.121 -7.684,-1.221 -7.768,-4.665"
           id="path122" />
        <path
           stroke-linecap="square"
           d="m 620.2,284.9 c 10.858,2.413 14.67,12.196 14.67,21.532 0,7.616 -0.754,18.022 -15.575,21.682"
           id="path124" />
        <path
           d="m 638.11,389.58 a 6.103,6.103 0 1 0 -9.788,3.66"
           id="path126" />
        <path
           stroke-linecap="round"
           d="m 616.33,380.33 c 2.043,3.032 4.516,6.404 9.74,9.238 m -1.96,16.482 c -5.12,-3.359 -14.838,-7.761 -23.624,-3.428 -3.259,1.608 -5.442,3.597 -6.675,6.84 -2.22,5.84 0.261,12.275 2.788,14.949 1.321,1.4 4.2,4.074 7.774,4.12 5.91,0.079 7.314,-4.056 7.464,-4.975 0.7,-4.276 -1.788,-5.987 -3.11,-6.453 -1.014,-0.358 -4.312,-0.266 -5.012,2.065 -0.233,0.778 -0.275,2.133 0.348,3.144"
           id="path128" />
        <path
           stroke-linecap="round"
           d="m 531.99,488.16 c 1.633,3.343 -0.224,5.024 -2.488,5.287 -3.343,0.388 -5.131,-2.255 -5.364,-4.665 -0.379,-3.908 2.915,-7.45 6.842,-7.386 3.535,0.057 6.414,2.338 7.764,5.477 0.49,1.14 0.718,2.395 0.788,3.697 0.132,2.468 -0.735,4.742 -2.223,6.474 -1.998,2.326 -5.113,3.733 -8.429,3.866 -6.6,0.265 -11.74,-5.908 -11.74,-12.206 0,-12.05 17.872,-18.623 24.957,-20.314 8.708,-2.077 14.006,-2.855 27.99,-3.632 5.597,-0.311 9.697,-0.153 15.86,-0.792 5.516,-0.572 8.397,-0.84 14.072,-2.162 7.083,-1.65 13.684,-4.588 19.592,-9.952 4.55,-4.131 7.153,-7.075 9.26,-12.75 1.817,-4.898 2.653,-14.596 -1.951,-21.77 -4.07,-6.34 -9.719,-9.632 -16.171,-10.565 -5.83,-0.843 -10.942,1.672 -13.995,7.456 -1.477,2.8 -1.022,7.48 0.148,9.64 1.01,1.867 3.897,4.619 7.471,4.666 5.909,0.078 7.313,-4.057 7.464,-4.976 0.7,-4.276 -1.788,-5.987 -3.11,-6.453 -1.014,-0.358 -4.312,-0.266 -5.012,2.065 -0.233,0.778 -0.275,2.133 0.347,3.144"
           id="path130" />
        <path
           stroke-linecap="round"
           d="m 526.9,469.02 c -7.576,3.359 -13.13,5.875 -17.839,13.31 -1.477,2.333 -1.866,5.676 -1.866,7.62 0,4.197 1.71,8.94 5.21,11.894 3.246,2.742 6.452,3.576 10.417,3.188 3.007,-0.295 5.832,-2.488 6.298,-4.043"
           id="path132" />
        <path
           d="m 601.73,325.2 c -3.545,1.183 -6.064,6.586 -6.064,11.74 0,5.909 2.876,9.563 6.22,11.662"
           id="path134" />
        <path
           stroke-linecap="round"
           d="m 605.62,344.41 c -6.375,7.93 -9.758,12.637 -9.952,22.08 -0.182,8.863 2.644,14.927 7.93,21.303"
           id="path136" />
        <path
           d="m 571.64,212.58 0.547,-0.81 c 2.644,-3.887 7.312,-4.911 10.73,-2.332 4.12,3.11 5.16,8.402 4.042,13.994 -0.7,3.499 -3.073,6.413 -6.325,8.521"
           id="path138" />
        <path
           stroke-linecap="round"
           d="m 414.22,210.68 c -4.043,-1.866 -7.371,-1.507 -9.874,1.47 -2.877,3.421 -2.986,8.453 -2.41,11.28 0.855,4.199 2.068,5.942 5.407,8.988"
           id="path140" />
        <path
           d="m 404.03,212.55 c -4.82,-3.187 -10.041,-1.834 -12.906,2.41 -2.1,3.11 -2.636,5.712 -2.488,9.563 0.254,6.6 4.384,11.832 8.941,14.383"
           id="path142" />
        <path
           d="m 390.12,216.81 c -5.228,0.638 -9.4,5.069 -9.4,10.433 0,6.92 1.703,9.718 5.59,15.005 3.897,5.299 16.638,15.005 16.638,26.045 0,6.686 -1.866,10.962 -6.686,13.139 -3.108,1.404 -6.742,-0.116 -8.397,-1.61 -4.043,-3.655 -2.426,-10.063 1.788,-10.829 5.131,-0.933 6.096,7.145 1.089,6.609"
           id="path144" />
        <path
           d="m 381.33,223.67 c -3.965,0.31 -7.867,3.723 -7.867,7.908 0,5.986 2.385,8.761 7.167,14.716 4.121,5.131 15.762,13.972 15.451,22.602 -0.117,3.263 -2.31,7.253 -4.488,6.786"
           id="path146" />
        <path
           stroke-linecap="round"
           d="m 372,343.94 c 1.866,-4.51 6.686,-2.488 6.983,0 0.683,5.732 -4.34,7.464 -7.916,6.53 -1.771,-0.461 -3.068,-1.577 -3.896,-3.03 -0.934,-1.64 -1.217,-3.78 -0.61,-5.824 0.275,-0.927 0.663,-1.707 1.326,-2.581 0.666,-0.878 1.354,-1.48 1.999,-1.89 1.375,-0.878 2.874,-0.965 5.224,-0.965 8.708,0 16.327,10.289 18.886,20.977 0.843,3.52 2.001,11.37 0.396,18.815 -1.71,7.93 -5.138,13.42 -9.16,17.585 -2.177,2.254 -5.146,4.262 -8.99,6.435 -1.185,0.67 -4.32,2.06 -6.496,2.683 -2.236,0.639 -4.337,0.688 -6.158,0.142 -4.423,-1.327 -7.262,-5.46 -4.96,-10.83 1.792,-4.18 8.397,-6.219 11.351,-1.088 0.25,0.436 0.64,1.384 0.628,2.411 -0.015,1.368 -0.584,3.017 -1.561,3.64 -2.246,1.428 -5.838,1.024 -5.671,-2.941"
           id="path148" />
        <path
           d="m 365.24,397.49 c 1.633,0.63 2.526,0.544 4.557,-0.358 0.834,-0.37 1.789,-0.943 2.907,-1.578 3.98,-2.261 8.708,-5.824 13.139,-14.143 a 29.38,29.38 0 0 0 2.672,-6.992 c 0.423,-1.736 0.716,-3.451 0.78,-5.212 0.108,-3 -0.215,-6.132 -0.964,-9.72 -1.236,-5.926 -2.725,-9.144 -6.376,-14.15 -1.795,-2.463 -3.343,-3.966 -6.686,-4.043 M 360.51,389.58 a 6.103,6.103 0 1 1 9.788,3.66"
           id="path150" />
        <path
           d="m 362.88,383.51 c 0.46,-2.77 2.813,-4.88 5.648,-4.88 3.164,0 5.729,2.628 5.729,5.87 a 5.926,5.926 0 0 1 -1.615,4.085"
           id="path152" />
        <path
           d="m 374.02,383.2 c 5.209,-3.732 9.672,-10.856 9.718,-19.274 0.036,-6.474 -2.565,-13.061 -5.597,-15.627"
           id="path154" />
        <path
           stroke-linecap="round"
           d="m 382.29,380.33 c -2.043,3.032 -4.516,6.404 -9.74,9.238"
           id="path156" />
        <path
           d="m 397.81,402.63 c -1.449,-3.409 -4.329,-4.985 -9.019,-5.486 -4.662,-0.497 -8.698,0.784 -12.828,3.005 -8.06,4.335 -12.554,8.995 -15.55,17.641 -0.76,2.195 -1.391,5.506 -1.303,9.021 0.14,5.604 1.563,11.73 3.091,14.692 1.334,2.584 4.82,13.994 23.946,21.868 11.161,4.595 28.3,5.654 40.118,6.12 16.256,0.642 31.255,1.245 39.962,11.973"
           id="path158" />
        <path
           stroke-linecap="round"
           d="m 374.5,406.05 c 5.12,-3.359 14.838,-7.761 23.624,-3.428 3.259,1.608 5.442,3.597 6.675,6.84 2.22,5.84 -0.262,12.275 -2.788,14.949 -1.321,1.4 -4.2,4.074 -7.775,4.12 -5.908,0.079 -7.313,-4.056 -7.463,-4.975 -0.7,-4.276 1.788,-5.987 3.11,-6.453 1.014,-0.358 4.312,-0.266 5.011,2.065 0.234,0.778 0.275,2.133 -0.347,3.144"
           id="path160" />
        <path
           d="m 394.86,421.45 c 0.467,-1.71 0.227,-3.506 -1.321,-5.209 -1.555,-1.71 -5.676,-3.343 -9.175,-1.4 -1.17,0.65 -2.638,1.507 -3.965,3.266 -0.502,0.665 -1.35,1.739 -1.788,2.488 -1.06,1.81 -1.494,3.292 -1.704,3.887 -3.845,10.928 2.413,22.532 10.256,27.522 6.842,4.354 13.84,5.598 22.47,6.375 3.993,0.36 6.256,0.437 10.263,0.623 3.223,0.149 6.008,0.096 8.63,0.064 2.157,-0.027 4.204,-0.016 6.296,-0.064 3.416,-0.08 6.95,-0.16 11.274,0.155 4.55,0.331 7.973,0.448 11.818,1.089 2.512,0.418 5.456,0.822 8.543,1.515 0.926,0.207 1.865,0.377 2.808,0.661 0.635,0.192 1.26,0.386 1.882,0.575 5.571,1.7 10.985,3.77 15.257,6.521 1.32,0.85 2.84,1.67 3.877,2.708 0.796,0.795 1.472,1.256 2.123,1.898 2.99,2.941 6.048,6.126 6.763,10.438 0.132,0.795 0.132,1.629 0.132,2.507 0,2.798 -2.278,6.608 -8.42,7.852"
           id="path162" />
        <path
           d="m 466.62,488.16 c -1.633,3.343 0.224,5.024 2.488,5.287 3.343,0.388 5.131,-2.255 5.364,-4.665 0.379,-3.908 -2.915,-7.45 -6.842,-7.386 -3.535,0.057 -6.414,2.338 -7.764,5.477 -0.49,1.14 -0.718,2.395 -0.788,3.697 -0.132,2.468 0.735,4.742 2.223,6.474 1.997,2.326 5.113,3.733 8.429,3.866 6.6,0.265 11.74,-5.908 11.74,-12.206 0,-12.05 -17.873,-18.623 -24.957,-20.314 -8.708,-2.077 -14.006,-2.855 -27.99,-3.632 -5.597,-0.311 -9.697,-0.153 -15.86,-0.792 -5.516,-0.572 -8.397,-0.84 -14.073,-2.162 -7.083,-1.65 -13.684,-4.588 -19.592,-9.952 -4.55,-4.131 -7.153,-7.075 -9.26,-12.75 -1.817,-4.898 -2.652,-14.596 1.951,-21.77 4.07,-6.34 9.719,-9.632 16.172,-10.565 5.83,-0.843 10.942,1.672 13.995,7.456 1.478,2.8 1.022,7.48 -0.148,9.64 -1.01,1.867 -3.897,4.619 -7.471,4.666 -5.909,0.078 -7.313,-4.057 -7.464,-4.976 -0.7,-4.276 1.788,-5.987 3.11,-6.453 1.014,-0.358 4.312,-0.266 5.012,2.065 0.233,0.778 0.275,2.133 -0.347,3.144"
           id="path164" />
        <path
           stroke-linecap="round"
           d="m 426.97,212.58 a 189.46,189.46 0 0 0 -0.547,-0.81 c -2.644,-3.887 -7.312,-4.911 -10.73,-2.332 -4.12,3.11 -5.16,8.402 -4.042,13.994 0.7,3.499 3.073,6.413 6.324,8.521"
           id="path166" />
        <path
           d="m 573.04,224.37 c -6.298,6.842 -12.595,9.026 -22.003,9.33 -2.938,0.095 -8.552,-0.933 -11.818,-3.258 -2.098,-1.494 -4.432,-4.05 -2.954,-8.482 0.987,-2.962 5.746,-11.273 5.98,-17.027 0.355,-8.79 -3.026,-13.606 -8.313,-15.472 -9.774,-3.45 -20.267,6.211 -26.589,8.319 -3.305,1.101 -4.99,1.232 -8.008,1.243 -3.018,-0.011 -4.763,-0.141 -8.068,-1.243 -6.323,-2.108 -16.816,-11.77 -26.59,-8.32 -5.287,1.867 -8.668,6.683 -8.312,15.473 0.234,5.753 4.992,14.064 5.98,17.027 1.477,4.431 -0.857,6.988 -2.955,8.481 -3.265,2.326 -8.88,3.353 -11.818,3.259 -9.407,-0.304 -15.705,-2.488 -22.003,-9.33"
           id="path168" />
        <path
           stroke-linecap="round"
           d="m 464.58,466.27 c 1.246,0.487 0.303,-0.295 8.195,3.203 7.576,3.359 12.954,6.3 17.663,13.736 1.477,2.332 1.866,5.676 1.866,7.62 0,1.252 -0.152,2.553 -0.459,3.841"
           id="path170" />
        <path
           d="m 465.09,500.06 a 12.519,12.519 0 0 0 5.081,1.29 c 6.6,0.264 11.74,-5.91 11.74,-12.207 0,-4.366 -2.377,-8.044 -5.706,-11"
           id="path172" />
        <path
           stroke-linecap="round"
           d="m 466.52,488.15 c -1.594,3.553 0.677,5.475 2.94,5.738 3.343,0.389 5.225,-2.255 5.458,-4.665 0.254,-2.621 -1.145,-5.17 -3.278,-6.485"
           id="path174" />
        <path
           d="m 609.53,216.87 c 5.018,0 9.394,5.585 9.394,11.317 0,6.605 -3.513,10.648 -6.087,13.705 -2.072,2.46 -4.316,4.663 -6.982,7.348"
           id="path176" />
        <path
           stroke-linecap="round"
           d="m 603.58,211.58 c 1.706,0.79 3.204,2.128 4.346,3.819 2.099,3.11 2.633,5.712 2.487,9.563 -0.249,6.6 -4.998,11.17 -9.246,13.959 M 593.71,211.58 c 0.347,0.296 0.68,0.634 1,1.014 2.877,3.421 3.1,8.478 2.41,11.281 -1.035,4.213 -2.427,6.029 -5.846,8.549 M 583.36,209.85 c 4.12,3.11 5.346,8.489 3.98,14.026 -0.975,3.957 -3.463,6.328 -6.565,8.217 m 17.385,64.187 c 0.493,1.447 1.306,1.949 2.332,3.022 2.229,2.335 5.496,4.344 9.623,5.504 3.813,1.073 7.25,0.267 9.87,-1.367 M 365.29,387.87 c 1.937,-0.035 3.869,1.273 5.133,3.468 0.25,0.435 0.64,1.383 0.628,2.41 -0.016,1.369 -0.616,2.831 -1.593,3.453 -2.245,1.43 -6.232,0.815 -6.065,-3.15"
           id="path178" />
        <path
           d="m 377.33,336.4 c 7.703,1.438 15.119,10.729 17.546,20.865 0.843,3.52 2.002,11.371 0.396,18.815 -1.71,7.93 -5.138,13.42 -9.16,17.585 -0.953,0.987 -2.059,1.928 -3.323,2.855 l -1.643,1.113 M 368.76,378.67 c 3.164,0 5.934,3.032 5.934,6.273 a 5.926,5.926 0 0 1 -1.615,4.085"
           id="path180" />
        <path
           d="m 366.62,382.35 c 3.297,0 6.433,3.176 6.433,6.546 0,1.94 -0.905,3.668 -2.316,4.786"
           id="path182" />
        <path
           stroke-linecap="round"
           d="m 396.84,349.2 c 3.027,4.063 5.025,7.561 5.954,12.07 m -0.104,13.26 a 26.983,26.983 0 0 1 -2.264,6.322 c -1.273,2.53 -3.492,5.348 -5.552,7.253"
           id="path184" />
        <path
           d="m 397.32,325.52 c 2.919,2.282 4.678,4.641 5.501,7.469"
           id="path186" />
        <path
           stroke-linecap="round"
           d="m 402.9,317.92 c -0.767,2.66 -2.506,4.674 -5.266,7.193 m -14.304,-26.843 3.369,-0.886 1.994,-1.508 1.285,-1.817 1.108,-2.837 0.444,-2.305"
           id="path188" />
        <path
           d="m 376.51,286.41 c -1.063,0.266 -2.41,0.66 -3.824,1.333 -1.893,0.902 -3.903,2.305 -5.506,4.576 -1.856,2.63 -2.938,6.286 -3.608,9.484 -0.294,1.4 -0.644,5.832 0.252,10.41 0.661,3.38 2.057,6.527 3.601,8.807 0.554,0.817 1.057,1.522 1.621,2.087 2.022,2.021 3.888,3.265 6.997,2.643"
           id="path190" />
        <path
           stroke-linecap="round"
           d="m 395.38,271.58 c -0.546,2.007 -1.625,4.493 -4.774,4.221"
           id="path192" />
        <path
           d="m 383.87,285.2 c -3.024,-2.956 -9.43,-3.726 -15.798,0.302 -0.819,0.518 -1.637,1.183 -2.448,1.859 -0.876,0.73 -1.575,1.57 -2.25,2.482 -0.735,0.992 -1.637,2.68 -2.182,3.8 -0.75,1.545 -1.06,2.559 -1.474,4.142 -1.163,4.455 -1.158,8.595 -1.02,9.776 0.176,1.513 0.32,2.903 0.567,4.182 0.845,4.371 2.138,7.439 3.475,9.656 1.407,2.333 4.906,7.69 12.058,8.397 2.811,0.278 7.612,-1.01 7.768,-4.665"
           id="path194" />
        <path
           stroke-linecap="round"
           d="m 568.38,220.42 c 0.478,-2.581 3.59,-3.08 4.758,-1.555 1.8,2.348 0.61,6.382 -3.051,7.526 -1.244,0.389 -4.12,0.233 -5.987,-2.177 -1.512,-1.954 -1.397,-4.373 -0.832,-6.297 0.366,-1.244 1.364,-2.33 2.698,-3.343 4.251,-3.234 11.118,-2.488 13.372,2.954 2.909,7.02 -3.42,12.284 -9.252,16.249 -7.34,4.992 -15.705,5.9 -22.003,5.831 -14.306,-0.156 -25.19,-6.997 -32.265,-10.884 -1.648,-0.906 -3.345,-0.72 -4.198,0.31 -0.963,1.165 -0.947,3.044 0.389,4.277"
           id="path196" />
        <path
           stroke-linecap="round"
           d="m 571.26,218 c 1.516,0.07 1.922,0.662 2.387,1.267 1.8,2.348 0.485,6.383 -3.176,7.526 m 27.869,80.537 c -5.45,5.933 -0.437,16.116 3.636,18.418 1.41,1.097 2.013,0.515 3.14,1.175"
           id="path198" />
        <path
           d="m 598.63,295.99 c -1.788,1.244 -2.418,2.642 -2.488,5.07 -0.058,2.032 0.296,4.288 2.203,6.272 2.972,3.092 8.786,5.784 14.42,5.855 3.057,0.038 6.23,-0.601 9.422,-2.736 3.413,-2.282 5.21,-5.364 5.987,-8.397 M 595.58,398.6 c 0,0.018 -0.009,2.389 -0.212,3.887 -0.591,4.363 -1.286,6.874 -3.265,10.807 -1.93,3.836 -3.473,5.85 -6.53,8.864 -3.086,3.04 -5.225,4.434 -9.097,6.375 -3.772,1.89 -6.148,2.491 -10.263,3.42 -4.113,0.93 -6.518,1.132 -10.73,1.322 -3.861,0.175 -6.052,0.011 -9.909,-0.254 -4.127,-0.286 -6.417,-0.86 -10.538,-1.223 -3.404,-0.299 -5.326,-0.574 -8.743,-0.566 -3.512,0.01 -5.525,0.031 -8.983,0.644 -3.224,0.57 -5.052,1.025 -8.086,2.255 -4.198,1.7 -8.941,4.664 -9.952,5.986 -1.01,-1.322 -5.754,-4.286 -9.952,-5.986 -3.034,-1.23 -4.862,-1.684 -8.085,-2.255 -3.459,-0.612 -5.471,-0.635 -8.984,-0.644 -3.417,-0.01 -5.34,0.267 -8.743,0.566 -4.121,0.362 -6.41,0.937 -10.538,1.223 -3.857,0.266 -6.047,0.43 -9.91,0.254 -4.21,-0.19 -6.616,-0.393 -10.728,-1.321 -4.115,-0.93 -6.491,-1.53 -10.263,-3.421 -3.873,-1.941 -6.011,-3.334 -9.097,-6.375 -3.058,-3.015 -4.6,-5.028 -6.53,-8.864 -1.98,-3.933 -2.674,-6.443 -3.266,-10.807 -0.203,-1.499 -0.212,-3.868 -0.212,-3.887 V 239.58 h 192.55 V 398.6 h 0.067 z"
           id="path200" />
      </g>
      <g
         fill="#c7b37f"
         stroke="#c7b37f"
         id="g208">
        <path
           stroke-width="0.513"
           d="m 387.41,421.32 a 3.907,3.907 0 1 1 7.814,0 3.907,3.907 0 0 1 -7.814,0 z m -23.99,-27.61 c 0,-1.932 1.236,-3.499 2.76,-3.499 1.524,0 2.76,1.567 2.76,3.499 0,1.932 -1.236,3.499 -2.76,3.499 -1.524,0 -2.76,-1.567 -2.76,-3.499 z"
           id="path204" />
        <path
           d="m 377.05,324.36 c 0,-1.587 1.193,-2.873 2.665,-2.873 1.472,0 2.665,1.286 2.665,2.873 0,1.587 -1.193,2.873 -2.665,2.873 -1.472,0 -2.665,-1.286 -2.665,-2.873 z m 47.86,-102.55 c -0.168,-1.592 0.788,-2.997 2.135,-3.138 1.347,-0.14 2.576,1.035 2.744,2.627 0.169,1.592 -0.787,2.997 -2.135,3.138 -1.347,0.141 -2.576,-1.035 -2.744,-2.627 z"
           stroke="none"
           id="path206" />
      </g>
      <g
         stroke="#c7b37f"
         stroke-width="0.987"
         stroke-linecap="round"
         id="g216">
        <path
           d="m 373.92,340.54 c -0.574,0.25 -0.89,0.456 -1.322,0.91 -0.412,0.433 -0.497,0.59 -0.816,1.298 -0.233,0.518 -0.295,1.118 -0.381,1.858 m 7.369,41.794 c 0.543,-0.658 0.87,-1.012 1.391,-1.687 0.434,-0.562 0.692,-0.87 1.073,-1.47 0.344,-0.539 0.498,-0.867 0.801,-1.43 0.428,-0.794 0.64,-1.257 1.05,-2.06 m -1.975,21.777 c -0.925,0.425 -1.472,0.612 -2.371,1.088 -0.684,0.363 -1.055,0.594 -1.71,1.003 -0.775,0.484 -1.208,0.767 -1.945,1.307 -0.767,0.562 -1.161,0.93 -1.904,1.523 m 23.38,-59.201 c -0.5,-0.515 -0.772,-0.817 -1.283,-1.321 -0.534,-0.528 -0.825,-0.839 -1.4,-1.322 -0.556,-0.469 -0.91,-0.683 -1.492,-1.12"
           id="path210" />
        <path
           stroke-linecap="butt"
           d="m 397.17,326.47 c -0.743,0.33 -1.133,0.593 -1.905,0.848 -0.885,0.291 -1.485,0.443 -2.34,0.482"
           id="path212" />
        <path
           d="m 371,300.68 c 0.255,0.907 0.31,1.448 0.653,2.325 0.431,1.102 0.791,1.681 1.446,2.666 0.683,1.027 1.11,1.594 1.99,2.457 0.774,0.758 1.264,1.14 2.17,1.734 0.86,0.564 1.418,0.759 2.325,1.244 m -1.544,-9.156 c 0.758,0.406 1.15,0.712 1.944,1.042 0.719,0.298 1.146,0.424 1.904,0.598 1.027,0.236 1.63,0.295 2.683,0.32 1.14,0.026 1.477,0 2.916,-0.234 M 398.69,240.15 c -1.246,-0.728 -2.008,-1.046 -3.196,-1.866 -1.207,-0.834 -1.873,-1.345 -2.923,-2.371 -0.757,-0.74 -1.181,-1.171 -1.811,-2.022 -0.563,-0.76 -0.778,-1.257 -1.275,-2.06 M 401.2,224.72 c 0.391,1.046 0.503,1.684 1.003,2.682 0.679,1.356 1.203,2.067 2.224,3.188 1.414,1.552 2.613,1.992 4.283,3.265 m 2.27,-9.245 c 0.388,0.94 0.507,1.518 0.995,2.41 0.432,0.788 0.73,1.208 1.299,1.905 0.725,0.888 1.197,1.352 2.099,2.06 1.049,0.824 1.792,1.067 2.939,1.75"
           id="path214" />
      </g>
      <path
         fill="#703d29"
         stroke-width="0.277"
         d="m 520.78,211.91 c -0.08,-2.649 -2.69,-2.924 -3.69,-2.924 -2.885,0 -3.666,1.8 -7.265,3.732 -4.512,2.424 -6.455,2.962 -10.466,2.998 -4.01,-0.036 -6.005,-0.575 -10.517,-2.998 -3.6,-1.932 -4.205,-3.674 -7.091,-3.674 -1.566,0 -3.59,1.353 -3.513,3.832 0,0 -0.03,0.803 0.093,1.347 0.047,0.204 0.296,0.14 0.374,0.32 -0.037,-1.203 0.207,-1.825 0.8,-2.633 0.76,-1.038 2.024,-1.313 2.54,-1.313 2.885,0 3.953,1.851 7.553,3.784 4.512,2.423 6.453,2.962 10.464,2.998 4.01,-0.036 6.007,-0.575 10.519,-2.998 3.6,-1.933 4.634,-3.938 7.52,-3.938 1,0 1.705,0.647 2.032,1.667 0.202,0.627 0.088,1.045 0.14,1.293 0.026,0.121 0.174,0.109 0.207,0.24 0.1,-0.467 0.333,-0.633 0.3,-1.733 z"
         id="path218" />
    </g>
    <g
       fill="#703d29"
       id="g228"
       transform="matrix(0.71428571,0,0,0.71428571,-111.98643,-0.51786)">
      <path
         d="m 413.12,434.42 c 0.81,-0.872 1.423,-0.544 1.573,-0.946 0.11,-0.297 -0.13,-0.327 -0.46,-0.45 -0.44,-0.165 -0.906,-0.26 -1.346,-0.424 -0.457,-0.17 -0.87,-0.405 -1.327,-0.576 -0.189,-0.07 -0.625,-0.293 -0.75,0.04 -0.228,0.61 1.602,0.558 0.988,2.2 -0.105,0.28 -0.365,0.88 -1.274,1.875 l -4.141,4.507 c -0.093,0.104 -0.248,0.326 -0.342,0.29 -0.095,-0.035 -0.082,-0.309 -0.083,-0.45 l 0.06,-6.39 c 0.004,-1.214 0.107,-2.112 0.303,-2.636 0.275,-0.734 1.12,-0.119 1.297,-0.59 0.111,-0.298 0.026,-0.31 -0.477,-0.498 -0.252,-0.094 -0.734,-0.195 -1.74,-0.571 -0.536,-0.2 -1.044,-0.47 -1.563,-0.664 -0.236,-0.088 -0.672,-0.41 -0.828,0.01 -0.046,0.123 0.119,0.304 0.16,0.339 0.58,0.416 0.727,0.69 0.74,1.472 l 0.114,11.635 c 0.009,0.84 0.1,1.073 0.258,1.132 0.173,0.065 0.29,-0.011 0.633,-0.4 l 8.205,-8.904 z"
         id="path222" />
      <path
         d="m 417.95,436.22 c 0.533,-1.69 1.532,-0.671 1.723,-1.276 0.067,-0.214 -10e-4,-0.275 -0.482,-0.426 -0.913,-0.288 -1.512,-0.398 -2.088,-0.58 -0.56,-0.177 -1.163,-0.445 -1.788,-0.642 -0.144,-0.046 -0.527,-0.225 -0.623,0.077 -0.196,0.623 1.77,0.695 1.26,2.314 l -2.693,8.542 c -0.533,1.69 -1.54,0.864 -1.736,1.486 -0.028,0.09 -0.036,0.224 0.109,0.27 0.416,0.131 1.127,0.277 1.816,0.494 1.249,0.394 1.819,0.652 2.412,0.839 0.368,0.116 0.534,0.09 0.596,-0.106 0.18,-0.57 -1.872,-0.316 -1.182,-2.505 z m 5.78,1.71 c 0.318,-1.073 0.817,-0.926 1.413,-0.75 1.626,0.483 2.135,2.073 1.616,3.827 -0.313,1.055 -0.706,2.028 -3.153,1.303 -0.483,-0.143 -1.079,-0.32 -0.946,-0.766 z m -4.434,7.696 c -0.667,2.254 -1.797,1.278 -1.966,1.85 -0.106,0.358 0.248,0.404 0.425,0.457 0.805,0.238 1.631,0.405 2.5,0.663 0.677,0.2 1.09,0.4 1.364,0.481 0.37,0.11 0.53,0.04 0.579,-0.12 0.19,-0.644 -1.621,-0.383 -1.054,-2.297 l 0.917,-3.095 c 0.185,-0.626 0.126,-0.78 0.979,-0.527 0.805,0.238 1.047,0.485 1.184,1.382 l 0.515,3.227 c 0.192,1.186 0.374,2.465 1.645,2.842 0.644,0.19 1.824,0.112 1.988,-0.443 0.042,-0.143 -0.023,-0.279 -0.168,-0.322 -0.16,-0.048 -0.353,0.011 -0.514,-0.036 -0.13,-0.038 -0.435,-0.129 -0.495,-0.458 -0.491,-2.597 -1.092,-5.596 -1.06,-5.704 0.053,-0.179 0.568,-0.201 1.156,-0.475 0.594,-0.29 1.257,-0.814 1.596,-1.959 0.244,-0.823 0.67,-3.44 -2.856,-4.485 -1.08,-0.32 -2.195,-0.572 -3.274,-0.892 -1.014,-0.3 -1.122,-0.41 -1.862,-0.63 -0.193,-0.056 -0.381,-0.015 -0.434,0.164 -0.19,0.644 1.76,0.502 1.167,2.505 z m 13.164,3.854 c -0.518,2.159 -2.154,0.845 -2.324,1.552 -0.096,0.4 0.186,0.448 0.48,0.519 0.653,0.156 1.21,0.213 2.303,0.476 1.094,0.263 1.615,0.465 2.269,0.622 0.473,0.113 0.787,0.246 0.891,-0.19 0.122,-0.507 -2.094,-0.483 -1.558,-2.715 l 1.968,-8.2 c 0.21,-0.87 0.395,-0.922 1.064,-0.761 l 1.388,0.333 c 1.895,0.378 0.889,2.267 1.542,2.423 0.425,0.102 0.415,-0.648 0.435,-0.874 l 0.22,-1.712 c 0.028,-0.185 0.089,-0.44 -0.156,-0.498 -1.518,-0.365 -2.63,-0.555 -5.014,-1.127 -2.384,-0.573 -3.46,-0.908 -4.978,-1.272 -0.245,-0.06 -0.306,0.195 -0.366,0.372 l -0.836,2.332 c -0.09,0.228 -0.283,0.604 0.06,0.686 0.734,0.176 0.815,-2.318 2.66,-1.875 l 1.372,0.33 c 0.669,0.16 0.81,0.29 0.601,1.161 l -2.02,8.418 z m 19.84,-5.06 c 0.646,-1 1.306,-0.782 1.385,-1.204 0.057,-0.312 -0.184,-0.3 -0.53,-0.364 -0.463,-0.086 -0.939,-0.098 -1.401,-0.184 -0.479,-0.089 -0.928,-0.248 -1.406,-0.337 -0.198,-0.037 -0.667,-0.18 -0.732,0.168 -0.119,0.643 1.675,0.273 1.355,1.997 -0.054,0.294 -0.206,0.93 -0.93,2.067 l -3.295,5.158 c -0.073,0.119 -0.187,0.364 -0.286,0.345 -0.1,-0.018 -0.134,-0.29 -0.16,-0.428 l -1.052,-6.305 c -0.205,-1.195 -0.26,-2.098 -0.158,-2.648 0.143,-0.77 1.083,-0.311 1.175,-0.807 0.057,-0.312 -0.029,-0.309 -0.557,-0.407 -0.264,-0.049 -0.756,-0.064 -1.813,-0.26 -0.561,-0.104 -1.11,-0.281 -1.654,-0.382 -0.248,-0.046 -0.732,-0.288 -0.814,0.152 -0.024,0.129 0.17,0.279 0.217,0.306 0.642,0.31 0.836,0.554 0.984,1.321 l 2.132,11.44 c 0.155,0.825 0.286,1.039 0.451,1.07 0.182,0.034 0.285,-0.061 0.555,-0.505 z m 0.93,10.51 c 0.009,0.456 -0.032,0.6 0.363,0.78 0.92,0.4 1.692,0.983 2.702,1.152 2.169,0.362 3.967,-1.02 4.37,-3.43 0.391,-2.338 -0.57,-3.312 -2.197,-4.473 -2.037,-1.457 -2.908,-1.85 -2.702,-3.082 0.206,-1.233 1.069,-1.807 2.162,-1.624 2.849,0.476 2.524,3.94 2.905,4.004 0.364,0.061 0.45,-0.151 0.486,-0.562 l 0.23,-2.496 c 0.038,-0.429 0.134,-0.697 -0.115,-0.738 -0.215,-0.036 -0.679,0.19 -0.894,0.153 -0.496,-0.083 -1.072,-0.917 -2.43,-1.144 -1.938,-0.325 -3.521,1 -3.875,3.116 -0.324,1.932 0.533,2.813 1.84,3.75 2.448,1.753 3.452,2.167 3.19,3.731 -0.247,1.472 -1.388,2.19 -2.68,1.973 -1.838,-0.308 -2.585,-2.154 -2.82,-4.01 -0.025,-0.25 -0.03,-0.42 -0.296,-0.465 -0.414,-0.069 -0.337,0.492 -0.33,0.758 z m 24.72,-6.97 c 0.538,-1.062 1.217,-0.915 1.251,-1.343 0.025,-0.316 -0.214,-0.279 -0.566,-0.306 -0.468,-0.037 -0.943,0 -1.412,-0.036 -0.485,-0.038 -0.948,-0.15 -1.433,-0.188 -0.201,-0.016 -0.682,-0.11 -0.71,0.243 -0.051,0.651 1.694,0.096 1.556,1.845 -0.023,0.297 -0.108,0.946 -0.708,2.152 l -2.739,5.474 c -0.06,0.126 -0.148,0.381 -0.248,0.374 -0.1,-0.01 -0.164,-0.275 -0.204,-0.41 l -1.704,-6.16 c -0.33,-1.167 -0.479,-2.059 -0.435,-2.617 0.062,-0.78 1.044,-0.423 1.084,-0.925 0.024,-0.316 -0.06,-0.304 -0.596,-0.346 -0.268,-0.02 -0.76,0.016 -1.83,-0.07 -0.57,-0.044 -1.133,-0.163 -1.685,-0.207 -0.251,-0.02 -0.759,-0.21 -0.794,0.237 -0.011,0.13 0.199,0.26 0.247,0.282 0.672,0.24 0.89,0.463 1.118,1.21 l 3.316,11.154 c 0.24,0.805 0.393,1.004 0.56,1.017 0.184,0.014 0.277,-0.091 0.499,-0.56 z"
         id="path224" />
      <path
         d="m 480.6,457 c -0.016,1.903 -1.626,1.553 -1.632,2.3 -0.002,0.317 0.334,0.226 0.519,0.228 0.453,0 0.907,-0.067 1.444,-0.062 0.588,0.01 1.158,0.085 1.98,0.092 0.22,0 0.639,0.024 0.64,-0.237 0.008,-0.877 -2.152,0.373 -2.12,-3.21 l 0.055,-6.342 c 0,-0.168 0.036,-0.299 0.137,-0.298 0.084,0 0.183,0.095 0.3,0.245 l 7.992,9.772 c 0.116,0.15 0.2,0.263 0.434,0.265 0.202,0 0.203,-0.147 0.206,-0.558 l 0.092,-10.466 c 0.015,-1.958 1.44,-1.498 1.445,-2.058 0,-0.056 0.002,-0.243 -0.317,-0.245 -0.15,0 -0.74,0.068 -1.797,0.059 -1.159,-0.011 -1.645,-0.09 -1.914,-0.091 -0.218,0 -0.27,0.184 -0.271,0.314 -0.005,0.616 2.046,0.298 2.03,1.996 l -0.053,6.213 c -0.005,0.466 -0.04,0.69 -0.14,0.689 -0.101,-10e-4 -0.3,-0.227 -0.517,-0.49 l -6.678,-8.286 c -0.3,-0.358 -0.097,-0.486 -0.634,-0.491 -0.89,-0.01 -1.327,0.063 -1.764,0.059 -0.319,0 -0.62,-0.08 -0.94,-0.083 -0.2,0 -0.286,0.146 -0.288,0.315 -0.009,0.895 1.884,-0.301 1.852,3.281 l -0.061,7.09 z m 16.26,-8.4 c 0.016,-1.772 1.27,-1.09 1.274,-1.724 0.002,-0.224 -0.08,-0.262 -0.585,-0.267 -0.957,-0.01 -1.562,0.061 -2.166,0.056 -0.588,0 -1.242,-0.086 -1.897,-0.09 -0.151,-0.002 -0.57,-0.062 -0.573,0.256 -0.005,0.653 1.802,0.147 1.788,1.845 l 0.015,8.955 c -0.015,1.772 -1.22,1.277 -1.225,1.93 -10e-4,0.093 0.031,0.224 0.182,0.225 0.437,0.01 1.16,-0.064 1.882,-0.058 1.31,0.011 1.93,0.091 2.55,0.097 0.387,0 0.539,-0.07 0.54,-0.275 0.006,-0.597 -1.882,0.245 -1.862,-2.05 z m 7.04,8.67 c 0.02,2.22 -1.886,1.341 -1.88,2.069 0.006,0.41 0.29,0.39 0.592,0.386 0.671,-0.01 1.225,-0.085 2.35,-0.095 1.125,-0.01 1.68,0.06 2.351,0.054 0.487,0 0.824,0.05 0.82,-0.399 -0.005,-0.522 -2.15,0.037 -2.17,-2.257 l -0.073,-8.433 c -0.007,-0.895 0.16,-0.99 0.848,-0.996 l 1.427,-0.011 c 1.93,-0.091 1.411,1.984 2.083,1.978 0.436,0 0.245,-0.73 0.21,-0.953 l -0.2,-1.715 c -0.018,-0.187 -0.02,-0.448 -0.273,-0.446 -1.561,0.014 -2.686,0.098 -5.137,0.12 -2.452,0.02 -3.577,-0.044 -5.139,-0.03 -0.252,0 -0.25,0.263 -0.265,0.45 l -0.247,2.465 c -0.031,0.243 -0.128,0.654 0.224,0.651 0.756,-0.01 0.231,-2.446 2.128,-2.462 l 1.41,-0.014 c 0.69,-0.01 0.858,0.086 0.866,0.98 z m 9.78,-3.53 c -0.301,0.024 -0.534,0.061 -0.549,-0.125 -0.02,-0.26 0.064,-0.473 0.13,-0.703 l 1.03,-3.393 c 0.067,-0.212 0.133,-0.236 0.166,-0.238 0.084,-0.01 0.034,0 0.146,0.138 l 1.638,3.259 c 0.1,0.216 0.217,0.413 0.238,0.673 0.013,0.186 -0.221,0.186 -0.523,0.21 z m 2.874,0.784 c 0.436,-0.034 0.534,0.146 1.2,1.553 0.224,0.488 0.368,0.813 0.4,1.222 0.09,1.135 -1.115,1.024 -1.073,1.563 0.02,0.26 0.236,0.206 0.537,0.183 0.485,-0.038 1.099,-0.162 1.835,-0.22 1.105,-0.087 1.563,-0.048 2.166,-0.096 0.452,-0.035 0.605,-0.01 0.58,-0.326 -0.048,-0.614 -0.895,0.183 -1.535,-1.096 l -5.415,-11.028 c -0.262,-0.54 -0.298,-0.575 -0.449,-0.563 -0.217,0.018 -0.273,0.377 -0.367,0.684 l -3.651,11.61 c -0.336,1.074 -1.199,1.03 -1.165,1.458 0.02,0.242 0.284,0.183 0.518,0.165 0.485,-0.038 0.965,-0.151 1.467,-0.19 0.536,-0.043 1.044,-0.01 1.58,-0.05 0.351,-0.028 0.88,0.062 0.85,-0.329 -0.04,-0.502 -1.824,-0.062 -1.93,-1.401 -0.035,-0.447 0.148,-1.116 0.236,-1.497 0.288,-1.258 0.634,-1.36 0.919,-1.382 l 3.298,-0.26 z m 12.976,-7.734 c -0.168,-1.276 -0.104,-1.304 1.91,-1.569 3.213,-0.423 2.2,1.912 2.982,1.81 0.383,-0.05 0.22,-0.65 0.171,-0.889 l -0.307,-1.822 c -0.023,-0.167 -0.163,-0.336 -0.38,-0.308 -1.465,0.193 -2.604,0.418 -3.786,0.574 -2.547,0.335 -3.755,0.419 -4.438,0.509 -0.233,0.03 -0.347,0.196 -0.325,0.363 0.098,0.74 1.901,-0.1 2.12,1.564 l 1.14,8.658 c 0.297,2.256 -1.1,1.424 -0.988,2.275 0.016,0.111 0.127,0.19 0.343,0.162 0.916,-0.12 1.606,-0.287 2.122,-0.355 0.732,-0.097 1.358,-0.103 1.99,-0.186 0.417,-0.055 0.776,-0.027 0.727,-0.397 -0.065,-0.5 -1.885,0.21 -2.156,-1.843 l -0.36,-2.738 c -0.142,-1.073 -0.237,-1.286 0.528,-1.387 l 1.232,-0.162 c 1.732,-0.228 1.524,1.795 2.056,1.724 0.4,-0.053 0.212,-0.705 0.164,-0.943 l -0.55,-3.277 c -0.082,-0.498 -0.26,-0.437 -0.377,-0.421 -0.333,0.044 -0.159,1.752 -1.59,1.94 l -1.05,0.139 c -0.715,0.094 -0.732,-0.035 -0.837,-0.831 l -0.34,-2.59 z m 6.14,4.24 c 0.69,3.724 3.378,5.787 6.697,5.172 5.267,-0.976 5.44,-5.657 4.965,-8.225 -0.721,-3.89 -3.62,-5.8 -6.833,-5.166 -3.939,0.767 -5.574,4.201 -4.829,8.219 z m 1.837,-1.422 c -0.493,-2.66 -0.137,-5.345 2.643,-5.917 2.123,-0.431 4.532,1.323 5.283,5.378 0.565,3.045 0.096,5.675 -2.734,6.256 -2.945,0.603 -4.696,-3.039 -5.192,-5.717 z m 13.023,-6.498 c -0.261,-1.089 0.245,-1.21 0.849,-1.355 1.65,-0.396 2.886,0.727 3.313,2.505 0.257,1.07 0.403,2.11 -2.08,2.705 -0.49,0.118 -1.093,0.263 -1.202,-0.19 z m 0.009,8.882 c 0.549,2.286 -0.917,2.004 -0.778,2.585 0.087,0.363 0.417,0.226 0.596,0.183 0.817,-0.196 1.616,-0.465 2.498,-0.676 0.685,-0.165 1.143,-0.198 1.421,-0.265 0.376,-0.09 0.48,-0.23 0.44,-0.393 -0.156,-0.654 -1.594,0.478 -2.06,-1.463 l -0.753,-3.138 c -0.153,-0.635 -0.281,-0.739 0.584,-0.947 0.816,-0.196 1.15,-0.103 1.717,0.605 l 2.06,2.537 c 0.758,0.931 1.555,1.949 2.845,1.64 0.653,-0.158 1.635,-0.816 1.5,-1.378 -0.035,-0.145 -0.159,-0.23 -0.306,-0.195 -0.163,0.039 -0.3,0.187 -0.464,0.226 -0.13,0.031 -0.44,0.106 -0.657,-0.149 -1.725,-2.004 -3.744,-4.3 -3.77,-4.41 -0.044,-0.181 0.39,-0.458 0.764,-0.99 0.37,-0.548 0.682,-1.333 0.403,-2.494 -0.2,-0.835 -1.141,-3.314 -4.717,-2.456 -1.094,0.263 -2.187,0.602 -3.281,0.864 -1.028,0.247 -1.177,0.206 -1.928,0.386 -0.196,0.047 -0.337,0.177 -0.294,0.359 0.157,0.653 1.776,-0.446 2.264,1.586 z m 13.471,-3.012 c 0.556,2.15 -1.505,1.758 -1.323,2.462 0.102,0.398 0.374,0.308 0.667,0.232 0.65,-0.168 1.168,-0.379 2.257,-0.66 1.09,-0.282 1.645,-0.349 2.295,-0.517 0.471,-0.122 0.81,-0.152 0.698,-0.585 -0.13,-0.506 -2.076,0.556 -2.65,-1.666 l -2.112,-8.164 c -0.224,-0.867 -0.085,-1 0.581,-1.172 l 1.382,-0.358 c 1.851,-0.555 1.85,1.584 2.5,1.416 0.422,-0.11 0.061,-0.767 -0.027,-0.976 l -0.609,-1.615 c -0.063,-0.177 -0.128,-0.43 -0.372,-0.367 -1.512,0.392 -2.582,0.746 -4.956,1.36 -2.373,0.613 -3.481,0.822 -4.993,1.214 -0.244,0.063 -0.179,0.316 -0.148,0.5 l 0.356,2.452 c 0.029,0.243 0.034,0.666 0.375,0.577 0.732,-0.189 -0.368,-2.429 1.469,-2.904 l 1.365,-0.353 c 0.667,-0.172 0.853,-0.124 1.077,0.743 z m 8.59,-11.46 c -0.474,-1.708 0.92,-1.397 0.75,-2.009 -0.06,-0.215 -0.15,-0.229 -0.636,-0.095 -0.923,0.256 -1.485,0.49 -2.068,0.651 -0.566,0.157 -1.217,0.26 -1.848,0.435 -0.146,0.04 -0.565,0.098 -0.48,0.405 0.174,0.629 1.863,-0.382 2.316,1.254 l 2.394,8.63 c 0.474,1.708 -0.821,1.564 -0.647,2.193 0.025,0.09 0.093,0.207 0.238,0.167 0.42,-0.117 1.097,-0.382 1.793,-0.575 1.262,-0.35 1.88,-0.444 2.48,-0.61 0.371,-0.103 0.497,-0.215 0.442,-0.413 -0.16,-0.576 -1.742,0.754 -2.356,-1.458 z m 3.58,4.17 c 1.202,3.592 4.15,5.261 7.352,4.19 5.08,-1.7 4.6,-6.36 3.771,-8.836 -1.255,-3.751 -4.391,-5.24 -7.485,-4.166 -3.793,1.31 -4.934,4.937 -3.638,8.812 z m 1.621,-1.664 c -0.858,-2.565 -0.879,-5.273 1.794,-6.227 2.043,-0.723 4.672,0.68 5.98,4.59 0.983,2.937 0.885,5.606 -1.836,6.576 -2.833,1.006 -5.074,-2.356 -5.938,-4.939 z m 11.919,-8.466 c -0.41,-1.041 0.074,-1.232 0.652,-1.46 1.578,-0.622 2.96,0.318 3.63,2.02 0.403,1.024 0.692,2.033 -1.683,2.968 -0.469,0.185 -1.047,0.412 -1.218,-0.023 l -1.381,-3.506 z m 1.245,8.794 c 0.861,2.187 -0.63,2.113 -0.411,2.669 0.136,0.347 0.444,0.166 0.616,0.098 0.781,-0.308 1.535,-0.685 2.378,-1.017 0.657,-0.259 1.106,-0.355 1.371,-0.46 0.36,-0.142 0.444,-0.295 0.382,-0.452 -0.246,-0.625 -1.512,0.697 -2.244,-1.16 l -1.183,-3.004 c -0.24,-0.608 -0.38,-0.692 0.447,-1.018 0.781,-0.308 1.124,-0.263 1.784,0.36 l 2.393,2.225 c 0.881,0.816 1.812,1.713 3.046,1.227 0.625,-0.246 1.506,-1.034 1.294,-1.572 -0.055,-0.14 -0.19,-0.206 -0.33,-0.151 -0.157,0.062 -0.272,0.227 -0.428,0.289 -0.125,0.049 -0.422,0.166 -0.672,-0.056 -1.986,-1.744 -4.306,-3.738 -4.347,-3.843 -0.068,-0.173 0.323,-0.508 0.62,-1.085 0.288,-0.596 0.488,-1.416 0.05,-2.527 -0.314,-0.8 -1.59,-3.123 -5.012,-1.776 -1.047,0.413 -2.082,0.9 -3.129,1.313 -0.984,0.388 -1.136,0.367 -1.855,0.65 -0.188,0.075 -0.31,0.222 -0.241,0.396 0.246,0.625 1.696,-0.688 2.462,1.256 z"
         id="path226" />
    </g>
    <g
       fill="#fedf00"
       id="g241"
       transform="matrix(0.71428571,0,0,0.71428571,-111.98643,-0.51786)">
      <path
         fill="#d52b1e"
         d="m 412.66,249.25 h 82.179 v 82.023 H 412.66 Z"
         id="path230" />
      <path
         id="a"
         fill="#ffffff"
         d="m 451.2,313.83 c 0,0 -0.048,2.931 -0.855,5.287 -0.933,2.721 -0.94,2.721 -1.796,4.043 -1.152,1.78 -2.557,3.082 -3.81,3.887 -1.958,1.258 -3.948,1.888 -5.948,1.71 -5.49,-0.486 -8.038,-6.44 -9.283,-11.273 -1.321,-5.13 -5.073,-7.923 -7.463,-6.064 -1.4,1.089 -1.479,2.914 -0.311,4.665 1.244,1.866 4.099,2.8 4.099,2.8 l -2.933,3.731 c 0,0 -6.302,-0.82 -7.535,-7.393 -0.466,-2.488 0.742,-7.134 4.891,-8.522 5.297,-1.774 8.686,2.004 10.318,5.191 2.246,4.384 3.21,12.434 9.43,11.19 3.384,-0.677 4.976,-5.598 4.976,-7.852 l 2.467,-2.644 3.654,1.167 0.099,0.078 z" />
      <use
         xlink:href="#a"
         transform="matrix(-1,0,0,1,907.52,0)"
         id="use233"
         x="0"
         y="0"
         width="100%"
         height="100%" />
      <path
         d="m 461.12,278.95 10.76,-11.643 c 0,0 1.624,-1.31 1.61,-3.401 l -2.219,0.345 -0.497,-1.142 -0.11,-1.147 2.981,-0.63 c 0.048,-0.484 0.007,-0.85 0.092,-1.384 0.08,-0.494 0.19,-0.76 0.311,-1.244 l -3.265,0.218 c 0.166,-0.571 0.128,-0.875 0.31,-1.406 0.155,-0.447 0.198,-0.618 0.504,-1.103 0.606,-0.091 1.158,-0.228 1.907,-0.304 0.728,-0.073 1.143,-0.04 1.873,-0.085 1.781,-3.321 9.19,-6.373 14.454,-0.904 3.81,3.958 2.988,11.219 -1.95,13.139 -2.8,1.088 -5.054,0.445 -6.862,-1.11 l 1.97,-3.866 c 2.722,1.625 4.976,-0.396 4.821,-2.495 -0.197,-2.654 -1.919,-4.297 -4.354,-4.51 -2.254,-0.197 -3.872,1.093 -4.898,3.11 -0.626,1.231 -0.336,2.134 -0.544,3.5 -0.226,1.482 -0.1,2.31 -0.537,3.809 -0.319,1.088 -1.155,2.434 -2.37,3.592 l -11.03,11.935 -42.941,46.445 -3.227,-2.983 43.211,-46.737 z"
         id="path235" />
      <path
         fill="#ffffff"
         d="m 429.51,283.04 c 0,0 2.7,13.372 11.874,33.431 4.665,-1.71 7.42,-2.8 12.362,-2.8 4.943,0 7.697,0.934 12.362,2.8 9.174,-20.059 11.874,-33.431 11.874,-33.431 l -24.236,-31.177 z"
         id="path237" />
      <path
         d="m 456.12,262.41 16.82,21.637 c 0,0 -2.243,10.52 -9.078,26.354 -2.646,-0.603 -4.916,-1.128 -7.733,-1.32 l -0.009,-46.67 z m -4.74,0 -16.82,21.637 c 0,0 2.243,10.52 9.078,26.354 2.646,-0.603 4.916,-1.128 7.733,-1.32 l 0.009,-46.67 z"
         id="path239" />
    </g>
    <g
       fill="#d52b1e"
       id="g247"
       transform="matrix(0.71428571,0,0,0.71428571,-111.98643,-0.51786)">
      <path
         fill="#fedf00"
         d="m 503.6,249.25 h 82.179 v 82.023 H 503.6 Z"
         id="path243" />
      <path
         d="m 515.11,249.25 h 12.253 v 82.023 H 515.11 Z m 23.48,0 h 12.253 v 82.023 H 538.59 Z m 23.48,0 h 12.253 v 82.023 H 562.07 Z"
         id="path245" />
    </g>
    <g
       fill="#d52b1e"
       stroke="#d52b1e"
       stroke-width="0.513"
       id="g253"
       transform="matrix(0.71428571,0,0,0.71428571,-111.98643,-0.51786)">
      <path
         fill="#fedf00"
         d="m 412.97,402.41 c 0.233,1.477 0.76,4.012 2.163,6.609 1.477,2.332 0.932,2.269 4.276,6 1.645,1.838 4.213,3.411 6.227,4.495 2.021,1.089 3.517,1.623 6.842,2.496 6.517,1.71 11.09,1.817 16.574,1.598 4.278,-0.171 7.544,-0.697 10.249,-1.062 3.857,-0.518 6.73,-0.827 11.118,-1.01 2.133,-0.09 4.149,-0.11 6.142,0 2.405,0.133 4.781,0.505 7.308,1.01 5.442,1.089 10.962,3.188 10.962,3.188 l 0.014,-85.655 -82.193,-0.023 V 398.6 c 0,0 0.168,2.86 0.318,3.81 z"
         stroke="none"
         id="path249" />
      <path
         d="m 422.51,417.43 3.852,2.241 5.278,1.9 -0.005,-81.528 h -9.126 z m 45.66,3.71 0.011,-81.099 h -9.143 v 82.396 c 0,0 6.257,-0.802 9.131,-0.988 z m 18.24,-81.09 h -9.113 v 81.381 a 60.43,60.43 0 0 1 9.13,1.683 z m -36.49,0 v 83.331 c -0.09,0.01 -6.1,0.315 -9.173,-0.003 l 0.002,-83.314 z"
         id="path251" />
    </g>
    <path
       fill="#fedf00"
       d="m 306.21357,286.90357 c -0.16643,1.055 -0.54286,2.86571 -1.545,4.72 -1.055,1.66643 -0.66571,1.62143 -3.05357,4.28643 -1.17572,1.31214 -3.01,2.43643 -4.44857,3.21071 -1.44357,0.77786 -2.51143,1.15929 -4.88643,1.78214 -4.65572,1.22143 -7.92214,1.29858 -11.83857,1.14215 -3.05572,-0.12215 -5.38857,-0.49857 -7.32143,-0.75857 -2.755,-0.37 -4.80714,-0.59072 -7.94072,-0.72143 -1.52357,-0.0643 -2.96428,-0.0786 -4.38714,0 -1.71857,0.0943 -3.41571,0.36071 -5.22071,0.72143 -3.88715,0.77785 -7.88072,2.27714 -7.88072,2.27714 l 0.0407,-61.18214 58.70928,-0.0164 v 41.81643 c 0,0 -0.12,2.04285 -0.22714,2.72142 z"
       id="path255"
       style="stroke-width:0.714286" />
    <g
       id="b"
       transform="matrix(0.71428571,0,0,0.71428571,-111.98643,-0.517857)">
      <path
         fill="#d52b1e"
         d="m 524.62,346.91 c 0,0 -0.366,0.175 -0.594,0.281 -0.298,0.328 -0.447,0.52 -0.781,0.813 -0.443,0.389 -0.769,0.503 -1.25,0.843 -0.23,0.164 -0.42,0.216 -0.594,0.438 -0.252,0.32 -0.079,0.63 -0.25,1 -0.186,0.405 -0.369,0.597 -0.656,0.938 -0.366,0.434 -0.65,0.61 -1.063,1 -0.418,0.395 -0.587,0.726 -1.093,1 -0.134,0.072 -0.199,0.142 -0.344,0.187 -0.216,0.067 -0.35,-0.011 -0.563,0.062 -0.388,0.134 -0.51,0.563 -0.78,0.719 0.111,0.218 0.106,0.372 0.218,0.594 0.158,0.323 0.705,1.215 0.812,1.437 0.21,0.305 0.27,0.7 0.532,0.781 0.537,0.168 0.858,0.154 1.312,0.125 0.792,0.182 1.28,0.158 2.031,0.469 0.613,0.254 0.863,0.575 1.47,0.844 0.473,0.21 0.771,0.34 1.28,0.437 0.387,0.074 0.608,0.132 1,0.094 0.25,-0.024 0.377,-0.12 0.625,-0.156 0.05,-0.01 0.081,0 0.125,0 l -0.03,0.375 c -0.006,0 0.004,0.028 0,0.031 v 0.062 h 0.062 l 2.062,0.906 a 1.72,1.72 0 0 0 -0.187,0.375 c -0.098,0.32 -0.114,0.689 -0.063,0.844 0.63,1.888 1.16,3.069 1.469,3.188 0.615,0.236 0.806,0.865 1.156,1.5 -0.123,0.132 -0.227,0.2 -0.344,0.312 -0.614,0.59 -1.152,1.01 -1.656,1.813 -0.745,1.188 -1.248,1.203 -0.312,2.78 0.549,0.926 0.814,1.1 1.53,2.407 0.363,0.66 0.563,1.173 0.782,1.969 0.207,0.752 0.278,1.19 0.313,1.969 l 0.968,0.375 0.657,-0.657 0.625,-1.187 0.03,-0.906 c -0.238,-0.203 -0.307,-0.474 -0.25,-0.782 0.07,-0.368 0.515,-0.29 0.72,-0.625 0.283,-0.461 -0.332,-0.734 -0.657,-1.093 -0.605,-0.67 -1.43,-0.833 -1.625,-1.844 -0.052,-0.273 0.078,-0.427 0.375,-0.719 0.856,-0.84 1.13,-0.973 1.97,-1.812 0.241,0.142 0.61,0.193 0.968,0.125 0.28,-0.053 0.53,0.125 1.406,0.375 0.61,0.173 0.873,0.086 1.219,0.03 l 0.375,-0.093 c 0.05,0.211 0.111,0.415 0.125,0.687 0.053,1.06 -0.155,2.995 0.156,3.5 0.131,0.213 0.186,0.332 0.281,0.563 0.1,0.24 0.214,0.396 0.22,0.656 0.01,0.696 0.046,1.14 0,1.875 -0.045,0.691 -0.104,1.042 -0.22,1.75 -0.074,0.451 -0.165,0.714 -0.437,1.062 -0.283,0.364 -0.595,0.418 -0.969,0.688 l -0.093,1 1.125,0.469 1.28,0.312 0.688,-0.281 c 0,-0.254 0.04,-0.4 0.156,-0.625 0.128,-0.247 0.232,-0.439 0.47,-0.531 0.362,-0.143 0.759,0.129 0.905,-0.094 0.16,-0.242 0.06,-0.338 0.032,-0.75 -0.046,-0.662 -0.184,-0.99 -0.282,-1.657 -0.164,-1.11 -0.21,-1.686 -0.156,-2.75 0.031,-0.616 0.038,-0.956 0.156,-1.562 0.172,-0.883 0.486,-1.311 0.688,-2.188 0.225,-0.977 0.265,-1.606 0.375,-2.468 3.17,0.452 5.807,0.397 9.344,-0.375 0.169,-0.037 0.75,-0.25 0.75,-0.25 0.8,0.689 1.706,1.264 2.718,1.625 -0.006,0.101 -0.015,0.845 0,0.968 0.037,0.288 -0.04,0.482 0.125,0.72 0.106,0.15 0.197,0.239 0.375,0.28 0.263,0.061 0.455,0.023 0.657,-0.156 0.226,-0.201 0.184,-0.454 0.25,-0.75 0.032,-0.14 0.007,-0.564 0,-0.687 0.366,0.055 0.49,0.062 0.875,0.062 0.357,0 0.53,0.014 0.875,-0.031 0.005,0.08 0.02,0.369 0.03,0.468 0.028,0.245 -0.075,0.435 0.032,0.657 0.111,0.23 0.25,0.359 0.5,0.406 a 0.66,0.66 0 0 0 0.531,-0.094 c 0.296,-0.185 0.264,-0.498 0.313,-0.844 0.015,-0.11 0.011,-0.692 0,-0.781 0.212,-0.067 0.827,-0.292 1.031,-0.375 a 5.12,5.12 0 0 1 -0.094,0.812 5.01,5.01 0 0 1 -0.25,0.938 c -0.206,0.568 -0.441,0.856 -0.75,1.375 -0.376,0.634 -0.572,0.985 -1.03,1.562 -0.212,0.266 -0.358,0.386 -0.563,0.657 -0.256,0.337 -0.342,0.566 -0.594,0.906 -0.324,0.438 -0.51,0.724 -0.938,1.062 -0.693,0.55 -1.15,0.11 -2.093,0.844 l -0.22,1.031 1.438,0.532 1.282,0.25 0.437,-0.25 c -0.012,-0.301 0.032,-0.514 0.219,-0.75 0.213,-0.27 0.441,-0.351 0.781,-0.407 0.361,-0.059 0.747,0.034 1.031,-0.218 0.35,-0.311 0.349,-0.914 0.625,-1.47 0.859,-1.723 1.621,-2.562 3,-3.905 0.613,-0.597 1.138,-0.758 1.657,-1.438 0.246,-0.322 0.52,-0.469 0.53,-0.875 0.009,-0.283 -0.143,-0.415 -0.218,-0.687 -0.104,-0.377 -0.187,-1 -0.187,-1 1.521,0.744 0.97,0.646 1.25,1.406 0.225,0.615 -0.033,1.04 0.062,1.687 0.111,0.756 0.466,1.114 0.531,1.875 0.078,0.905 -0.143,1.42 -0.312,2.313 -0.15,0.785 -0.13,1.277 -0.469,2 -0.322,0.689 -0.57,1.077 -1.156,1.562 -0.211,0.175 -0.369,0.25 -0.594,0.407 l -0.125,1.03 1.125,0.376 1.625,0.437 0.375,-0.343 c 0.164,-0.655 -0.055,-1.617 0.406,-1.688 0.406,-0.062 0.693,0 0.782,-0.312 0.036,-0.132 0.058,-0.326 0.093,-0.625 0.221,-1.886 0.422,-3.646 0.625,-4.5 0.23,-0.968 0.215,-1.178 0.407,-1.907 0.175,-0.664 -0.086,-0.282 0.406,-1.687 0.734,-2.097 -0.208,-2.375 -1.063,-3.656 -0.462,-0.693 -0.622,-0.944 -0.687,-1.5 -0.097,-0.817 0.164,-1.495 0.125,-2.75 a 42.325,42.325 0 0 1 0,-2.875 c 0.115,-0.053 0.222,-0.121 0.344,-0.188 1.17,-0.642 1.636,-0.836 2.375,-2.469 a 3.43,3.43 0 0 0 0.312,-1.468 c -0.005,-0.332 -0.065,-0.652 -0.094,-1.032 -0.03,-0.399 -0.19,-0.637 -0.312,-0.937 -0.13,-0.318 -0.325,-0.559 -0.563,-0.844 -0.772,-0.924 -1.779,-1.132 -2.718,-1.469 -1.484,-0.531 -2.505,-0.434 -4.125,-0.562 -1.673,-0.132 -2.607,-0.158 -4.282,-0.062 -2.006,0.114 -3.128,0.519 -5.125,0.75 -1.915,0.222 -2.977,0.37 -4.906,0.406 -2.26,0.042 -4.42,-0.46 -5.781,-0.344 -2.451,0.21 -2.493,0.762 -6.188,1.063 a 66.916,66.916 0 0 1 -3.843,0.187 l -2.157,-0.687 c 0.857,-0.306 1.067,-0.488 1.47,-1.031 0.271,-0.366 0.232,-0.679 0.562,-1.063 0.266,-0.312 0.443,-0.622 0.78,-0.969 a 2.2,2.2 0 0 0 -0.937,-0.437 c -0.363,-0.076 -0.573,-0.042 -0.937,0 -0.494,0.056 -0.772,0.124 -1.219,0.344 -0.36,0.177 -0.624,0.357 -0.844,0.593 0,0 -1.285,-0.828 -2.187,-1.218 -1.119,-0.485 -1.6,-0.712 -3,-0.907 z m 1.969,11.906 h 0.062 c -0.012,0.01 -0.019,0.022 -0.03,0.031 z"
         id="path257" />
      <g
         fill="none"
         stroke="#fedf00"
         stroke-width="0.987"
         stroke-linecap="round"
         id="g273">
        <path
           d="m 568.77,359.52 -0.763,0.244 c -0.867,0.402 -1.578,0.418 -2.6,0.496 -2.644,0.202 -4.272,-1.057 -6.998,-0.847 -1.404,0.108 -2.025,1.19 -3.46,1.548 a 9.247,9.247 0 0 1 -1.701,0.282 l 0.512,-1.034 c 0,0 -1.284,0.262 -2.115,0.264 a 7.551,7.551 0 0 1 -1.523,-0.13 l 1.018,-0.95 c 0,0 -0.814,-0.133 -1.294,-0.336 a 3.918,3.918 0 0 1 -1.06,-0.63 20.484,20.484 0 0 0 1.69,-0.353 c 1.556,-0.385 2.04,-1.147 3.89,-1.325 1.15,-0.111 3.032,-0.046 7.643,0.717 3.036,0.502 4.382,0.267 5.536,-0.258 0.76,-0.345 1.01,-1.01 1.103,-1.788 0.092,-0.776 -0.404,-1.404 -0.874,-1.81 -0.123,-0.106 -0.444,-0.335 -1.113,-0.363"
           id="path259" />
        <path
           fill="#fcd900"
           stroke-width="0.513"
           stroke-linecap="butt"
           d="m 524.8,350.61 c -0.53,-0.066 -0.884,0.011 -1.34,0.291 -0.48,0.296 -0.541,0.697 -0.888,1.142 0.445,0.1 0.699,0.361 1.142,0.254 0.347,-0.084 0.527,-0.238 0.761,-0.507 0.316,-0.363 0.432,-0.676 0.428,-1.156 z"
           id="path261" />
        <path
           d="m 536.04,363.79 c 0,0 0.264,0.48 0.407,0.8 0.248,0.554 0.376,0.878 0.524,1.467 0.2,0.799 0.114,1.284 0.24,2.098 0.023,0.143 0.05,0.263 0.077,0.376 l -0.05,1.129 m 6.802,-6.95 c 0,0 -0.219,0.812 -0.354,1.333 -0.352,1.353 -0.676,2.087 -0.944,3.46 -0.045,0.23 -0.078,0.442 -0.103,0.644 M 531.78,364.17 c 0.79,0.176 0.544,3.36 1.789,4.09"
           id="path263" />
        <path
           stroke-linecap="butt"
           d="m 560.12,369.78 0.384,-0.249 a 8.154,8.154 0 0 0 2.686,-1.79"
           id="path265" />
        <path
           d="m 552.38,368.02 h 0.007 c 3.533,-0.883 5.885,-2.648 7.579,-2.869"
           id="path267" />
        <path
           d="m 555.97,363.61 c 0.299,-0.011 0.585,-0.033 0.83,-0.068 1.467,-0.21 1.703,0.687 2.725,1.258 1.857,1.039 2.098,2.307 4.3,3.356 0.116,0.055 0.223,0.107 0.32,0.155 l 0.848,0.429"
           id="path269" />
        <path
           fill="#fcd900"
           stroke-width="0.513"
           stroke-linecap="butt"
           d="m 517.7,354.53 c 0.268,0.067 0.432,0.08 0.707,0.054 0.332,-0.031 0.484,-0.238 0.817,-0.249 0.27,-0.01 0.462,-0.032 0.684,0.125 0.14,0.099 0.2,0.19 0.28,0.342 0.087,0.166 0.163,0.282 0.124,0.466 -0.06,0.284 -0.324,0.418 -0.614,0.42 -0.237,0 -0.434,-0.062 -0.544,-0.272 a 0.467,0.467 0 0 1 -0.039,-0.389 c -0.284,0.107 -0.49,0.111 -0.777,0.016 A 1.04,1.04 0 0 1 517.7,354.53 Z"
           id="path271" />
      </g>
      <g
         fill="#0065bd"
         id="g277">
        <path
           d="m 525.13,364.17 c -0.797,-0.237 -1.966,-0.826 -1.966,-0.826 0.323,-0.25 0.587,-0.265 0.863,-0.555 0.39,-0.408 0.373,-0.788 0.593,-1.319 0.215,-0.52 0.184,-0.954 0.671,-1.343 0.29,-0.23 0.762,-0.269 1.118,-0.165 0.353,0.113 0.759,0.401 0.848,0.766 0.137,0.561 -0.16,0.886 -0.246,1.454 -0.086,0.568 -0.293,0.894 -0.195,1.46 0.066,0.375 0.227,0.519 0.354,0.907 0,0 -1.264,-0.148 -2.04,-0.38 z m -0.99,0.95 a 0.628,0.628 0 1 1 0.64,0.618 0.627,0.627 0 0 1 -0.64,-0.618 z m -1.76,-16.51 c 0,0 -0.09,-0.06 -0.144,-0.104 -0.383,-0.31 -0.42,-0.653 -0.601,-1.11 -0.172,-0.434 -0.257,-0.691 -0.315,-1.154 -0.05,-0.406 0,-0.64 0,-1.048 0,-0.369 0.04,-0.578 0,-0.944 -0.04,-0.375 -0.03,-0.612 -0.21,-0.944 -0.097,-0.18 -0.394,-0.337 -0.314,-0.42 0.094,-0.096 0.257,-0.02 0.42,0 0.399,0.049 0.63,0.166 0.943,0.42 0.377,0.306 0.526,0.571 0.672,1.049 0.166,0.548 0.248,0.898 0.407,1.468 0.083,0.295 0.13,0.469 0.284,0.734 0.16,0.275 0.32,0.383 0.524,0.629 l -0.011,0.023 c -0.298,0.327 -0.444,0.54 -0.777,0.834 -0.305,0.27 -0.56,0.403 -0.846,0.573 l -0.033,-0.01 z m 3.6,10.64 2.23,1.031 c 1.149,-0.635 2.474,-1.924 3.497,-3.919 0.881,-1.718 1.02,-2.65 1.364,-4.313 l -1.789,-0.581 -0.357,0.073 c -0.552,1.723 -0.693,2.704 -1.618,4.192 -0.802,1.291 -1.718,2.305 -2.649,3.034 z m 4.94,18.12 c 0.36,-0.493 0.513,-0.81 0.922,-1.264 0.456,-0.505 0.8,-0.702 1.312,-1.15 0.155,0.015 0.335,-0.012 0.48,0.071 -0.027,0.545 -0.055,0.95 -0.18,1.541 -0.1,0.48 -0.186,0.746 -0.346,1.21 -0.135,0.388 -0.159,0.639 -0.39,0.979 -0.154,0.226 -0.29,0.316 -0.476,0.518 -0.51,-0.742 -1.33,-1.297 -1.322,-1.906 z m 33.01,1.85 c 0.573,0.21 0.92,0.27 1.469,0.538 0.61,0.3 0.895,0.576 1.467,0.944 0.027,0.154 0.104,0.319 0.063,0.483 -0.531,0.122 -0.927,0.207 -1.53,0.251 a 8.39,8.39 0 0 1 -1.259,0 c -0.41,-0.023 -0.658,0.024 -1.048,-0.105 -0.26,-0.086 -0.384,-0.192 -0.63,-0.314 0.573,-0.696 0.88,-1.637 1.468,-1.797 z m -9.76,-2.04 c 0.573,0.21 0.92,0.27 1.468,0.538 0.611,0.3 0.896,0.576 1.468,0.944 0.027,0.154 0.104,0.319 0.063,0.482 -0.531,0.123 -0.927,0.208 -1.53,0.252 -0.49,0.036 -0.769,0.027 -1.259,0 -0.41,-0.023 -0.658,0.024 -1.048,-0.105 -0.26,-0.086 -0.384,-0.192 -0.63,-0.314 0.573,-0.696 0.88,-1.637 1.468,-1.797 z m -17.34,2.13 c 0.573,0.21 0.92,0.27 1.469,0.538 0.61,0.3 0.895,0.576 1.468,0.944 0.026,0.154 0.103,0.319 0.063,0.483 -0.532,0.122 -0.928,0.207 -1.531,0.251 -0.49,0.036 -0.769,0.027 -1.258,0 -0.41,-0.022 -0.659,0.024 -1.049,-0.105 -0.26,-0.086 -0.384,-0.191 -0.63,-0.314 0.573,-0.696 0.88,-1.637 1.468,-1.797 z m -8.98,-29.8 c -0.613,-0.278 -1.05,-1.045 -0.66,-1.594 0.155,-0.22 0.412,-0.174 0.565,-0.395 0.19,-0.273 0.142,-0.508 0.136,-0.839 -0.007,-0.377 -0.143,-0.573 -0.21,-0.944 -0.071,-0.405 -0.138,-0.636 -0.135,-1.048 0.005,-0.628 -0.038,-1.076 0.345,-1.573 0.245,-0.317 0.66,-0.592 0.825,-0.612 0.147,0.136 -0.057,0.502 -0.033,0.822 0.036,0.462 0.131,0.717 0.288,1.153 0.202,0.563 0.479,0.809 0.703,1.363 0.208,0.516 0.4,0.808 0.42,1.363 0.015,0.457 -0.025,0.736 -0.21,1.154 -0.165,0.37 -0.3,0.579 -0.61,0.839 -0.27,0.225 -0.458,0.325 -0.796,0.419 a 1.15,1.15 0 0 1 -0.628,-0.108 z"
           id="path275" />
      </g>
    </g>
    <use
       xlink:href="#b"
       y="36.591"
       id="use280"
       x="0"
       width="100%"
       height="100%"
       transform="translate(0,-9.999996)" />
    <g
       fill="none"
       stroke="#703d29"
       stroke-width="0.797"
       id="g284"
       transform="matrix(0.71428571,0,0,0.71428571,-111.98643,-0.51786)">
      <path
         d="m 412.66,249.25 h 82.179 v 82.023 H 412.66 Z m 90.94,0 h 82.179 v 82.023 H 503.6 Z m -90.63,153.16 c 0.233,1.477 0.76,4.012 2.163,6.609 1.477,2.332 0.932,2.269 4.276,6 1.645,1.838 4.213,3.411 6.227,4.495 2.021,1.089 3.517,1.623 6.842,2.496 6.517,1.71 11.09,1.817 16.574,1.598 4.278,-0.171 7.544,-0.697 10.249,-1.062 3.857,-0.518 6.73,-0.827 11.118,-1.01 2.133,-0.09 4.149,-0.11 6.142,0 2.405,0.133 4.781,0.505 7.308,1.01 5.442,1.089 10.962,3.188 10.962,3.188 l 0.014,-85.655 -82.193,-0.023 V 398.6 c 0,0 0.168,2.86 0.318,3.81 z m 172.51,-0.02 c -0.233,1.477 -0.76,4.012 -2.163,6.608 -1.477,2.333 -0.932,2.27 -4.275,6.001 -1.646,1.837 -4.214,3.411 -6.228,4.495 -2.021,1.089 -3.516,1.623 -6.841,2.495 -6.518,1.71 -11.091,1.818 -16.574,1.599 -4.278,-0.171 -7.544,-0.698 -10.25,-1.062 -3.857,-0.518 -6.73,-0.827 -11.117,-1.01 -2.133,-0.09 -4.15,-0.11 -6.142,0 -2.406,0.132 -4.782,0.505 -7.309,1.01 -5.442,1.089 -11.033,3.188 -11.033,3.188 l 0.057,-85.655 82.193,-0.023 v 58.543 c 0,0 -0.168,2.86 -0.318,3.81 z"
         id="path282" />
    </g>
  </g>
</svg>
