<?xml version="1.0" encoding="UTF-8" standalone="no"?>
<svg
   xmlns:dc="http://purl.org/dc/elements/1.1/"
   xmlns:cc="http://creativecommons.org/ns#"
   xmlns:rdf="http://www.w3.org/1999/02/22-rdf-syntax-ns#"
   xmlns:svg="http://www.w3.org/2000/svg"
   xmlns="http://www.w3.org/2000/svg"
   xmlns:sodipodi="http://sodipodi.sourceforge.net/DTD/sodipodi-0.dtd"
   xmlns:inkscape="http://www.inkscape.org/namespaces/inkscape"
   width="875"
   height="500"
   version="1.1"
   id="svg20"
   sodipodi:docname="Angola.svg"
   inkscape:version="1.0.2 (e86c8708, 2021-01-15)">
  <metadata
     id="metadata26">
    <rdf:RDF>
      <cc:Work
         rdf:about="">
        <dc:format>image/svg+xml</dc:format>
        <dc:type
           rdf:resource="http://purl.org/dc/dcmitype/StillImage" />
      </cc:Work>
    </rdf:RDF>
  </metadata>
  <defs
     id="defs24" />
  <sodipodi:namedview
     pagecolor="#ffffff"
     bordercolor="#666666"
     borderopacity="1"
     objecttolerance="10"
     gridtolerance="10"
     guidetolerance="10"
     inkscape:pageopacity="0"
     inkscape:pageshadow="2"
     inkscape:window-width="1344"
     inkscape:window-height="729"
     id="namedview22"
     showgrid="false"
     inkscape:snap-object-midpoints="false"
     inkscape:snap-intersection-paths="false"
     inkscape:snap-bbox="false"
     inkscape:snap-midpoints="false"
     inkscape:zoom="0.70249439"
     inkscape:cx="306.22851"
     inkscape:cy="284.98922"
     inkscape:window-x="0"
     inkscape:window-y="25"
     inkscape:window-maximized="1"
     inkscape:current-layer="svg20" />
  <path
     d="M 0,250 H 875 V 500 H 0 Z"
     id="path10"
     style="stroke-width:0.636468" />
  <path
     fill="#cc092f"
     d="M 0,0 H 875 V 250 H 0 Z"
     id="path12"
     style="stroke-width:0.900103" />
  <g
     id="g31"
     transform="translate(50.981858,-0.2107825)">
    <path
       d="m 325.715,171.4975 h 30.53667 l 9.26,-28.78083 9.50833,28.78083 h 30.53333 l -24.5275,18.27167 9.5075,29.27916 -25.02166,-17.77 -24.77584,17.77 9.50834,-29.27916 z"
       fill="#ffcb00"
       fill-rule="evenodd"
       id="path14"
       style="stroke-width:0.833333" />
    <path
       d="m 437.33417,328.92167 -24.0225,-18.775 c 24.2725,-19.77 40.04333,-50.05334 40.04333,-83.8375 0,-51.555 -36.78667,-94.85334 -85.3425,-105.11417 l 3.75333,-17.52083 c 6.75834,1.5025 14.68667,4.3475 21.19334,6.59666 l 6.25833,-10.506663 c 6.75,3.250003 14.265,6.502503 20.5175,10.506663 l -4.7525,11.265 c 6.25833,4.00667 13.8125,10.20917 18.01333,15.09334 l 9.3975,-7.34084 c 5.00667,5.50334 11.015,11.25584 15.26917,17.2675 l -8.50917,8.76 c 5.495,8.06667 7.61917,11.77917 11.67,21.0725 l 11.93917,-2.8 c 2.255,7.00667 5.67833,15.585 6.93333,22.84 l -11.305,4.44334 c 1.35,5.63833 3.09834,15.48666 2.98584,23.77083 -0.009,0.49833 -0.0467,1.06333 -0.0467,1.565 l 11.80583,1.68417 c -0.5,7.26 -0.7475,15.52083 -2.25333,22.7775 H 468.6208 c -1.75,7.50416 -4.00833,16.68333 -6.75833,23.6875 l 10.25667,6.01083 c -3.25084,6.50417 -6.5,14.26417 -10.75667,20.52167 l -11.26167,-4.7525 c -4.25833,6.25416 -9.00833,12.25833 -14.265,17.7675 l 7.255,9.50833 c -1.99833,1.75 -3.75166,3.50417 -5.75666,5.50833 m -52.80167,-2.25333 18.14333,10.93333 c -1.69166,1.5475 -6.76,4.17167 -8.10333,4.70334 l 2.96667,11.38833 c -7.00584,2.25667 -14.51667,5.50667 -22.27,7.01 L 370.765,349.44167 c -7.25833,1.5 -14.51333,2.5 -22.0225,2.5 l -1.50583,11.76166 c -7.005,-0.49833 -15.51417,0 -23.27334,-1.75166 v -11.75834 c -7.00916,-1.255 -13.76583,-3.005 -20.27,-5.26 l -5.75833,10.26834 c -6.00583,-2.50834 -14.01333,-5.5125 -20.52333,-9.51334 l 4.25666,-11.26166 c -5.25833,-2.75584 -10.0125,-6.2575 -14.51666,-9.76667 l 11.2625,-14.265 c 18.52166,14.76833 41.79416,23.52333 67.3225,23.52333 13.5175,0 26.77666,-2.2475 38.79583,-7.25"
       fill="#ffcb00"
       fill-rule="evenodd"
       id="path16"
       style="stroke-width:0.833333" />
    <path
       d="M 460.16,355.67583 340.385,264.525 l -1.09167,1.555 119.46667,91.31083 -7.09083,8.8725 -116.46084,-74.7 c -31.5325,-19.77166 -30.28083,-35.28666 -23.77333,-52.055 l 5.50667,-13.51416 c 3.00416,17.51916 21.01916,30.78666 39.79,45.54833 L 462.49333,352.79 Z m 30.07,27.16667 a 1.8583333,1.8583333 0 0 1 -1.85833,-1.865 1.8583333,1.8583333 0 0 1 1.85833,-1.86 c 1.03083,0 1.86667,0.83333 1.86667,1.86 a 1.865,1.865 0 0 1 -1.86667,1.86583 m -7.15833,-5.25666 a 1.8666667,1.8666667 0 0 1 -1.86417,-1.8625 1.8633333,1.8633333 0 1 1 1.86417,1.8625 m -7.325,-5.83834 c -1.02667,0 -1.86334,-0.83333 -1.86334,-1.85916 a 1.8633333,1.8633333 0 0 1 3.725,0 c 0,1.02583 -0.83333,1.85916 -1.86166,1.85916 m 24.62833,10.33334 -35.8875,-27.80417 -10.42833,13.43917 31.175,21.8625 c 2.50416,1.75 2.75,9.765 12.00583,11.01833 3.76083,0.49667 6.25667,-2.25833 6.25667,-2.25833 4.03333,-4.91 2.93416,-11.66917 -3.12167,-16.25834"
       fill="#ffcb00"
       fill-rule="evenodd"
       id="path18"
       style="stroke-width:0.833333" />
  </g>
</svg>
