<?xml version="1.0" encoding="UTF-8" standalone="no"?>
<svg
   xmlns:dc="http://purl.org/dc/elements/1.1/"
   xmlns:cc="http://creativecommons.org/ns#"
   xmlns:rdf="http://www.w3.org/1999/02/22-rdf-syntax-ns#"
   xmlns:svg="http://www.w3.org/2000/svg"
   xmlns="http://www.w3.org/2000/svg"
   xmlns:xlink="http://www.w3.org/1999/xlink"
   xmlns:sodipodi="http://sodipodi.sourceforge.net/DTD/sodipodi-0.dtd"
   xmlns:inkscape="http://www.inkscape.org/namespaces/inkscape"
   width="875"
   height="500"
   viewBox="0 0 6890.625 3937.5"
   version="1.1"
   id="svg41"
   sodipodi:docname="Australia.svg"
   inkscape:version="1.0.2 (e86c8708, 2021-01-15)">
  <metadata
     id="metadata45">
    <rdf:RDF>
      <cc:Work
         rdf:about="">
        <dc:format>image/svg+xml</dc:format>
        <dc:type
           rdf:resource="http://purl.org/dc/dcmitype/StillImage" />
      </cc:Work>
    </rdf:RDF>
  </metadata>
  <sodipodi:namedview
     pagecolor="#ffffff"
     bordercolor="#666666"
     borderopacity="1"
     objecttolerance="10"
     gridtolerance="10"
     guidetolerance="10"
     inkscape:pageopacity="0"
     inkscape:pageshadow="2"
     inkscape:window-width="1344"
     inkscape:window-height="729"
     id="namedview43"
     showgrid="false"
     inkscape:zoom="0.36698861"
     inkscape:cx="321.49326"
     inkscape:cy="211.24759"
     inkscape:window-x="0"
     inkscape:window-y="25"
     inkscape:window-maximized="1"
     inkscape:current-layer="svg41" />
  <defs
     id="defs19">
    <clipPath
       id="c1">
      <path
         d="M 0,0 H 6 V 3 H 0 Z"
         id="path10" />
    </clipPath>
    <clipPath
       id="c2">
      <path
         d="M 0,0 V 1.5 H 6 V 3 3 Z M 6,0 H 3 V 3 H 0 v 0 z"
         id="path13" />
    </clipPath>
    <path
       id="Star7"
       d="M 0,-360 69.421398,-144.15502 281.45933,-224.45633 155.98847,-35.603349 350.97405,80.107536 125.09304,99.758368 156.19815,324.34879 0,160 -156.19815,324.34879 -125.09304,99.758368 -350.97405,80.107536 -155.98847,-35.603349 -281.45933,-224.45633 l 212.037932,80.30131 z" />
    <path
       id="Star5"
       d="M 0,-210 54.859957,-75.508253 199.72187,-64.893569 88.765275,28.841586 123.4349,169.89357 0,93.333333 -123.4349,169.89357 -88.765275,28.841586 -199.72187,-64.893569 -54.859957,-75.508253 Z" />
    <use
       id="Cstar"
       xlink:href="#Star7"
       transform="scale(2.1)"
       x="0"
       y="0"
       width="100%"
       height="100%" />
  </defs>
  <g
     transform="scale(574.21875)"
     id="g31">
    <rect
       width="12"
       height="6.8571429"
       fill="#012169"
       id="rect21"
       x="0"
       y="0"
       style="stroke-width:1.06904" />
    <g
       id="g298">
      <path
         d="M 0,0 6,3 M 6,0 0,3"
         stroke="#ffffff"
         stroke-width="0.6"
         clip-path="url(#c1)"
         id="path23" />
      <path
         d="M 0,0 6,3 M 6,0 0,3"
         stroke="#e4002b"
         stroke-width="0.4"
         clip-path="url(#c2)"
         id="path25" />
      <path
         d="M 3,0 V 3 M 0,1.5 h 6"
         stroke="#ffffff"
         id="path27" />
      <path
         d="M 3,0 V 3 M 0,1.5 h 6"
         stroke="#e4002b"
         stroke-width="0.6"
         id="path29" />
    </g>
  </g>
  <g
     fill="#ffffff"
     id="g39"
     transform="matrix(0.68359375,0,0,0.68359375,0,258.27924)">
    <use
       id="Comwlth"
       xlink:href="#Cstar"
       x="2520"
       y="3780"
       width="100%"
       height="100%" />
    <use
       id="αCrucis"
       xlink:href="#Star7"
       x="7560"
       y="4200"
       width="100%"
       height="100%" />
    <use
       id="βCrucis"
       xlink:href="#Star7"
       x="6300"
       y="2205"
       width="100%"
       height="100%" />
    <use
       id="γCrucis"
       xlink:href="#Star7"
       x="7560"
       y="840"
       width="100%"
       height="100%" />
    <use
       id="δCrucis"
       xlink:href="#Star7"
       x="8680"
       y="1869"
       width="100%"
       height="100%" />
    <use
       id="εCrucis"
       xlink:href="#Star5"
       x="8064"
       y="2730"
       width="100%"
       height="100%" />
  </g>
</svg>
