<?xml version="1.0" encoding="UTF-8" standalone="no"?>
<svg
   xmlns:dc="http://purl.org/dc/elements/1.1/"
   xmlns:cc="http://creativecommons.org/ns#"
   xmlns:rdf="http://www.w3.org/1999/02/22-rdf-syntax-ns#"
   xmlns:svg="http://www.w3.org/2000/svg"
   xmlns="http://www.w3.org/2000/svg"
   xmlns:xlink="http://www.w3.org/1999/xlink"
   xmlns:sodipodi="http://sodipodi.sourceforge.net/DTD/sodipodi-0.dtd"
   xmlns:inkscape="http://www.inkscape.org/namespaces/inkscape"
   version="1.1"
   width="875"
   height="500"
   viewBox="0 0 14000 8000"
   id="svg19"
   sodipodi:docname="Barbados.svg"
   inkscape:version="1.0.2 (e86c8708, 2021-01-15)">
  <metadata
     id="metadata25">
    <rdf:RDF>
      <cc:Work
         rdf:about="">
        <dc:format>image/svg+xml</dc:format>
        <dc:type
           rdf:resource="http://purl.org/dc/dcmitype/StillImage" />
      </cc:Work>
    </rdf:RDF>
  </metadata>
  <defs
     id="defs23" />
  <sodipodi:namedview
     pagecolor="#ffffff"
     bordercolor="#666666"
     borderopacity="1"
     objecttolerance="10"
     gridtolerance="10"
     guidetolerance="10"
     inkscape:pageopacity="0"
     inkscape:pageshadow="2"
     inkscape:window-width="1344"
     inkscape:window-height="729"
     id="namedview21"
     showgrid="false"
     inkscape:snap-object-midpoints="true"
     inkscape:zoom="0.49363742"
     inkscape:cx="423.85817"
     inkscape:cy="404.55989"
     inkscape:window-x="0"
     inkscape:window-y="25"
     inkscape:window-maximized="1"
     inkscape:current-layer="svg19" />
  <title
     id="title10">Flag of Barbados</title>
  <rect
     width="14000"
     height="8000"
     fill="#00267f"
     id="rect12"
     x="0"
     y="0"
     style="stroke-width:0.540061" />
  <rect
     width="4666.6665"
     height="8000"
     fill="#ffc726"
     x="4666.6665"
     id="rect14"
     y="0"
     style="stroke-width:0.540061" />
  <g
     id="g29"
     transform="translate(590.05176,-0.0027)">
    <path
       id="h"
       fill="#000000"
       d="m 6409.9479,2405.6667 c -106.9473,291.6368 -215.9511,595.2023 -449.1783,827.6068 72.3951,-23.8575 199.0863,-45.2469 280.5307,-43.1902 v 1226.6021 l -346.3443,51.417 c -12.3401,-1.234 -16.4535,-20.5668 -16.4535,-46.8923 -33.3181,-380.8966 -123.4006,-700.9155 -227.0571,-1032.0405 -7.4041,-45.2469 -138.62,-218.0077 -37.4315,-187.5689 12.34,1.6453 147.6694,56.7643 126.2799,30.4388 -184.2782,-190.8596 -453.7029,-328.2457 -715.3122,-368.9679 -23.0348,-5.7586 -36.6089,5.7587 -16.0421,32.4956 347.1671,534.3246 637.5699,1164.9018 635.1018,1913.1209 134.9181,0 461.9297,-79.7991 597.259,-79.7991 0,0 0,865.4497 0,865.4497 h 170.7043 l 39.0768,-2417.0068 z"
       style="stroke-width:0.411335" />
    <use
       xlink:href="#h"
       transform="matrix(-1,0,0,1,12819.896,0)"
       id="use17"
       x="0"
       y="0"
       width="100%"
       height="100%" />
  </g>
</svg>
