<?xml version="1.0" encoding="UTF-8" standalone="no"?>
<svg
   xmlns:dc="http://purl.org/dc/elements/1.1/"
   xmlns:cc="http://creativecommons.org/ns#"
   xmlns:rdf="http://www.w3.org/1999/02/22-rdf-syntax-ns#"
   xmlns:svg="http://www.w3.org/2000/svg"
   xmlns="http://www.w3.org/2000/svg"
   xmlns:sodipodi="http://sodipodi.sourceforge.net/DTD/sodipodi-0.dtd"
   xmlns:inkscape="http://www.inkscape.org/namespaces/inkscape"
   enable-background="new 0 0 1000 500"
   height="500"
   viewBox="0 0 875 500"
   width="875"
   version="1.1"
   id="svg418"
   sodipodi:docname="Flag_of_Bermuda.svg"
   inkscape:version="1.0.2 (e86c8708, 2021-01-15)">
  <metadata
     id="metadata424">
    <rdf:RDF>
      <cc:Work
         rdf:about="">
        <dc:format>image/svg+xml</dc:format>
        <dc:type
           rdf:resource="http://purl.org/dc/dcmitype/StillImage" />
        <dc:title></dc:title>
      </cc:Work>
    </rdf:RDF>
  </metadata>
  <defs
     id="defs422" />
  <sodipodi:namedview
     pagecolor="#ffffff"
     bordercolor="#666666"
     borderopacity="1"
     objecttolerance="10"
     gridtolerance="10"
     guidetolerance="10"
     inkscape:pageopacity="0"
     inkscape:pageshadow="2"
     inkscape:window-width="1344"
     inkscape:window-height="812"
     id="namedview420"
     showgrid="false"
     fit-margin-top="0"
     fit-margin-left="0"
     fit-margin-right="0"
     fit-margin-bottom="0"
     inkscape:zoom="1.097"
     inkscape:cx="500"
     inkscape:cy="250"
     inkscape:window-x="0"
     inkscape:window-y="0"
     inkscape:window-maximized="1"
     inkscape:current-layer="svg418" />
  <path
     d="M 0,0 H 875 V 500 H 0 Z"
     fill="#c8102e"
     id="path10"
     style="stroke-width:0.935414" />
  <path
     d="M 0,0 H 437.5 V 218.75 H 0 Z"
     fill="#012169"
     id="path12"
     style="stroke-width:0.875" />
  <g
     transform="scale(7.2916664)"
     id="g24">
    <path
       d="M 0,0 V 3.354 L 53.292,30 H 60 V 26.646 L 6.708,0 Z M 60,0 V 3.354 L 6.708,30 H 0 V 26.646 L 53.292,0 Z"
       fill="#ffffff"
       id="path14" />
    <path
       d="M 25,0 V 30 H 35 V 0 Z M 0,10 V 20 H 60 V 10 Z"
       fill="#ffffff"
       id="path16" />
    <g
       fill="#c8102e"
       id="g22">
      <path
         d="m 0,12 v 6 H 60 V 12 Z M 27,0 v 30 h 6 V 0 Z"
         id="path18" />
      <path
         d="M 0,30 20,20 h 4.472 l -20,10 z M 0,0 20,10 H 15.528 L 0,2.236 Z m 35.528,10 20,-10 H 60 L 40,10 Z M 60,30 40,20 h 4.472 L 60,27.764 Z"
         id="path20" />
    </g>
  </g>
  <path
     d="m 757.19087,93.331 v 185.26988 c 0,49.48737 -98.92925,65.56637 -98.92925,65.56637 0,0 -98.92925,-16.079 -98.92925,-65.56637 V 93.331 Z"
     fill="#ffffff"
     id="path26"
     style="stroke-width:0.875" />
  <path
     d="m 757.19087,278.60088 c 0,49.48737 -98.92925,65.56637 -98.92925,65.56637 0,0 -98.92925,-16.079 -98.92925,-65.56637 0,0 0,-3.98563 2.01338,-6.25188 0,0 -1.09025,8.23112 5.23337,14.45675 0,0 -4.96037,-8.78237 -0.10937,-17.41337 0,0 -1.799,11.10462 5.124,17.48162 0,0 -3.81588,-9.07113 0.49088,-19.18613 0,0 -2.12625,16.54713 5.39699,19.84588 0,0 2.07113,-9.51038 -0.92662,-15.61263 0,0 5.17913,2.08863 4.90613,15.88738 0,0 1.63537,-2.03438 2.07112,-11.98488 0,0 0.21788,11.37938 4.14313,14.01838 0,0 1.19962,-1.15413 -0.43576,-6.32188 -1.63537,-5.16775 0.70875,-6.98162 1.09025,-6.87225 0,0 -0.86012,5.71725 3.93138,10.00563 0,0 -2.07725,-8.96088 0.812,-10.17013 0,0 -0.59937,7.58625 5.397,9.29075 0,0 0.43575,-2.19887 -0.87237,-4.6725 0,0 -1.1445,-2.93387 -0.273,-5.17825 0,0 1.90837,6.88188 4.52462,8.03688 0,0 -1.58112,-4.03375 -0.10937,-8.03688 0,0 0.32725,5.72775 5.45125,8.09113 0,0 -3.37575,-4.43363 -2.04225,-9.30913 l 32.95162,1.61263 17.06338,0.81375 51.18925,-3.61725 8.83137,-7.58625 c 0,0 3.48862,4.83787 -2.01687,12.47925 0,0 5.45125,-0.98963 7.196,-9.51038 0,0 2.23475,4.72763 -0.81813,9.9505 0,0 6.0515,-6.04712 6.923,-12.91937 0,0 2.34413,6.65175 -3.38012,13.79875 0,0 5.124,-1.7045 7.30537,-9.29075 0,0 1.74475,4.56925 -3.2165,11.02587 0,0 9.26713,-4.92362 8.995,-15.09375 0,0 3.87013,5.607 -0.54512,13.3035 0,0 4.7425,-4.23325 5.17912,-10.55512 0,0 2.61713,2.85862 -0.21787,10.71962 0,0 5.7785,-5.4425 6.65087,-11.32512 0,0 1.25388,5.4425 -3.70737,12.31387 0,0 3.38012,-0.82425 6.59662,-7.53112 0,0 0.87237,2.639 -2.07112,7.47687 0,0 3.16225,-0.5495 5.28762,-6.59662 0,0 0.3815,3.62862 -0.54512,6.87225 0,0 2.4535,-1.59425 2.99862,-8.4665 0,0 1.37025,2.254 1.39388,5.0575 0.0219,2.80437 -0.002,0.96337 -0.002,0.96338 z"
     fill="#2f8f22"
     id="path28"
     style="stroke-width:0.875" />
  <g
     stroke="#000000"
     id="g36"
     transform="scale(0.875)">
    <path
       d="m 807.139,195.999 c 0,0 -3.929,0.668 -8.975,-0.87 -5.046,-1.537 -7.086,-0.913 -8.652,0 0,0 2.048,-4.055 -2.936,-7.257 0,0 1.62,4.094 -0.623,6.006 0,0 -0.997,0.938 -2.181,-0.475 0,0 -1.744,-1.791 -3.582,-3.173 0,0 4.237,-1.476 3.458,-5.78 -0.779,-4.304 -3.084,-4.869 -4.33,-5.403 0,0 0.436,1.948 0,3.267 0,0 -4.61,-2.576 1.651,-6.22 6.261,-3.644 5.109,-5.78 3.987,-7.634 -1.121,-1.853 -3.52,-3.895 -4.704,-4.618 0,0 1.246,1.948 1.028,3.613 -0.218,1.665 -3.053,2.733 -2.492,-0.188 0.561,-2.922 -0.031,-2.419 -0.094,-5.529 0,0 5.576,1.885 7.757,-3.55 0,0 2.149,-5.623 -4.891,-8.419 0,0 1.713,2.293 0.872,4.021 0,0 -1.495,2.827 -3.271,0.534 -1.776,-2.293 -2.897,-2.733 -2.71,-5.435 0,0 6.386,0.88 4.642,-6.063 0,0 -1.028,4.618 -9.314,-1.602 0,0 5.389,-5.529 3.302,-9.99 0,0 -0.654,-2.042 -6.511,-0.848 0,0 5.078,-3.204 2.928,-5.937 0,0 -1.09,-1.822 -5.825,0.565 0,0 1.838,-3.173 -2.804,-6.597 0,0 -3.115,1.634 -4.766,3.141 0,0 -3.177,-4.021 -5.202,-5.623 0,0 -3.676,1.414 -4.61,5.623 0,0 -1.713,-2.042 -5.607,-2.984 0,0 -1.869,3.456 0.561,6.471 0,0 -1.807,-0.063 -5.109,-1.508 0,0 -3.769,-1.791 -3.209,1.445 0.56,3.236 0.841,3.958 1.589,5.466 0,0 -8.458,-1.964 -8.099,2.607 0.249,3.173 1.433,5.906 4.05,8.199 0,0 -4.735,6.189 -8.785,1.539 0,0 -1.402,1.508 1.62,5.466 0,0 3.022,3.33 0.53,5.435 0,0 -3.333,2.67 -4.953,-2.513 0,0 -5.389,5.372 0.966,9.487 0,0 4.081,2.325 8.255,-1.257 0,0 -1.277,10.304 -5.265,8.325 0,0 -2.399,-1.759 1.9,-3.864 0,0 -6.199,-0.785 -7.196,5.215 0,0 -0.765,4.774 4.641,6.503 0,0 4.174,1.508 -0.156,4.744 0,0 -3.053,2.325 -1.059,5.78 0,0 2.399,3.801 -3.676,4.178 0,0 -3.302,-0.031 -4.486,-0.471 0,0 -1.332,2.477 -0.401,5.307 0,0 -3.025,-2.254 -9.91,0.24 -6.884,2.495 -6.355,0.736 -6.916,1.49 -0.561,0.754 -1.9,3.298 -1.9,3.298 0,0 3.614,4.398 3.676,4.304 0.062,-0.094 -0.685,5.026 -0.685,5.026 l 1.776,0.848 14.174,-6.314 14.392,-7.5 11.571,0.709 7.338,1.747 9.639,0.702 6.903,-3.682 h 9.999 l 10.998,5.48 12.552,7.489 6.542,1.147 5.04,-0.269 v -10.166 z"
       fill="#c8102e"
       stroke-linejoin="round"
       stroke-width="0.831"
       id="path30" />
    <path
       d="m 692.974,207.886 c 0,0 5.483,2.796 7.772,-0.597 0,0 2.991,-5.702 -3.575,-7.681 0,0 3.575,-4.288 -0.257,-8.246 0,0 -2.009,-2.12 -5.514,-0.565 0,0 -1.449,-3.016 -4.86,-2.922 0,0 -2.99,-0.047 -4.018,3.251 0,0 -4.112,-1.696 -6.402,0.754 0,0 -3.785,4.241 1.495,7.587 l 3.8,0.346 3.738,-1.728 4.174,1.194 c 0.003,-0.001 -1.072,4.225 3.647,8.607 z"
       fill="#c8102e"
       stroke-linejoin="round"
       stroke-width="0.831"
       id="path32" />
    <path
       d="m 815.359,197.859 c 6.605,-0.622 8.937,4.952 8.937,4.952 3.462,8.122 -3.89,12.458 -3.89,12.458 0.561,1.822 0.623,4.209 0.623,4.209 10.342,1.257 8.534,12.88 8.534,12.88 l -3.425,-2.827 c -5.981,-2.325 -12.149,2.764 -16.572,11.309 -4.423,8.545 -2.305,12.566 -1.558,22.681 0.748,10.115 17.195,16.147 17.195,16.147 0,0 -7.788,20.042 -12.834,32.922 -5.046,12.88 -15.576,7.539 -18.628,4.826 -3.053,-2.713 -3.816,-1.206 -5.358,0 -1.542,1.206 6.916,7.802 -8.473,14.022 -15.389,6.22 -18.068,10.995 -20.622,12.566 -2.554,1.571 -13.208,0.503 -14.267,-0.817 -1.059,-1.319 -0.436,-1.319 -4.423,-3.77 -3.987,-2.45 -10.716,-4.586 -18.068,-8.168 -7.352,-3.581 -7.165,-8.168 -7.102,-9.11 0.062,-0.942 2.554,-8.607 -6.056,-2.513 -8.61,6.094 -15.937,-2.902 -15.937,-2.902 -1.682,-2.211 -8.847,-21.412 -8.847,-21.412 -1.931,-7.162 -5.732,-15.519 -5.732,-15.519 0.187,-0.063 -0.374,0.88 5.981,-2.764 6.355,-3.644 9.201,-9.707 11.401,-15.707 2.2,-6 0.062,-16.272 -0.748,-18.346 -0.81,-2.073 -5.545,-11.579 -11.408,-13.571 -5.863,-1.992 -9.795,2.953 -9.795,2.953 0,0 -1.809,-11.623 8.534,-12.88 0,0 0.062,-2.387 0.623,-4.209 0,0 -7.352,-4.335 -3.89,-12.458 0,0 2.332,-5.574 8.937,-4.952 l -1.598,3.022 c 0,0 -1.663,16.587 22.616,5.466 24.279,-11.121 23.55,-13.194 37.381,-6.22 l 10.093,-0.188 c 0,0 14.579,-6.744 19.251,-3.843 4.673,2.901 21.494,12.325 21.494,12.325 0,0 16.261,6.098 19.438,-5.15 z"
       fill="#64b4d1"
       stroke-width="0.623"
       id="path34" />
  </g>
  <path
     d="m 649.52125,236.0505 c 0,0 -0.7385,-4.45463 -1.51463,-7.3395 0,0 -1.57675,-4.52725 1.11301,-7.70525 l 3.33549,-3.83863 c 0,0 2.07288,-2.78862 4.63926,-3.1675 0,0 2.56637,-0.0761 2.81137,-0.5985 0.245,-0.52237 3.05287,-5.14237 9.73087,0 0,0 2.12625,-3.40812 5.39701,-3.98562 0,0 3.53324,-1.07188 5.24212,1.56712 0,0 3.97075,-3.01087 7.378,1.83488 0,0 4.71537,-2.65213 8.14975,2.6215 0,0 4.66112,-2.27325 7.52325,2.5725 2.86212,4.84575 2.28987,6.825 2.28987,6.825 l 2.1245,7.6965 7.525,9.29075 -17.49912,6.59662 h -7.84963 l -15.70012,4.20525 -27.88363,2.14375 -7.76825,-9.15337 z"
     fill="#ffffff"
     stroke="#012169"
     stroke-miterlimit="10"
     stroke-width="0.726862"
     id="path38" />
  <g
     stroke="#000000"
     id="g50"
     transform="scale(0.875)">
    <path
       d="m 715.374,322.736 c 0,0 -4.766,0.283 -7.196,1.508 -2.43,1.225 -4.299,2.545 -7.102,4.335 0,0 -1.308,1.743 -6.822,0.683 0,0 -9.532,-2.285 -9.532,5.16 0,0 -11.401,0.942 -6.729,10.932 0,0 3.177,7.822 9.719,2.262 0,0 -4.205,6.031 3.925,8.388 0,0 5.794,1.414 7.476,-4.524 0,0 0.935,-2.356 -1.308,-5.278 0,0 2.804,-0.565 4.766,-3.581 0,0 -5.981,7.559 0.561,10.282 0,0 8.221,2.063 8.69,-6.513 0,0 -0.671,-3.958 2.515,-5.372 0,0 6.551,-1.508 9.541,-8.812 10e-4,10e-4 -9.419,-5.016 -8.504,-9.47 z"
       fill="#c8102e"
       stroke-linejoin="round"
       stroke-width="0.831"
       id="path40" />
    <path
       d="m 696.127,247.568 c 0,0 -7.352,-3.386 -10.841,0 0,0 -4.86,-3.009 -9.968,0 0,0 -4.86,3.176 -8.224,6.674 0,0 -2.367,2.027 -1.495,8.417 0,0 1.246,4.505 0.498,6.767 0,0 -1.62,-0.321 -4.86,3.518 0,0 -4.112,4.762 -7.725,0.559 0,0 1.121,5.85 7.912,4.907 0,0 -3.302,2.576 -0.436,9.236 0,0 2.118,4.712 -1.246,10.618 0,0 5.919,-2.387 5.669,-9.361 0,0 -0.498,-4.712 1.246,-8.042 0,0 -1.744,3.028 2.305,9.487 0,0 3.115,4.649 0.561,9.487 0,0 5.856,-2.136 5.296,-9.236 -0.56,-7.1 -4.112,-4.147 -1.807,-10.681 0,0 0.561,3.347 2.305,5.035 1.744,1.688 3.987,4.515 3.053,9.227 0,0 3.489,-4.335 2.679,-8.796 -0.81,-4.461 -1.682,-5.81 -1.682,-5.81 l 11.027,-6.253 5.483,-9.927 z"
       fill="#c8102e"
       stroke-linejoin="round"
       stroke-width="0.831"
       id="path42" />
    <g
       fill="none"
       stroke-miterlimit="10"
       stroke-width="0.8307"
       id="g48">
      <path
         d="m 679.368,275.583 c 0,0 -4.548,-0.314 -5.296,-3.833"
         id="path44" />
      <path
         d="m 666.097,269.426 c 0,0 1.585,-0.063 3.018,1.382 0,0 1.094,1.634 2.652,1.445"
         id="path46" />
    </g>
  </g>
  <path
     d="m 600.334,229.42588 c 0,0 -2.07113,0 -3.2165,-0.98963 0,0 -1.19963,-0.82425 -1.90838,0.49438 0,0 -1.09025,1.869 0.92663,2.69412 0,0 2.50775,1.26438 -1.47175,3.79313 0,0 4.7425,-1.7045 2.835,-4.01275 0,0 -2.07113,-1.48401 -1.30813,-2.03438 0,0 0.21788,-0.44012 1.036,0.11025 0.81813,0.5495 2.4535,0.32987 3.10713,-0.0551 z"
     id="path52"
     style="stroke-width:0.875" />
  <path
     d="m 665.357,239.9285 -15.94075,-55.04888 -0.58363,0.15663 14.08575,55.7165 z"
     fill="#784421"
     stroke="#000000"
     stroke-width="0.545125"
     id="path54" />
  <path
     d="m 609.8435,301.68688 c 0,0 -3.76162,-2.11313 -6.86875,0.36049 0,0 0.31763,-1.37462 2.69412,-1.97925 0,0 1.28625,-3.62862 4.88338,-3.29874 0,0 -1.47175,1.75874 -3.43437,3.24362 0,0 2.072,0.21437 2.72562,1.67388 z"
     id="path56"
     style="stroke-width:0.875" />
  <path
     d="m 596.59688,310.43075 c 0,0 -5.96925,-3.752 -2.73963,-10.06075 0,0 0.94063,-1.81387 2.73963,-1.44287 0,0 3.72049,1.15412 0.81812,6.30875 -8.7e-4,0 -1.47263,3.33987 -0.81812,5.19487 z"
     fill="#64b4d1"
     stroke="#012169"
     stroke-miterlimit="2.613"
     stroke-width="0.545125"
     id="path58" />
  <path
     d="m 608.699,316.3685 c 0,0 -8.50413,-3.87537 -5.88788,-10.47288 0,0 0.8085,-2.22687 2.69413,-2.06149 0,0 3.2795,0.16449 2.62325,4.53512 0,0 -0.9835,4.28838 0.5705,7.99925 z"
     fill="#64b4d1"
     stroke="#012169"
     stroke-miterlimit="2.613"
     stroke-width="0.545125"
     id="path60" />
  <path
     d="m 606.9,291.74862 c 0,0 -2.555,1.88738 -3.5945,3.15175 0,0 -1.0395,-1.2915 -2.40187,-2.0755 0,0 1.56887,-0.20649 2.40187,0.49963 0,0 1.30463,-1.26437 3.5945,-1.57588 z"
     id="path62"
     style="stroke-width:0.875" />
  <path
     d="m 614.4635,314.71912 c 0,0 6.664,-1.6905 5.43813,-8.57587 0,0 -0.65451,-3.01 -3.4755,-2.59788 0,0 -3.39938,0.86801 -1.18563,5.24475 0,0 1.30813,3.12551 -0.777,5.929 z"
     fill="#64b4d1"
     stroke="#012169"
     stroke-miterlimit="2.613"
     stroke-width="0.545125"
     id="path64" />
  <path
     d="m 644.574,169.05087 c 0,0 4.29275,1.316 6.62375,2.26625 0,0 6.21425,2.80351 14.10587,0 0,0 5.33663,-2.11312 6.04801,-2.26625 l -4.08625,6.22475 -0.20475,3.21563 2.55675,3.752 c 0,0 -1.53388,0.61862 -6.11363,-2.18575 0,0 -5.06975,-3.9165 -11.12125,0 0,0 -3.31187,2.2435 -6.09175,2.18575 l 3.92525,-4.38288 -1.51288,-3.94624 z"
     fill="#f5ce00"
     stroke="#000000"
     stroke-miterlimit="2.613"
     stroke-width="0.726862"
     id="path66" />
  <path
     d="m 617.0395,306.49325 c 0,0 0.245,-0.32987 -0.0411,-0.47425 0,0 -0.28612,-0.12338 -0.49087,0.27825 0,0 -0.69475,1.1025 -0.10675,2.61275 0,0 0.5565,1.0465 0.28612,2.13937 0,0 -0.0367,0.30888 0.20913,0.35088 0,0 0.23538,-0.0823 0.28087,-0.30887 0,0 0.3325,-1.06663 -0.23974,-2.1105 8.7e-4,-8.8e-4 -0.69475,-1.62138 0.10237,-2.48763 z"
     fill="#ffffff"
     id="path68"
     style="stroke-width:0.875" />
  <g
     stroke="#000000"
     id="g80"
     transform="scale(0.875)">
    <path
       d="m 810.687,207.886 c 0,0 -5.483,2.796 -7.772,-0.597 0,0 -2.99,-5.702 3.575,-7.681 0,0 -3.575,-4.288 0.257,-8.246 0,0 2.009,-2.12 5.514,-0.565 0,0 1.449,-3.016 4.86,-2.922 0,0 2.99,-0.047 4.018,3.251 0,0 4.112,-1.696 6.401,0.754 0,0 3.785,4.241 -1.495,7.587 l -3.8,0.346 -3.738,-1.728 -4.174,1.194 c -0.002,-0.001 1.073,4.225 -3.646,8.607 z"
       fill="#c8102e"
       stroke-linejoin="round"
       stroke-width="0.831"
       id="path70" />
    <path
       d="m 767.262,203.457 c 0,0 -0.138,1.131 -1.26,1.257 0,0 -1.17,0.377 -1.852,-1.08 0,0 -0.079,-0.33 -0.097,-0.491 -0.078,-0.681 -0.311,-2.639 1.807,-4.241 0,0 3.458,-2.827 10.062,0.597 0,0 5.233,2.513 8.847,4.649 0,0 9.345,5.026 10.467,5.403 0,0 4.112,2.073 10.404,2.325 0,0 8.598,0.628 12.242,-5.403 0,0 2.772,-4.586 0,-7.508 0,0 -1.121,-1.319 -2.965,-1.076 -0.774,0.102 -1.629,0.458 -2.455,1.422 0,0 -1.339,1.948 0.218,3.393 0,0 2.025,1.241 2.741,-1.382 0,0 0.031,-0.188 0.093,0.047 0.04,0.152 0.498,2.152 -0.576,3.848 0,0 -5.187,7.849 -19.454,-0.285 l -18.815,-10.553 c 0,0 -9.439,-4.838 -15.077,2.733 0,0 -4.548,6.283 1.308,10.398 0,0 4.361,2.607 7.102,-1.539 0,0 2.274,-4.084 -1.308,-5.874 0,0 -3.146,-1.476 -4.392,1.665 -1.246,3.141 2.43,3.958 2.772,1.728 0.001,-0.002 0.095,-0.536 0.188,-0.033 z"
       fill="#f5ce00"
       stroke-miterlimit="2.613"
       stroke-width="0.8307"
       id="path72" />
    <g
       stroke-width="0.623"
       id="g78">
      <path
         d="m 692.68,235.844 c 0,0 0,-9.801 0,-11.78 0,-0.925 0.007,-1.696 1.408,-2.827 1.401,-1.131 2.897,-2.922 5.046,2.168 0,0 4.205,-4.429 5.607,-5.089 0,0 2.43,-2.073 4.112,0.942 0,0 2.243,-3.393 4.018,-4.241 0,0 4.205,-2.733 4.392,5.466 l 3.271,-3.016 c 0,0 2.523,-2.073 5.327,0.754 0,0 4.766,4.618 5.42,5.937 0,0 1.052,1.429 1.133,3.683 0,0 -0.012,2.537 1.296,3.95 0,0 1.494,1.319 2.943,1.602 0,0 3.411,0.094 4.626,3.298 0,0 0.561,-0.555 2.243,14.801 v 27.985 l -18.878,22.524 -30.279,-8.67 -12.055,-4.995 -2.71,-8.859 11.682,-7.539 6.355,-17.152 -2.056,-12.063 z"
         fill="#e4cb5e"
         stroke-miterlimit="2.613"
         id="path74" />
      <path
         d="m 776.109,250.703 1.433,-2.136 3.427,-2.639 c 0,0 5.233,13.734 5.483,16.731 v 4.262 c 0,0 7.85,2.003 9.221,14.066 l -6.479,11.937 -10.155,-5.655 -2.928,-2.136 v -34.43 z"
         fill="#784421"
         id="path76" />
    </g>
  </g>
  <path
     d="m 594.9405,301.87587 c 0,0 0.32725,-0.43312 0.10237,-0.61862 0,0 -0.1435,-0.2065 -0.53112,0.28875 0,0 -1.806,2.01862 -0.36838,5.12312 0,0 0.16363,0.44275 0.44975,0.29838 0,0 0.245,-0.12338 0.0201,-0.49438 8.7e-4,0 -1.28712,-2.55675 0.32725,-4.59725 z"
     fill="#ffffff"
     id="path82"
     style="stroke-width:0.875" />
  <g
     stroke="#000000"
     id="g108"
     transform="scale(0.875)">
    <path
       d="m 710.546,342.684 c 0,0 0.311,-1.068 -0.436,-2.199 0,0 -0.498,-0.817 -0.312,-1.885"
       fill="none"
       stroke-miterlimit="10"
       stroke-width="0.8307"
       id="path84" />
    <path
       d="m 717.265,220.483 c 0,0 0.028,2.946 0.869,5.114 0.841,2.168 3.681,5.917 3.868,7.943"
       fill="none"
       stroke-miterlimit="10"
       stroke-width="0.623"
       id="path86" />
    <path
       d="m 788.476,322.736 c 0,0 4.766,0.283 7.196,1.508 2.43,1.225 4.299,2.545 7.102,4.335 0,0 1.308,1.743 6.822,0.683 0,0 9.532,-2.285 9.532,5.16 0,0 11.401,0.942 6.729,10.932 0,0 -3.177,7.822 -9.719,2.262 0,0 4.205,6.031 -3.925,8.388 0,0 -5.794,1.414 -7.476,-4.524 0,0 -0.935,-2.356 1.308,-5.278 0,0 -2.804,-0.565 -4.766,-3.581 0,0 5.981,7.559 -0.561,10.282 0,0 -8.221,2.063 -8.69,-6.513 0,0 0.671,-3.958 -2.515,-5.372 0,0 -6.551,-1.508 -9.541,-8.812 0,10e-4 9.419,-5.016 8.504,-9.47 z"
       fill="#c8102e"
       stroke-linejoin="round"
       stroke-width="0.831"
       id="path88" />
    <g
       stroke-width="0.623"
       id="g106">
      <g
         fill="none"
         stroke-miterlimit="10"
         id="g96">
        <path
           d="m 713.505,233.536 7.778,62.78"
           id="path90" />
        <path
           d="m 715.302,233.4 8.723,58.519"
           id="path92" />
        <path
           d="m 716.937,233.128 10.047,58.037"
           id="path94" />
      </g>
      <path
         d="m 735.613,285.227 -18.219,-62.913 -0.667,0.179 16.099,63.677 z"
         fill="#784421"
         id="path98" />
      <g
         fill="none"
         stroke-miterlimit="10"
         id="g104">
        <path
           d="m 722.511,230.823 18.398,46.488"
           id="path100" />
        <path
           d="m 721.283,231.575 17.756,48.563"
           id="path102" />
      </g>
    </g>
  </g>
  <path
     d="m 605.619,312.46512 c 0,0 -1.86813,-1.79112 -1.60825,-5.00237 0,0 0.10938,-0.68688 -0.23363,-0.78225 0,0 -0.36575,-0.15225 -0.42,0.64487 0,0 -0.518,3.35388 1.74475,5.27713 0,0 0.15401,0.1925 0.40425,0.13738 -8.7e-4,0 0.26688,-0.0595 0.11288,-0.27476 z"
     fill="#ffffff"
     id="path110"
     style="stroke-width:0.875" />
  <g
     stroke="#000000"
     id="g132"
     transform="scale(0.875)">
    <path
       d="m 723.341,230.192 18.969,42.407"
       fill="none"
       stroke-miterlimit="10"
       stroke-width="0.623"
       id="path112" />
    <path
       d="m 718.153,232.827 11.635,57.112"
       fill="none"
       stroke-miterlimit="10"
       stroke-width="0.623"
       id="path114" />
    <path
       d="m 813.327,275.146 c -8.31,-4.715 -10.132,-15.176 -10.132,-15.176 -2.009,-10.414 2.056,-18.66 2.056,-18.66 5.374,-11.356 14.582,-13.469 14.582,-13.469 0,0 -9.021,6.259 -11.544,14.694 0,0 -1.963,7.115 -0.841,14.136 1.121,7.021 0.701,5.23 2.43,10.649 z"
       fill="#f5ce00"
       stroke-miterlimit="2.613"
       stroke-width="0.8307"
       id="path116" />
    <path
       d="m 777.542,248.567 -34.917,11.025 -1.904,15.554 c -8.286,12.003 -25.124,14.133 -25.124,14.133 l 13.1,13.948 25.17,5.278 13.208,-10.178 11.962,-11.058 c -1.246,-5.906 -0.561,-14.67 -0.561,-14.67 0,-1.476 0.561,-4.932 0.561,-4.932 0,0 -2.056,-14.199 -1.495,-19.1 z"
       fill="#784421"
       stroke-width="0.3804"
       id="path118" />
    <g
       fill="none"
       stroke-miterlimit="10"
       stroke-width="0.623"
       id="g128">
      <path
         d="m 741.2,271.238 c 0,0 22.997,-7.181 36.71,-12.947"
         id="path120" />
      <path
         d="m 730.161,284.347 c 0,0 28.69,-5.183 48.876,-16.68 l 7.414,-5.008"
         id="path122" />
      <path
         d="m 786.451,266.921 -7.975,5.678 c 0,0 -32.086,14.796 -56.516,15.191"
         id="path124" />
      <path
         d="m 778.47,283.113 c 0,0 -24.665,12.701 -38.808,12.89"
         id="path126" />
    </g>
    <path
       d="m 807.883,247.568 c 0,0 7.352,-3.386 10.841,0 0,0 4.86,-3.009 9.968,0 0,0 4.86,3.176 8.224,6.674 0,0 2.367,2.027 1.495,8.417 0,0 -1.246,4.505 -0.498,6.767 0,0 1.62,-0.321 4.86,3.518 0,0 4.112,4.762 7.725,0.559 0,0 -1.121,5.85 -7.912,4.907 0,0 3.302,2.576 0.436,9.236 0,0 -2.118,4.712 1.246,10.618 0,0 -5.919,-2.387 -5.669,-9.361 0,0 0.498,-4.712 -1.246,-8.042 0,0 1.744,3.028 -2.305,9.487 0,0 -3.115,4.649 -0.561,9.487 0,0 -5.856,-2.136 -5.296,-9.236 0.561,-7.1 4.112,-4.147 1.807,-10.681 0,0 -0.561,3.346 -2.305,5.035 -1.744,1.688 -3.987,4.515 -3.053,9.227 0,0 -3.489,-4.335 -2.679,-8.796 0.81,-4.461 1.682,-5.81 1.682,-5.81 l -11.027,-6.253 -5.483,-9.927 z"
       fill="#c8102e"
       stroke-linejoin="round"
       stroke-width="0.831"
       id="path130" />
  </g>
  <path
     d="m 597.597,251.38837 c 0,0 0.8995,-4.26125 4.98837,-2.58475 0,0 1.39038,-6.98162 8.83138,-7.22837 7.441,-0.24763 7.84962,7.25637 7.84962,7.75162 0,0 2.18576,-3.22175 5.83538,-2.84812 0,0 6.29212,-0.371 3.94887,9.73175 l 1.19001,1.267 c 0,0 4.80724,-11.28488 14.70174,-8.316 0,0 9.64863,2.94087 3.35301,12.28675 0,0 4.76175,6.1845 8.79987,5.607 4.03812,-0.5775 7.63612,-1.81388 11.64275,-8.90575 4.00663,-7.09188 13.32887,-8.16375 15.70013,-7.75163 2.37125,0.41213 4.24462,1.95213 4.63137,3.62863 0,0 4.93587,-16.47363 22.68,-13.88538 l 7.11375,3.57788 2.6985,1.23725 -4.02238,11.35225 -9.79912,22.14975 -7.43925,2.28725 -7.76825,-4.45288 -2.6985,1.44638 -0.2205,6.63425 -10.24625,7.37537 -7.11375,2.93213 -7.84962,5.36025 -1.82613,4.7915 c 0,0 -4.33562,-1.82613 -9.22863,0 l -1.61962,-3.96638 -4.57887,-4.37062 -17.78875,-8.39125 -3.21388,-10.36525 -3.24712,-1.44638 -3.63475,4.16325 -5.31475,0.6195 -7.93188,-5.36025 z"
     fill="#ffffff"
     stroke="#012169"
     stroke-miterlimit="10"
     stroke-width="0.726862"
     id="path134" />
  <g
     stroke="#000000"
     id="g198"
     transform="scale(0.875)">
    <g
       stroke-miterlimit="2.613"
       id="g172">
      <g
         stroke-width="0.8307"
         id="g164">
        <path
           d="m 771.499,195.132 c 0,0 -7.759,-0.345 -7.478,7.697"
           fill="none"
           id="path136" />
        <path
           d="m 822.54,280.562 c -13.504,-4.147 -17.195,-18.66 -17.195,-18.66 -2.757,-10.885 1.682,-20.403 1.682,-20.403 6.168,-14.485 16.604,-14.482 16.604,-14.482 5.233,-0.141 5.861,4.335 5.861,4.335 0.494,3.173 -1.733,4.319 -1.733,4.319 -3.582,1.948 -5.841,-0.691 -5.841,-0.691 -1.495,-1.948 -0.343,-3.675 -0.343,-3.675 0.919,-1.288 2.679,-0.723 2.679,-0.723 1.394,0.432 1.246,2.175 1.246,2.175 0.008,0.047 0.039,0.047 0.039,0.047 0.062,-0.016 0.039,-0.039 0.039,-0.039 0,0 0.311,-2.136 -1.776,-2.356 0,0 -4.065,-0.88 -8.831,5.058 0,0 -6.276,8.011 -6.261,18.377 0,0 -0.794,19.461 19.485,24.503 0,0 -2.196,3.157 -6.074,14.56 0,0 -4.392,14.655 -8.585,22.578 0,0 -5.574,11.302 -18.003,6.684 0,0 -7.401,-3.251 -7.383,-8.623 0,0 -0.514,-4.901 3.925,-5.278 0,0 4.346,-0.33 4.299,3.393 0,0 0.117,4.029 -4.626,3.11 0,0 -1.659,-0.353 -1.355,-1.979 0,0 0.265,-1.461 2.266,-0.825 0,0 0.062,0.008 0.07,-0.024 0,0 0.023,-0.035 -0.047,-0.055 0,0 -0.774,-0.346 -1.592,-0.06 0,0 -0.733,0.244 -0.791,1.387 0,0 -0.047,0.919 0.935,1.437 0,0 1.192,0.424 2.126,0.33 0,0 1.257,2.537 4.101,3.397 3.959,1.197 7.22,0.044 9.216,-1.548 2.171,-1.732 3.575,-4.759 3.995,-5.501 0.42,-0.742 4.065,-8.906 6.806,-17.686 0,0 2.399,-7.571 4.314,-11.529 z"
           fill="#f5ce00"
           id="path138" />
        <path
           d="m 784.434,317.458 c 0,0 2.523,-0.342 2.523,1.908 0,0 -0.154,3.287 -4.159,2.568 0,0 -3.948,-0.864 -2.547,-5.278 0,0 0.935,-3.11 4.673,-2.662 0,0 3.621,0.165 5.21,5.113 0,0 1.215,4.171 -0.864,7.751 -2.321,3.996 -8.193,6.621 -11.027,7.783 0,0 -11.355,4.461 -14.742,7.013 0,0 -5.194,3.856 -2.897,7.445 0,0 0.888,1.367 2.22,1.367 0,0 1.519,0.071 1.776,-1.484 0,0 0.008,-0.031 -0.016,-0.071 0,0 -0.023,0 -0.031,0.039 0,0 -0.109,0.95 -0.935,1.304 0,0 -1.106,0.558 -2.266,-0.424 0,0 -1.23,-1.178 -0.202,-3.008 0,0 1.347,-2.254 4.486,-0.919 0,0 2.765,1.367 1.628,4.304 0,0 -1.012,2.703 -4.346,2.696 0,0 -2.51,-0.083 -4.115,-1.766 -2.505,-2.626 -2.641,-7.741 -0.433,-10.386 0,0 2.087,-2.812 6.277,-4.524 2.427,-0.992 7.009,-2.984 11.775,-4.853 3.35,-1.314 6.418,-2.887 8.411,-5.246 0,0 1.776,-1.979 2.29,-5.372 0,0 0.491,-2.545 -1.059,-3.102 0,0 -0.787,-0.353 -1.651,-0.236 0,0 -0.023,10e-4 -0.029,0.016 -0.002,10e-4 -0.037,0.039 0.05,0.024 z"
           fill="#f5ce00"
           id="path140" />
        <path
           d="m 784.645,317.442 c 0,0 2.788,-0.503 4.532,2.812 0,0 1.028,2.136 1.194,3.372"
           fill="none"
           id="path142" />
        <path
           d="m 791.279,311.776 c 0,0 -2.792,0.484 -1.354,4.434 1.355,3.723 3.872,4.944 4.619,5.462"
           fill="none"
           id="path144" />
        <path
           d="m 736.653,203.456 c 0,0 0.138,1.131 1.26,1.257 0,0 1.17,0.377 1.852,-1.08 0,0 0.079,-0.33 0.097,-0.491 0.078,-0.681 0.311,-2.639 -1.807,-4.241 0,0 -3.458,-2.827 -10.062,0.597 0,0 -5.233,2.513 -8.847,4.649 0,0 -9.345,5.026 -10.467,5.403 0,0 -4.112,2.073 -10.404,2.325 0,0 -8.598,0.628 -12.242,-5.403 0,0 -2.772,-4.586 0,-7.508 0,0 1.121,-1.319 2.965,-1.076 0.774,0.102 1.629,0.458 2.455,1.422 0,0 1.339,1.948 -0.218,3.393 0,0 -2.025,1.241 -2.741,-1.382 0,0 -0.031,-0.188 -0.094,0.047 -0.04,0.152 -0.498,2.152 0.576,3.848 0,0 5.187,7.849 19.454,-0.285 l 18.815,-10.553 c 0,0 9.439,-4.838 15.077,2.733 0,0 4.548,6.283 -1.308,10.398 0,0 -4.361,2.607 -7.102,-1.539 0,0 -2.274,-4.084 1.308,-5.874 0,0 3.146,-1.476 4.392,1.665 1.246,3.141 -2.43,3.958 -2.772,1.728 0,-0.001 -0.094,-0.535 -0.187,-0.033 z"
           fill="#f5ce00"
           id="path146" />
        <path
           d="m 690.588,275.146 c 8.31,-4.715 10.132,-15.176 10.132,-15.176 2.009,-10.414 -2.056,-18.66 -2.056,-18.66 -5.374,-11.356 -14.582,-13.469 -14.582,-13.469 0,0 9.021,6.259 11.544,14.694 0,0 1.963,7.115 0.841,14.136 -1.121,7.021 -0.701,5.23 -2.43,10.649 z"
           fill="#f5ce00"
           id="path148" />
        <path
           d="m 732.416,195.132 c 0,0 7.759,-0.345 7.478,7.697"
           fill="none"
           id="path150" />
        <path
           d="m 681.375,280.562 c 13.504,-4.147 17.195,-18.66 17.195,-18.66 2.757,-10.885 -1.682,-20.403 -1.682,-20.403 -6.168,-14.485 -16.604,-14.482 -16.604,-14.482 -5.233,-0.141 -5.861,4.335 -5.861,4.335 -0.494,3.173 1.733,4.319 1.733,4.319 3.582,1.948 5.841,-0.691 5.841,-0.691 1.495,-1.948 0.343,-3.675 0.343,-3.675 -0.919,-1.288 -2.679,-0.723 -2.679,-0.723 -1.394,0.432 -1.246,2.175 -1.246,2.175 -0.008,0.047 -0.039,0.047 -0.039,0.047 -0.062,-0.016 -0.039,-0.039 -0.039,-0.039 0,0 -0.312,-2.136 1.776,-2.356 0,0 4.065,-0.88 8.831,5.058 0,0 6.276,8.011 6.261,18.377 0,0 0.794,19.461 -19.485,24.503 0,0 2.196,3.157 6.074,14.56 0,0 4.392,14.655 8.585,22.578 0,0 5.574,11.302 18.003,6.684 0,0 7.401,-3.251 7.383,-8.623 0,0 0.514,-4.901 -3.925,-5.278 0,0 -4.346,-0.33 -4.299,3.393 0,0 -0.117,4.029 4.626,3.11 0,0 1.659,-0.353 1.355,-1.979 0,0 -0.265,-1.461 -2.266,-0.825 0,0 -0.062,0.008 -0.07,-0.024 0,0 -0.023,-0.035 0.047,-0.055 0,0 0.774,-0.346 1.592,-0.06 0,0 0.733,0.244 0.791,1.387 0,0 0.047,0.919 -0.935,1.437 0,0 -1.192,0.424 -2.126,0.33 0,0 -1.257,2.537 -4.101,3.397 -3.959,1.197 -7.22,0.044 -9.216,-1.548 -2.171,-1.732 -3.575,-4.759 -3.995,-5.501 -0.42,-0.742 -4.065,-8.906 -6.806,-17.686 0,0 -2.399,-7.571 -4.314,-11.529 z"
           fill="#f5ce00"
           id="path152" />
        <path
           d="m 719.481,317.458 c 0,0 -2.523,-0.342 -2.523,1.908 0,0 0.154,3.287 4.159,2.568 0,0 3.948,-0.864 2.547,-5.278 0,0 -0.935,-3.11 -4.673,-2.662 0,0 -3.621,0.165 -5.21,5.113 0,0 -1.215,4.172 0.864,7.751 2.321,3.996 8.193,6.621 11.027,7.783 0,0 11.355,4.461 14.742,7.013 0,0 5.194,3.856 2.897,7.445 0,0 -0.888,1.367 -2.22,1.367 0,0 -1.519,0.071 -1.776,-1.484 0,0 -0.008,-0.031 0.016,-0.071 0,0 0.023,0 0.031,0.039 0,0 0.109,0.95 0.935,1.304 0,0 1.106,0.558 2.266,-0.424 0,0 1.23,-1.178 0.202,-3.008 0,0 -1.347,-2.254 -4.486,-0.919 0,0 -2.765,1.367 -1.628,4.304 0,0 1.012,2.703 4.346,2.696 0,0 2.51,-0.083 4.115,-1.766 2.505,-2.626 2.641,-7.741 0.433,-10.386 0,0 -2.087,-2.812 -6.277,-4.524 -2.427,-0.992 -7.009,-2.984 -11.775,-4.853 -3.35,-1.314 -6.418,-2.887 -8.411,-5.246 0,0 -1.776,-1.979 -2.29,-5.372 0,0 -0.491,-2.545 1.059,-3.102 0,0 0.787,-0.353 1.651,-0.236 0,0 0.023,10e-4 0.029,0.016 0.002,0 0.037,0.039 -0.05,0.024 z"
           fill="#f5ce00"
           id="path154" />
        <g
           fill="none"
           id="g162">
          <path
             d="m 719.27,317.442 c 0,0 -2.788,-0.503 -4.532,2.812 0,0 -1.028,2.136 -1.194,3.372"
             id="path156" />
          <path
             d="m 712.636,311.775 c 0,0 2.792,0.484 1.354,4.434 -1.355,3.723 -3.872,4.944 -4.619,5.462"
             id="path158" />
          <path
             d="m 745.207,202.375 c 0,0 6.75,-4.227 13.644,0.454"
             id="path160" />
        </g>
      </g>
      <g
         fill="none"
         stroke-width="0.623"
         id="g170">
        <path
           d="m 706.798,243.667 c 0,0 0.935,-3.77 -3.364,-10.367 0,0 -2.804,-6.031 -4.299,-9.895"
           id="path166" />
        <path
           d="m 708.854,219.258 c 0,0 2.434,5.929 3.271,8.584 0,0 3.019,7.437 3.659,8.945"
           id="path168" />
      </g>
    </g>
    <g
       stroke-width="0.623"
       id="g194">
      <g
         fill="none"
         stroke-miterlimit="10"
         id="g188">
        <path
           d="m 710.069,247.813 c 0,0 2.538,2.733 2.25,7.351"
           id="path174" />
        <path
           d="m 701.658,244.892 c 0,0 2.804,1.351 2.619,8.796 0,0 -0.282,5.435 3.923,8.168"
           id="path176" />
        <path
           d="m 701.278,263.772 c 0,0 8.775,-0.958 9.258,4.445 0,0 0.187,5.183 3.177,5.749 0,0 4.479,0.424 5.367,4.571"
           id="path178" />
        <path
           d="m 704.041,269.772 c 0,0 1.542,2.309 3.037,3.298"
           id="path180" />
        <path
           d="m 715.302,264.07 c 0,0 2.229,3.377 2.649,5.356"
           id="path182" />
        <path
           d="m 724.959,223.404 c 0,0 2.056,2.796 4.05,4.115"
           id="path184" />
        <path
           d="m 733.183,239.96 c 0,0 4.361,2.136 3.614,13.131 0,0 -0.561,6.448 1.246,9.967"
           id="path186" />
      </g>
      <path
         d="m 712.639,232.499 0.28,1.037 c 0,0 7.819,0.33 12.04,-4.995 l -0.452,-1.021 c 0,0 -6.822,-0.346 -11.868,4.979 z"
         fill="#784421"
         id="path190" />
      <path
         d="m 740.807,274.447 c 0,0 27.042,-8.062 37.464,-12.762"
         fill="none"
         stroke-miterlimit="10"
         id="path192" />
    </g>
    <path
       d="m 737.591,223.687 13.375,-5.089 0.316,0.895 -13.378,5.081 z"
       fill="#784421"
       stroke-width="0.3804"
       id="path196" />
  </g>
  <g
     fill="none"
     stroke-miterlimit="10"
     id="g302"
     transform="scale(0.875)">
    <g
       stroke="#000000"
       stroke-width="0.623"
       id="g236">
      <path
         d="m 739.039,224.143 8.878,43.524"
         id="path200" />
      <path
         d="m 740.58,223.558 10.168,43.324"
         id="path202" />
      <path
         d="m 742.31,222.901 11.121,43.007"
         id="path204" />
      <path
         d="m 746.67,221.245 15.161,32.283"
         id="path206" />
      <path
         d="m 748.676,220.483 16.167,32.094"
         id="path208" />
      <path
         d="m 750.161,219.919 17.488,31.772"
         id="path210" />
      <path
         d="m 747.317,268.012 6.862,-2.261"
         id="path212" />
      <path
         d="m 742.122,263.706 c 0,0 20.114,-5.875 35.337,-12.015"
         id="path214" />
      <path
         d="m 741.852,265.908 c 0,0 25.492,-6.745 35.606,-11.666"
         id="path216" />
      <path
         d="m 749.631,286.641 1.335,4.084 3.649,-1.168 -1.246,-4.047"
         id="path218" />
      <path
         d="m 759.927,283.707 1.335,4.083 3.65,-1.167 -1.247,-4.047"
         id="path220" />
      <path
         d="m 742.625,259.592 -0.315,-5.525 33.425,-10.149 1.807,4.649"
         id="path222" />
      <path
         d="m 756.485,249.763 1.821,4.878"
         id="path224" />
      <path
         d="m 768.17,246.215 2.129,4.639"
         id="path226" />
      <path
         d="m 770.941,245.374 1.991,4.389"
         id="path228" />
      <path
         d="m 773.587,244.57 2.093,4.585"
         id="path230" />
      <path
         d="m 775.735,243.918 3.676,-2.073 1.558,4.083"
         id="path232" />
      <path
         d="m 777.542,242.899 1.872,4.227"
         id="path234" />
    </g>
    <g
       stroke="#012169"
       stroke-width="0.8307"
       id="g300">
      <path
         d="m 694.649,306.526 c 0,0 -6.542,-6.625 0,-13.114 0,0 -7.102,-3.473 -5.981,-9.065"
         id="path238" />
      <path
         d="m 706.331,311.775 c 0,0 -6.775,0.923 -4.766,-12.27 0,0 -2.804,5.23 -3.77,7.918 -0.723,2.012 -0.245,5.26 2.623,7.016 1.146,0.702 7.221,2.284 9.183,-1.74"
         id="path240" />
      <path
         d="m 698.761,291.589 c 0,0 -2.757,2.545 -0.794,7.21"
         id="path242" />
      <path
         d="m 701.611,292.201 c 0,0 0.327,4.524 2.57,7.068"
         id="path244" />
      <path
         d="m 703.549,290.411 c 0,0 -0.021,5.325 3.81,8.623"
         id="path246" />
      <path
         d="m 705.454,288.573 c 0,0 0.036,5.984 4.475,9.66"
         id="path248" />
      <path
         d="m 727.498,297.337 c 0,0 2.243,-4.901 6.962,-4.665 0,0 -2.29,1.037 -2.243,3.33 0,0 -0.28,3.785 3.785,4.162 0,0 3.271,0.424 4.906,-1.367"
         id="path250" />
      <path
         d="m 738.666,319.72 c 0,0 -11.635,-5.466 -10.42,-13.335 0,0 0.467,-4.806 5.166,-7.068"
         id="path252" />
      <path
         d="m 730.956,304.311 c 0,0 -1.028,3.393 1.262,5.749"
         id="path254" />
      <path
         d="m 733.572,302.002 c 0,0 -1.402,3.723 0.935,6.503"
         id="path256" />
      <path
         d="m 736.374,300.195 c 0,0 -1.68,3.079 0.329,5.859"
         id="path258" />
      <path
         d="m 725.769,320.52 c 0,0 6.355,5.514 11.308,5.561"
         id="path260" />
      <path
         d="m 723.76,322.264 c 0,0 5.939,4.806 9.651,5.513"
         id="path262" />
      <path
         d="m 721.517,323.625 c 0,0 7.341,6.461 11.894,6.932"
         id="path264" />
      <path
         d="m 751.375,336.495 c 0,0 -7.216,3.888 -1.622,7.999"
         id="path266" />
      <path
         d="m 746.796,332.207 c 0,0 8.177,-4.288 11.728,-5.89"
         id="path268" />
      <path
         d="m 749.74,334.422 c 0,0 11.822,-7.21 15.326,-8.764"
         id="path270" />
      <path
         d="m 755.814,334.893 c 0,0 10.093,-6.738 15.513,-9.66"
         id="path272" />
      <path
         d="m 762.496,334.657 c 0,0 6.962,-5.466 13.691,-9.424"
         id="path274" />
      <path
         d="m 778.57,318.401 c 0,0 -3.411,-4.995 -14.625,0 0,0 4.112,-3.732 12.242,-6.625"
         id="path276" />
      <path
         d="m 787.508,290.316 c 0,0 0.919,4.052 -0.062,6.503"
         id="path278" />
      <path
         d="m 769.318,309.966 c 0,0 2.336,-3.44 8.271,-5.136 0,0 1.6,4.005 6.215,3.11 0,0 6.962,-1.367 4.86,-9 0,0 -1.448,-5.702 -9.4,-6.267"
         id="path280" />
      <path
         d="m 802.915,283.113 c 0,0 8.084,1.455 7.944,8.052 0,0 0.654,9.895 -9.766,11.827"
         id="path282" />
      <path
         d="m 809.711,287.176 c 0,0 2.221,-4.823 7.174,-6.803"
         id="path284" />
      <path
         d="m 810.866,277.547 c 0,0 2.208,3.54 3.717,4.055"
         id="path286" />
      <path
         d="m 809.711,280.374 c 0,0 2.081,2.543 2.782,2.968"
         id="path288" />
      <path
         d="m 809.036,282.824 c 0,0 1.096,1.619 2.067,2.129"
         id="path290" />
      <path
         d="m 767.449,244.57 c 0,0 1.573,-2.553 5.483,-1.469"
         id="path292" />
      <path
         d="m 788.897,263.706 c 0,0 2.477,-10.332 11.121,-6.516"
         id="path294" />
      <path
         d="m 796.513,256.344 c 0,0 0.888,-4.763 -1.262,-7.189"
         id="path296" />
      <path
         d="m 790.625,256.012 c 0,0 1.101,1.97 0.159,3.58"
         id="path298" />
    </g>
  </g>
  <path
     d="m 707.17063,316.36762 c 0,0 8.50412,-3.87537 5.88787,-10.47287 0,0 -0.8085,-2.22688 -2.69412,-2.0615 0,0 -3.2795,0.1645 -2.62325,4.53513 0,8.7e-4 0.98262,4.28924 -0.5705,7.99924 z"
     fill="#64b4d1"
     stroke="#012169"
     stroke-miterlimit="2.613"
     stroke-width="0.545125"
     id="path304" />
  <path
     d="m 710.25063,312.46512 c 0,0 1.869,-1.79112 1.60824,-5.00237 0,0 -0.10937,-0.68688 0.23363,-0.78225 0,0 0.36575,-0.15313 0.42,0.644 0,0 0.518,3.35388 -1.74475,5.27713 0,0 -0.154,0.19249 -0.40425,0.13737 8.7e-4,8.7e-4 -0.26775,-0.0586 -0.11287,-0.27388 z"
     fill="#ffffff"
     id="path306"
     style="stroke-width:0.875" />
  <path
     d="m 719.27275,310.43075 c 0,0 5.96925,-3.752 2.73962,-10.06075 0,0 -0.94062,-1.81387 -2.73962,-1.44287 0,0 -3.7205,1.15412 -0.81813,6.30875 0,0 1.47175,3.33987 0.81813,5.19487 z"
     fill="#64b4d1"
     stroke="#012169"
     stroke-miterlimit="2.613"
     stroke-width="0.545125"
     id="path308" />
  <path
     d="m 720.76463,301.875 c 0,0 -0.32726,-0.43313 -0.10238,-0.61863 0,0 0.1435,-0.20649 0.53113,0.28875 0,0 1.80599,2.01863 0.36837,5.12313 0,0 -0.16362,0.44275 -0.44975,0.29838 0,0 -0.245,-0.12338 -0.0201,-0.49438 0,0 1.28799,-2.55587 -0.32725,-4.59725 z"
     fill="#ffffff"
     id="path310"
     style="stroke-width:0.875" />
  <path
     d="m 701.40525,314.71912 c 0,0 -6.664,-1.6905 -5.43813,-8.57587 0,0 0.6545,-3.01 3.4755,-2.59788 0,0 3.39938,0.86801 1.18563,5.24475 0,0 -1.30813,3.12463 0.777,5.929 z"
     fill="#64b4d1"
     stroke="#012169"
     stroke-miterlimit="2.613"
     stroke-width="0.545125"
     id="path312" />
  <path
     d="m 698.82925,306.49325 c 0,0 -0.245,-0.32987 0.0411,-0.47425 0,0 0.28612,-0.12338 0.49087,0.27825 0,0 0.69475,1.1025 0.10675,2.61275 0,0 -0.5565,1.0465 -0.28613,2.13937 0,0 0.0368,0.30888 -0.20912,0.35088 0,0 -0.23537,-0.0823 -0.28088,-0.30887 0,0 -0.3325,-1.06663 0.23975,-2.1105 0,-8.8e-4 0.69563,-1.62138 -0.10237,-2.48763 z"
     fill="#ffffff"
     id="path314"
     style="stroke-width:0.875" />
  <path
     d="m 706.18887,301.68688 c 0,0 3.76163,-2.11313 6.86876,0.36049 0,0 -0.31763,-1.37462 -2.69413,-1.97925 0,0 -1.28538,-3.62862 -4.88337,-3.29874 0,0 1.47175,1.75874 3.43437,3.24362 0,0 -2.07112,0.21437 -2.72563,1.67388 z"
     id="path316"
     style="stroke-width:0.875" />
  <path
     d="m 708.96962,291.74862 c 0,0 2.555,1.88738 3.5945,3.15175 0,0 1.0395,-1.2915 2.40188,-2.0755 0,0 -1.56888,-0.20649 -2.40188,0.49963 0,0 -1.3055,-1.26437 -3.5945,-1.57588 z"
     id="path318"
     style="stroke-width:0.875" />
  <g
     fill="none"
     stroke="#000000"
     stroke-miterlimit="10"
     stroke-width="0.8307"
     id="g326"
     transform="scale(0.875)">
    <path
       d="m 793.305,342.684 c 0,0 -0.312,-1.068 0.436,-2.199 0,0 0.498,-0.817 0.312,-1.885"
       id="path320" />
    <path
       d="m 824.642,275.583 c 0,0 4.548,-0.314 5.296,-3.833"
       id="path322" />
    <path
       d="m 837.913,269.426 c 0,0 -1.585,-0.063 -3.018,1.382 0,0 -1.094,1.634 -2.652,1.445"
       id="path324" />
  </g>
  <path
     d="m 715.67475,229.42588 c 0,0 2.07112,0 3.2165,-0.98963 0,0 1.19962,-0.82425 1.90838,0.49438 0,0 1.09025,1.869 -0.92663,2.69412 0,0 -2.50775,1.26438 1.47175,3.79313 0,0 -4.7425,-1.7045 -2.835,-4.01275 0,0 2.07113,-1.48401 1.30813,-2.03438 0,0 -0.21788,-0.44012 -1.036,0.11025 -0.81813,0.5495 -2.4535,0.32987 -3.10713,-0.0551 z"
     id="path328"
     style="stroke-width:0.875" />
  <path
     d="m 718.49225,179.36362 c 0,0 0.93538,-1.27312 0.553,-5.09337 -0.38238,-3.82025 2.93475,-4.2595 4.2105,-3.16138 0,0 1.31862,1.14188 0.10587,3.56476 -0.7,1.39825 -1.81737,3.20862 -4.86937,4.68999 z"
     fill="#64b4d1"
     stroke="#012169"
     stroke-miterlimit="2.613"
     stroke-width="0.545125"
     id="path330" />
  <path
     d="m 719.73912,176.51112 c 0,0 1.24338,-1.337 0.65013,-4.23937 0,0 -0.004,-0.28613 0.16013,-0.30537 0,0 0.30187,-0.0761 0.35262,0.20999 0,0 0.66763,3.09401 -0.73588,4.77488 0,0 -0.25637,0.2485 -0.42787,0 8.7e-4,-8.8e-4 -0.18813,-0.1785 8.7e-4,-0.44013 z"
     fill="#ffffff"
     id="path332"
     style="stroke-width:0.875" />
  <path
     d="m 717.43263,177.97413 c 0,0 -0.098,-1.54001 -2.75976,-4.15713 -2.66175,-2.61713 -0.47337,-5.02863 1.15675,-5.0085 0,0 1.68875,0.0263 2.29688,2.59962 0.35087,1.48663 0.64837,3.54201 -0.69387,6.56601 z"
     fill="#64b4d1"
     stroke="#012169"
     stroke-miterlimit="2.613"
     stroke-width="0.545125"
     id="path334" />
  <path
     d="m 717.01875,174.6255 c 0,0 0.0473,-1.8865 -2.3625,-3.85525 0,0 -0.196,-0.22925 -0.084,-0.35088 0,0 0.1785,-0.25637 0.41125,-0.0577 0,0 2.59525,2.07638 2.65825,4.34438 0,0 -0.0289,0.36662 -0.32637,0.2765 -8.8e-4,-0.002 -0.26513,-0.0227 -0.29663,-0.357 z"
     fill="#ffffff"
     id="path336"
     style="stroke-width:0.875" />
  <path
     d="m 713.818,176.8165 c 0,0 -0.69562,-1.25475 -3.983,-2.42113 -3.28738,-1.16637 -2.39925,-4.03812 -1.01587,-4.65237 0,0 1.43587,-0.63175 2.97237,1.29237 0.88813,1.113 1.9565,2.723 2.0265,5.78113 z"
     fill="#64b4d1"
     stroke="#012169"
     stroke-miterlimit="2.613"
     stroke-width="0.545125"
     id="path338" />
  <path
     d="m 712.37775,174.51 c 0,0 -0.74725,-1.72988 -3.75725,-2.48763 0,0 -0.27387,-0.12424 -0.22313,-0.28262 0,0 0.0543,-0.30888 0.34826,-0.2275 0,0 3.22262,0.77525 4.22974,2.80438 0,0 0.12775,0.34475 -0.18025,0.38937 0,8.8e-4 -0.2485,0.0945 -0.41737,-0.196 z"
     fill="#ffffff"
     id="path340"
     style="stroke-width:0.875" />
  <path
     d="m 715.87775,178.073 c 0,0 -1.533,0.4305 -5.05313,-1.26788 -3.52012,-1.69837 -5.06187,1.25738 -4.445,2.8385 0,0 0.64488,1.63625 3.36963,1.34925 1.57325,-0.16625 3.68025,-0.57837 6.1285,-2.91987 z"
     fill="#64b4d1"
     stroke="#012169"
     stroke-miterlimit="2.613"
     stroke-width="0.545125"
     id="path342" />
  <path
     d="m 707.69213,179.19475 c 0,0 1.596,0.98437 4.49225,-0.13563 0,0 0.29487,-0.0569 0.343,0.10238 0,0 0.13125,0.28437 -0.15575,0.38762 0,0 -3.08088,1.2285 -5.06013,0.14963 0,0 -0.301,-0.20825 -0.0744,-0.4235 8.7e-4,0 0.15225,-0.2205 0.455,-0.0805 z"
     fill="#ffffff"
     id="path344"
     style="stroke-width:0.875" />
  <path
     d="m 710.7275,166.94737 c 0,0 1.75787,0.85225 1.34925,2.91376"
     fill="none"
     stroke="#000000"
     stroke-miterlimit="2.613"
     stroke-width="0.726862"
     id="path346" />
  <path
     d="m 718.49575,167.23613 c 0,0 0.68775,2.17699 -0.0718,3.3495"
     fill="none"
     stroke="#000000"
     stroke-miterlimit="10"
     stroke-width="0.726862"
     id="path348" />
  <path
     d="m 597.212,179.36362 c 0,0 -0.93537,-1.27312 -0.553,-5.09337 0.38238,-3.82025 -2.93475,-4.2595 -4.2105,-3.16138 0,0 -1.31862,1.14188 -0.10587,3.56476 0.7,1.39825 1.8165,3.20862 4.86937,4.68999 z"
     fill="#64b4d1"
     stroke="#012169"
     stroke-miterlimit="2.613"
     stroke-width="0.545125"
     id="path350" />
  <path
     d="m 595.96425,176.51112 c 0,0 -1.24338,-1.337 -0.65013,-4.23937 0,0 0.004,-0.28613 -0.16012,-0.30537 0,0 -0.30188,-0.0761 -0.35263,0.20999 0,0 -0.66762,3.09401 0.73588,4.77488 0,0 0.25637,0.2485 0.42787,0 -8.7e-4,-8.8e-4 0.18901,-0.1785 -8.7e-4,-0.44013 z"
     fill="#ffffff"
     id="path352"
     style="stroke-width:0.875" />
  <path
     d="m 598.27075,177.97413 c 0,0 0.098,-1.54001 2.75975,-4.15713 2.66175,-2.61713 0.47338,-5.02863 -1.15675,-5.0085 0,0 -1.68875,0.0263 -2.29687,2.59962 -0.35088,1.48663 -0.64838,3.54201 0.69387,6.56601 z"
     fill="#64b4d1"
     stroke="#012169"
     stroke-miterlimit="2.613"
     stroke-width="0.545125"
     id="path354" />
  <path
     d="m 598.6855,174.6255 c 0,0 -0.0473,-1.8865 2.3625,-3.85525 0,0 0.196,-0.22925 0.084,-0.35088 0,0 -0.1785,-0.25637 -0.41125,-0.0577 0,0 -2.59525,2.07638 -2.65825,4.34438 0,0 0.0289,0.36662 0.32638,0.2765 0,-0.002 0.26425,-0.0227 0.29662,-0.357 z"
     fill="#ffffff"
     id="path356"
     style="stroke-width:0.875" />
  <path
     d="m 601.88538,176.8165 c 0,0 0.69562,-1.25475 3.983,-2.42113 3.28737,-1.16637 2.39924,-4.03812 1.01587,-4.65237 0,0 -1.43587,-0.63175 -2.97238,1.29237 -0.88812,1.113 -1.9565,2.723 -2.02649,5.78113 z"
     fill="#64b4d1"
     stroke="#012169"
     stroke-miterlimit="2.613"
     stroke-width="0.545125"
     id="path358" />
  <path
     d="m 603.32562,174.51 c 0,0 0.74726,-1.72988 3.75725,-2.48763 0,0 0.27388,-0.12424 0.22313,-0.28262 0,0 -0.0543,-0.30888 -0.34825,-0.2275 0,0 -3.22263,0.77525 -4.22975,2.80438 0,0 -0.12775,0.34475 0.18025,0.38937 0,8.8e-4 0.2485,0.0945 0.41737,-0.196 z"
     fill="#ffffff"
     id="path360"
     style="stroke-width:0.875" />
  <path
     d="m 599.82562,178.073 c 0,0 1.533,0.4305 5.05313,-1.26788 3.52012,-1.69837 5.06187,1.25738 4.445,2.8385 0,0 -0.64487,1.63625 -3.36963,1.34925 -1.57324,-0.16625 -3.68025,-0.57837 -6.1285,-2.91987 z"
     fill="#64b4d1"
     stroke="#012169"
     stroke-miterlimit="2.613"
     stroke-width="0.545125"
     id="path362" />
  <path
     d="m 608.01125,179.19475 c 0,0 -1.596,0.98437 -4.49225,-0.13563 0,0 -0.29488,-0.0569 -0.343,0.10238 0,0 -0.13125,0.28437 0.15575,0.38762 0,0 3.08087,1.2285 5.06012,0.14963 0,0 0.301,-0.20825 0.0744,-0.4235 -8.8e-4,0 -0.15137,-0.2205 -0.455,-0.0805 z"
     fill="#ffffff"
     id="path364"
     style="stroke-width:0.875" />
  <path
     d="m 604.97587,166.94737 c 0,0 -1.75787,0.85225 -1.34925,2.91376"
     fill="none"
     stroke="#000000"
     stroke-miterlimit="2.613"
     stroke-width="0.726862"
     id="path366" />
  <path
     d="m 597.20762,167.23613 c 0,0 -0.68774,2.17699 0.0718,3.3495"
     fill="none"
     stroke="#000000"
     stroke-miterlimit="10"
     stroke-width="0.726862"
     id="path368" />
  <path
     d="m 673.52163,147.23887 c 0,0 1.11387,3.17975 0.6335,6.06113 -0.42963,2.57687 0.15662,3.24275 1.08762,3.75287 0.80588,0.441 2.67313,-0.33075 2.898,-2.35112 0,0 2.20763,4.3085 -2.08512,7.21525 0,0 -3.087,1.897 -5.70325,-0.63875 -0.92225,-0.89338 -1.32913,-3.36 -0.87938,-5.649 0,0 0.6755,-3.10275 -0.44975,-6.28775 0,0 1.75788,1.876 1.30813,5.61662 0,0 -0.89951,6.71125 4.06787,6.38138 0,0 3.43437,-0.0411 3.53675,-4.20525 0,0 -1.288,1.484 -2.88225,0.98962 -1.12963,-0.35 -2.16737,-1.44287 -1.98275,-3.16575 0.19338,-1.80687 0.69563,-4.95687 0.45063,-7.71925 z"
     id="path370"
     style="stroke-width:0.875" />
  <path
     d="m 667.89275,158.26125 c 0,0 -0.273,5.30512 -5.124,6.59662 0,0 0.68162,-0.96162 -0.40862,-3.60062 0,0 -1.06313,-1.53913 -0.98088,-3.9305 0,0 -1.54437,1.20837 0.21788,4.39775 1.06312,1.92412 0.1365,4.23325 -0.19075,4.3155 -0.32813,0.0823 8.01325,-1.09988 6.48637,-7.77875 z"
     id="path372"
     style="stroke-width:0.875" />
  <path
     d="m 661.59625,152.98325 c 0,0 -1.17163,-1.3195 -1.25387,-4.37063 -0.0814,-3.05112 -0.65451,-3.79312 -1.06313,-4.151 0,0 0.59937,2.639 0.43575,4.26038 -0.16362,1.62137 0.10938,2.55675 0.32725,3.32587 0,0 -2.64425,0.41213 -4.30675,-3.43612 -1.589,-3.6785 -3.18937,-3.381 -3.9795,-3.35388 0,0 0.92137,0.10238 2.77988,3.46325 1.85674,3.35825 2.37212,4.0425 7.06037,4.26213 z"
     id="path374"
     style="stroke-width:0.875" />
  <path
     d="m 649.222,145.012 c 0,0 1.52687,3.65575 1.58113,5.57988 0,0 -3.54376,-1.18213 -4.49751,-4.26038 0,0 -3.78875,1.2915 -2.39837,5.66212 0,0 -3.27075,-1.15412 -4.7425,-3.82112 0,0 1.82613,1.37463 3.51575,1.97925 0,0 -0.19075,-3.51837 4.2245,-4.83787 0,0 0.65713,3.15175 2.86212,3.90337 0,8.8e-4 -0.16362,-1.97837 -0.54512,-4.20525 z"
     id="path376"
     style="stroke-width:0.875" />
  <path
     d="m 655.05475,138.74525 c 0,0 1.22675,1.78675 3.7345,1.869 1.19875,0.0394 2.4885,-0.231 3.7345,-1.869 0,0 -0.16362,3.10625 -3.7345,3.13337 0,0 -3.7345,0.13738 -3.7345,-3.13337 z"
     id="path378"
     style="stroke-width:0.875" />
  <path
     d="m 639.60662,159.97887 c 0,0 1.86026,1.6905 2.24876,2.247 0,0 1.30812,1.27838 2.43162,-0.37449 0,0 1.43238,-2.64338 3.19025,-2.57338 0,0 -1.24687,0.86625 -2.64863,3.36525 0,0 -0.37712,0.92225 -1.42012,1.0255 -0.48825,0.0481 -1.10425,0.2065 -2.03613,-0.76738 0,0 -0.805,-0.98437 -1.76575,-2.9225 z"
     id="path380"
     style="stroke-width:0.875" />
  <path
     d="m 658.78925,126.29313 c -3.7345,-0.002 -0.58625,2.88574 -0.58625,2.88574 0.0814,4.57625 -3.591,5.98501 -6.09175,4.65938 -2.50075,-1.3265 -0.54512,-4.65938 -0.54512,-4.65938 0,0 -2.821,1.85501 -1.02201,4.53513 1.79901,2.68012 6.51438,1.484 8.24513,-0.98963 1.73075,2.47363 6.44612,3.66975 8.24513,0.98963 1.799,-2.68012 -1.022,-4.53513 -1.022,-4.53513 0,0 1.95562,3.33288 -0.54513,4.65938 -2.50075,1.32562 -6.174,-0.0822 -6.09175,-4.65938 -8.7e-4,8.8e-4 3.14737,-2.88749 -0.58625,-2.88574 z"
     id="path382"
     style="stroke-width:0.875" />
  <path
     d="m 661.05112,121.34588 c 0,0 1.30813,2.22687 1.022,5.607 0,0 1.18563,-3.38101 -1.022,-5.607 z"
     id="path384"
     style="stroke-width:0.875" />
  <path
     d="m 649.6035,126.58187 c 0,0 -0.28613,-2.4325 -2.65738,-2.63899 0,0 2.00288,1.44375 2.65738,2.63899 z"
     id="path386"
     style="stroke-width:0.875" />
  <path
     d="m 668.00212,126.58187 c 0,0 0.28613,-2.4325 2.65738,-2.63899 0,0 -2.00375,1.44375 -2.65738,2.63899 z"
     id="path388"
     style="stroke-width:0.875" />
  <path
     d="m 645.84188,130.29275 c 0,0 1.88037,0.5775 3.02574,-0.82425 0,0 -2.16737,0.57662 -3.02574,0.82425 z"
     id="path390"
     style="stroke-width:0.875" />
  <path
     d="m 639.75013,115.367 c 0,0 2.1875,-0.24762 4.375,3.01 0,0 -2.16738,1.15413 -2.6985,1.855 0,0 0,-1.07187 1.06312,-2.02037 -8.7e-4,8.7e-4 -0.4095,-1.6485 -2.73962,-2.84463 z"
     id="path392"
     style="stroke-width:0.875" />
  <path
     d="m 676.38375,115.367 c 0,0 -2.1875,-0.24762 -4.375,3.01 0,0 2.16737,1.15413 2.6985,1.855 0,0 0,-1.07187 -1.06313,-2.02037 0,8.7e-4 0.40863,-1.6485 2.73963,-2.84463 z"
     id="path394"
     style="stroke-width:0.875" />
  <path
     d="m 659.498,117.79775 c 0,0 1.96263,0.53813 4.41525,-0.8225 0,0 3.02575,-1.60825 4.94725,0 0,0 -1.6765,-0.74637 -4.90612,0.8225 0,0 -3.2305,1.771 -4.45638,0 z"
     id="path396"
     style="stroke-width:0.875" />
  <path
     d="m 661.542,119.77875 c 0,0 1.6765,-2.94 6.78737,-2.35638 0,0 -1.39037,4.088 -6.78737,2.35638 z"
     fill="#ffffff"
     id="path398"
     style="stroke-width:0.875" />
  <ellipse
     cx="665.06738"
     cy="118.867"
     fill="#784421"
     rx="1.010625"
     ry="1.281"
     id="ellipse400"
     style="stroke-width:0.875" />
  <ellipse
     cx="665.06738"
     cy="118.867"
     rx="0.60025001"
     ry="0.78575003"
     id="ellipse402"
     style="stroke-width:0.875" />
  <path
     d="m 650.58438,113.512 c 0,0 3.22962,0.2065 5.19224,1.44288 0,0 2.08513,1.23725 4.45638,-0.53638 0,0 2.57862,-1.484 4.23325,-3.5455 0,0 -3.94713,2.72125 -5.41888,3.13338 0,0 -1.34925,-1.03075 -1.88037,-2.51475 0,0 0.20475,-1.113 2.33012,-3.1745 0,0 -2.86212,0.86625 -3.43437,3.29875 0,0 0.53112,1.48399 1.63537,2.63899 0,0 -0.53112,0.24763 -1.9215,-0.61862 0,-8.8e-4 -3.02487,-1.03162 -5.19224,-0.12425 z"
     id="path404"
     style="stroke-width:0.875" />
  <path
     d="m 658.78925,132.91075 c -2.79387,2.41237 0,2.16475 0,2.16475 0,0 2.79387,0.24762 0,-2.16475 z"
     id="path406"
     style="stroke-width:0.875" />
  <path
     d="m 657.17225,117.79775 c 0,0 -1.96263,0.53813 -4.41613,-0.8225 0,0 -3.02575,-1.60825 -4.94725,0 0,0 1.6765,-0.74637 4.90613,0.8225 8.7e-4,0 3.2305,1.771 4.45725,0 z"
     id="path408"
     style="stroke-width:0.875" />
  <path
     d="m 655.12825,119.77875 c 0,0 -1.6765,-2.94 -6.78738,-2.35638 0,0 1.39038,4.088 6.78738,2.35638 z"
     fill="#ffffff"
     id="path410"
     style="stroke-width:0.875" />
  <ellipse
     cx="651.60291"
     cy="118.867"
     fill="#784421"
     rx="1.010625"
     ry="1.281"
     id="ellipse412"
     style="stroke-width:0.875" />
  <ellipse
     cx="651.60291"
     cy="118.867"
     rx="0.60025001"
     ry="0.78575003"
     id="ellipse414"
     style="stroke-width:0.875" />
  <path
     d="m 757.50762,93.331 v 185.26988 c 0,49.48737 -98.92925,65.56637 -98.92925,65.56637 0,0 -98.92925,-16.079 -98.92925,-65.56637 V 93.331 Z"
     fill="none"
     stroke="#000000"
     stroke-width="1.75"
     id="path416" />
</svg>
