<?xml version="1.0" encoding="UTF-8" standalone="no"?>
<svg
   xmlns:dc="http://purl.org/dc/elements/1.1/"
   xmlns:cc="http://creativecommons.org/ns#"
   xmlns:rdf="http://www.w3.org/1999/02/22-rdf-syntax-ns#"
   xmlns:svg="http://www.w3.org/2000/svg"
   xmlns="http://www.w3.org/2000/svg"
   xmlns:sodipodi="http://sodipodi.sourceforge.net/DTD/sodipodi-0.dtd"
   xmlns:inkscape="http://www.inkscape.org/namespaces/inkscape"
   width="875"
   height="500"
   viewBox="0 0 17.5 10"
   version="1.1"
   id="svg24"
   sodipodi:docname="Bosnia and Herzegovina.svg"
   inkscape:version="1.0.2 (e86c8708, 2021-01-15)">
  <metadata
     id="metadata30">
    <rdf:RDF>
      <cc:Work
         rdf:about="">
        <dc:format>image/svg+xml</dc:format>
        <dc:type
           rdf:resource="http://purl.org/dc/dcmitype/StillImage" />
      </cc:Work>
    </rdf:RDF>
  </metadata>
  <defs
     id="defs28" />
  <sodipodi:namedview
     pagecolor="#ffffff"
     bordercolor="#666666"
     borderopacity="1"
     objecttolerance="10"
     gridtolerance="10"
     guidetolerance="10"
     inkscape:pageopacity="0"
     inkscape:pageshadow="2"
     inkscape:window-width="1344"
     inkscape:window-height="729"
     id="namedview26"
     showgrid="false"
     inkscape:snap-bbox="true"
     inkscape:snap-intersection-paths="false"
     showguides="true"
     inkscape:guide-bbox="true"
     inkscape:zoom="0.36707288"
     inkscape:cx="836.95137"
     inkscape:cy="482.28108"
     inkscape:window-x="0"
     inkscape:window-y="25"
     inkscape:window-maximized="1"
     inkscape:current-layer="svg24" />
  <rect
     width="17.5"
     height="10"
     fill="#002395"
     id="rect10"
     x="0"
     y="-1.110223e-16"
     style="stroke-width:1.16927" />
  <path
     d="M 3.7499998,2.4139404e-8 H 13.75 V 10.000001 Z"
     fill="#fecb00"
     id="path12"
     style="stroke-width:1.25" />
  <g
     id="g"
     transform="matrix(1.0666834,0,0,1.0666834,5.4639564,6.2245984)">
    <path
       d="M 2.353283,0.5248529 2.8,-0.85 3.246717,0.524853 2.077197,-0.324853 h 1.445606 z"
       fill="#ffffff"
       id="s" />
    <path
       d="M 2.353283,0.5248529 2.8,-0.85 3.246717,0.524853 2.077197,-0.324853 h 1.445606 z"
       fill="#ffffff"
       id="path40" />
  </g>
  <g
     id="g-3"
     transform="matrix(1.0666834,0,0,1.0666834,4.2268379,4.9807202)">
    <path
       d="M 2.353283,0.5248529 2.8,-0.85 3.246717,0.524853 2.077197,-0.324853 h 1.445606 z"
       fill="#ffffff"
       id="s-1" />
    <path
       d="M 2.353283,0.5248529 2.8,-0.85 3.246717,0.524853 2.077197,-0.324853 h 1.445606 z"
       fill="#ffffff"
       id="path40-1" />
  </g>
  <g
     id="g-1"
     transform="matrix(1.0666834,0,0,1.0666834,2.9897193,3.7368417)">
    <path
       d="M 2.353283,0.5248529 2.8,-0.85 3.246717,0.524853 2.077197,-0.324853 h 1.445606 z"
       fill="#ffffff"
       id="s-8" />
    <path
       d="M 2.353283,0.5248529 2.8,-0.85 3.246717,0.524853 2.077197,-0.324853 h 1.445606 z"
       fill="#ffffff"
       id="path40-5" />
  </g>
  <g
     id="g-36"
     transform="matrix(1.0666834,0,0,1.0666834,1.7526002,2.4929632)">
    <path
       d="M 2.353283,0.5248529 2.8,-0.85 3.246717,0.524853 2.077197,-0.324853 h 1.445606 z"
       fill="#ffffff"
       id="s-5" />
    <path
       d="M 2.353283,0.5248529 2.8,-0.85 3.246717,0.524853 2.077197,-0.324853 h 1.445606 z"
       fill="#ffffff"
       id="path40-52" />
  </g>
  <g
     id="g-9"
     transform="matrix(1.0666834,0,0,1.0666834,0.51548168,1.2490849)">
    <path
       d="M 2.353283,0.5248529 2.8,-0.85 3.246717,0.524853 2.077197,-0.324853 h 1.445606 z"
       fill="#ffffff"
       id="s-6" />
    <path
       d="M 2.353283,0.5248529 2.8,-0.85 3.246717,0.524853 2.077197,-0.324853 h 1.445606 z"
       fill="#ffffff"
       id="path40-53" />
  </g>
  <g
     id="g-16"
     transform="matrix(1.0666834,0,0,1.0666834,-0.721637,0.00520641)">
    <path
       d="M 2.353283,0.5248529 2.8,-0.85 3.246717,0.524853 2.077197,-0.324853 h 1.445606 z"
       fill="#ffffff"
       id="s-86" />
    <path
       d="M 2.353283,0.5248529 2.8,-0.85 3.246717,0.524853 2.077197,-0.324853 h 1.445606 z"
       fill="#ffffff"
       id="path40-0" />
  </g>
  <g
     id="g-17"
     transform="matrix(1.0666834,0,0,1.0666834,7.9381941,8.7123559)">
    <path
       d="M 2.353283,0.5248529 2.8,-0.85 3.246717,0.524853 2.077197,-0.324853 h 1.445606 z"
       fill="#ffffff"
       id="s-2" />
    <path
       d="M 2.353283,0.5248529 2.8,-0.85 3.246717,0.524853 2.077197,-0.324853 h 1.445606 z"
       fill="#ffffff"
       id="path40-6" />
  </g>
  <path
     d="M 9.2112834,8.0283291 9.6877893,6.5617963 10.164294,8.0283292 8.9167871,7.1219619 h 1.5420039 z"
     fill="#ffffff"
     id="s-50"
     style="stroke-width:1.06668" />
  <path
     d="m 11.68552,10.516087 0.476506,-1.4665338 0.476505,1.4665338 -1.247507,-0.9063675 h 1.542004 z"
     fill="#ffffff"
     id="path40-7"
     style="stroke-width:1.06668" />
</svg>
