<?xml version="1.0" encoding="UTF-8" standalone="no"?>
<svg
   xmlns:dc="http://purl.org/dc/elements/1.1/"
   xmlns:cc="http://creativecommons.org/ns#"
   xmlns:rdf="http://www.w3.org/1999/02/22-rdf-syntax-ns#"
   xmlns:svg="http://www.w3.org/2000/svg"
   xmlns="http://www.w3.org/2000/svg"
   xmlns:xlink="http://www.w3.org/1999/xlink"
   xmlns:sodipodi="http://sodipodi.sourceforge.net/DTD/sodipodi-0.dtd"
   xmlns:inkscape="http://www.inkscape.org/namespaces/inkscape"
   version="1.0"
   width="875"
   height="500"
   viewBox="-2100 -1470 5104.1667 2916.6667"
   id="svg122"
   sodipodi:docname="Brazil.svg"
   inkscape:version="1.0.2 (e86c8708, 2021-01-15)">
  <metadata
     id="metadata126">
    <rdf:RDF>
      <cc:Work
         rdf:about="">
        <dc:format>image/svg+xml</dc:format>
        <dc:type
           rdf:resource="http://purl.org/dc/dcmitype/StillImage" />
        <dc:title></dc:title>
      </cc:Work>
    </rdf:RDF>
  </metadata>
  <sodipodi:namedview
     pagecolor="#ffffff"
     bordercolor="#666666"
     borderopacity="1"
     objecttolerance="10"
     gridtolerance="10"
     guidetolerance="10"
     inkscape:pageopacity="0"
     inkscape:pageshadow="2"
     inkscape:window-width="1344"
     inkscape:window-height="729"
     id="namedview124"
     showgrid="false"
     inkscape:zoom="0.82621814"
     inkscape:cx="445.46331"
     inkscape:cy="295.56953"
     inkscape:window-x="0"
     inkscape:window-y="25"
     inkscape:window-maximized="1"
     inkscape:current-layer="svg122" />
  <defs
     id="defs50">
    <path
       id="D"
       d="m -31.5,0 h 33 a 30,30 0 0 0 30,-30 v -10 a 30,30 0 0 0 -30,-30 h -33 z m 13,-13 h 19 a 19,19 0 0 0 19,-19 v -6 a 19,19 0 0 0 -19,-19 h -19 z"
       fill-rule="evenodd" />
    <path
       id="E"
       d="M 0,0 H 63 V -13 H 12 V -31 H 52 V -43 H 12 V -57 H 60 V -70 H 0 Z"
       transform="translate(-31.5)" />
    <path
       id="e"
       d="m -26.25,0 h 52.5 v -12 h -40.5 v -16 h 33 v -12 h -33 V -51 H 25 v -12 h -51.25 z" />
    <g
       id="G">
      <clipPath
         id="gcut">
        <path
           d="m -31.5,0 v -70 h 63 V 0 Z M 0,-47 v 12 h 31.5 v -12 z"
           id="path13" />
      </clipPath>
      <use
         xlink:href="#O"
         clip-path="url(#gcut)"
         id="use16"
         x="0"
         y="0"
         width="100%"
         height="100%" />
      <rect
         x="5"
         y="-35"
         width="26.5"
         height="10"
         id="rect18" />
      <rect
         x="21.5"
         y="-35"
         width="10"
         height="35"
         id="rect20" />
    </g>
    <path
       id="M"
       d="m -31.5,0 h 12 v -48 l 14,48 h 11 l 14,-48 V 0 h 12 V -70 H 14 L 0,-22 -14,-70 h -17.5 z" />
    <path
       id="O"
       d="M 0,0 A 31.5,35 0 0 0 0,-70 31.5,35 0 0 0 0,0 m 0,-13 a 18.5,22 0 0 0 0,-44 18.5,22 0 0 0 0,44"
       fill-rule="evenodd" />
    <path
       id="P"
       d="m -31.5,0 h 13 v -26 h 28 a 22,22 0 0 0 0,-44 h -40 z m 13,-39 h 27 a 9,9 0 0 0 0,-18 h -27 z"
       fill-rule="evenodd" />
    <g
       id="R">
      <use
         xlink:href="#P"
         id="use26"
         x="0"
         y="0"
         width="100%"
         height="100%" />
      <path
         d="m 28,0 c 0,-10 0,-32 -15,-32 H -6 c 22,0 22,22 22,32"
         id="path28" />
    </g>
    <path
       id="S"
       d="m -15.75,-22 c 0,7 6.75,10.5 16.75,10.5 10,0 14.74,-3.25 14.75,-7.75 C 15.75,-33.5 -31,-24.5 -30.75,-49.5 -30.5,-71 -6,-70 3,-70 c 9,0 26,4 25.75,21.25 H 13.5 c 0,-7.5 -7,-10.25 -15,-10.25 -7.75,0 -13.25,1.25 -13.25,8.5 -0.25,11.75 46.25,4 46.25,28.75 C 31.5,-3.5 13.5,0 0,0 -11.5,0 -31.55,-4.5 -31.5,-22 Z" />
    <g
       id="star"
       fill="#fff">
      <g
         id="c">
        <path
           id="t"
           d="M 0,-1 V 0 H 0.5"
           transform="rotate(18,0,-1)" />
        <use
           xlink:href="#t"
           transform="scale(-1,1)"
           id="use33"
           x="0"
           y="0"
           width="100%"
           height="100%" />
      </g>
      <use
         xlink:href="#c"
         transform="rotate(72)"
         id="use36"
         x="0"
         y="0"
         width="100%"
         height="100%" />
      <use
         xlink:href="#c"
         transform="rotate(-72)"
         id="use38"
         x="0"
         y="0"
         width="100%"
         height="100%" />
      <use
         xlink:href="#c"
         transform="rotate(144)"
         id="use40"
         x="0"
         y="0"
         width="100%"
         height="100%" />
      <use
         xlink:href="#c"
         transform="rotate(-144)"
         id="use42"
         x="0"
         y="0"
         width="100%"
         height="100%" />
    </g>
    <use
       id="star1"
       xlink:href="#star"
       transform="scale(31.5)"
       x="0"
       y="0"
       width="100%"
       height="100%" />
    <use
       id="star2"
       xlink:href="#star"
       transform="scale(26.25)"
       x="0"
       y="0"
       width="100%"
       height="100%" />
    <use
       id="star3"
       xlink:href="#star"
       transform="scale(21)"
       x="0"
       y="0"
       width="100%"
       height="100%" />
    <use
       id="star4"
       xlink:href="#star"
       transform="scale(15)"
       x="0"
       y="0"
       width="100%"
       height="100%" />
    <use
       id="star5"
       xlink:href="#star"
       transform="scale(10.5)"
       x="0"
       y="0"
       width="100%"
       height="100%" />
    <clipPath
       id="band-7">
      <circle
         r="735"
         id="circle58-4"
         cx="0"
         cy="0" />
    </clipPath>
    <clipPath
       id="gcut-7">
      <path
         d="m -31.5,0 v -70 h 63 V 0 Z M 0,-47 v 12 h 31.5 v -12 z"
         id="path13-7" />
    </clipPath>
    <clipPath
       id="clipPath297">
      <path
         d="m -31.5,0 v -70 h 63 V 0 Z M 0,-47 v 12 h 31.5 v -12 z"
         id="path295" />
    </clipPath>
  </defs>
  <clipPath
     id="band">
    <circle
       r="735"
       id="circle58"
       cx="0"
       cy="0" />
  </clipPath>
  <rect
     x="-2096.9866"
     y="-1471.8553"
     width="5104.1665"
     height="99.999992%"
     fill="#009b3a"
     id="rect52"
     style="stroke-width:1.10239" />
  <g
     id="g270"
     transform="translate(471.76333,-1.8554447)">
    <path
       d="M -1745.8333,-11.666667 -16.666667,1092.5 1712.5,-11.666667 -16.666667,-1115.8333 Z"
       fill="#fedf00"
       id="path54"
       style="stroke-width:0.992063" />
    <circle
       r="729.16669"
       fill="#002776"
       id="circle56"
       cx="-16.666666"
       cy="-11.666667"
       style="stroke-width:0.992063" />
    <path
       d="m -2205,1470 a 1785,1785 0 0 1 3570,0 h -105 a 1680,1680 0 1 0 -3360,0 z"
       clip-path="url(#band-7)"
       fill="#ffffff"
       id="path61"
       transform="matrix(0.99206349,0,0,0.99206349,-16.666667,-11.666667)" />
    <g
       fill="#009b3a"
       transform="matrix(0.99206349,0,0,0.99206349,-433.33333,1446.6667)"
       id="g93">
      <use
         xlink:href="#O"
         y="-1697.5"
         transform="rotate(-7)"
         id="use63"
         x="0"
         width="100%"
         height="100%" />
      <use
         xlink:href="#R"
         y="-1697.5"
         transform="rotate(-4)"
         id="use65"
         x="0"
         width="100%"
         height="100%" />
      <use
         xlink:href="#D"
         y="-1697.5"
         transform="rotate(-1)"
         id="use67"
         x="0"
         width="100%"
         height="100%" />
      <use
         xlink:href="#E"
         y="-1697.5"
         transform="rotate(2)"
         id="use69"
         x="0"
         width="100%"
         height="100%" />
      <use
         xlink:href="#M"
         y="-1697.5"
         transform="rotate(5)"
         id="use71"
         x="0"
         width="100%"
         height="100%" />
      <use
         xlink:href="#e"
         y="-1697.5"
         transform="rotate(9.75)"
         id="use73"
         x="0"
         width="100%"
         height="100%" />
      <use
         xlink:href="#P"
         y="-1697.5"
         transform="rotate(14.5)"
         id="use75"
         x="0"
         width="100%"
         height="100%" />
      <use
         xlink:href="#R"
         y="-1697.5"
         transform="rotate(17.5)"
         id="use77"
         x="0"
         width="100%"
         height="100%" />
      <use
         xlink:href="#O"
         y="-1697.5"
         transform="rotate(20.5)"
         id="use79"
         x="0"
         width="100%"
         height="100%" />
      <use
         xlink:href="#G"
         y="-1697.5"
         transform="rotate(23.5)"
         id="use81"
         x="0"
         width="100%"
         height="100%" />
      <use
         xlink:href="#R"
         y="-1697.5"
         transform="rotate(26.5)"
         id="use83"
         x="0"
         width="100%"
         height="100%" />
      <use
         xlink:href="#E"
         y="-1697.5"
         transform="rotate(29.5)"
         id="use85"
         x="0"
         width="100%"
         height="100%" />
      <use
         xlink:href="#S"
         y="-1697.5"
         transform="rotate(32.5)"
         id="use87"
         x="0"
         width="100%"
         height="100%" />
      <use
         xlink:href="#S"
         y="-1697.5"
         transform="rotate(35.5)"
         id="use89"
         x="0"
         width="100%"
         height="100%" />
      <use
         xlink:href="#O"
         y="-1697.5"
         transform="rotate(38.5)"
         id="use91"
         x="0"
         width="100%"
         height="100%" />
    </g>
    <use
       id="αCMi"
       xlink:href="#star1"
       x="-600"
       y="-132"
       transform="matrix(0.99206349,0,0,0.99206349,-16.666667,-11.666667)"
       width="100%"
       height="100%" />
    <use
       id="αCMa"
       xlink:href="#star1"
       x="-535"
       y="177"
       transform="matrix(0.99206349,0,0,0.99206349,-16.666667,-11.666667)"
       width="100%"
       height="100%" />
    <use
       id="βCMa"
       xlink:href="#star2"
       x="-625"
       y="243"
       transform="matrix(0.99206349,0,0,0.99206349,-16.666667,-11.666667)"
       width="100%"
       height="100%" />
    <use
       id="γCMa"
       xlink:href="#star4"
       x="-463"
       y="132"
       transform="matrix(0.99206349,0,0,0.99206349,-16.666667,-11.666667)"
       width="100%"
       height="100%" />
    <use
       id="δCMa"
       xlink:href="#star2"
       x="-382"
       y="250"
       transform="matrix(0.99206349,0,0,0.99206349,-16.666667,-11.666667)"
       width="100%"
       height="100%" />
    <use
       id="εCMa"
       xlink:href="#star3"
       x="-404"
       y="323"
       transform="matrix(0.99206349,0,0,0.99206349,-16.666667,-11.666667)"
       width="100%"
       height="100%" />
    <use
       id="αVir"
       xlink:href="#star1"
       x="228"
       y="-228"
       transform="matrix(0.99206349,0,0,0.99206349,-16.666667,-11.666667)"
       width="100%"
       height="100%" />
    <use
       id="αSco"
       xlink:href="#star1"
       x="515"
       y="258"
       transform="matrix(0.99206349,0,0,0.99206349,-16.666667,-11.666667)"
       width="100%"
       height="100%" />
    <use
       id="βSco"
       xlink:href="#star3"
       x="617"
       y="265"
       transform="matrix(0.99206349,0,0,0.99206349,-16.666667,-11.666667)"
       width="100%"
       height="100%" />
    <use
       id="εSco"
       xlink:href="#star2"
       x="545"
       y="323"
       transform="matrix(0.99206349,0,0,0.99206349,-16.666667,-11.666667)"
       width="100%"
       height="100%" />
    <use
       id="θSco"
       xlink:href="#star2"
       x="368"
       y="477"
       transform="matrix(0.99206349,0,0,0.99206349,-16.666667,-11.666667)"
       width="100%"
       height="100%" />
    <use
       id="ιSco"
       xlink:href="#star3"
       x="367"
       y="551"
       transform="matrix(0.99206349,0,0,0.99206349,-16.666667,-11.666667)"
       width="100%"
       height="100%" />
    <use
       id="κSco"
       xlink:href="#star3"
       x="441"
       y="419"
       transform="matrix(0.99206349,0,0,0.99206349,-16.666667,-11.666667)"
       width="100%"
       height="100%" />
    <use
       id="λSco"
       xlink:href="#star2"
       x="500"
       y="382"
       transform="matrix(0.99206349,0,0,0.99206349,-16.666667,-11.666667)"
       width="100%"
       height="100%" />
    <use
       id="μSco"
       xlink:href="#star3"
       x="365"
       y="405"
       transform="matrix(0.99206349,0,0,0.99206349,-16.666667,-11.666667)"
       width="100%"
       height="100%" />
    <use
       id="αHya"
       xlink:href="#star2"
       x="-280"
       y="30"
       transform="matrix(0.99206349,0,0,0.99206349,-16.666667,-11.666667)"
       width="100%"
       height="100%" />
    <use
       id="γHya"
       xlink:href="#star3"
       x="200"
       y="-37"
       transform="matrix(0.99206349,0,0,0.99206349,-16.666667,-11.666667)"
       width="100%"
       height="100%" />
    <use
       id="αCru"
       xlink:href="#star1"
       y="330"
       transform="matrix(0.99206349,0,0,0.99206349,-16.666667,-11.666667)"
       x="0"
       width="100%"
       height="100%" />
    <use
       id="βCru"
       xlink:href="#star2"
       x="85"
       y="184"
       transform="matrix(0.99206349,0,0,0.99206349,-16.666667,-11.666667)"
       width="100%"
       height="100%" />
    <use
       id="γCru"
       xlink:href="#star2"
       y="118"
       transform="matrix(0.99206349,0,0,0.99206349,-16.666667,-11.666667)"
       x="0"
       width="100%"
       height="100%" />
    <use
       id="δCru"
       xlink:href="#star3"
       x="-74"
       y="184"
       transform="matrix(0.99206349,0,0,0.99206349,-16.666667,-11.666667)"
       width="100%"
       height="100%" />
    <use
       id="εCru"
       xlink:href="#star4"
       x="-37"
       y="235"
       transform="matrix(0.99206349,0,0,0.99206349,-16.666667,-11.666667)"
       width="100%"
       height="100%" />
    <use
       id="αTrA"
       xlink:href="#star2"
       x="220"
       y="495"
       transform="matrix(0.99206349,0,0,0.99206349,-16.666667,-11.666667)"
       width="100%"
       height="100%" />
    <use
       id="βTrA"
       xlink:href="#star3"
       x="283"
       y="430"
       transform="matrix(0.99206349,0,0,0.99206349,-16.666667,-11.666667)"
       width="100%"
       height="100%" />
    <use
       id="γTrA"
       xlink:href="#star3"
       x="162"
       y="412"
       transform="matrix(0.99206349,0,0,0.99206349,-16.666667,-11.666667)"
       width="100%"
       height="100%" />
    <use
       id="αCar"
       xlink:href="#star1"
       x="-295"
       y="390"
       transform="matrix(0.99206349,0,0,0.99206349,-16.666667,-11.666667)"
       width="100%"
       height="100%" />
    <use
       id="σOct"
       xlink:href="#star5"
       y="575"
       transform="matrix(0.99206349,0,0,0.99206349,-16.666667,-11.666667)"
       x="0"
       width="100%"
       height="100%" />
  </g>
</svg>
