<?xml version="1.0" encoding="UTF-8" standalone="no"?>
<svg
   xmlns:dc="http://purl.org/dc/elements/1.1/"
   xmlns:cc="http://creativecommons.org/ns#"
   xmlns:rdf="http://www.w3.org/1999/02/22-rdf-syntax-ns#"
   xmlns:svg="http://www.w3.org/2000/svg"
   xmlns="http://www.w3.org/2000/svg"
   xmlns:sodipodi="http://sodipodi.sourceforge.net/DTD/sodipodi-0.dtd"
   xmlns:inkscape="http://www.inkscape.org/namespaces/inkscape"
   width="875"
   height="500"
   viewBox="0 0 7000 4000"
   version="1.1"
   id="svg16"
   sodipodi:docname="Canada.svg"
   inkscape:version="1.0.2 (e86c8708, 2021-01-15)">
  <metadata
     id="metadata22">
    <rdf:RDF>
      <cc:Work
         rdf:about="">
        <dc:format>image/svg+xml</dc:format>
        <dc:type
           rdf:resource="http://purl.org/dc/dcmitype/StillImage" />
      </cc:Work>
    </rdf:RDF>
  </metadata>
  <defs
     id="defs20" />
  <sodipodi:namedview
     pagecolor="#ffffff"
     bordercolor="#666666"
     borderopacity="1"
     objecttolerance="10"
     gridtolerance="10"
     guidetolerance="10"
     inkscape:pageopacity="0"
     inkscape:pageshadow="2"
     inkscape:window-width="1344"
     inkscape:window-height="729"
     id="namedview18"
     showgrid="false"
     inkscape:zoom="0.67333333"
     inkscape:cx="484.15842"
     inkscape:cy="299.25743"
     inkscape:window-x="0"
     inkscape:window-y="25"
     inkscape:window-maximized="1"
     inkscape:current-layer="svg16" />
  <title
     id="title10">Flag of Canada (Pantone colours)</title>
  <path
     fill="#d52b1e"
     d="m 0,4.2e-5 h 1750 l 72.1875,82.500002 h 3355.625 L 5250,4.2e-5 H 7000 V 4000 H 5250 l -72.1875,-82.4999 H 1822.1875 L 1750,4000 H 0 Z"
     id="path12"
     style="stroke-width:0.779512" />
  <path
     fill="#ffffff"
     d="M 1500,0 H 5500 V 4000.0001 H 1500 Z m 2075,3691.6667 -37.5,-719.1666 a 79.166667,79.166667 0 0 1 92.5,-81.6668 l 715.8333,125.8335 -96.6666,-266.6667 a 54.166667,54.166667 0 0 1 16.6666,-60.8333 l 784.1667,-635 -176.6667,-82.5 A 54.166667,54.166667 0 0 1 4845,1905.8334 l 155,-476.6666 -451.6667,95.8333 A 54.166667,54.166667 0 0 1 4487.5,1493.3334 l -87.5,-205.8333 -352.5,378.3333 a 54.166667,54.166667 0 0 1 -92.5,-47.5 l 170,-876.66673 -272.5,157.5 a 54.166667,54.166667 0 0 1 -75.8333,-22.5 L 3500,333.33333 3223.3333,876.66667 a 54.166667,54.166667 0 0 1 -75.8333,22.5 l -272.5,-157.5 170,876.66673 a 54.166667,54.166667 0 0 1 -92.5,47.5 l -352.5,-378.3333 -87.5,205.8333 a 54.166667,54.166667 0 0 1 -60.8333,31.6667 L 2000,1429.1668 l 155,476.6666 a 54.166667,54.166667 0 0 1 -28.3333,65.8334 l -176.6667,82.5 784.1667,635 a 54.166667,54.166667 0 0 1 16.6666,60.8333 L 2654.1667,3016.6667 3370,2890.8332 a 79.166667,79.166667 0 0 1 92.5,81.6668 l -37.5,719.1667 z"
     id="path14"
     style="stroke-width:0.833333" />
</svg>
