<?xml version="1.0" encoding="UTF-8" standalone="no"?>
<svg
   xmlns:dc="http://purl.org/dc/elements/1.1/"
   xmlns:cc="http://creativecommons.org/ns#"
   xmlns:rdf="http://www.w3.org/1999/02/22-rdf-syntax-ns#"
   xmlns:svg="http://www.w3.org/2000/svg"
   xmlns="http://www.w3.org/2000/svg"
   xmlns:xlink="http://www.w3.org/1999/xlink"
   xmlns:sodipodi="http://sodipodi.sourceforge.net/DTD/sodipodi-0.dtd"
   xmlns:inkscape="http://www.inkscape.org/namespaces/inkscape"
   width="875.00024"
   height="500"
   version="1.1"
   id="svg411"
   sodipodi:docname="Flag_of_the_Cayman_Islands.svg"
   inkscape:version="1.0.2 (e86c8708, 2021-01-15)">
  <metadata
     id="metadata417">
    <rdf:RDF>
      <cc:Work
         rdf:about="">
        <dc:format>image/svg+xml</dc:format>
        <dc:type
           rdf:resource="http://purl.org/dc/dcmitype/StillImage" />
        <dc:title></dc:title>
      </cc:Work>
    </rdf:RDF>
  </metadata>
  <defs
     id="defs415" />
  <sodipodi:namedview
     pagecolor="#ffffff"
     bordercolor="#666666"
     borderopacity="1"
     objecttolerance="10"
     gridtolerance="10"
     guidetolerance="10"
     inkscape:pageopacity="0"
     inkscape:pageshadow="2"
     inkscape:window-width="1344"
     inkscape:window-height="812"
     id="namedview413"
     showgrid="false"
     fit-margin-top="0"
     fit-margin-left="0"
     fit-margin-right="0"
     fit-margin-bottom="0"
     inkscape:zoom="0.91416667"
     inkscape:cx="599.63361"
     inkscape:cy="299.26722"
     inkscape:window-x="0"
     inkscape:window-y="0"
     inkscape:window-maximized="1"
     inkscape:current-layer="svg411" />
  <clipPath
     id="c">
    <path
       d="M 0,0 V 150 H 700 V 300 H 600 Z M 600,0 H 300 V 350 H 0 v -50 z"
       id="path10" />
  </clipPath>
  <rect
     width="875.00024"
     height="437.50012"
     fill="#012169"
     id="rect13"
     x="-4.3330994e-07"
     y="-7.6661985e-07"
     style="stroke-width:0.729165" />
  <path
     d="M 0,0 437.50011,218.75007 M 437.50011,0 0,218.75007"
     stroke="#ffffff"
     stroke-width="43.7498"
     id="path15" />
  <path
     d="M 0,0 600,300 M 600,0 0,300"
     stroke="#c8102e"
     stroke-width="40"
     clip-path="url(#c)"
     id="path17"
     transform="scale(0.72916684)" />
  <path
     d="M 218.75005,0 V 255.20841 M 0,109.37503 h 510.41677"
     stroke="#ffffff"
     stroke-width="72.9165"
     id="path19" />
  <path
     d="M 218.75005,0 V 255.20841 M 0,109.37503 h 510.41677"
     stroke="#c8102e"
     stroke-width="43.7498"
     id="path21" />
  <path
     d="M 0,218.75022 H 437.50011 V 0 H 875.00022 V 500 H 0 Z"
     fill="#012169"
     id="path23"
     style="stroke-width:0.77951"
     sodipodi:nodetypes="ccccccc" />
  <g
     stroke="#000000"
     stroke-width="1.4377"
     id="g409"
     transform="scale(0.72916684)">
    <g
       id="border"
       stroke="#ffffff"
       stroke-width="9.6"
       stroke-linejoin="round">
      <use
         xlink:href="#shield"
         id="use25"
         x="0"
         y="0"
         width="100%"
         height="100%" />
      <use
         xlink:href="#motto1"
         id="use27"
         x="0"
         y="0"
         width="100%"
         height="100%" />
      <use
         xlink:href="#motto2"
         id="use29"
         x="0"
         y="0"
         width="100%"
         height="100%" />
      <use
         xlink:href="#rope"
         id="use31"
         x="0"
         y="0"
         width="100%"
         height="100%" />
      <use
         xlink:href="#turtle"
         id="use33"
         x="0"
         y="0"
         width="100%"
         height="100%" />
      <use
         xlink:href="#pineapple1"
         id="use35"
         x="0"
         y="0"
         width="100%"
         height="100%" />
      <use
         xlink:href="#pineapple2"
         id="use37"
         x="0"
         y="0"
         width="100%"
         height="100%" />
    </g>
    <g
       id="motto">
      <g
         id="motto1"
         fill="#fcea83">
        <path
           d="m 754.417,449.563 c 2.87535,7.66776 23.4825,17.7317 47.4443,4.79235 16.294,-9.10547 26.8372,-22.0448 36.9011,-45.0481 2.87534,-5.75082 4.31301,-12.9394 -2.39625,-17.2525 -5.27159,-3.83388 -13.8978,-8.14701 -17.7317,-11.9809 -1.91689,-1.91694 -3.83392,-3.35465 -5.27159,-4.79236 0.95845,0.95848 1.9169,1.91695 2.87535,3.35465 9.58473,11.5016 -0.47923,28.2749 -11.0224,38.3388 -7.66771,7.18852 -21.5656,24.9202 -41.6934,8.14699 -4.31314,-3.83388 -14.3771,11.9809 -9.10551,24.441 z"
           id="path40" />
        <path
           d="m 1045.79,449.563 c -3.3547,7.66776 -23.9618,17.7317 -47.4443,4.79235 -16.294,-9.10547 -26.8372,-22.0448 -37.3804,-45.0481 -2.39625,-5.75082 -3.83392,-12.9394 2.87534,-17.2525 5.27159,-3.83388 13.8979,-8.14701 17.7317,-11.9809 1.91702,-1.91694 3.35469,-3.35465 5.27159,-4.79236 -0.95845,0.95848 -1.9169,1.91695 -2.87535,3.35465 -9.58473,11.5016 0.47923,28.2749 10.5432,38.3388 7.66772,7.18852 22.04482,24.9202 42.17272,8.14699 4.3132,-3.83388 13.8978,11.9809 9.1055,24.441 z"
           id="path42" />
        <path
           d="m 900.105,490.778 c 38.3388,0 97.2848,-17.2525 128.914,-77.6361 5.2716,-10.0639 0,-15.3355 -6.23,-18.6902 -6.7093,-2.87541 -14.8564,-9.58471 -19.1694,-13.8978 7.6677,7.66778 6.2301,12.9394 0.9585,21.5656 -24.4411,40.735 -57.9875,61.3421 -104.473,61.3421 -46.4859,0 -80.0323,-20.6071 -104.473,-61.3421 -5.27159,-8.62625 -6.70939,-13.8978 0.47922,-21.5656 -3.83392,4.31312 -12.4602,11.0224 -19.1695,13.8978 -6.23004,3.35465 -11.5016,8.62623 -6.23004,18.6902 31.6295,60.3837 91.0547,77.6361 129.394,77.6361 z"
           id="path44" />
      </g>
      <g
         id="motto2"
         fill="#c8102e">
        <path
           d="m 811.446,409.787 c -0.95847,-4.79235 -7.18853,-2.87541 -9.10547,2.87541 -2.39617,-3.35464 -4.79235,-6.70929 -6.70929,-10.5432 -5.75083,-8.62623 -6.7093,-14.3771 1.4377,-22.5241 3.83389,-3.83388 11.5016,-8.147 16.7732,-3.35464 11.0224,9.10547 5.27159,23.9618 -2.39618,33.5465 z"
           id="path47" />
        <path
           d="m 988.284,409.787 c 0.95847,-4.79235 7.66776,-2.87541 9.5847,2.87541 2.3962,-3.35464 4.7924,-6.70929 6.7093,-10.5432 5.7509,-8.62623 6.7093,-14.3771 -1.9169,-22.5241 -3.35469,-3.83388 -11.02244,-8.147 -16.77324,-3.35464 -10.5432,9.10547 -5.27159,23.9618 2.39618,33.5465 z"
           id="path49" />
        <path
           d="m 754.417,449.563 c -4.79236,-7.18853 -8.62624,-25.8787 -9.58471,-30.6711 -1.43771,-4.31312 -1.91694,-8.147 3.35465,-10.0639 5.27159,-1.91694 10.0639,4.79235 12.4601,10.5432 2.39617,5.75082 6.23006,14.3771 10.5432,24.9202 -10.5432,-6.23006 -19.1694,-1.91695 -16.7732,5.27158 z"
           id="path51" />
        <path
           d="m 1045.79,449.563 c 4.3131,-7.18853 8.147,-25.8787 9.5847,-30.6711 0.9585,-4.31312 1.9169,-8.147 -3.3547,-10.0639 -5.2715,-1.91694 -10.0639,4.79235 -12.4601,10.5432 -2.3962,5.75082 -6.23,14.3771 -10.5432,24.9202 10.5432,-6.23006 18.6902,-1.91695 16.7733,5.27158 z"
           id="path53" />
      </g>
      <g
         fill="#00493d"
         stroke="none"
         id="g108">
        <path
           d="m 782.213,406.432 -3.83389,1.91694 c -0.95847,0.47924 -0.95847,1.43771 -0.95847,1.91695 h -0.47923 l -1.91694,-4.31312 h 0.47923 c 0,0.47923 0.47924,0.95847 1.43771,0.47923 l 8.147,-4.31312 c 0.95847,-0.47923 0.95847,-0.95847 0.47923,-1.4377 l 0.47924,-0.47924 2.39618,4.79236 h -0.47924 c -0.47923,-0.47924 -0.95847,-0.95847 -1.91694,-0.47924 l -3.35465,1.91694 1.43771,2.87542 3.83388,-1.43771 c 0.95847,-0.47924 0.47924,-1.43771 0.47924,-1.91694 h 0.47923 l 1.91694,4.31312 c -0.47923,-0.47924 -0.95847,-0.95847 -1.91694,-0.47924 l -8.147,4.31312 c -0.95847,0.47923 -0.95847,0.95847 -0.47923,1.4377 l -0.47924,0.47924 -2.39618,-4.31312 0.47924,-0.47923 c 0.47923,0.47923 0.95847,0.95847 1.91694,0.47923 l 3.83388,-1.91694 z"
           id="path56" />
        <path
           d="m 790.36,412.662 c 0.95847,-0.47923 0.95847,-0.95847 0.47923,-1.91694 h 0.47924 l 4.79235,7.18853 -3.35465,2.39618 v -0.47924 c 1.91695,-1.4377 1.91695,-3.35464 1.43771,-3.83388 -0.47923,-0.47924 -0.95847,-0.95847 -0.95847,-1.43771 -0.47924,0 -0.47924,-0.47923 -1.43771,0.47924 -0.47923,0.47923 -3.35464,2.39618 -3.35464,2.39618 0.47923,0.47923 0.95847,1.91694 3.35464,0.47923 h 0.47924 l -5.27159,3.83388 v -0.47923 c 2.39618,-1.91694 1.43771,-3.35465 0.95847,-3.83388 l -3.35465,2.39617 c -0.95847,0.47924 -0.95847,0.95847 -0.95847,1.43771 0.47924,0 0.47924,0.47923 0.95847,0.95847 0.47924,0.95847 1.91695,1.91694 4.31312,0.95847 l 0.47924,0.47924 -3.83389,1.4377 -4.79235,-7.66776 h 0.47924 c 0.47923,0.47923 0.95847,0.95847 1.91694,0.47923 z"
           id="path58" />
        <path
           d="m 798.027,430.873 -3.35464,2.87541 c -0.47924,0.47923 -0.47924,1.4377 0,1.91694 h -0.47924 l -3.35465,-3.35465 0.47924,-0.47923 c 0.47923,0.47923 0.95847,0.95847 1.91694,0 l 6.23006,-6.23006 c 0.95847,-0.47924 0.95847,-0.95847 0.47924,-1.91694 l 3.35464,3.83388 c -0.47923,-0.47924 -1.4377,-0.47924 -1.91694,0 l -2.87541,2.87541 2.39618,2.39618 2.87541,-2.39618 c 0.95847,-0.95847 0.47923,-1.43771 0,-1.91694 l 0.47923,-0.47924 3.35465,3.83389 h -0.47923 c -0.47924,0 -0.95848,-0.47924 -1.91695,0.47923 l -6.23006,5.75083 c -0.95847,0.95847 -0.95847,1.4377 -0.47923,1.91694 v 0.47923 l -3.35465,-3.83388 c 0.47924,0 1.43771,0.47924 1.91694,0 l 3.35465,-3.35465 z"
           id="path60" />
        <path
           d="m 805.216,440.937 1.43771,1.4377 c 1.91694,-4.31311 1.91694,-4.31311 1.91694,-4.31311 0,0 -1.4377,0.47923 -3.83388,1.91694 l 0.47923,0.95847 -0.47923,0.47923 -0.95847,-0.95847 c -0.47924,0.47924 -0.95847,0.47924 -1.43771,0.95847 -1.4377,0.95847 -0.95847,1.43771 -0.47923,1.91694 v 0.47924 l -2.39618,-2.39618 h 0.47924 l 1.91694,-0.47923 c 9.5847,-5.27159 9.5847,-5.27159 9.5847,-5.27159 l 0.47924,0.47923 c 0,0 -0.47924,0.47924 -4.79235,10.064 0,0.95847 -0.47924,1.4377 0,2.39617 l -3.83389,-3.35464 0.47924,-0.47924 c 0.47923,0.95847 1.4377,0.95847 1.91694,0 0,-0.47923 0.47923,-1.43771 0.47923,-1.91694 l -1.4377,-1.43771 0.47923,-0.47923 z"
           id="path62" />
        <path
           d="m 809.05,450.522 0.47923,-0.47924 c 0.47924,0.47924 0.95847,0.47924 1.91694,0 l 6.23006,-8.147 -0.47923,-0.47924 c -0.95847,-0.47923 -2.39618,-0.47923 -3.83388,0.95847 v -0.47923 l 1.91694,-2.39618 7.18853,5.27159 -2.39618,2.87541 h -0.47924 c 1.43771,-1.4377 0.95848,-3.35464 0,-3.83388 v -0.47924 l -6.23005,8.14701 c -0.95848,0.47923 -0.47924,1.4377 0,1.91694 h -0.47924 z"
           id="path64" />
        <path
           d="m 821.51,452.439 -2.39618,3.35464 c -0.47924,0.95847 0,1.43771 0.47923,1.91695 l -0.47923,0.47923 -3.83388,-2.87541 v -0.47924 c 0.95847,0.47924 1.4377,0.47924 1.91694,-0.47923 l 5.27159,-7.18853 c 0.47923,-0.95847 0,-1.43771 -0.47924,-1.91694 l 0.47924,-0.47924 3.83388,2.87541 v 0.47924 c -0.95847,-0.47924 -1.43771,-0.47924 -1.91694,0.47923 l -2.39618,3.35465 2.87541,1.91694 2.39618,-3.35464 c 0.47924,-0.95848 0,-1.43771 -0.47924,-1.91695 l 0.47924,-0.47923 3.83388,2.87541 v 0.47924 c -0.47923,-0.47924 -1.4377,-0.47924 -1.91694,0.47923 l -4.79235,7.66777 c -0.95847,0.47923 -0.47924,0.95847 0,1.4377 v 0.47924 l -4.31312,-2.87541 h 0.47924 c 0.47923,0 0.95847,0 1.4377,-0.47924 l 2.39618,-3.83388 z"
           id="path66" />
        <path
           d="m 831.095,465.857 0.47924,-0.47924 c 0.47923,0.47924 1.4377,0.47924 1.91694,-0.47923 l 3.83388,-8.14701 c 0.47924,-0.95847 0,-1.4377 -0.47923,-1.91694 l 8.147,3.83389 -1.91694,3.83388 -0.47924,-0.47924 c 1.43771,-1.91694 0,-3.83388 -0.47923,-4.31311 -0.47924,0 -0.95847,-0.47924 -1.43771,-0.47924 -0.47924,0 -0.47924,0 -0.95847,0.95847 -0.47924,0.47924 -1.91694,3.35465 -1.91694,3.35465 0.47923,0.47923 1.4377,1.4377 3.35465,-0.95847 h 0.47923 l -2.87541,5.75082 -0.47924,-0.47923 c 1.43771,-2.87542 -0.47923,-3.35465 -0.95847,-3.35465 l -1.91694,3.83388 c -0.47923,0.95847 0,1.43771 0.47924,1.43771 v 0.47923 z"
           id="path68" />
        <path
           d="m 844.992,472.567 c -1.43771,-0.95847 -1.43771,-3.83388 0,-6.70929 0.95847,-2.87542 2.87541,-5.27159 4.79235,-4.31312 1.43771,0.47923 0.95847,3.35465 0,6.23006 -1.4377,3.35465 -3.35465,5.27159 -4.79235,4.79235 h -0.47924 c 3.35465,1.43771 5.75083,-0.47923 7.18853,-3.83388 1.43771,-2.87541 0.95847,-6.23006 -1.91694,-7.66777 -2.87541,-1.4377 -5.75082,0.47924 -7.18853,3.83389 -1.4377,3.35464 -0.95847,6.70929 1.91694,7.66776 z"
           id="path70" />
        <path
           d="m 859.849,473.525 1.91695,-5.75082 c 0.47923,-0.95847 0,-1.43771 -0.47924,-1.91694 l 2.39618,0.47923 v 0.47924 c -0.47924,0 -0.95847,0 -1.43771,0.95847 l -1.91694,5.75082 c -0.95847,2.39618 -2.39618,4.31312 -5.27159,3.35465 -1.91694,-0.47924 -3.35465,-2.87541 -2.39618,-5.27159 l 2.39618,-6.23006 c 0.47924,-0.95847 0,-1.4377 -0.47923,-1.91694 v -0.47924 l 4.31311,1.91695 v 0.47923 c -0.47923,-0.47923 -1.4377,-0.47923 -1.4377,0.47924 l -2.39618,6.23006 c -0.47923,1.91694 -0.47923,3.83388 0.95847,4.31311 1.43771,0.47924 2.87541,-0.47923 3.83388,-2.87541 z"
           id="path72" />
        <path
           d="m 864.162,467.295 c 0,-0.47923 0,-0.47923 -0.47923,-0.47923 l 3.35464,0.47923 2.87542,9.10547 1.4377,-5.75082 c 0.47924,-0.95847 0,-1.43771 -0.47923,-1.91694 l 2.87541,0.47923 -0.47924,0.47924 c -0.47923,0 -0.95847,0 -1.4377,0.95847 l -2.39618,10.5432 h -0.47923 l -3.83389,-11.5016 -2.39617,7.66776 c 0,1.43771 0.47923,1.43771 0.95847,1.91695 v 0.47923 l -2.87542,-0.95847 v -0.47923 c 0.47924,0.47923 1.43771,0 1.43771,-0.95848 l 2.39618,-8.62623 -0.47924,-1.43771 z"
           id="path74" />
        <path
           d="m 880.456,476.88 c -0.95847,4.31312 -2.87541,5.27159 -3.83388,5.27159 h -0.95847 c 0,0 -0.47923,-0.47924 0,-0.95847 l 1.43771,-9.58471 c 0.47923,-0.47923 0.47923,-0.95847 0.95847,-0.47923 h 0.95847 c 0.95847,0 1.91694,1.91694 1.4377,5.75082 l 1.43771,0.47923 c 0.95847,-4.79235 -0.95847,-6.70929 -3.35465,-7.18853 -1.91694,-0.47923 -4.79235,-0.95847 -4.79235,-0.95847 v 0.47924 c 0.47923,0.47923 1.43771,0.47923 0.95847,1.91694 l -1.43771,8.62624 c -0.47923,0.95847 -0.95847,1.4377 -1.4377,1.4377 h -0.47924 l 4.79236,0.95847 c 2.39617,0.47924 4.79235,0 5.75082,-5.27159 z"
           id="path76" />
        <path
           d="m 884.769,473.046 c 0,-0.95847 -0.95847,-1.43771 -1.4377,-1.43771 v -0.47923 l 8.62623,0.95847 -0.47923,3.83388 c 0,-2.39618 -1.43771,-3.35465 -2.39618,-3.35465 -0.47923,-0.47923 -0.95847,-0.47923 -1.43771,-0.47923 -0.47923,0 -0.47923,0 -0.47923,1.4377 0,0.47924 -0.47924,3.83388 -0.47924,3.83388 0.47924,0 1.91695,0.47924 2.87542,-2.39617 l -0.47924,6.23006 h -0.47923 c 0,-2.87541 -1.43771,-2.87541 -1.91695,-2.87541 l -0.47923,4.31311 c 0,0.95847 0,0.95847 0.47923,0.95847 l 0.95847,0.47924 c 1.43771,0 2.87542,-0.47924 3.83389,-3.35465 h 0.47923 l -0.95847,3.83389 -9.10547,-0.95848 c 0.95847,0 1.43771,-0.47923 1.91694,-1.4377 z"
           id="path78" />
        <path
           d="m 900.584,478.797 c 0,4.31312 -1.43771,5.75083 -2.87541,5.75083 -0.47924,-0.47924 -0.47924,-0.47924 -0.95847,-0.47924 l -0.47924,-0.47924 0.47924,-10.0639 c 0,-0.47923 0,-0.47923 0.47923,-0.47923 h 0.95847 c 0.95847,0 2.39618,1.4377 2.39618,5.75082 h 1.91694 c 0,-4.79235 -2.39618,-6.23006 -4.79235,-6.23006 -1.91694,-0.47923 -4.79236,-0.47923 -4.79236,-0.47923 v 0.47923 c 0.47924,0 1.43771,0.47924 1.43771,1.43771 l -0.47924,9.10547 c 0,0.95847 -0.47923,1.43771 -0.95847,1.43771 v 0.47923 h 4.31312 c 2.39618,0 4.79235,-0.95847 5.27159,-6.23006 H 900.584 Z"
           id="path80" />
        <path
           d="m 914.482,482.631 c 0,0.95847 0.47924,0.95847 1.43771,0.95847 v 0.47924 l -5.27159,0.47924 c 0.47924,-0.47924 1.43771,-0.95848 1.43771,-1.91695 l -0.95847,-9.10547 c -0.47924,-0.95847 -0.95847,-0.95847 -1.91694,-0.95847 v -0.47923 l 5.27158,-0.47924 c -0.47923,0.47924 -1.4377,0.95847 -0.95847,1.91694 z"
           id="path82" />
        <path
           d="m 919.274,483.589 v -0.47923 c 0.47923,0 0.95847,-0.47924 0.95847,-1.43771 l -1.91694,-10.0639 h -0.47924 c -0.95847,0.47924 -1.91694,1.43771 -1.4377,3.35465 h -0.47924 l -0.47924,-3.35465 8.62624,-1.43771 0.47924,3.35465 h -0.47924 c 0,-1.91694 -1.43771,-2.39617 -2.87541,-2.39617 h -0.47924 l 1.91694,10.0639 c 0,0.95847 0.47924,1.4377 1.43771,1.4377 v 0.47924 z"
           id="path84" />
        <path
           d="m 939.881,474.004 -1.91694,-5.75083 c 0,-0.95847 -0.95847,-0.95847 -1.43771,-0.95847 v -0.47923 l 2.39618,-0.95847 v 0.47923 c -0.47924,0.47924 -0.47924,0.47924 -0.47924,1.43771 l 1.91694,6.23006 c 0.47924,1.91694 0.47924,4.79235 -2.39617,5.75082 -1.91695,0.47924 -4.31312,-0.47923 -4.79236,-3.35465 l -1.91694,-6.23006 c -0.47923,-0.95847 -0.95847,-0.95847 -1.4377,-0.95847 l -0.47924,-0.47923 4.79235,-1.43771 v 0.47924 c -0.47923,0.47923 -0.95847,0.95847 -0.47923,1.91694 l 1.4377,6.23006 c 0.47924,1.91694 1.91695,2.87541 3.35465,2.87541 1.43771,-0.47923 1.91694,-2.39618 1.43771,-4.79235 z"
           id="path86" />
        <path
           d="m 945.153,470.65 c 2.39617,-0.95847 1.91694,-2.39618 1.4377,-3.83388 -0.47923,-1.43771 -1.4377,-2.39618 -2.39617,-1.91694 -0.47924,0 -0.95848,0.47923 -0.47924,0.95847 l 1.43771,4.79235 0.47923,0.47924 0.95847,3.83388 c 0.47924,0.95847 1.43771,0.95847 1.91694,0.47923 v 0.47924 l -4.31311,1.91694 -0.47924,-0.47924 c 0.95847,-0.47923 0.95847,-0.95847 0.95847,-1.91694 l -3.35465,-8.147 c -0.47923,-1.4377 -0.95847,-0.95847 -1.91694,-0.95847 v -0.47923 l 4.79236,-1.91694 c 1.91694,-0.47924 3.83388,0 4.79235,1.91694 0.47923,2.39617 -0.47924,3.83388 -2.39618,4.79235 -0.47923,0 -0.95847,0.47924 -0.95847,0.47924 z"
           id="path88" />
        <path
           d="m 957.134,472.087 c -1.43771,0.47923 -3.35465,-1.43771 -4.79235,-4.79236 -1.43771,-2.87541 -1.43771,-5.75082 0,-6.23006 1.4377,-0.47923 3.35464,1.43771 4.79235,4.31312 1.43771,2.87541 1.43771,5.75083 0,6.7093 2.87541,-0.95847 3.83388,-4.31312 2.39618,-7.66777 -1.43771,-2.87541 -4.31312,-4.79235 -7.18853,-3.83388 -2.87542,1.4377 -3.83389,4.79235 -2.39618,7.66776 1.43771,3.35465 4.31312,5.27159 7.18853,3.83389 z"
           id="path90" />
        <path
           d="m 957.613,458.669 h -0.47924 -0.47924 l 2.87542,-1.91695 8.62623,4.79236 -2.87541,-5.27159 c -0.47923,-0.95847 -1.43771,-0.95847 -1.91694,-0.95847 v -0.47924 l 2.39618,-0.95847 c -0.47924,0.47924 -0.95847,0.95847 0,1.91694 l 4.79235,9.58471 -0.47924,0.47924 -10.5432,-5.75083 3.83388,7.18853 c 0.47923,0.95847 1.43771,0.95847 1.91694,0.47924 v 0.47923 l -2.39618,1.43771 v -0.47924 c 0.47924,-0.47923 0.47924,-0.95847 0,-1.91694 l -3.83388,-7.66776 -1.4377,-0.95847 z"
           id="path92" />
        <path
           d="m 979.178,460.107 v -0.47923 c 0,-0.47924 0.47923,-0.95847 0,-1.91694 l -5.75083,-8.14701 h -0.47923 c -0.95847,0.47924 -1.43771,2.39618 0,3.83389 l -0.47924,0.47923 -1.91694,-3.35464 7.18853,-4.79236 1.91694,2.87541 c -1.4377,-1.4377 -2.87541,-1.4377 -3.83388,-0.95847 l -0.47924,0.47924 5.75083,8.147 c 0.47923,0.95847 1.4377,0.95847 1.91694,0.47923 v 0.47924 z"
           id="path94" />
        <path
           d="m 984.45,448.605 2.87541,3.35465 c 0.47923,0.47924 1.4377,0.47924 1.91694,0 v 0.47924 l -3.83388,3.35464 v -0.47923 c 0.47923,-0.47924 0.47923,-0.95847 0,-1.91694 l -5.75083,-7.18853 c -0.47923,-0.95847 -0.95847,-0.47924 -1.91694,-0.47924 l 3.83388,-3.35465 v 0.47924 c 0,0.47923 -0.47923,0.95847 0,1.91694 l 2.39618,2.87541 2.87541,-1.91694 -2.39617,-3.35465 c -0.47924,-0.95847 -1.43771,-0.47923 -1.91695,-0.47923 l 3.83389,-3.35465 v 0.47924 c -0.47924,0.47923 -0.47924,0.95847 0,1.91694 l 5.75082,7.18853 c 0.47924,0.47923 0.95847,0.47923 1.43771,0 l 0.47923,0.47923 -3.83388,3.35465 -0.47924,-0.47923 c 0.47924,-0.47924 0.95847,-0.95847 0.47924,-1.91695 l -2.87541,-3.35464 z"
           id="path96" />
        <path
           d="m 988.763,438.541 c -0.47923,-0.47923 -1.4377,-0.47923 -1.91694,0 v -0.47923 l 6.23006,-5.75083 2.87541,2.87541 h -0.47923 c -1.43771,-1.91694 -3.35465,-0.95847 -4.31312,-0.47923 0,0.47923 -0.47924,0.47923 -0.95847,0.95847 0,0 0,0.47923 0.47923,1.43771 0.47924,0.47923 2.87542,2.87541 2.87542,2.87541 0.47923,-0.47924 1.91694,-1.43771 0,-3.83389 h 0.47923 l 3.83388,4.31312 v 0.47924 c -2.39617,-2.39618 -3.35464,-0.95847 -3.83388,-0.47924 l 2.87541,2.87541 c 0.47924,0.95848 0.95847,0.95848 0.95847,0.95848 0.47924,-0.47924 0.95848,-0.95848 1.43771,-1.43771 0.47924,-0.47924 0.95842,-1.91694 0,-4.79235 h 0.47924 l 1.91688,3.35464 -6.23,6.23006 -0.47924,-0.47923 c 0.47924,-0.47924 0.95847,-0.95847 0,-1.91694 z"
           id="path98" />
        <path
           d="m 1000.26,425.122 c -0.47921,0.47924 -0.47921,1.43771 0.4793,1.91694 0.9584,0.95847 1.9169,0.95847 3.8338,0 0.9585,-0.47923 2.8755,-0.95847 4.3132,0.47924 2.3961,2.39618 1.4377,4.31312 0.9584,5.27159 -0.4792,0.47923 -1.4377,0.95847 -1.9169,1.4377 -0.4792,0 -0.4792,0 -0.4792,0.47924 v 0.47923 l -3.3547,-2.87541 h 0.4792 c 1.917,0.95847 3.8339,1.43771 4.7924,0 0.9585,-0.95847 0,-1.91694 -0.4792,-2.39617 -0.9585,-0.95848 -1.917,-0.95848 -3.3547,0 -1.4377,0.47923 -3.3546,0.47923 -4.7923,-0.47924 -1.91698,-1.91694 -1.91698,-3.35465 -0.95851,-4.79235 0.47921,-0.47924 1.43771,-0.95847 1.91691,-1.43771 0.4793,0 0.4793,0 0,-0.95847 l 3.3547,2.39618 h -0.4793 c -2.3961,-0.95847 -3.8338,-0.47924 -4.3131,0.47923 z"
           id="path100" />
        <path
           d="m 1004.58,421.288 c -0.9584,-0.47924 -1.4377,0 -1.9169,0.47923 h -0.4792 l 5.2716,-7.66776 3.3546,2.39618 -0.4792,0.47923 c -1.917,-1.43771 -3.8339,-0.47923 -4.3132,0 0,0.47924 -0.4792,0.95847 -0.4792,1.43771 -0.4792,0 -0.4792,0.47923 0.4792,0.95847 0.4793,0.47923 3.3547,2.39617 3.3547,2.39617 0.4792,-0.47923 1.4377,-1.4377 -0.4792,-3.35464 v -0.47924 l 4.7923,3.83388 c -2.8754,-1.4377 -3.3546,0 -3.8339,0.47924 l 3.3547,2.39618 c 0.9584,0.47923 1.4377,0.47923 1.4377,0.47923 0,-0.47923 0.4792,-0.95847 0.9585,-1.4377 0.4792,-0.95848 0.9584,-2.39618 -0.9585,-4.31312 l 0.4792,-0.47924 2.3962,2.87541 -4.7924,7.18853 h -0.4792 c 0.4792,-0.95847 0.4792,-1.4377 -0.4792,-2.39617 z"
           id="path102" />
        <path
           d="m 1017.52,412.662 -1.4377,2.39618 c -1.917,-1.91694 -2.8754,-3.35465 -2.8754,-3.35465 l 4.3131,0.95847 h 0.9585 c 0.4792,0 1.4377,0.47924 1.9169,0.47924 1.4377,0.47923 0.9585,0.95847 0.4792,1.91694 h 0.4793 l 2.3962,-4.31312 c -0.9585,0.95847 -1.4378,0.47924 -2.3962,0.47924 -10.064,-1.91694 -11.0224,-2.39618 -11.0224,-2.39618 v 0.47924 l 7.6677,8.62623 c 0.4793,0.47924 0.4793,1.43771 0.4793,1.91694 h 0.4792 l 1.4377,-2.39617 -0.4792,-0.47924 c -0.4793,0.95847 -0.9585,1.43771 -1.917,0 -0.4792,-0.47923 -0.9584,-0.95847 -0.9584,-0.95847 l 1.4377,-3.35465 z"
           id="path104" />
        <path
           d="m 1014.64,402.119 c -0.4793,0.47924 -0.4793,1.43771 0.9585,1.91695 1.4377,0.47923 1.9169,0 3.3546,-0.95847 1.4377,-0.95848 2.8754,-1.91695 4.7924,-0.95848 2.8754,1.43771 2.3961,3.83389 1.9169,4.79236 -0.4792,0.47923 -0.9585,1.4377 -1.4377,1.91694 v 0.47924 0.47923 l -3.8339,-1.91694 c 2.3962,0.47923 4.3131,0 4.7924,-1.43771 0.4792,-0.95847 -0.4793,-1.91694 -0.9585,-2.39617 -0.9585,-0.47924 -1.917,0 -3.3547,0.95847 -1.4377,1.4377 -2.8754,1.91694 -4.7923,0.95847 -1.917,-0.95847 -2.8754,-2.39618 -1.917,-3.83389 0,-0.95847 0.9585,-1.4377 1.4378,-1.91694 0,-0.47923 0,-0.47923 -0.4793,-0.95847 v -0.47923 l 3.8339,1.91694 h -0.4792 c -2.3962,-0.47924 -3.8339,0.47923 -3.8339,1.4377 z"
           id="path106" />
      </g>
    </g>
    <g
       id="crest">
      <g
         id="rope"
         fill="#073163">
        <path
           fill="#ffffff"
           d="m 863.203,232.47 c -6.23006,1.43771 -10.5432,1.91694 -16.294,-3.35465 -3.83388,-3.83388 -2.87541,-10.5432 0.95847,-12.9394 4.31312,-2.87541 8.147,-4.79235 13.4186,-3.35465 5.27159,1.43771 19.1694,14.3771 15.8148,14.8563 -3.35465,0 -8.62624,3.35464 -13.8978,4.79235 z"
           id="path111" />
        <path
           fill="#ffffff"
           d="m 878.06,209.466 c 1.91694,-1.4377 4.31312,-2.39617 10.5432,-2.87541 5.75082,-0.47923 10.0639,-0.47923 11.5016,3.83388 1.91694,5.27159 3.35465,11.5016 7.18853,14.3771 -2.39617,1.4377 -14.3771,2.87541 -18.6902,0.47923 -5.75083,-2.87541 -7.18854,-13.8978 -10.5432,-15.8148 z"
           id="path113" />
        <path
           fill="#ffffff"
           d="m 919.274,209.946 c 1.91694,-1.43771 4.31312,-1.43771 10.5432,-0.95847 6.23005,0.47923 8.62623,0.95847 10.0639,5.27159 1.4377,4.79235 0,11.0224 2.87541,15.3355 -2.87541,0.95847 -12.4601,0.95847 -15.8148,-2.39618 -5.27159,-3.83388 -4.79235,-14.8563 -7.66776,-17.2525 z"
           id="path115" />
        <path
           d="m 948.028,212.821 c -4.31312,-0.95847 -7.18853,-1.4377 -9.10547,0 2.39617,2.87541 0.47923,14.3771 5.27159,18.2109 3.35464,2.39618 11.9809,2.87542 13.8978,-2.39617 2.39618,-4.79236 2.39618,-11.9809 -10.0639,-15.8148 z"
           id="path117" />
        <path
           d="m 898.667,208.029 c 1.4377,-1.43771 4.31312,-1.91694 10.0639,-1.91694 6.23006,0 10.0639,0.95847 11.9809,4.79235 1.91694,4.79235 1.43771,11.0224 4.79236,14.8563 -1.43771,1.91694 -14.3771,1.91694 -18.211,-0.95847 -5.27159,-3.35465 -5.75082,-14.3771 -8.62623,-16.7732 z"
           id="path119" />
        <path
           d="m 857.932,212.342 c 0,-2.39618 3.35465,-2.87542 11.9809,-3.35465 8.62623,-0.95847 9.10547,-0.47924 11.9809,5.75082 1.43771,3.35465 3.35465,9.10547 7.18853,11.0224 -10.5432,2.39617 -13.8978,3.83388 -19.6486,0.47923 -4.31312,-2.39618 -9.10547,-8.147 -10.0639,-10.5432 -0.47924,-1.4377 -0.47924,-2.87541 -1.43771,-3.35464 z"
           id="path121" />
      </g>
      <g
         fill="#f9d050"
         stroke-width="0.6469"
         id="g200">
        <g
           id="pineapple1">
          <path
             d="m 880.935,163.46 c -10.0639,-7.66777 -22.0448,-14.8563 -33.0672,-16.294 7.18853,4.31312 27.3164,20.1279 32.588,25.3995"
             id="path124" />
          <path
             d="m 886.686,156.271 c -11.9809,-8.147 -25.8787,-17.2525 -39.2973,-18.2109 10.064,5.27159 24.9202,17.7317 33.0672,27.7956"
             id="path126" />
          <path
             d="m 902.021,142.853 c 6.7093,-14.8563 13.8978,-23.0033 23.4825,-32.1088 -4.79236,10.0639 -10.064,30.6711 -12.4601,38.8181"
             id="path128" />
          <path
             d="m 912.565,140.457 c 4.79236,-10.5432 11.9809,-19.6486 24.441,-25.3995 -6.23006,6.23006 -15.8148,24.9202 -18.211,34.9842"
             id="path130" />
          <path
             d="m 916.878,150.041 c 5.75082,-8.147 17.2525,-23.4825 37.8596,-31.6295 -11.9809,11.9809 -29.7126,34.0257 -34.0257,42.6519"
             id="path132" />
          <path
             d="m 923.587,160.584 c 8.62623,-4.79236 25.8787,-12.4601 38.3388,-10.0639 -7.66776,2.87541 -30.6711,13.4186 -40.735,23.0033"
             id="path134" />
          <path
             d="m 921.67,157.23 c 8.14701,-8.62624 23.0033,-21.5656 38.8181,-26.8372 -11.5016,11.0224 -35.9426,35.9426 -39.2973,39.7765"
             id="path136" />
          <path
             d="m 898.667,151.958 c -5.75083,-17.7317 -14.3771,-34.5049 -27.3164,-39.7765 7.18853,10.5432 16.294,25.8787 21.0864,48.882"
             id="path138" />
          <path
             d="m 887.644,151.479 c -9.5847,-11.5016 -22.5241,-23.0033 -37.3804,-25.3995 10.0639,5.75083 26.8372,22.5241 33.0672,38.8181"
             id="path140" />
          <path
             d="m 892.916,151 c -11.9809,-21.5656 -21.0864,-25.3995 -26.3579,-29.7126 4.31312,8.147 14.8563,29.7126 21.0864,38.8181"
             id="path142" />
          <path
             fill="none"
             d="m 868.954,149.562 c 5.75082,3.35464 14.3771,11.5016 17.2525,16.7732"
             id="path144" />
          <path
             d="m 868.954,159.626 c 2.87541,2.39617 8.147,5.27159 12.9394,9.5847"
             id="path146" />
          <path
             d="m 925.983,166.814 c 4.79236,-3.83388 15.3355,-10.0639 20.6071,-11.9809"
             id="path148" />
          <path
             d="m 922.629,163.46 c 4.79236,-6.23006 14.3771,-14.8563 17.7317,-17.7317"
             id="path150" />
          <path
             d="m 936.047,133.747 c -4.31311,4.79235 -14.3771,16.7732 -18.2109,22.5241"
             id="path152" />
          <path
             d="m 923.587,129.434 c -3.35465,4.31312 -10.064,16.7732 -11.9809,21.0864"
             id="path154" />
          <path
             d="m 885.727,130.393 c 2.87542,7.66777 8.147,20.6071 10.064,25.8787"
             id="path156" />
          <path
             d="m 881.414,138.54 c 1.91695,2.87541 5.75083,9.58471 7.18854,14.3771"
             id="path158" />
        </g>
        <g
           id="pineapple2">
          <path
             d="m 897.708,136.143 c 0,-4.31312 2.87541,-9.10548 5.75082,-9.10548 3.35465,0 5.75083,5.75083 5.75083,9.10548 0,3.83388 -2.87542,7.18853 -5.75083,7.18853 -2.87541,0 -5.75082,-2.87542 -5.75082,-7.18853 z"
             id="path161" />
          <path
             d="m 891.478,139.977 c 0.47923,-4.79236 3.83388,-8.62624 6.70929,-8.147 2.87541,0.47923 4.31312,6.23006 3.83388,9.5847 -0.47923,3.83389 -3.83388,6.7093 -6.23005,6.23006 -2.39618,0 -4.79236,-3.35464 -4.31312,-7.66776 z"
             id="path163" />
          <path
             d="m 904.418,141.415 c -0.95847,-4.31311 0.95847,-9.10547 3.83388,-9.5847 2.87542,-0.47924 5.75083,4.31312 6.23006,8.147 0.95847,3.83388 -1.4377,7.66776 -3.83388,7.66776 -2.39618,0.47924 -5.75082,-1.91694 -6.23006,-6.23006 z"
             id="path165" />
          <path
             d="m 897.229,145.249 c 0,-4.79236 2.87541,-9.10547 5.75083,-9.10547 3.35464,0 5.75082,5.27158 5.75082,9.10547 0,3.83388 -2.87541,7.18853 -5.75082,7.18853 -2.87542,0 -5.75083,-2.87541 -5.75083,-7.18853 z"
             id="path167" />
          <path
             d="m 888.603,147.645 c 0,-4.31311 3.35464,-9.10547 6.23005,-9.10547 2.87542,0 5.75083,5.75083 5.75083,9.10547 0,3.83389 -3.35465,7.18853 -5.75083,7.18853 -2.87541,0 -6.23005,-2.87541 -6.23005,-7.18853 z"
             id="path169" />
          <path
             d="m 906.335,145.728 c 0,-4.31312 2.87542,-9.10547 5.75083,-9.10547 3.35464,0 5.75082,5.75083 5.75082,9.10547 0,3.83389 -2.87541,7.18853 -5.75082,7.18853 -2.87541,0 -5.75083,-2.87541 -5.75083,-7.18853 z"
             id="path171" />
          <path
             d="m 904.418,149.562 c 0,-4.79236 3.35465,-9.10548 6.23006,-9.10548 2.87541,0 5.75083,5.27159 5.75083,9.10548 0,3.83388 -2.87542,7.18853 -5.75083,7.18853 -2.87541,0 -6.23006,-2.87542 -6.23006,-7.18853 z"
             id="path173" />
          <path
             d="m 896.75,153.875 c 0,-4.79235 2.87541,-9.10547 5.75082,-9.10547 3.35465,0 5.75082,5.75083 5.75082,9.10547 0,3.83389 -2.87541,7.18853 -5.75082,7.18853 -2.87541,0 -5.75082,-2.87541 -5.75082,-7.18853 z"
             id="path175" />
          <path
             d="m 884.769,153.875 c 0,-4.79235 2.39618,-9.10547 4.79236,-9.10547 2.39617,0 4.31311,5.75083 4.31311,9.10547 0,3.83389 -2.39617,7.18853 -4.31311,7.18853 -2.39618,0 -4.79236,-2.87541 -4.79236,-7.18853 z"
             id="path177" />
          <path
             d="m 911.606,152.917 c 0,-4.31312 2.39618,-8.62623 4.79236,-8.62623 2.39617,0 4.79235,5.27159 4.79235,8.62623 0,4.31312 -2.87541,7.18853 -4.79235,7.18853 -2.39618,0 -4.79236,-2.87541 -4.79236,-7.18853 z"
             id="path179" />
          <path
             d="m 914.482,161.064 c 0.95847,-4.79235 3.83389,-8.62623 5.75083,-8.147 1.91694,0.47924 2.39617,6.23006 1.4377,9.58471 -0.47923,4.31312 -3.35464,6.70929 -5.27158,6.23006 -1.91695,-0.47924 -2.87542,-3.83388 -1.91695,-7.66777 z"
             id="path181" />
          <path
             d="m 905.376,159.626 c 0.47924,-4.31312 3.35465,-8.62624 5.75083,-8.147 2.87541,0 4.31311,5.75082 3.83388,9.10547 -0.47924,4.31312 -2.87541,7.18853 -5.27159,6.70929 -2.39618,0 -4.79235,-3.35464 -4.31312,-7.66776 z"
             id="path183" />
          <path
             d="m 891.958,161.064 c -1.4377,-4.79235 -4.31312,-8.147 -6.23006,-7.66776 -1.91694,0.47923 -2.39617,6.23006 -1.4377,9.58471 0.95847,3.83388 3.83388,6.23005 5.75082,5.75082 1.43771,-0.47924 2.87541,-3.83388 1.91694,-7.66777 z"
             id="path185" />
          <path
             d="m 888.603,160.105 c 0,-4.31312 2.39617,-8.62623 4.79235,-8.62623 2.87541,0 4.79235,5.27159 4.79235,8.62623 0,4.31312 -2.39617,7.18853 -4.79235,7.18853 -1.91694,0 -4.79235,-2.87541 -4.79235,-7.18853 z"
             id="path187" />
          <path
             d="m 895.791,162.022 c 0,-4.79235 2.87541,-9.10547 5.75082,-9.10547 3.35465,0 5.75082,5.27159 5.75082,9.10547 0,3.83389 -2.87541,7.18853 -5.75082,7.18853 -2.87541,0 -5.75082,-2.87541 -5.75082,-7.18853 z"
             id="path189" />
          <path
             d="m 898.188,109.306 c -0.95847,3.83388 -4.31312,7.18853 -1.91694,12.4601 -4.31312,-1.43771 -8.147,-1.91695 -11.5016,1.91694 4.31312,-0.47924 8.147,0.95847 10.0639,3.83388 -3.83388,-0.47924 -5.75082,1.43771 -6.70929,3.83388 3.35465,-0.95847 6.70929,-1.91694 8.147,-1.4377 -1.43771,1.4377 -3.83388,3.83388 -4.31312,5.75082 2.87541,-2.39618 6.23006,-1.91694 8.147,-3.35465 -1.4377,3.35465 1.43771,6.7093 3.83389,10.064 -0.47924,-4.79236 2.39617,-8.14701 0.95847,-10.5432 4.31312,0.95847 4.79235,4.79235 11.0224,4.79235 -2.39618,-1.43771 -3.83388,-6.23006 -6.70929,-6.23006 1.4377,-0.47923 7.18853,-0.95847 8.147,0 -0.95847,-1.91694 -4.31312,-3.83388 -6.23006,-3.83388 1.91694,-1.91694 5.27159,-5.75083 7.66776,-6.7093 -3.35465,0.47924 -8.62623,0.95847 -10.5432,3.83389 4.79236,-3.83389 3.83389,-11.0224 9.10548,-11.9809 -2.87542,-0.47923 -7.18853,1.43771 -10.5432,4.79236 1.4377,-2.87542 1.4377,-6.7093 3.35465,-7.66777 -3.83389,0.95847 -8.14701,5.75082 -9.58471,8.147 0,-2.39618 -1.43771,-6.23006 -2.39618,-7.66776 z"
             id="path191" />
          <path
             d="m 900.584,116.974 c 0,1.43771 0,4.31312 -0.47924,5.27159"
             id="path193" />
          <path
             d="m 906.814,116.495 c -0.95847,0.95847 -2.87541,4.31311 -2.87541,7.18853"
             id="path195" />
          <path
             fill="none"
             d="m 909.689,122.246 c -1.43771,0.95847 -2.87541,2.39618 -3.35465,4.31312"
             id="path197" />
        </g>
      </g>
      <g
         id="turtle"
         fill="#059334">
        <path
           d="m 858.89,169.69 c -3.35464,0 -6.23006,-1.43771 -8.147,-3.83388 -3.35465,-4.31312 -12.4601,-6.23006 -16.294,-2.39618 -1.43771,0.95847 -3.35465,0.95847 -4.79235,1.43771 -2.39618,0 -5.27159,2.39617 -4.31312,7.18853 1.91694,-1.43771 2.39618,0 3.83388,0 0.95847,-0.47924 0.47924,0.47923 0.47924,1.4377 0,2.39618 5.27159,7.18853 10.0639,6.7093 5.27159,0 7.66776,1.91694 8.62624,2.87541 1.4377,1.43771 0.47923,0.95847 1.4377,3.35465 1.43771,1.4377 1.91694,1.91694 -0.47923,3.83388 -3.35465,2.87541 -5.75083,9.58471 0,14.8563 6.23006,4.79235 22.0448,11.9809 39.7765,-1.91695 17.2525,-13.4186 44.0896,-5.75082 46.0066,-0.95847 2.39618,4.79236 3.35465,7.66777 3.83389,10.064 0.47923,1.91694 2.87541,3.83388 6.23006,3.35464 3.35464,0 7.18853,1.43771 9.10547,2.87542 2.39617,1.4377 5.75082,0.95847 4.79235,-3.35465 -1.91694,-13.4186 -10.0639,-15.3355 -11.0224,-21.5656 4.79235,0.47923 8.147,0.47923 10.0639,-1.43771 1.43771,-1.91694 3.35465,-5.27159 5.27159,-6.23006 1.43771,-0.95847 1.43771,-1.91694 -0.47924,-1.4377 -2.39617,0.47923 -3.83388,1.4377 -8.147,0.95847 -22.0448,-2.39618 -83.8662,-19.1694 -95.8471,-15.8148 z"
           id="path202" />
        <path
           fill="#000000"
           d="m 956.654,185.984 c -2.39617,1.43771 -4.79235,3.83388 -9.10547,9.58471 -4.79235,6.23006 -19.1694,12.4601 -36.9011,12.4601 -17.2525,0 -27.7956,-2.87541 -35.4634,-9.10547 -4.31312,-3.35465 -7.66777,-5.27159 -10.5432,-6.7093 -5.27159,-2.39618 -6.23006,-7.66776 -4.79236,-11.9809 -1.4377,2.39617 -2.39617,4.79235 -5.27158,4.31312 -1.91695,0 -5.75083,0 -4.79236,1.91694 -0.47923,-0.95847 -0.47923,-2.39618 -0.95847,-2.87541 -0.47923,-0.47924 -0.95847,-0.95848 -0.95847,-0.95848 1.43771,0.95848 4.79235,-1.91694 7.18853,-1.91694 1.91694,0.47924 4.31312,-1.91694 3.83388,-4.79235 -0.47923,-2.39618 -0.95847,-4.31312 -1.4377,-6.23006 3.83388,-1.91694 54.1536,7.18853 64.2175,8.147 10.064,0.47924 38.8181,4.79235 34.9842,8.147 z"
           id="path204" />
        <path
           d="m 865.6,167.773 c 4.79235,-4.79235 10.5432,-7.18853 16.294,-5.75083 h 1.43771 c 2.87541,-2.39617 9.5847,-2.87541 13.4186,-0.95847 h 1.91694 c 5.75082,-1.91694 16.7732,0 20.6071,3.83389 l 1.4377,0.95847 c 12.9394,-0.95847 20.6071,4.79235 29.7126,13.8978 0.95847,0.95847 2.39617,2.87541 4.79235,3.35465 2.87541,0.47924 3.35465,1.91694 0.95847,3.35465 -2.87541,1.4377 -5.27159,3.83388 -10.0639,9.10547 -4.31312,5.75082 -18.211,11.5016 -35.4634,11.5016 -16.7732,0 -26.8372,-2.87541 -34.5049,-8.62624 -4.31312,-3.35465 -7.66777,-5.27159 -10.064,-6.70929 -2.87541,-0.95847 -6.70929,-4.79236 -5.27159,-8.62624 0.95848,-3.83388 -1.4377,-8.62624 -3.35464,-13.4186 1.4377,-0.95847 5.27159,-2.39618 7.18853,-1.43771 l 0.95847,-0.47923 z"
           id="path206" />
        <g
           fill="#00493d"
           id="g224">
          <path
             d="m 950.424,179.754 c -9.10548,-9.10547 -16.7732,-14.8563 -29.7126,-13.8978 0,0.47923 0,1.91694 -0.47923,2.87541 7.66776,2.87541 18.6902,11.5016 23.4825,17.7317 1.91694,-1.91694 5.27159,-4.31312 6.7093,-6.7093 z"
             id="path208" />
          <path
             d="m 919.274,164.898 c -3.83389,-3.83389 -14.8563,-5.75083 -20.6071,-3.83389 0,1.91695 0,4.79236 -0.95847,6.7093 3.35464,1.4377 6.23006,4.79235 9.10547,8.147 1.91694,-0.47924 6.70929,-1.91694 9.10547,-2.39618 0.95847,-1.91694 2.87541,-6.23006 3.35465,-8.62623 z"
             id="path210" />
          <path
             d="m 896.75,161.064 c -3.83389,-1.91694 -10.5432,-1.4377 -13.4186,0.95847 -0.95847,1.91695 -1.43771,5.75083 -1.43771,7.66777 1.91694,0 4.79235,1.43771 5.75082,2.39618 2.87542,-0.95847 6.7093,-2.87542 8.14701,-4.31312 0.47923,-1.91694 1.4377,-4.79235 0.95847,-6.7093 z"
             id="path212" />
          <path
             d="m 865.6,167.773 c 4.79235,-4.79235 10.5432,-7.18853 16.294,-5.75083 -0.95847,1.43771 -1.43771,4.31312 -1.43771,7.18853 -5.27158,-0.47923 -11.9809,0.95848 -14.8563,2.87542 V 167.773 Z"
             id="path214" />
          <path
             d="m 941.798,187.422 c -4.31312,-6.23006 -14.8563,-13.4186 -22.0448,-16.7732 0,0.47924 -0.95847,2.39618 -1.4377,3.83388 2.87541,4.31312 8.62623,13.8978 11.0224,19.1694 2.39618,-0.95847 9.10547,-3.83389 12.4601,-6.23006 z"
             id="path216" />
          <path
             d="m 905.376,197.965 c 0.95847,-6.7093 1.43771,-16.294 1.43771,-19.6486 2.39618,-0.47924 7.18853,-1.91694 9.10547,-2.39618 2.39618,3.83388 8.147,13.8978 10.5432,18.6902 -5.75083,1.4377 -15.3355,3.83388 -21.0864,3.35465 z"
             id="path218" />
          <path
             d="m 888.603,174.961 c 2.39617,-0.95847 5.75082,-2.87541 8.147,-4.79235 1.91694,1.4377 5.75082,4.79235 7.18853,6.70929 0,4.31312 -1.43771,16.7732 -1.91695,21.0864 -3.83388,0 -10.0639,-0.95847 -13.4186,-2.87542 0.47923,-7.18853 0.95847,-15.3355 0,-20.1279 z"
             id="path220" />
          <path
             d="m 864.641,180.712 c 0.47923,-0.95847 0.95847,-4.31311 0.95847,-5.75082 3.83388,-2.39618 13.4186,-4.79235 20.6071,-0.95847 0.47923,4.79235 0,16.7732 -0.47924,19.6486 -6.23006,-4.79236 -16.294,-11.5016 -21.0864,-12.9394 z"
             id="path222" />
        </g>
        <g
           fill="none"
           id="g240">
          <path
             fill="#000000"
             stroke="none"
             d="m 840.679,172.086 c -0.95847,0 -1.43771,-2.87542 -3.35465,-2.87542 -0.47923,0 -1.91694,0.47924 -2.39617,0 0,0.95848 0.47923,1.91695 0.95847,2.39618 0.47923,1.43771 2.87541,0.47924 4.79235,0.47924 z"
             id="path226" />
          <path
             d="m 840.679,180.233 c 5.75082,0 6.70929,-7.18853 9.58471,-7.66777"
             id="path228" />
          <path
             d="m 844.034,180.712 c 4.31312,1.91694 7.66776,-8.147 11.0224,-7.66776"
             id="path230" />
          <path
             d="m 835.408,168.252 c 1.43771,0 2.39618,-1.91694 4.79235,0.47924 0.95848,0.95847 2.39618,1.43771 3.35465,1.43771"
             id="path232" />
          <path
             d="m 842.596,175.441 c -1.91694,2.87542 -5.27159,4.79236 -7.18853,3.83389"
             id="path234" />
          <path
             d="m 834.449,163.46 c -1.43771,0.95847 -2.39618,2.87541 -3.35465,4.31312"
             id="path236" />
          <path
             d="m 829.657,170.648 v 2.39618"
             id="path238" />
        </g>
      </g>
    </g>
    <g
       stroke="none"
       id="g407">
      <path
         id="shield"
         fill="#ffffff"
         d="m 989.722,232.949 v 93.4509 c 0,80.9908 -38.3388,108.786 -89.617,130.831 -51.2781,-22.0448 -90.0962,-49.8405 -90.0962,-130.831 V 232.949 h 179.713 z" />
      <path
         fill="#c8102e"
         d="m 900.105,312.023 c 4.31315,0 11.0224,-3.83388 16.7732,-9.5847 6.23004,-6.70929 16.7732,-9.10547 27.7958,0 11.0224,9.10548 17.7317,5.27159 23.4825,0 5.75082,-5.27158 10.5432,-7.18853 21.5656,-7.18853 v -62.3006 h -179.713 v 62.3006 c 11.0224,0 15.8148,1.91695 21.5656,7.18853 5.75082,5.27159 12.4602,9.10548 23.4826,0 11.5016,-9.10547 21.5656,-6.70929 28.2748,0 5.27159,5.75082 11.9808,9.5847 16.7732,9.5847 z"
         id="path245" />
      <g
         fill="#0b50a0"
         id="g253">
        <path
           d="m 900.105,359.946 c 5.75083,0 17.2525,-6.23006 20.1279,-7.66776 10.5432,-6.23006 18.2109,-0.47924 24.441,2.39618 6.7093,2.87541 19.1694,6.23005 26.8372,0 7.66777,-6.23006 11.9809,-5.75083 17.2525,-5.75083 0.95847,-7.18853 0.95847,-14.3771 0.95847,-22.5241 v -5.75082 c -6.70929,-1.43771 -10.0639,0.47923 -17.2525,6.70929 -7.18853,6.23006 -15.3355,4.79235 -25.8787,0.95847 -10.0639,-4.31312 -20.1279,-11.9809 -30.1918,0 -2.87542,3.35465 -9.58471,8.147 -16.294,8.147 -7.18853,0 -13.4186,-4.79235 -16.294,-8.147 -10.5432,-11.9809 -20.1279,-4.31312 -30.1918,0 -10.5432,3.83388 -19.1694,5.27159 -26.3579,-0.95847 -6.70929,-6.23006 -10.0639,-8.147 -17.2525,-6.70929 v 5.75082 c 0,8.147 0.47923,15.3355 1.4377,22.5241 5.27159,0 9.10548,-0.47923 16.7732,5.75083 7.66777,6.23005 20.6071,2.87541 26.8372,0 6.7093,-2.87542 14.3771,-8.62624 24.9202,-2.39618 2.87541,1.4377 13.8978,7.66776 20.1279,7.66776 z"
           id="path247" />
        <path
           d="m 900.105,380.553 c 7.18853,0 15.8148,-2.87541 23.4825,-7.18853 9.5847,-5.27158 16.294,-2.87541 25.8787,1.91695 10.064,4.79235 18.211,3.35464 23.9618,0 2.87541,-1.91695 5.27159,-5.75083 11.5016,-4.31312 -2.87541,11.9809 -7.18853,22.5241 -12.4601,31.1503 -9.58471,2.39618 -14.8563,2.39618 -24.9202,-1.91694 -10.0639,-4.79235 -22.5241,-7.66776 -29.2334,-3.35464 -6.23006,3.83388 -12.9394,5.75082 -18.211,5.75082 -5.27159,0 -11.9809,-1.91694 -18.2109,-5.75082 -6.70929,-4.31312 -19.1694,-1.43771 -29.2334,3.35464 -10.0639,4.31312 -15.3355,4.31312 -24.9202,1.91694 -5.27159,-8.62623 -9.58471,-19.1694 -12.4601,-31.1503 6.23006,-1.43771 8.62623,2.39617 11.5016,4.31312 5.27159,3.35464 13.8978,4.79235 23.4825,0 10.0639,-4.79236 16.7732,-7.18853 26.3579,-1.91695 7.66777,4.31312 16.294,7.18853 23.4825,7.18853 z"
           id="path249" />
        <path
           d="m 900.105,457.231 c 19.1694,-8.147 36.9011,-17.2525 51.2782,-29.7126 -3.83389,-1.43771 -6.23006,-0.47924 -9.58471,-2.87541 -3.35465,-2.39618 -13.4186,-3.35465 -22.0448,1.4377 -9.10547,4.31312 -12.9394,5.27159 -19.6486,5.27159 -6.70929,0 -10.5432,-0.95847 -19.6486,-5.27159 -8.62623,-4.79235 -18.6902,-3.83388 -22.0448,-1.4377 -3.35465,2.39617 -5.75083,1.4377 -9.58471,2.87541 14.3771,12.4601 31.6295,21.5656 51.2782,29.7126 z"
           id="path251" />
      </g>
      <g
         id="lion"
         stroke="#000000"
         stroke-width="1.4377">
        <path
           fill="#f9d050"
           d="m 887.644,256.432 c 0.47924,0.95847 -0.47923,3.35465 0,4.31312 0.95848,1.91694 0.95848,2.87541 2.39618,3.83388 h 3.35465 c 10.5432,0 23.0033,-4.31312 33.5465,-4.31312 10.064,0 16.294,3.35465 22.0448,3.35465 3.35465,0 6.23006,-2.39618 6.23006,-4.79235 0,-2.39618 -3.83388,-3.83389 -11.9809,-3.83389 -11.5016,0 -17.7317,2.87541 -27.3164,2.87541 -14.3771,0 -16.7732,-5.27158 -16.7732,-7.66776 0,-2.39618 2.39618,-5.75083 10.064,-5.75083 2.39617,0 4.31311,-0.47923 5.27158,-1.4377 0.47924,-0.95847 1.91695,-2.87541 4.79236,-4.31312 3.35464,-1.91694 10.0639,0 13.4186,-2.39618 0,1.91695 -2.87541,4.79236 -5.27159,5.75083 4.79235,-1.43771 10.0639,-1.43771 11.0224,2.39617 -2.39618,-1.4377 -6.23006,-0.47923 -7.66776,0 -1.91695,0.47924 -2.87542,0.95848 -4.79236,1.43771 1.91694,-0.47923 2.87541,3.35465 5.75083,3.35465 -2.87542,2.39617 -7.66777,2.39617 -12.4601,0.47923 -1.43771,-0.47923 -5.27159,-1.91694 -7.66777,-1.91694 -4.79235,0 -7.66776,0.95847 -7.66776,2.87541 0,2.39618 2.87541,3.83389 11.5016,3.83389 8.62624,0 13.4186,-2.39618 26.358,-2.39618 -0.95847,-1.43771 0.47923,-2.87541 -1.43771,-4.31312 4.79236,0 10.064,1.43771 11.9809,4.79236 -0.47924,-3.35465 2.39617,-6.23006 1.4377,-9.10548 2.87541,0.47924 5.27159,3.35465 5.75083,5.75083 0,-1.43771 1.91694,-1.43771 1.91694,-2.87541 2.87541,1.4377 4.31312,4.79235 3.83388,7.66776 1.43771,-2.39618 2.87541,-1.4377 3.83388,-4.31312 0.95847,1.91694 0.47924,7.66777 -2.87541,9.58471 2.87541,-1.91694 7.18853,-1.91694 10.0639,1.43771 -2.87541,-0.47924 -4.31311,0.95847 -5.75082,1.4377 -5.75082,3.35465 -15.3355,5.27159 -22.5241,4.79236 -7.66777,-0.47924 -8.62624,-1.91695 -13.4186,-1.91695 2.87541,0.47924 8.62623,6.23006 13.8978,6.23006 3.35465,0 5.75083,0 7.18853,-0.47923 1.43771,-0.47924 3.83389,0 5.75083,0.95847 1.4377,1.43771 4.31312,2.87541 6.23006,2.39618 -0.47924,1.91694 -1.43771,2.87541 -2.87541,3.35464 2.39617,1.43771 0.95847,2.39618 3.35464,4.31312 -0.95847,0 -1.91694,0.95847 -3.35464,0.47924 1.4377,1.4377 1.4377,3.35464 2.87541,4.31312 -0.47924,0 -1.91694,0.47923 -2.87541,0 1.4377,1.91694 0,4.31311 1.4377,5.27158 1.43771,1.91695 -1.4377,4.31312 -3.83388,2.39618 0.47923,1.43771 -0.95847,2.87541 -2.39618,2.39618 -1.4377,-0.47924 -2.39617,-1.91694 -1.91694,-2.39618 0,-0.47923 0,-0.47923 0.47924,-0.95847 -0.95847,1.43771 -2.87542,1.43771 -3.83389,0.95847 -0.47923,-0.47923 -0.95847,-0.95847 -0.95847,-1.4377 -3.35464,0.95847 -4.79235,-1.91695 -4.31312,-3.35465 0.47924,-1.43771 3.35465,-1.91694 4.31312,-1.43771 0.95847,0.47924 1.91694,0.95847 2.87541,0 0.95848,-0.47923 1.43771,-1.4377 1.43771,-2.39618 0,-1.4377 -1.43771,-5.75082 -7.66776,-5.27158 -7.18854,0.47923 -18.6902,-1.43771 -24.441,-3.35465 -0.47923,-0.47924 -0.95847,-0.47924 -1.4377,-0.95847 0,1.91694 -1.91695,2.87541 -1.91695,4.79235 0,2.39618 0.95848,4.31312 3.83389,5.27159 -1.43771,2.39618 -3.83389,1.91694 -4.79236,0.47924 0,1.4377 -1.91694,2.39617 -1.91694,4.31311 -0.47923,-0.95847 -0.95847,-1.4377 -1.4377,-2.39617 -1.43771,3.35464 -5.27159,5.27159 -7.18853,4.31312 -2.39618,1.91694 -5.27159,1.4377 -6.23006,-0.47924 -1.43771,0.95847 -3.35465,0.95847 -4.31312,0 0,1.43771 -0.95847,0.95847 -1.43771,2.87541 0,0.95847 -1.91694,1.43771 -2.87541,0.95847 -0.95847,-0.47923 -1.43771,-2.39617 -0.47923,-3.35464 -1.43771,0.95847 -2.87542,0.95847 -3.83389,0 0,-0.95848 0,-2.39618 0.95847,-2.87542 h 0.95847 c -0.95847,-0.47923 -2.39617,0 -3.35464,-0.47923 -0.95847,-0.95847 -0.95847,-1.91694 -0.47924,-2.87541 0.47924,-0.47924 1.91694,-1.43771 2.87541,-0.47924 l 0.47924,0.47924 c 0,-0.95848 0.47923,-1.91695 0.95847,-1.91695 0.95847,-0.47923 2.39618,-0.47923 3.83388,0.95847 0.95847,1.43771 1.91694,1.43771 4.79236,0.95848 2.39617,0 6.23006,-2.39618 9.10547,-4.79236 -8.147,-1.4377 -3.35465,-6.70929 -0.95847,-8.62623 -1.91694,-0.47924 -4.79236,-0.47924 -6.7093,0.47923 -10.0639,5.27159 -20.6071,11.5016 -27.3164,9.58471 0,0.95847 0.47923,1.91694 0.95847,2.87541 -1.43771,0 -4.31312,0 -5.27159,-1.43771 -0.47924,0.95847 -1.43771,3.35465 -0.47924,5.27159 -0.95847,-0.95847 -3.83388,-1.91694 -5.27159,-2.39617 0.95847,0.95847 0,2.87541 0.47924,4.31311 -1.43771,-1.4377 -3.83388,-2.39617 -4.79235,-1.4377 -0.95847,0.95847 -2.87542,1.4377 -4.31312,0.95847 -0.95847,1.43771 -2.39618,2.39618 -3.83388,2.87541 0,-0.95847 0,-2.39618 -0.47924,-2.87541 -0.47924,1.43771 -1.91694,3.35465 -3.83388,4.31312 0,-0.95847 0,-2.39618 -0.47924,-3.35465 0,1.91694 -3.83388,2.87541 -4.31312,4.31312 0.47924,-1.43771 0.47924,-2.87541 0.47924,-3.83388 -0.95847,1.4377 -2.39618,2.87541 -4.79235,3.35464 0.47923,-0.95847 0.95847,-1.91694 0.47923,-2.87541 -0.47923,1.91694 -3.35465,2.87541 -5.75082,2.39618 0,0.95847 -1.91694,2.39617 -4.31312,0.95847 -1.43771,-0.47924 -2.39618,-1.91694 -1.43771,-2.87541 -1.91694,0 -3.83388,-1.91695 -2.87541,-3.35465 0,-0.47924 0.47924,-0.95847 0.47924,-1.43771 -1.43771,-0.95847 -1.91695,-2.87541 -0.47924,-4.31312 0.47924,-0.47923 1.91694,-0.47923 2.87541,-0.47923 0,-3.83388 3.35465,-3.83388 4.79236,-0.95847 0.95847,1.4377 3.83388,3.83388 6.23006,3.35465 0.95847,0 1.4377,-0.47924 2.39617,-0.47924 2.87541,-0.95847 8.62624,-3.35465 11.9809,-6.23006 0.47923,-1.43771 0.47923,-2.39618 0.47923,-3.35465 -1.91694,0.95847 -3.83388,1.91694 -4.79235,3.35465 v -1.43771 c -1.43771,0 -3.83389,-0.47923 -4.79236,-0.47923 0.47924,-0.47924 0.95847,-2.87541 1.91695,-3.35465 -2.39618,0.47924 -4.79236,0 -6.7093,-0.47923 0.95847,-0.95847 0.95847,-2.39618 1.43771,-3.83389 -0.95847,0.47924 -3.35465,-0.47923 -5.27159,0 0.47923,-1.4377 0.95847,-3.35464 2.39617,-3.83388 -1.91694,0.47924 -4.31311,0 -6.70929,-0.95847 1.91694,0 2.87541,-2.39618 4.31312,-2.39618 -3.83388,0 -4.79236,-1.91694 -6.7093,-2.87541 1.43771,0.47924 2.39618,-0.95847 3.83389,-0.95847 -1.43771,-0.47923 -3.83389,-2.87541 -2.87542,-4.31312 -0.47923,0.47924 -0.95847,1.43771 -1.91694,1.91694 -0.95847,0.47924 -2.87541,0 -4.31312,-1.4377 -0.95847,-1.91694 -0.47923,-4.31312 1.43771,-4.79236 -2.39618,-0.47923 -2.39618,-2.87541 -1.43771,-3.83388 0.47924,-0.95847 2.39618,-2.39618 3.35465,-0.95847 0.47924,0.47924 0.95847,1.43771 1.43771,1.91694 -0.47924,-0.95847 -0.47924,-2.87541 -0.47924,-4.31312 0.47924,-1.4377 1.43771,-1.4377 2.87541,-1.91694 1.43771,0 2.39618,1.43771 2.39618,2.87541 0,1.43771 0.47924,2.39618 0.95847,4.31312 0,-0.47923 0.47924,-1.4377 0.47924,-1.91694 0,-1.91694 2.39617,-1.4377 3.83388,-0.95847 1.43771,0.47924 1.91694,3.35465 0,4.79235 -0.95847,0.95847 -0.47924,2.39618 0.47924,3.35465 3.35464,5.27159 9.10547,9.58471 13.8978,10.0639 0,-1.91694 0.95847,-3.83388 2.39618,-5.27158 0,-0.95848 0.47923,-2.39618 0.95847,-3.35465 0.47923,-2.87541 1.91694,-4.31312 3.83388,-3.35465 -0.47923,-0.47924 -0.95847,-0.95847 -0.95847,-1.43771 -1.43771,-1.4377 -2.87541,-3.83388 -1.91694,-5.75082 0.95847,-1.91694 3.83388,-1.43771 4.79235,-0.47924 -0.47923,-2.87541 2.87541,-5.27158 2.87541,-6.70929 0.47924,1.43771 1.43771,3.35465 0.95847,4.79235 0.47924,-1.91694 3.83389,-4.31311 6.23006,-5.27159 -0.95847,1.43771 1.91695,3.83389 1.43771,5.27159 0.95847,-2.39617 4.79235,-3.83388 7.66777,-3.83388 -0.95847,0.95847 -0.95847,2.87541 -0.95847,3.83388 1.4377,0 3.83388,-0.47923 4.79235,-1.91694 0,1.91694 -0.95847,3.83388 -1.91694,4.79236 0.47923,-0.47924 2.39617,-0.47924 3.83388,-0.47924 -1.43771,1.43771 -0.95847,2.87541 -2.39618,3.83388 1.91695,-0.95847 4.31312,-0.95847 4.79236,0.95847 0.95847,1.43771 -0.47924,3.83389 -1.43771,5.27159 -0.95847,0.47924 -1.91694,1.43771 -2.39618,1.43771 z"
           id="path255" />
        <g
           fill="none"
           id="g355">
          <path
             d="m 857.932,262.182 c -3.35464,1.43771 -4.31312,4.79236 -4.79235,6.7093"
             id="path257" />
          <path
             d="m 857.453,265.537 c -4.79236,2.87541 -6.7093,5.27159 -5.75083,10.5432"
             id="path259" />
          <path
             d="m 859.849,279.914 c 2.87542,-0.95847 4.79236,-1.91694 7.18853,-6.23006"
             id="path261" />
          <path
             d="m 865.6,275.601 c -0.95847,1.91694 0,5.27159 -1.43771,6.7093 2.39618,-1.43771 4.31312,-3.35465 4.79236,-6.7093"
             id="path263" />
          <path
             d="m 866.558,280.872 c 1.91694,-0.95847 4.79235,-3.83388 6.23006,-7.18853 -0.47924,1.43771 0,3.83388 -0.95847,5.27159 2.39617,-2.39618 3.35465,-3.83388 3.83388,-6.23006 0,0.47924 0.47924,1.43771 0.47924,1.91694 0.95847,-0.95847 1.91694,-1.91694 1.91694,-3.83388"
             id="path265" />
          <path
             d="m 878.06,272.246 v 2.39617 c 1.91694,-1.4377 2.39617,-3.35465 2.39617,-5.75082"
             id="path267" />
          <path
             d="m 879.977,271.767 c 2.87541,-1.91694 3.35465,-4.79235 3.35465,-9.10547"
             id="path269" />
          <path
             d="m 883.331,267.454 c 1.91694,-1.4377 2.39617,-2.39618 2.39617,-6.70929"
             id="path271" />
          <path
             d="m 879.497,247.805 c -0.95847,0 -1.91694,0.47924 -1.91694,1.91694 0,0.95847 -1.4377,2.39618 -1.4377,3.83389 -0.47924,1.91694 -1.43771,2.39617 -2.87542,1.91694 -1.4377,-0.95847 -1.4377,-0.95847 -1.4377,-2.39618 0,-1.91694 2.39617,-2.39618 2.39617,-4.31312 0.47924,-0.95847 0.95848,-2.39617 1.43771,-2.39617 -2.39618,1.4377 -5.75082,0.47923 -6.23006,-2.39618"
             id="path273" />
          <path
             d="m 883.811,249.243 c -0.95847,0.47923 -1.91694,-0.95847 -3.35465,-0.47924 -0.47923,0 -1.91694,0.47924 -2.39617,0"
             id="path275" />
          <path
             d="m 877.101,251.639 c 0.47923,0.47924 2.87541,1.43771 5.27159,0.47924 -1.91695,0.47924 -3.35465,-1.91694 -1.43771,-3.35465"
             id="path277" />
          <path
             d="m 872.788,246.847 c -1.91694,0 -3.35465,1.43771 -2.87541,2.87541 0.47923,1.43771 2.39617,1.43771 3.83388,0.47924"
             id="path279" />
          <path
             d="m 869.433,270.809 c 0.47924,-0.47924 0.95847,-1.43771 0.95847,-1.91694 0.95847,0 1.91694,-0.47924 2.39618,-0.95847 1.91694,0 3.35465,-1.43771 3.83388,-2.87542 0.95847,0 1.43771,-2.39617 1.91694,-3.35464 0.47924,0.47923 1.43771,0 1.91694,-1.91694 0.95847,0.47923 2.39618,0 2.87542,-1.43771"
             id="path281" />
          <path
             d="m 863.683,254.994 c 0,0.47924 -0.95847,1.43771 -1.91694,1.91694 0.47923,0.95847 0,3.35465 -0.95848,3.83389 0.47924,0.95847 0,2.39617 -0.47923,3.35464 0,0.47924 0.47923,1.91695 0.47923,2.39618"
             id="path283" />
          <path
             d="m 865.6,245.409 c -0.95847,2.39617 -0.47924,5.27158 1.4377,5.75082"
             id="path285" />
          <path
             d="m 866.558,253.077 c -0.47924,2.39618 -0.47924,5.75083 -0.95847,7.18853 -0.47924,0.95847 -1.43771,4.31312 2.39617,5.27159 4.31312,0.95847 6.7093,0.47924 9.10548,-6.70929"
             id="path287" />
          <path
             d="m 884.29,277.518 c 0,0.47924 -0.47924,1.43771 -1.43771,1.43771"
             id="path289" />
          <path
             d="m 887.644,276.559 c 0,0.95847 -0.95847,2.39618 -1.4377,2.87542"
             id="path291" />
          <path
             d="m 890.999,275.601 c 0,0.95847 0,2.39618 -0.95847,2.87541"
             id="path293" />
          <path
             d="m 861.766,245.888 c 0.47923,0 0.95847,0.95847 1.4377,1.91694 -1.4377,-0.95847 -2.87541,1.43771 -1.91694,2.87541"
             id="path295" />
          <path
             d="m 860.328,254.035 c -0.47924,0.47924 -1.43771,0.95847 -1.91694,1.43771"
             id="path297" />
          <path
             d="m 858.89,258.348 c -0.47923,0 -0.95847,0.47924 -1.4377,0.47924"
             id="path299" />
          <path
             d="m 835.887,249.722 c 0,-0.47923 0,-0.47923 0.47923,-0.95847"
             id="path301" />
          <path
             d="m 831.574,248.284 c -0.47924,0 -0.47924,0 -0.95847,-0.47924"
             id="path303" />
          <path
             d="m 832.053,254.994 h 0.95847"
             id="path305" />
          <path
             d="m 830.136,252.118 c -0.95847,-0.95847 -2.39617,-1.43771 -2.87541,-1.43771"
             id="path307" />
          <path
             d="m 856.494,269.85 c -3.35465,2.87541 -4.79236,5.27159 -5.27159,8.62623"
             id="path309" />
          <path
             d="m 859.849,272.246 c -0.95847,1.91694 -2.39617,3.35464 -3.83388,4.31311"
             id="path311" />
          <path
             d="m 841.159,286.623 c -3.83389,0.95847 -6.7093,0.47923 -9.58471,-1.43771 -0.47924,-0.47924 -0.95847,-0.47924 -1.43771,-0.95847"
             id="path313" />
          <path
             d="m 855.536,279.914 c -0.47924,1.91694 -0.95847,4.31312 -1.91695,4.79235 3.83389,-1.91694 7.18853,-4.79235 7.66777,-9.10547"
             id="path315" />
          <path
             d="m 827.74,289.02 c 1.4377,-0.47923 2.87541,0.47924 3.83388,-0.47923"
             id="path317" />
          <path
             d="m 911.127,273.205 c 0.95847,0.47923 2.39617,0.95847 2.87541,1.4377 0.47923,-0.95847 2.39618,-2.39617 3.83388,-2.87541"
             id="path319" />
          <path
             d="m 877.101,283.269 c -0.47924,-1.91694 0.47923,-4.31312 3.35464,-5.27159"
             id="path321" />
          <path
             d="m 858.411,291.416 c 0.47923,-0.95847 0.47923,-2.39618 0.95847,-3.35465"
             id="path323" />
          <path
             d="m 837.325,292.853 c -0.47923,0.95847 -1.4377,1.91694 -1.4377,2.87541"
             id="path325" />
          <path
             d="m 830.136,293.812 c 0,0 0,-0.47924 0.47924,-0.47924 0.95847,-0.47923 2.39617,-1.43771 2.87541,-2.39618"
             id="path327" />
          <path
             d="m 895.312,287.103 c -0.95847,0.47924 -1.43771,0 -1.91694,-0.47923"
             id="path329" />
          <path
             d="m 894.833,289.499 c 0,0 -0.47923,0.47923 -0.95847,0.47923"
             id="path331" />
          <path
             d="m 897.229,291.895 c -0.47923,0.47924 -0.95847,0.95848 -1.4377,0.95848"
             id="path333" />
          <path
             d="m 911.127,292.853 c 0.95847,-0.47924 1.4377,-1.43771 1.91694,-3.35465"
             id="path335" />
          <path
             d="m 904.897,292.374 c 1.4377,-0.47924 2.39617,-1.43771 3.83388,-2.87541"
             id="path337" />
          <path
             d="m 918.315,288.54 c 0,-0.95847 0,-1.91694 0.47923,-2.87542"
             id="path339" />
          <path
             d="m 953.779,292.853 c -0.95847,-0.95848 -0.95847,-2.39618 0.47924,-3.35465 0.95847,-0.47924 1.4377,-0.95847 2.39617,-1.43771"
             id="path341" />
          <path
             d="m 924.546,276.08 c -7.66777,-3.35465 -7.18853,-7.66777 -13.4186,-7.18853"
             id="path343" />
          <path
             d="m 958.571,290.936 c 0.47923,0.47924 0,1.91695 0,2.39618"
             id="path345" />
          <path
             d="m 962.884,290.936 c -0.47923,1.43771 -0.47923,1.91695 -0.47923,3.35465"
             id="path347" />
          <path
             d="m 925.983,245.888 h -3.83388"
             id="path349" />
          <path
             d="m 885.727,262.182 c 0,0.95847 1.43771,2.87541 5.27159,2.87541 -0.47923,0 -0.95847,-0.47923 -0.95847,-0.47923"
             id="path351" />
          <path
             d="m 887.644,256.432 c -0.47923,0.47923 -0.95847,0 -0.95847,0 -0.95847,-0.95847 0.47924,-2.87541 1.91695,-3.83388 -1.43771,0.47923 -2.39618,0.47923 -3.35465,0.47923 -0.95847,2.87541 -3.83389,4.31312 -5.75083,2.39618 -0.47923,1.91694 -2.87541,4.31312 -4.79235,3.83388 -1.91694,-0.95847 -2.39618,-2.39618 -1.91694,-3.83388 -2.39618,2.87541 -5.27159,0.95847 -6.23006,0 -0.47924,-0.95847 0,-3.35465 0.95847,-6.23006"
             id="path353" />
        </g>
        <path
           fill="#000000"
           stroke="none"
           d="m 918.315,274.642 c -1.43771,0.95847 -2.87542,0 -4.31312,1.43771 -0.95847,0.95847 0.47923,1.4377 1.4377,1.4377 -0.47923,1.43771 -0.47923,1.91695 1.91695,1.91695 -0.95847,1.4377 1.91694,1.91694 1.4377,3.83388 1.43771,-1.43771 1.43771,-3.35465 0.95847,-4.79236 -0.47923,-1.4377 -2.87541,-2.39617 -1.4377,-3.83388 z"
           id="path357" />
        <g
           fill="#073163"
           stroke="none"
           id="g393">
          <path
             d="m 874.705,259.307 c -1.91694,-0.95847 -2.39618,-2.39618 -1.91694,-3.83388 -0.47924,0.95847 -1.43771,1.4377 -2.39618,1.4377 -1.91694,4.31312 -4.31312,8.147 -7.18853,8.147 -3.35465,0.47924 -2.87541,3.83389 -0.47923,3.83389 5.27158,0.95847 7.66776,-0.95847 11.9809,-9.58471 z"
             id="path359" />
          <path
             d="m 827.261,247.805 c 1.43771,-1.4377 0.47924,-2.87541 -0.47924,-3.35465 -1.4377,-0.47923 -4.31311,0 -5.75082,2.39618 1.43771,-0.47923 2.87541,-0.47923 3.35465,0.47924 0.47923,0.95847 1.4377,1.91694 2.87541,0.47923 z"
             id="path361" />
          <path
             d="m 829.657,239.179 c 3.35464,0 4.31312,0.47923 4.79235,1.91694 0.47924,0.95847 -0.47923,2.39617 -1.43771,2.39617 -1.4377,0 -2.87541,-0.95847 -2.39617,-1.4377 0.47923,-0.95847 0.47923,-2.39618 -0.95847,-2.87541 z"
             id="path363" />
          <path
             d="m 839.242,246.847 c 2.39618,0.47924 3.35465,-0.95847 1.91695,-2.87541 -0.47924,-1.43771 -1.91695,-2.39618 -4.31312,-1.91694 2.39617,1.4377 0,3.83388 2.39617,4.79235 z"
             id="path365" />
          <path
             d="m 821.51,254.994 c 1.4377,2.39618 3.83388,2.39618 4.79235,1.91694 1.43771,-0.47923 1.91694,-1.91694 1.43771,-2.87541 -0.95848,-1.4377 -2.39618,-1.91694 -2.87542,0 -0.95847,1.91694 -2.39617,1.43771 -3.35464,0.95847 z"
             id="path367" />
          <path
             d="m 828.698,284.227 c -0.95847,-1.91694 -3.83389,-1.91694 -6.23006,0 0.95847,-0.47924 2.87541,0 3.35464,0.95847 0.47924,0.95847 1.43771,0.95847 1.91695,0.95847 0.47923,-0.47924 1.4377,-0.95847 0.95847,-1.91694 z"
             id="path369" />
          <path
             d="m 832.532,281.352 c 0,-2.39618 -3.35465,-2.87542 -5.27159,-1.91694 0.95847,0 2.39618,0.95847 2.39618,1.91694 0.47923,0.95847 1.4377,1.4377 1.91694,1.4377 0.95847,-0.47923 1.4377,-0.95847 0.95847,-1.4377 z"
             id="path371" />
          <path
             d="m 827.74,289.978 c -2.87542,-0.47923 -4.31312,2.87542 -4.31312,5.27159 0.47923,-1.4377 1.91694,-2.39617 3.35464,-1.91694 1.43771,0 1.91695,-0.47923 1.91695,-1.43771 0.47923,-0.95847 0,-1.4377 -0.95847,-1.91694 z"
             id="path373" />
          <path
             d="m 828.219,298.125 c 0.95847,0.47924 1.91694,-0.47923 2.39618,-1.91694 0,-0.95847 1.91694,-0.95847 2.39617,-0.47923 0.95848,0.47923 0.95848,2.39617 -0.47923,3.35464 -0.95847,0.47924 -3.35465,0.95848 -4.31312,-0.95847 z"
             id="path375" />
          <path
             d="m 894.833,283.748 c -0.95847,-0.47923 -3.35464,-1.4377 -5.27158,0 1.4377,-0.47923 2.39617,0.47924 2.87541,1.43771 0,0.95847 1.4377,1.43771 1.91694,0.47923 0.47923,-0.47923 0.95847,-1.4377 0.47923,-1.91694 z"
             id="path377" />
          <path
             d="m 890.52,287.103 c -1.91694,-0.95847 -4.31312,1.43771 -4.79236,3.35465 0.47924,-0.47924 2.39618,-1.43771 3.35465,-1.43771 0.95847,0.47924 1.91694,0 1.91694,-0.95847 0.47924,-0.47923 0.47924,-0.95847 -0.47923,-0.95847 z"
             id="path379" />
          <path
             d="m 892.916,290.936 c -1.4377,0 -3.35464,1.91695 -3.35464,3.83389 0.47923,-0.95847 1.4377,-1.43771 2.39617,-0.95847 0.95847,0 2.39618,-0.47924 2.39618,-1.43771 0,-0.95847 -0.47924,-1.43771 -1.43771,-1.43771 z"
             id="path381" />
          <path
             d="m 897.229,294.77 c -0.95847,-0.47924 -2.39618,0 -2.39618,1.4377 0,1.43771 0,2.87541 -0.47923,3.35465 0.95847,-0.95847 1.91694,-1.43771 2.87541,-1.91694 0.47924,-0.47924 0.95847,-1.91694 0,-2.87541 z"
             id="path383" />
          <path
             d="m 951.383,290.457 c -0.95847,-0.95847 -2.39618,-0.47924 -2.87542,0.47923 -0.47923,0.95847 -0.95847,3.35465 0,5.27159 0,-0.95847 0.95847,-2.39617 1.91695,-2.39617 1.4377,-0.47924 1.91694,-2.39618 0.95847,-3.35465 z"
             id="path385" />
          <path
             d="m 954.258,292.374 c -1.91694,0.95847 -1.91694,4.31312 -0.47924,6.23006 0,-0.95847 0.47924,-2.39618 1.43771,-2.87541 1.4377,0 1.91694,-1.91694 1.4377,-2.87541 -0.95847,-0.95848 -1.91694,-0.47924 -2.39617,-0.47924 z"
             id="path387" />
          <path
             d="m 960.009,294.291 c -0.95847,-0.47923 -1.91694,0.47924 -1.91694,1.43771 -0.47923,1.4377 0.47924,3.35464 1.91694,4.31312 0,-0.95848 0.47924,-1.91695 0.95847,-2.39618 1.43771,-0.95847 0.95847,-2.87541 -0.95847,-3.35465 z"
             id="path389" />
          <path
             d="m 964.322,293.812 c -0.95847,0 -1.91694,1.4377 -0.95847,2.87541 0.47923,0.95847 1.43771,1.4377 3.35465,0.95847 -0.47924,0 -1.43771,-1.43771 -0.95847,-1.91694 0.47923,-0.95847 0,-1.91694 -1.43771,-1.91694 z"
             id="path391" />
        </g>
      </g>
      <g
         id="star">
        <path
           fill="#f9d050"
           d="m 831.095,383.429 23.9618,-73.8022 23.9618,73.8022 -62.7798,-45.5274 h 77.6361 z"
           id="path396" />
        <path
           fill="#024919"
           d="m 835.887,376.72 49.8405,-36.4219 h -61.3421 l 49.3612,36.4219 -18.6902,-58.4667 z"
           id="path398" />
      </g>
      <use
         xlink:href="#star"
         x="90.096649"
         id="use401"
         y="0"
         width="100%"
         height="100%" />
      <use
         xlink:href="#star"
         x="45.047649"
         y="52.237129"
         id="use403"
         width="100%"
         height="100%" />
      <path
         fill="none"
         stroke="#000000"
         stroke-width="1.4377"
         d="m 989.722,232.949 v 93.4509 c 0,80.9908 -38.3388,108.786 -89.617,130.831 -51.2781,-22.0448 -90.0962,-49.8405 -90.0962,-130.831 V 232.949 h 179.713 z"
         id="path405" />
    </g>
  </g>
</svg>
