<?xml version="1.0" encoding="UTF-8" standalone="no"?>
<svg
   xmlns:dc="http://purl.org/dc/elements/1.1/"
   xmlns:cc="http://creativecommons.org/ns#"
   xmlns:rdf="http://www.w3.org/1999/02/22-rdf-syntax-ns#"
   xmlns:svg="http://www.w3.org/2000/svg"
   xmlns="http://www.w3.org/2000/svg"
   xmlns:xlink="http://www.w3.org/1999/xlink"
   xmlns:sodipodi="http://sodipodi.sourceforge.net/DTD/sodipodi-0.dtd"
   xmlns:inkscape="http://www.inkscape.org/namespaces/inkscape"
   width="875"
   height="500"
   viewBox="0 0 7000 4000"
   version="1.1"
   id="svg50"
   sodipodi:docname="Cook Islands.svg"
   inkscape:version="1.0.2 (e86c8708, 2021-01-15)">
  <metadata
     id="metadata54">
    <rdf:RDF>
      <cc:Work
         rdf:about="">
        <dc:format>image/svg+xml</dc:format>
        <dc:type
           rdf:resource="http://purl.org/dc/dcmitype/StillImage" />
      </cc:Work>
    </rdf:RDF>
  </metadata>
  <sodipodi:namedview
     pagecolor="#ffffff"
     bordercolor="#666666"
     borderopacity="1"
     objecttolerance="10"
     gridtolerance="10"
     guidetolerance="10"
     inkscape:pageopacity="0"
     inkscape:pageshadow="2"
     inkscape:window-width="1344"
     inkscape:window-height="729"
     id="namedview52"
     showgrid="false"
     inkscape:zoom="0.5020996"
     inkscape:cx="633.82538"
     inkscape:cy="342.60251"
     inkscape:window-x="0"
     inkscape:window-y="25"
     inkscape:window-maximized="1"
     inkscape:current-layer="svg50" />
  <title
     id="title10">Flag of the Cook Islands</title>
  <defs
     id="defs18">
    <clipPath
       id="f">
      <path
         d="M 0,0 H 12 V 6 H 0 Z"
         id="path12" />
    </clipPath>
    <clipPath
       id="c">
      <path
         d="M 0,0 V 1.5 H 8 V 4 Z M 6,0 H 3 v 4 h -5 z"
         id="path15" />
    </clipPath>
  </defs>
  <g
     transform="scale(583.33333,666.66667)"
     stroke-width="0.6"
     fill="#012169"
     clip-path="url(#f)"
     id="g32">
    <path
       d="M 0,0 H 12 V 6 H 0 Z"
       id="path20" />
    <path
       stroke="#ffffff"
       d="M 0,0 6,3 M 0,3 6,0"
       id="path22" />
    <path
       stroke="#c8102e"
       stroke-width="0.4"
       clip-path="url(#c)"
       d="M 0,0 6,3 M 0,3 6,0"
       id="path24" />
    <path
       stroke="#ffffff"
       stroke-width="1"
       d="M 3,0 V 4 M 0,1.5 h 7"
       id="path26" />
    <path
       stroke="#c8102e"
       d="M 3,0 V 4 M 0,1.5 h 7"
       id="path28" />
    <path
       d="M 0,3 H 6 V 0 h 6 V 6 H 0 Z"
       id="path30" />
  </g>
  <g
     transform="matrix(0.72916667,0,0,0.72916667,5250,2015.8703)"
     id="g48">
    <g
       id="t">
      <path
         id="s"
         fill="#ffffff"
         d="m 0,-1992 81,249 h 261 l -211,153 81,249 -212,-153 -212,153 81,-249 -211,-153 h 261 z" />
      <use
         transform="rotate(24)"
         xlink:href="#s"
         id="use35"
         x="0"
         y="0"
         width="100%"
         height="100%" />
      <use
         transform="rotate(48)"
         xlink:href="#s"
         id="use37"
         x="0"
         y="0"
         width="100%"
         height="100%" />
    </g>
    <use
       transform="rotate(72)"
       xlink:href="#t"
       id="use40"
       x="0"
       y="0"
       width="100%"
       height="100%" />
    <use
       transform="rotate(144)"
       xlink:href="#t"
       id="use42"
       x="0"
       y="0"
       width="100%"
       height="100%" />
    <use
       transform="rotate(-144)"
       xlink:href="#t"
       id="use44"
       x="0"
       y="0"
       width="100%"
       height="100%" />
    <use
       transform="rotate(-72)"
       xlink:href="#t"
       id="use46"
       x="0"
       y="0"
       width="100%"
       height="100%" />
  </g>
</svg>
