<?xml version="1.0" encoding="UTF-8" standalone="no"?>
<svg
   xmlns:dc="http://purl.org/dc/elements/1.1/"
   xmlns:cc="http://creativecommons.org/ns#"
   xmlns:rdf="http://www.w3.org/1999/02/22-rdf-syntax-ns#"
   xmlns:svg="http://www.w3.org/2000/svg"
   xmlns="http://www.w3.org/2000/svg"
   xmlns:xlink="http://www.w3.org/1999/xlink"
   xmlns:sodipodi="http://sodipodi.sourceforge.net/DTD/sodipodi-0.dtd"
   xmlns:inkscape="http://www.inkscape.org/namespaces/inkscape"
   width="875"
   height="500.00003"
   viewBox="0 0 291.66667 166.66667"
   version="1.1"
   id="svg31"
   sodipodi:docname="Georgia.svg"
   inkscape:version="1.0.2 (e86c8708, 2021-01-15)">
  <metadata
     id="metadata35">
    <rdf:RDF>
      <cc:Work
         rdf:about="">
        <dc:format>image/svg+xml</dc:format>
        <dc:type
           rdf:resource="http://purl.org/dc/dcmitype/StillImage" />
      </cc:Work>
    </rdf:RDF>
  </metadata>
  <sodipodi:namedview
     pagecolor="#ffffff"
     bordercolor="#666666"
     borderopacity="1"
     objecttolerance="10"
     gridtolerance="10"
     guidetolerance="10"
     inkscape:pageopacity="0"
     inkscape:pageshadow="2"
     inkscape:window-width="1344"
     inkscape:window-height="729"
     id="namedview33"
     showgrid="false"
     inkscape:zoom="0.67303334"
     inkscape:cx="412.54155"
     inkscape:cy="273.70528"
     inkscape:window-x="0"
     inkscape:window-y="25"
     inkscape:window-maximized="1"
     inkscape:current-layer="svg31" />
  <defs
     id="defs17">
    <g
       id="smallcross">
      <clipPath
         id="vclip">
        <path
           d="m -109,104 a 104,104 0 0 0 0,-208 h 218 a 104,104 0 0 0 0,208 z"
           id="path10" />
      </clipPath>
      <path
         id="varm"
         d="M -55,74 A 55,55 0 0 1 55,74 V -74 a 55,55 0 0 1 -110,0 z"
         clip-path="url(#vclip)" />
      <use
         xlink:href="#varm"
         transform="rotate(90)"
         id="use14"
         x="0"
         y="0"
         width="100%"
         height="100%" />
    </g>
  </defs>
  <rect
     width="291.66666"
     height="166.66667"
     style="fill:#ffffff;stroke-width:0.900101"
     id="rect19"
     x="0"
     y="2.9867568e-08" />
  <path
     d="M 126.38887,3.7867978e-6 V 66.666672 H 4.7599053e-6 V 100.00002 H 126.38887 v 66.66665 h 38.8889 V 100.00002 H 291.66665 V 66.666672 H 165.27777 V 3.7867978e-6 Z"
     style="fill:#ff0000;stroke-width:0.900101"
     id="path21" />
  <g
     id="g41"
     transform="translate(21.220875,1.4608024)">
    <use
       xlink:href="#smallcross"
       transform="matrix(0.83346586,0,0,0.83346586,53.309435,31.406177)"
       fill="#ff0000"
       id="use23"
       x="0"
       y="0"
       width="100%"
       height="100%" />
    <use
       xlink:href="#smallcross"
       transform="matrix(0.83346586,0,0,0.83346586,195.91547,132.33889)"
       fill="#ff0000"
       id="use25"
       x="0"
       y="0"
       width="100%"
       height="100%" />
    <use
       xlink:href="#smallcross"
       transform="matrix(0.83346586,0,0,0.83346586,195.91547,31.406177)"
       fill="#ff0000"
       id="use27"
       x="0"
       y="0"
       width="100%"
       height="100%" />
    <use
       xlink:href="#smallcross"
       transform="matrix(0.83346586,0,0,0.83346586,53.309435,132.33889)"
       fill="#ff0000"
       id="use29"
       x="0"
       y="0"
       width="100%"
       height="100%" />
  </g>
</svg>
