<?xml version="1.0" encoding="UTF-8" standalone="no"?>
<svg
   xmlns:dc="http://purl.org/dc/elements/1.1/"
   xmlns:cc="http://creativecommons.org/ns#"
   xmlns:rdf="http://www.w3.org/1999/02/22-rdf-syntax-ns#"
   xmlns:svg="http://www.w3.org/2000/svg"
   xmlns="http://www.w3.org/2000/svg"
   xmlns:xlink="http://www.w3.org/1999/xlink"
   xmlns:sodipodi="http://sodipodi.sourceforge.net/DTD/sodipodi-0.dtd"
   xmlns:inkscape="http://www.inkscape.org/namespaces/inkscape"
   version="1.0"
   width="875"
   height="500"
   viewBox="0 0 437.5 250"
   id="svg44"
   sodipodi:docname="Grenada.svg"
   inkscape:version="1.0.2 (e86c8708, 2021-01-15)">
  <metadata
     id="metadata48">
    <rdf:RDF>
      <cc:Work
         rdf:about="">
        <dc:format>image/svg+xml</dc:format>
        <dc:type
           rdf:resource="http://purl.org/dc/dcmitype/StillImage" />
      </cc:Work>
    </rdf:RDF>
  </metadata>
  <sodipodi:namedview
     pagecolor="#ffffff"
     bordercolor="#666666"
     borderopacity="1"
     objecttolerance="10"
     gridtolerance="10"
     guidetolerance="10"
     inkscape:pageopacity="0"
     inkscape:pageshadow="2"
     inkscape:window-width="1344"
     inkscape:window-height="729"
     id="namedview46"
     showgrid="false"
     inkscape:zoom="0.58758678"
     inkscape:cx="707.29608"
     inkscape:cy="295.28348"
     inkscape:window-x="0"
     inkscape:window-y="25"
     inkscape:window-maximized="1"
     inkscape:current-layer="svg44" />
  <defs
     id="defs14">
    <g
       id="b">
      <path
         id="a"
         d="M 0,-1 V 0 H 0.5"
         transform="rotate(18,0,-1)"
         fill="#fcd116" />
      <use
         xlink:href="#a"
         transform="scale(-1,1)"
         width="100%"
         height="100%"
         id="use11"
         x="0"
         y="0" />
    </g>
  </defs>
  <path
     fill="#ce1126"
     d="M 0,0 H 437.5 V 250 H 0 Z"
     id="path16"
     style="stroke-width:0.853912" />
  <path
     fill="#007a5e"
     d="m 36.75,35 h 364 v 180 h -364 z"
     id="path18"
     style="stroke-width:0.853912" />
  <path
     d="m 36.75,35 h 364 l -364,180 h 364 z"
     fill="#fcd116"
     id="path20"
     style="stroke-width:0.853912" />
  <g
     id="g129">
    <path
       d="m 56.4575,125.34167 c 3.753333,6.99166 11.054167,14.6 17.43,17.275 0.1025,-7.1 -2.416667,-16.2 -5.861667,-23.45 z"
       fill="#ce1126"
       id="path24"
       style="stroke-width:0.833333" />
    <path
       d="M 50.093333,101.35833 C 55.534167,112.7 35.9825,139.75833 68.556667,146.1 64.538333,140.61667 61.9475,131.56667 62.9275,124.3 c 6.834167,2.6 14.025,10.20833 16.930833,16.025 8.525,-30.95833 -21.866666,-29.075 -29.765,-38.96667 z"
       fill="#fcd116"
       id="path26"
       style="stroke-width:0.833333" />
  </g>
  <g
     fill="#fcd116"
     id="g42"
     transform="matrix(0.83333333,0,0,0.83333333,10.416668,1.551788)">
    <g
       id="g85">
      <g
         id="g114">
        <path
           d="m 150.0001,259.50008 -11.46174,35.27563 30.00724,-21.80154 h -37.091 l 30.00725,21.80154 z"
           id="path28" />
        <path
           d="m 249.9999,259.50008 -11.46174,35.27563 30.00724,-21.80154 h -37.091 l 30.00725,21.80154 z"
           id="path30" />
        <path
           d="m 350.0001,259.50008 -11.46174,35.27563 30.00724,-21.80154 h -37.091 l 30.00725,21.80154 z"
           id="path32" />
        <path
           d="M 349.9999,1.5000786 338.53816,36.775709 368.5454,14.974169 h -37.091 l 30.00725,21.80154 z"
           id="path34" />
        <path
           d="M 250,1.5 238.53826,36.77563 268.5455,14.97409 h -37.091 l 30.00725,21.80154 z"
           id="path36" />
        <path
           d="M 149.9999,1.5000786 138.53816,36.775709 168.5454,14.974169 h -37.091 l 30.00725,21.80154 z"
           id="path38" />
        <circle
           cy="150"
           cx="250"
           fill="#ce1126"
           id="circle22"
           r="36" />
        <path
           d="m 250,117 -19.39683,59.69733 50.78158,-36.89498 h -62.7695 l 50.78159,36.89498 z"
           id="path40" />
      </g>
    </g>
  </g>
</svg>
