<?xml version="1.0" encoding="UTF-8" standalone="no"?>
<svg
   xmlns:dc="http://purl.org/dc/elements/1.1/"
   xmlns:cc="http://creativecommons.org/ns#"
   xmlns:rdf="http://www.w3.org/1999/02/22-rdf-syntax-ns#"
   xmlns:svg="http://www.w3.org/2000/svg"
   xmlns="http://www.w3.org/2000/svg"
   xmlns:sodipodi="http://sodipodi.sourceforge.net/DTD/sodipodi-0.dtd"
   xmlns:inkscape="http://www.inkscape.org/namespaces/inkscape"
   clip-rule="evenodd"
   fill-rule="evenodd"
   height="500"
   image-rendering="optimizeQuality"
   shape-rendering="geometricPrecision"
   text-rendering="geometricPrecision"
   viewBox="0 0 231510.42 132291.66"
   width="875"
   version="1.1"
   id="svg56"
   sodipodi:docname="Guam.svg"
   inkscape:version="1.0.2 (e86c8708, 2021-01-15)">
  <metadata
     id="metadata62">
    <rdf:RDF>
      <cc:Work
         rdf:about="">
        <dc:format>image/svg+xml</dc:format>
        <dc:type
           rdf:resource="http://purl.org/dc/dcmitype/StillImage" />
      </cc:Work>
    </rdf:RDF>
  </metadata>
  <defs
     id="defs60" />
  <sodipodi:namedview
     pagecolor="#ffffff"
     bordercolor="#666666"
     borderopacity="1"
     objecttolerance="10"
     gridtolerance="10"
     guidetolerance="10"
     inkscape:pageopacity="0"
     inkscape:pageshadow="2"
     inkscape:window-width="1344"
     inkscape:window-height="729"
     id="namedview58"
     showgrid="false"
     inkscape:zoom="0.73524381"
     inkscape:cx="479.06891"
     inkscape:cy="213.63705"
     inkscape:window-x="0"
     inkscape:window-y="25"
     inkscape:window-maximized="1"
     inkscape:current-layer="svg56" />
  <path
     d="M 0,0 H 231510.41 V 132291.67 H 0 Z"
     fill="#c62139"
     stroke-width="1.05052"
     id="path10" />
  <path
     d="M 5646.5947,6013.2636 H 225863.82 V 126278.42 H 5646.5947 Z"
     fill="#00297b"
     stroke-width="1.10117"
     id="path12" />
  <g
     id="g85"
     transform="translate(-7516.6342,0.005)">
    <g
       stroke-width="1"
       id="g36"
       transform="matrix(1.1363636,0,0,1.1363636,0,6.8181819e-4)">
      <path
         d="m 108537.17,28617.296 c 0,0 -18122.533,14420.028 -18122.533,29399.058 0,14981.029 18122.543,29783.057 18122.543,29783.057 0,0 18006.53,-13724.025 18006.53,-29783.057 0,-16057.03 -18006.54,-29399.058 -18006.54,-29399.058 z"
         fill="#92dbfc"
         id="path14" />
      <path
         d="m 92419.719,67159.562 c 4716.233,11327.588 16117.451,20639.81 16117.451,20639.81 0,0 11603.94,-8844.17 16181.37,-20640.687"
         fill="#008ce7"
         id="path16" />
      <path
         d="m 124781.68,63890.343 c -2794,1999.002 -18515.02,1039 -18515.02,1039 l -879,2238.004 18719.02,57.999 c 78,-306.998 265,-672 330,-982.002 z"
         fill="#9c8431"
         id="path18" />
      <path
         d="m 96651.642,73153.356 c 796.01,26.008 1589.01,193.997 2301.011,576 1272.997,668 2010.997,662.999 3382.997,683.999 1436.01,21.987 2563.01,1079.003 4115.01,1123.003 2859,80 4061,1500.001 1838,1499.001 -1050,-1.059 -3301,-706.001 -4389,-558.001 -1654.01,168 -2610,294.002 -3834.01,1267.003 -1165.997,-1400.001 -2331.998,-2940.004 -3414.008,-4591.005 z m 5656.008,7128.008 c 709.01,-485.002 1197.01,-864.002 1885.01,-885.002 1337,-41 1793,-868 3338,-867 1756,322 4136.01,-211 5529.01,-520.002 2473,-570 1300,-2300.004 -197,-2928.003 -1210,-518.001 -3478.01,-26.009 -4885.01,-540.001 -1065,-416 -187,-1079.001 386,-1220.001 578,-106 1198,85 1917,201.999 1284,113.001 2897.01,-7.011 4025.01,-182 2331,-356.998 2235,-1041 3360,-1057.002 821,-38 1446.01,-281.998 2006,-682.001 658.01,-439 1343.01,-1340.002 2139.01,-1304 l 468,20.003 c -4916.01,9510.012 -13745.02,15753.018 -13745.02,15753.018 0,0 -2853,-2184.001 -6226.01,-5790.005 z"
         fill="#ffde52"
         id="path20" />
      <path
         d="m 113608.67,73315.355 c 305,1180.003 628,1581.003 1868,1884.001 1224,303.001 3094,-887 1935,-2042.003 -1103,-1074 -2265,-1349 -3253,-2316.003 -1533,-1520 -3636.01,-4662.006 -4635.01,-7633.01 -1093,-3248.003 -903,-12392.016 -854,-17024.022 1.01,-54 133,-86 148,-108 71,-102 139,33 28,-646 -29,-174 -167,-354 -166,-530 1.01,-314.002 -1084,343 -1370,903 -65,128 208,493 208,565 37,4444.006 -441,13218.017 739,17190.024 730,2459.003 2062,4358.006 3268.01,6115.007 723,1126.001 1769,2341.003 2084,3642.006 z"
         fill="#8c4200"
         id="path22" />
      <g
         fill-rule="nonzero"
         id="g32">
        <g
           fill="#ffffff"
           id="g26">
          <path
             d="m 100086.65,60304.335 c -14,-2.117 -69,-8.996 -121.996,-16.007 -377,-46 -780,-204.999 -1075.001,-425 -420,-313 -698,-814.002 -791,-1429.003 -26.01,-172 -25.01,-615 1,-784 74,-474.999 248,-894.002 498,-1200 74,-90.001 216,-228.002 303,-293.002 205,-156 470,-278.002 749,-346 200,-50 323,-65 562.997,-72 334,-7.99 569,22.013 833,110 338,111.002 600.01,291 785.01,537.002 125,165.999 287,534.998 310,705.001 12,92.998 -25,162 -107,196.998 -26,11.006 -156,50.001 -290,86 -269,72.002 -307,74.002 -367,23.998 -40,-33.999 -54,-60 -89,-169 -16,-46 -55,-139.999 -88,-207 -51,-102.999 -72,-134 -141,-203 -69,-69.999 -99,-90.999 -202,-141 -228,-111.001 -484.01,-149 -779.01,-113.001 -215.996,26.008 -449.996,114.001 -596.996,225.001 -327,246 -509.001,732 -490,1306.001 25,783 357,1214.002 1039.996,1351.003 131,26.008 417,26.008 557,0 204,-38 503,-155.001 672,-263.001 l 61,-38 v -249 l 1.01,-250.002 -539,-3.995 -539,-3.996 -34,-23.997 c -19,-13.997 -45,-40 -58,-59 -24,-33 -24,-38.002 -24,-331.002 1,-293 1,-298 25,-331 13,-18.996 40,-45 59,-58.001 l 34,-25.003 923,2.117 924,2.117 33,23.997 c 19,12.99 45,42 59,64 l 24,39.003 2.01,765 c 2.02,815 0,848 -49,907 -13.99,17.013 -78,69 -141,115.002 -436,320.998 -900,511.998 -1377,567 -123,13.996 -481,18.996 -557,7.99 z m 4829.01,41.003 c -483,-37.002 -848,-181.002 -1114,-438.002 -262,-253 -392,-570 -450,-1098 -17,-147 -18,-302.002 -17,-1496.004 2.01,-1286 3,-1334 23,-1373 11,-22.014 37,-53.002 57,-69 l 38,-28.002 317,-2.99 c 306,-2.116 319,-2.116 364,20.003 28,13.996 56,39.002 71,62 l 24,39.003 4,1380 c 3,1216.003 5,1393.001 20,1489.002 40,250 80,343.002 197,460 147,146 300,200.002 590,210 267,7.99 450,-22.013 607,-99 181,-88 263,-226.998 325,-544.999 23,-120.002 23,-139.002 32,-1501.004 9,-1543 2.01,-1415 85,-1478 l 39,-29 h 330 c 368,1.057 357,-1.059 416,76.999 l 30,39 1.01,1238.001 c 1,1242.003 -5,1502.003 -38,1736.005 -71,497.998 -236,812.998 -554,1059 -107,82.999 -151,111 -256,162.999 -161,81 -347,136.001 -558,166 -110,16.007 -471.01,27 -583.01,18.996 z m 4322,-67.001 c -14,-2.99 -45,-26.008 -70,-50 -51,-51.002 -65,-98 -50,-162 19,-79.002 1583,-4115.006 1608,-4147.005 49,-66 63,-68 429,-67 366.01,0 380.01,2.99 430.01,68 12.99,18.998 401,958.001 862,2089 732,1797.004 837,2062.003 837,2110.004 0,60.999 -24,103 -81,144 -34,23.997 -35,23.997 -401,22.991 h -367 l -40,-30.998 c -51,-39 -50,-35.002 -287,-655 -108,-283.001 -201,-523.002 -207,-533 -9,-17.992 -55,-18.997 -735,-20.003 -681.01,-1.058 -726.01,0 -733,17.013 -4.01,10 -96.01,261.998 -205.01,559.998 -108,297 -206,556.001 -218,575.001 -12,18.997 -37,45 -55,58.002 -33,23.997 -39,23.997 -363,25.003 -181,1.058 -340,-1.058 -354,-3.995 z m 2343,-2066.003 c -15.99,-45 -404,-1083 -414,-1108 -4,-11.008 -9,-6.007 -17,16.006 -18,54.001 -415,1113.002 -420,1122.001 -3,3.995 191,7.99 430,8.996 h 436.01 z m 3314.01,2062.003 c -46,-13.997 -96,-67 -109,-116.002 -7,-27.998 -9,-713 -4,-2121.001 l 7,-2079.002 28,-38 c 56,-73 51,-72 552,-71 417,1.057 452,2.115 487,20.001 20,11.007 47,35 59,53 11.99,17.013 245,702 517,1520.003 273,818.002 498,1488.002 501,1488.002 2.99,0 235,-665.002 516,-1477.003 319,-924 521,-1493 538,-1519 56,-81 51,-80 510,-79 391,0 409,1.058 446,22.013 21.01,11.985 50,40 65,61 l 26.01,40 -2.99,2091.003 c -3.99,1971 -5,2093.001 -22.99,2125.002 -10,17.992 -36,46.998 -58,63 l -39,29.998 -319,-1.058 c -316,0 -319,0 -353,-25.003 -19,-12.99 -45,-39.002 -58,-58.002 l -25,-33.999 -2.99,-1200.002 -2.99,-1199 -56,158.999 c -31,88 -221,632 -422,1209 -353,1011.003 -368,1052.003 -409,1094.003 -25.01,26.01 -56,46 -77,50.001 -20.01,3.995 -153.01,6.985 -297,6.985 -251,-1.058 -264,-2.117 -309,-25.003 -26.01,-12.99 -57.01,-39 -69,-56.999 -12.02,-17.992 -207,-581.002 -433.01,-1251.001 -226,-669.002 -415,-1217.002 -419,-1217.002 -5,0 -8.99,542.002 -10.99,1206 -2.02,1351.003 4,1252.004 -80,1308.003 l -43,28.001 -298,1.058 c -164.01,1.06 -313.01,-2.99 -331.01,-8.996 z"
             id="path24" />
        </g>
        <g
           fill="#bd0728"
           id="g30">
          <path
             d="m 100058.65,60119.336 c -541.996,-62 -1029.996,-302.001 -1323.997,-652 -248,-294 -408,-682 -461,-1118.003 -17,-143.999 -16,-484 2.01,-621.998 62,-475.002 250,-918.002 519,-1223.003 459,-521 1411.997,-731.003 2185.997,-481 488,156.999 778,454.999 943,966 23,71 40,131 38,134 -6,3.996 -422,117.002 -453,123 -18,2.99 -27,-13.997 -54,-93.999 -77,-226.002 -194,-414.001 -324,-518.001 -284,-226 -684,-309 -1152.996,-238.001 -300,46 -598,200.002 -769,398 -257.001,297.003 -384.001,661 -400.001,1142.003 -15,476 71,839 270,1139 323,488 1074.997,706.002 1743.997,506 214,-64 447,-174.997 611,-292 l 76,-53.998 1.01,-385 v -386.002 l -604.01,-1.058 -605,-1.058 1.01,-236.001 v -236 l 864,2.116 864,1.059 -2.01,752.001 -1,752 -95,70 c -389,286.002 -779.01,459.003 -1196.01,533.001 -154,27.001 -522,37 -678,18.997 z m 4787.01,36.999 c -392,-43 -697,-169 -913,-379 -197,-191 -310,-428 -369,-772.998 -42,-248.003 -45,-376.003 -43,-1696.005 l 2.01,-1293.001 265,1.059 h 264 l 2.01,1379 c 2.01,1467.002 1,1443.002 57,1664.004 71,282 281,491 581,578 240,70 564,71 837,2.99 324,-81 498,-255 586,-585.001 68,-253 67,-229 74,-1690.002 l 7,-1345.001 265,1.058 h 264 l -3,1247 c -1,718 -7,1317.001 -14,1413.003 -45,632 -209,974 -592,1233 -151,103 -356,181 -582,223 -98,17.992 -576,31.001 -688,18.997 z m 4474,-113.998 c 13,-33.002 366,-948.002 785,-2034.004 l 763,-1974.002 286,-2.117 287,-2.99 822.01,2020.003 c 452,1111.002 825,2029.003 829,2040.004 7,18.998 -11,20.003 -292,20.003 l -300,-1.058 -52,-135.001 c -29,-74 -134,-351 -235,-614 l -183,-478.003 -862,-3.995 -862.01,-5 -224,616 -224,616.001 -281,-1.059 h -280 z m 2534,-1625.003 c -3,-11.007 -121,-326 -261,-700.001 -140,-374 -298,-808 -350,-966.002 -52,-157 -97,-288 -99,-291 -3,-2.99 -23,66 -44,153.001 -69,289 -135,487 -381,1137.003 -133,354.999 -246,654 -250,664.998 -8,18.997 30,20.003 691,21.008 660,1.06 699,0 694,-18.997 z m 3112.01,-354 4,-2039.001 400,3.995 399,3.995 540,1625.003 c 297,893 557,1680.002 577,1749.003 21.01,68 40,121.999 43,119.999 2.12,-2.99 69,-196.001 148,-430.001 80,-233 350,-1017.001 601,-1742.003 l 457,-1318.001 358,-2.116 358,-2.117 -3.99,2038.002 -3.99,2039.004 -253,-1.058 h -253 l 2.99,-1713.003 c 2.11,-942.002 -1.06,-1707.003 -7.02,-1701.002 -5,6.006 -256,718 -557,1582.003 -301,864 -568,1629 -593,1700 l -46,129.002 h -478 l -582,-1726.003 c -320,-949 -586,-1733.003 -591,-1743.002 -5,-8.996 -11,767.001 -13,1725.003 l -4,1741.001 h -253 l -253,-1.058 z"
             id="path28" />
        </g>
      </g>
      <path
         d="m 97273.642,44871.316 c 77,106.001 66,563.001 66,563.001 63,38 1085.01,-870.001 1085.01,-829.001 1,191.001 24,585.001 24,585.001 0,0 1058.001,-1006.001 1102.001,-900.001 49,119 -4,702.001 -4,702.001 0,0 703.997,-776.001 832.997,-916.001 93,-100 78,126 87,491 2.01,65 1154,-850 1224,-866 149,-32 195,475 187,602 -6,94 1063,-610 1016,-517 l 79,541 c 298,-41 1008.01,-306 1435.01,-237 137,22 130,91 8,141 -2058.01,833.001 -3641.01,2089.002 -4563.006,3839.005 -314,596 -410,1116.001 -327,1247.001 0,0 370,-796 786.996,-921 56,-16 93,510 150,480 0,0 316,-798.002 544,-1092.002 61,-79 163,419.001 228,345.001 0,0 164,-534.001 485,-906.001 46,-53 129,505 180,458 333,-307 646,-1077 771,-1134 87,-68 102,640 185,579 0,0 475.01,-954.002 759.01,-1127.002 182,-112 175,521 175,521 362,-357 761,-949 950,-1206 87,-118 39,780 132,815 119,46 899,-688 987,-703 58,-10.002 126,209 -26,385 -12,13.999 -964,1112.001 -964,1112.001 185,35 257,-17 390,18 395,104 -740,755.001 -721,877.001 0,0 547,-10.002 364,96 -132,77 -855,1008 -855,975.002 0,-17 363,8 361,112 -3,193 -601,1188 -607,1182 -33,-33 321,-43 369,55 88,181.002 -614.01,986.002 -477.01,1123.002 19,19 401,6.001 571,44 82,18 312,1462.002 254,1404.002 -12.99,-13.999 246.01,-1354.001 403.01,-1762.002 96,-247 403,373 428,318 -13,0 -62,-881.001 -19,-1282.001 12,-112 233,117 230,10.002 -8,-243.002 -28,-503.002 22,-740.002 38,-179 226,323 299,188 0,0 -228,-872 -133,-1118 63,-162.002 215,392 315,414 0,0 -56,-678.002 49,-853.002 l 317,340.001 c 69,-109 56,-1165.001 120,-1264.001 53,-83 382,396 431,321 44,-68 -139,-852.002 -98,-914.002 58,-89 419,218 426,212.001 147,-148 142,-517.001 204,-654.001 166,-371 1118,-419 1230,-155 55,128 17,293 -5,492 9,8.001 477,42 481,6.001 0,0 -56,437 -23,918.002 5,64 475,-16 481,48 43,453 -61,495 -61,495 4,33 317,-48 322,-12.999 34,221 -37,490 -177,749 -21,37.002 448,-36 455,7.002 57,340 68,610.001 9,1090.001 -5,39 459,-339 466,-300 70,404 -10.99,840 31,1258.001 10.01,97.001 307,-289 334,-177 27,110 -66,910.001 -21,955.001 0,0 497.01,-25 541.01,17 394,370 319,1016.001 319,1016.001 108,-80 67,-858 -42,-1570.002 -12,-75 382,-46 370,-116 0,0 -432,-260 -574,-984.002 -30,-155 417,-123 417,-123 -124,-285 -342,-339 -527,-613 -60,-90 464,-131 464,-157 1,-273 -442,-403 -671,-687 -98,-121 478,-127.002 478,-127.002 -169,-235 -726,-338 -1010,-649 -155,-169 565,-335 556,-364 -79,-249 -756,-327 -1084.01,-608.002 -68,-58 428,-254 428,-254 -50,-106 -1131,-817 -581,-752 232,28 703,358 740,308 0,0 -20,-415 28,-465 181,-188.002 805.01,798 1017.01,758 0,0 78,-706 174,-725 228,-43 506,1028 731,1028 30,0 47,-619 163,-653 131,-38 278,694 444,856.001 154,149 156,-572.001 246,-435.001 153,221 190,682.001 399,885.002 136,132 161,-636.002 312,-533.002 175,119.001 134,517.002 331,713.002 94,93 157,-507 264,-419 95,77 159,811 261,927 130,148 280,-387 415,-302 97,62 74,697 164,833 184,282.002 280,-341 402,-245 85,65 269,795.002 346,853.002 171,130 265,-332 395,-267 94,46 284,986 362,962 51,-15.999 177,-2142.002 -641,-3039.004 -1333,-1462.002 -3720,-2306.002 -5668,-2327.002 0,0 979,-195 1005,-357 52,-323 538,-285 877,-211 60,12.999 28,-571.002 36,-574.002 303,-7 574,172 864,348 90,55 -183,-585 -87,-530 372,215 786,278 1037,539 66,69.002 -76,-493 -76,-493 186,-45 553,223 697,474 70,124.002 -4,-655 51,-517 0,0 648,220 718,493 0,0 53,-494 140,-468 260,68 488,507 691,570 0,0 -84,-440 -17.99,-423 488,123 1018,425 1017,423 -275,-688 -1318,-1409.001 -3153,-1602.002 -337,-34.999 -1704,-91 -2863.01,178.002 -950,220 -1700,345 -1546,195 628,-615.002 1643,-690.002 1922,-833.002 200,-102 -673,-439 -500,-487 172,-41 952,-106 952,-106 169,-132 -567,-390.001 -457,-582.002 220,-385 1521.01,-35 1632.01,-181 36,-49 -559,-401 -534,-453 95,-195 1253,144 1280,-26 0,0 -351,-262 -601,-477.001 -30,-26 1034,-312 1034,-312 -20,-20 -182,-134 -426,-229 -223,-87 934,-388 934,-388 -1466,-670.002 -5271.01,1236 -6026.01,3214.003 -196,472 -202,-41 -161,-441.001 39,-430 93,-807 47,-1202.002 -14,-117 -311,311.001 -331,197.001 -76,-420 149,-881.001 46,-1347.001 -34,-157 -428,463 -480,306 -144,-431 108,-1037.002 6,-1631.002 -40,-232 -413,497 -538,289 -146,-241 -82,-1134.002 -151,-1269.002 -56,-108 -388,428 -416,327 -450,-1637.002 148,-1841.002 -716,-918 -30,32 -222,-968.002 -255,-934.002 -354,758.002 -934,-540 -1132,-419 -148,92 404,594 410,820 3,109 -508,116 -508,116 11,187 972,711.002 1003,916.002 25,169 -680,127 -680,127 22,229 823,447 867,690.002 25,134 -375,164 -362,300 21,209 774,622 799,835.001 17,148 -481,209 -493,347 -15,167 1000,727.001 1001,884.001 1,222 -404,108 -588,220 -259,157.001 831,793.001 877,974.002 36,159 -436,19 -452,164 -20,190 534,477.001 661,803.001 127,322 -3,404 -185,276 -365,-257 -1837,-1821.002 -2228,-2238.003 -568,-606 -1731.01,-1285 -2891.01,-1325 -121,37 624,564 629,755 1.01,49 -335,122 -320,137 206,206 847,451 847,451 l -184,331.001 c 43,97 347,123 834,283 0,0 -365,226 -338,247 258,206 758.01,358 758.01,358 l -492,165 c -29,95 1107,550.002 1107,550.002 0,0 -355,306 -339,322 87,87 922,280 922,280 14,14 -590,202 -586,206 219,219 823,290.001 964,652.002 0,0 83,206 -156,167 -940,-341 -2396.01,-1047.001 -5219.01,-770.001 -2886.007,376.001 -5085.009,2885.003 -5047.009,3135.004 0,0 1032,-740.001 1141.001,-590 z"
         fill="#109421"
         id="path34" />
    </g>
    <g
       fill="#8c4200"
       transform="matrix(1.1363636,0,0,1.1363636,228980.7,56313.972)"
       id="g44">
      <ellipse
         cx="-76406.734"
         cy="-54552.762"
         rx="609.98901"
         ry="646.73102"
         stroke-width="0.26"
         transform="matrix(0.84082178,-0.54131204,0.54148814,0.84070841,0,0)"
         id="ellipse38" />
      <ellipse
         cx="80113.359"
         cy="46920.699"
         rx="696.67401"
         ry="738.63702"
         stroke-width="0.297"
         transform="matrix(-0.84082,-0.54131,-0.5415,0.8407,0,0)"
         id="ellipse40" />
      <ellipse
         cx="80494.336"
         cy="47852.852"
         rx="743.69098"
         ry="788.48499"
         stroke-width="0.317"
         transform="matrix(-0.84082,-0.54131,-0.5415,0.8407,0,0)"
         id="ellipse42" />
    </g>
    <g
       stroke-width="1"
       id="g54"
       transform="matrix(1.1363636,0,0,1.1363636,0,6.8181819e-4)">
      <path
         d="m 102199.71,69706.336 h 919 v 687 h -919 z"
         id="path46" />
      <path
         d="m 97603.708,70148.337 c 0,0 6037.012,459.999 9739.012,-334.999 0,0 311,210.999 -136,732.999 -447,521.001 -1578,632.999 -2199,745 0,0 -149,335 -137,509 13,174.001 392,156.001 578,118.002 l 186,-37.002 c 0,0 -87,652.002 -2372,739.002 -750,28.998 -3223,81 -3746.002,-652.002 0,0 453,37.002 571.002,0 118,-36.999 32,-509 -12.01,-578.001 -42.99,-67.998 -1603.002,0 -2422.002,-757.999 -203,-216.001 -300,-446 -300,-528 0,-7.012 250,44 250,44 z m 3146.012,1267 c 0,0 1652,211 3553,0 0,0 50,360 -37,497.001 -87,136.999 -2280,242.001 -3386,50.001 -178,-57.002 -184,-275.003 -130,-547.002 z"
         fill="#8c4200"
         id="path48" />
      <path
         d="m 98443.718,69854.337 c 0,0 2240.002,-2382.001 1554,-7352.007 0,0 2334.002,601.001 4713.002,4034.005 0,0 694,697 1510,3183.001 z"
         fill="#fdf9ff"
         id="path50" />
      <path
         d="m 108540.72,26889.305 c 0,0 -19181.012,14279.009 -19181.012,31116.021 0,16839.012 19181.012,31522.022 19181.012,31522.022 0,0 19058.02,-13472.01 19058.02,-31522.022 0,-18049.013 -19058.02,-31116.021 -19058.02,-31116.021 z m -7,3456.003 c 0,0 -17064.012,12703.007 -17064.012,27682.018 0,14981.012 17064.012,28044.022 17064.012,28044.022 0,0 16955.02,-11985.01 16955.02,-28044.022 0,-16057.011 -16955.02,-27682.018 -16955.02,-27682.018 z"
         fill="#c62139"
         id="path52" />
    </g>
  </g>
</svg>
