<?xml version="1.0" encoding="UTF-8" standalone="no"?>
<svg
   xmlns:dc="http://purl.org/dc/elements/1.1/"
   xmlns:cc="http://creativecommons.org/ns#"
   xmlns:rdf="http://www.w3.org/1999/02/22-rdf-syntax-ns#"
   xmlns:svg="http://www.w3.org/2000/svg"
   xmlns="http://www.w3.org/2000/svg"
   xmlns:sodipodi="http://sodipodi.sourceforge.net/DTD/sodipodi-0.dtd"
   xmlns:inkscape="http://www.inkscape.org/namespaces/inkscape"
   width="875"
   height="500"
   viewBox="0 0 875 500"
   version="1.1"
   id="svg26"
   sodipodi:docname="Honduras.svg"
   inkscape:version="1.0.2 (e86c8708, 2021-01-15)">
  <metadata
     id="metadata32">
    <rdf:RDF>
      <cc:Work
         rdf:about="">
        <dc:format>image/svg+xml</dc:format>
        <dc:type
           rdf:resource="http://purl.org/dc/dcmitype/StillImage" />
      </cc:Work>
    </rdf:RDF>
  </metadata>
  <defs
     id="defs30" />
  <sodipodi:namedview
     pagecolor="#ffffff"
     bordercolor="#666666"
     borderopacity="1"
     objecttolerance="10"
     gridtolerance="10"
     guidetolerance="10"
     inkscape:pageopacity="0"
     inkscape:pageshadow="2"
     inkscape:window-width="1344"
     inkscape:window-height="729"
     id="namedview28"
     showgrid="false"
     inkscape:zoom="0.57740361"
     inkscape:cx="465.67125"
     inkscape:cy="336.45089"
     inkscape:window-x="0"
     inkscape:window-y="25"
     inkscape:window-maximized="1"
     inkscape:current-layer="svg26" />
  <path
     fill="#0d3b99"
     d="M 875,0 H 0 v 500 h 875 z"
     id="path10"
     style="stroke-width:0.742393" />
  <path
     fill="#ffffff"
     d="M 875,166.66667 H 0 v 166.66666 h 875 z"
     id="path12"
     style="stroke-width:0.742393" />
  <g
     id="g40"
     transform="translate(-62.499998,2.6526365)">
    <path
       d="m 500.0009,222.2225 16.32711,50.24969 -42.74496,-31.05604 52.83567,3e-5 -42.74495,31.05599 z"
       fill="#0d3b99"
       id="path14"
       style="stroke-width:2.57202" />
    <path
       d="m 638.88979,263.88917 16.32711,50.24969 -42.74496,-31.05604 52.83567,2e-5 -42.74495,31.056 z"
       fill="#0d3b99"
       id="path16"
       style="stroke-width:2.57202" />
    <path
       d="m 638.88979,180.55584 16.32711,50.24969 -42.74496,-31.05605 52.83567,3e-5 -42.74495,31.05599 z"
       fill="#0d3b99"
       id="path18"
       style="stroke-width:2.57202" />
    <g
       transform="matrix(0.79365079,0,0,0.79365079,-282.74995,390.03947)"
       id="g24">
      <path
         d="m 431.01775,-590.33697 -6.34798,19.53708 16.61924,-12.07459 -20.54251,10e-6 16.61924,12.07457 z"
         fill="#0d3b99"
         transform="matrix(3.2407407,0,0,3.2407407,-585.55296,1754.1797)"
         id="path20" />
      <path
         d="m 431.01775,-590.33697 -6.34798,19.53708 16.61924,-12.07459 -20.54251,10e-6 16.61924,12.07457 z"
         fill="#0d3b99"
         transform="matrix(3.2407407,0,0,3.2407407,-585.55296,1649.1797)"
         id="path22" />
    </g>
  </g>
</svg>
