<?xml version="1.0" encoding="UTF-8" standalone="no"?>
<svg
   xmlns:dc="http://purl.org/dc/elements/1.1/"
   xmlns:cc="http://creativecommons.org/ns#"
   xmlns:rdf="http://www.w3.org/1999/02/22-rdf-syntax-ns#"
   xmlns:svg="http://www.w3.org/2000/svg"
   xmlns="http://www.w3.org/2000/svg"
   xmlns:sodipodi="http://sodipodi.sourceforge.net/DTD/sodipodi-0.dtd"
   xmlns:inkscape="http://www.inkscape.org/namespaces/inkscape"
   height="500"
   width="875"
   version="1.1"
   id="svg14"
   sodipodi:docname="Kyrgyzstan.svg"
   inkscape:version="1.0.2 (e86c8708, 2021-01-15)">
  <metadata
     id="metadata20">
    <rdf:RDF>
      <cc:Work
         rdf:about="">
        <dc:format>image/svg+xml</dc:format>
        <dc:type
           rdf:resource="http://purl.org/dc/dcmitype/StillImage" />
      </cc:Work>
    </rdf:RDF>
  </metadata>
  <defs
     id="defs18" />
  <sodipodi:namedview
     pagecolor="#ffffff"
     bordercolor="#666666"
     borderopacity="1"
     objecttolerance="10"
     gridtolerance="10"
     guidetolerance="10"
     inkscape:pageopacity="0"
     inkscape:pageshadow="2"
     inkscape:window-width="1344"
     inkscape:window-height="729"
     id="namedview16"
     showgrid="false"
     inkscape:zoom="0.5359048"
     inkscape:cx="288.20055"
     inkscape:cy="273.32496"
     inkscape:window-x="0"
     inkscape:window-y="25"
     inkscape:window-maximized="1"
     inkscape:current-layer="svg14" />
  <path
     d="M 0,0 H 875 V 500 H 0 Z"
     fill="#ff0000"
     id="path10"
     style="stroke-width:0.853912" />
  <path
     d="m 399.82007,216.05984 c -9.31414,-5.78606 -19.19277,-10.58426 -29.35365,-14.53571 -8.74965,12.98335 -13.83009,28.50692 -13.83009,45.3006 0,8.32627 1.2701,16.3703 3.6692,23.99096 4.2337,-9.73751 9.59639,-19.19277 16.08806,-28.22466 6.91505,-9.87864 14.81795,-18.76941 23.42648,-26.53119 z m -24.8377,-20.46288 c 11.0076,3.81032 21.59186,8.74964 31.75275,14.53569 2.25796,-1.97573 4.65706,-3.66921 6.91504,-5.36268 -10.72538,-5.92719 -22.15637,-10.72538 -33.8696,-14.39458 -1.69349,1.69348 -3.38697,3.38696 -4.79819,5.22157 z m 9.87862,-10.01977 c 12.70111,3.38696 24.83771,8.04403 36.2687,14.11233 2.68134,-1.69347 5.36269,-3.24583 7.90291,-4.79819 -12.1366,-6.20942 -24.97882,-10.72537 -38.24442,-13.9712 -2.11686,1.41123 -4.09258,2.96359 -5.92719,4.65706 z m 11.99549,-8.4674 c 13.97121,2.82247 27.51905,7.33842 40.22015,13.54784 12.84222,-6.20942 26.39007,-10.72537 40.22015,-13.54784 -11.71324,-6.91504 -25.54332,-10.86649 -40.22015,-10.86649 -14.67682,0 -28.36579,3.95145 -40.22015,10.86649 z m 86.5086,3.95146 c -13.26559,3.10471 -26.10781,7.76178 -38.24442,13.83008 2.68135,1.55236 5.22157,3.10472 7.90292,4.7982 11.5721,-6.06831 23.70871,-10.72538 36.26869,-14.11234 -1.8346,-1.69347 -3.81033,-3.24583 -5.92719,-4.51594 z m 11.00763,9.45526 c -11.71323,3.52808 -23.0031,8.32627 -33.8696,14.25346 2.39909,1.69347 4.79819,3.52808 7.05617,5.36268 10.01975,-5.78605 20.604,-10.72537 31.61163,-14.53569 -1.41124,-1.83461 -2.9636,-3.52809 -4.7982,-5.08045 z m 9.31414,11.14874 c -10.16088,3.81033 -19.89839,8.60852 -29.21253,14.39459 8.60852,7.76178 16.37031,16.65255 23.42647,26.53119 6.35055,9.03189 11.71324,18.48715 16.08807,28.22466 2.25797,-7.76178 3.52807,-15.66469 3.52807,-23.99096 0,-16.79368 -5.08043,-32.31725 -13.83008,-45.15948 z m -6.91504,55.32036 c -8.4674,-13.68897 -18.62828,-25.82558 -29.91815,-36.12758 -2.54022,1.8346 -5.22157,3.66921 -7.62067,5.50381 19.05166,17.78154 34.43411,40.07903 44.17161,66.04573 2.25798,-3.38697 4.37483,-6.91505 6.06831,-10.44313 -3.52809,-8.4674 -7.76178,-16.79368 -12.7011,-24.97883 z m -44.7361,-36.69208 c 2.54022,-1.8346 5.08044,-3.66921 7.76178,-5.36269 -2.25797,-1.97572 -4.65707,-3.81032 -7.05617,-5.64493 -2.68134,1.69348 -5.36268,3.38696 -8.04403,5.22157 h 0.14113 c 2.3991,1.8346 4.79819,3.81033 7.19729,5.78605 z m -14.95908,-11.28986 c 2.68135,-1.69349 5.50381,-3.38696 8.04403,-4.93932 -2.68134,-1.69348 -5.36268,-3.38696 -8.04403,-4.93932 -2.68134,1.55236 -5.22156,3.24584 -7.9029,4.93932 2.68134,1.55236 5.22156,3.24583 7.9029,4.93932 z m -7.62066,5.50381 c -2.68134,-1.8346 -5.22156,-3.52809 -7.9029,-5.22157 -2.3991,1.83461 -4.79819,3.66921 -7.19729,5.50382 2.68134,1.8346 5.22156,3.52808 7.76178,5.36268 2.3991,-1.97573 4.7982,-3.81033 7.33841,-5.64493 z m 7.62066,5.64493 c -2.3991,1.83461 -4.7982,3.81033 -7.3384,5.92718 2.5402,1.97573 4.9393,4.09258 7.3384,6.20943 2.3991,-2.11685 4.7982,-4.2337 7.33841,-6.20943 -2.39909,-1.97572 -4.79819,-4.09257 -7.33841,-5.92718 z m 0,26.39007 c -10.72537,11.57211 -20.18063,24.8377 -27.80129,39.65565 -5.22156,9.87864 -9.31414,20.18064 -12.41886,30.48264 11.85436,6.6328 25.54333,10.58426 40.22015,10.58426 14.67683,0 28.36579,-3.95146 40.22015,-10.58425 -3.1047,-10.302 -7.19729,-20.60401 -12.41885,-30.48265 -7.62066,-14.81795 -16.9348,-28.08354 -27.8013,-39.65565 z m -46.5707,53.48575 c 9.17301,-23.42648 22.72086,-43.88936 39.37341,-60.82416 -2.3991,-2.25798 -4.79819,-4.37483 -7.33841,-6.6328 -19.3339,18.7694 -34.85747,42.05475 -44.31273,69.00931 2.68134,2.96359 5.50381,5.64494 8.60852,8.18516 1.129,-3.24584 2.3991,-6.49167 3.66921,-9.73751 z m 53.76799,-60.82416 c 16.65256,16.9348 30.2004,37.39768 39.51454,60.82416 1.27011,3.24584 2.3991,6.49167 3.52808,9.73751 3.10472,-2.54022 6.0683,-5.22157 8.74965,-8.18516 -9.59638,-26.95455 -25.11996,-50.23991 -44.45386,-69.00931 -2.54021,2.25797 -4.9393,4.37482 -7.33841,6.6328 z m -73.52526,53.2035 c 9.73752,-25.9667 25.11996,-48.12307 44.31273,-65.9046 -2.54022,-1.97573 -5.08044,-3.81034 -7.76179,-5.64494 -11.28986,10.44313 -21.45074,22.57974 -29.91814,36.26869 -4.93932,8.04404 -9.17302,16.37032 -12.70111,24.83772 1.69348,3.66921 3.81034,7.05616 6.06831,10.44313 z M 437.5,159.75162 c 49.67543,0 90.17782,40.5024 90.17782,90.17781 0,49.67543 -40.50239,90.17782 -90.17782,90.17782 -49.67542,0 -90.17781,-40.50239 -90.17781,-90.17782 0,-49.67541 40.50239,-90.17781 90.17781,-90.17781 z m 39.79678,-19.75726 c -2.54021,2.96358 -5.36268,6.77391 -8.18515,12.84221 -0.70562,-1.55235 -0.70562,-3.38695 -0.28225,-5.36268 0.70563,-6.49167 2.54023,-10.44313 5.92719,-15.94694 1.12898,-1.97573 2.25797,-3.6692 2.82246,-5.78606 2.11685,-6.35055 1.69348,-14.81795 -2.96359,-21.45074 0.70562,7.47953 -1.55236,13.68897 -4.09257,17.49929 -0.42338,0.70562 -0.84674,1.12898 -1.41124,1.69348 -2.68135,2.68135 -5.64493,5.3627 -9.45526,11.57211 -2.11685,3.38697 -4.2337,7.47954 -6.20943,13.97121 -0.84674,-1.41122 -1.12899,-3.10471 -0.98786,-5.08043 -0.28225,-6.6328 0.84674,-10.72538 3.24584,-16.79368 0.84674,-2.11685 1.69347,-3.95145 1.97572,-6.20943 0.98787,-6.49168 -0.70561,-14.81795 -6.35055,-20.60401 1.8346,7.1973 0.70562,13.68897 -1.27011,17.92267 -0.42337,0.70561 -0.70561,1.27011 -1.12899,1.8346 -2.25796,3.10472 -4.65707,6.20943 -7.62066,12.84222 -1.41123,3.81034 -2.96359,8.18516 -3.81033,14.81796 -1.12898,-1.27011 -1.69348,-2.96359 -1.8346,-4.93932 -1.27011,-6.49167 -0.84674,-10.72538 0.56449,-17.07593 0.56449,-2.11684 1.12899,-4.09257 0.98787,-6.35055 0,-6.63279 -2.96359,-14.5357 -9.45527,-19.475023 2.96359,6.915053 2.82248,13.547853 1.55236,18.063803 -0.28225,0.56449 -0.56449,1.2701 -0.84674,1.8346 -1.69349,3.52808 -3.66921,6.91504 -5.50382,13.9712 -0.84673,3.95145 -1.69347,8.60853 -1.55235,15.24132 -1.12899,-1.12898 -1.97572,-2.68134 -2.54022,-4.51594 -2.25798,-6.35055 -2.54022,-10.44313 -1.97572,-17.07593 0.14112,-2.25796 0.28224,-4.23369 0,-6.35054 -1.12899,-6.6328 -5.36269,-13.97121 -12.41887,-17.78155 3.95147,6.35055 4.79821,12.98335 4.23371,17.4993 -0.14112,0.70562 -0.28224,1.41123 -0.42337,2.11685 -1.12899,3.6692 -2.54022,7.33841 -3.24584,14.67683 -0.28224,3.95145 -0.42336,8.60851 0.84674,15.24131 -1.41124,-0.98786 -2.3991,-2.39909 -3.24584,-4.09257 -3.24583,-5.92718 -4.09257,-10.01976 -4.65706,-16.51143 -0.14113,-2.25797 -0.28225,-4.2337 -1.129,-6.35055 -1.97572,-6.35054 -7.3384,-12.98335 -14.95906,-15.52356 4.93931,5.50381 6.91504,11.85435 6.91504,16.51142 0,0.70562 0,1.41124 -0.14113,2.11685 -0.56449,3.81034 -1.2701,7.76179 -0.84674,14.95908 0.42338,3.95145 0.98787,8.60852 3.24584,14.95907 -1.55235,-0.70561 -2.82246,-1.97572 -3.95145,-3.52808 -4.09258,-5.22156 -5.50381,-9.17302 -7.05617,-15.52357 -0.56449,-2.25797 -0.98786,-4.09258 -2.11685,-6.20942 -2.96358,-5.78606 -9.31413,-11.57213 -17.21705,-12.98335 5.64493,4.79819 8.60852,10.86649 9.45527,15.38244 0.14112,0.70562 0.14112,1.41123 0.14112,2.11685 0.14113,3.81033 0,7.76178 1.55236,14.95908 0.98786,3.81033 2.25797,8.32627 5.50381,14.11233 -1.55236,-0.42337 -2.96359,-1.41123 -4.37483,-2.82247 -4.93931,-4.51595 -7.05616,-8.18516 -9.45526,-14.25345 -0.84675,-2.11686 -1.69349,-3.95146 -2.96359,-5.78606 -3.95146,-5.22156 -11.00762,-9.87864 -19.19278,-10.01975 6.49167,3.81032 10.30201,9.173 11.85437,13.54783 0.14112,0.70562 0.28224,1.41124 0.42337,2.11685 0.70561,3.81033 1.12898,7.76179 3.81033,14.53571 1.55235,3.66921 3.6692,7.90291 7.76178,13.12446 -1.69348,-0.14112 -3.24583,-0.98785 -4.79819,-2.11685 -5.50381,-3.6692 -8.18516,-7.05616 -11.71324,-12.55997 -1.12899,-1.97573 -2.11685,-3.66921 -3.81033,-5.22156 -4.65707,-4.65707 -12.41886,-8.18516 -20.46289,-7.05617 6.91505,2.82246 11.57212,7.62065 13.83009,11.71324 0.28224,0.56449 0.5645,1.27011 0.84674,1.97572 1.27011,3.52809 2.25797,7.33842 5.92718,13.68897 2.11686,3.38696 4.79819,7.19729 9.73751,11.85437 -1.69348,0 -3.38696,-0.5645 -5.08044,-1.41125 -6.0683,-2.82246 -9.17302,-5.64493 -13.40671,-10.58425 -1.55236,-1.69347 -2.82247,-3.24584 -4.65707,-4.65706 -5.36269,-3.81034 -13.54785,-6.06831 -21.30962,-3.66921 7.3384,1.69347 12.7011,5.64493 15.38243,9.31414 0.5645,0.56449 0.84674,1.12898 1.129,1.8346 1.8346,3.38696 3.52807,7.05617 8.18515,12.55998 2.54022,3.10471 5.78606,6.49167 11.28986,10.302 -1.55235,0.28225 -3.24584,0 -5.22156,-0.70561 -6.35055,-1.69349 -9.87863,-4.09259 -14.81795,-8.32628 -1.69348,-1.41124 -3.24583,-2.68134 -5.22157,-3.81034 -5.92717,-2.96358 -14.39457,-3.81032 -21.73299,-0.28224 7.47953,0.42337 13.40672,3.66921 16.79367,6.77392 0.42338,0.5645 0.84675,0.98786 1.27011,1.69348 2.3991,2.96359 4.51595,6.35055 10.01976,11.14874 2.96359,2.54023 6.77393,5.36269 12.84223,8.32628 -1.55236,0.5645 -3.38696,0.5645 -5.22156,0.14112 -6.6328,-0.70561 -10.44314,-2.54021 -16.08807,-5.92717 -1.97572,-1.12899 -3.66921,-2.25797 -5.78605,-2.82247 -6.35056,-2.11685 -14.67683,-1.69348 -21.30962,2.96359 7.3384,-0.70562 13.68896,1.55236 17.49929,4.09258 0.56449,0.42336 1.12898,0.84674 1.55235,1.41123 2.82247,2.68134 5.50381,5.64493 11.57211,9.45526 3.38697,2.11686 7.62066,4.37483 13.97122,6.20943 -1.41123,0.84674 -3.10471,1.12898 -5.08044,1.12898 -6.6328,0.14113 -10.72537,-0.98785 -16.79368,-3.38695 -2.11685,-0.84674 -3.95145,-1.69348 -6.20942,-1.97573 -6.49167,-0.98787 -14.81796,0.70562 -20.60402,6.35055 7.19729,-1.83461 13.83009,-0.70561 17.92267,1.27012 0.70562,0.42336 1.27011,0.7056 1.83461,1.12898 3.10471,2.25797 6.20942,4.65707 12.98334,7.62066 3.66921,1.41123 8.04403,2.96358 14.67683,3.81032 -1.27011,1.12899 -2.9636,1.69349 -4.7982,1.83461 -6.6328,1.41124 -10.72537,0.84674 -17.21704,-0.56449 -2.11685,-0.56449 -4.09258,-0.98786 -6.35056,-0.98786 -6.63279,0 -14.5357,2.96359 -19.3339,9.45526 6.77393,-2.96358 13.40673,-2.82247 17.92268,-1.55236 0.70561,0.28224 1.27011,0.5645 1.97572,0.84674 3.38696,1.69349 6.91505,3.66921 13.97121,5.50381 3.81034,0.84674 8.4674,1.69349 15.1002,1.55236 -1.12899,1.12899 -2.68135,1.97573 -4.51595,2.54022 -6.20943,2.25797 -10.44312,2.54022 -16.9348,1.97572 -2.25797,-0.14112 -4.2337,-0.28224 -6.49167,0 -6.49168,1.12899 -13.83009,5.36269 -17.64042,12.55999 6.20943,-4.09258 12.84223,-4.93932 17.4993,-4.37483 0.70561,0.14112 1.2701,0.28225 1.97573,0.42338 3.6692,1.2701 7.3384,2.5402 14.67682,3.24583 3.95145,0.28225 8.60853,0.42337 15.24132,-0.84674 -0.98786,1.41123 -2.39909,2.3991 -4.09258,3.24584 -5.78606,3.24583 -10.01976,4.09257 -16.51143,4.65707 -2.25798,0.28224 -4.2337,0.42336 -6.35055,1.12898 -6.35055,1.97572 -12.84223,7.33842 -15.52357,14.95907 5.64494,-4.93931 11.99549,-6.77391 16.65255,-6.91504 0.70563,0 1.41124,0 2.11686,0.14113 3.66921,0.56449 7.62066,1.27011 14.95908,0.84674 3.95145,-0.28225 8.60852,-0.98787 14.81795,-3.24584 -0.5645,1.55236 -1.8346,2.82246 -3.52809,3.95146 -5.22156,4.09257 -9.17301,5.5038 -15.52357,7.05616 -2.11684,0.56449 -4.09257,0.98786 -6.06829,2.11684 -5.9272,2.9636 -11.57213,9.31415 -12.98335,17.21705 4.65706,-5.64493 10.72536,-8.60851 15.24131,-9.45525 0.70562,-0.14113 1.41124,-0.14113 2.11685,-0.14113 3.81033,-0.14112 7.90291,0 14.95907,-1.55236 3.81034,-0.98786 8.32628,-2.25796 14.25347,-5.50381 -0.42338,1.55236 -1.55236,3.10471 -2.9636,4.37483 -4.51594,4.93932 -8.18515,7.05616 -14.25345,9.45526 -1.97573,0.98786 -3.81034,1.69348 -5.64494,2.96359 -5.36269,3.95145 -10.01976,11.00762 -10.16088,19.19277 3.81033,-6.49167 9.31414,-10.302 13.68897,-11.85435 0.70561,-0.14113 1.2701,-0.28225 1.97572,-0.42337 3.81033,-0.70562 7.76178,-1.12899 14.53571,-3.81033 3.66921,-1.55236 7.9029,-3.66921 13.26559,-7.62067 -0.28224,1.55236 -0.98786,3.10472 -2.25797,4.65707 -3.6692,5.50381 -6.91505,8.18515 -12.55998,11.71325 -1.83461,1.12898 -3.52808,2.11684 -5.22157,3.81032 -4.65707,4.65708 -8.04402,12.41885 -6.91504,20.46288 2.68134,-6.91504 7.47954,-11.5721 11.57211,-13.83008 0.70563,-0.28225 1.27012,-0.56449 1.97573,-0.84674 3.66921,-1.12898 7.47955,-2.25798 13.68896,-5.92718 3.38697,-2.11685 7.19729,-4.7982 11.85437,-9.73751 0.14112,1.69347 -0.42337,3.38696 -1.41123,5.08044 -2.82247,6.0683 -5.64494,9.17302 -10.58425,13.40672 -1.69349,1.55235 -3.24584,2.82246 -4.51595,4.65706 -3.81034,5.36269 -6.0683,13.54784 -3.66921,21.30963 1.55236,-7.33842 5.50381,-12.70109 9.31414,-15.38244 0.56449,-0.42338 1.12899,-0.84675 1.69348,-1.12899 3.38696,-1.8346 7.05617,-3.52808 12.7011,-8.18515 2.96359,-2.54022 6.35055,-5.78606 10.16089,-11.28986 0.28224,1.55235 0,3.38695 -0.5645,5.22155 -1.8346,6.35055 -4.09258,9.87864 -8.4674,14.81795 -1.41123,1.69349 -2.68135,3.24585 -3.66921,5.36269 -2.96359,5.92718 -3.95145,14.25346 -0.42337,21.59187 0.56449,-7.47954 3.66921,-13.40671 6.91504,-16.65256 0.42338,-0.56448 0.98787,-0.98785 1.55236,-1.41122 3.10472,-2.3991 6.35056,-4.51595 11.14875,-10.01976 2.54022,-2.96359 5.36268,-6.77392 8.32628,-12.84222 0.56449,1.55235 0.56449,3.38695 0.28224,5.22156 -0.84675,6.63279 -2.54022,10.44313 -5.92718,16.08806 -1.27011,1.97573 -2.25797,3.6692 -2.96359,5.78605 -1.97573,6.35055 -1.55236,14.81795 3.10472,21.45075 -0.70563,-7.47954 1.41123,-13.83008 4.09256,-17.64042 0.42338,-0.56449 0.84675,-1.12899 1.27012,-1.55235 2.68135,-2.82246 5.64493,-5.50381 9.59638,-11.57212 1.97574,-3.38695 4.23371,-7.62066 6.06831,-13.97121 0.84674,1.41124 1.12899,3.10472 1.12899,5.08044 0.28225,6.6328 -0.84674,10.72538 -3.38696,16.79369 -0.84675,2.11684 -1.55235,3.95145 -1.97573,6.20942 -0.98787,6.49168 0.70562,14.81794 6.35055,20.60401 -1.8346,-7.19729 -0.70562,-13.83009 1.41123,-17.92267 0.28225,-0.70561 0.5645,-1.27011 0.98787,-1.83461 2.25798,-3.1047 4.79819,-6.20941 7.62066,-12.98335 1.55235,-3.6692 3.10471,-8.04402 3.95145,-14.67681 0.98787,1.27011 1.55236,2.96359 1.83461,4.79819 1.27011,6.63279 0.84674,10.72537 -0.70562,17.21704 -0.56449,2.11686 -0.98787,4.09258 -0.98787,6.35055 0,6.6328 3.10472,14.53571 9.5964,19.3339 -2.9636,-6.77392 -2.9636,-13.40671 -1.55236,-17.92266 0.14112,-0.70561 0.42336,-1.27011 0.70561,-1.97572 1.69348,-3.38697 3.66921,-6.91505 5.50382,-13.97122 0.84673,-3.81033 1.69347,-8.4674 1.55235,-15.1002 1.27012,1.12898 1.97573,2.68134 2.54022,4.51595 2.3991,6.20943 2.54022,10.44313 2.11685,17.07593 -0.28224,2.11685 -0.42337,4.09257 0,6.35055 0.98787,6.6328 5.22157,13.9712 12.41886,17.78154 -3.95146,-6.35055 -4.93933,-12.98334 -4.2337,-17.49929 0,-0.70562 0.14111,-1.41125 0.42337,-2.11686 1.12899,-3.66921 2.54021,-7.33842 3.24584,-14.67682 0.14111,-3.95147 0.28224,-8.60853 -0.84675,-15.24132 1.27011,0.98785 2.3991,2.3991 3.24585,4.09257 3.24583,5.78606 4.09256,10.01975 4.65706,16.51143 0.14113,2.25798 0.28224,4.2337 0.98787,6.35055 2.11684,6.35055 7.33841,12.84223 15.10019,15.52357 -4.93932,-5.64493 -6.91504,-11.99548 -7.05617,-16.65256 0,-0.70561 0,-1.41123 0.14113,-2.11684 0.56449,-3.66921 1.41123,-7.62067 0.84673,-14.95907 -0.28224,-3.95146 -0.98786,-8.60854 -3.10471,-14.81795 1.41124,0.7056 2.68135,1.8346 3.81033,3.52807 4.09258,5.22157 5.64493,9.17302 7.19729,15.52357 0.42337,2.11685 0.98787,4.09258 1.97573,6.06831 3.10471,5.92717 9.31414,11.5721 17.35817,12.98335 -5.78605,-4.65708 -8.74965,-10.72538 -9.59639,-15.24133 -0.14112,-0.70562 -0.14112,-1.41123 -0.14112,-2.11685 0,-3.81032 0.14112,-7.76178 -1.41123,-14.95907 -0.98786,-3.81033 -2.3991,-8.32628 -5.64493,-14.25346 1.69348,0.42337 3.1047,1.55236 4.37481,2.96359 4.93933,4.51594 7.05618,8.18515 9.59639,14.25346 0.84675,1.97572 1.55236,3.81032 2.9636,5.64493 3.95145,5.36268 11.00762,10.01976 19.05165,10.16088 -6.35055,-3.81033 -10.16088,-9.31414 -11.71324,-13.68896 -0.28225,-0.70562 -0.42337,-1.27011 -0.5645,-1.97573 -0.56448,-3.81033 -1.12898,-7.76178 -3.81032,-14.53571 -1.55236,-3.6692 -3.52809,-7.9029 -7.62066,-13.12447 1.69347,0.14112 3.24583,0.84674 4.79819,2.11686 5.50381,3.66921 8.18515,6.91504 11.57212,12.55997 1.12898,1.8346 2.25796,3.66921 3.81032,5.22157 4.65708,4.65707 12.41886,8.04402 20.46289,6.91504 -6.91505,-2.68135 -11.57212,-7.47954 -13.68896,-11.57212 -0.42337,-0.70561 -0.70563,-1.2701 -0.84674,-1.97572 -1.27011,-3.66921 -2.3991,-7.47953 -6.0683,-13.68897 -2.11686,-3.38696 -4.7982,-7.19729 -9.5964,-11.85436 1.55236,0 3.24585,0.42338 5.08045,1.41124 5.92717,2.82246 9.17301,5.64493 13.40671,10.58425 1.41124,1.69348 2.68134,3.24584 4.51594,4.51595 5.3627,3.95145 13.54785,6.0683 21.30963,3.81032 -7.19729,-1.69347 -12.55998,-5.64493 -15.38244,-9.45526 -0.42337,-0.5645 -0.84674,-1.12898 -1.12899,-1.69348 -1.8346,-3.38697 -3.38695,-7.05617 -8.04402,-12.7011 -2.68135,-2.96359 -5.92719,-6.35056 -11.431,-10.16088 1.69348,-0.28224 3.38697,0 5.22157,0.56449 6.35055,1.83461 9.87862,4.2337 14.95907,8.4674 1.69348,1.41124 3.24583,2.68135 5.22157,3.66921 5.92717,2.96359 14.25345,3.95145 21.59186,0.42336 -7.47953,-0.56448 -13.26559,-3.6692 -16.65255,-6.91504 -0.5645,-0.42336 -0.98786,-0.98786 -1.41124,-1.55236 -2.25796,-3.1047 -4.51594,-6.35055 -9.87862,-11.14874 -3.10473,-2.54021 -6.91505,-5.36268 -12.84223,-8.32627 1.55236,-0.56449 3.24583,-0.56449 5.22157,-0.28225 6.49167,0.84674 10.44312,2.54022 15.94693,6.06831 1.97573,1.12899 3.66921,2.11685 5.78605,2.82246 6.35056,1.97573 14.81796,1.55235 21.45075,-3.10471 -7.47953,0.70561 -13.68896,-1.41123 -17.49929,-4.09258 -0.56449,-0.42337 -1.12899,-0.84674 -1.69348,-1.27012 -2.68134,-2.68133 -5.36269,-5.64493 -11.57211,-9.59638 -3.38697,-1.97572 -7.47954,-4.23369 -13.97122,-6.0683 1.41124,-0.84674 3.24584,-1.12899 5.08044,-1.12899 6.77393,-0.28224 10.8665,0.84674 16.79368,3.38697 2.11686,0.84674 3.95146,1.55235 6.20943,1.97572 6.49167,0.98786 14.81795,-0.70562 20.604,-6.35055 -7.19728,1.8346 -13.68896,0.70562 -17.92266,-1.41123 -0.5645,-0.28225 -1.2701,-0.56449 -1.8346,-0.98786 -3.10471,-2.25798 -6.20943,-4.65708 -12.84223,-7.62067 -3.66921,-1.41123 -8.18515,-2.96359 -14.81795,-3.95146 1.27012,-0.98785 2.96359,-1.55235 4.93933,-1.8346 6.49167,-1.2701 10.72536,-0.84674 17.07591,0.70562 2.11685,0.5645 4.09258,0.98787 6.35056,0.98787 6.63279,0 14.5357,-3.10472 19.47502,-9.45527 -6.91505,2.82247 -13.54784,2.82247 -17.92267,1.41123 -0.70561,-0.14112 -1.41123,-0.42336 -1.97572,-0.70561 -3.52809,-1.69348 -6.91505,-3.6692 -13.97122,-5.50381 -3.95145,-0.84674 -8.46739,-1.69348 -15.24132,-1.55236 1.12899,-1.27011 2.68135,-1.97572 4.51595,-2.54022 6.35055,-2.3991 10.58425,-2.54021 17.07593,-2.11685 2.25797,0.28225 4.2337,0.42337 6.49167,0 6.49167,-0.98786 13.83009,-5.22156 17.64042,-12.41885 -6.35056,3.95145 -12.84223,4.93931 -17.4993,4.37482 -0.70561,-0.14112 -1.41123,-0.28225 -2.11685,-0.56449 -3.6692,-1.12899 -7.33841,-2.54023 -14.5357,-3.24584 -3.95146,-0.14113 -8.74965,-0.28224 -15.24132,0.98786 0.84674,-1.41123 2.25797,-2.54021 4.09257,-3.38695 5.78607,-3.24585 9.87864,-4.09259 16.37032,-4.65707 2.25796,-0.14113 4.2337,-0.28226 6.35055,-0.98787 6.35055,-2.11686 12.98335,-7.33841 15.52356,-15.1002 -5.50381,4.93932 -11.85436,6.91504 -16.51143,7.05617 -0.70562,0 -1.41123,0 -2.11685,-0.14113 -3.81033,-0.56449 -7.76178,-1.41123 -14.95908,-0.84673 -3.95145,0.28224 -8.60852,0.98786 -14.95907,3.24583 0.70562,-1.55235 1.97572,-2.82246 3.52808,-3.95145 5.22157,-4.09257 9.17302,-5.64494 15.52358,-7.1973 2.25796,-0.42336 4.09256,-0.98785 6.20941,-1.97572 5.78607,-3.10471 11.57212,-9.31414 12.98335,-17.35818 -4.79819,5.78607 -10.72536,8.74966 -15.38244,9.5964 -0.70561,0.14112 -1.41123,0.14112 -2.11685,0.14112 -3.81033,0 -7.76178,-0.14112 -14.81795,1.41123 -3.95146,0.98787 -8.46741,2.3991 -14.25346,5.64495 0.42338,-1.69349 1.41124,-3.10473 2.82247,-4.37484 4.51594,-4.93931 8.18515,-7.05616 14.25346,-9.59639 2.11685,-0.84673 3.95145,-1.55235 5.78606,-2.96358 5.22156,-3.95145 9.87863,-11.00763 10.01976,-19.05165 -3.81034,6.35055 -9.17302,10.16088 -13.54785,11.71323 -0.70562,0.28225 -1.41123,0.42338 -2.11685,0.5645 -3.81033,0.70562 -7.76179,1.12898 -14.5357,3.81033 -3.52809,1.55235 -7.76179,3.52808 -13.12447,7.62065 0.14112,-1.55235 0.98786,-3.24583 2.11684,-4.79819 3.66921,-5.50381 7.05618,-8.18516 12.55998,-11.57211 1.97573,-1.12899 3.66921,-2.25798 5.22156,-3.81033 4.65708,-4.65707 8.18516,-12.41886 7.05618,-20.46289 -2.82247,6.91505 -7.62066,11.57212 -11.71324,13.83009 -0.5645,0.28225 -1.27011,0.56449 -1.83461,0.70562 -3.66921,1.27011 -7.47954,2.3991 -13.83009,6.06831 -3.38695,2.11685 -7.19728,4.79819 -11.85435,9.59638 0,-1.55236 0.56449,-3.24583 1.41123,-4.93932 2.82247,-6.06831 5.64493,-9.17301 10.58425,-13.54784 1.69347,-1.41122 3.24583,-2.68134 4.65707,-4.51595 3.81033,-5.36268 6.0683,-13.54783 3.66921,-21.30962 -1.69348,7.19729 -5.64493,12.55998 -9.31414,15.38245 -0.5645,0.42336 -1.12899,0.84674 -1.83461,1.12898 -3.38696,1.83461 -7.05616,3.38697 -12.55997,8.04403 -3.10472,2.68135 -6.49168,5.92718 -10.16089,11.43099 -0.42336,-1.55235 -0.14112,-3.38696 0.5645,-5.22156 1.8346,-6.35054 4.09257,-9.87864 8.32628,-14.95908 1.41122,-1.69348 2.82247,-3.10471 3.81032,-5.22156 2.9636,-5.92718 3.81034,-14.25346 0.28225,-21.59187 -0.42336,7.47953 -3.52809,13.2656 -6.77392,16.65255 -0.56449,0.5645 -0.98786,0.98787 -1.55236,1.41124 -3.10471,2.25797 -6.49167,4.51594 -11.28987,10.01976 z"
     fill="#ffff00"
     id="path12"
     style="stroke-width:0.833333" />
</svg>
