<?xml version="1.0" encoding="UTF-8" standalone="no"?>
<svg
   xmlns:dc="http://purl.org/dc/elements/1.1/"
   xmlns:cc="http://creativecommons.org/ns#"
   xmlns:rdf="http://www.w3.org/1999/02/22-rdf-syntax-ns#"
   xmlns:svg="http://www.w3.org/2000/svg"
   xmlns="http://www.w3.org/2000/svg"
   xmlns:sodipodi="http://sodipodi.sourceforge.net/DTD/sodipodi-0.dtd"
   xmlns:inkscape="http://www.inkscape.org/namespaces/inkscape"
   width="875"
   height="500"
   viewBox="0 0 9800 5600"
   fill="none"
   version="1.1"
   id="svg24"
   sodipodi:docname="Malaysia.svg"
   inkscape:version="1.0.2 (e86c8708, 2021-01-15)">
  <metadata
     id="metadata30">
    <rdf:RDF>
      <cc:Work
         rdf:about="">
        <dc:format>image/svg+xml</dc:format>
        <dc:type
           rdf:resource="http://purl.org/dc/dcmitype/StillImage" />
      </cc:Work>
    </rdf:RDF>
  </metadata>
  <defs
     id="defs28" />
  <sodipodi:namedview
     pagecolor="#ffffff"
     bordercolor="#666666"
     borderopacity="1"
     objecttolerance="10"
     gridtolerance="10"
     guidetolerance="10"
     inkscape:pageopacity="0"
     inkscape:pageshadow="2"
     inkscape:window-width="1344"
     inkscape:window-height="729"
     id="namedview26"
     showgrid="false"
     inkscape:zoom="0.59093"
     inkscape:cx="483.75761"
     inkscape:cy="346.72504"
     inkscape:window-x="0"
     inkscape:window-y="25"
     inkscape:window-maximized="1"
     inkscape:current-layer="g20" />
  <title
     id="title10">Flag of Malaysia</title>
  <g
     transform="scale(350,400)"
     id="g20">
    <path
       fill="#ffffff"
       d="M 0,0 H 28 V 14 H 0 Z"
       id="path12" />
    <path
       stroke="#cc0000"
       d="m 1,0.5 h 27 m 0,2 H 1 m 0,2 h 27 m 0,2 H 1"
       id="path14" />
    <path
       fill="#000066"
       d="M 0,0 H 14 V 8.5 H 0 Z"
       id="path16" />
    <path
       stroke="#cc0000"
       d="m 0,8.5 h 28 m 0,2 H 0 m 0,2 h 28"
       id="path18" />
  </g>
  <path
     fill="#ffcc00"
     d="m 3162.2767,600 89.1667,610 345,-510.83333 -185,588.33333 532.5,-310.83333 -421.6667,450.00003 615,-49.1667 -575,222.5 575,222.5 -615,-49.1667 421.6667,450 -532.5,-310.8333 185,588.3333 -345,-510.8333 -89.1667,610 -89.1667,-610 -345,510.8333 185,-588.3333 -532.5,310.8333 421.6667,-450 -615,49.1667 575,-222.5 -575,-222.5 615,49.1667 L 2380.61,976.66667 2913.11,1287.5 2728.11,699.16667 3073.11,1210 Z m -500,25 a 1066.6667,1066.6667 0 1 0 0,1950 1200,1200 0 1 1 0,-1950 z"
     id="path22"
     style="stroke-width:0.833333" />
</svg>
