<?xml version="1.0" encoding="UTF-8" standalone="no"?>
<svg
   xmlns:dc="http://purl.org/dc/elements/1.1/"
   xmlns:cc="http://creativecommons.org/ns#"
   xmlns:rdf="http://www.w3.org/1999/02/22-rdf-syntax-ns#"
   xmlns:svg="http://www.w3.org/2000/svg"
   xmlns="http://www.w3.org/2000/svg"
   xmlns:xlink="http://www.w3.org/1999/xlink"
   xmlns:sodipodi="http://sodipodi.sourceforge.net/DTD/sodipodi-0.dtd"
   xmlns:inkscape="http://www.inkscape.org/namespaces/inkscape"
   width="875"
   height="500"
   version="1.1"
   id="svg274"
   sodipodi:docname="Moldova.svg"
   inkscape:version="1.0.2 (e86c8708, 2021-01-15)">
  <metadata
     id="metadata280">
    <rdf:RDF>
      <cc:Work
         rdf:about="">
        <dc:format>image/svg+xml</dc:format>
        <dc:type
           rdf:resource="http://purl.org/dc/dcmitype/StillImage" />
      </cc:Work>
    </rdf:RDF>
  </metadata>
  <defs
     id="defs278" />
  <sodipodi:namedview
     pagecolor="#ffffff"
     bordercolor="#666666"
     borderopacity="1"
     objecttolerance="10"
     gridtolerance="10"
     guidetolerance="10"
     inkscape:pageopacity="0"
     inkscape:pageshadow="2"
     inkscape:window-width="1344"
     inkscape:window-height="729"
     id="namedview276"
     showgrid="false"
     inkscape:zoom="0.82539415"
     inkscape:cx="462.47359"
     inkscape:cy="315.71495"
     inkscape:window-x="0"
     inkscape:window-y="25"
     inkscape:window-maximized="1"
     inkscape:current-layer="svg274" />
  <rect
     width="875"
     height="500"
     fill="#cc092f"
     id="rect10"
     x="0"
     y="0"
     style="stroke-width:0.519674" />
  <rect
     width="583.33331"
     height="500"
     fill="#ffd200"
     id="rect12"
     x="0"
     y="0"
     style="stroke-width:0.519674" />
  <rect
     width="291.66666"
     height="500"
     fill="#0046ae"
     id="rect14"
     x="0"
     y="0"
     style="stroke-width:0.519674" />
  <g
     id="g272"
     transform="matrix(0.48611111,0,0,0.48611111,0,38.425365)">
    <g
       id="g83">
      <path
         fill="#000000"
         d="m 847.69,183.24 c -3.223,0 -6.038,0.822 -7.68,2.1 2.609,0.76 4.506,3.166 4.506,6.092 v 7.423 h -7.422 c -2.907,0 -5.315,-1.87 -6.093,-4.454 -1.278,1.642 -2.099,4.457 -2.099,7.679 0,3.223 0.821,6.039 2.099,7.679 0.761,-2.61 3.166,-4.506 6.093,-4.506 h 7.422 v 35.681 c 0,2.805 -1.754,5.132 -4.198,5.989 3.541,0.482 6.588,5.234 7.423,7.833 0.837,-2.593 3.884,-7.351 7.424,-7.833 -2.47,-0.842 -4.251,-3.166 -4.251,-5.989 v -35.683 h 7.424 c 2.908,0 5.315,1.87 6.093,4.456 1.277,-1.642 2.098,-4.459 2.098,-7.68 0,-3.223 -0.82,-6.038 -2.098,-7.679 -0.761,2.609 -3.167,4.504 -6.093,4.504 h -7.424 v -7.422 c 0,-2.908 1.869,-5.315 4.455,-6.093 -1.64,-1.276 -4.457,-2.098 -7.679,-2.098 z"
         id="path16" />
      <path
         fill="#f5d402"
         d="m 847.69,184.78 c -1.678,0 -3.156,0.314 -4.402,0.716 1.664,1.447 2.765,3.544 2.765,5.939 v 7.423 c 0,0.106 -0.031,0.207 -0.052,0.308 v 1.177 h -1.178 c -0.1,0.021 -0.202,0.051 -0.307,0.052 h -7.424 c -2.367,0 -4.439,-1.083 -5.886,-2.713 -0.416,1.259 -0.768,2.697 -0.768,4.403 0,1.678 0.314,3.156 0.716,4.402 1.447,-1.664 3.543,-2.763 5.938,-2.763 h 8.959 c -0.01,0.154 -0.052,0.303 -0.052,0.459 v 0.768 c 0.021,0.1 0.051,0.201 0.052,0.307 v 35.681 c 0,2.317 -1.195,4.139 -2.765,5.58 1.123,0.693 2.09,1.565 2.918,2.561 0.737,0.885 1.03,1.751 1.536,2.661 0.507,-0.908 0.799,-1.776 1.536,-2.661 0.815,-0.978 1.768,-1.82 2.867,-2.509 -1.584,-1.437 -2.765,-3.305 -2.765,-5.631 v -37.168 h 1.229 c 0.1,-0.02 0.201,-0.05 0.307,-0.05 h 7.423 c 2.366,0 4.438,1.083 5.886,2.712 0.415,-1.258 0.769,-2.695 0.769,-4.402 0,-1.677 -0.315,-3.156 -0.717,-4.402 -1.447,1.664 -3.543,2.763 -5.938,2.763 h -7.423 c -0.105,0 -0.207,-0.031 -0.307,-0.052 h -1.178 v -1.177 c -0.021,-0.099 -0.051,-0.201 -0.052,-0.308 v -7.422 c 0,-2.367 1.084,-4.438 2.713,-5.887 -1.259,-0.414 -2.696,-0.768 -4.402,-0.768"
         id="path18" />
      <path
         fill="#000000"
         d="m 940.609,313.987 c -4.535,-3.221 -8.258,-6.862 -10.904,-11.11 -6.372,-10.223 -9.061,-22.773 -9.061,-35.527 0,-5.391 6.04,-11.46 6.04,-15.82 0,-6.59 -0.614,-10.544 -0.614,-10.544 2.143,0.292 5.887,4.095 5.887,4.095 0,0 -0.129,-10.938 -3.585,-12.849 0,0 1.398,-1.438 6.451,-1.587 -1.42,-3.596 -8.446,-7.986 -8.446,-7.986 0.351,-0.629 1,-1.173 1.842,-1.638 1.765,-0.976 4.245,-1.62 6.142,-1.997 -2.022,-0.419 -4.352,-1.061 -6.91,-1.895 -5.842,-1.903 -12.719,-4.697 -19.146,-7.78 -11.732,-5.628 -20.669,-5.99 -25.596,-5.9895 -3.575,5e-4 -8.84,0.0985 -11.927,2.1515 -2.825,1.875 -2.595,4.314 -3.584,5.17 -2.33,2.016 -6.321,1.945 -8.243,1.945 -12.44,0 -12.901,13.311 -12.901,13.311 0,0 3.181,-4.813 8.805,-4.813 9.351,0 16.433,5.094 16.433,7.013 0,0.777 -0.964,0.921 -1.023,0.921 -6.108,0 -15.326,-3.516 -20.223,-3.686 v 2.406 c 10.931,3.803 22.013,9.187 22.013,32.917 0,14.943 -1.789,30.19 -9.265,42.183 -2.648,4.247 -6.418,7.881 -10.955,11.11 l 44.385,7.9995 z"
         id="path20" />
      <g
         id="eagle_half">
        <path
           fill="#000000"
           d="m 896.222,303.988 -44.383,10.0005 c -2.019,-0.61 -11.513,-3.56 -18.174,-7.269 -11.726,-6.532 -17.806,-13.031 -31.74,-13.669 v -10.598 c 0,-5.662 2.049,-10.763 2.049,-16.177 -5.874,-1.575 -22.178,-21.51 -37.218,-30.358 -22.13,14.334 -39.265,37.865 -39.265,48.686 0,0 0.665,232.51 0,313.51 0,4.668 -2.815,11.263 -2.815,11.263 8.079,-3.418 22.888,-23.68 26.006,-31.382 v 3.687 c 12.201,-5.564 21.135,-20.184 25.136,-27.747 0.071,1.093 0.257,3.838 0.257,3.838 10.9,-9.555 24.776,-66.038 24.776,-66.038 l 23.124,22.7255 c 0,0 -8.363,16.9755 -11.621,20.0155 0,0 2.184,0.277 4.658,0.256 -1.522,2.188 -13.147,18.925 -16.791,25.238 -3.41,5.906 -5.816,3.277 -11.058,3.277 -4.347,0 -14.2,6.925 -15.818,9.727 -1.701,2.945 -2.968,6.523 -2.968,9.471 0,3.24 3.43,7.679 3.43,7.679 0.369,-1.551 1.023,-2.099 1.023,-2.099 0,0 9.013,11.228 10.341,12.695 1.034,1.143 5.645,1.886 7.27,0.411 4.066,-3.697 8.002,-6.282 11.621,-11.621 1.863,-2.751 2.005,-5.904 4.146,-8.858 7.162,-9.88 21.415,-28.799 24.675,-33.121 0.218,1.203 0.405,2.205 0.612,3.43 3.694,-7.457 21.451,-21.706 21.451,-21.706 l 18.578,8.55 c 0,0 -34.687,79.735 -65.476,91.995 0,0 13.395,5.691 29.845,14.232 2.4,1.246 4.871,2.584 7.372,3.943 2.071,-2.494 4.251,-5.265 6.399,-8.141 9.836,-13.16 19.455,-28.412 19.455,-28.412 0.67,3.961 -4.524,16.194 -13.31,31.281 -1.728,2.964 -3.53,6.064 -5.529,9.213 2.229,1.273 4.441,2.559 6.655,3.892 16.295,9.805 31.598,21.077 37.267,31.432 l 4,-10.009 -4,-10.009 v -349.957 l 2,-5 z"
           id="path22" />
        <g
           fill="#b07f55"
           id="g52">
          <path
             d="m 896.202,667.221 c -5.749,-6.236 -17.769,-13.855 -31.278,-20.886 16.334,-29.316 24.428,-75.655 20.63,-84.88 0,0 -6.705,24.033 -14.898,37.729 -7.586,12.684 -16.925,26.95 -25.954,37.526 -7.428,-3.169 -14.631,-5.828 -20.785,-7.68 27.058,-20.843 54.726,-89.742 54.726,-89.742 l -28.612,-13.26 c 0,0 -10.704,12.479 -14.18,14.796 0,0 -1.485,-6.206 -2.355,-8.396 0,0 -4.101,3.102 -6.346,3.176 0,0 -0.671,-4.212 -1.178,-6.964 -2.825,1.883 -7.525,1.485 -7.525,1.485 4.127,-1.954 9.01,-13.925 9.01,-13.925 l -27.322,-36.343 c 0,0 -9.597,46.116 -20.528,55.596 v -198.58 l 8.652,8.036 13.105,-12.235 v -9.317 l -11.621,10.852 v -28.105 c 1.751,-2.649 2.912,-4.626 3.788,-6.194 1.881,3.279 7.96,13.329 15.101,19.505 1.175,-4.778 8.908,-9.318 8.908,-9.318 0,0 2.771,7.508 7.012,9.368 1.492,-2.628 10.394,-8.446 10.394,-8.446 0,0 -7.616,1.157 -10.7,4.045 -2.649,-0.593 -3.328,-11.058 -3.328,-11.058 0,0 -11.207,5.459 -13.156,9.368 -2.137,-0.578 -5.464,-8.988 -6.759,-12.44 1.955,-0.213 4.716,-0.46 8.345,-0.46 3.196,0 7.285,1.514 11.569,3.532 4.707,2.216 9.631,5.022 14.028,7.014 5.632,2.55 14.153,3.068 16.637,3.174 -2.845,2 -5.973,3.826 -9.367,5.529 0,0 13.411,-0.124 22.832,-4.813 3.361,-2.162 6.849,-4.316 9.829,-6.86 -1.293,3.593 -3.306,7.839 -6.452,11.467 13.836,-1.171 20.726,-9.072 22.679,-11.723 0.918,2.375 2.553,6.187 5.119,9.47 h 5 v 340 z"
             id="path24" />
          <path
             d="m 794.247,267.298 0.255,6.348 v 18.687 c -5.019,-1.727 -11.326,-9.973 -14.384,-14.334 v -2.56 c 0,-2.408 1.417,-4.167 2.457,-5.119 l -3.02,-1.074 c -1.152,1.313 -2.406,3.263 -2.406,5.784 v 1.485 l -9.009,9.676 -8.856,-13.413 v -3.276 c 0,-2.208 1.698,-4.67 3.123,-6.348 l -2.97,-1.075 c -1.499,1.942 -3.072,4.559 -3.072,7.013 v 2.661 c -2.083,2.156 -10.187,10.496 -10.187,10.496 0,0 -4.066,-8.737 -5.17,-11.109 6.205,-8.595 16.266,-18.219 25.7488,-25.1245 0,0 20.5642,18.8805 27.4902,21.2825 z"
             id="path26" />
          <path
             d="m 742.127,285.421 v 15.411 l -7.167,6.654 v -22.883 c 0,-2.191 0.918,-4.831 2.4565,-7.731 z"
             id="path28" />
          <path
             d="m 764.447,291.359 v 9.522 l -8.241,7.731 v -29.794 z"
             id="path30" />
          <path
             d="m 753.286,308.561 -8.243,-7.679 v -11.159 l 8.243,-8.652 z"
             id="path32" />
          <path
             d="m 790.913,296.991 c -1.914,2.705 -6.927,9.321 -12.337,12.236 v -26.1605 c 1.241,2.0645 6.934,11.2745 12.337,13.9245 z"
             id="path34" />
          <path
             d="m 775.656,284.397 v 24.163 l -8.243,-7.679 v -8.549 z"
             id="path36" />
          <path
             d="m 742.126,310.147 v 24.113 l -7.167,-6.707 v -10.7 z"
             id="path38" />
          <path
             d="m 753.28,317.878 v 8.651 l -8.244,7.678 v -24.0085 z"
             id="path40" />
          <path
             d="m 764.438,310.2 v 24.01 l -8.241,-7.731 v -8.549 z"
             id="path42" />
          <path
             d="m 775.651,317.93 v 8.549 l -8.243,7.73 v -24.0095 z"
             id="path44" />
          <path
             d="m 786.81,334.26 -8.244,-7.731 v -8.036 c 2.843,-1.735 5.702,-4.924 8.2435,-8.2935 z"
             id="path46" />
          <path
             d="m 765.925,344.908 8.703,-8.089 v 198.63 c 0,0 0.607,9.856 1.024,16.279 -3.87,3.912 -18.429,18.634 -18.429,18.634 V 336.766 Z"
             id="path48" />
          <path
             d="m 752.253,562.94 c 0,6.385 -11.659,21.273 -17.303,24.675 v -250.74 l 8.6,8.036 8.703,-8.0895 z"
             id="path50" />
        </g>
        <g
           fill="#d10429"
           id="g64">
          <path
             d="m 824.535,541.388 6.348,-4.352 c 0,0 0.423,2.1 0.972,4.967 -2.718,3.716 -18.331,25.024 -26.057,35.425 -1.921,2.584 -3.534,9.163 -3.534,9.163 0,0 -2.814,-1.331 -2.814,-3.736 0,-2.362 0.308,-5.171 0.308,-5.171 0,0 -2.101,2.406 -5.735,2.406 0,-2.903 5.614,-6.052 5.836,-10.186 -4.281,3.174 -7.999,1.545 -12.951,3.072 -5.393,1.661 -6.895,3.927 -8.549,3.84 -0.974,-0.053 -1.856,-1.733 -1.484,-2.765 0.644,-1.787 7.314,-6.733 11.977,-7.627 1.117,-0.214 9.903,1.912 11.673,-0.819 7.292,-11.252 19.13,-29.518 20.272,-31.278 0.752,-0.18 1.444,-0.371 1.9955,-0.719 0,0 -0.0675,5.751 1.7425,7.78 z"
             id="path54" />
          <path
             d="m 783.72,576.452 c 0.353,0.408 0.322,1.006 -0.053,1.33 l -2.866,2.508 c -0.375,0.324 -0.977,0.255 -1.33,-0.154 -0.354,-0.408 -0.324,-1.006 0.052,-1.331 l 2.866,-2.508 c 0.187,-0.163 0.428,-0.233 0.6655,-0.204 0.2375,0.027 0.4875,0.154 0.6655,0.359 z"
             id="path56" />
          <path
             d="m 788.071,579.472 c 0.857,0.988 0.802,2.388 -0.103,3.175 l -6.962,6.091 c -0.906,0.788 -2.367,0.63 -3.226,-0.357 -0.857,-0.988 -0.803,-2.439 0.103,-3.225 l 6.962,-6.041 c 0.339,-0.296 0.802,-0.477 1.229,-0.5125 0.712,-0.0585 1.46,0.2535 1.997,0.8695 z"
             id="path58" />
          <path
             d="m 792.061,584.182 c 0.857,0.988 0.803,2.387 -0.103,3.174 l -7.012,6.092 c -0.906,0.787 -2.316,0.63 -3.175,-0.358 -0.858,-0.987 -0.803,-2.438 0.104,-3.224 l 6.961,-6.041 c 0.339,-0.295 0.75,-0.476 1.178,-0.5125 0.711,-0.0585 1.51,0.2515 2.047,0.8695 z"
             id="path60" />
          <path
             d="m 794.464,587.919 c 0.713,-0.058 1.461,0.201 1.997,0.819 0.858,0.988 0.803,2.439 -0.102,3.225 l -6.963,6.042 c -0.906,0.787 -2.316,0.629 -3.174,-0.359 -0.858,-0.988 -0.854,-2.388 0.051,-3.175 l 7.014,-6.091 c 0.338,-0.296 0.749,-0.427 1.177,-0.461 z"
             id="path62" />
        </g>
      </g>
      <use
         xlink:href="#eagle_half"
         transform="matrix(-1,0,0,1,1792.4,0)"
         id="use67"
         x="0"
         y="0"
         width="100%"
         height="100%" />
      <path
         fill="#b07f55"
         d="m 885.934,206.637 c 11.458,0 19.517,5.224 30.359,10.033 2.841,1.26 5.45,2.281 7.779,3.071 -1.459,1.293 -2.594,2.592 -2.918,3.687 0,0 4.859,0.9 7.064,4.967 0,0 -4.62,0.524 -5.375,3.224 2.588,0.195 5.159,3.457 5.171,6.605 l -6.553,-2.049 c 0,0 1.587,7.358 1.587,15.358 0,4.086 -5.886,8.894 -5.886,15.819 0,21.734 5.475,30.088 9.369,36.807 1.523,2.629 2.761,5.654 5.324,7.935 -11.218,-5.973 -19.556,-13.439 -19.556,-20.374 v -26.262 h -2.918 v 26.262 c 0,5.029 1.228,7.372 1.228,7.372 1.761,5.564 5.321,14.152 7.526,17.61 -10.321,-5.578 -15.564,-12.563 -15.564,-15.153 v -36.092 h -2.918 v 36.603 l 0.563,2.508 c -1.251,1.88 -2.877,4.106 -3.993,4.863 -1.113,-0.756 -2.69,-2.986 -3.943,-4.863 l 0.564,-2.508 v -36.603 h -2.918 v 36.092 c 0,2.589 -5.243,9.575 -15.563,15.153 2.205,-3.459 5.764,-12.046 7.524,-17.61 0,0 1.229,-2.342 1.229,-7.372 v -26.262 h -2.918 v 26.262 c 0,6.927 -8.307,14.405 -19.505,20.374 2.537,-2.283 3.757,-5.321 5.272,-7.935 4.258,-7.348 9.522,-16.683 9.522,-43.258 0,-9.974 -1.475,-16.755 -4.044,-21.501 -0.781,-1.566 -1.833,-5.734 4.146,-5.734 3.097,0 10.188,5.478 10.188,5.478 0,0 -0.292,-4.371 -3.891,-6.86 -0.597,-0.413 -1.586,-1.712 -1.586,-2.919 0,-0.904 1.551,-3.135 2.763,-3.686 0.833,-0.378 -12.183,-2.646 -12.183,-8.549 0,-1.229 0.773,-2.048 3.479,-2.048 3.545,0 9.312,4.249 14.438,4.249 3.789,0 5.283,-0.922 9.163,-0.922 4.742,0 14.635,8.979 18.019,8.651 -3.783,-2.375 -9.894,-11.365 -19.145,-11.365 -3.211,0 -6.117,0.717 -9.114,0.717 -3.841,0 -7.623,-3.533 -11.774,-3.533 -2.782,0 -5.889,0.155 -6.349,-0.564 -0.805,-1.255 -0.08,-1.983 0.666,-3.02 1.409,-1.957 5.366,-2.525 9.267,-2.661 1.17,-0.041 2.338,-0.061 3.4325,-0.0505 1.0905,0.0115 2.0995,0.0535 2.9715,0.0535 z"
         id="path69" />
      <path
         fill="#cc092f"
         d="m 848.73,220.69 c 0,0 2.419,-4.581 8.534,-4.581 2.556,0 10.992,-0.177 10.992,-0.177 1.124,2.921 6.249,7.802 6.249,12.878 0,0 -5.202,-9.377 -19.723,-9.377 -3.649,0 -6.054,1.256 -6.054,1.256 z"
         id="path71" />
      <path
         fill="#d10429"
         d="m 872.34,230.6 c 0,0 -3.093,3.258 -3.765,4.997 -3.061,-1.16 -8.399,-6.661 -8.399,-6.661 0,0 4.525,2.642 12.163,1.664 z"
         id="path73" />
      <path
         fill="#000000"
         d="m 867.44,221.97 c 0,0 -3.568,-1.144 -3.568,-2.342 0,-1.526 1.733,-1.526 2.769,-0.337 0.713,0.819 0.798,2.68 0.798,2.68 z"
         id="path75" />
      <ellipse
         fill="#000000"
         cx="884.08099"
         cy="223.927"
         rx="7.3725901"
         ry="5.5962701"
         id="ellipse77" />
      <circle
         fill="#f5d402"
         cx="884.073"
         cy="223.927"
         r="5.1205802"
         id="circle79" />
      <circle
         fill="#000000"
         cx="884.07501"
         cy="223.92799"
         r="2.3462601"
         id="circle81" />
    </g>
    <g
       id="g209">
      <g
         fill="#000000"
         id="g119">
        <rect
           width="20.503"
           height="20.503"
           x="1052.3"
           y="157.28999"
           transform="matrix(0.7902,0.4311,-0.1917,0.8793,0,0)"
           id="rect85" />
        <path
           d="m 725.9,418.73 -5.836,2.663 65.936,144.42 h 7.014 z m 77.762,170.32 -4.76,4.915 2.969,6.553 5.784,-2.662 z"
           id="path87" />
        <path
           d="m 746.39,532.6 c 0,0 5.554,11.472 9.775,13.045 -2.183,-0.595 -9.271,2.006 -9.271,2.006 0,0 12.499,11.165 23.1,11.898 8.99,0.619 13.355,-3.868 13.355,-3.868 l -1.801,-9.524 c 0,0 -5.5,-6.642 -14.302,-9.707 -8.894,-3.098 -20.857,-3.848 -20.857,-3.848 z"
           id="path89" />
        <path
           d="m 788.26,512.05 c 0,0 -7.669,6.565 -9.768,14.169 -2.1,7.605 1.368,16.247 1.368,16.247 l 6.444,12.021 c 0,0 8.931,-4.753 12.73,-11.86 3.799,-7.108 2.406,-16.698 2.406,-16.698 0,0 -7.075,2.634 -7.975,3.8 1.493,-7.884 -5.206,-17.679 -5.206,-17.679 z"
           id="path91" />
        <path
           d="m 763.61,508.98 c 0,0 -8.722,2.948 -17.192,2.438 -8.068,-0.487 -14.777,-7.262 -14.777,-7.262 0,0 6.688,-4.526 9.989,-3.923 -3.631,-1.327 -8.896,-10.423 -8.896,-10.423 0,0 7.482,-2.261 14.116,0.24 6.634,2.503 12.419,9.77 12.419,9.77 l 4.342,9.16 z"
           id="path93" />
        <path
           d="m 766.61,466.38 c 0,0 4.362,9.032 3.328,12.171 1.353,-2.09 6.474,-5.345 6.474,-5.345 0,0 3.096,14.624 0.135,23.656 -2.96,9.031 -11.974,12.47 -11.974,12.47 l -9.943,-19.337 c 0,0 -1.48,-7.164 1.62,-12.837 3.101,-5.673 10.36,-10.779 10.36,-10.779 z"
           id="path95" />
        <path
           d="m 709.86,442.47 c 0,0 9.427,-0.99 18.051,2.583 7.21,2.993 9.42,8.433 9.42,8.433 l 3.551,9.52 c 0,0 -10.261,3.848 -18.368,0.906 -8.108,-2.945 -14.065,-12.68 -14.065,-12.68 0,0 5.666,-2.149 7.823,-1.343 -3.142,-1.39 -6.41,-7.419 -6.41,-7.419 v 10e-4 z"
           id="path97" />
        <path
           d="m 739.51,424.8 c 0,0 4.137,5.313 4.261,11.424 1.103,-3.249 6.268,-6.84 6.268,-6.84 0,0 5.312,12.855 4.146,21.982 -1.166,9.128 -8.809,14.527 -8.809,14.527 l -9.531,-18.092 c 0,0 -3.106,-7.415 -2.191,-13.167 0.916,-5.75 5.856,-9.836 5.856,-9.836 z"
           id="path99" />
        <path
           d="m 706.86,390.2 c 0,0 -1.709,9.854 1.199,15.53 2.598,5.065 4.252,6.176 4.252,6.176 -4.954,-3.269 -12.444,-3.551 -12.444,-3.551 0,0 2.666,10.721 9.037,15.612 6.371,4.891 16.195,3.748 16.195,3.748 0,0 6.46,-8.6 6.01,-17.865 -0.449,-9.265 -7.808,-19.197 -7.808,-19.197 0,0 -2.902,6.02 -3.158,10.514 -1.878,-4.633 -13.285,-10.966 -13.285,-10.966 z"
           id="path101" />
        <path
           d="m 783.86,555.27 0.265,3.537 c 5.875,0.055 6.75,-0.53 8.256,1.322 1.003,1.234 3.389,2.311 5.787,1.215 2.4,-1.095 3.475,-3.977 2.38,-6.376 -1.095,-2.399 -3.326,-2.92 -5.475,-2.496 -1.319,0.26 -2.187,1.313 -3.306,1.891 -2.128,1.102 -7.909,0.908 -7.909,0.908 z"
           id="path103" />
        <path
           d="m 783.35,552.57 2.859,2.095 c -3.067,5.014 -4.024,5.446 -3.251,7.705 0.515,1.504 0.166,4.097 -2.035,5.553 -2.2,1.455 -5.214,0.841 -6.669,-1.358 -1.454,-2.2 -0.715,-4.366 0.783,-5.965 0.92,-0.982 2.27,-1.16 3.353,-1.803 2.062,-1.223 4.959,-6.228 4.959,-6.228 z"
           id="path105" />
        <path
           d="m 763.45,510.57 0.264,3.537 c 5.876,0.054 6.75,-0.53 8.256,1.321 1.002,1.233 3.389,2.311 5.787,1.215 2.401,-1.095 3.476,-3.976 2.379,-6.375 -1.095,-2.4 -3.325,-2.92 -5.474,-2.496 -1.32,0.261 -2.187,1.313 -3.305,1.891 -2.129,1.101 -7.909,0.908 -7.909,0.908 z"
           id="path107" />
        <path
           d="m 764.64,511.82 2.5,2.517 c -3.809,4.474 -4.824,4.753 -4.411,7.104 0.276,1.567 -0.473,4.075 -2.874,5.17 -2.399,1.095 -5.279,0.021 -6.376,-2.379 -1.095,-2.399 -0.028,-4.425 1.701,-5.771 1.061,-0.825 2.425,-0.793 3.593,-1.258 2.227,-0.887 5.867,-5.382 5.867,-5.382 z"
           id="path109" />
        <path
           d="m 743.67,468.72 0.265,3.537 c 5.876,0.054 6.75,-0.53 8.257,1.323 1.003,1.231 3.388,2.309 5.788,1.213 2.398,-1.095 3.474,-3.975 2.379,-6.377 -1.097,-2.399 -3.326,-2.919 -5.476,-2.495 -1.32,0.261 -2.187,1.313 -3.306,1.891 -2.128,1.102 -7.908,0.907 -7.908,0.907 z"
           id="path111" />
        <path
           d="m 745.3,467.98 2.499,2.516 c -3.809,4.475 -4.822,4.754 -4.411,7.105 0.276,1.566 -0.473,4.074 -2.873,5.169 -2.399,1.094 -5.28,0.02 -6.376,-2.379 -1.094,-2.4 -0.027,-4.426 1.701,-5.771 1.061,-0.827 2.424,-0.793 3.594,-1.26 2.227,-0.887 5.866,-5.38 5.866,-5.38 z"
           id="path113" />
        <path
           d="m 722.6,424.54 0.264,3.536 c 5.876,0.055 6.751,-0.53 8.256,1.321 1.004,1.234 3.39,2.311 5.788,1.217 2.4,-1.097 3.475,-3.977 2.38,-6.377 -1.095,-2.4 -3.326,-2.921 -5.476,-2.496 -1.318,0.261 -2.186,1.314 -3.305,1.891 -2.128,1.101 -7.909,0.908 -7.909,0.908 z"
           id="path115" />
        <path
           d="m 724.23,423.8 2.498,2.517 c -3.808,4.475 -4.823,4.753 -4.41,7.105 0.276,1.566 -0.474,4.074 -2.873,5.169 -2.4,1.095 -5.28,0.021 -6.375,-2.379 -1.096,-2.399 -0.028,-4.427 1.699,-5.771 1.062,-0.825 2.425,-0.793 3.594,-1.26 2.226,-0.886 5.866,-5.38 5.866,-5.38 z"
           id="path117" />
      </g>
      <g
         fill="#f5d402"
         id="g145">
        <rect
           width="12.717"
           height="12.718"
           x="1056.2"
           y="161.19"
           transform="matrix(0.7902,0.4311,-0.1917,0.8793,0,0)"
           id="rect121" />
        <path
           d="m 759.72,500.09 c -2.106,0.874 -5.23,-8.295 -7.524,-13.318 -2.353,-5.155 -7.131,-13.1 -5.774,-13.72 1.489,-0.68 3.451,3.492 5.859,8.767 2.408,5.273 9.412,17.449 7.439,18.269 z"
           id="path123" />
        <path
           d="m 738.09,451.8 c -2.105,0.877 -4.41,-5.127 -6.703,-10.151 -2.353,-5.154 -4.645,-8.795 -3.288,-9.415 1.49,-0.68 3.69,3.837 5.616,8.055 1.866,4.088 6.348,10.69 4.374,11.512 z"
           id="path125" />
        <path
           d="m 788.13,561.29 c -1.653,0.442 -8.869,-14.662 -14.703,-27.442 -5.833,-12.779 -10.177,-23.119 -8.82,-23.736 1.49,-0.681 6.213,11.391 12.049,24.172 5.835,12.781 12.713,26.673 11.475,27.006 z"
           id="path127" />
        <circle
           cx="796.19501"
           cy="556.98401"
           r="2.60585"
           id="circle129" />
        <circle
           cx="778.27002"
           cy="563.93298"
           r="2.6056299"
           id="circle131" />
        <circle
           cx="775.77698"
           cy="512.25"
           r="2.6060801"
           id="circle133" />
        <circle
           cx="757.84399"
           cy="522.23999"
           r="2.6057301"
           id="circle135" />
        <circle
           cx="756.00098"
           cy="470.414"
           r="2.6059201"
           id="circle137" />
        <circle
           cx="738.50201"
           cy="478.40201"
           r="2.6059201"
           id="circle139" />
        <circle
           cx="734.93103"
           cy="426.23901"
           r="2.6064"
           id="circle141" />
        <circle
           cx="717.435"
           cy="434.22299"
           r="2.60639"
           id="circle143" />
      </g>
      <g
         fill="#097754"
         id="g177">
        <path
           d="m 709.76,396.19 c 0,0 -0.255,7.201 2.127,11.285 2.383,4.086 7.704,5.715 7.704,5.715 0,0 0.254,-7.199 -2.128,-11.283 -2.383,-4.086 -7.703,-5.717 -7.703,-5.717 z"
           id="path147" />
        <path
           d="m 704.78,412.48 c 0,0 6.255,0.368 9.868,3.136 3.61,2.768 5.009,8.535 5.009,8.535 0,0 -4.146,0.421 -7.756,-2.347 -3.611,-2.769 -7.121,-9.324 -7.121,-9.324 z"
           id="path149" />
        <path
           d="m 724.41,397.94 c 0,0 -2.08,4.77 -1.84,9.912 0.239,5.143 3.24,10.937 3.24,10.937 0,0 2.713,-6.174 2.474,-11.318 -0.238,-5.143 -3.147,-8.075 -3.874,-9.531 z"
           id="path151" />
        <path
           d="m 713.88,444.3 c 0,0 3.071,4.288 7.799,6.626 4.728,2.337 11.773,2.424 11.773,2.424 0,0 -3.516,-4.562 -8.245,-6.9 -4.728,-2.337 -11.327,-2.152 -11.327,-2.152 z"
           id="path153" />
        <path
           d="m 715.4,454.26 c 0,0 2.257,4.421 6.384,6.316 4.129,1.896 12.574,1.74 12.574,1.74 0,0 -3.24,-4.131 -7.368,-6.027 -4.128,-1.897 -11.591,-2.029 -11.591,-2.029 z"
           id="path155" />
        <path
           d="m 739.17,430.68 c 0,0 -2.495,4.123 -2.251,8.666 0.245,4.545 3.227,9.511 3.227,9.511 0,0 2.097,-5.693 1.852,-10.237 -0.244,-4.545 -2.829,-7.94 -2.829,-7.94 z"
           id="path157" />
        <path
           d="m 748.36,436.51 c 0,0 -4.269,5.73 -4.882,11.621 -0.613,5.89 2.428,11.942 2.428,11.942 0,0 5.157,-5.178 5.77,-11.068 0.613,-5.892 -3.316,-12.493 -3.316,-12.493 z"
           id="path159" />
        <path
           d="m 736.59,490.91 c 0,0 0.513,2.118 2.297,4.367 1.783,2.251 4.836,4.632 4.836,4.632 0,0 2.949,-0.948 6.615,-0.155 3.665,0.795 8.54,4.06 8.54,4.06 0,0 -5.247,-7.831 -10.695,-10.876 -5.448,-3.043 -11.591,-2.029 -11.591,-2.029 z"
           id="path161" />
        <path
           d="m 736.05,504.37 c 0,0 6.793,-2.902 12.387,-2.153 5.595,0.749 10.639,5.171 10.639,5.171 0,0 -7.561,2.616 -13.155,1.868 -5.596,-0.749 -9.872,-4.886 -9.872,-4.886 z"
           id="path163" />
        <path
           d="m 764.76,472.79 c 0,0 -6.007,6.364 -6.511,11.887 -0.503,5.522 4.871,10.669 4.871,10.669 0,0 -0.264,-3.542 0.661,-5.874 0.926,-2.332 2.893,-4.822 2.893,-4.822 0,0 0.838,-2.843 0.514,-5.123 -0.453,-3.186 -2.428,-6.737 -2.428,-6.737 z"
           id="path165" />
        <path
           d="m 773.38,480.16 c 0,0 -5.662,5.729 -7.158,11.864 -1.497,6.135 1.17,12.676 1.17,12.676 0,0 5.149,-4.062 6.646,-10.196 1.497,-6.135 -0.659,-14.344 -0.659,-14.344 z"
           id="path167" />
        <path
           d="m 787.56,517.14 c 0,0 2.565,5.355 3.215,9.833 0.652,4.477 0.048,6.027 0.048,6.027 0,0 -2.652,2.607 -3.841,4.14 -1.528,1.97 -1.752,5.576 -1.752,5.576 0,0 -5.325,-7.916 -4.504,-13.703 0.82,-5.786 6.834,-11.874 6.834,-11.874 z"
           id="path169" />
        <path
           d="m 798.78,529.53 c 0,0 -6.818,4.503 -9.523,9.123 -2.708,4.617 -1.304,9.349 -1.304,9.349 0,0 4.858,-0.428 7.566,-5.046 2.706,-4.618 3.26,-13.427 3.26,-13.427 z"
           id="path171" />
        <path
           d="m 753.98,548.55 c 0,0 9.826,-0.268 15.832,1.209 6.006,1.475 8.192,4.695 8.192,4.695 0,0 -6.753,3.162 -12.759,1.686 -6.006,-1.475 -11.266,-7.591 -11.266,-7.591 z"
           id="path173" />
        <path
           d="m 752.32,536.89 c 0,0 4.433,6.873 10.164,9.367 7.898,3.435 17.043,1.77 17.043,1.77 0,0 -4.968,-6.089 -11.804,-8.777 -6.838,-2.687 -15.403,-2.359 -15.403,-2.359 z"
           id="path175" />
      </g>
      <path
         fill="#000000"
         d="m 1088.74,401.944 1.281,2.712 c 0,0 -2.08,0.714 -3.022,2.559 -0.94,1.847 0.615,4.455 0.615,4.455 0,0 -10.804,-0.943 -12.491,0.154 -1.528,0.99 0.647,8.474 -0.359,14.795 -1.402,8.81 -4.875,8.07 -5.017,9.777 -0.138,1.659 1.331,4.249 1.331,4.249 0,0 -2.026,0.638 -2.458,1.485 -0.695,1.362 0.484,3.875 -0.358,5.528 -4.7,9.223 -11.64,22.836 -16.228,31.843 -0.641,1.257 -2.363,1.737 -3.226,3.43 -0.796,1.562 -0.153,3.839 -0.153,3.839 0,0 -3.041,0.182 -4.096,2.253 -1.121,2.2 -0.461,5.17 -0.461,5.17 0,0 -1.923,0.246 -2.868,2.099 -1.009,1.981 0.7,3.02 0.259,3.891 -6.169,12.102 -13.434,26.368 -17.867,35.068 -1.631,3.199 -7.338,3.84 -10.65,10.341 -3.214,6.306 1.382,10.955 1.382,10.955 0,0 -4.772,0.432 -6.04,2.919 -1.292,2.535 -0.27,6.384 3.174,8.139 3.444,1.754 7.207,0.334 8.5,-2.201 1.267,-2.487 -1.281,-6.604 -1.281,-6.604 0,0 6.463,0.931 9.675,-5.376 3.313,-6.501 0.52,-11.441 2.15,-14.641 4.434,-8.7 11.7,-22.965 17.867,-35.068 0.445,-0.871 2.267,-0.117 3.276,-2.098 0.944,-1.853 0,-3.532 0,-3.532 0,0 2.822,-1.23 3.943,-3.431 1.056,-2.071 -0.563,-4.658 -0.563,-4.658 0,0 2.223,-0.792 3.02,-2.354 0.862,-1.693 0.228,-3.35 0.869,-4.609 4.59,-9.006 11.531,-22.62 16.229,-31.841 0.843,-1.655 3.555,-2.221 4.249,-3.585 0.432,-0.846 -0.255,-2.866 -0.255,-2.866 0,0 2.988,-0.296 4.248,-1.383 1.298,-1.118 -1.337,-3.516 4.967,-9.829 4.522,-4.528 11.817,-7.192 11.722,-9.01 -0.105,-2.01 -7.218,-10.187 -7.218,-10.187 0,0 3.001,-0.253 3.942,-2.098 0.941,-1.846 0.308,-3.994 0.308,-3.994 l 2.968,-0.512 5e-4,-14.078 z m -98.136,196.074 c -0.448,0.877 -0.53,2.076 0,3.121 0,0 -3.583,-1.12 -4.812,-0.512 -1.158,0.573 0,17.458 0,17.458 0,0 14.295,-9.018 14.077,-10.29 -0.23,-1.352 -3.225,-3.635 -3.225,-3.635 1.158,-0.186 2.061,-0.912 2.509,-1.791 0.47,-0.925 0.533,-3.568 -2.714,-5.223 -1.216,-0.62 -2.299,-0.804 -3.1745,-0.716 -1.4555,0.147 -2.3655,1.01 -2.6605,1.588 z"
         id="path179" />
      <g
         fill="#f5d402"
         id="g207">
        <path
           d="m 1091.34,402.51 6.757,3.431 -0.101,-8.1405 z"
           id="path181" />
        <path
           d="m 1088.73,407.425 c -0.868,1.704 -0.025,3.886 1.894,4.863 1.92,0.977 4.148,0.373 5.018,-1.33 0.868,-1.704 0.023,-3.885 -1.895,-4.863 -0.72,-0.367 -1.476,-0.511 -2.2015,-0.4615 -1.2075,0.0825 -2.2725,0.7265 -2.8155,1.7915 z"
           id="path183" />
        <path
           d="m 1077.11,413.62 c -0.711,0.46 0.256,6.545 0.051,11.722 -0.194,4.882 -1.756,6.257 -2.611,7.935 -0.789,1.549 -3.634,3.379 -3.634,3.379 l 2.354,2.355 c 0,0 1.532,-2.386 3.942,-7.118 2.843,-5.579 2.751,-15.688 3.585,-16.227 0.725,-0.469 6.655,-1.946 6.655,-1.946 -10e-4,0 -5.442,-0.294 -8.447,-0.2545 -1.003,0.0125 -1.73,0.0475 -1.895,0.1545 z"
           id="path185" />
        <path
           d="m 1077.73,441.725 c 0,0 0.787,-2.188 3.533,-7.577 3.311,-6.499 10.379,-11.213 10.544,-12.389 0.172,-1.212 -2.4565,-6.9105 -2.4565,-6.9105 0,0 -6.2355,1.1955 -7.1175,2.0485 -0.852,0.823 -0.476,9.267 -3.788,15.767 -2.744,5.388 -4.094,7.372 -4.094,7.372 z"
           id="path187" />
        <path
           d="m 1093.65,422.22 c 0.052,0.989 -8.163,6.861 -11.007,12.439 -2.41,4.731 -3.43,7.373 -3.43,7.373 l 3.277,0.512 c 0,0 -0.226,-3.367 0.563,-4.915 0.854,-1.677 1.079,-3.731 4.915,-6.757 4.068,-3.209 9.567,-6.014 9.522,-6.861 -0.041,-0.782 -6.1435,-8.344 -6.1435,-8.344 0,0 2.2565,5.692 2.3035,6.553 z"
           id="path189" />
        <path
           d="m 1069.59,458.72 c 4.936,-9.688 6.444,-10.348 7.065,-11.569 0.669,-1.312 0.509,-3.078 -1.689,-4.199 -0.824,-0.419 -1.531,-0.526 -2.1495,-0.459 -1.0335,0.111 -1.7845,0.767 -2.2015,1.586 -0.622,1.222 -0.285,2.855 -5.223,12.544 l -11.212,21.961 c 0,0 -1.175,2.156 1.024,3.276 2.199,1.119 3.174,-1.127 3.174,-1.127 z"
           id="path191" />
        <path
           d="m 1049.78,483.908 c -0.611,1.201 0.436,2.964 2.355,3.943 1.919,0.976 3.996,0.791 4.607,-0.41 0.611,-1.2 -0.486,-2.964 -2.406,-3.943 -0.959,-0.489 -1.935,-0.687 -2.7645,-0.613 -0.8295,0.072 -1.4855,0.424 -1.7915,1.023 z"
           id="path193" />
        <path
           d="m 1045.63,490.153 c -0.792,1.553 0.443,3.783 2.765,4.968 2.322,1.183 4.84,0.886 5.631,-0.667 0.792,-1.554 -0.444,-3.782 -2.765,-4.967 -0.871,-0.442 -1.733,-0.677 -2.5595,-0.716 -1.3745,-0.065 -2.5765,0.411 -3.0715,1.382 z"
           id="path195" />
        <path
           d="m 1043.02,497.117 c -0.611,1.199 0.437,2.963 2.355,3.941 1.919,0.978 3.995,0.791 4.608,-0.409 0.611,-1.2 -0.437,-2.964 -2.355,-3.942 -0.96,-0.49 -1.986,-0.688 -2.8155,-0.615 -0.8285,0.073 -1.4855,0.424 -1.7925,1.025 z"
           id="path197" />
        <path
           d="m 1041.33,503.772 c 0,0 -12.448,24.5 -16.84,33.121 -1.404,2.754 -7.312,4.47 -9.625,9.011 -2.33,4.568 -0.686,8.844 2.354,10.392 3.039,1.549 7.502,0.423 9.83,-4.146 2.313,-4.54 0.235,-10.353 1.637,-13.106 4.393,-8.624 16.843,-33.122 16.843,-33.122 0,0 1.226,-2.156 -0.973,-3.276 -0.55,-0.28 -1.028,-0.308 -1.433,-0.2555 -1.212,0.1555 -1.793,1.3815 -1.793,1.3815 z"
           id="path199" />
        <path
           d="m 1009.84,560.646 c -0.933,1.83 0.134,4.269 2.405,5.426 2.272,1.158 4.904,0.601 5.837,-1.228 0.933,-1.83 -0.186,-4.27 -2.457,-5.427 -0.852,-0.435 -1.721,-0.637 -2.56,-0.6135 -1.399,0.0395 -2.643,0.6995 -3.225,1.8425 z"
           id="path201" />
        <path
           d="m 993.257,598.069 c -0.71,0.024 -1.298,0.249 -1.535,0.717 -0.477,0.935 0.508,2.413 2.201,3.276 1.693,0.862 3.464,0.782 3.942,-0.154 0.477,-0.937 -0.51,-2.414 -2.201,-3.276 -0.847,-0.432 -1.695,-0.588 -2.407,-0.564 z"
           id="path203" />
        <path
           d="m 987.421,602.675 v 12.082 l 9.83,-7.065 c 0,0 -1.333,-2.354 -4.25,-3.84 -2.917,-1.485 -5.58,-1.178 -5.58,-1.178 z"
           id="path205" />
      </g>
    </g>
    <g
       id="g270">
      <path
         fill="#f5d402"
         d="m 993.643,333.597 c 0,-6.626 8.703,-13.157 8.703,-13.157 H 790.1 c 0,0 8.703,6.53 8.703,13.157 v 157.986 c 0,4.162 1.286,6.872 3.328,9.521 2.041,2.853 6.39,6.795 10.903,9.727 13.94,9.053 37.246,18.599 54.88,26.621 14.694,6.684 20.671,9.381 28.309,18.839 7.639,-9.458 13.667,-12.154 28.361,-18.839 17.631,-8.021 40.938,-17.568 54.879,-26.621 4.515,-2.932 8.864,-6.873 10.904,-9.727 2.042,-2.649 3.276,-5.359 3.276,-9.521 z"
         id="path211" />
      <path
         fill="#d10429"
         d="m 803.82,422.981 v -89.385 c 0,-5.059 -2.5605,-8.139 -2.5605,-8.139 h 189.928 c 0,0 -2.56,3.081 -2.56,8.139 l 0.054,89.385 -92.4305,28 z"
         id="path213" />
      <path
         fill="#0b45bb"
         d="m 988.681,422.981 -57.234,-1.075 h -70.393 l -57.234,1.075 v 68.601 c 0,3.448 3.578,11.525 24.215,21.807 34.111,16.998 60.33,24.934 68.189,34.607 7.858,-9.673 34.077,-17.61 68.189,-34.607 20.636,-10.282 24.214,-18.359 24.214,-21.807 z"
         id="path215" />
      <g
         fill="#000000"
         id="g237">
        <path
           d="m 930.063,419.401 c 0,0 33.019,-8.326 33.019,-43.617 0,-27.563 -33.103,-41.237 -34.044,-47.814 -3.235,11.381 11.058,27.1 11.058,45.715 0,24.086 -17.764,25.239 -17.764,25.239 -4.157,0 -5.841,2.968 -7.475,2.968 -3.497,-0.365 -5.143,-4.813 -8.601,-4.813 -3.247,0 -5.74,5.017 -10.033,5.017 -4.292,0 -6.735,-5.017 -9.983,-5.017 -3.456,0 -5.103,4.448 -8.6,4.813 -1.634,0 -3.319,-2.968 -7.476,-2.968 0,0 -17.763,-1.153 -17.763,-25.239 0,-18.615 14.295,-34.336 11.058,-45.715 -0.938,6.577 -34.041,20.25 -34.041,47.814 0,35.291 33.019,43.617 33.019,43.617 l -9.42,17.149 c 0,0 13.645,0.683 20.887,6.861 8.733,7.448 7.883,23.229 7.883,34.709 0,9.045 -1.143,18.59 -5.784,22.524 -6.232,5.284 -10.445,5.675 -10.445,11.878 0,5.174 3.977,6.211 10.445,9.625 8.287,4.373 7.901,10.238 20.22,10.238 12.321,0 11.985,-5.864 20.273,-10.238 6.468,-3.414 10.444,-4.451 10.444,-9.625 0,-6.203 -4.214,-6.594 -10.444,-11.878 -4.641,-3.936 -5.784,-13.48 -5.784,-22.524 0,-11.48 -0.849,-27.261 7.883,-34.709 7.243,-6.177 20.886,-6.861 20.887,-6.861 z"
           id="path217" />
        <path
           d="m 896.22,330.42 -5.735,16.281 -15.614,-7.424 7.423,15.615 -16.279,5.784 16.279,5.785 -7.423,15.563 15.614,-7.423 5.735,16.279 5.785,-16.279 15.614,7.423 -7.422,-15.563 16.279,-5.785 -16.279,-5.784 7.422,-15.615 -15.614,7.424 z"
           id="path219" />
        <path
           d="m 861.05,421.91 c 0,0 -20.387,-4.984 -28.002,-15.051 -13.313,11.976 -29.232,16.126 -29.232,16.126 0,0 16.607,7.498 29.232,17.048 5.817,-8.336 28.002,-18.123 28.002,-18.123 z"
           id="path221" />
        <path
           d="m 931.44,421.91 c 0,0 22.186,9.786 28.004,18.123 12.623,-9.55 29.229,-17.048 29.229,-17.048 0,0 -15.917,-4.151 -29.229,-16.126 -7.615,10.066 -28.004,15.051 -28.004,15.051 z"
           id="path223" />
        <path
           d="m 869.4,443.61 -7.935,7.934 7.935,7.935 7.935,-7.935 z"
           id="path225" />
        <path
           d="m 923.1,443.61 -7.934,7.934 7.934,7.935 7.935,-7.935 z"
           id="path227" />
        <path
           d="m 867.403,489.94 c 0,10.025 -0.972,15.307 -0.972,15.307 0,0 11.186,-3.293 13.414,-14.641 1.044,-5.32 2.207,-24.918 -3.175,-28.259 l -14.5895,-2.867 c 1.5755,3.899 5.3225,15.977 5.3225,30.46 z"
           id="path229" />
        <path
           d="m 915.829,462.348 c -5.381,3.34 -4.218,22.938 -3.174,28.259 2.227,11.348 13.413,14.641 13.413,14.641 0,0 -0.972,-5.282 -0.972,-15.307 0,-14.483 3.747,-26.562 5.3245,-30.4605 z"
           id="path231" />
        <path
           d="m 833.005,462.915 c -5.031,1.262 -8.071,6.385 -6.808,11.416 0.193,0.77 0.511,1.481 0.87,2.15 -0.733,-0.244 -1.498,-0.406 -2.304,-0.461 -0.323,-0.022 -0.655,-0.011 -0.972,0 -4.761,0.16 -8.73,3.903 -9.061,8.755 -0.354,5.174 3.579,9.629 8.755,9.983 0.772,0.052 1.523,0.024 2.251,-0.103 -0.445,0.611 -0.83,1.263 -1.125,1.996 -1.937,4.813 0.409,10.351 5.222,12.288 4.812,1.935 10.298,-0.461 12.234,-5.273 0.296,-0.735 0.461,-1.452 0.564,-2.202 0.443,0.615 0.976,1.179 1.586,1.689 3.979,3.328 9.931,2.801 13.259,-1.177 3.329,-3.978 2.801,-9.881 -1.178,-13.208 -0.602,-0.504 -1.27,-0.9 -1.945,-1.228 0.723,-0.232 1.426,-0.552 2.098,-0.972 4.395,-2.755 5.725,-8.609 2.969,-13.004 -1.894,-3.021 -5.222,-4.574 -8.549,-4.351 -1.513,0.101 -3.029,0.572 -4.403,1.434 -0.671,0.421 -1.267,0.888 -1.791,1.433 10e-4,-0.756 -0.064,-1.534 -0.256,-2.303 -1.104,-4.403 -5.151,-7.305 -9.5215,-7.117 -0.6245,0.027 -1.2655,0.098 -1.8945,0.255 z"
           id="path233" />
        <path
           d="m 932.825,490.25 c 1.017,9.587 8.808,17.619 18.429,19.914 -1.643,-2.687 -2.735,-5.682 -3.072,-8.856 -1.205,-11.37 7.588,-20.581 19.607,-20.581 1.894,0 3.729,0.234 5.528,0.667 -4.237,-6.947 -12.215,-11.775 -20.887,-11.7745 -12.018,5e-4 -20.813,9.2625 -19.605,20.6305 z"
           id="path235" />
      </g>
      <g
         fill="#ffd200"
         id="g268">
        <path
           d="m 847.592,373.684 c 0,18.128 9.667,28.821 22.576,28.821 2.462,0 5.155,3.328 7.475,3.328 3.782,0 6.298,-4.198 8.601,-4.198 2.927,0 4.9,4.607 9.982,4.607 5.083,0 7.107,-4.607 10.034,-4.607 2.302,0 4.818,4.198 8.6,4.198 2.321,0 5.012,-3.328 7.475,-3.328 12.909,0 22.577,-10.693 22.577,-28.821 0,-14.784 -12.416,-32.81 -11.058,-35.734 0,0 24.214,17.369 24.214,37.832 0,32.963 -33.429,41.109 -33.429,41.109 l 7.525,16.944 c 0,0 -10.362,1.554 -16.689,6.656 -8.439,6.805 -8.55,25.191 -8.55,37.626 0,14.648 0.545,20.855 5.837,24.829 5.58,4.193 9.777,5.096 9.777,9.369 0,3.723 -4.345,5.246 -9.983,7.73 -6.413,2.827 -7.052,7.731 -16.33,7.731 -9.279,0 -9.867,-4.904 -16.28,-7.731 -5.637,-2.484 -9.983,-4.006 -9.983,-7.73 0,-4.273 4.197,-5.176 9.777,-9.369 5.292,-3.974 5.836,-10.181 5.836,-24.829 0,-12.435 -0.11,-30.821 -8.549,-37.626 -6.328,-5.104 -16.689,-6.656 -16.689,-6.656 l 7.524,-16.944 c 0,0 -33.428,-8.145 -33.428,-41.109 0,-20.463 24.215,-37.832 24.215,-37.832 1.358,2.924 -11.057,20.95 -11.057,35.734 z M 883.58,509.81 c -6.567,0 -10.75,1.386 -10.75,3.379 0,1.994 4.184,3.328 10.75,3.328 1.75,0 3.737,-1.019 3.737,-3.328 0,-2.309 -1.988,-3.379 -3.737,-3.379 z m 25.34,0 c -1.75,0 -3.737,1.071 -3.737,3.379 -10e-4,2.309 1.987,3.328 3.737,3.328 6.568,0 10.75,-1.333 10.75,-3.328 0,-1.994 -4.183,-3.379 -10.75,-3.379 z"
           id="path239" />
        <path
           d="m 896.28,341.38 3.686,10.394 9.931,-4.761 -4.71,9.982 10.342,3.687 -10.342,3.686 4.71,9.931 -9.931,-4.71 -3.737,10.341 -3.686,-10.341 -9.931,4.71 4.71,-9.931 -10.341,-3.686 10.341,-3.687 -4.71,-9.982 9.931,4.761 z"
           id="path241" />
        <path
           d="m 813.537,423.279 c 0,0 12.609,6.28 18.943,11.877 l 0.357,0.307 0.204,-0.255 c 5.986,-6.871 17.098,-12.696 17.098,-12.696 0,0 -10.676,-2.945 -17.4045,-10.648 -7.1115,7.248 -19.1975,11.415 -19.1975,11.415 z"
           id="path243" />
        <path
           d="m 978.948,423.295 c 0,0 -12.609,6.28 -18.943,11.877 l -0.357,0.307 -0.204,-0.255 c -5.986,-6.871 -17.098,-12.696 -17.098,-12.696 0,0 10.676,-2.945 17.4045,-10.648 7.1115,7.248 19.1975,11.415 19.1975,11.415 z"
           id="path245" />
        <path
           d="m 869.4,447.4 4.147,4.145 -4.147,4.199 -4.198,-4.199 z"
           id="path247" />
        <path
           d="m 923.1,447.4 4.199,4.145 -4.199,4.199 -4.146,-4.199 z"
           id="path249" />
        <path
           d="m 875.033,465.519 c 2.897,3.998 2.405,10.462 2.405,19.455 0,9.067 -6.808,12.541 -6.808,12.541 0,-21.794 -2.247,-27.034 -3.43,-33.6345 z"
           id="path251" />
        <path
           d="m 925.3,463.88 c -1.185,6.602 -3.429,11.841 -3.429,33.634 0,0 -6.809,-3.474 -6.809,-12.541 0,-8.993 -0.492,-15.455 2.406,-19.454 z"
           id="path253" />
        <path
           id="leaf"
           d="m 842.832,472.128 c 0.204,0.816 0.226,1.618 0.153,2.407 -0.06,0.654 -0.234,1.248 -0.46,1.842 -1.133,-0.414 -2.359,-0.615 -3.635,-0.615 -3.159,0 -5.987,1.39 -7.935,3.585 -0.511,-0.452 -0.955,-0.952 -1.33,-1.536 -0.42,-0.649 -0.775,-1.359 -0.973,-2.15 -0.982,-3.913 1.411,-7.876 5.324,-8.857 0.488,-0.124 1,-0.185 1.4845,-0.2045 3.3925,-0.1455 6.5115,2.1055 7.3715,5.5285 z" />
        <use
           xlink:href="#leaf"
           transform="rotate(72,838.89,486.468)"
           id="use256"
           x="0"
           y="0"
           width="100%"
           height="100%" />
        <use
           xlink:href="#leaf"
           transform="rotate(144,838.89,486.468)"
           id="use258"
           x="0"
           y="0"
           width="100%"
           height="100%" />
        <use
           xlink:href="#leaf"
           transform="rotate(-144,838.89,486.468)"
           id="use260"
           x="0"
           y="0"
           width="100%"
           height="100%" />
        <use
           xlink:href="#leaf"
           transform="rotate(-72,838.89,486.468)"
           id="use262"
           x="0"
           y="0"
           width="100%"
           height="100%" />
        <circle
           cx="838.89001"
           cy="486.46799"
           r="7.0650001"
           id="circle264" />
        <path
           d="m 962.925,476.942 c -11.729,2.268 -20.17,12.628 -18.942,24.727 -3.738,-3.096 -6.473,-7.266 -6.962,-11.877 -0.951,-8.979 5.571,-15.922 15.4095,-15.922 3.7615,0 7.3755,1.152 10.4945,3.072 z"
           id="path266" />
      </g>
    </g>
  </g>
</svg>
