<?xml version="1.0" encoding="UTF-8" standalone="no"?>
<svg
   xmlns:dc="http://purl.org/dc/elements/1.1/"
   xmlns:cc="http://creativecommons.org/ns#"
   xmlns:rdf="http://www.w3.org/1999/02/22-rdf-syntax-ns#"
   xmlns:svg="http://www.w3.org/2000/svg"
   xmlns="http://www.w3.org/2000/svg"
   xmlns:sodipodi="http://sodipodi.sourceforge.net/DTD/sodipodi-0.dtd"
   xmlns:inkscape="http://www.inkscape.org/namespaces/inkscape"
   version="1.0"
   width="875"
   height="500"
   id="svg32"
   sodipodi:docname="Mozambique.svg"
   inkscape:version="1.0.2 (e86c8708, 2021-01-15)">
  <metadata
     id="metadata38">
    <rdf:RDF>
      <cc:Work
         rdf:about="">
        <dc:format>image/svg+xml</dc:format>
        <dc:type
           rdf:resource="http://purl.org/dc/dcmitype/StillImage" />
      </cc:Work>
    </rdf:RDF>
  </metadata>
  <defs
     id="defs36" />
  <sodipodi:namedview
     pagecolor="#ffffff"
     bordercolor="#666666"
     borderopacity="1"
     objecttolerance="10"
     gridtolerance="10"
     guidetolerance="10"
     inkscape:pageopacity="0"
     inkscape:pageshadow="2"
     inkscape:window-width="1344"
     inkscape:window-height="729"
     id="namedview34"
     showgrid="false"
     inkscape:zoom="0.73263244"
     inkscape:cx="483.0077"
     inkscape:cy="322.52514"
     inkscape:window-x="0"
     inkscape:window-y="25"
     inkscape:window-maximized="1"
     inkscape:current-layer="svg32" />
  <rect
     width="875"
     height="500"
     fill="#000000"
     id="rect10"
     x="0"
     y="0"
     style="stroke-width:0.900103" />
  <rect
     width="875"
     height="171.875"
     fill="#ffffff"
     id="rect12"
     x="0"
     y="0"
     style="stroke-width:0.900103" />
  <rect
     width="875"
     height="156.25"
     fill="#007168"
     id="rect14"
     x="0"
     y="0"
     style="stroke-width:0.900103" />
  <rect
     y="327.91666"
     width="875"
     height="172.08333"
     fill="#ffffff"
     id="rect16"
     x="0"
     style="stroke-width:0.900103" />
  <rect
     y="343.75"
     width="875"
     height="156.25"
     fill="#fce100"
     id="rect18"
     x="0"
     style="stroke-width:0.900103" />
  <path
     d="M 0,0 V 500 L 328.125,250 Z"
     fill="#d21034"
     id="path20"
     style="stroke-width:0.833333" />
  <path
     d="M 170.30799,343.73729 109.3463,299.1042 48.46716,343.75002 72.077559,271.97961 10.804172,227.87643 l 75.553724,0.27655 23.010104,-71.90309 23.08437,71.94132 75.49441,-0.33537 -61.28679,44.18564 z"
     fill="#fce100"
     id="path22"
     style="stroke-width:1.01838" />
  <path
     d="m 56.436678,293.6895 h 43.915692 c 3.53351,3.96391 11.41726,5.58055 18.92623,-0.0472 13.76453,-7.53732 40.39394,0.0472 40.39394,0.0472 l 5.24358,-5.57111 -12.78195,-41.94969 -4.58853,-4.91606 c 0,0 -9.83105,-5.89863 -28.51269,-3.93242 -18.68058,1.96621 -25.235316,-0.65505 -25.235316,-0.65505 0,0 -16.38611,1.96621 -20.974426,4.25995 -0.504413,0.40836 -5.243686,5.24358 -5.243686,5.24358 z"
     fill="#ffffff"
     fill-rule="evenodd"
     stroke="#000000"
     stroke-width="1.31221"
     stroke-linecap="round"
     stroke-linejoin="round"
     id="path24" />
  <path
     d="m 65.285469,282.87481 c 0,0 41.949171,-5.24358 54.076061,10.81469 -6.84867,4.68615 -12.87853,5.07247 -19.33669,0.32857 1.02878,-1.71426 15.07569,-16.38684 50.79817,-11.47079"
     fill="none"
     stroke="#000000"
     stroke-width="1.31221"
     stroke-linecap="round"
     stroke-linejoin="round"
     id="path26" />
  <path
     d="m 110.18448,240.92512 -0.32753,46.21069 m 37.68869,-45.55564 7.8659,36.70611 M 73.255711,241.00385 68.89047,259.93323"
     stroke="#000000"
     stroke-width="1.31221"
     stroke-linecap="round"
     stroke-linejoin="round"
     id="path28" />
  <path
     d="m 27.914015,298.72102 10.327807,12.10905 c 1.212794,0.72329 2.290064,0.6771 3.367333,0 l 15.306111,-18.3667 6.428556,-7.95932 c 0.995388,-1.17889 1.313152,-2.49425 1.224447,-3.67313 L 76.858298,269.9102 c 1.00536,0.0693 1.604147,0.18266 2.609507,0.2509 -1.18781,-0.30759 -2.059325,-0.88601 -1.124089,-2.18772 l 2.754901,-2.14257 2.142572,2.75459 c 0,0 -3.060698,3.97966 -3.366809,3.97966 -0.306112,0 -3.367334,0 -3.367334,0 l -6.428556,5.81675 2.810223,2.48375 4.230556,11.59781 5.204424,-3.67418 -3.367753,-11.93794 7.347416,-7.95932 -2.755636,-4.2862 1.837091,-2.4491 c 0,0 25.427429,16.00893 35.223839,11.72379 0.26454,0.0955 0.59207,-11.41726 0.59207,-11.41726 0,0 -26.326026,-2.75458 -26.93909,-7.95932 -0.612013,-5.20369 5.81675,-5.8157 5.81675,-5.8157 l -2.755632,-3.97967 0.613063,-2.14362 4.591679,5.81675 10.40842,-8.87787 61.2234,69.79578 c 3.34245,-1.35524 4.05629,-2.17301 4.28619,-5.51022 -0.0861,-0.084 -59.99936,-68.87723 -59.99936,-68.87723 l 4.59167,-4.89716 c 0.9049,-1.02037 1.22298,-1.45393 1.22403,-3.06217 l 7.04078,-6.12202 c 2.11738,0.72738 3.46737,1.99644 4.59167,3.67292 l 19.35664,-16.40459 c 0.51018,0.51019 2.05964,1.02038 3.1115,0.44657 l 32.00211,-30.71751 -34.87847,24.63528 -1.22402,-0.91834 c 0,-1.02048 1.26496,-1.27284 0,-3.06122 -1.35525,-1.62619 -3.36765,1.53066 -3.67313,1.53066 -0.30654,0 -5.04833,-1.67584 -6.0876,-3.79889 l -0.34117,5.63556 -8.87787,8.26533 -6.73425,-0.30611 -9.79641,9.48968 -1.22403,3.67302 1.53056,3.06217 c 0,0 -5.20474,4.59167 -5.20474,4.28514 0,-0.30548 -1.05187,-1.35315 -1.09701,-1.48857 l 4.46466,-4.02165 0.61201,-2.7549 -1.48962,-2.32607 c -0.45139,0.32805 -6.16317,6.30605 -6.4697,5.69299 -0.51019,-0.57108 -16.529615,-18.67303 -16.529615,-18.67303 l 0.917495,-3.36733 -10.407378,-11.32656 c -3.794379,-1.31 -9.796205,-1.53056 -11.020652,6.73467 -0.953502,1.94133 -8.877554,0.30611 -8.877554,0.30611 l -4.285669,0.91844 -24.183666,34.28556 13.469336,16.22414 27.550999,-34.89758 0.817872,-9.88627 5.780851,6.46372 c 1.92737,0.24764 3.76341,0.26937 5.510221,-0.61222 l 16.32281,18.21942 -2.71785,2.6517 c 0.91855,1.02038 1.55051,1.67228 2.46905,2.69265 0.91855,-0.61201 1.7951,-1.34685 2.71365,-1.95991 0.30653,0.40941 0.81672,1.18519 1.12325,1.59355 -1.36785,0.74428 -2.32733,1.73526 -3.69518,2.47954 -2.18876,-1.42663 -4.30194,-3.20283 -4.14132,-6.02985 l -9.183355,7.65279 -0.306532,1.53056 -27.244467,22.6529 -2.448999,0.30653 -0.612224,7.04078 17.755005,-14.69358 v -2.14362 l 1.836775,1.53056 13.775027,-11.01939 c 0,0 0.918546,1.22403 0.613064,1.22403 -0.306532,0 -12.245519,11.02044 -12.245519,11.02044 l -0.305482,1.22403 -2.143202,1.83709 -1.224551,-0.91855 -16.530558,14.69357 h -2.448894 l -9.183666,9.1844 c -2.368692,0.20576 -4.421194,0.45665 -6.428556,1.83604 z"
     fill="#000000"
     fill-rule="evenodd"
     stroke="#000000"
     stroke-width="1.31221"
     stroke-linecap="round"
     stroke-linejoin="round"
     id="path30" />
</svg>
