<?xml version="1.0" encoding="UTF-8" standalone="no"?>
<svg
   xmlns:dc="http://purl.org/dc/elements/1.1/"
   xmlns:cc="http://creativecommons.org/ns#"
   xmlns:rdf="http://www.w3.org/1999/02/22-rdf-syntax-ns#"
   xmlns:svg="http://www.w3.org/2000/svg"
   xmlns="http://www.w3.org/2000/svg"
   xmlns:xlink="http://www.w3.org/1999/xlink"
   xmlns:sodipodi="http://sodipodi.sourceforge.net/DTD/sodipodi-0.dtd"
   xmlns:inkscape="http://www.inkscape.org/namespaces/inkscape"
   width="875.09424"
   height="499.89371"
   viewBox="-17.582 -4.664 86.269104 49.281047"
   version="1.1"
   id="svg15"
   sodipodi:docname="Nepal.svg"
   inkscape:version="1.0.2 (e86c8708, 2021-01-15)">
  <style
     id="style846" />
  <metadata
     id="metadata21">
    <rdf:RDF>
      <cc:Work
         rdf:about="">
        <dc:format>image/svg+xml</dc:format>
        <dc:type
           rdf:resource="http://purl.org/dc/dcmitype/StillImage" />
      </cc:Work>
    </rdf:RDF>
  </metadata>
  <defs
     id="defs19" />
  <sodipodi:namedview
     pagecolor="#ffffff"
     bordercolor="#666666"
     borderopacity="1"
     objecttolerance="10"
     gridtolerance="10"
     guidetolerance="10"
     inkscape:pageopacity="0"
     inkscape:pageshadow="2"
     inkscape:window-width="1344"
     inkscape:window-height="729"
     id="namedview17"
     showgrid="false"
     inkscape:zoom="0.31421725"
     inkscape:cx="63.926031"
     inkscape:cy="105.39717"
     inkscape:window-x="0"
     inkscape:window-y="25"
     inkscape:window-maximized="1"
     inkscape:current-layer="g875"
     inkscape:document-rotation="0" />
  <title
     id="title2">Flag of Nepal</title>
  <desc
     id="desc4">Coding according to the official construction in &quot;Constitution of the Kingdom of Nepal, Article 5, Schedule 1&quot;, adopted in November 1990</desc>
  <g
     id="g875"
     transform="matrix(0,0.988694,-0.988694,0,31.317016,12.370841)">
    <g
       id="g25"
       transform="matrix(0.69641685,0,0,1.0001077,-4.9848905,0.41752231)">
      <use
         stroke="#003893"
         stroke-width="5.165"
         xlink:href="#a"
         id="use6"
         x="0"
         y="0"
         width="100%"
         height="100%" />
      <path
         id="a"
         fill="#dc143c"
         d="M -15,4.0230686 H 45 L -15,-33.546931 v 80 h 60 l -60,-60 z" />
    </g>
    <path
       d="m -3.9906738,2.7415664 c 5.1252998,0 9.2798988,-4.1545991 9.2798988,-9.2798988 -0.8153886,2.0734167 -2.2908537,3.7896156 -4.1701302,4.9078628 L 0.32700297,-2.2206556 1.8801241,-3.3854965 8.475298e-4,-3.8669641 0.99484506,-5.5521005 l -1.94140143,0.2795618 0.28732742,-1.9258702 -1.68513645,1.0095287 -0.4814675,-1.9025734 -1.1648409,1.5531212 -1.1648409,-1.5531212 -0.4892331,1.8948078 -1.6773708,-0.9939975 0.2873274,1.9414014 -1.9414015,-0.2873274 1.0095288,1.6851365 -1.8948078,0.4814675 1.5531211,1.1648409 -0.7765605,0.5979516 c -1.8404489,-1.0871848 -3.3392109,-2.7645556 -4.1778959,-4.9078628 0,5.1252998 4.154599,9.2798988 9.2798988,9.2798988 z"
       id="path9"
       style="fill:#ffffff;stroke-width:0.776561" />
    <path
       d="m -8.4636627,21.195136 -4.1623643,-0.51253 2.523822,3.339211 -3.859507,1.646308 3.859507,1.630777 -2.523822,3.339211 4.1623643,-0.51253 -0.51253,4.17013 3.3392105,-2.523822 1.6463084,3.867272 1.6307772,-3.867272 3.35474166,2.531587 -0.51252998,-4.162364 4.16236462,0.520295 -2.5238218,-3.33921 3.859506,-1.630777 -3.859506,-1.646309 2.5238218,-3.33921 -4.16236462,0.504764 0.51252998,-4.162364 -3.33921046,2.523821 -1.6463084,-3.875037 -1.6307772,3.859506 -3.3547417,-2.523822 z"
       id="path11"
       style="fill:#ffffff;stroke-width:0.776561" />
  </g>
</svg>
