<?xml version="1.0" encoding="UTF-8" standalone="no"?>
<svg
   xmlns:dc="http://purl.org/dc/elements/1.1/"
   xmlns:cc="http://creativecommons.org/ns#"
   xmlns:rdf="http://www.w3.org/1999/02/22-rdf-syntax-ns#"
   xmlns:svg="http://www.w3.org/2000/svg"
   xmlns="http://www.w3.org/2000/svg"
   xmlns:xlink="http://www.w3.org/1999/xlink"
   xmlns:sodipodi="http://sodipodi.sourceforge.net/DTD/sodipodi-0.dtd"
   xmlns:inkscape="http://www.inkscape.org/namespaces/inkscape"
   width="875"
   height="500"
   version="1.1"
   id="svg39"
   sodipodi:docname="Flag_of_FLNKS.svg"
   inkscape:version="1.0.2 (e86c8708, 2021-01-15)">
  <metadata
     id="metadata45">
    <rdf:RDF>
      <cc:Work
         rdf:about="">
        <dc:format>image/svg+xml</dc:format>
        <dc:type
           rdf:resource="http://purl.org/dc/dcmitype/StillImage" />
        <dc:title>Flag of New Caledonia</dc:title>
      </cc:Work>
    </rdf:RDF>
  </metadata>
  <defs
     id="defs43" />
  <sodipodi:namedview
     pagecolor="#ffffff"
     bordercolor="#666666"
     borderopacity="1"
     objecttolerance="10"
     gridtolerance="10"
     guidetolerance="10"
     inkscape:pageopacity="0"
     inkscape:pageshadow="2"
     inkscape:window-width="1344"
     inkscape:window-height="812"
     id="namedview41"
     showgrid="false"
     fit-margin-top="0"
     fit-margin-left="0"
     fit-margin-right="0"
     fit-margin-bottom="0"
     inkscape:zoom="0.76869977"
     inkscape:cx="404.72897"
     inkscape:cy="239.87219"
     inkscape:window-x="0"
     inkscape:window-y="0"
     inkscape:window-maximized="1"
     inkscape:current-layer="svg39" />
  <title
     id="title10">Flag of New Caledonia</title>
  <rect
     fill="#009543"
     width="875"
     height="500"
     id="rect12"
     x="0"
     y="0"
     style="stroke-width:1.11111" />
  <rect
     fill="#ed4135"
     width="875"
     height="333.33334"
     id="rect14"
     x="0"
     y="0"
     style="stroke-width:1.11111" />
  <rect
     fill="#0035ad"
     width="875"
     height="166.66667"
     id="rect16"
     x="0"
     y="0"
     style="stroke-width:1.11111" />
  <circle
     stroke="#000000"
     stroke-width="5.55556"
     fill="#fae600"
     cx="333.33334"
     cy="250"
     r="163.86667"
     id="circle18" />
  <path
     stroke="#000000"
     stroke-width="6.66667"
     d="m 305.55556,274.44444 h 55.55555 m -55.55555,-41.11111 h 55.55555 M 333.33333,86.666667 V 366.66667"
     id="path20" />
  <path
     d="m 267.35556,400.46556 c 66.87888,27.31111 129.56444,1.67777 129.56444,1.67777 0,0 -23.66333,-25.60889 -35.79333,-35.60777 -11.83667,-9.75334 -46.65667,-9.36778 -58.53889,0 -9.91556,7.82 -38.35556,36.63333 -35.23222,33.93 z"
     id="path22"
     style="stroke-width:1.11111" />
  <ellipse
     cx="333.33334"
     cy="325.55554"
     rx="18.333334"
     ry="26.666666"
     id="ellipse24"
     style="stroke-width:1.11111" />
  <ellipse
     cx="333.33334"
     cy="253.88889"
     rx="22.222221"
     ry="14.066667"
     id="ellipse26"
     style="stroke-width:1.11111" />
  <circle
     cx="333.33334"
     cy="188.88889"
     id="ellipse28"
     r="22.222221"
     style="stroke-width:1.11111" />
  <path
     d="m 360,106.11111 c -0.007,-0.0149 1.92556,3.18978 -2.12556,10.48445 -19.36222,34.87 -38.79222,35.62333 -42.48,38.62666 -4.06444,3.30889 -5.78,3.08222 -5.78,3.08222 0.29,-2.98666 0.56,-15.19888 0.77223,-16.37555 2.93889,-16.29222 27.55111,-16.06778 46.81333,-32.75056 3.00889,-2.60611 2.79333,-3.08211 2.79333,-3.08211 z"
     id="path30"
     style="stroke-width:1.11111" />
  <g
     id="leaf"
     transform="scale(1.1111111)">
    <path
       d="m 265.5,163 c 0,0 3.91436,11.22974 4.5,22.5 0.93516,17.99657 18.18031,18.5 30,18.5 v -10 c -8.85851,0 -16.55267,-1.31658 -23,-14.5 -3.18045,-6.50336 -11.5,-16.5 -11.5,-16.5 z"
       id="path32" />
    <path
       d="m 265,308 c 0,0 6.29638,-7.76543 13.6619,-25.97461 C 282.5048,272.5249 291.6115,267 300,267 v -14 c -19.02757,0 -28.1503,7.0552 -29.11281,17.36332 C 268.90975,291.54089 265,308 265,308 Z"
       id="path34" />
  </g>
  <use
     xlink:href="#leaf"
     transform="matrix(-1,0,0,1,666.66667,0)"
     id="use37"
     x="0"
     y="0"
     width="100%"
     height="100%" />
</svg>
