<?xml version="1.0" encoding="UTF-8" standalone="no"?>
<svg
   xmlns:dc="http://purl.org/dc/elements/1.1/"
   xmlns:cc="http://creativecommons.org/ns#"
   xmlns:rdf="http://www.w3.org/1999/02/22-rdf-syntax-ns#"
   xmlns:svg="http://www.w3.org/2000/svg"
   xmlns="http://www.w3.org/2000/svg"
   xmlns:xlink="http://www.w3.org/1999/xlink"
   xmlns:sodipodi="http://sodipodi.sourceforge.net/DTD/sodipodi-0.dtd"
   xmlns:inkscape="http://www.inkscape.org/namespaces/inkscape"
   width="875"
   height="500"
   viewBox="0 0 175 100"
   version="1.1"
   id="svg44"
   sodipodi:docname="Niue.svg"
   inkscape:version="1.0.2 (e86c8708, 2021-01-15)">
  <metadata
     id="metadata50">
    <rdf:RDF>
      <cc:Work
         rdf:about="">
        <dc:format>image/svg+xml</dc:format>
        <dc:type
           rdf:resource="http://purl.org/dc/dcmitype/StillImage" />
      </cc:Work>
    </rdf:RDF>
  </metadata>
  <defs
     id="defs48" />
  <sodipodi:namedview
     pagecolor="#ffffff"
     bordercolor="#666666"
     borderopacity="1"
     objecttolerance="10"
     gridtolerance="10"
     guidetolerance="10"
     inkscape:pageopacity="0"
     inkscape:pageshadow="2"
     inkscape:window-width="1344"
     inkscape:window-height="729"
     id="namedview46"
     showgrid="false"
     inkscape:zoom="0.82177115"
     inkscape:cx="406.06683"
     inkscape:cy="283.6145"
     inkscape:window-x="0"
     inkscape:window-y="25"
     inkscape:window-maximized="1"
     inkscape:current-layer="svg44" />
  <clipPath
     id="t">
    <path
       d="M 0,0 V 15 H 70 V 30 H 60 Z M 0,30 V 40 H 30 V 0 h 30 z"
       id="path10" />
  </clipPath>
  <title
     id="title13">Flag of Niue</title>
  <rect
     width="173.06508"
     height="86.532539"
     fill="#012169"
     id="rect15"
     x="6.0791017e-10"
     y="2.121582e-08"
     style="stroke-width:1.44221" />
  <g
     stroke="#c8102e"
     stroke-width="6"
     id="g25"
     transform="scale(1.4422089)">
    <path
       d="M 0,0 60,30 M 60,0 0,30"
       stroke="#ffffff"
       id="path17" />
    <path
       d="M 0,0 60,30 M 60,0 0,30"
       clip-path="url(#t)"
       stroke-width="4"
       id="path19" />
    <path
       d="M 30,0 V 40 M 0,15 h 70"
       stroke="#ffffff"
       stroke-width="10"
       id="path21" />
    <path
       d="M 30,0 V 40 M 0,15 h 70"
       id="path23" />
  </g>
  <path
     d="M 86.532534,43.266267 H 0 V 99.999999 H 175 V 0 H 86.532534 Z"
     fill="#fedd00"
     id="path27"
     style="stroke-width:1.55902"
     sodipodi:nodetypes="ccccccc" />
  <g
     transform="matrix(1.4422089,0,0,1.4422089,43.266268,21.633134)"
     id="g42">
    <g
       transform="scale(5.1039048)"
       id="g32">
      <circle
         r="1"
         fill="#012169"
         id="circle29"
         cx="0"
         cy="0" />
      <path
         id="s"
         d="M 0,-513674 301930,415571 -488533,-158734 H 488533 L -301930,415571"
         fill="#fedd00"
         transform="matrix(1.94676e-6,0,0,1.94676e-6,0,0)" />
    </g>
    <use
       xlink:href="#s"
       transform="matrix(3,0,0,3,-17.5,0.29)"
       id="use34"
       x="0"
       y="0"
       width="100%"
       height="100%" />
    <use
       xlink:href="#s"
       transform="matrix(3,0,0,3,17.5,0.29)"
       id="use36"
       x="0"
       y="0"
       width="100%"
       height="100%" />
    <use
       xlink:href="#s"
       transform="matrix(3,0,0,3,0,10.29)"
       id="use38"
       x="0"
       y="0"
       width="100%"
       height="100%" />
    <use
       xlink:href="#s"
       transform="matrix(3,0,0,3,0,-9.71)"
       id="use40"
       x="0"
       y="0"
       width="100%"
       height="100%" />
  </g>
</svg>
