<?xml version="1.0" encoding="UTF-8" standalone="no"?>
<svg
   xmlns:dc="http://purl.org/dc/elements/1.1/"
   xmlns:cc="http://creativecommons.org/ns#"
   xmlns:rdf="http://www.w3.org/1999/02/22-rdf-syntax-ns#"
   xmlns:svg="http://www.w3.org/2000/svg"
   xmlns="http://www.w3.org/2000/svg"
   xmlns:sodipodi="http://sodipodi.sourceforge.net/DTD/sodipodi-0.dtd"
   xmlns:inkscape="http://www.inkscape.org/namespaces/inkscape"
   width="875"
   height="500"
   viewBox="0 0 175 100"
   version="1.1"
   id="svg26"
   sodipodi:docname="Philippines.svg"
   inkscape:version="1.0.2 (e86c8708, 2021-01-15)">
  <metadata
     id="metadata32">
    <rdf:RDF>
      <cc:Work
         rdf:about="">
        <dc:format>image/svg+xml</dc:format>
        <dc:type
           rdf:resource="http://purl.org/dc/dcmitype/StillImage" />
      </cc:Work>
    </rdf:RDF>
  </metadata>
  <defs
     id="defs30" />
  <sodipodi:namedview
     pagecolor="#ffffff"
     bordercolor="#666666"
     borderopacity="1"
     objecttolerance="10"
     gridtolerance="10"
     guidetolerance="10"
     inkscape:pageopacity="0"
     inkscape:pageshadow="2"
     inkscape:window-width="1344"
     inkscape:window-height="729"
     id="namedview28"
     showgrid="false"
     inkscape:zoom="0.51114552"
     inkscape:cx="797.98662"
     inkscape:cy="325.30725"
     inkscape:window-x="0"
     inkscape:window-y="25"
     inkscape:window-maximized="1"
     inkscape:current-layer="svg26" />
  <rect
     width="175"
     height="100"
     fill="#0038a8"
     id="rect10"
     x="0"
     y="0"
     style="stroke-width:0.779512" />
  <rect
     y="50"
     width="175"
     height="50"
     fill="#ce1126"
     id="rect12"
     x="0"
     style="stroke-width:0.779512" />
  <path
     d="M 86.602558,50 0,100 V 0"
     fill="#ffffff"
     id="path14"
     style="stroke-width:0.833333" />
  <g
     fill="#fcd116"
     id="g24"
     transform="scale(0.83333333)">
    <path
       d="m 6,10.3923 3.61208,3.121446 4.18214,-2.302242 -1.85248,4.399868 3.48192,3.266012 -4.75698,-0.40218 -2.0302,4.320745 L 7.549,18.147524 2.81236,17.551882 6.89724,15.081172 Z"
       id="path16" />
    <path
       d="m 87.3165,53.659618 0.09726,4.772948 4.50928,1.56743 -4.50928,1.567428 -0.09726,4.77295 -2.88416,-3.804228 -4.56942,1.382416 2.72678,-3.918566 -2.72678,-3.918566 4.56942,1.382416 z"
       id="path18" />
    <path
       d="m 8.63648,97.204042 2.0302,4.320748 4.75698,-0.40218 -3.48192,3.26601 1.85248,4.39987 L 9.61208,106.48625 6,109.60769 6.89724,104.91882 2.81236,102.44811 7.549,101.85247 Z"
       id="path20" />
    <path
       d="m 37.33334,34.666664 -1.558,1.557998 0.77266,11.800586 c -0.26268,0.01692 -0.52274,0.0424 -0.78058,0.076 l -1.41866,-10.768258 -1.27142,1.271414 1.91426,9.62508 c -1.57464,0.311572 -3.03812,0.93012 -4.32568,1.792334 l -5.4514,-8.158902 h -1.79868 l 6.612,8.61808 c -0.20746,0.159494 -0.4084,0.326318 -0.60482,0.498746 l -7.7995,-8.893586 h -2.204 v 2.204002 l 8.89358,7.799506 c -0.17262,0.196664 -0.33912,0.398692 -0.49874,0.606412 L 19.19628,46.08249 v 1.798668 l 8.16048,5.452996 c -0.86198,1.287334 -1.4824,2.749842 -1.7939,4.324094 l -9.6251,-1.914254 -1.2714,1.271414 10.76824,1.41867 c -0.0336,0.25788 -0.05908,0.517944 -0.076,0.780586 l -11.8006,-0.772668 -1.558,1.558 1.558,1.558 11.8006,-0.772668 c 0.017,0.262786 0.0424,0.52428 0.076,0.78216 l -10.76824,1.417096 1.2714,1.271414 9.6251,-1.914254 c 0.31152,1.574546 0.92998,3.037864 1.79232,4.325666 l -8.15892,5.451412 v 1.798666 l 8.6181,-6.611998 c 0.15948,0.207548 0.32632,0.408334 0.49874,0.604838 l -8.89358,7.799494 v 2.204 h 2.204 l 7.7995,-8.893572 c 0.19672,0.172732 0.39864,0.338946 0.6064,0.498746 l -6.61358,8.61808 h 1.79868 l 5.453,-8.160494 c 1.287,0.862736 2.74966,1.483988 4.32408,1.795496 l -1.91426,9.623506 1.27142,1.271412 1.41866,-10.768254 c 0.25774,0.0336 0.5179,0.05906 0.78058,0.076 l -0.77266,11.800586 1.558,1.558 1.558,-1.558 -0.77266,-11.800586 c 0.26272,-0.01706 0.52274,-0.0424 0.78058,-0.076 l 1.41866,10.768254 1.27142,-1.271412 -1.91424,-9.625096 c 1.57462,-0.311558 3.0381,-0.930104 4.32566,-1.792332 l 5.4514,8.158918 h 1.79868 l -6.612,-8.618078 c 0.20746,-0.159494 0.40842,-0.326318 0.60484,-0.498746 l 7.7995,8.893572 h 2.204 v -2.204 L 46.3536,67.910328 c 0.17262,-0.196664 0.3391,-0.398692 0.49876,-0.606412 l 8.61808,6.613572 v -1.798666 l -8.16052,-5.452998 c 0.86198,-1.28732 1.48244,-2.749828 1.79392,-4.32408 l 9.6251,1.914254 1.27142,-1.271414 -10.76828,-1.41867 c 0.0336,-0.257892 0.05906,-0.517944 0.076,-0.780586 l 11.8006,0.772668 1.558,-1.558 -1.558,-1.558 -11.8006,0.772668 C 49.29128,58.951956 49.2657,58.691916 49.2321,58.434078 l 10.76826,-1.41867 -1.27142,-1.271414 -9.62508,1.914254 C 48.79228,56.083624 48.17374,54.62013 47.3115,53.332582 l 8.15894,-5.451426 V 46.08249 l -8.61808,6.612 c -0.1595,-0.207454 -0.32632,-0.408402 -0.49876,-0.604826 l 8.89358,-7.799506 v -2.204002 h -2.204 l -7.7995,8.893586 C 45.04702,50.80713 44.845,50.640636 44.63726,50.480996 l 6.61358,-8.61808 H 49.45216 L 43.99918,50.02341 C 42.71184,49.161438 41.24934,48.540994 39.6751,48.229488 l 1.91424,-9.62508 -1.27142,-1.271412 -1.41866,10.768254 c -0.25786,-0.0336 -0.51794,-0.05906 -0.78058,-0.076 l 0.77266,-11.800586 z"
       id="path22" />
  </g>
</svg>
