<?xml version="1.0" encoding="UTF-8" standalone="no"?>
<svg
   xmlns:dc="http://purl.org/dc/elements/1.1/"
   xmlns:cc="http://creativecommons.org/ns#"
   xmlns:rdf="http://www.w3.org/1999/02/22-rdf-syntax-ns#"
   xmlns:svg="http://www.w3.org/2000/svg"
   xmlns="http://www.w3.org/2000/svg"
   xmlns:xlink="http://www.w3.org/1999/xlink"
   xmlns:sodipodi="http://sodipodi.sourceforge.net/DTD/sodipodi-0.dtd"
   xmlns:inkscape="http://www.inkscape.org/namespaces/inkscape"
   version="1.1"
   viewBox="0 0 875 500"
   id="svg292"
   sodipodi:docname="Flag_of_Saint_BartheÌlemy_(Local).svg"
   width="875"
   height="500"
   inkscape:version="1.0.2 (e86c8708, 2021-01-15)">
  <metadata
     id="metadata296">
    <rdf:RDF>
      <cc:Work
         rdf:about="">
        <dc:format>image/svg+xml</dc:format>
        <dc:type
           rdf:resource="http://purl.org/dc/dcmitype/StillImage" />
        <dc:title></dc:title>
      </cc:Work>
    </rdf:RDF>
  </metadata>
  <sodipodi:namedview
     pagecolor="#ffffff"
     bordercolor="#666666"
     borderopacity="1"
     objecttolerance="10"
     gridtolerance="10"
     guidetolerance="10"
     inkscape:pageopacity="0"
     inkscape:pageshadow="2"
     inkscape:window-width="1344"
     inkscape:window-height="812"
     id="namedview294"
     showgrid="false"
     fit-margin-top="0"
     fit-margin-left="0"
     fit-margin-right="0"
     fit-margin-bottom="0"
     inkscape:zoom="0.66223718"
     inkscape:cx="558.30822"
     inkscape:cy="313.20089"
     inkscape:window-x="0"
     inkscape:window-y="0"
     inkscape:window-maximized="1"
     inkscape:current-layer="svg292" />
  <defs
     id="defs12">
    <style
       id="style10">.cls-1,.cls-12{fill:#fff;}.cls-2,.cls-29,.cls-30{fill:#eabe4e;}.cls-12,.cls-14,.cls-15,.cls-16,.cls-2,.cls-3,.cls-30{stroke:#000;}.cls-11,.cls-12,.cls-14,.cls-15,.cls-16,.cls-17,.cls-2,.cls-20,.cls-27,.cls-28,.cls-3,.cls-5,.cls-6,.cls-7,.cls-8,.cls-9{stroke-width:1.5px;}.cls-3{fill:#e20909;}.cls-4{fill:#666;}.cls-11,.cls-15,.cls-20,.cls-27,.cls-5,.cls-8{fill:none;}.cls-5,.cls-7{stroke:#520;}.cls-11,.cls-12,.cls-14,.cls-15,.cls-16,.cls-27,.cls-28,.cls-5,.cls-6,.cls-7,.cls-8,.cls-9{stroke-miterlimit:1.92;}.cls-13,.cls-14,.cls-17,.cls-6{fill:#eace24;}.cls-17,.cls-6,.cls-8{stroke:#806600;}.cls-7{fill:#5e520e;}.cls-9{fill:#1353b4;}.cls-11,.cls-9{stroke:#540;}.cls-10{fill:#ce0f25;}.cls-16{fill:#dfdfdf;}.cls-17{stroke-miterlimit:4.8;}.cls-18{fill:#806600;}.cls-19{fill:#ff8080;}.cls-20,.cls-27,.cls-28{stroke:#9e7800;}.cls-20{stroke-linejoin:round;}.cls-21{fill:#ba0028;}.cls-22{fill:#cf1e45;}.cls-23{fill:#ff083c;}.cls-24{fill:#f9c;}.cls-25{fill:red;}.cls-26,.cls-28{fill:#ccc;}.cls-30{stroke-miterlimit:10;}</style>
  </defs>
  <path
     class="cls-1"
     stroke="#000000"
     d="M 0.188674,0.188674 H 874.81133 V 499.81133 H 0.188674 Z"
     id="path14"
     style="stroke-width:0.377348"
     sodipodi:nodetypes="ccccc" />
  <g
     inkscape:groupmode="layer"
     id="layer2"
     inkscape:label="Amblem"
     style="display:inline"
     transform="translate(0.50000016,0.15615186)">
    <g
       id="g875"
       transform="translate(61.971132,-62.911043)">
      <g
         id="elm1"
         transform="matrix(0.31230481,0,0,0.31230481,-0.3438476,-0.3438476)">
        <path
           class="cls-2"
           d="m 796.2415,1235.3321 c -0.0687,0.2985 1.7941,2.71 4.14,5.3582 6.3832,7.2076 11.9963,10.272 31.9278,17.43 9.2887,3.3361 20.5054,7.87 24.9261,10.0759 8.79,4.3856 13.7638,8.2663 19.6272,8.1554 4.1681,-0.079 14.65,-1.6587 14.87,-2.61 0.1785,-0.775 -14.6223,-11.7029 -21.3461,-15.9816 -11.7307,-7.4648 -21.886,-10.6356 -37.2244,-11.6226 -14.3168,-0.9212 -23.0339,-3.596 -36.5682,-11.2209 -0.1254,-0.07 -0.2839,0.1171 -0.3524,0.4156 z"
           id="path17" />
        <path
           class="cls-3"
           d="m 885.7943,1275.1323 c -8.251,2.2414 -14.2278,1.71 -30.0315,-2.669 -26.5,-7.3431 -38.5337,-8.8649 -40.0984,-5.0707 -0.8985,2.179 0.7734,6.1862 3.2728,7.8438 8.1751,5.4218 30.9161,12.3192 49.26,14.9406 10.4,1.4862 31.4176,3.7668 33.8834,3.6766 2.0608,-0.075 2.1334,-1.2218 0.4293,-6.7775 -1.5408,-5.0236 -3.5019,-8.05 -7.1292,-11.0022 -2.9445,-2.3961 -3.8907,-2.489 -9.5864,-0.9416 z"
           id="path19" />
        <path
           class="cls-2"
           d="m 926.6283,1295.8522 c -3.5695,-0.17 -16.0311,-0.576 -40.7791,-3.2351 -24.5239,-2.6351 -47.3509,-7.8539 -60.9525,-13.935 -6.2615,-2.8 -8.6632,-6.4954 -7.4233,-3.7575 1.2006,2.6513 3.5953,21.8116 3.4146,29.0694 -0.3225,12.9521 -6.04,31.6633 -12.2831,40.1964 -1.6294,2.2271 -1.8229,2.9759 -0.9747,3.7719 8.8968,8.35 24.8291,7.8673 24.8291,7.8673 13.4257,-0.3465 68.9847,-1.78 81.62,18.2529 7.9037,12.5315 -3.703,28.7292 0.0539,30.2768 4.1016,1.69 20.3172,-15.986 18.61,-33.4037 -0.7042,-7.1852 -3.9166,-8.7967 -3.8785,-17.9211 0.0407,-9.7123 3.7047,-13.7024 0.7878,-19.482 a 12.0935,12.0935 0 0 0 -1.1854,-1.8253 c -0.4958,-0.6439 -2.1466,-2.7877 -3.8425,-3.362 -2.4065,-0.815 -4.0593,1.8164 -7.9159,3.2775 -4.765,1.8054 -10.4213,0.8874 -10.7019,-0.3634 -0.4252,-1.896 11.053,-6.565 20.8364,-8.9914 a 76.7682,76.7682 0 0 1 28.3971,-2.3443 c 15.588,1.8043 23.0065,8.0368 34.9648,6.6088 7.25,-0.8658 11.7993,-3.5713 12.1572,-5.1015 0.232,-0.9919 2.4534,-3.7311 3.5128,-4.6328 1.7561,-1.4947 -0.8275,-1.98 -2.1135,-3.5549 -3.3333,-4.0806 -6.7076,-4.9067 -9.7821,-6.3637 -18.3895,-8.7144 -67.3511,-11.0473 -67.3512,-11.0473 z"
           id="path21" />
        <path
           class="cls-3"
           d="m 1004.5436,1316.8353 c -2.764,-0.4147 -3.7706,5.8818 -9.8681,8.881 -3.6883,1.8142 -7.3237,1.48 -11.8609,0.7914 -14.7563,-2.2386 -18.7384,-5.1379 -27.5749,-6.5641 -11.0418,-1.7821 -19.8771,0.2828 -28.3971,2.3443 -5.1852,1.2546 -20.9742,4.8559 -20.8364,8.9914 0.1583,4.7508 21.2554,8.2819 34.1721,9.3032 9.7476,0.7707 11.9269,-0.118 19.6812,0.5845 a 90.93,90.93 0 0 1 34.41,10.4879 l 10.5064,2.018 1.9613,-4.3534 c 1.9011,-2.8349 3.3827,-13.8234 2.6429,-19.6 -0.2901,-2.2622 -1.4062,-12.3695 -4.8365,-12.8842 z"
           id="path23" />
        <path
           class="cls-2"
           d="m 783.6407,1277.0158 c 3.93,5.9311 12.07,11.7443 21.7867,15.5581 12.1467,4.7677 15.8586,6.0284 14.7057,-1.3967 l -1.2665,-5.36 -13.4937,-2.69 c -9.4115,-2.1668 -11.6552,-2.9318 -16.7765,-5.72 a 45.7419,45.7419 0 0 0 -6.287,-3.0927 c -0.2062,0.069 0.3928,1.2849 1.3313,2.7013 z"
           id="path25" />
      </g>
      <use
         xlink:href="#elm1"
         transform="matrix(-1,0,0,1,748.84385,-0.62460962)"
         id="use28"
         x="0"
         y="0"
         width="100%"
         height="100%" />
      <path
         class="cls-2"
         d="m 354.25487,415.22311 c -4.04987,0.28251 -10.87982,0.83954 -15.17764,1.23782 -32.46008,3.00828 -42.04075,2.89404 -54.7173,-0.32067 -0.87405,-0.22174 -1.65353,-0.40288 -1.7322,-0.40288 -0.0787,0 0.0636,0.34619 0.31621,0.76927 0.80756,1.35278 1.37527,3.46509 1.72926,6.43436 0.407,3.41386 -0.0145,8.24016 -1.0152,11.62304 -0.88158,2.98039 -0.89591,2.88142 0.48778,3.36568 13.2917,0.41537 27.60316,-1.81711 41.40684,-2.51352 28.82945,-1.33642 58.09438,-1.3357 87.60947,0.002 9.64441,0.43723 17.79363,0.97933 30.37601,2.0208 6.36231,0.55853 15.56915,2.0015 19.96799,-0.0109 0.0965,-0.21277 -0.20856,-0.92329 -0.2931,-1.62554 -0.63685,-5.28879 -0.93966,-12.18482 0.70238,-17.09007 0.3415,-1.02014 2.6247,-4.27795 2.28878,-3.95825 -0.74531,0.70944 -2.48735,1.04466 -2.82098,1.16962 -11.68823,2.06505 -15.24788,1.96058 -27.21453,1.74787 -12.31795,-0.31605 -18.79191,0.0734 -35.02845,-1.30068 -9.30715,-0.78767 -21.72198,-1.60053 -26.89881,-1.76122 -4.62373,-0.14362 -12.68292,0.10366 -19.98651,0.61309 z"
         id="path30" />
      <path
         class="cls-4"
         d="M 450.80097,219.18567 H 297.46555 v 10.8568 h 153.33542 z"
         id="path32"
         style="stroke-width:0.312305" />
      <path
         class="cls-5"
         d="M 450.80097,219.18567 H 297.46555 v 10.8568 h 153.33542 z"
         id="path34" />
      <path
         class="cls-6"
         d="m 297.46543,230.04188 -17.35603,-40.84082 -2.91693,0.88648 -6.37142,-14.59572 11.70384,-3.45778 2.65016,6.85175 5.65043,-1.67495 -2.4182,-6.71665 11.92008,-2.74928 2.11905,6.99784 5.86786,-1.12998 -2.03101,-7.06624 11.95487,-2.08429 1.6367,7.11902 7.90865,-1.12014 0.68707,3.59806 2.93535,-0.37164 -0.60296,-3.58011 6.05871,-0.78847 0.61805,3.64147 2.96262,-0.29859 -0.44585,-3.67052 6.01918,-0.54966 0.50556,3.66765 5.85512,-0.44935 -1.06737,-10.85968 12.1288,-0.61977 0.39662,7.1451 5.78389,-0.0881 -0.10437,-7.21293 12.1787,5.9e-4 -0.18738,7.30047 5.88757,0.12058 0.42848,-7.26627 12.1004,0.53167 -1.10506,11.01389 5.85278,0.40528 0.50787,-3.62995 6.0006,0.55078 -0.47599,3.63573 3.02583,0.29628 0.54728,-3.5459 6.03832,0.64647 -0.57976,3.62354 2.99045,0.41512 0.72298,-3.62064 7.81939,1.15662 1.65756,-7.17699 11.93863,2.0837 -1.85178,7.19788 5.63539,1.10618 2.18338,-7.08538 11.89922,2.69538 -2.4762,6.99144 5.66958,1.54856 2.73942,-6.99563 11.7479,3.3505 -6.37102,14.59632 -5.02895,-1.6564 -17.67339,41.7281 c -48.81037,-14.04322 -106.73819,-14.10178 -153.87067,-5.9e-4"
         id="path36" />
      <path
         class="cls-7"
         d="m 370.52936,196.25806 v -12.94398 c 0,-5.17735 9.31458,-5.17735 9.31458,0 v 12.94398"
         id="path38" />
      <path
         class="cls-7"
         d="m 302.53029,205.05319 -4.0178,-12.50278 c -1.60652,-5.00053 7.38976,-7.01059 8.9975,-2.0095 l 4.01724,12.50278"
         id="path40" />
      <path
         class="cls-7"
         d="m 438.08891,202.56711 4.01724,-12.50218 c 1.6089,-5.00109 10.60403,-2.9916 8.9975,2.0089 l -4.01842,12.50278"
         id="path42" />
      <path
         class="cls-8"
         d="m 400.93139,210.50999 -0.53048,4.49844 m -104.93395,10.19529 c 51.09812,-14.97899 106.75265,-15.20219 158.02183,-0.63195 m -159.87536,-3.47111 c 52.24375,-15.33842 109.15699,-15.57555 161.58395,-0.67543 m -163.23573,-3.48732 c 53.39163,-15.65556 111.54856,-15.87133 165.1049,-0.61211 M 290.27392,213.12898 C 344.6466,197.17077 403.8743,196.9238 458.43654,212.4263 m -37.22361,0.46786 -0.93286,4.3906 m 27.68929,1.31839 -1.51027,4.10306 m -9.78192,-6.85081 -1.27779,4.16799 m -14.84276,-11.61958 -0.88473,4.32914 m 10.18832,-2.76318 -1.14275,4.15462 m 11.74969,-2.00253 -1.27421,4.14828 m 13.18514,-1.19491 -1.57696,4.10994 m -12.83732,-11.77864 -1.13635,3.78882 m 14.73083,-0.70734 -1.4703,3.96564 m -3.67689,-5.1762 -1.31378,3.82358 m -19.14403,-7.85009 -0.94269,3.93666 m -6.05169,-5.25737 -0.84878,4.13723 m -23.67495,2.04313 -0.39944,4.35118 m 15.99528,-2.97829 -0.71661,4.24681 m -18.34791,-10.30078 -0.30472,4.39635 m 8.30694,-3.95066 -0.46612,4.33842 m 14.0506,-2.78576 -0.74441,4.19113 m -2.22112,-8.78932 -0.63251,3.9569 m -7.4182,-4.68167 -0.49513,4.06596 m -11.91196,-5.1014 -0.25625,4.0584 m -74.87508,10.88694 1.24479,4.02942 m 70.24912,-10.46371 -0.2064,4.48801 m -79.3614,3.82417 1.45222,4.11406 m 46.06955,-11.75722 0.45799,4.40038 m 10.54373,-4.88514 0.23016,4.26421 m -24.23906,-2.58276 0.75081,4.35756 m 30.66696,-6.22327 0.0783,4.33089 m -47.34063,-0.0533 1.04357,4.29669 m -15.7541,-5.85444 1.36306,4.21206 m 9.05431,-6.36009 1.12358,4.16796 m 5.37042,-5.31012 0.98504,4.30596 m 8.47218,-5.73391 0.80356,4.25047 m 12.22392,-5.53567 0.54728,4.35871 m 9.68798,-5.13444 0.34147,4.46364 m 8.77777,-4.77382 0.1426,4.33322 m 12.69815,-4.59934 -0.1218,4.33148 m -81.38941,5.48851 1.5851,4.2005 m 77.54904,-18.0709 -0.0684,4.16565 m -9.1708,-4.05487 0.10668,4.00044 m -8.55278,-3.67055 0.26496,4.00506 m -15.97095,-2.79451 0.56874,4.0584 m -12.84307,-2.67389 0.77804,3.90765 m -9.35693,-2.64491 0.95953,3.98011 m -11.03305,-2.1208 1.11721,3.82417 m -16.12117,-0.60818 1.50684,4.07349 m 123.7272,-14.15678 4.65903,-21.62895 M 288.51024,208.656 c 55.61396,-16.29969 116.18845,-16.51824 171.9688,-0.62324 M 396.19582,180.4871 c 10.80865,0.67486 21.64456,1.86758 32.28919,3.57314 m -28.26562,-12.23669 -0.40003,3.35859 v 0 a 349.11305,349.11305 0 0 0 -48.10765,-0.008 v 0 l -0.42729,-3.42992 m -29.04363,12.32477 c 10.53966,-1.6906 21.50893,-2.87914 32.21033,-3.55862 m -33.57629,-1.85875 4.96689,21.5808 m 30.19857,-3.35728 -2.10922,-21.84753 m 42.55925,-0.044 -1.16996,21.90609 m -73.97648,-25.51574 1.51321,7.02392 v 0 c -15.63935,2.41187 -30.71396,7.16771 -45.66521,11.68995 m 151.31449,-18.83676 -1.46508,6.95503 c 16.03588,2.42111 31.67926,7.1277 46.9974,11.76471"
         id="path44" />
      <path
         class="cls-9"
         d="m 297.46543,230.04132 q -0.61212,39.21546 0,78.43376 c 0.36874,25.18757 1.60365,44.84297 12.6941,60.21271 13.35905,18.51268 35.61358,31.87292 64.24209,44.9995 28.6268,-13.12658 50.88305,-26.48682 64.24213,-44.9995 11.0887,-15.36974 12.32477,-35.0257 12.69351,-60.21271 q 0.57742,-39.21456 0,-78.43376 z"
         id="path46" />
      <path
         class="cls-10"
         d="m 449.19269,341.17299 c 0.051,-6.53633 1.41056,-9.64085 1.41118,-16.17621 0.6777,-13.11789 0.93804,-26.14534 0.73342,-39.21802 H 297.46543 c -0.20525,13.07268 0.0545,25.98376 0.73167,39.21802 0.002,6.5352 1.40071,9.64045 1.45,16.17621 z"
         id="path48"
         style="stroke-width:0.312305" />
      <path
         class="cls-11"
         d="M 297.24569,285.43613 H 451.557 m -152.00903,55.73686 h 149.64528"
         id="path50" />
      <path
         class="cls-12"
         d="m 355.2257,321.49382 18.68489,-7.6124 -7.6124,18.68544 8.30462,-5.53563 8.30525,5.53563 -7.61299,-18.68544 18.68544,7.6124 -5.53682,-8.30419 5.53682,-8.30462 -18.68544,7.6124 7.61299,-18.68489 -8.30525,5.53626 -8.30462,-5.53626 7.6124,18.68489 -18.68489,-7.6124 5.53626,8.30462 z"
         id="path52" />
      <g
         id="bird"
         transform="matrix(0.31230481,0,0,0.31230481,-0.3438476,-0.3438476)">
        <path
           class="cls-13"
           d="m 804.8967,1191.9851 c -0.64,72.5139 -1.281,75.0795 -1.281,75.0795 31.7616,31.1229 35.53,42.5233 44.9163,52.6223 12.1911,-17.6491 31.1211,-10.5909 31.1211,-10.5909 3.8521,-16.6819 24.0667,-31.1212 24.0667,-31.1212 -28.2343,-2.2444 -77.0046,-16.6874 -80.8548,-22.4609 -12.7871,-19.1806 4.8119,-77.322 4.8119,-77.322 z"
           id="path54" />
        <path
           class="cls-8"
           d="m 804.8967,1191.9851 c -0.64,72.5139 -1.281,75.0795 -1.281,75.0795 31.7616,31.1229 35.53,42.5233 44.9163,52.6223 12.1911,-17.6491 31.1211,-10.5909 31.1211,-10.5909 3.8521,-16.6819 24.0667,-31.1212 24.0667,-31.1212 -28.2343,-2.2444 -77.0046,-16.6874 -80.8548,-22.4609 -12.7871,-19.1806 4.8119,-77.322 4.8119,-77.322 z"
           id="path56" />
        <path
           class="cls-13"
           d="m 874.5424,1305.5632 -31.3087,-24.0463 37.2065,22.2307"
           id="path58" />
        <path
           class="cls-8"
           d="m 874.5424,1305.5632 -31.3087,-24.0463 37.2065,22.2307"
           id="path60" />
        <path
           class="cls-14"
           d="m 828.0722,1157.5948 c 0,0 39.2282,-16.0135 79.4328,12.1968 a 19.4947,19.4947 0 0 0 9.7036,0.2617 c 7.771,-8.3335 25.3977,-32.8309 39.0109,-29.6546 1.0025,-20.6991 -1.3626,-103.4549 -1.3626,-103.4549 -5.896,-0.23 -7.94,11.3427 -7.94,11.3427 3.4047,23.5934 -10.21,166.9819 -66.02,72.1445 l -39.4769,4.0841 z"
           id="path62" />
        <path
           class="cls-8"
           d="m 828.0722,1157.5948 c 0,0 39.2282,-16.0135 79.4328,12.1968 a 19.4947,19.4947 0 0 0 9.7036,0.2617 c 7.771,-8.3335 25.3977,-32.8309 39.0109,-29.6546 1.0025,-20.6991 -1.3626,-103.4549 -1.3626,-103.4549 -5.896,-0.23 -7.94,11.3427 -7.94,11.3427 3.4047,23.5934 -10.21,166.9819 -66.02,72.1445 l -39.4769,4.0841 z"
           id="path64" />
        <path
           class="cls-13"
           d="m 806.5916,825.92 c 33.69,12.1911 34.1118,18.6329 67.4755,48.15 26.63,10.5909 66.293,36.5568 68.5392,42.334 l -2.1608,8.4337 c 5.1348,3.2061 9.9838,-8.6212 9.9838,-8.6212 -5.133,-29.2 -98.903,-117.1461 -98.903,-117.1461 l -41.3036,8.6973 z"
           id="path66" />
        <path
           class="cls-8"
           d="m 806.5916,825.92 c 33.69,12.1911 34.1118,18.6329 67.4755,48.15 26.63,10.5909 66.293,36.5568 68.5392,42.334 l -2.1608,8.4337 c 5.1348,3.2061 9.9838,-8.6212 9.9838,-8.6212 -5.133,-29.2 -98.903,-117.1461 -98.903,-117.1461 l -41.3036,8.6973 z"
           id="path68" />
        <path
           class="cls-15"
           d="m 838.2659,812.8544 105.5583,96.8962 2.2481,7.0582"
           id="path70" />
        <path
           class="cls-15"
           d="m 861.3655,848.7893 c 10.589,18.6107 30.1632,25.3477 30.1632,25.3477"
           id="path72" />
        <path
           class="cls-16"
           d="m 818.727,787.9932 c -0.4529,-34.938 40.84,-58.0784 40.84,-61.2547 -4.0859,-24.904 -63.0739,34.4831 -66.2521,42.1985 -3.6461,11.2573 4.5389,24.9559 4.5389,24.9559"
           id="path74" />
        <path
           class="cls-15"
           d="m 830.0716,742.1636 c -12.2524,9.982 -22.2326,42.6532 -22.2326,42.6532"
           id="path76" />
        <path
           class="cls-16"
           d="m 799.6689,787.54 c -4.99,-33.579 20.4207,-62.6173 18.6052,-63.5251 -15.6144,-7.8062 -35.8495,33.5754 -41.7455,47.19 l 7.7134,46.2807"
           id="path78" />
        <path
           class="cls-15"
           d="m 791.5025,759.8609 c -6.3545,16.3347 0.453,38.5672 0.453,38.5672"
           id="path80" />
        <path
           class="cls-16"
           d="m 786.5106,805.2357 c -8.1683,-8.1665 -0.4548,-66.7 -2.7234,-66.7 -17.2425,0 -26.3148,56.2627 -22.6855,68.0622 11.7734,38.2683 21.3248,44.92 21.3248,44.92"
           id="path82" />
        <path
           class="cls-15"
           d="m 771.0837,785.2716 c -1.3627,17.2444 12.25,38.5692 12.25,38.5692"
           id="path84" />
        <path
           class="cls-16"
           d="m 782.4264,848.3419 c -21.7777,-20.4188 -25.5556,-75.2057 -28.5834,-80.7657 -23.3037,4.539 -11.3428,62.6173 -11.3428,62.6173 0.453,4.5371 30.8539,40.8376 30.8539,40.8376"
           id="path86" />
        <path
           class="cls-15"
           d="m 751.1178,803.8749 c -7.7135,15.4269 27.2245,61.2584 27.2245,61.2584"
           id="path88" />
        <path
           class="cls-12"
           d="m 809.6528,978.1117 c 0,0 -5.9,-78.95 4.0823,-90.7459 l -29.4912,-43.561 -38.1139,75.7738 34.4831,63.0721 z"
           id="path90" />
        <path
           class="cls-16"
           d="m 809.6528,978.1117 c 0,0 -5.9,-78.95 4.0823,-90.7459 l -29.4912,-43.561 -38.1139,75.7738 34.4831,63.0721 z"
           id="path92" />
        <path
           class="cls-16"
           d="m 781.8881,1150.1654 c 12.9319,16.5593 19.2511,53.9032 19.2511,53.9032 l 3.85,-12.1949 c 1.8155,1.1343 2.9164,10.5909 5.4541,10.5909 1.1343,0 0.9356,-9.7481 3.5291,-10.2716 1.1342,-0.2227 0.3824,13.4777 2.8886,13.4777 2.0421,0 2.2054,-9.7574 2.8867,-9.3063 1.604,1.0675 1.9214,12.9542 3.21,6.7389 -1.8137,-63.7516 123.1553,-115.9209 120.64,-187.38 3.1763,-73.9581 -76.3642,-102.0273 -125.1325,-164.2715 0,0 -13.7023,-40.8172 11.5489,-22.78 20.4207,-3.1763 18.6106,-23.4207 18.6106,-23.4207 h 11.23 c 4.9938,-43.5592 -38.8216,-33.3674 -38.8216,-33.3674 -40.6093,0 -44.2758,42.0295 -44.2758,42.0295 -10.4368,54.6792 60.4118,119.7952 60.4118,119.7952 10.435,22.6874 -0.0928,61.81 -0.0928,61.81 l -98.6022,92.8957"
           id="path94" />
        <path
           class="cls-16"
           d="m 739.6117,1087.678 c -5.4468,6.5811 -33.4213,39.7331 -40.227,51.3024 -9.6367,10.6243 9.0965,7.6355 9.0965,7.6355 0,0 -27.7016,29.2851 -41.157,37.8507 4.1306,12.3916 30.6979,-5.5581 30.6979,-5.5581 0,0 -25.8656,15.8817 -24.5011,19.058 7.8917,6.0223 30.852,-10.8879 30.852,-10.8879 0,0 -5.4839,7.7116 -0.9078,10.435 7.7153,0 25.4089,-14.0643 25.4089,-14.0643 0,0 -3.6293,8.1664 0.4548,9.5254 7.3774,-4.65 53.5449,-43.1081 53.5449,-43.1081"
           id="path96" />
        <path
           class="cls-15"
           d="m 757.4371,1068.0463 c 0,0 -13.797,18.2877 -4.4926,15.4009"
           id="path98" />
        <path
           class="cls-16"
           d="m 755.4953,1020.5775 c -11.23,21.8186 -25.563,57.7924 -9.9486,73.793 5.1349,1.6058 18.8334,-51.2523 29.519,-56.1477 1.604,-5.45 8.6621,-29.5153 8.6621,-29.5153"
           id="path100" />
        <path
           class="cls-12"
           d="m 772.8993,1018.0416 c 5.89,0 -11.7828,11.7994 -18.1522,28.1323"
           id="path102" />
        <path
           class="cls-16"
           d="m 777.6331,1022.1851 c -8.6621,40.7468 -0.64,49.4088 2.8886,49.7319 5.133,-2.5712 14.1181,-39.7907 24.3842,-42.0351"
           id="path104" />
        <path
           class="cls-16"
           d="m 733.6767,833.5239 c -35.933,-33.69 -40.7486,-72.189 -44.5988,-72.5139 -16.9585,-1.4109 5.7753,68.3444 5.7753,68.3444 l 42.993,34.329"
           id="path106" />
        <path
           class="cls-15"
           d="m 727.9774,841.9911 c 0,0 -17.2388,-13.16 -26.3167,-30.8557"
           id="path108" />
        <path
           class="cls-16"
           d="m 733.6767,857.91 c -53.2609,-29.519 -59.6786,-77.645 -64.1693,-76.0429 -16.4,6.477 4.4907,50.6971 4.4907,50.6971 2.8886,12.1912 45.2411,50.3723 45.2411,50.3723"
           id="path110" />
        <path
           class="cls-15"
           d="M 723.44,871.9371 A 191.0026,191.0026 0 0 1 682.6042,827.4683"
           id="path112" />
        <path
           class="cls-16"
           d="m 717.3141,879.4055 c -63.8481,-35.2907 -65.1327,-75.7218 -72.1908,-73.1525 -15.1633,41.0994 40.4255,79.89 79.57,109.0874"
           id="path114" />
        <path
           class="cls-15"
           d="m 720.7188,896.893 c 0,0 -29.0419,-10.4349 -47.1922,-38.1143"
           id="path116" />
        <path
           class="cls-16"
           d="M 723.4106,914.3769 C 667.9035,896.7315 641.1041,845 634.213,847.64 c -16.0414,6.0965 17.6472,49.4106 17.6472,49.4106 27.2709,25.3477 72.1909,43.9565 72.1909,43.9565"
           id="path118" />
        <path
           class="cls-15"
           d="m 724.8029,922.3038 c 0,0 -38.5691,-7.26 -59.4428,-28.589"
           id="path120" />
        <path
           class="cls-16"
           d="M 723.7318,937.7994 C 634.8572,909.242 631.3281,881.3306 622.9854,883.575 c -15.8261,12.0353 34.9732,51.9782 34.9732,51.9782 6.414,9.6237 71.2293,27.2727 71.2293,27.2727"
           id="path122" />
        <path
           class="cls-15"
           d="m 730.7008,942.27 c 0,0 -44.9218,0.9078 -63.978,-14.521"
           id="path124" />
        <path
           class="cls-16"
           d="m 727.9013,962.5066 c -85.0243,-17.97 -97.5367,-42.9949 -104.2773,-41.3891 -10.6262,14.4449 40.75,45.8779 40.75,45.8779 31.7635,18.2895 74.7565,20.8551 74.7565,20.8551"
           id="path126" />
        <path
           class="cls-15"
           d="m 737.5065,972.6668 c 0,0 -29.946,0.9079 -49.006,-9.5271"
           id="path128" />
        <path
           class="cls-16"
           d="m 725.3339,1018.3294 c -23.74,21.8185 -37.2158,62.5523 -25.0247,65.1346 6.737,0.3174 25.0247,-47.4893 51.657,-54.2226 l 17.003,-14.7623"
           id="path130" />
        <path
           class="cls-15"
           d="m 759.2861,1012.1437 c 5.8867,0 -30.8427,11.3465 -37.2084,27.6812"
           id="path132" />
        <path
           class="cls-16"
           d="m 712.8216,998.44 c -34.65,25.9881 -45.7368,56.7269 -40.7449,58.3939 7.6986,2.5674 38.5116,-29.4634 49.7318,-31.446 5.4542,-0.9616 37.86,-18.2858 37.86,-18.2858"
           id="path134" />
        <path
           class="cls-15"
           d="m 733.8772,1001.7069 c 5.8867,0 -24.0371,10.435 -30.4009,26.7752"
           id="path136" />
        <path
           class="cls-16"
           d="m 737.5287,987.21 c -37.86,4.4907 -104.2755,-35.9349 -105.5583,-32.4058 -16.4832,19.3087 54.8649,51.6569 70.5851,50.0511 l 55.8265,3.5291"
           id="path138" />
        <path
           class="cls-15"
           d="m 752.4786,998.0757 c 0,0 -45.8278,0.4567 -66.7015,-9.07"
           id="path140" />
        <path
           class="cls-16"
           d="m 856.3865,991.7268 c 0,0 0,-21.3267 -10.435,-22.2344 a 227.2959,227.2959 0 0 0 -49.9119,2.7234 c -60.1928,-35.9349 -13.0395,-82.0931 -21.3285,-98.01 -2.7215,-24.5011 -43.1043,-61.2565 -43.1043,-61.2565 -4.0842,3.633 0.8223,26.5042 -2.27,24.9578 -8.1664,-4.0823 -3.13,13.8954 -5.4449,18.6033 -7.7134,-2.7216 -7.318,8.9535 -5.4449,17.6954 -6.3526,0.91 -4.086,11.7976 -2.7233,19.5129 -12.4567,-6.852 3.77,19.4257 -0.4548,18.6014 -19.0563,-2.7233 2.7233,18.1522 2.7233,18.1522 -10.89,4.0841 -5.8032,12.1837 1.8175,15.4269 -9.5309,6.8056 0.2246,17.6713 3.6274,18.1521 -8.6212,4.5352 0.9728,11.094 5.8979,15.88 -7.7135,7.26 6.3527,10.3607 13.1621,13.1565 -5.4468,8.6213 0.956,10.4852 6.8038,13.1584 -3.6294,6.8057 5.3019,6.3008 10.8879,5.4486 -6.8038,7.2587 4.539,10.435 9.0761,9.5235 0,0 2.4208,9.42 10.4387,5.9016 -2.2667,7.2642 14.068,6.3545 14.068,6.3545 0,7.2661 24.0481,4.539 24.0481,4.539"
           id="path142" />
        <path
           class="cls-15"
           d="m 739.3035,868.4841 c 0,0 4.9919,13.1584 10.89,13.1584"
           id="path144" />
        <path
           class="cls-15"
           d="m 730.2478,837.4521 c 0,0 6.3509,22.2363 12.2506,22.2363"
           id="path146" />
        <path
           class="cls-15"
           d="m 724.8029,854.6946 c 0,0 1.8156,14.5191 7.7117,14.5191"
           id="path148" />
        <path
           class="cls-15"
           d="m 718.45,873.2979 c 0,0 4.9919,13.1583 10.8879,13.1583"
           id="path150" />
        <path
           class="cls-15"
           d="m 715.272,892.3541 c 0,0 5.4468,11.7976 11.3447,11.7976"
           id="path152" />
        <path
           class="cls-15"
           d="m 715.7269,911.4121 c 0,0 9.076,14.5192 14.972,14.5192"
           id="path154" />
        <path
           class="cls-15"
           d="m 717.5425,930.9251 c 0,0 9.5272,8.1682 15.4269,8.1682"
           id="path156" />
        <path
           class="cls-15"
           d="m 719.8091,946.35 c 0,0 9.5272,8.1683 15.427,8.1683"
           id="path158" />
        <path
           class="cls-15"
           d="m 722.08,963.14 c 0,0 14.0643,6.8057 19.964,6.8057"
           id="path160" />
        <path
           class="cls-15"
           d="m 728.43,979.0213 c 0,0 15.8817,1.3627 21.78,1.3627"
           id="path162" />
        <path
           class="cls-15"
           d="m 741.379,992.0479 c 0,0 13.3161,-0.5643 19.2121,-0.5643"
           id="path164" />
        <path
           class="cls-15"
           d="m 749.0813,1004.8832 c 0,0 11.391,-3.1336 18.5717,-0.5643"
           id="path166" />
        <path
           class="cls-15"
           d="m 759.6685,1012.2607 c 0,0 11.3873,-3.1355 18.5717,-0.5644"
           id="path168" />
        <path
           class="cls-15"
           d="m 768.0094,1020.9228 c 0,0 11.07,-1.5223 18.891,-4.7357"
           id="path170" />
        <path
           class="cls-15"
           d="m 779.2408,1026.7 c 0,0 4.6485,1.3589 12.4733,-1.8453"
           id="path172" />
        <path
           class="cls-15"
           d="m 792.7166,1032.4716 c 0,0 4.01,-0.2413 11.8348,-3.4455"
           id="path174" />
        <path
           class="cls-15"
           d="m 849.1539,805.451 c -9.3026,-17.6453 -18.9319,-15.72 -18.9319,-15.72 -4.81,0 -6.4158,3.2079 -11.87,3.2079 -6.7388,0 -5.133,-7.06 -5.133,-7.06"
           id="path176" />
        <path
           d="m 834.0741,790.0519 c -1.9251,8.3428 -8.0532,9.9616 -8.0532,9.9616 0,0 1.3292,7.9622 6.4492,8.3261 9.4028,1.6838 12.4733,-6.7741 8.02,-14.1181 -1.6,-1.9251 -6.4158,-4.17 -6.4158,-4.17"
           id="path178" />
        <path
           class="cls-1"
           d="m 839.907,799.6812 c 0.3044,1.0285 -1.2531,2.4691 -3.4808,3.2135 -2.2278,0.75 -4.2809,0.518 -4.5854,-0.5124 l -0.002,-0.006 c -0.3044,-1.03 1.255,-2.469 3.4808,-3.2153 2.23,-0.7444 4.2809,-0.5142 4.5873,0.5142 v 0.006"
           id="path180" />
        <path
           class="cls-16"
           d="m 711.4088,1145.56 c -2.95,4.7636 10.6652,6.03 14.2945,0.4529 0,7.7154 10.5167,8.0087 14.2927,4.3106 1.5872,4.992 8.9349,3.7185 13.6131,-0.9078 0.7946,2.1535 7.4517,6.77 9.9115,5.8849 4.8081,-1.7339 23.5952,-28.3179 27.6775,-30.5846 m -98.8938,57.874 c 0,0 21.5773,-21.0129 35.6917,-32.2406 m -28.3124,39.9406 c 0,0 28.3829,-26.2313 42.5011,-37.4609 m -15.2283,32.3279 c 0,0 18.8539,-19.4257 32.97,-30.6534 m -51.74,-8.443 c 0,0 21.0815,-25.1267 35.2,-36.3562 m -18.7481,37.0246 c 0,0 17.7215,-20.3335 37.9639,-34.7357 m -21.8074,37.7691 c 0,0 8.3521,-16.0173 33.813,-35.636 m -20.8811,35.4113 a 105.9072,105.9072 0 0 1 27.2115,-29.3891 m -28.3161,31.6391 c -14.4393,14.7586 -25.99,24.7072 -25.99,24.7072 m 5.1386,-23.4226 a 376.3859,376.3859 0 0 1 -29.196,26.63 m 15.076,-30.8019 c -14.4393,14.7587 -18.2876,16.0451 -18.2876,16.0451 m 32.4652,-66.5584 c -2.9518,4.7636 3.72,16.3013 17.9386,9.4418 -4.4925,11.8848 2.1739,8.6509 11.4078,4.3143 -2.5842,10.1212 8.9349,3.7129 13.6094,-0.91 0.7927,2.1553 1.034,7.4164 5.4189,7.8155 5.0922,0.4623 10.4387,-14.2035 14.5247,-16.4684 m -45.4286,5.4635 25.7839,-23.6342 m -39.503,24.8773 12.5513,-19.1008 m 12.7574,21.8018 L 776.3671,1095 m -2.0588,16.628 8.1534,-8.9275 m -33.0463,11.5469 c -3.21,3.531 -10.589,8.9851 -10.589,8.9851 m 24.3842,-5.4523 c -7.06,5.4542 -13.1528,11.2314 -13.1528,11.2314 m 35.6137,-5.7791 c -14.4393,14.7586 -11.23,10.9084 -11.23,10.9084 m 3.5272,-17.0049 a 128.487,128.487 0 0 0 -11.23,9.6256 m 25.667,-45.56 c -20.534,25.6688 8.9851,5.133 8.9851,5.133 m -35.4429,7.099 c 0,0 -12.0408,2.2054 1.7543,-14.4783 m 21.4974,-12.1912 -3.85,6.0965 m -0.6535,-175.0592 c -3.6293,10.435 6.3546,20.8737 6.3546,20.8737 m -14.068,-14.9739 c -3.6312,10.4349 13.1546,27.6775 13.1546,27.6775 m -16.3347,-9.9839 c -3.6274,10.4386 14.974,19.058 14.974,19.058 m -6.8038,7.2605 c 0.9078,7.7135 14.5191,5.8979 14.5191,5.8979 m -33.9392,-90.5695 a 112.991,112.991 0 0 0 5.456,20.8569 c -6.7388,6.737 -8.02,17.0031 -8.02,17.0031 m -20.6861,-32.417 c 0,0 4.9919,13.1584 10.89,13.1584 m -13.7759,3.2069 c 0,0 4.992,13.1583 10.89,13.1583 m -16.3439,0.6368 c 0,0 6.2747,8.6677 12.1726,8.6677 m -9.9282,8.6584 c 0,0 6.2765,8.6676 12.1763,8.6676 m -7.6837,9.62 a 67.166,67.166 0 0 0 12.8149,1.6076 m -8.6436,11.2259 a 44.6221,44.6221 0 0 0 7.3608,0.3249 m -0.3026,-90.8016 c 0,0 -0.7853,7.3849 5.1163,7.3849 m 1.76,110.2866 c 0,0 7.3737,-0.86 6.0742,-6.6108 m -16.9826,-3.6534 c 0,0 12.8279,-3.7481 11.534,-9.4993 m 15.4176,34.5221 c 0,0 2.2426,-14.974 0.9449,-20.7289 m 16.7023,32.6026 c 0,0 -2.2518,-19.7895 -6.7556,-22.3347 m 26.326,27.1447 c -4.81,-16.6818 -11.2332,-24.28 -15.7387,-25.8637 M 827.998,1004.77 A 36.574,36.574 0 0 0 805.84,980.1891 m 44.6155,25.2177 a 36.5454,36.5454 0 0 0 -22.1546,-24.5754 m 6.4436,46.8042 c -17.326,6.4158 -25.3458,22.1379 -25.3458,22.1379 M 811.4442,816.12 c -4.5389,0 -5.9,2.7215 -5.9,2.7215 M 796.47,842.89 c -1.9251,5.4542 4.14,12.9486 3.1763,11.3446 m -2.8774,-55.3252 c -4.4944,0 -4.8156,8.6621 -4.8156,8.6621 m 29.2016,66.4155 6.4158,8.3428 m -3.21,16.0414 6.7369,7.6986 m 21.4975,18.2895 8.0216,8.6639"
           id="path182" />
        <path
           d="m 893.8678,954.9509 c 0,0 3.813,10.5334 6.5328,11.4393 0,0 3.0927,1.04 5.1348,-0.3193 1.8583,-1.24 0,-3.8521 0,-3.8521 -2.4913,-3.6293 -11.6676,-7.2679 -11.6676,-7.2679 m -16.2345,5.2834 c 0,0 -0.6293,11.1831 1.52,13.086 0,0 2.4375,2.172 4.8472,1.719 2.1979,-0.41 1.5129,-3.542 1.5129,-3.542 -0.8725,-4.3181 -7.88,-11.263 -7.88,-11.263 m 11.1166,39.4751 c 0,0 -0.6275,11.1831 1.5222,13.0878 0,0 2.4375,2.1664 4.8472,1.719 2.1924,-0.4121 1.5111,-3.5439 1.5111,-3.5439 -0.8725,-4.318 -7.88,-11.2629 -7.88,-11.2629 m 27.4529,11.2091 -0.2414,0.5588 h -0.612 a 1.294,1.294 0 0 1 -0.9783,-0.4567 c -1.1807,-1.3385 -0.6665,-7.3589 -0.2154,-11.0959 -1.164,-1.5185 -3.8521,-5.2945 -3.4994,-7.318 a 1.7514,1.7514 0 0 1 0.7983,-1.2215 l 0.5885,-0.3676 0.52,0.46 c 0.6831,0.6052 6.6887,6 7.11,8.9573 0.2472,1.712 -2.595,8.4564 -3.4712,10.4836 z m -60.6588,32.7975 c -2.04,0 -3.8429,6.1633 -2.4988,8.7048 0,0 1.5149,2.8867 3.9319,3.3137 2.2,0.388 2.6621,-2.7847 2.6621,-2.7847 0.7,-4.35 -0.004,-9.2338 -4.0952,-9.2338 m -12.26,90.1537 c -0.8762,1.5241 -4.3849,3.6534 -5.0773,4.0637 l -0.5458,0.323 -0.5012,-0.3917 c -1.2494,-0.982 -0.5439,-3.5662 2.094,-7.6819 0.0112,-1.8378 0.1968,-6.6293 1.7544,-8.0327 a 1.7574,1.7574 0 0 1 1.383,-0.47 l 0.6906,0.072 0.1244,0.6813 c 0.1644,0.9006 1.5678,8.8499 0.0771,11.4362 z m -28.8117,8.3929 a 2.517,2.517 0 0 1 -2.3391,1.1751 6.0433,6.0433 0 0 1 -2.2111,-0.4623 l -0.2153,-0.1262 c -1.52,-1.19 -0.8131,-4.9325 -0.401,-6.6107 0.002,-1.7 0.15,-6.7482 1.7543,-8.1924 a 1.76,1.76 0 0 1 1.3812,-0.47 l 0.6479,0.069 0.1541,0.633 c 0.4633,1.8864 2.6985,11.4248 1.2282,13.9848 z m 23.8217,-43.7857 a 2.4839,2.4839 0 0 1 -2.3039,1.1825 6.4223,6.4223 0 0 1 -2.2425,-0.47 l -0.2191,-0.1263 c -1.5575,-1.2215 -0.78,-5.1089 -0.3731,-6.724 0.3267,-0.9411 1.9585,-5.2072 4.6986,-4.9176 l 0.7129,0.076 0.1077,0.7091 c 0.1142,0.7783 1.0981,7.6933 -0.3814,10.2702 z m 37.2139,-32.3 c 0,0 -4.52,10.2456 -3.1819,12.7833 0,0 1.5167,2.8924 3.9337,3.3156 2.2,0.388 2.66,-2.7846 2.66,-2.7846 0.7055,-4.3477 -3.4121,-13.3143 -3.4121,-13.3143 m -13.1732,26.469 c -6.72,2.2165 -8.1312,10.1843 -7.6337,13.0042 0,0 0.5569,3.2154 2.7234,4.3645 1.9753,1.0489 3.388,-1.83 3.388,-1.83 2.0049,-3.9246 6.2859,-11.9072 1.5223,-15.5383 m -36.295,-39.5754 c -4.5316,3.0557 -4.5464,5.7253 -4.5761,8.5934 0,0 -0.0409,3.26 1.88,4.79 1.7506,1.3867 7.7488,-1.1844 7.7488,-1.1844 2.6881,-3.4882 -4.8267,-3.5792 -5.0532,-12.1986 m 48.5493,-43.7857 c -4.5316,3.0557 -4.5446,2.5452 -4.5743,8.5879 0,0 1.5446,4.8527 3.47,6.3787 1.745,1.3885 3.6646,-2.9963 3.6646,-2.9963 2.69,-3.4845 1.2976,-10.8378 -2.56,-11.97 m 33.3637,24.2246 c -2.0421,0 -3.8428,6.1633 -2.5006,8.6992 0,0 1.5186,2.8886 3.9338,3.3156 2.2,0.39 2.6621,-2.7828 2.6621,-2.7828 0.698,-4.35 -0.006,-9.232 -4.0953,-9.232 m -14.068,17.4671 c -2.9165,9.4306 -6.336,12.2914 -4.9957,14.8291 0,0 3.3305,0.8447 5.7475,1.27 2.2,0.3917 2.6584,-2.7791 2.6584,-2.7791 0.7073,-4.3514 -2.7308,-3.1113 -3.41,-13.32 m -79.4087,109.8522 c -2.0421,0 -3.8428,6.1615 -2.5006,8.6992 0,0 1.5149,2.8868 3.9337,3.3138 2.2,0.388 2.6585,-2.7828 2.6585,-2.7828 0.7054,-4.346 -0.002,-9.23 -4.0916,-9.23"
           id="path184" />
      </g>
      <use
         xlink:href="#bird"
         transform="matrix(-1,0,0,1,748.84385,0)"
         id="use187"
         x="0"
         y="0"
         width="100%"
         height="100%" />
      <g
         id="elm2"
         transform="matrix(0.31230481,0,0,0.31230481,-0.3438476,-0.3438476)">
        <path
           class="cls-6"
           d="m 1187.6084,851.9712 c 0.5736,-5.534 0.2673,-15.9727 -2.5545,-20.7158 -0.9542,-1.6 -3.29,-3.47 -5.1145,-3.39 -1.7933,0.08 -4.266,0.6238 -5.1107,2.2574 a 14.6066,14.6066 0 0 0 -1.0953,6.4047 c 0.2544,2.3465 2.9183,7.1547 2.9183,7.1547 0,0 -9.5457,-1.9753 -12.78,-4.5186 -3.195,-2.5173 -6.6479,-7.2865 -7.6671,-11.3019 a 19.0916,19.0916 0 0 1 0.01,-11.17 25.4743,25.4743 0 0 1 6.34,-9.3156 c 6.0817,-5.4 17.8885,-3.8316 20.3075,-2.4895 3.1912,1.7766 7.0841,5.5526 8.3947,9.0408 a 125.5014,125.5014 0 0 1 3.6517,13.5612 110.1492,110.1492 0 0 1 1.8248,13.9344 c 0.3175,4.0562 1.1974,7.6967 0.3639,11.6769 -0.4474,2.1441 -1.0043,7.0618 -2.22,10.3013 a 14.6546,14.6546 0 0 1 -4.7172,6.2728 c -3.3044,2.9425 -13.873,4.52 -13.873,4.52 0,0 5.8069,-7.5612 7.3013,-10.9232 1.78,-3.9968 3.5717,-6.9281 4.021,-11.3"
           id="path189" />
        <path
           class="cls-6"
           d="m 1213.5,851.9712 c -0.5718,-5.534 -0.2673,-15.9727 2.5545,-20.7158 0.9542,-1.6 3.2933,-3.47 5.1145,-3.39 1.7933,0.08 4.2623,0.6238 5.1107,2.2574 a 14.5265,14.5265 0 0 1 1.0953,6.4047 c -0.2581,2.3465 -2.922,7.1547 -2.922,7.1547 0,0 9.5494,-1.9753 12.7833,-4.5186 3.1949,-2.5173 6.6442,-7.2865 7.6652,-11.3019 a 19.0916,19.0916 0 0 0 -0.01,-11.17 25.5385,25.5385 0 0 0 -6.3379,-9.3156 c -6.0835,-5.4 -17.8941,-3.8316 -20.3093,-2.4895 -3.1949,1.7766 -7.0878,5.5526 -8.3984,9.0408 a 125.8945,125.8945 0 0 0 -3.6516,13.5612 110.4783,110.4783 0 0 0 -1.8249,13.9344 c -0.3212,4.0562 -1.1993,7.6967 -0.3657,11.6769 0.4511,2.1441 1.01,7.0618 2.2221,10.3013 a 14.6258,14.6258 0 0 0 4.7172,6.2728 c 3.3025,2.9425 13.8749,4.52 13.8749,4.52 0,0 -5.8088,-7.5612 -7.3032,-10.9232 -1.7728,-3.9968 -3.5624,-6.9281 -4.0154,-11.3"
           id="path191" />
        <path
           class="cls-6"
           d="m 1200.4882,893.0818 c 0,0 8.5285,-7.2159 9.943,-15.3823 1.268,-7.3478 -4.3848,-15.9486 -4.8155,-19.409 -1.71,-13.8378 1.9195,-32.2721 2.2462,-33.7777 a 40.2258,40.2258 0 0 1 3.8076,-10.5074 68.0177,68.0177 0 0 1 4.2122,-6.9337 c 1.0285,-1.5613 3.3174,-4.4666 4.4851,-7.4238 a 22.5567,22.5567 0 0 0 1.3385,-8.0217 24.0794,24.0794 0 0 0 -1.2494,-7.7246 16.4663,16.4663 0 0 0 -6.3656,-8.0253 c -3.6089,-2.276 -6.5254,-4.1045 -7.6374,-4.8285 -3.6664,-2.393 -5.9239,-10.2624 -5.9684,-10.2624 -0.044,0 -2.3019,7.8676 -5.9684,10.2624 -1.11,0.724 -3.8948,2.5525 -7.5055,4.8285 a 16.437,16.437 0 0 0 -6.362,8.0253 23.9285,23.9285 0 0 0 -1.2457,7.7246 22.4343,22.4343 0 0 0 1.3385,8.0217 c 1.1659,2.9554 3.4548,5.8588 4.4851,7.4238 a 67.2536,67.2536 0 0 1 4.21,6.9337 40.1545,40.1545 0 0 1 3.8075,10.5074 c 0.3268,1.5056 3.9579,19.94 2.2445,33.7777 -0.4288,3.46 -6.2153,12.0612 -4.9455,19.409 1.4146,8.1645 9.9448,15.3823 9.9448,15.3823"
           id="path193" />
        <path
           class="cls-6"
           d="m 1219.654,848.6946 -4.1083,-5.8663 h -29.972 l -4.1175,5.8663 4.1175,5.8366 h 29.9739 z"
           id="path195" />
      </g>
      <use
         xlink:href="#elm2"
         transform="translate(-50.437227)"
         id="use198"
         x="0"
         y="0"
         width="100%"
         height="100%" />
      <use
         xlink:href="#elm2"
         transform="translate(50.437227)"
         id="use200"
         x="0"
         y="0"
         width="100%"
         height="100%" />
      <g
         id="elm3"
         transform="matrix(0.31230481,0,0,0.31230481,-0.3438476,-0.3438476)">
        <path
           class="cls-17"
           d="m 1155.262,1268.7744 h 90.378 v 21.154 h -90.378 z m 0,-4.6021 c -0.15,-19.8656 -2.9443,-40.3476 -11.417,-57.7906 a 11.5727,11.5727 0 0 1 13.9919,15.5383 11.57,11.57 0 1 1 4.89,22.0581 11.7827,11.7827 0 0 1 -2.4171,-0.2562 c 0.867,7.8063 4.8732,13.7208 9.6832,13.7208 3.7128,0 6.943,-3.5216 8.6268,-8.7178 1.68,5.1962 4.9158,8.7178 8.6268,8.7178 5.17,0 9.41,-6.8335 9.8223,-15.5122 a 11.5663,11.5663 0 1 1 -6.6478,-21.0909 11.5692,11.5692 0 1 1 20.068,0 11.5694,11.5694 0 1 1 -6.6479,21.0909 c 0.41,8.6787 4.6522,15.5122 9.8261,15.5122 3.7128,0 6.9449,-3.5216 8.6268,-8.7178 1.6819,5.1962 4.9121,8.7178 8.625,8.7178 4.8136,0 8.8161,-5.9145 9.6868,-13.7208 a 11.8194,11.8194 0 0 1 -2.4208,0.2562 11.5693,11.5693 0 1 1 4.89,-22.0581 11.5743,11.5743 0 0 1 13.9938,-15.5383 c -8.4746,17.443 -11.2667,37.9249 -11.4189,57.7906 z"
           id="path202" />
        <path
           class="cls-18"
           d="m 1203.1077,1232.355 12.3155,-1.9307 -12.9393,-2.0328 -2.0328,-12.9374 -2.0253,12.9374 -12.9412,2.0328 12.3174,1.9307 z"
           id="path204" />
        <path
           class="cls-18"
           d="m 1154.8517,1272.2552 a 1.819,1.819 0 0 1 1.3032,0.5365 1.8564,1.8564 0 0 1 0.4177,0.65 l 2.133,4.6893 a 1.84,1.84 0 0 1 0,1.5111 v 0 l -2.1776,4.7878 a 1.8359,1.8359 0 0 1 -1.6782,1.08 v -13.2549 z"
           id="path206" />
        <path
           class="cls-18"
           d="m 1155.9154,1235.6167 11.8087,-3.9932 -13.0952,0.1912 -4.1955,-12.4028 3.1485,15.5959 z"
           id="path208" />
        <path
           class="cls-18"
           d="m 1152.585,1229.5183 h 0.1244 c 0.1169,0.01 0.2134,0.019 0.2933,0.026 a 1.3017,1.3017 0 0 1 0.6516,0.2618 l 0.01,0.01 0.01,0.01 a 6.79,6.79 0 0 1 0.62,0.5124 l 0.063,0.071 a 5.6339,5.6339 0 0 1 0.531,0.5588 l 0.063,0.078 a 6.6372,6.6372 0 0 1 1.4536,4.149 h 0.01 v 0.017 h -0.01 a 6.4326,6.4326 0 0 1 -0.2247,1.7079 l -0.017,0.056 -0.056,0.1856 c -0.011,0.037 -0.024,0.071 -0.035,0.104 l -0.01,0.015 -0.01,0.017 a 6.52,6.52 0 0 1 -0.5161,1.1658 1.2916,1.2916 0 0 1 -0.4679,0.4752 v 0 l -0.011,0.01 h -0.01 l -0.01,0.01 c -0.085,0.048 -0.1856,0.1059 -0.3063,0.1708 l -0.2413,0.117 c -0.596,-3.2785 -1.3125,-6.5235 -2.1535,-9.7128 l 0.078,-0.01 v 0 h 0.01 a 1.4546,1.4546 0 0 1 0.156,0.01 z"
           id="path210" />
        <path
           class="cls-19"
           d="m 1191.8336,1279.0757 8.1033,-4.7878 8.1033,4.7878 -8.1033,4.7877 z"
           id="path212" />
        <path
           class="cls-20"
           d="m 1191.8336,1279.0757 8.1033,-4.7878 8.1033,4.7878 -8.1033,4.7877 z"
           id="path214" />
        <path
           class="cls-19"
           d="m 1191.8336,1279.0757 8.1033,-4.7878 8.1033,4.7878 -8.1033,4.7877 z"
           id="path216" />
        <path
           class="cls-21"
           d="m 1208.04,1279.0757 -7.9622,4.7041 -0.1411,0.084 v -4.7877 z"
           id="path218" />
        <path
           class="cls-22"
           d="m 1199.9369,1279.0757 v 4.7877 l -8.1052,-4.7877 z"
           id="path220" />
        <path
           class="cls-23"
           d="m 1199.9369,1274.2824 v 4.7915 h 8.1033 l -0.1912,-0.1133 -7.3329,-4.3329 z"
           id="path222" />
        <path
           class="cls-24"
           d="m 1150.478,1278.9067 4.784,-4.7859 2.1794,4.7859 -2.1794,4.7878 z"
           id="path224" />
        <path
           class="cls-25"
           d="m 1150.478,1278.9067 h 6.9634 l -2.1794,4.7878 z"
           id="path226" />
        <path
           class="cls-26"
           d="m 1152.4309,1230.81 a 3.2589,3.2589 0 0 1 0.4252,0.026 5.3314,5.3314 0 0 1 1.5538,6.98 3.7836,3.7836 0 1 1 -1.979,-7.0062"
           id="path228" />
        <path
           class="cls-27"
           d="m 1152.4309,1230.81 a 3.2589,3.2589 0 0 1 0.4252,0.026 5.3314,5.3314 0 0 1 1.5538,6.98 3.7836,3.7836 0 1 1 -1.979,-7.0062 z"
           id="path230" />
        <path
           class="cls-1"
           d="m 1150.6172,1232.3123 a 1.8082,1.8082 0 1 1 -1.8082,1.8081 1.81,1.81 0 0 1 1.8082,-1.8081"
           id="path232" />
        <path
           class="cls-18"
           d="m 1244.9905,1235.6167 -11.8069,-3.9932 13.09,0.1912 4.1955,-12.4028 -3.1466,15.5959 z"
           id="path234" />
        <path
           class="cls-18"
           d="m 1248.3247,1229.5183 h -0.13 c -0.1114,0.01 -0.2117,0.019 -0.29,0.026 a 1.2879,1.2879 0 0 0 -0.65,0.2618 l -0.01,0.01 -0.01,0.01 a 6.788,6.788 0 0 0 -0.62,0.5124 l -0.069,0.071 a 5.561,5.561 0 0 0 -0.5272,0.5588 l -0.063,0.078 a 6.6291,6.6291 0 0 0 -1.4573,4.149 v 0 0.017 0 a 6.5061,6.5061 0 0 0 0.23,1.7079 l 0.02,0.056 0.052,0.1856 a 0.84,0.84 0 0 0 0.035,0.104 l 0.01,0.015 0.01,0.017 a 6.4,6.4 0 0 0 0.5179,1.1658 1.2725,1.2725 0 0 0 0.466,0.4752 l 0.01,0.01 h 0.011 l 0.01,0.01 c 0.085,0.048 0.1857,0.1059 0.3063,0.1708 l 0.24,0.117 c 0.6,-3.2785 1.3106,-6.5235 2.1553,-9.7128 l -0.078,-0.01 v 0 h -0.011 a 1.5,1.5 0 0 0 -0.1559,0.01 z"
           id="path236" />
        <path
           class="cls-26"
           d="m 1248.4806,1230.81 a 3.2646,3.2646 0 0 0 -0.4307,0.026 5.3429,5.3429 0 0 0 -1.5538,6.98 3.7832,3.7832 0 1 0 1.9845,-7.0062"
           id="path238" />
        <path
           class="cls-27"
           d="m 1248.4806,1230.81 a 3.2646,3.2646 0 0 0 -0.4307,0.026 5.3429,5.3429 0 0 0 -1.5538,6.98 3.7832,3.7832 0 1 0 1.9845,-7.0062 z"
           id="path240" />
        <path
           class="cls-1"
           d="m 1249.1452,1231.5976 a 1.8054,1.8054 0 1 0 1.8081,1.8063 1.8076,1.8076 0 0 0 -1.8081,-1.8063"
           id="path242" />
        <path
           class="cls-18"
           d="m 1246.0561,1272.2552 a 1.8339,1.8339 0 0 0 -1.307,0.5365 1.8836,1.8836 0 0 0 -0.4177,0.65 l -2.133,4.6893 a 1.8332,1.8332 0 0 0 0.01,1.5111 h -0.01 l 2.1776,4.7878 a 1.8386,1.8386 0 0 0 1.68,1.08 z"
           id="path244" />
        <path
           class="cls-23"
           d="m 1250.43,1278.9067 -4.7878,-4.7859 -2.1795,4.7859 2.1795,4.7878 z"
           id="path246" />
        <path
           class="cls-21"
           d="m 1250.43,1278.9067 h -6.9672 l 2.1795,4.7878 z"
           id="path248" />
        <circle
           class="cls-28"
           cx="1200.4567"
           cy="1230.4447"
           r="4.2456002"
           id="circle250" />
        <circle
           class="cls-1"
           cx="1199.6937"
           cy="1229.134"
           r="1.8099999"
           id="circle252" />
        <circle
           class="cls-28"
           cx="1179.2618"
           cy="1274.8468"
           r="3.0964999"
           id="circle254" />
        <circle
           class="cls-1"
           cx="1178.731"
           cy="1273.9353"
           r="1.2568001"
           id="circle256" />
        <circle
           class="cls-28"
           cx="1179.2618"
           cy="1283.856"
           r="3.0964999"
           id="circle258" />
        <circle
           class="cls-1"
           cx="1178.731"
           cy="1282.9426"
           r="1.2568001"
           id="circle260" />
        <circle
           class="cls-28"
           cx="1222.1101"
           cy="1274.8468"
           r="3.0964999"
           id="circle262" />
        <circle
           class="cls-1"
           cx="1221.5791"
           cy="1273.9353"
           r="1.2568001"
           id="circle264" />
        <circle
           class="cls-28"
           cx="1222.1101"
           cy="1283.856"
           r="3.0964999"
           id="circle266" />
        <circle
           class="cls-1"
           cx="1221.5791"
           cy="1282.9426"
           r="1.2568001"
           id="circle268" />
      </g>
      <use
         xlink:href="#elm3"
         transform="translate(-28.482199,-31.948782)"
         id="use271"
         x="0"
         y="0"
         width="100%"
         height="100%" />
      <use
         xlink:href="#elm3"
         transform="translate(28.482199,-31.948782)"
         id="use273"
         x="0"
         y="0"
         width="100%"
         height="100%" />
      <g
         id="text_OUANALAO"
         transform="matrix(0.31230481,0,0,0.31230481,-0.3438476,-0.3438476)">
        <path
           d="m 1037.7123,1348.7656 a 16.283,16.283 0 0 1 12.1131,5.3085 18.3271,18.3271 0 0 1 5.1232,13.2517 18.8741,18.8741 0 0 1 -5.1629,13.5826 17.2585,17.2585 0 0 1 -24.9544,0.1323 q -5.0438,-5.2688 -5.0438,-13.6355 a 18.1644,18.1644 0 0 1 5.8249,-13.9532 17.1833,17.1833 0 0 1 12.1,-4.6864 z m -0.5031,1.9328 a 9.4727,9.4727 0 0 0 -7.7312,3.5744 q -3.6273,4.4481 -3.6273,13.0265 0,8.79 3.76,13.53 a 9.29,9.29 0 0 0 7.6253,3.6009 10.42,10.42 0 0 0 8.3534,-3.9451 q 3.2964,-3.945 3.2964,-12.4441 0,-9.2137 -3.6274,-13.7414 a 9.783,9.783 0 0 0 -8.0489,-3.6008 z"
           id="path275" />
        <path
           d="m 1090.6978,1347.8758 v -0.98 h 12.7089 v 0.98 h -1.35 a 3.6469,3.6469 0 0 0 -3.2567,1.774 q -0.556,0.8208 -0.556,3.8127 v 14.5621 a 25.7375,25.7375 0 0 1 -1.0723,8.38 10.52,10.52 0 0 1 -4.21,5.11 q -3.1376,2.1315 -8.5388,2.1314 -5.8777,0 -8.9226,-2.0387 a 11.04,11.04 0 0 1 -4.3158,-5.4807 q -0.8472,-2.3564 -0.8472,-8.8432 v -14.0327 q 0,-3.31 -0.9135,-4.3422 a 3.7578,3.7578 0 0 0 -2.9521,-1.0326 h -1.35 v -0.98 h 15.5153 v 0.98 h -1.377 a 3.56,3.56 0 0 0 -3.1773,1.4033 q -0.6618,0.9533 -0.6619,3.9715 v 15.6478 a 34.4916,34.4916 0 0 0 0.3839,4.7923 10.2,10.2 0 0 0 1.39,4.21 7.561,7.561 0 0 0 2.8992,2.4888 10.0215,10.0215 0 0 0 4.6466,0.98 12.8116,12.8116 0 0 0 6.3015,-1.5356 8.2287,8.2287 0 0 0 3.7994,-3.9318 q 1.0194,-2.3961 1.0194,-8.1151 v -14.5358 q 0,-3.3626 -0.7414,-4.21 a 3.89,3.89 0 0 0 -3.0713,-1.165 z"
           id="path277" />
        <path
           d="m 1136.4817,1369.3458 h -13.9 l -2.4359,5.666 a 8.9706,8.9706 0 0 0 -0.9,3.1242 1.8149,1.8149 0 0 0 0.7811,1.443 6.8244,6.8244 0 0 0 3.3758,0.8076 v 0.98 h -11.3056 v -0.98 a 6.0923,6.0923 0 0 0 2.9124,-1.0326 16.2187,16.2187 0 0 0 2.9919,-5.163 l 12.6294,-29.5481 h 0.9267 l 12.497,29.8658 a 13.6144,13.6144 0 0 0 2.74,4.6732 5.5868,5.5868 0 0 0 3.4287,1.2047 v 0.98 h -14.165 v -0.98 a 5.31,5.31 0 0 0 2.8992,-0.7149 1.844,1.844 0 0 0 0.7546,-1.4827 10.9815,10.9815 0 0 0 -1.0591,-3.68 z m -0.7417,-1.9593 -6.09,-14.5093 -6.2485,14.5093 z"
           id="path279" />
        <path
           d="m 1158.5027,1343.6288 h 9.7434 l 21.9492,26.9268 v -20.7048 q 0,-3.3094 -0.7413,-4.13 a 3.925,3.925 0 0 0 -3.0978,-1.1121 h -1.2444 v -0.98 h 12.4971 v 0.98 h -1.2709 a 3.6477,3.6477 0 0 0 -3.23,1.3768 q -0.5826,0.8473 -0.5825,3.8656 v 30.263 h -0.9532 l -23.67,-28.9127 v 22.1082 q 0,3.3095 0.7149,4.13 a 3.9753,3.9753 0 0 0 3.0978,1.1121 h 1.2709 v 0.98 h -12.4971 v -0.98 h 1.2444 a 3.6782,3.6782 0 0 0 3.2567,-1.3768 q 0.5825,-0.8474 0.5825,-3.8656 v -24.9676 a 16.3646,16.3646 0 0 0 -2.37,-2.4094 8.7037,8.7037 0 0 0 -2.37,-1.0856 8.4457,8.4457 0 0 0 -2.33,-0.2383 z"
           id="path281" />
        <path
           d="m 1230.2735,1368.2125 h -13.9 l -2.4359,5.666 a 8.9717,8.9717 0 0 0 -0.9,3.1242 1.8149,1.8149 0 0 0 0.7811,1.443 6.8233,6.8233 0 0 0 3.3758,0.8076 v 0.98 h -11.3056 v -0.98 a 6.0937,6.0937 0 0 0 2.9125,-1.0326 16.22,16.22 0 0 0 2.9918,-5.163 l 12.6294,-29.548 h 0.9267 l 12.497,29.8657 a 13.6134,13.6134 0 0 0 2.74,4.6732 5.5859,5.5859 0 0 0 3.4287,1.2047 v 0.98 h -14.165 v -0.98 a 5.31,5.31 0 0 0 2.8992,-0.7149 1.8436,1.8436 0 0 0 0.7545,-1.4827 10.9788,10.9788 0 0 0 -1.059,-3.68 z m -0.7414,-1.9593 -6.09,-14.5093 -6.2485,14.5093 z"
           id="path283" />
        <path
           d="m 1286.41,1371.027 0.8737,0.1853 -3.0713,9.7435 h -27.8006 v -0.98 h 1.35 a 3.61,3.61 0 0 0 3.2566,-1.4828 q 0.5561,-0.8472 0.5561,-3.9185 v -23.1672 q 0,-3.3624 -0.7414,-4.21 a 3.89,3.89 0 0 0 -3.0713,-1.165 h -1.35 v -0.98 h 16.2567 v 0.98 a 9.9193,9.9193 0 0 0 -4.0112,0.53 3.2378,3.2378 0 0 0 -1.5754,1.4033 11.5528,11.5528 0 0 0 -0.4236,4.0509 v 22.5582 a 7.3392,7.3392 0 0 0 0.4236,3.0183 1.892,1.892 0 0 0 0.98,0.8208 17.1866,17.1866 0 0 0 4.13,0.2648 h 2.6211 a 18.99,18.99 0 0 0 5.7984,-0.609 7.5513,7.5513 0 0 0 3.0449,-2.1578 17.688,17.688 0 0 0 2.7536,-4.885 z"
           id="path285" />
        <path
           d="m 1324.0653,1371.6123 h -13.9 l -2.4359,5.666 a 8.9684,8.9684 0 0 0 -0.9,3.1242 1.8146,1.8146 0 0 0 0.7811,1.443 6.8228,6.8228 0 0 0 3.3757,0.8076 v 0.98 H 1299.68 v -0.98 a 6.0928,6.0928 0 0 0 2.9124,-1.0326 16.2206,16.2206 0 0 0 2.9919,-5.163 l 12.6294,-29.5481 h 0.9267 l 12.497,29.8658 a 13.6134,13.6134 0 0 0 2.74,4.6732 5.5865,5.5865 0 0 0 3.4287,1.2047 v 0.98 h -14.1651 v -0.98 a 5.31,5.31 0 0 0 2.8992,-0.7149 1.8434,1.8434 0 0 0 0.7546,-1.4827 10.9782,10.9782 0 0 0 -1.059,-3.68 z m -0.7414,-1.9593 -6.09,-14.5093 -6.2486,14.5093 z"
           id="path287" />
        <path
           d="m 1365.9835,1348.7656 a 16.283,16.283 0 0 1 12.1131,5.3085 18.3272,18.3272 0 0 1 5.1233,13.2517 18.8738,18.8738 0 0 1 -5.163,13.5826 17.2584,17.2584 0 0 1 -24.9543,0.1323 q -5.0439,-5.2688 -5.0438,-13.6355 a 18.1644,18.1644 0 0 1 5.8249,-13.9532 17.183,17.183 0 0 1 12.1,-4.6864 z m -0.503,1.9328 a 9.4727,9.4727 0 0 0 -7.7312,3.5744 q -3.6274,4.4481 -3.6273,13.0265 0,8.79 3.76,13.53 a 9.29,9.29 0 0 0 7.6254,3.6009 10.42,10.42 0 0 0 8.3534,-3.9451 q 3.2962,-3.945 3.2963,-12.4441 0,-9.2137 -3.6273,-13.7414 a 9.783,9.783 0 0 0 -8.0489,-3.6008 z"
           id="path289" />
      </g>
    </g>
  </g>
</svg>
