<?xml version="1.0" encoding="UTF-8" standalone="no"?>
<svg
   xmlns:dc="http://purl.org/dc/elements/1.1/"
   xmlns:cc="http://creativecommons.org/ns#"
   xmlns:rdf="http://www.w3.org/1999/02/22-rdf-syntax-ns#"
   xmlns:svg="http://www.w3.org/2000/svg"
   xmlns="http://www.w3.org/2000/svg"
   xmlns:xlink="http://www.w3.org/1999/xlink"
   xmlns:sodipodi="http://sodipodi.sourceforge.net/DTD/sodipodi-0.dtd"
   xmlns:inkscape="http://www.inkscape.org/namespaces/inkscape"
   width="875"
   height="500"
   version="1.1"
   id="svg27"
   sodipodi:docname="Singapore.svg"
   inkscape:version="1.0.2 (e86c8708, 2021-01-15)">
  <metadata
     id="metadata33">
    <rdf:RDF>
      <cc:Work
         rdf:about="">
        <dc:format>image/svg+xml</dc:format>
        <dc:type
           rdf:resource="http://purl.org/dc/dcmitype/StillImage" />
      </cc:Work>
    </rdf:RDF>
  </metadata>
  <defs
     id="defs31" />
  <sodipodi:namedview
     pagecolor="#ffffff"
     bordercolor="#666666"
     borderopacity="1"
     objecttolerance="10"
     gridtolerance="10"
     guidetolerance="10"
     inkscape:pageopacity="0"
     inkscape:pageshadow="2"
     inkscape:window-width="1344"
     inkscape:window-height="729"
     id="namedview29"
     showgrid="false"
     inkscape:zoom="0.75631808"
     inkscape:cx="630.18531"
     inkscape:cy="363.82481"
     inkscape:window-x="0"
     inkscape:window-y="25"
     inkscape:window-maximized="1"
     inkscape:current-layer="svg27" />
  <rect
     fill="#ed2939"
     width="875"
     height="500"
     id="rect10"
     x="0"
     y="0"
     style="stroke-width:0.187521" />
  <rect
     fill="#ffffff"
     y="250"
     width="875"
     height="250"
     id="rect12"
     x="0"
     style="stroke-width:0.187521" />
  <g
     id="g42">
    <path
       fill="#ffffff"
       d="m 257.23576,125 a 94.010418,94.010418 0 1 1 -188.020833,0 94.010418,94.010418 0 1 1 188.020833,0 z"
       id="path14"
       style="stroke-width:0.173611" />
    <path
       fill="#ed2939"
       d="m 286.77691,125 a 88.842885,88.842885 0 1 1 -177.68577,0 88.842885,88.842885 0 1 1 177.68577,0 z"
       id="path16"
       style="stroke-width:0.173611" />
    <path
       fill="#ffffff"
       id="star"
       d="m 174.86026,127.26812 -12.77091,-9.7969 -12.76769,9.80155 4.91547,-15.79762 -12.81153,-9.73812 15.80884,0.0335 4.84974,-15.820036 4.85494,15.818286 15.80883,-0.0392 -12.80833,9.74277 z"
       style="stroke-width:0.173611" />
    <use
       xlink:href="#star"
       transform="translate(100.20634)"
       id="use19"
       x="0"
       y="0"
       width="100%"
       height="100%" />
    <use
       xlink:href="#star"
       transform="translate(50.154259,-37.189439)"
       id="use21"
       x="0"
       y="0"
       width="100%"
       height="100%" />
    <use
       xlink:href="#star"
       transform="translate(18.749918,59.505005)"
       id="use23"
       x="0"
       y="0"
       width="100%"
       height="100%" />
    <use
       xlink:href="#star"
       transform="translate(81.456342,59.505005)"
       id="use25"
       x="0"
       y="0"
       width="100%"
       height="100%" />
  </g>
</svg>
