<?xml version="1.0" encoding="UTF-8" standalone="no"?>
<svg
   xmlns:dc="http://purl.org/dc/elements/1.1/"
   xmlns:cc="http://creativecommons.org/ns#"
   xmlns:rdf="http://www.w3.org/1999/02/22-rdf-syntax-ns#"
   xmlns:svg="http://www.w3.org/2000/svg"
   xmlns="http://www.w3.org/2000/svg"
   xmlns:xlink="http://www.w3.org/1999/xlink"
   xmlns:sodipodi="http://sodipodi.sourceforge.net/DTD/sodipodi-0.dtd"
   xmlns:inkscape="http://www.inkscape.org/namespaces/inkscape"
   height="500"
   viewBox="0 0 8.75 5"
   width="875"
   version="1.1"
   id="svg34"
   sodipodi:docname="Slovenia.svg"
   inkscape:version="1.0.2 (e86c8708, 2021-01-15)">
  <metadata
     id="metadata40">
    <rdf:RDF>
      <cc:Work
         rdf:about="">
        <dc:format>image/svg+xml</dc:format>
        <dc:type
           rdf:resource="http://purl.org/dc/dcmitype/StillImage" />
      </cc:Work>
    </rdf:RDF>
  </metadata>
  <defs
     id="defs38" />
  <sodipodi:namedview
     pagecolor="#ffffff"
     bordercolor="#666666"
     borderopacity="1"
     objecttolerance="10"
     gridtolerance="10"
     guidetolerance="10"
     inkscape:pageopacity="0"
     inkscape:pageshadow="2"
     inkscape:window-width="1344"
     inkscape:window-height="729"
     id="namedview36"
     showgrid="false"
     inkscape:zoom="0.76570637"
     inkscape:cx="655.32177"
     inkscape:cy="344.4272"
     inkscape:window-x="0"
     inkscape:window-y="25"
     inkscape:window-maximized="1"
     inkscape:current-layer="svg34" />
  <path
     d="M 0,0 H 8.75 V 5 H 0 Z"
     fill="#ff0000"
     id="path10"
     style="stroke-width:0.779512" />
  <path
     d="M 0,0 H 8.75 V 3.3333333 H 0 Z"
     fill="#005ce5"
     id="path12"
     style="stroke-width:0.779512" />
  <path
     d="M 0,0 H 8.75 V 1.6666667 H 0 Z"
     fill="#ffffff"
     id="path14"
     style="stroke-width:0.779512" />
  <g
     id="g43">
    <g
       id="g64">
      <g
         transform="matrix(0.0175001,0,0,0.0175001,-0.08873583,2.8983233)"
         id="g30">
        <path
           d="m 299.9707,105.20898 c -1.34275,0.002 -2.6819,0.0296 -4.01758,0.0684 -25.9762,0.67332 -50.36351,7.38146 -67.72851,15.5625 l 0.002,0.0234 c -1.8988,0.7936 -3.75877,1.58919 -5.52734,2.38477 l 5.96875,93.49023 c 4.13555,48.85561 35.97434,77.30103 71.34961,88.4707 35.37527,-11.16967 67.21212,-39.61509 71.34765,-88.4707 l 5.93555,-93.19336 c -1.77218,-0.91732 -3.63053,-1.80653 -5.52734,-2.68164 l 0.002,-0.0234 c -18.25122,-8.59856 -44.25699,-15.58263 -71.71484,-15.6289 -0.0203,-4e-5 -0.0403,-0.002 -0.0605,-0.002 -0.01,2e-5 -0.0195,-1e-5 -0.0293,0 z"
           fill="#005ce5"
           fill-rule="evenodd"
           stroke-width="2.10001"
           transform="matrix(0.47618776,0,0,0.47618776,5.07059,-165.61753)"
           id="path16" />
        <path
           d="m 147.93437,-84.711566 -8.31445,16.236187 -5.37524,-6.98291 -14.04559,18.561778 c 0.25384,1.15219 0.55195,2.264368 0.87746,3.350324 1.56869,2.647443 4.58316,5.669782 8.44944,5.66978 3.06807,0 6.13613,-2.454448 9.20419,-2.45445 3.06807,0 6.13613,2.454452 9.20419,2.45445 3.06806,0 6.13612,-2.454448 9.20419,-2.45445 3.06806,0 6.13612,2.454452 9.20419,2.45445 3.83134,0 6.82572,-2.966174 8.40649,-5.596146 0.3374,-1.115063 0.64046,-2.263565 0.90201,-3.448503 l -14.02719,-18.537233 -5.37524,6.98291 z m -9.20419,36.835159 c -3.06806,0 -6.13612,2.454452 -9.20419,2.45445 -2.42818,0 -4.51412,-0.86 -6.12998,-2.080147 0.57062,1.211079 1.17422,2.388922 1.8347,3.503728 1.26575,0.787052 2.70426,1.319269 4.29528,1.319267 3.06807,0 6.13613,-2.454452 9.20419,-2.45445 3.06807,0 6.13613,2.454454 9.20419,2.45445 3.06806,0 6.13612,-2.454452 9.20419,-2.45445 3.06806,0 6.13612,2.454454 9.20419,2.45445 1.56857,0 2.98703,-0.52035 4.24006,-1.288587 0.66018,-1.111198 1.26336,-2.284992 1.8347,-3.491455 -1.6082,1.197358 -3.67487,2.037194 -6.07476,2.037194 -3.06807,0 -6.13613,-2.454448 -9.20419,-2.45445 -3.06807,0 -6.13613,2.454452 -9.20419,2.45445 -3.06806,0 -6.13612,-2.454448 -9.20419,-2.45445 z m 0,5.197298 c -3.06806,0 -6.13612,2.454454 -9.20419,2.45445 -0.66657,0 -1.30044,-0.07808 -1.91447,-0.196356 5.30791,7.091078 12.54952,11.837649 20.31671,14.56716 7.75116,-2.725014 14.98132,-7.474976 20.28603,-14.554888 -0.6005,0.11285 -1.22106,0.184084 -1.87151,0.184084 -3.06807,0 -6.13613,-2.454446 -9.20419,-2.45445 -3.06807,0 -6.13613,2.454454 -9.20419,2.45445 -3.06806,0 -6.13612,-2.454446 -9.20419,-2.45445 z"
           fill="#ffffff"
           fill-rule="evenodd"
           id="path18" />
        <g
           id="a"
           fill="#ffe500"
           transform="translate(0,-6.7e-4)">
          <path
             id="b"
             d="m 134.0937,-109.56066 h 6.96082 l -3.48041,6.02733"
             fill="#ffe500"
             fill-rule="evenodd" />
          <use
             fill="#ffe500"
             height="300"
             transform="matrix(1,0,0,-1,3e-4,-215.1037)"
             width="600"
             xlink:href="#b"
             id="use21"
             x="0"
             y="0" />
        </g>
        <g
           fill="#ffe500"
           id="g28">
          <use
             height="300"
             transform="translate(20.7203)"
             width="600"
             xlink:href="#a"
             id="use24"
             x="0"
             y="0" />
          <use
             height="300"
             transform="translate(10.3603,13.875)"
             width="600"
             xlink:href="#a"
             id="use26"
             x="0"
             y="0" />
        </g>
      </g>
      <path
         d="m 2.4998045,0.87674117 c -0.011552,1.666e-5 -0.023065,2.5916e-4 -0.034554,6.025e-4 0.011489,-3.0667e-4 0.022996,-5.85e-4 0.034554,-6.025e-4 z M 1.9019041,1.0071937 c -0.015828,0.00662 -0.031319,0.013241 -0.046061,0.019873 l 0.04974,0.7791015 C 1.9400454,2.2132983 2.2053524,2.4503273 2.5001463,2.5434078 2.7949402,2.4503273 3.0602473,2.2132983 3.0947101,1.8061682 L 3.144173,1.0295407 C 3.129404,1.0219007 3.11392,1.0144867 3.098112,1.0071937 L 3.051953,1.7803707 C 3.0199603,2.1762004 2.7736795,2.4066543 2.5000161,2.4971513 2.2263527,2.4066543 1.9800556,2.1762004 1.948063,1.7803707 Z"
         fill="#ff0000"
         fill-rule="evenodd"
         stroke-width="0.0175001"
         id="path32" />
    </g>
  </g>
</svg>
