<?xml version="1.0" encoding="UTF-8" standalone="no"?>
<svg
   xmlns:dc="http://purl.org/dc/elements/1.1/"
   xmlns:cc="http://creativecommons.org/ns#"
   xmlns:rdf="http://www.w3.org/1999/02/22-rdf-syntax-ns#"
   xmlns:svg="http://www.w3.org/2000/svg"
   xmlns="http://www.w3.org/2000/svg"
   xmlns:xlink="http://www.w3.org/1999/xlink"
   xmlns:sodipodi="http://sodipodi.sourceforge.net/DTD/sodipodi-0.dtd"
   xmlns:inkscape="http://www.inkscape.org/namespaces/inkscape"
   width="874.99963"
   height="500"
   viewBox="0 0 6999.9971 4000"
   version="1.1"
   id="svg100"
   sodipodi:docname="Flag_of_the_Turks_and_Caicos_Islands.svg"
   inkscape:version="1.0.2 (e86c8708, 2021-01-15)">
  <metadata
     id="metadata104">
    <rdf:RDF>
      <cc:Work
         rdf:about="">
        <dc:format>image/svg+xml</dc:format>
        <dc:type
           rdf:resource="http://purl.org/dc/dcmitype/StillImage" />
        <dc:title>Flag of TCI</dc:title>
      </cc:Work>
    </rdf:RDF>
  </metadata>
  <sodipodi:namedview
     pagecolor="#ffffff"
     bordercolor="#666666"
     borderopacity="1"
     objecttolerance="10"
     gridtolerance="10"
     guidetolerance="10"
     inkscape:pageopacity="0"
     inkscape:pageshadow="2"
     inkscape:window-width="1344"
     inkscape:window-height="812"
     id="namedview102"
     showgrid="false"
     fit-margin-top="0"
     fit-margin-left="0"
     fit-margin-right="0"
     fit-margin-bottom="0"
     inkscape:zoom="0.68383232"
     inkscape:cx="427.54195"
     inkscape:cy="289.39677"
     inkscape:window-x="0"
     inkscape:window-y="0"
     inkscape:window-maximized="1"
     inkscape:current-layer="g32" />
  <title
     id="title10">Flag of TCI</title>
  <defs
     id="defs16">
    <path
       id="s"
       d="m 840,-1000 v 720 C 840,200 600,717 0,997 -600,717 -840,200 -840,-280 v -720 z" />
    <clipPath
       id="c">
      <path
         d="M 0,0 V 15 H 65 V 30 H 60 Z M 60,0 H 30 V 35 H 0 v -5 z"
         id="path13" />
    </clipPath>
  </defs>
  <g
     transform="matrix(59.2,0,0,59.2,-107.66658,-104)"
     fill="#002868"
     id="g32">
    <g
       id="g112"
       transform="matrix(0.98536004,0,0,0.98536004,-0.04550249,-0.04550249)">
      <path
         d="M 1.891892,1.891892 H 61.89189 A 33.54102,33.54102 0 0 1 1.891892,31.89189 Z"
         id="path18" />
      <g
         fill="none"
         id="g28"
         transform="translate(1.891892,1.891892)">
        <path
           stroke="#ffffff"
           stroke-width="6"
           d="M 0,0 60,30 M 0,30 60,0"
           id="path20" />
        <path
           stroke="#ce1126"
           stroke-width="4"
           clip-path="url(#c)"
           d="M 0,-0.06285574 60,30 M 0,30 60,0"
           id="path22"
           sodipodi:nodetypes="cccc" />
        <path
           stroke="#ffffff"
           stroke-width="10"
           d="M 30,-5 V 35 M -5,15 h 70"
           id="path24" />
        <path
           stroke="#ce1126"
           stroke-width="6"
           d="M 30,0 V 35 M 0,15 h 65"
           id="path26" />
      </g>
    </g>
    <path
       d="M 1.8186923,31.379494 H 60.940295 V 1.7567568 H 120.06189 V 69.324324 H 1.8186923"
       id="path30"
       style="stroke-width:0.98536"
       sodipodi:nodetypes="cccccc" />
  </g>
  <g
     transform="matrix(0.72036198,0,0,0.72036198,5074.0569,1619.9857)"
     fill="none"
     stroke="#000000"
     id="g98">
    <use
       xlink:href="#s"
       fill="#fcd116"
       stroke-width="64"
       id="use34"
       x="0"
       y="0"
       width="100%"
       height="100%" />
    <use
       xlink:href="#s"
       stroke="#ffffff"
       stroke-width="56"
       id="use36"
       x="0"
       y="0"
       width="100%"
       height="100%" />
    <g
       stroke-width="2.2"
       stroke-linecap="round"
       stroke-linejoin="round"
       id="g96">
      <g
         transform="translate(-400,-400)"
         id="g46">
        <!-- queen conch -->
        <path
           fill="#fcad56"
           d="M 97,193 C 75,230 38,238 9,226 -21,214 -48,144 -78,106 -107,69 -115,85 -135,63 -154,42 -184,26 -231,4 c -26,-12 -53,-23 -71,-69 7,-19 26,-35 41,-41 15,-5 27,-27 29,-46 2,-18 18,-38 40,-53 -10,2 -31,-2 -41,-9 -9,-8 -24,-6 -33,1 -9,6 -20,8 -36,6 6,-5 17,-16 18,-26 1,-10 13,-15 36,-15 22,0 37,-26 55,-26 -13,0 -10,-22 -3,-23 -32,-6 -28,-32 -15,-32 -1,-4 -5,-8 -20,-13 -14,-5 -7,-18 4,-26 -10,-20 -1,-35 15,-48 -22,-1 2,-32 8,-49 6,-16 9,-18 16,-8 8,9 26,30 47,36 20,6 32,17 36,34 4,18 12,27 34,35 23,7 54,26 50,69 18,1 31,6 42,15"
           id="path38" />
        <path
           fill="#ffa1a1"
           d="m 152,-349 c 0,24 11,39 25,51 15,12 28,22 25,37 -3,16 3,26 16,36 14,10 24,22 20,42 -4,20 -1,32 7,47 8,15 22,27 16,51 -6,24 -3,56 5,72 7,15 0,27 -14,54 -14,26 -22,36 -51,46 -30,9 -32,27 -32,58 0,32 -21,48 -60,42 C 69,220 44,181 34,132 24,83 22,30 -37,-13 c -58,-44 -35,-118 14,-148 49,-29 43,-115 37,-168 -5,-53 30,-83 57,-112 36,14 81,69 81,92 z"
           id="path40" />
        <path
           fill="#f1b2dc"
           d="M 152,-349 M 67,-8 c -11,-26 -23,-52 6,-108 30,-57 11,-100 2,-129 -9,-28 -11,-54 0,-66 12,-11 17,-18 18,-37 1,-18 16,-12 18,-3 2,9 4,24 -12,51 -16,28 45,96 17,169 -19,51 6,116 16,161 10,45 16,153 -50,169 C 127,177 85,34 67,-8 Z"
           id="path42" />
        <path
           d="m -230,-16 c 11,2 17,-4 20,-11 3,-7 5,-11 15,-12 10,0 26,-3 30,-11 3,-8 15,-1 26,-21 10,-21 17,-45 44,-54 m 74,-174 c -10,0 -39,1 -51,27 m -83,-151 c 24,7 14,23 26,32 22,17 2,35 20,40 18,5 17,8 13,28 -6,23 16,24 8,39 m -104,79 c 14,-13 49,-23 57,-37 m -58,-32 c 21,-1 49,7 53,-1 m -56,-22 c 10,0 31,-7 35,-21 m -50,-11 c 12,0 27,-1 42,-12 m -58,-27 c 9,-7 25,1 40,-9 m -25,-39 c 7,0 22,-2 22,7"
           id="path44" />
      </g>
      <g
         transform="translate(400,-400)"
         fill="#9e540a"
         id="g73">
        <!-- spiny lobster -->
        <g
           id="L1">
          <path
             d="m -55,-233 c 0,0 -70,-59 -128,-99 -58,-40 -128,-89 -128,-99 11,-8 70,30 151,79 82,50 128,99 128,99 z m -5,40 c 0,0 -68,-41 -135,-70 -70,-29 -175,-29 -186,-39 0,-10 122,-16 209,19 89,41 135,70 135,70 z m -1,68 c 0,0 -74,-34 -146,-50 -70,-16 -170,-10 -182,-19 0,-10 124,-30 217,0 94,29 134,49 134,49 z m -4,69 c 0,0 -56,-38 -130,-46 -70,-7 -163,46 -175,36 0,-10 81,-69 182,-59 99,10 146,49 146,49 z m 23,-218 c 0,0 -71,-65 -71,-109 0,-39 43,-99 62,-99 -10,20 -43,60 -43,99 0,40 75,89 75,89 z"
             id="path48" />
          <path
             d="m -42,-274 c 0,0 14,-65 14,-109 0,-59 -42,-113 -38,-128 15,15 57,59 57,128 0,60 -10,89 -10,89 z"
             id="path50" />
          <g
             stroke="none"
             id="g55">
            <use
               xlink:href="#ant"
               stroke="#fcd116"
               stroke-width="12"
               id="use52"
               x="0"
               y="0"
               width="100%"
               height="100%" />
            <path
               id="ant"
               d="m -25,-295 c 0,-19 -7,-36 -19,-49 -16,-19 -40,-25 -65,-21 -30,5 -54,23 -69,51 -20,37 -22,77 -23,116 0,135 5,190 9,323 1,39 8,119 -10,182 -7,27 -15,52 -27,78 8,-33 12,-50 16,-75 11,-65 8,-126 6,-186 -4,-123 -11,-186 -15,-335 -1,-45 3,-79 24,-115 22,-37 60,-64 103,-64 18,0 33,3 48,12 30,16 44,49 44,82 z" />
          </g>
          <path
             d="m -19,187 c 0,0 -28,50 -49,86 -21,36 -38,44 -54,33 -15,-11 -2,-40 10,-54 12,-14 79,-79 79,-79 z"
             id="path57" />
          <path
             d="m -12,191 c 0,0 -11,57 -20,98 -8,41 -22,55 -39,50 -18,-4 -15,-37 -8,-54 7,-17 49,-103 49,-103 z"
             id="path59" />
          <path
             d="m 0,193 c 0,0 0,58 0,100 0,42 -10,59 -29,58 -18,-1 -22,-33 -18,-52 3,-18 28,-111 28,-111 z"
             id="path61" />
        </g>
        <use
           transform="scale(-1,1)"
           xlink:href="#L1"
           id="use64"
           x="0"
           y="0"
           width="100%"
           height="100%" />
        <g
           id="L2">
          <path
             d="m 0,192 c -53,-1 -58,-20 -58,-20 0,0 -7,-24 -8,-39 -1,-2 -15,-32 -11,-45 -5,-12 -17,-41 -6,-46 -5,-14 -13,-30 -14,-45 -4,-11 -14,-35 -6,-43 0,0 -19,-40 -10,-50 0,0 -9,-39 0,-49 0,0 0,-40 10,-50 0,0 0,-39 9,-49 0,2 28,-55 94,-55 l -1,85 h 1 z"
             id="path66" />
          <path
             fill="none"
             d="m 0,-26 c -85,-1 -103,-20 -103,-20 M 0,-76 c -85,0 -113,-20 -113,-20 M 0,-125 c -85,-1 -113,-20 -113,-20 M 0,-175 c -85,-1 -103,-20 -103,-20 m 102,-19 c 1,0 -64,0 -74,-10 l -19,-19 M 0,152 c -25,0 -53,-4 -66,-19 M 0,112 c -47,0 -75,-19 -75,-19 0,0 -1,-2 -2,-5 M 0,63 C -62,62 -79,49 -83,42 M 0,23 C -85,23 -94,3 -94,3 c 0,0 -1,-2 -3,-6"
             id="path68" />
        </g>
        <use
           transform="scale(-1,1)"
           xlink:href="#L2"
           id="use71"
           x="0"
           y="0"
           width="100%"
           height="100%" />
      </g>
      <g
         id="g94">
        <!-- turk's head cactus -->
        <g
           id="L3">
          <path
             fill="#009e49"
             d="m 0,712 c -43,40 -126,14 -152,-4 -27,9 -99,-19 -118,-50 -52,7 -70,-67 -61,-86 14,-28 -11,-46 7,-65 25,-24 -14,-47 10,-63 24,-17 -6,-45 18,-63 25,-19 -13,-45 13,-58 26,-13 -3,-47 19,-60 22,-13 -13,-46 17,-61 29,-15 3,-41 26,-52 25,-13 2,-40 25,-49 26,-11 7,-40 29,-48 19,-7 7,-25 19,-41 H 0"
             id="path75" />
          <path
             d="m -99,18 c -20,20 4,35 -16,59 -21,25 -2,38 -19,60 -17,22 8,33 -11,58 -19,24 4,39 -17,59 -20,21 4,39 -17,61 -20,23 4,38 -16,58 -21,21 3,43 -17,63 -20,21 4,47 -19,71 -22,24 4,43 -14,61 -19,19 -2,38 -15,51 -13,13 -15,31 -10,39 M -60,25 c -18,25 10,36 -7,56 -17,21 7,28 -6,52 -13,24 10,30 -7,54 -17,24 9,43 -9,67 -19,24 9,37 -8,61 -16,25 8,38 -7,56 -15,19 11,37 -8,60 -18,22 8,39 -7,59 -15,21 6,43 -7,60 -13,16 9,41 -10,63 -18,22 4,37 -7,52 -11,15 -20,37 -9,43"
             id="path77" />
        </g>
        <use
           transform="scale(-1,1)"
           xlink:href="#L3"
           id="use80"
           x="0"
           y="0"
           width="100%"
           height="100%" />
        <path
           stroke="#009e49"
           d="M 0,712 V 12"
           id="path82" />
        <path
           d="M -99,18 M 0,48 c -9,39 13,73 0,106 -13,32 9,45 2,71 -8,26 9,45 -2,73 -11,28 15,50 0,87 -15,36 10,45 0,82 -11,42 19,64 0,94 -19,30 17,37 2,71 -15,33 9,46 -2,80"
           id="path84" />
        <path
           fill="#fcd116"
           d="m 15,174 c -5,11 15,37 4,57 -12,19 6,49 -6,73 -12,24 19,54 7,82 -13,28 6,63 0,89 -5,26 13,76 0,94 -13,19 13,24 -2,70 -15,46 -25,7 -16,-7 19,-31 -21,-41 -2,-71 19,-30 -11,-52 0,-94 10,-37 -15,-46 0,-82 15,-37 -11,-59 0,-87 11,-28 -6,-47 2,-73 7,-26 -15,-39 -2,-71 10,-32 20,9 15,20 z m -84,32 c -7,12 12,35 -5,58 -12,16 8,35 -9,58 -11,16 11,36 -4,59 -10,13 7,38 -5,57 -12,20 6,36 -15,62 -12,14 9,49 -4,60 -13,11 -1,54 -10,60 -8,7 0,38 -22,45 11,-15 -11,-30 7,-52 19,-22 -3,-47 10,-63 13,-17 -8,-39 7,-60 15,-20 -11,-37 7,-59 19,-23 -7,-41 8,-60 15,-18 -9,-31 7,-56 17,-24 -11,-37 8,-61 18,-24 -8,-43 9,-67 17,-24 -6,-30 7,-54 24,9 12,61 4,73 z m -50,-65 c -10,16 4,35 -11,55 -15,21 0,47 -15,64 -15,16 4,48 -15,61 -19,13 -7,52 -22,65 -15,13 0,50 -17,69 -17,19 -9,58 -19,67 -9,9 13,28 -3,41 -17,13 -17,39 -39,56 13,-13 -4,-32 15,-51 18,-18 -8,-37 14,-61 23,-24 -1,-50 19,-71 20,-20 -4,-42 17,-63 20,-20 -4,-35 16,-58 21,-22 -3,-40 17,-61 21,-20 -2,-35 17,-59 19,-25 -6,-36 11,-58 8,-10 8,-19 8,-27 12,-31 12,23 7,31 z"
           id="path86" />
        <path
           fill="#ce1126"
           d="m -139,35 c 0,-210 29,-283 139,-283 110,0 139,73 139,283 z"
           id="path88" />
        <path
           fill="#000000"
           d="m -139,35 c 0,-210 29,-283 139,-283 -50,0 -81,39 -89,65 -9,26 -4,24 7,14 11,-10 6,12 -4,24 -9,12 -18,47 -5,36 13,-12 23,1 9,21 -14,19 -26,65 -12,49 14,-16 17,10 8,23 -8,13 -7,25 0,19 8,-6 7,21 0,32 z M 52,31 C 52,0 53,-73 36,-97 c -12,-19 -12,-39 2,-17 14,22 21,11 11,-11 -12,-28 -28,-59 -24,-65 5,-7 8,-4 18,11 10,15 12,-7 1,-22 -11,-14 -10,-17 13,-7 41,17 61,66 61,231 z"
           id="path90" />
        <path
           fill="#ce1126"
           d="m 0,65 c -44,0 -92,-7 -124,-20 -38,-15 -40,-28 -27,-44 10,-12 30,-5 50,4 19,8 73,14 101,14 28,0 82,-6 101,-15 20,-8 40,-15 50,-3 13,16 11,29 -27,44 C 92,58 44,65 0,65 Z"
           id="path92" />
      </g>
    </g>
  </g>
</svg>
