<svg width="1700" height="1000" viewBox="0 0 1700 1000" fill="none" xmlns="http://www.w3.org/2000/svg">
    <path d="M1700 0H0V1000H1700V0Z" fill="#E30A17"/>
    <path d="M602.083 750C758.564 750 885.417 638.071 885.417 500C885.417 361.929 758.564 250 602.083 250C445.603 250 318.75 361.929 318.75 500C318.75 638.071 445.603 750 602.083 750Z" fill="white"/>
    <path d="M672.917 700C798.101 700 899.583 610.457 899.583 500C899.583 389.543 798.101 300 672.917 300C547.732 300 446.25 389.543 446.25 500C446.25 610.457 547.732 700 672.917 700Z" fill="#E30A17"/>
    <path d="M826.39 500L1082.67 573.473L924.277 381.117V618.882L1082.67 426.526L826.39 500Z" fill="white"/>
</svg>
