<?xml version="1.0" encoding="UTF-8" standalone="no"?>
<svg
   xmlns:dc="http://purl.org/dc/elements/1.1/"
   xmlns:cc="http://creativecommons.org/ns#"
   xmlns:rdf="http://www.w3.org/1999/02/22-rdf-syntax-ns#"
   xmlns:svg="http://www.w3.org/2000/svg"
   xmlns="http://www.w3.org/2000/svg"
   xmlns:sodipodi="http://sodipodi.sourceforge.net/DTD/sodipodi-0.dtd"
   xmlns:inkscape="http://www.inkscape.org/namespaces/inkscape"
   height="500"
   viewBox="-5 -5 875 500"
   width="875"
   version="1.1"
   id="svg176"
   sodipodi:docname="Uruguay.svg"
   inkscape:version="1.0.2 (e86c8708, 2021-01-15)">
  <metadata
     id="metadata182">
    <rdf:RDF>
      <cc:Work
         rdf:about="">
        <dc:format>image/svg+xml</dc:format>
        <dc:type
           rdf:resource="http://purl.org/dc/dcmitype/StillImage" />
      </cc:Work>
    </rdf:RDF>
  </metadata>
  <defs
     id="defs180" />
  <sodipodi:namedview
     pagecolor="#ffffff"
     bordercolor="#666666"
     borderopacity="1"
     objecttolerance="10"
     gridtolerance="10"
     guidetolerance="10"
     inkscape:pageopacity="0"
     inkscape:pageshadow="2"
     inkscape:window-width="1344"
     inkscape:window-height="729"
     id="namedview178"
     showgrid="false"
     inkscape:zoom="0.68622767"
     inkscape:cx="423.04107"
     inkscape:cy="301.4068"
     inkscape:window-x="0"
     inkscape:window-y="25"
     inkscape:window-maximized="1"
     inkscape:current-layer="svg176" />
  <path
     d="M -5,-5 H 869.99999 V 495 H -5 Z"
     fill="#ffffff"
     id="path10"
     style="stroke-width:0.857241" />
  <g
     fill="#0038a8"
     transform="matrix(32.407407,0,0,27.777778,157.03704,133.88889)"
     id="g20">
    <path
       d="m 5,-3 h 17 v 2 H 5 Z"
       id="path12" />
    <path
       d="M 5,1 H 22 V 3 H 5 Z"
       id="path14" />
    <path
       d="M -5,5 H 22 V 7 H -5 Z"
       id="path16" />
    <path
       d="m -5,9 h 27 v 2 H -5 Z"
       id="path18" />
  </g>
  <g
     transform="matrix(2.9996251,0,0,2.9996251,208.14203,-312.55504)"
     id="g174">
    <g
       stroke="#7b3f00"
       stroke-miterlimit="20"
       id="g130">
      <g
         fill="#fcd116"
         id="g120">
        <path
           d="m -19.10564,157.88802 3.065521,4.57751 c -12.596494,9.11582 -4.906177,14.5064 -13.832833,17.42431 5.55205,-5.41829 -0.733866,-6.25397 3.94396,-17.54724"
           stroke-linecap="square"
           stroke-width="0.611"
           id="path22" />
        <g
           stroke-width="0.6"
           transform="matrix(0.38981887,0.941106,-0.941106,0.38981887,-17.008929,148.83334)"
           id="g30">
          <path
             d="M 1.5,9 6,12 C -2,25 7,27 0,33 3,26 -3.0115852,27.41877 -3.0115852,15.41877"
             stroke-linecap="square"
             id="path24" />
          <path
             d="m 1.501,9 -1.304,2.03 0.1,0.015 c -0.99,6.447 0.12,10.63 0.933,13.883 0.406,1.627 0.745,3.026 0.687,4.367 a 5.658,5.658 0 0 1 -0.71,2.538 C 5.856,26.68 -1.456,24.12 6.002,12 Z"
             fill="#7b3f00"
             stroke-linecap="square"
             stroke-width="0.273"
             id="path26" />
          <path
             d="M 0,11 C -2,24 4.5,28 0,33"
             fill="none"
             id="path28" />
        </g>
        <path
           d="m -17.008929,148.83334 -4.321748,-4.32175 -19.447867,28.09136 28.091363,-19.44786 -4.321748,-4.32175 -23.769615,23.76961"
           stroke-width="0.611"
           id="path32" />
        <g
           stroke-width="0.6"
           id="g118">
          <g
             transform="matrix(0,1.0186458,-1.0186458,0,-17.008929,148.83334)"
             id="g46">
            <g
               transform="rotate(22.5)"
               id="g40">
              <path
                 d="M 1.5,9 6,12 C -2,25 7,27 0,33 3,26 -3.0251906,27.552614 -3.0251906,15.552614"
                 stroke-linecap="square"
                 id="path34" />
              <path
                 d="m 1.501,9 -1.304,2.03 0.1,0.015 c -0.99,6.447 0.12,10.63 0.933,13.883 0.406,1.627 0.745,3.026 0.687,4.367 a 5.658,5.658 0 0 1 -0.71,2.538 C 5.856,26.68 -1.456,24.12 6.002,12 Z"
                 fill="#7b3f00"
                 stroke-linecap="square"
                 stroke-width="0.273"
                 id="path36" />
              <path
                 d="M 0,11 C -2,24 4.5,28 0,33"
                 fill="none"
                 id="path38" />
            </g>
            <path
               d="M 0,0 H -6 L 0,33 6,0 H 0 v 33"
               id="path42" />
            <path
               d="M 0,0 H 6 0 V 33 L 6,0"
               fill="#7b3f00"
               stroke="none"
               id="path44" />
          </g>
          <g
             transform="matrix(-0.72029135,0.72029135,-0.72029135,-0.72029135,-17.008929,148.83334)"
             id="g60">
            <g
               transform="rotate(22.5)"
               id="g54">
              <path
                 d="M 1.5,9 6,12 C -2,25 7,27 0,33 3,26 -3.0161458,26.757742 -3.0161458,14.757742"
                 stroke-linecap="square"
                 id="path48" />
              <path
                 d="m 1.501,9 -1.304,2.03 0.1,0.015 c -0.99,6.447 0.12,10.63 0.933,13.883 0.406,1.627 0.745,3.026 0.687,4.367 a 5.658,5.658 0 0 1 -0.71,2.538 C 5.856,26.68 -1.456,24.12 6.002,12 Z"
                 fill="#7b3f00"
                 stroke-linecap="square"
                 stroke-width="0.273"
                 id="path50" />
              <path
                 d="M 0,11 C -2,24 4.5,28 0,33"
                 fill="none"
                 id="path52" />
            </g>
            <path
               d="M 0,0 H -6 L 0,33 6,0 H 0 v 33"
               id="path56" />
            <path
               d="M 0,0 H 6 0 V 33 L 6,0"
               fill="#7b3f00"
               stroke="none"
               id="path58" />
          </g>
          <g
             transform="matrix(-1.0186458,0,0,-1.0186458,-17.008929,148.83334)"
             id="g88">
            <g
               transform="rotate(22.5)"
               id="g68">
              <path
                 d="M 1.5,9 6,12 C -2,25 7,27 0,33 3,26 -3.0076994,27.539011 -3.0076994,15.539011"
                 stroke-linecap="square"
                 id="path62" />
              <path
                 d="m 1.501,9 -1.304,2.03 0.1,0.015 c -0.99,6.447 0.12,10.63 0.933,13.883 0.406,1.627 0.745,3.026 0.687,4.367 a 5.658,5.658 0 0 1 -0.71,2.538 C 5.856,26.68 -1.456,24.12 6.002,12 Z"
                 fill="#7b3f00"
                 stroke-linecap="square"
                 stroke-width="0.273"
                 id="path64" />
              <path
                 d="M 0,11 C -2,24 4.5,28 0,33"
                 fill="none"
                 id="path66" />
            </g>
            <path
               d="M 0,0 H -6 L 0,33 6,0 H 0 v 33"
               id="path70" />
            <path
               d="M 0,0 H 6 0 V 33 L 6,0"
               fill="#7b3f00"
               stroke="none"
               id="path72" />
            <g
               transform="rotate(45)"
               id="g86">
              <g
                 transform="rotate(22.5)"
                 id="g80">
                <path
                   d="M 1.5,9 6,12 C -2,25 7,27 0,33 3,26 -2.9510984,27.207156 -2.9510984,15.207156"
                   stroke-linecap="square"
                   id="path74" />
                <path
                   d="m 1.501,9 -1.304,2.03 0.1,0.015 c -0.99,6.447 0.12,10.63 0.933,13.883 0.406,1.627 0.745,3.026 0.687,4.367 a 5.658,5.658 0 0 1 -0.71,2.538 C 5.856,26.68 -1.456,24.12 6.002,12 Z"
                   fill="#7b3f00"
                   stroke-linecap="square"
                   stroke-width="0.273"
                   id="path76" />
                <path
                   d="M 0,11 C -2,24 4.5,28 0,33"
                   fill="none"
                   id="path78" />
              </g>
              <path
                 d="M 0,0 H -6 L 0,33 6,0 H 0 v 33"
                 id="path82" />
              <path
                 d="M 0,0 H 6 0 V 33 L 6,0"
                 fill="#7b3f00"
                 stroke="none"
                 id="path84" />
            </g>
          </g>
          <g
             transform="matrix(0,-1.0186458,1.0186458,0,-17.008929,148.83334)"
             id="g102">
            <g
               transform="rotate(22.5)"
               id="g96">
              <path
                 d="M 1.5,9 6,12 C -2,25 7,27 0,33 3,26 -3.0167764,27.411512 -3.0167764,15.411512"
                 stroke-linecap="square"
                 id="path90" />
              <path
                 d="m 1.501,9 -1.304,2.03 0.1,0.015 c -0.99,6.447 0.12,10.63 0.933,13.883 0.406,1.627 0.745,3.026 0.687,4.367 a 5.658,5.658 0 0 1 -0.71,2.538 C 5.856,26.68 -1.456,24.12 6.002,12 Z"
                 fill="#7b3f00"
                 stroke-linecap="square"
                 stroke-width="0.273"
                 id="path92" />
              <path
                 d="M 0,11 C -2,24 4.5,28 0,33"
                 fill="none"
                 id="path94" />
            </g>
            <path
               d="M 0,0 H -6 L 0,33 6,0 H 0 v 33"
               id="path98" />
            <path
               d="M 0,0 H 6 0 V 33 L 6,0"
               fill="#7b3f00"
               stroke="none"
               id="path100" />
          </g>
          <g
             transform="matrix(0.72029135,-0.72029135,0.72029135,0.72029135,-17.008929,148.83334)"
             id="g116">
            <g
               transform="rotate(22.5)"
               id="g110">
              <path
                 d="M 1.5,9 6,12 C -2,25 7,27 0,33 3,26 -2.9819012,27.339741 -2.9819012,15.339741"
                 stroke-linecap="square"
                 id="path104" />
              <path
                 d="m 1.501,9 -1.304,2.03 0.1,0.015 c -0.99,6.447 0.12,10.63 0.933,13.883 0.406,1.627 0.745,3.026 0.687,4.367 a 5.658,5.658 0 0 1 -0.71,2.538 C 5.856,26.68 -1.456,24.12 6.002,12 Z"
                 fill="#7b3f00"
                 stroke-linecap="square"
                 stroke-width="0.273"
                 id="path106" />
              <path
                 d="M 0,11 C -2,24 4.5,28 0,33"
                 fill="none"
                 id="path108" />
            </g>
            <path
               d="M 0,0 H -6 L 0,33 6,0 H 0 v 33"
               id="path112" />
            <path
               d="M 0,0 H 6 0 V 33 L 6,0"
               fill="#7b3f00"
               stroke="none"
               id="path114" />
          </g>
        </g>
      </g>
      <path
         d="m -19.104699,157.88841 -2.018534,1.40212 0.08826,0.0531 c -3.444857,5.68139 -4.030842,10.05074 -4.533803,13.42908 -0.252147,1.68944 -0.478468,3.1382 -1.0558,4.37761 a 5.763498,5.763498 0 0 1 -1.657545,2.11176 c 6.383938,-3.03725 0.500508,-8.29684 12.243881,-16.79578 z"
         fill="#7b3f00"
         stroke-linecap="square"
         stroke-width="0.278"
         id="path122" />
      <g
         stroke-width="0.611"
         id="g128">
        <path
           d="m -21.296937,159.18551 c -6.949857,11.45474 -2.391943,17.75298 -8.576015,20.70433"
           fill="none"
           id="path124" />
        <path
           d="m -17.008929,148.83334 h -6.111875 l 6.111875,33.61531 6.111875,-33.61531 h -6.111875 v 33.61531"
           fill="#fcd116"
           id="path126" />
      </g>
    </g>
    <path
       d="m -17.008929,148.83334 h 6.111875 -6.111875 v 33.61531 l 6.111875,-33.61531"
       fill="#7b3f00"
       id="path132" />
    <path
       d="m -17.008929,148.83334 4.321748,4.32175 -4.321748,-4.32175 -23.769615,23.76961 28.091363,-19.44786"
       fill="#7b3f00"
       id="path134" />
    <circle
       cx="-17.009001"
       cy="148.83299"
       fill="#fcd116"
       r="11.205"
       stroke="#7b3f00"
       stroke-miterlimit="20"
       stroke-width="0.611"
       id="circle136" />
    <g
       fill="#7b3f00"
       id="g172">
      <path
         d="m -8.757898,144.3513 c -0.7130521,0.81492 -1.1205104,-0.61119 -3.667125,-0.61119 -2.546614,0 -2.954073,1.52797 -3.361531,1.22238 -0.407458,-0.3056 2.139156,-2.13916 2.954073,-2.24102 0.814916,-0.10187 3.1578018,0.71305 4.074583,1.62983 m -2.954073,0.91678 c 0.713052,0.61119 0.101865,1.93543 -0.611187,1.93543 -0.713052,0 -2.037292,-1.22238 -1.426104,-2.03729"
         id="path138" />
      <path
         d="m -15.073502,146.18486 c 0.101865,-1.22237 1.12051,-1.4261 2.750344,-1.4261 1.629833,0 2.342885,1.22237 2.9540725,1.52797 -0.7130525,0 -1.3242395,-1.01865 -2.9540725,-1.01865 -1.629834,0 -1.629834,0 -2.750344,1.01865 m 0.305594,0.20372 c 0.407458,-0.61118 0.916781,0.61119 2.037291,0.61119 1.120511,0 1.731698,-0.30559 2.44475,-0.81491 0.7130523,-0.50933 -1.018646,1.22237 -2.139156,1.22237 -1.12051,0 -2.648479,-0.61119 -2.342885,-1.01865"
         id="path140" />
      <path
         d="m -22.713491,145.16638 c -0.509323,0.20373 -1.324239,1.22223 0,1.93528 -1.018646,-0.71305 -0.203729,-1.73155 0,-1.93528 z"
         id="path142" />
      <path
         d="m -11.304367,145.16638 c 0.203729,0.20373 1.018646,1.22223 0,1.93528 1.3242394,-0.71305 0.509323,-1.73155 0,-1.93528 z"
         id="path144" />
      <path
         d="m -18.638805,149.54648 c -0.916781,0.20372 -0.611351,1.52801 -1.426268,1.62987 -0.814916,0.10187 -1.222211,1.0186 -1.120346,0.91674 0.509323,-0.40746 1.629897,-0.71313 2.444813,-0.71313 0.814917,0 1.018625,0.50952 1.731677,0.50952 0.713052,0 0.91676,-0.50952 1.731677,-0.50952 0.814916,0 1.93549,0.30567 2.444813,0.71313 0.101865,0.10186 -0.30543,-0.81487 -1.120346,-0.91674 -0.814917,-0.10186 -0.509487,-1.42615 -1.426268,-1.62987 0,0.40745 0.305345,0.30555 0.407209,0.91674 0,0.50932 -0.916617,0.50932 -1.120346,0 0.203729,0.81491 -0.407416,0.81493 -0.916739,0.81493 -0.509323,0 -1.120468,-2e-5 -0.916739,-0.81493 -0.203729,0.50932 -1.120346,0.50932 -1.120346,0 0.101864,-0.61119 0.407209,-0.50929 0.407209,-0.91674 z"
         id="path146" />
      <path
         d="m -21.796749,153.00983 c -0.814917,0.61119 -1.018482,0.91682 -1.120347,1.62987 0.244322,-0.42756 0.36431,-0.60327 0.549839,-0.85472 -0.0491,-0.0211 -0.09131,-0.0405 -0.142111,-0.062 0.0593,0.007 0.112419,0.0163 0.169498,0.0243 0.123195,-0.1664 0.232648,-0.31052 0.543121,-0.73742 z"
         id="path148" />
      <path
         d="m -22.33987,153.74725 c -0.0029,0.004 -0.01005,0.0137 -0.01291,0.0176 0.127347,0.0296 0.26244,0.0434 0.404112,0.0439 -0.124442,-0.022 -0.255239,-0.0425 -0.391192,-0.0615 z"
         id="path150" />
      <path
         d="m -21.948678,153.80875 c 0.635232,0.11214 1.133961,0.2583 1.591116,0.40617 0.570162,-0.0422 1.356604,-0.18655 3.348633,-0.18655 1.992029,0 2.778471,0.14436 3.348633,0.18655 0.457155,-0.14787 0.955884,-0.29403 1.591116,-0.40617 -1.122478,0.004 -2.618591,-0.79892 -3.309873,-0.79892 -0.814917,0 -1.018689,0.20361 -1.629876,0.20361 -0.611187,0 -0.814959,-0.20361 -1.629876,-0.20361 -0.691282,0 -2.187395,0.80298 -3.309873,0.79892 z"
         id="path152" />
      <path
         d="m -12.06918,153.80875 c 0.141672,-5.3e-4 0.276765,-0.0143 0.404112,-0.0439 -0.0029,-0.004 -0.01,-0.0136 -0.01291,-0.0176 -0.135953,0.019 -0.26675,0.0395 -0.391192,0.0615 z"
         id="path154" />
      <path
         d="m -11.677988,153.74725 c 0.05708,-0.008 0.110196,-0.0169 0.169498,-0.0243 -0.0508,0.0215 -0.09301,0.0409 -0.142111,0.062 0.185529,0.25145 0.305517,0.42716 0.549839,0.85472 -0.101865,-0.71305 -0.30543,-1.01868 -1.120347,-1.62987 0.310473,0.4269 0.419926,0.57102 0.543121,0.73742 z"
         id="path156" />
      <path
         d="m -11.650601,153.78498 c -0.0011,-0.002 -0.004,-0.006 -0.0052,-0.007 -1.063112,0.40958 -1.437402,0.47916 -2.004528,0.43718 -0.965814,0.31241 -1.761951,0.62839 -3.348633,0.62839 -1.586682,0 -2.382819,-0.31598 -3.348633,-0.62839 -0.567126,0.042 -0.941416,-0.0276 -2.004528,-0.43718 -0.0011,0.002 -0.004,0.006 -0.0052,0.007 3.200048,1.37735 2.8502,1.87327 5.358328,1.87327 2.508128,0 2.15828,-0.49592 5.358328,-1.87327 z"
         id="path158" />
      <path
         d="m -22.36209,153.77774 c 0.0021,-0.003 0.0072,-0.0101 0.0093,-0.0129 -0.0531,-0.0123 -0.10655,-0.0236 -0.156578,-0.0419 0.05815,0.0228 0.09302,0.0339 0.147278,0.0548 z"
         id="path160" />
      <path
         d="m -11.655768,153.77774 c 0.05426,-0.0209 0.08913,-0.032 0.147278,-0.0548 -0.05003,0.0182 -0.103476,0.0295 -0.156578,0.0418 0.0021,0.003 0.0072,0.0101 0.0093,0.0129 z"
         id="path162" />
      <g
         transform="matrix(-0.10186458,0,0,0.10186458,-17.008929,148.83334)"
         id="g168">
        <path
           d="m 81,-44 c -7,8 -11,-6 -36,-6 -25,0 -29,15 -33,12 -4,-3 21,-21 29,-22 8,-1 31,7 40,16 m -29,9 c 7,6 1,19 -6,19 -7,0 -20,-12 -14,-20"
           id="path164" />
        <path
           d="m 19,-26 c 1,-12 11,-14 27,-14 16,0 23,12 29,15 -7,0 -13,-10 -29,-10 -16,0 -16,0 -27,10 m 3,2 c 4,-6 9,6 20,6 11,0 17,-3 24,-8 7,-5 -10,12 -21,12 -11,0 -26,-6 -23,-10"
           id="path166" />
      </g>
      <path
         d="m -17.008929,156.57505 c -0.509323,0 -1.833562,0.30559 0,0.30559 1.833562,0 0.509323,-0.30559 0,-0.30559"
         id="path170" />
    </g>
  </g>
</svg>
