<?xml version="1.0" encoding="UTF-8" standalone="no"?>
<svg
   xmlns:dc="http://purl.org/dc/elements/1.1/"
   xmlns:cc="http://creativecommons.org/ns#"
   xmlns:rdf="http://www.w3.org/1999/02/22-rdf-syntax-ns#"
   xmlns:svg="http://www.w3.org/2000/svg"
   xmlns="http://www.w3.org/2000/svg"
   xmlns:xlink="http://www.w3.org/1999/xlink"
   xmlns:sodipodi="http://sodipodi.sourceforge.net/DTD/sodipodi-0.dtd"
   xmlns:inkscape="http://www.inkscape.org/namespaces/inkscape"
   version="1.0"
   width="875"
   height="500"
   viewBox="0 0 1385.4167 791.66667"
   id="svg33"
   sodipodi:docname="Vanuatu.svg"
   inkscape:version="1.0.2 (e86c8708, 2021-01-15)">
  <metadata
     id="metadata39">
    <rdf:RDF>
      <cc:Work
         rdf:about="">
        <dc:format>image/svg+xml</dc:format>
        <dc:type
           rdf:resource="http://purl.org/dc/dcmitype/StillImage" />
      </cc:Work>
    </rdf:RDF>
  </metadata>
  <defs
     id="defs37" />
  <sodipodi:namedview
     pagecolor="#ffffff"
     bordercolor="#666666"
     borderopacity="1"
     objecttolerance="10"
     gridtolerance="10"
     guidetolerance="10"
     inkscape:pageopacity="0"
     inkscape:pageshadow="2"
     inkscape:window-width="1344"
     inkscape:window-height="729"
     id="namedview35"
     showgrid="false"
     inkscape:zoom="0.55047635"
     inkscape:cx="382.2046"
     inkscape:cy="335.04976"
     inkscape:window-x="0"
     inkscape:window-y="25"
     inkscape:window-maximized="1"
     inkscape:current-layer="svg33" />
  <rect
     width="1385.4166"
     height="395.83334"
     fill="#d21034"
     id="rect10"
     x="0"
     y="0"
     style="stroke-width:1.42318" />
  <rect
     y="395.83334"
     width="1385.4166"
     height="395.83334"
     fill="#009543"
     id="rect12"
     x="0"
     style="stroke-width:1.42318" />
  <path
     d="M 0,0 806.18606,395.83333 0,791.66667 Z"
     fill="#000000"
     id="path14"
     style="stroke-width:1.42318" />
  <rect
     y="325"
     width="1385.4166"
     height="141.66667"
     fill="#000000"
     id="rect16"
     x="0"
     style="stroke-width:1.42318" />
  <path
     d="M 0,56.252778 691.61604,395.83264 0,735.4125 Z"
     fill="#fdce12"
     id="path18"
     style="stroke-width:1.42318" />
  <rect
     y="375"
     width="1385.4166"
     height="41.666668"
     fill="#fdce12"
     id="rect20"
     x="0"
     style="stroke-width:1.42318" />
  <path
     d="M 0,103.13157 596.14002,395.83333 0,688.53472 Z"
     fill="#000000"
     id="path22"
     style="stroke-width:1.42318" />
  <g
     id="frond"
     fill="#fdce12"
     transform="scale(1.4583333)">
    <path
       d="m 90.728,297.245 1.683,1.089 c 0,0 13.367,-30.496 49.309,-52.18 -4.555,2.475 -28.615,14.456 -50.992,51.091 z"
       stroke="#fdce12"
       id="path26" />
    <path
       d="m 94.193,291.997 c 0,0 -4.158,-8.515 -0.495,-12.277 3.664,-3.763 1.981,10 1.981,10 l 1.584,-2.277 c 0,0 -2.476,-10.397 0.297,-12.575 2.772,-2.178 1.386,10 1.386,10 l 1.683,-2.178 c 0,0 -1.782,-10.099 0.891,-11.981 2.674,-1.881 0.991,9.506 0.991,9.506 l 1.98,-2.278 c 0,0 -1.485,-9.604 1.782,-11.881 3.268,-2.278 0.396,9.109 0.396,9.109 l 2.178,-2.376 c 0,0 -0.99,-8.813 1.783,-10.793 2.772,-1.98 0.396,8.317 0.396,8.317 l 1.98,-2.079 c 0,0 -0.594,-8.218 2.079,-10.099 2.674,-1.882 0.198,7.822 0.198,7.822 l 2.08,-1.981 c 0,0 -0.495,-8.218 2.871,-9.802 3.366,-1.584 -0.594,7.723 -0.594,7.723 l 2.277,-1.98 c 0,0 0.693,-9.604 3.565,-10.496 2.871,-0.891 -1.287,8.516 -1.287,8.516 l 2.079,-1.684 c 0,0 1.089,-8.218 4.257,-9.208 3.169,-0.99 -1.98,7.525 -1.98,7.525 l 2.079,-1.584 c 0,0 2.278,-8.218 5.248,-9.109 2.971,-0.891 -3.069,7.723 -3.069,7.723 l 1.98,-1.386 c 0,0 3.267,-7.427 5.941,-7.922 2.673,-0.495 -2.971,6.139 -2.971,6.139 l 2.476,-1.485 c 0,0 4.257,-7.723 5.743,-5.347 1.485,2.377 -5.941,5.842 -5.941,5.842 l -2.476,1.386 c 0,0 9.011,-4.257 10.1,-2.079 1.089,2.178 -12.377,3.565 -12.377,3.565 l -2.178,1.485 c 0,0 9.01,-2.476 7.921,-0.198 -1.089,2.277 -10,1.782 -10,1.782 l -2.08,1.485 c 0,0 9.01,-2.178 7.822,-0.099 -1.188,2.079 -10,1.881 -10,1.881 l -2.178,1.783 c 0,0 8.812,-2.278 7.525,0.396 -1.288,2.673 -11.288,2.574 -11.288,2.574 l -2.475,2.277 c 0,0 9.307,-3.168 8.515,-0.693 -0.792,2.476 -11.387,3.763 -11.387,3.763 l -2.376,2.376 c 0,0 10,-3.366 7.03,-0.297 -2.97,3.07 -10.198,3.862 -10.198,3.862 l -2.872,3.465 c 0,0 9.902,-5.941 8.515,-2.574 -1.386,3.366 -11.089,5.644 -11.089,5.644 l -1.98,2.376 c 0,0 8.911,-5.149 8.02,-2.277 -0.891,2.871 -10.397,5.94 -10.397,5.94 l -1.584,2.179 c 0,0 10.495,-6.238 9.604,-3.07 -0.891,3.169 -10.891,5.446 -10.891,5.446 l -1.287,1.98 c 0,0 9.703,-5.544 9.802,-2.871 0.099,2.673 -11.387,5.347 -11.387,5.347 z"
       id="path28" />
  </g>
  <g
     id="g43"
     transform="translate(0,-19.791855)">
    <path
       d="m 168.40979,495.13917 c 0,0 0,30.03437 0,47.36083 41.20229,0 122.0625,-31.57292 122.0625,-133.2275 0,-101.65458 -86.25167,-120.5225 -112.05104,-120.5225 -25.79792,0 -105.504583,18.48292 -105.504583,101.65458 0,83.17167 78.166663,90.87313 93.568123,90.87313 15.40146,0 73.16021,-13.86292 66.61521,-76.24167 0,17.71292 -20.02292,55.06375 -61.99521,55.06375 -41.97083,0 -68.15375,-31.19083 -68.15375,-61.99375 0,-30.80583 25.41292,-72.00667 69.69375,-72.00667 44.28083,0 76.62521,39.27438 76.62521,78.93667 0,39.66083 -31.18792,90.10313 -80.86021,90.10313 z"
       fill="#fdce12"
       id="path24"
       style="stroke-width:1.45833" />
    <use
       xlink:href="#frond"
       transform="matrix(-1,0,0,1,347.8125,0)"
       id="use31"
       x="0"
       y="0"
       width="100%"
       height="100%" />
  </g>
</svg>
