<?xml version="1.0" encoding="UTF-8" standalone="no"?>
<svg
   xmlns:dc="http://purl.org/dc/elements/1.1/"
   xmlns:cc="http://creativecommons.org/ns#"
   xmlns:rdf="http://www.w3.org/1999/02/22-rdf-syntax-ns#"
   xmlns:svg="http://www.w3.org/2000/svg"
   xmlns="http://www.w3.org/2000/svg"
   xmlns:sodipodi="http://sodipodi.sourceforge.net/DTD/sodipodi-0.dtd"
   xmlns:inkscape="http://www.inkscape.org/namespaces/inkscape"
   width="875"
   height="500"
   version="1.1"
   id="svg30"
   sodipodi:docname="Zimbabwe.svg"
   inkscape:version="1.0.2 (e86c8708, 2021-01-15)">
  <metadata
     id="metadata34">
    <rdf:RDF>
      <cc:Work
         rdf:about="">
        <dc:format>image/svg+xml</dc:format>
        <dc:type
           rdf:resource="http://purl.org/dc/dcmitype/StillImage" />
      </cc:Work>
    </rdf:RDF>
  </metadata>
  <sodipodi:namedview
     pagecolor="#ffffff"
     bordercolor="#666666"
     borderopacity="1"
     objecttolerance="10"
     gridtolerance="10"
     guidetolerance="10"
     inkscape:pageopacity="0"
     inkscape:pageshadow="2"
     inkscape:window-width="1344"
     inkscape:window-height="729"
     id="namedview32"
     showgrid="false"
     inkscape:zoom="0.57922501"
     inkscape:cx="617.16575"
     inkscape:cy="368.42747"
     inkscape:window-x="0"
     inkscape:window-y="25"
     inkscape:window-maximized="1"
     inkscape:current-layer="svg30"
     inkscape:document-rotation="0" />
  <defs
     id="defs5">
    <clipPath
       id="a">
      <path
         fill="#0000ff"
         fill-rule="evenodd"
         d="M 0,0 H 1260 V 630 H 0 Z"
         id="path2" />
    </clipPath>
  </defs>
  <path
     d="M 0,0 H 875 V 500 H 0 Z"
     fill="#006400"
     id="path7"
     style="stroke-width:0;stroke-miterlimit:4;stroke-dasharray:none" />
  <path
     d="M 0,71.428571 H 875 V 428.57143 H 0 Z"
     fill="#ffd200"
     id="path9"
     style="stroke-width:0;stroke-miterlimit:4;stroke-dasharray:none" />
  <path
     d="M 0,142.85714 H 875 V 357.14286 H 0 Z"
     fill="#d40000"
     id="path11"
     style="stroke-width:0;stroke-miterlimit:4;stroke-dasharray:none" />
  <path
     d="m 0,214.28571 h 875 v 71.42858 H 0 Z"
     id="path13"
     style="stroke-width:0;stroke-miterlimit:4;stroke-dasharray:none" />
  <path
     d="M 0,0 V 630 L 420,315 Z"
     clip-path="url(#a)"
     stroke="#000000"
     stroke-width="30"
     id="path15"
     transform="scale(0.79365079)" />
  <path
     d="M 0,0 V 500 L 333.33333,250 Z"
     fill="#ffffff"
     id="path17"
     style="stroke-width:0;stroke-miterlimit:4;stroke-dasharray:none"
     sodipodi:nodetypes="cccc" />
  <path
     d="M 126.80952,124.30317 192.83333,327.5 19.983333,201.91746 H 233.63651 L 60.787302,327.5 Z"
     fill="#d40000"
     id="path19"
     style="stroke-width:0;stroke-miterlimit:4;stroke-dasharray:none" />
  <path
     d="m 121.33023,173.54575 c -2.32391,-2.66136 -5.76428,-4.07451 -9.28821,-3.81404 -3.5236,0.25988 -6.71906,2.16346 -8.62682,5.13708 -2.02333,-0.0492 -4.046684,0.0994 -6.04097,0.44215 -1.865532,0.32098 -3.483786,1.47185 -4.39873,3.12932 -0.915873,1.65657 -1.027865,3.63977 -0.306294,5.38916 l 6.816675,-0.40423 c 2.792769,1.57602 4.555639,4.49995 4.647249,7.70529 l 0.76798,27.08771 c -1.31705,2.72062 -1.98231,5.71071 -1.94429,8.73373 0.0467,3.63918 0.33532,7.27058 0.86585,10.87174 0.53205,3.61612 -0.65688,7.27237 -3.21402,9.88371 -3.963436,4.04726 -7.409801,8.57085 -10.259777,13.466 -2.187992,3.76073 -1.802667,8.48524 0.965881,11.84088 l 7.766968,30.05207 h 58.293928 l 3.23499,-25.49792 c 1.37334,-10.82502 7.54573,-20.45605 16.8076,-26.22454 l 2.29398,0.6512 c 1.54099,0.43681 3.1757,-0.27752 3.90145,-1.70599 0.72544,-1.42842 0.33862,-3.17063 -0.92364,-4.15774 l -55.1443,-43.12066 -1.44936,-18.14919 c -0.33447,-4.18588 -2.00537,-8.1526 -4.76614,-11.31573"
     style="fill:#ffd200;fill-opacity:1;fill-rule:evenodd;stroke:none;stroke-width:0;stroke-miterlimit:4;stroke-dasharray:none"
     id="path636" />
  <path
     d="m 120.77156,174.03975 -0.0459,-0.0518 1.11707,-0.98772 0.0459,0.0518 z m -0.0459,-0.0518 c -0.3012,-0.34101 -0.62965,-0.66529 -0.97513,-0.96676 l 0.98293,-1.12363 c 0.38623,0.33709 0.75864,0.70627 1.10927,1.10267 z m 0.009,-2.0928 v 0.002 l -0.49131,0.562 z m -0.98292,1.12874 c -0.3461,-0.3012 -0.70781,-0.57727 -1.07693,-0.82247 l 0.82483,-1.24578 c 0.43469,0.28863 0.84792,0.60265 1.23503,0.9395 z m -1.07693,-0.82247 c -1.9159,-1.27305 -4.22664,-1.8943 -6.57931,-1.72095 l -0.10532,-1.49728 c 2.6778,-0.19758 5.31641,0.51523 7.50918,1.97243 z m -6.57898,-1.72093 -0.0687,0.006 -0.10505,-1.49729 0.0687,-0.006 z m -0.17984,-1.49221 h 0.007 l 0.0525,0.74847 z m 0.11695,1.4973 c -0.47696,0.0374 -0.93081,0.10328 -1.35627,0.19427 l -0.31045,-1.46165 c 0.52458,-0.11194 1.044,-0.1901 1.54967,-0.2299 z m -1.35627,0.19427 c -0.44369,0.094 -0.88081,0.21888 -1.30507,0.36917 l -0.49725,-1.40897 c 0.48443,-0.17126 0.98441,-0.31316 1.4919,-0.42188 z m -1.30507,0.36917 c -2.17004,0.76798 -4.05503,2.24219 -5.32658,4.22301 l -1.25746,-0.80626 c 1.45208,-2.26344 3.60595,-3.94815 6.08676,-4.82569 z m -5.32658,4.22301 -0.6467,0.3455 0.0178,-0.7488 z m -0.6467,0.3455 c -0.073,-0.002 -0.14844,-0.003 -0.20003,-0.003 l 0.0178,-1.49699 c 0.0883,7.9e-4 0.1554,0.003 0.21914,0.003 l -0.0356,1.49728 z m -0.20003,-0.003 h -0.002 l 0.011,-0.74846 z m -0.002,0 c -0.2748,-0.003 -0.55147,-0.006 -0.82304,-0.003 l -0.011,-1.49699 c 0.28687,-0.002 0.57635,-0.002 0.85899,0.003 z m -0.82304,-0.003 c -0.25988,0.002 -0.53655,0.009 -0.8201,0.0178 l -0.0525,-1.497 c 0.2748,-0.009 0.5626,-0.0178 0.86046,-0.0178 z m -0.8201,0.0178 c -1.36377,0.0484 -2.720038,0.19011 -4.050554,0.41858 l -0.251468,-1.47334 c 1.412254,-0.24281 2.833802,-0.39134 4.249642,-0.44225 z m -4.050554,0.41858 -0.02968,0.006 -0.251214,-1.47334 0.02968,-0.006 0.251468,1.47334 z m -0.284484,-1.46826 h 0.0024 l 0.125777,0.73649 -0.129079,-0.73649 z m 0.258087,1.47334 c -0.234405,0.0407 -0.461095,0.0968 -0.675714,0.16287 l -0.437683,-1.42753 c 0.283215,-0.0874 0.571,-0.15871 0.855381,-0.2087 z m -0.675714,0.16287 c -0.211326,0.0653 -0.426889,0.14937 -0.639834,0.24518 l -0.614357,-1.36285 c 0.257738,-0.11644 0.530262,-0.22159 0.816429,-0.30986 z m -1.256865,-1.11765 h 0.0024 l 0.30715,0.68141 z m 0.619452,1.36285 c -1.061659,0.48289 -1.955976,1.2985 -2.529921,2.3392 l -1.310174,-0.71977 c 0.732341,-1.32902 1.870357,-2.36884 3.220635,-2.9823 z m -3.842786,1.62543 0.0024,-0.006 0.655096,0.35985 z m 1.315564,0.70781 -0.04071,0.0756 -1.315564,-0.7078 0.04071,-0.0756 z m -1.35627,-0.62905 v -0.003 l 0.657722,0.35391 L 92.2795,178.165 Z m 1.315556,0.70118 c -0.10354,0.19428 -0.200294,0.40567 -0.285326,0.62965 l -1.396698,-0.5329 c 0.09811,-0.25986 0.222952,-0.52873 0.366468,-0.79793 z m -1.682024,0.1 v -0.003 l 0.698214,0.26649 -0.698214,-0.26319 z m 1.396698,0.52635 c -0.08149,0.21616 -0.150905,0.43682 -0.205476,0.65688 l -1.449365,-0.35662 c 0.06873,-0.27997 0.156079,-0.55749 0.258087,-0.82661 z m -1.654778,0.30299 v -0.002 l 0.724865,0.17814 z m 1.449373,0.35119 c -0.273952,1.11854 -0.190611,2.31104 0.257231,3.39905 l -1.379937,0.56676 c -0.56946,-1.38232 -0.674532,-2.89549 -0.326659,-4.31703 z m -0.388611,4.43108 -0.734111,-0.46526 0.690151,-0.2832 z m -0.08826,-1.49699 6.816699,-0.40424 0.08827,1.4973 -6.816683,0.40389 z m 6.816699,-0.40424 0.406611,0.0968 -0.362214,0.65179 z m 0.406611,0.0968 c 0.101762,0.0569 0.146143,0.0823 0.172196,0.0976 l -0.761942,1.28651 c -0.07556,-0.0441 -0.13673,-0.0806 -0.13673,-0.0806 l 0.724865,-1.30358 z m 0.172196,0.0976 c 0.4117,0.24281 0.80566,0.51703 1.17544,0.815 l -0.93501,1.16435 c -0.311729,-0.2512 -0.646705,-0.48382 -1.000586,-0.69253 z m 1.17544,0.815 c 0.36859,0.29704 0.71646,0.62039 1.03562,0.96496 l -1.09311,1.01675 c -0.27004,-0.29127 -0.56436,-0.56522 -0.87752,-0.81737 z m 1.03562,0.96496 c 1.61585,1.73531 2.58079,4.0245 2.65026,6.4592 l -1.49698,0.0407 c -0.0586,-2.07003 -0.87663,-4.01253 -2.24639,-5.48316 z m 2.65026,6.4592 0.76823,27.08742 -1.4973,0.0407 -0.76798,-27.08771 z m 0.76823,27.08742 -0.0764,0.34457 -0.6725,-0.32396 0.74879,-0.0203 z m -0.0764,0.34457 c -0.0433,0.09 -0.1044,0.22007 -0.1655,0.35331 l -1.35628,-0.62633 c 0.0492,-0.10778 0.1044,-0.22516 0.17722,-0.37513 z m -1.52187,-0.2698 v -0.002 l 0.67811,0.31317 -0.67811,-0.30986 z m 1.35627,0.61946 c -0.16456,0.359 -0.32097,0.73257 -0.46677,1.11107 l -1.3919,-0.538 c 0.15182,-0.39463 0.32002,-0.79461 0.50233,-1.1925 z m -1.86134,0.5754 0.002,-0.002 0.69584,0.26886 z m 1.39699,0.53298 c -0.14351,0.37427 -0.2748,0.75354 -0.39371,1.13381 l -1.42752,-0.44462 c 0.12824,-0.40984 0.26972,-0.81891 0.42427,-1.22215 z m -0.39371,1.13381 c -0.58228,1.87065 -0.86915,3.83288 -0.84461,5.80951 l -1.49699,0.0178 c -0.0272,-2.12843 0.28355,-4.24665 0.91407,-6.27089 l 1.42751,0.44463 z m -0.84461,5.80951 c 7.9e-4,0.12645 0.002,0.25537 0.007,0.39371 l -1.49697,0.0238 c -0.002,-0.12484 -0.002,-0.26376 -0.007,-0.40058 l 1.497,-0.0179 z m 0.007,0.39371 c 0.009,0.48536 0.0203,0.98682 0.0407,1.49699 l -1.497,0.0525 c -0.0178,-0.49402 -0.0323,-1.00479 -0.0407,-1.52603 l 1.49698,-0.0238 z m 0.0407,1.49699 c 0.0161,0.47696 0.0398,0.97694 0.0687,1.4964 l -1.49698,0.0815 c -0.0272,-0.48562 -0.0501,-0.99552 -0.0687,-1.52514 z m 0.0687,1.4964 c 0.13588,2.4832 0.38352,4.94843 0.74158,7.38523 l -1.47993,0.21556 c -0.36825,-2.50625 -0.62217,-5.0167 -0.75864,-7.51936 z m 0.74158,7.38523 0.007,0.0348 -1.47992,0.21556 -0.007,-0.0348 z m 0.007,0.0348 v 0.002 l -0.7398,0.10532 z m 0,0.002 c 0.0781,0.54162 0.12059,1.08233 0.12756,1.61345 l -1.49728,0.0178 c -0.007,-0.47544 -0.0433,-0.95148 -0.11026,-1.42004 l 1.47993,-0.21039 z m 0.12756,1.61345 c 0.007,0.52872 -0.0205,1.06435 -0.0832,1.59638 l -1.48533,-0.16974 c 0.0525,-0.45897 0.0771,-0.93261 0.0713,-1.40956 l 1.4973,-0.0178 z m -0.0832,1.59638 c -0.31588,2.70894 -1.51914,5.2745 -3.47123,7.26818 l -1.06405,-1.0473 c 1.71495,-1.75177 2.7724,-4.00742 3.04995,-6.39065 z m -3.47123,7.26818 -0.002,0.007 -0.52966,-0.52966 z m -0.002,0.007 c -0.0203,0.0203 0.12645,-0.16728 0.0865,-0.10685 l -1.245791,-0.83018 c 0.04325,-0.0653 0.07301,-0.095 0.09988,-0.12213 z m 0.0865,-0.10685 -0.0909,0.10846 -0.53204,-0.52364 z m -0.0909,0.10846 c -0.51319,0.52458 -1.05209,1.0958 -1.613145,1.70927 l -1.105095,-1.01136 c 0.506572,-0.55454 1.058389,-1.13654 1.65416,-1.7452 z m -2.71824,0.70026 v -0.002 l 0.552413,0.50565 z m 1.105095,1.00658 c -0.540706,0.59222 -1.061674,1.18232 -1.557468,1.76345 L 96.834786,250.739 c 0.530508,-0.62183 1.060754,-1.22363 1.586206,-1.79908 z m -2.694579,0.79251 h 0.0024 l 0.567,0.48561 -0.57031,-0.48561 z m 1.14069,0.97095 c -2.614047,3.07153 -4.94965,6.36519 -6.972079,9.83879 l -1.291603,-0.74845 c 2.077524,-3.56853 4.463127,-6.93614 7.122992,-10.06127 z m -8.267269,9.09032 h 0.0024 l 0.645761,0.37426 -0.64942,-0.37426 z m 1.298492,0.74845 -0.02968,0.0501 -1.298508,-0.7488 0.02968,-0.0501 z m -0.02968,0.0501 c -0.285928,0.49733 -0.52127,1.00479 -0.705436,1.51047 l -1.403564,-0.5093 c 0.220746,-0.60749 0.49131,-1.1949 0.810492,-1.74997 z m -0.705436,1.51047 c -0.188413,0.51947 -0.331738,1.05089 -0.426627,1.58111 l -1.468619,-0.26275 c 0.111174,-0.62031 0.27573,-1.2329 0.491293,-1.82721 z m -0.426627,1.58111 c -0.493096,2.73801 0.212849,5.62089 2.053579,7.85142 l -1.152381,0.94699 c -2.123714,-2.5729 -2.938682,-5.90131 -2.369817,-9.06115 z m 2.053579,7.85142 0.146143,0.28593 -0.722143,0.18748 z m 0.146143,0.28593 7.767286,30.05204 -1.444588,0.37511 -7.767278,-30.05203 z m 7.044841,30.98796 -0.722143,-0.56073 0.722143,-0.18773 z m 0,-1.49698 h 58.293471 v 1.49698 H 99.083615 Z m 59.033741,0.8419 -0.7398,0.6551 v -0.74846 z m -1.47993,-0.18681 3.235,-25.4979 1.48023,0.18679 -3.2353,25.49791 z m 4.71792,-25.31377 -0.002,0.002 -0.74013,-0.0934 z m -1.48566,-0.18102 c 0.011,-0.091 -0.0203,0.18229 0.009,-0.0459 l 1.48022,0.19333 c -0.0272,0.20275 0.011,-0.084 -0.002,0.034 l -1.4853,-0.18144 z m 1.48769,0.14436 v 0.002 l -0.74013,-0.0967 0.74013,0.0934 z m -1.48022,-0.1868 c 0.19876,-1.55656 0.49308,-3.0799 0.87425,-4.55652 l 1.44969,0.36824 c -0.37189,1.44011 -0.65595,2.90325 -0.84368,4.37511 z m 0.87425,-4.55652 c 0.38531,-1.49371 0.86227,-2.95538 1.42332,-4.3724 l 1.39192,0.54968 c -0.53985,1.36555 -0.99819,2.76613 -1.36555,4.19097 z m 1.42332,-4.3724 c 2.88711,-7.29454 8.0541,-13.56394 14.85015,-17.79713 l 0.78953,1.26975 c -6.5197,4.06103 -11.47682,10.07713 -14.24774,17.07706 z m 14.85015,-17.79713 0.5967,-0.0849 -0.20189,0.71943 z m 0.5967,-0.0849 2.29399,0.65086 -0.40388,1.4392 -2.29398,-0.65094 z m 2.29399,0.65086 h 0.002 l -0.20454,0.71977 z m 0.002,0 0.0178,0.007 -0.40898,1.43923 -0.0178,-0.007 z m -0.38531,1.4443 h -0.007 l 0.20454,-0.71944 z m 0.39702,-1.43923 c 0.15446,0.0424 0.32512,0.0713 0.50599,0.084 l -0.1105,1.49729 c -0.25028,-0.0178 -0.51762,-0.0662 -0.79251,-0.14189 z m 0.50599,0.084 c 0.17719,0.011 0.34609,0.009 0.50064,-0.009 l 0.17491,1.4853 c -0.26648,0.0314 -0.53111,0.039 -0.78588,0.0203 z m 0.50064,-0.009 c 0.84189,-0.0999 1.60923,-0.6102 2.01134,-1.40298 l 1.33443,0.67217 c -0.63594,1.25268 -1.84522,2.05746 -3.17095,2.21611 z m 3.34814,-0.73327 -0.002,0.002 -0.66706,-0.33591 z m -1.3392,-0.66706 0.009,-0.0179 1.33921,0.66708 -0.009,0.0178 z m 0.009,-0.0179 c 0.0798,-0.16056 0.14258,-0.32274 0.18594,-0.48051 l 1.43952,0.39727 c -0.0713,0.25867 -0.16728,0.5126 -0.28626,0.75023 z m 1.62784,-0.086 -0.002,0.002 -0.71977,-0.19869 z m -1.44461,-0.39192 c 0.0416,-0.15539 0.0705,-0.3219 0.0832,-0.49401 l 1.49729,0.11024 c -0.0178,0.253 -0.0653,0.51439 -0.13587,0.77578 z m 1.58052,-0.38623 v 0.002 l -0.7488,-0.0552 z m -1.49728,-0.10532 c 0.0628,-0.84939 -0.29009,-1.70148 -0.98862,-2.24818 l 0.91826,-1.17603 c 1.10597,0.86467 1.66525,2.20237 1.56764,3.5296 z m -0.98862,-2.24818 -55.14425,-43.12076 0.91825,-1.17633 55.14426,43.12106 z m -55.14425,-43.12076 -0.28958,-0.52966 0.74854,-0.0586 z m -0.28958,-0.52966 -1.44936,-18.14918 1.49697,-0.11703 1.44968,18.14919 z m -1.44936,-18.14918 -0.007,-0.0636 1.49699,-0.11737 0.007,0.0636 z m 1.4919,-0.18323 v 0.002 l -0.74854,0.0586 z m -1.497,0.12212 c -0.0484,-0.5889 -0.11966,-1.14908 -0.21132,-1.67513 l 1.47334,-0.25146 c 0.10778,0.62064 0.18747,1.22572 0.235,1.80447 z m -0.21132,-1.67513 c -0.0952,-0.54851 -0.21735,-1.09579 -0.36231,-1.6374 l 1.4443,-0.38505 c 0.15625,0.57966 0.28685,1.17184 0.39133,1.77094 z m -0.36231,-1.6374 c -0.74013,-2.76226 -2.10415,-5.33558 -4.00084,-7.50891 l 1.12364,-0.98293 c 2.04968,2.34908 3.523,5.12689 4.3215,8.1068"
     style="fill:#000000;fill-opacity:1;fill-rule:nonzero;stroke:none;stroke-width:0;stroke-miterlimit:4;stroke-dasharray:none"
     id="path638" />
  <path
     d="m 121.18085,222.79426 c -0.007,0.0161 0.011,-0.0314 -0.009,0.0297 l -1.43262,-0.43292 c 0.007,-0.0204 0.011,-0.0331 0.0314,-0.0872 l 1.40897,0.49036 z m -0.009,0.0297 -0.007,0.0179 -0.71017,-0.23441 z m -0.007,0.0179 c -0.13401,0.40295 -0.24247,0.80269 -0.3242,1.19312 l -1.46135,-0.30392 c 0.0977,-0.46677 0.2198,-0.92064 0.36501,-1.35775 z m -0.3242,1.19312 c -0.0849,0.40567 -0.14665,0.81228 -0.18416,1.21106 l -1.485,-0.13411 c 0.0433,-0.46677 0.1138,-0.92933 0.20766,-1.38084 z m -0.18416,1.21106 c -0.19512,2.07421 0.21217,4.18227 1.19939,6.05891 l -1.32245,0.69575 c -1.1215,-2.13227 -1.58317,-4.52893 -1.3616,-6.88849 z m 1.19939,6.05891 0.009,0.0161 -1.32215,0.69584 -0.009,-0.0161 1.32243,-0.69575 z m 0.009,0.0161 c 0.19332,0.3674 0.40838,0.72215 0.63981,1.05987 l -1.23307,0.84123 c -0.26403,-0.38532 -0.50836,-0.7892 -0.72809,-1.206 z m 0.63981,1.05987 c 0.23357,0.34134 0.48562,0.668 0.74881,0.97275 l -1.12903,0.97575 c -0.30536,-0.35389 -0.59315,-0.72545 -0.8536,-1.10658 z m 0.74881,0.97275 c 1.36974,1.58351 3.18499,2.75206 5.23524,3.3326 l -0.40389,1.43949 c -2.33202,-0.66046 -4.39876,-1.99097 -5.96041,-3.79634"
     style="fill:#000000;fill-opacity:1;fill-rule:nonzero;stroke:none;stroke-width:0;stroke-miterlimit:4;stroke-dasharray:none"
     id="path870" />
  <path
     d="m 127.9667,203.62743 -22.63687,15.46899 -0.8419,-1.23383 22.63717,-15.46898"
     style="fill:#000000;fill-opacity:1;fill-rule:nonzero;stroke:none;stroke-width:0;stroke-miterlimit:4;stroke-dasharray:none"
     id="path872" />
  <path
     d="m 115.51146,179.09298 c 0,-1.64069 -1.32994,-2.97062 -2.97033,-2.97062 -1.64038,0 -2.97033,1.32993 -2.97033,2.97062 0,1.6404 1.32995,2.97033 2.97033,2.97033 1.64039,0 2.97033,-1.32993 2.97033,-2.97033"
     style="fill:#ffd200;fill-opacity:1;fill-rule:evenodd;stroke:none;stroke-width:0;stroke-miterlimit:4;stroke-dasharray:none"
     id="path874" />
  <path
     d="m 114.76296,179.09298 v -0.006 h 1.49697 v 0.006 z m 0,-0.006 c -7.8e-4,-0.612 -0.24942,-1.16797 -0.64908,-1.56676 l 1.0524,-1.05927 c 0.6736,0.67309 1.0922,1.60238 1.09369,2.62603 z m -0.64908,-1.56676 c -0.39904,-0.39821 -0.95326,-0.64755 -1.56255,-0.64942 l 0.007,-1.49699 c 1.01674,0.003 1.94009,0.41917 2.60985,1.08711 l -1.05242,1.0593 z m -1.56018,-2.14639 h 0.002 l -0.002,0.74846 z m 0,1.497 h -0.011 v -1.497 h 0.011 z m -0.011,0 h -0.007 v -1.497 h 0.007 z m -0.007,0 c -0.61199,7.7e-4 -1.16765,0.24969 -1.56674,0.64942 l -1.05897,-1.05239 c 0.67301,-0.67394 1.60238,-1.09219 2.62571,-1.094 z m -1.56674,0.64942 c -0.39786,0.39879 -0.6473,0.95298 -0.64907,1.56254 l -1.497,-0.006 c 0.002,-1.01735 0.41916,-1.9407 1.08712,-2.60956 l 1.05898,1.0524 z m -2.1461,1.55985 v -0.002 l 0.74855,0.002 z m 1.497,0 v 0.0118 h -1.497 v -0.0118 z m 0,0.0118 v 0.006 h -1.497 v -0.006 z m 0,0.006 c 7.9e-4,0.61283 0.24944,1.16795 0.64907,1.56675 l -1.05238,1.05927 c -0.6737,-0.67309 -1.09221,-1.60327 -1.09371,-2.62602 z m 0.64907,1.56675 c 0.39906,0.3982 0.95329,0.64764 1.56255,0.64942 l -0.007,1.49698 c -1.01766,-0.003 -1.941,-0.41916 -2.60986,-1.08711 l 1.05316,-1.05918 z m 1.55985,2.14639 h -0.002 l 0.002,-0.74846 z m 0,-1.497 h 0.011 v 1.497 h -0.011 z m 0.011,0 h 0.007 v 1.497 h -0.007 z m 0.007,0 c 0.61259,-7.8e-4 1.16765,-0.24969 1.56676,-0.64942 l 1.059,1.05241 c -0.67309,0.67393 -1.60298,1.0922 -2.62573,1.09401 z m 1.56676,-0.64942 c 0.39786,-0.39879 0.64729,-0.95298 0.64907,-1.56225 l 1.497,0.006 c -0.002,1.01645 -0.41916,1.94009 -1.0871,2.60955 l -1.05897,-1.05239 z m 2.14608,-1.55985 v 0.002 l -0.74845,-0.002 z m -1.497,0 v -0.0118 h 1.497 v 0.0118"
     style="fill:#000000;fill-opacity:1;fill-rule:nonzero;stroke:none;stroke-width:0;stroke-miterlimit:4;stroke-dasharray:none"
     id="path876" />
  <path
     d="m 109.50373,249.99874 0.0525,-0.0272 0.66708,1.33921 -0.0525,0.0271 -0.66706,-1.33949 z m 0.72215,1.31047 -0.002,0.002 -0.33353,-0.66978 z m -0.67216,-1.33411 c 0.61284,-0.30986 1.19161,-0.66614 1.72634,-1.06256 l 0.8892,1.19848 c -0.60749,0.44972 -1.25837,0.85209 -1.94339,1.19819 z m 1.72634,-1.06256 c 0.53619,-0.39702 1.03769,-0.83919 1.4961,-1.31617 l 1.07602,1.03532 c -0.5126,0.5329 -1.07602,1.03023 -1.68292,1.47933 z m 1.4961,-1.31617 c 2.34337,-2.43679 3.59155,-5.81698 3.28706,-9.32024 l 1.49699,-0.12907 c 0.34279,3.93437 -1.06496,7.73642 -3.70803,10.48459"
     style="fill:#000000;fill-opacity:1;fill-rule:nonzero;stroke:none;stroke-width:0;stroke-miterlimit:4;stroke-dasharray:none"
     id="path878" />
  <path
     d="m 119.77517,234.19564 -0.0525,0.0272 -0.66707,-1.3392 0.0526,-0.0272 0.66707,1.3395 z m -0.72546,-1.31047 0.007,-0.002 0.33353,0.66979 z m 0.67904,1.33411 c -0.21311,0.10958 -0.40839,0.22991 -0.57906,0.35806 l -0.89431,-1.1931 c 0.25537,-0.19197 0.52186,-0.35985 0.79428,-0.49912 z m -0.57906,0.35806 c -0.17806,0.13317 -0.34702,0.2844 -0.50064,0.44548 l -1.08112,-1.02842 c 0.20768,-0.2183 0.43953,-0.42461 0.68744,-0.61022 z m -0.50064,0.44548 c -0.77749,0.81643 -1.19068,1.94966 -1.08891,3.12421 l -1.49699,0.12909 c -0.13927,-1.60238 0.43206,-3.15478 1.50478,-4.28169"
     style="fill:#000000;fill-opacity:1;fill-rule:nonzero;stroke:none;stroke-width:0;stroke-miterlimit:4;stroke-dasharray:none"
     id="path880" />
  <path
     d="m 128.18075,256.16215 -0.011,0.007 -0.55504,-1.38681 0.011,-0.007 z m -0.011,0.007 c -0.77128,0.31046 -1.57245,0.6389 -2.3916,0.97843 l -0.57439,-1.38066 c 0.77664,-0.32155 1.58021,-0.65093 2.41014,-0.98531 z m -2.3916,0.97843 c -0.79844,0.33116 -1.59457,0.66707 -2.38469,1.0039 l -0.5856,-1.37485 c 0.79845,-0.34101 1.59968,-0.67879 2.39669,-1.00896 z m -2.38469,1.0039 c -4.06792,1.73559 -8.09811,3.58167 -12.08368,5.53435 l -0.65588,-1.34503 c 3.99486,-1.95716 8.04812,-3.81404 12.15315,-5.56491"
     style="fill:#000000;fill-opacity:1;fill-rule:nonzero;stroke:none;stroke-width:0;stroke-miterlimit:4;stroke-dasharray:none"
     id="path882" />
  <path
     d="m 127.63407,254.77265 0.0272,-0.009 0.53798,1.3919 -0.0272,0.009 z m 0.57634,1.37932 -0.011,0.002 -0.26886,-0.69575 z m -0.5619,-1.38681 c 0.85148,-0.34456 1.66524,-0.74429 2.4332,-1.1916 l 0.74879,1.29159 c -0.8413,0.48978 -1.71794,0.92095 -2.62002,1.28682 z m 2.4332,-1.1916 c 0.75957,-0.44132 1.49818,-0.94642 2.20654,-1.50567 l 0.93023,1.17632 c -0.74012,0.58381 -1.5386,1.12723 -2.38799,1.62094 z m 2.20649,-1.50567 c 3.5817,-2.82693 6.07928,-6.89125 6.92117,-11.48941 l 1.46826,0.26829 c -0.90896,4.96729 -3.60086,9.35226 -7.4592,12.39744"
     style="fill:#000000;fill-opacity:1;fill-rule:nonzero;stroke:none;stroke-width:0;stroke-miterlimit:4;stroke-dasharray:none"
     id="path884" />
  <path
     d="m 120.27187,257.93996 h 48.64585 v 1.49729 h -48.64585"
     style="fill:#000000;fill-opacity:1;fill-rule:nonzero;stroke:none;stroke-width:0;stroke-miterlimit:4;stroke-dasharray:none"
     id="path886" />
  <path
     d="m 131.48372,267.81111 c 0,-3.11552 -2.52571,-5.64124 -5.64035,-5.64124 -3.11554,0 -5.64037,2.52572 -5.64037,5.64124 0,3.11464 2.52483,5.64036 5.64037,5.64036 3.11464,0 5.64035,-2.52572 5.64035,-5.64036"
     style="fill:#ffd200;fill-opacity:1;fill-rule:evenodd;stroke:none;stroke-width:0;stroke-miterlimit:4;stroke-dasharray:none"
     id="path888" />
  <path
     d="m 130.73521,267.81111 v -0.007 h 1.497 v 0.007 z m 0,-0.007 c -7.7e-4,-1.3476 -0.55088,-2.57153 -1.435,-3.45566 l 1.05898,-1.05927 c 1.15418,1.15418 1.87152,2.75236 1.87302,4.51493 z m -0.37935,-4.51493 h 0.002 l -0.52934,0.52967 0.52602,-0.52967 z m -1.05239,1.05927 c -0.88257,-0.88114 -2.10203,-1.42842 -3.44724,-1.43112 v -1.497 c 1.75598,0.002 3.34729,0.71798 4.49966,1.86885 z m -3.44724,-1.43112 h -0.011 v -1.497 h 0.011 z m -0.011,0 h -0.007 v -1.497 h 0.007 z m -0.007,0 c -1.35029,7.9e-4 -2.57302,0.54816 -3.45476,1.43171 l -1.05927,-1.05238 c 1.15599,-1.15746 2.75387,-1.87454 4.51403,-1.87633 z m -3.45476,1.43171 c -0.88113,0.88264 -1.42841,2.10239 -1.43111,3.44847 h -1.497 c 0.002,-1.75687 0.71799,-3.34815 1.86884,-4.50085 z m -1.43111,3.44847 v 0.011 h -1.497 v -0.011 z m 0,0.011 v 0.007 h -1.497 v -0.007 z m 0,0.007 c 7.9e-4,1.34939 0.5491,2.57332 1.43172,3.45506 l -1.05239,1.05897 c -1.15766,-1.1564 -1.87472,-2.75457 -1.87651,-4.51383 z m 1.43172,3.45506 c 0.88202,0.88082 2.10236,1.42811 3.44757,1.43082 v 1.49699 c -1.75598,-0.002 -3.34819,-0.71799 -4.49996,-1.86884 z m 3.44757,1.43082 h 0.011 v 1.49699 h -0.011 z m 0.011,0 h 0.007 v 1.49699 h -0.007 z m 0.007,0 c 1.347,-7.8e-4 2.57063,-0.55089 3.45506,-1.43502 l 1.05927,1.05897 c -1.15447,1.15417 -2.75236,1.87153 -4.51433,1.87304 z m 4.51433,-0.37936 v 0.002 l -0.52967,-0.52966 0.52967,0.52635 z m -1.05927,-1.05241 c 0.88081,-0.88263 1.42842,-2.10236 1.43082,-3.44725 h 1.49697 c -0.002,1.75567 -0.71798,3.34696 -1.86852,4.49966 z m 1.43082,-3.44725 v -0.011 h 1.49697 v 0.011"
     style="fill:#000000;fill-opacity:1;fill-rule:nonzero;stroke:none;stroke-width:0;stroke-miterlimit:4;stroke-dasharray:none"
     id="path890" />
  <path
     d="m 153.92567,267.81111 c 0,-3.11552 -2.52573,-5.64124 -5.64034,-5.64124 -3.11554,0 -5.64125,2.52572 -5.64125,5.64124 0,3.11464 2.52571,5.64036 5.64125,5.64036 3.11461,0 5.64034,-2.52572 5.64034,-5.64036"
     style="fill:#ffd200;fill-opacity:1;fill-rule:evenodd;stroke:none;stroke-width:0;stroke-miterlimit:4;stroke-dasharray:none"
     id="path892" />
  <path
     d="m 153.17717,267.81111 v -0.007 h 1.497 v 0.007 z m 0,-0.007 c -7.8e-4,-1.3476 -0.55088,-2.57153 -1.4353,-3.45566 l 1.05926,-1.05927 c 1.15417,1.15418 1.87125,2.75236 1.87304,4.51493 z m -0.37935,-4.51493 h 0.002 l -0.52967,0.52967 0.52635,-0.52967 z m -1.05239,1.05927 c -0.88264,-0.88114 -2.10238,-1.42842 -3.44756,-1.43112 v -1.497 c 1.75596,0.002 3.34725,0.71798 4.49995,1.86885 z m -3.44756,-1.43112 h -0.011 v -1.497 h 0.011 z m -0.011,0 h -0.007 v -1.497 h 0.007 z m -0.007,0 c -1.35029,7.9e-4 -2.57423,0.5491 -3.45596,1.43171 l -1.05896,-1.05238 c 1.15658,-1.15746 2.75386,-1.87454 4.51492,-1.87633 z m -3.45596,1.43171 c -0.88083,0.88264 -1.42841,2.10239 -1.43082,3.44847 h -1.49699 c 0.002,-1.75687 0.71799,-3.34815 1.86885,-4.50085 z m -1.43082,3.44847 v 0.011 h -1.49699 v -0.011 z m 0,0.011 v 0.007 h -1.49699 v -0.007 z m 0,0.007 c 7.9e-4,1.34939 0.54911,2.57332 1.43172,3.45506 l -1.05238,1.05897 c -1.15762,-1.1564 -1.875,-2.75457 -1.8765,-4.51383 z m 1.43172,3.45506 c 0.88263,0.88082 2.10207,1.42811 3.44816,1.43082 v 1.49699 c -1.75687,-0.002 -3.34785,-0.71799 -4.50054,-1.86884 z m 3.44816,1.43082 h 0.011 v 1.49699 h -0.011 z m 0.011,0 h 0.007 v 1.49699 h -0.007 z m 0.007,0 c 1.34668,-7.8e-4 2.57063,-0.55089 3.45474,-1.43502 l 1.05929,1.05897 c -1.15418,1.15417 -2.75238,1.87153 -4.51403,1.87304 z m 4.51403,-0.37936 v 0.002 l -0.52967,-0.52966 0.52967,0.52635 z m -1.05926,-1.05218 c 0.88113,-0.88263 1.42844,-2.10236 1.43114,-3.44726 h 1.49698 c -0.002,1.75568 -0.71799,3.34697 -1.86884,4.49967 z m 1.43114,-3.44726 v -0.011 h 1.49698 v 0.011"
     style="fill:#000000;fill-opacity:1;fill-rule:nonzero;stroke:none;stroke-width:0;stroke-miterlimit:4;stroke-dasharray:none"
     id="path894" />
  <path
     d="m 136.83216,247.8739 c 0.26402,0.079 0.52779,0.15362 0.7892,0.22389 l -0.38532,1.4443 c -0.27811,-0.0747 -0.55834,-0.15429 -0.83145,-0.23593 z m 0.7892,0.22389 c 0.41526,0.11118 0.81489,0.21132 1.19519,0.29696 l -0.32784,1.45629 c -0.43623,-0.0985 -0.8554,-0.20191 -1.25269,-0.30901 z m 1.19519,0.29696 c 0.40212,0.0898 0.80447,0.17313 1.20506,0.24697 l -0.26826,1.46826 c -0.42426,-0.0781 -0.84793,-0.1655 -1.26467,-0.25894 z m 1.20506,0.24697 c 1.87633,0.34465 3.79518,0.51346 5.7236,0.50241 l 0.007,1.49698 c -2.00387,0.011 -4.01342,-0.16701 -5.99692,-0.5311"
     style="fill:#000000;fill-opacity:1;fill-rule:nonzero;stroke:none;stroke-width:0;stroke-miterlimit:4;stroke-dasharray:none"
     id="path896" />
  <path
     d="m 145.74524,249.14427 c 0.26462,-7.9e-4 0.51855,-0.0161 0.75177,-0.0382 l 0.15267,1.48531 c -0.31045,0.0314 -0.61165,0.0484 -0.89941,0.0501 l -0.007,-1.49697 z m 0.75177,-0.0382 h 0.002 l 0.073,0.74276 -0.0764,-0.74276 z m 0.002,0 c 0.42188,-0.0416 0.84189,-0.1195 1.25207,-0.22729 l 0.37996,1.4443 c -0.47933,0.12663 -0.97752,0.21734 -1.48589,0.26826 z m 1.25207,-0.22729 c 0.40296,-0.10617 0.80176,-0.24696 1.18562,-0.41586 l 0.6024,1.36796 c -0.44972,0.19869 -0.92245,0.36408 -1.40808,0.49224 z m 1.18562,-0.41586 c 1.80925,-0.79784 3.30205,-2.25235 4.1254,-4.13228 l 1.36794,0.59578 c -0.97752,2.23292 -2.74726,3.95892 -4.89094,4.90443"
     style="fill:#000000;fill-opacity:1;fill-rule:nonzero;stroke:none;stroke-width:0;stroke-miterlimit:4;stroke-dasharray:none"
     id="path898" />
  <path
     d="m 177.21612,252.06369 -49.12967,-13.93787 0.40389,-1.43949 49.12967,13.93816"
     style="fill:#000000;fill-opacity:1;fill-rule:nonzero;stroke:none;stroke-width:0;stroke-miterlimit:4;stroke-dasharray:none"
     id="path900" />
  <path
     d="m 92.303325,276.09187 h 68.407615 v 1.49696 H 92.303325"
     style="fill:#000000;fill-opacity:1;fill-rule:nonzero;stroke:none;stroke-width:0;stroke-miterlimit:4;stroke-dasharray:none"
     id="path902" />
  <path
     d="m 108.09478,290.95905 h 50.72186 v 1.49699 h -50.72186"
     style="fill:#000000;fill-opacity:1;fill-rule:nonzero;stroke:none;stroke-width:0;stroke-miterlimit:4;stroke-dasharray:none"
     id="path904" />
  <path
     d="m 131.80693,285.8759 -5.53483,5.46068 -1.04729,-1.06404 5.53482,-5.46099"
     style="fill:#000000;fill-opacity:1;fill-rule:nonzero;stroke:none;stroke-width:0;stroke-miterlimit:4;stroke-dasharray:none"
     id="path906"
     sodipodi:nodetypes="cccc" />
  <path
     d="m 121.25959,285.34325 5.53542,5.46165 -1.0473,1.06404 -5.53541,-5.46133"
     style="fill:#000000;fill-opacity:1;fill-rule:nonzero;stroke:none;stroke-width:0;stroke-miterlimit:4;stroke-dasharray:none"
     id="path908"
     sodipodi:nodetypes="cccc" />
  <path
     d="m 121.7831,285.8759 -5.53574,5.46068 -1.04729,-1.06404 5.53572,-5.46099"
     style="fill:#000000;fill-opacity:1;fill-rule:nonzero;stroke:none;stroke-width:0;stroke-miterlimit:4;stroke-dasharray:none"
     id="path910"
     sodipodi:nodetypes="cccc" />
  <path
     d="m 111.23487,285.34325 5.5363,5.46165 -1.0473,1.06404 -5.5363,-5.46133"
     style="fill:#000000;fill-opacity:1;fill-rule:nonzero;stroke:none;stroke-width:0;stroke-miterlimit:4;stroke-dasharray:none"
     id="path912"
     sodipodi:nodetypes="cccc" />
  <path
     d="m 141.83076,285.8759 -5.53483,5.46068 -1.04729,-1.06404 5.53482,-5.46099"
     style="fill:#000000;fill-opacity:1;fill-rule:nonzero;stroke:none;stroke-width:0;stroke-miterlimit:4;stroke-dasharray:none"
     id="path914"
     sodipodi:nodetypes="cccc" />
  <path
     d="m 131.28343,285.34325 5.53541,4.92929 -1.0473,1.06404 -5.53541,-4.92897"
     style="fill:#000000;fill-opacity:1;fill-rule:nonzero;stroke:none;stroke-width:0;stroke-miterlimit:4;stroke-dasharray:none"
     id="path916"
     sodipodi:nodetypes="cccc" />
  <path
     d="m 151.85683,285.8759 -5.53617,5.46068 -1.04729,-1.06404 5.53617,-5.46099"
     style="fill:#000000;fill-opacity:1;fill-rule:nonzero;stroke:none;stroke-width:0;stroke-miterlimit:4;stroke-dasharray:none"
     id="path918"
     sodipodi:nodetypes="cccc" />
  <path
     d="m 141.30816,285.34325 5.53676,4.92929 -1.04729,1.06404 -5.53675,-4.92897"
     style="fill:#000000;fill-opacity:1;fill-rule:nonzero;stroke:none;stroke-width:0;stroke-miterlimit:4;stroke-dasharray:none"
     id="path920"
     sodipodi:nodetypes="cccc" />
  <path
     d="m 159.89775,287.84261 -3.55263,3.49397 -1.0473,-1.06404 3.55264,-3.49398"
     style="fill:#000000;fill-opacity:1;fill-rule:nonzero;stroke:none;stroke-width:0;stroke-miterlimit:4;stroke-dasharray:none"
     id="path922" />
  <path
     d="m 151.3329,285.34325 5.53585,5.46165 -1.04729,1.06404 -5.53586,-5.46133"
     style="fill:#000000;fill-opacity:1;fill-rule:nonzero;stroke:none;stroke-width:0;stroke-miterlimit:4;stroke-dasharray:none"
     id="path924"
     sodipodi:nodetypes="cccc" />
  <path
     d="m 131.80693,278.27944 -5.53483,5.46143 -1.04729,-1.06406 5.53482,-5.46174"
     style="fill:#000000;fill-opacity:1;fill-rule:nonzero;stroke:none;stroke-width:0;stroke-miterlimit:4;stroke-dasharray:none"
     id="path926"
     sodipodi:nodetypes="cccc" />
  <path
     d="m 121.25959,277.74752 5.53542,5.46091 -1.0473,1.06404 -5.53541,-5.46058"
     style="fill:#000000;fill-opacity:1;fill-rule:nonzero;stroke:none;stroke-width:0;stroke-miterlimit:4;stroke-dasharray:none"
     id="path928"
     sodipodi:nodetypes="cccc" />
  <path
     d="m 121.7831,278.27944 -5.53574,5.46143 -1.04729,-1.06406 5.53572,-5.46174"
     style="fill:#000000;fill-opacity:1;fill-rule:nonzero;stroke:none;stroke-width:0;stroke-miterlimit:4;stroke-dasharray:none"
     id="path930"
     sodipodi:nodetypes="cccc" />
  <path
     d="m 111.23487,277.74752 5.5363,5.46091 -1.0473,1.06404 -5.5363,-5.46058"
     style="fill:#000000;fill-opacity:1;fill-rule:nonzero;stroke:none;stroke-width:0;stroke-miterlimit:4;stroke-dasharray:none"
     id="path932"
     sodipodi:nodetypes="cccc" />
  <path
     d="m 141.83076,278.27944 -5.53483,5.46143 -1.04729,-1.06406 5.53482,-5.46174"
     style="fill:#000000;fill-opacity:1;fill-rule:nonzero;stroke:none;stroke-width:0;stroke-miterlimit:4;stroke-dasharray:none"
     id="path934"
     sodipodi:nodetypes="cccc" />
  <path
     d="m 131.28343,277.74752 5.53541,5.46091 -1.0473,1.06404 -5.53541,-5.46058"
     style="fill:#000000;fill-opacity:1;fill-rule:nonzero;stroke:none;stroke-width:0;stroke-miterlimit:4;stroke-dasharray:none"
     id="path936"
     sodipodi:nodetypes="cccc" />
  <path
     d="m 151.85683,278.27944 -5.53617,5.46143 -1.04729,-1.06406 5.53617,-5.46174"
     style="fill:#000000;fill-opacity:1;fill-rule:nonzero;stroke:none;stroke-width:0;stroke-miterlimit:4;stroke-dasharray:none"
     id="path938"
     sodipodi:nodetypes="cccc" />
  <path
     d="m 141.30816,277.74752 5.53676,5.46091 -1.04729,1.06404 -5.53675,-5.46058"
     style="fill:#000000;fill-opacity:1;fill-rule:nonzero;stroke:none;stroke-width:0;stroke-miterlimit:4;stroke-dasharray:none"
     id="path940"
     sodipodi:nodetypes="cccc" />
  <path
     d="m 160.99956,279.16398 -4.65444,4.57689 -1.0473,-1.06406 4.65443,-4.5772"
     style="fill:#000000;fill-opacity:1;fill-rule:nonzero;stroke:none;stroke-width:0;stroke-miterlimit:4;stroke-dasharray:none"
     id="path942" />
  <path
     d="m 151.3329,277.74752 5.53585,5.46091 -1.04729,1.06404 -5.53586,-5.46058"
     style="fill:#000000;fill-opacity:1;fill-rule:nonzero;stroke:none;stroke-width:0;stroke-miterlimit:4;stroke-dasharray:none"
     id="path944"
     sodipodi:nodetypes="cccc" />
  <path
     d="m 106.08161,183.78515 -6.551705,0.38887 -0.08827,-1.49729 6.551995,-0.38861"
     style="fill:#000000;fill-opacity:1;fill-rule:nonzero;stroke:none;stroke-width:0;stroke-miterlimit:4;stroke-dasharray:none"
     id="path946" />
  <path
     d="m 110.15883,251.34394 -0.0203,0.009 -0.64313,-1.35088 0.0203,-0.009 0.6434,1.35089 z m -0.67631,-1.33471 0.011,-0.007 0.32156,0.67547 z m 0.66705,1.3392 c -1.27213,0.63559 -2.45954,1.38143 -3.54995,2.21494 l -0.90657,-1.1865 c 1.17214,-0.89612 2.43918,-1.69309 3.78948,-2.36764 z m -3.54995,2.21494 c -1.0916,0.83503 -2.09638,1.76796 -3.00445,2.7787 l -1.11168,-0.99997 c 0.96408,-1.07335 2.03832,-2.06884 3.20956,-2.96523 z m -3.00445,2.7787 c -4.65594,5.18289 -6.714003,12.41633 -5.147257,19.5375 l -1.461405,0.32097 c -1.673016,-7.60172 0.526008,-15.32408 5.496942,-20.85844"
     style="fill:#000000;fill-opacity:1;fill-rule:nonzero;stroke:none;stroke-width:0;stroke-miterlimit:4;stroke-dasharray:none"
     id="path948" />
  <path
     d="m 111.30791,263.6839 -0.0917,0.0451 -0.6551,-1.34427 0.0917,-0.045 z m -0.7527,-1.29668 0.007,-0.002 0.32751,0.67217 z m 0.66707,1.33922 c -0.6383,0.3191 -1.24162,0.6865 -1.80268,1.094 l -0.87753,-1.21019 c 0.62964,-0.45744 1.30357,-0.86823 2.01314,-1.22303 z m -1.80268,1.094 c -0.56531,0.41077 -1.0913,0.86374 -1.57093,1.34938 l -1.06407,-1.0473 c 0.54223,-0.54995 1.13111,-1.05746 1.75747,-1.51227 z m -1.57093,1.34938 c -2.46884,2.49848 -3.84786,6.11524 -3.66614,9.75528 l -1.47752,0.0529 c -0.20276,-4.05983 1.31943,-8.06249 4.07959,-10.85558"
     style="fill:#000000;fill-opacity:1;fill-rule:nonzero;stroke:none;stroke-width:0;stroke-miterlimit:4;stroke-dasharray:none"
     id="path950"
     sodipodi:nodetypes="ccccccccccccccccccccccc" />
  <path
     d="m 93.748524,268.8644 -1.403556,-0.0934 -0.02048,0.54995 c -0.0071,-0.0203 0.02381,-0.53891 0.02048,-0.54995 l 1.404159,0.0943 z m -1.423643,0.45658 1.426659,-0.44461 -1.406572,-0.10534 z m 1.426659,-0.44461 c 0.105317,0.35984 0.229055,0.71942 0.367389,1.07365 l -1.391619,0.54308 c -0.151143,-0.38709 -0.282604,-0.76493 -0.402358,-1.17215 z m 0.367389,1.07365 c 0.137658,0.35391 0.291269,0.7 0.456,1.03351 l -1.339215,0.66018 c -0.185936,-0.37749 -0.35746,-0.76288 -0.508357,-1.15058 z m 0.456,1.03351 c 0.852706,1.72872 2.083515,3.26075 3.608658,4.4727 l -0.930238,1.16945 c -1.696762,-1.34938 -3.067405,-3.05447 -4.017698,-4.98199"
     style="fill:#000000;fill-opacity:1;fill-rule:nonzero;stroke:none;stroke-width:0;stroke-miterlimit:4;stroke-dasharray:none"
     id="path952"
     sodipodi:nodetypes="cccccccccccccccccccccccc" />
  <path
     d="m 93.712921,269.36677 -1.714373,3.94548 -1.367945,-0.59578 1.714365,-3.94547"
     style="fill:#000000;fill-opacity:1;fill-rule:nonzero;stroke:none;stroke-width:0;stroke-miterlimit:4;stroke-dasharray:none"
     id="path954" />
  <path
     d="m 96.986508,276.20054 0.06706,-0.50896 1.339207,0.66708 -0.0071,0.0161 z m 1.406286,0.15812 -1.333223,-0.67903 v 0 z m -1.333223,-0.67903 c 0.185024,-0.35298 0.35985,-0.69848 0.524588,-1.03294 l 1.34427,0.65537 c -0.18077,0.36823 -0.362223,0.72723 -0.541627,1.06824 z m 0.524588,-1.03294 c 0.195103,-0.39786 0.364087,-0.74939 0.499698,-1.0455 l 1.356278,0.61946 c -0.190183,0.41442 -0.361365,0.77579 -0.511683,1.08144 z m 0.499698,-1.0455 c 0.825175,-1.7949 1.533826,-3.65115 2.119453,-5.55114 l 1.42722,0.43775 c -0.60146,1.95386 -1.33413,3.87001 -2.190395,5.73285"
     style="fill:#000000;fill-opacity:1;fill-rule:nonzero;stroke:none;stroke-width:0;stroke-miterlimit:4;stroke-dasharray:none"
     id="path956"
     sodipodi:nodetypes="ccccccccccccccccccccccc" />
  <path
     d="m 102.70562,275.97809 -0.007,-0.0203 1.45625,-0.3326 0.007,0.0203 z m 1.45117,-0.35807 v 0.002 l -0.72808,0.16643 0.72808,-0.16973 z m -1.45626,0.33923 c -0.0917,-0.39099 -0.18078,-0.75 -0.26224,-1.06408 l 1.44459,-0.37511 c 0.10506,0.40296 0.19689,0.76976 0.27395,1.09998 z m -0.26224,-1.06408 c -0.0781,-0.29788 -0.17628,-0.65085 -0.29281,-1.05656 l 1.43951,-0.40932 c 0.0883,0.30664 0.18841,0.67216 0.2979,1.09073 z m 1.14339,-1.46912 0.002,0.002 -0.71977,0.20478 0.71646,-0.20818 z m -1.43262,0.41586 c -0.51761,-1.78892 -1.15866,-3.55177 -1.91465,-5.27211 l -0.0314,-0.51974 1.39907,-0.0823 c 0.77664,1.76616 1.43862,3.59158 1.97934,5.45863"
     style="fill:#000000;fill-opacity:1;fill-rule:nonzero;stroke:none;stroke-width:0;stroke-miterlimit:4;stroke-dasharray:none"
     id="path958"
     sodipodi:nodetypes="cccccccccccccccccccccccccccccc" />
  <path
     d="m 109.50044,302.90328 -2.16738,-11.15018 1.4695,-0.28564 2.16736,11.15018"
     style="fill:#000000;fill-opacity:1;fill-rule:nonzero;stroke:none;stroke-width:0;stroke-miterlimit:4;stroke-dasharray:none"
     id="path960" />
  <path
     d="m 107.38701,291.94767 -5.08708,-14.86721 1.41555,-0.48019 5.08708,14.86719"
     style="fill:#000000;fill-opacity:1;fill-rule:nonzero;stroke:none;stroke-width:0;stroke-miterlimit:4;stroke-dasharray:none"
     id="path962" />
  <path
     d="m 111.75926,285.8759 -3.97497,3.92477 -1.04728,-1.06435 3.97495,-3.92477"
     style="fill:#000000;fill-opacity:1;fill-rule:nonzero;stroke:none;stroke-width:0;stroke-miterlimit:4;stroke-dasharray:none"
     id="path964"
     sodipodi:nodetypes="cccc" />
  <path
     d="m 111.75926,278.27944 -5.91925,5.83836 -1.04731,-1.06436 5.91926,-5.83837"
     style="fill:#000000;fill-opacity:1;fill-rule:nonzero;stroke:none;stroke-width:0;stroke-miterlimit:4;stroke-dasharray:none"
     id="path966"
     sodipodi:nodetypes="cccc" />
</svg>
