<?xml version="1.0" encoding="UTF-8" standalone="no"?>
<svg
   xmlns:dc="http://purl.org/dc/elements/1.1/"
   xmlns:cc="http://creativecommons.org/ns#"
   xmlns:rdf="http://www.w3.org/1999/02/22-rdf-syntax-ns#"
   xmlns:svg="http://www.w3.org/2000/svg"
   xmlns="http://www.w3.org/2000/svg"
   xmlns:sodipodi="http://sodipodi.sourceforge.net/DTD/sodipodi-0.dtd"
   xmlns:inkscape="http://www.inkscape.org/namespaces/inkscape"
   width="875"
   height="500"
   version="1.1"
   id="svg14"
   sodipodi:docname="Albania.svg"
   inkscape:version="1.0.2 (e86c8708, 2021-01-15)">
  <metadata
     id="metadata20">
    <rdf:RDF>
      <cc:Work
         rdf:about="">
        <dc:format>image/svg+xml</dc:format>
        <dc:type
           rdf:resource="http://purl.org/dc/dcmitype/StillImage" />
      </cc:Work>
    </rdf:RDF>
  </metadata>
  <defs
     id="defs18" />
  <sodipodi:namedview
     pagecolor="#ffffff"
     bordercolor="#666666"
     borderopacity="1"
     objecttolerance="10"
     gridtolerance="10"
     guidetolerance="10"
     inkscape:pageopacity="0"
     inkscape:pageshadow="2"
     inkscape:window-width="1344"
     inkscape:window-height="729"
     id="namedview16"
     showgrid="false"
     inkscape:snap-object-midpoints="true"
     inkscape:zoom="0.78428571"
     inkscape:cx="534.62659"
     inkscape:cy="293.898"
     inkscape:window-x="0"
     inkscape:window-y="25"
     inkscape:window-maximized="1"
     inkscape:current-layer="svg14" />
  <path
     d="M 875,0 H 0 v 500 h 875 z"
     fill="#ff0000"
     id="path10"
     style="stroke-width:0.798596" />
  <path
     d="m 456.43571,377.81732 c -4.39285,-3.80857 -9.71785,-11.52143 -9.64285,-18.95571 0.39285,-5.54357 4.195,-8.76429 6.65143,-1.99714 3.47285,7.46928 10.92142,19.82071 21.18571,12.575 4.48429,-3.29143 4.41429,-8.13715 -1.73429,-7.58143 -7.59285,-0.52 -12.25714,-4.69786 -15.655,-15.45429 -0.61785,-5.91571 1.84286,-5.76786 5.27643,-1.96214 4.41429,5.06428 13.19857,12.71857 22.89,8.61643 5.38572,-2.25715 6.90572,-6.91429 -1.23071,-8.06072 -7.70286,0.11215 -13.99072,-4.88143 -20.25,-12.49857 -3.43214,-4.21428 1.63,-8.46857 4.66928,-4.88143 2.71072,2.32857 6.50715,6.61857 9.76072,7.21 3.76214,0.73857 8.42571,0.37143 13.59286,-2.36428 5.57,-4.66215 3.76142,-8.02572 -3,-8.8 -5.24143,0.26 -8.09643,2.25214 -14.85715,-2.25715 -12.15285,-8.21428 -21.81428,-19.18928 -23.32357,-32.39071 -0.99143,-8.68286 3.67714,-11.31214 7.55857,-10.31286 10.55715,2.71572 17.46357,22.44429 24.76786,33.28215 2.39143,3.12357 4.58857,3.17428 6.14286,2.21142 2.93,-2.51214 5.27,-4.57714 8.2,-7.38571 0,0 21.48928,3.86143 33.19143,7.67571 l -13.03,4.63072 c -4.93358,-2.72429 -10.88786,0.21286 -10.88786,4.93928 -4.66857,3.22858 -4.29286,7.01358 -2.27857,10.66643 0.61428,-2.54357 1.13857,-5.84714 4.82643,-6.28643 5.26357,2.17715 11.39642,-0.93 11.39642,-5.04071 l 15.37072,-6.04143 15.52857,8.79143 c 0,5.94286 5.63071,7.82571 11.48929,6.22143 2.76071,1.71428 4.53571,4.68857 5.47071,7.86928 1.72857,-4.58714 1.36786,-7.82571 -1.33929,-10.07642 1.55358,-5.93072 -6.75714,-11.63358 -13.19071,-7.83572 l -11.17143,-6.41428 19.12143,-0.53572 c 2.21929,3.92857 10.24071,4.145 12.58071,0 2,-0.54786 3.69,-0.89643 7.58929,2.00214 -1.22857,-4.69 -3.62,-6.695 -7.20714,-6.695 -2.72572,-4.82928 -12.59,-4.80714 -14.01429,0.63 l -19.915,0.55358 11.81643,-8.41286 c 4.41071,2.60428 10.6,-0.29072 11.83929,-5.02143 1.75857,-2.09071 3.92714,-3.07286 8.19571,-1.65429 -2.2,-3.89642 -5.3,-5.05928 -10.89857,-2.41428 -5.10714,-3.87 -11.83857,0.82357 -10.81714,4.72 l -15.72143,10.69643 c -11.41143,-3.405 -32.07857,-8.70715 -32.07857,-8.70715 2.46071,-2.58857 4.95714,-4.99357 7.41357,-7.61785 0.88714,-1.53715 -0.46857,-3.32715 -2.35215,-3.7 -18.44,-3.80572 -28.99785,-11.23929 -35.395,-30.13286 -2.67571,-7.91286 3.10929,-10.27714 5.09715,-5.43714 2.75,6.73143 5.78428,14.08857 14.06428,19.78571 2.85572,1.99714 11.35643,0.36643 6.32857,-4.40286 -5.20714,-4.29 -7.44857,-6.13428 -10.01428,-16.56428 0,-5.28429 5.38571,-7.65357 8.39,-2.58857 3.21428,10.38928 3.54286,14.86285 9.36214,21.55714 4.40929,5.06571 10.15929,8.46929 13.01429,8.39286 5.13714,-0.0714 10.30857,-5.62143 3.43785,-9.65072 -10.08928,-4.03 -13.77642,-9.53785 -15.26142,-14.79143 -1.62429,-9.16642 0.15,-13.60428 5.68,-9.095 7.84285,8.91143 22.81428,25.51215 30.65714,33.24143 8.78928,6.73143 18.87357,6.95 26.9,0.11215 4.59428,-5.28858 2.96428,-10.98 -4.22929,-9.76215 -16.23285,1.37 -28.525,-6.69071 -42.01214,-28.47285 -2.64071,-4.91715 -3.36429,-11.97929 2.46071,-6.72572 6.72143,9.095 16.52143,16.82429 25.63572,20.15143 9.14714,3.28714 16.7,1.47143 19.62928,-1.40571 3.53072,-3.53 2.60215,-12.42286 -3.50714,-10.27858 -5.02714,1.77429 -12.11214,2.21715 -19.48571,-0.63071 -7.37929,-2.88429 -15.04286,-9.095 -23.17857,-19.63214 -2.78572,-5.95143 -1.87858,-10.98072 3.76071,-7.91429 13.34286,11.31786 30.55357,20.48429 39.33714,14.97643 6.47286,-4.03071 6.58215,-14.38429 -1.62428,-13.71714 -16.52643,2.25214 -22.77929,-1.40572 -38.65357,-15.41786 -3.61286,-2.70071 -3.36286,-9.54357 2.38571,-5.17714 13.34286,8.61643 31.56429,11.97857 38.72429,7.47 6.43785,-4.03072 5.49571,-16.34643 -5.35072,-11.98429 -8.67928,5.28857 -18.26071,5.14072 -37.45857,-8.57571 -4.84286,-4.03 -1.23071,-9.28357 2.74571,-7.02643 15.44072,8.8 37.93143,12.57 43.78572,-5.32429 2.27714,-6.83857 -1.84286,-10.83285 -7.88214,-6.1 -13.26858,12.275 -28.31072,6.24715 -36.73072,0.0714 -2.41143,-1.42143 -6.83571,-8.61571 0.93572,-7.28071 20.105,4.58571 39.99,0.59143 43.60714,-13.645 2.09786,-4.62143 -2.02857,-12.79429 -9.36643,-5.95143 -9.65143,9.53857 -19.88571,9.86928 -32.755,9.79786 -6.54714,-1.37 -6.61643,-8.58 -1.12143,-9.65 10.15929,0.21857 20.17429,-4.21929 28.20143,-8.72858 7.84714,-4.50928 14.35429,-10.83285 16.41714,-19.59642 1.26429,-7.83715 -6.29285,-16.157146 -10.84714,-7.83715 -6.72643,12.16286 -21.62357,23.62715 -38.18571,25.69643 -0.86215,-1.44286 -3.03429,-5.14143 -5.71,-4.10214 -4.86286,1.88571 -10.65715,4.40857 -16.62286,7.24214 -12.86,6.10643 -18.21929,9.04929 -16.675,19.6 1.61214,11.00929 -6.87572,17.96643 -13.88572,16.045 -6.11428,-1.64571 -9.48714,-7.16857 -8.39142,-16.74786 0.87785,-7.63285 8.54071,-16.86571 17.17571,-21.70714 5.59,-3.12857 14.03,-4.84 24.18929,-7.09714 6.18285,-1.21786 9.33214,-3.62286 9.69142,-6.14 0,0 -4.22642,3.09286 -10.99142,2.62857 -3.19858,-0.22857 -5.34143,-1.63571 -6.14858,-3.07143 2.35215,-0.47857 6.61715,0.0764 10.44858,0.0764 5.09642,-0.0407 16.93,-1.18214 20.06928,-8.35714 0.97643,-4.73286 -2.13357,-5.58357 -5.02714,-2.55215 -3.10929,3.27643 -4.39,6.22143 -10.62857,7.32143 -3.79572,0.66786 -7.59286,1.44286 -12.47572,0.26072 2.75,-3.26643 7.12,-6.60857 10.84715,-5.99286 1.22571,0.20429 2.855,1.33571 4.16,3.36857 0.79714,-5.17714 -0.61786,-11.021426 -14.46429,-8.580706 0.22,-3.91786 -8.02714,-5.62 -12.97857,-5.54357 -2.82,0.0714 -8.57,1.73785 -12.72572,3.73 -6.58142,2.03785 -13.08857,3.515706 -20.75714,4.071416 4.45,3.80572 5.28214,4.03 9.72572,7.245 -6.72143,2.51215 -11.92858,7.68929 -14.27929,11.09286 0,0 7.84714,-0.21928 9.83571,0.66714 -8.21142,2.4 -11.89928,3.84215 -16.23785,8.28 1.51928,0.26 3.79571,0.70286 4.77285,1.075 1.01643,0.36715 0.75215,1.03429 -0.07,1.66143 -1.76857,1.35 -9.07714,9.83857 -11.21,11.87143 -2.13285,-2.03286 -9.44142,-10.52143 -11.21,-11.87143 -0.82214,-0.62714 -1.08642,-1.29428 -0.07,-1.66143 0.97643,-0.37142 3.25358,-0.815 4.77286,-1.075 -4.33928,-4.43785 -8.02643,-5.88 -16.23786,-8.28 1.98858,-0.88642 9.83572,-0.66714 9.83572,-0.66714 -2.35214,-3.40357 -7.55857,-8.58071 -14.28,-11.09286 4.44428,-3.215 5.27643,-3.43928 9.72571,-7.24571 -7.66785,-0.555 -14.175,-2.032856 -20.75714,-4.071426 -4.155,-1.99143 -9.905,-3.65785 -12.725,-3.72928 -4.95214,-0.0764 -13.19857,1.62571 -12.97857,5.54285 -13.84643,-2.44 -15.26143,3.404286 -14.46429,8.581426 1.305,-2.03286 2.93429,-3.16428 4.16,-3.36786 3.72715,-0.61642 8.09643,2.72572 10.84715,5.99215 -4.88286,1.18214 -8.68,0.40714 -12.47643,-0.26 -6.23786,-1.1 -7.51857,-4.04572 -10.62857,-7.32143 -2.89358,-3.03214 -6.00286,-2.18143 -5.02643,2.55214 3.13928,7.17429 14.97143,8.31572 20.06928,8.35643 3.83143,0 8.09643,-0.55571 10.44857,-0.0764 -0.80714,1.43714 -2.95,2.84286 -6.14857,3.07143 -6.76571,0.46429 -10.99143,-2.62857 -10.99143,-2.62857 0.35929,2.51714 3.50715,4.92143 9.69143,6.14 10.15929,2.25714 18.59929,3.96928 24.18929,7.09786 8.635,4.84071 16.29786,14.07357 17.175,21.70642 1.09571,9.57858 -2.27714,15.10215 -8.39072,16.74786 -7.01,1.92143 -15.49785,-5.03571 -13.88571,-16.045 1.54429,-10.55071 -3.815,-13.49357 -16.675,-19.6 -5.96571,-2.83357 -11.76,-5.35714 -16.62286,-7.24286 -2.67571,-1.03857 -4.84785,2.66072 -5.71,4.10286 -16.56214,-2.06928 -31.45928,-13.53357 -38.18571,-25.69643 -4.55429,-8.319996 -12.11214,0 -10.84714,7.83715 2.06285,8.76428 8.57,15.08714 16.41714,19.59642 8.02714,4.50929 18.04214,8.94715 28.20143,8.72858 5.495,1.07 5.42571,8.28 -1.12143,9.65 -12.87,0.0714 -23.10357,-0.25929 -32.755,-9.79786 -7.33857,-6.84286 -11.46429,1.33 -9.36643,5.95143 3.61714,14.23571 23.50214,18.23071 43.60643,13.645 7.77143,-1.33572 3.34786,5.86 0.93571,7.28143 -8.41928,6.175 -23.46143,12.20285 -36.73,-0.0714 -6.03857,-4.73357 -10.16,-0.73929 -7.88214,6.09928 5.85429,17.89429 28.345,14.12429 43.78571,5.32429 3.97643,-2.25714 7.58858,2.99643 2.74572,7.02643 -19.19786,13.71643 -28.77857,13.86428 -37.45857,8.57571 -10.84643,-4.36214 -11.78857,7.95357 -5.35072,11.98429 7.15929,4.50928 25.38072,1.14643 38.72357,-7.47 5.75,-4.36643 5.99858,2.47643 2.38572,5.17714 -15.87357,14.01214 -22.12643,17.67 -38.65286,15.41786 -8.20714,-0.66715 -8.09714,9.68571 -1.62428,13.71714 8.78357,5.50714 25.99285,-3.65857 39.33571,-14.97571 5.64071,-3.06715 6.54714,1.96214 3.76214,7.91357 -8.13571,10.53714 -15.8,16.74785 -23.17857,19.63214 -7.37357,2.84786 -14.45857,2.405 -19.48571,0.63143 -6.10929,-2.145 -7.03786,6.74786 -3.50786,10.27786 2.93071,2.87714 10.48286,4.69285 19.63071,1.40571 9.11286,-3.32714 18.91358,-11.05714 25.635,-20.15143 5.82429,-5.25357 5.10143,1.80857 2.46072,6.72572 -13.48714,21.78214 -25.77857,29.84285 -42.01214,28.47285 -7.19429,-1.21785 -8.82358,4.47357 -4.23,9.76215 8.02714,6.83785 18.11142,6.61928 26.9,-0.11215 7.84285,-7.72928 22.81428,-24.33 30.65714,-33.24143 5.53071,-4.50928 7.305,-0.0714 5.68071,9.095 -1.48571,5.25358 -5.17143,10.76143 -15.26143,14.79143 -6.87142,4.03072 -1.7,9.57857 3.43786,9.65 2.855,0.0772 8.605,-3.32643 13.01429,-8.39143 5.81928,-6.695 6.14857,-11.16857 9.36214,-21.55785 3.00429,-5.065 8.39,-2.69572 8.39,2.58785 -2.56571,10.43072 -4.80786,12.275 -10.01429,16.56429 -5.02857,4.77 3.47286,6.4 6.32786,4.40357 8.28072,-5.69714 11.31429,-13.05428 14.06429,-19.78571 1.98857,-4.84 7.77357,-2.47572 5.09785,5.43714 -6.39714,18.89286 -16.955,26.32714 -35.395,30.13357 -1.88357,0.37143 -3.23928,2.16214 -2.35285,3.69929 2.45714,2.62428 4.95357,5.02857 7.41428,7.61785 0,0 -20.66785,5.30215 -32.07928,8.70715 l -15.72143,-10.69643 c 1.02143,-3.89643 -5.70929,-8.59 -10.81714,-4.72143 -5.59929,-2.64357 -8.69858,-1.48071 -10.89858,2.41571 4.26858,-1.41857 6.43715,-0.43642 8.19572,1.65358 1.23928,4.73142 7.42857,7.62642 11.83928,5.02142 l 11.81643,8.41429 -19.91428,-0.55429 c -1.425,-5.43642 -11.28929,-5.45928 -14.01572,-0.63 -3.58571,0 -5.97857,2.005 -7.20714,6.695 3.9,-2.89857 5.59071,-2.55 7.59,-2.00214 2.34,4.145 10.36143,3.92857 12.58,0 l 19.12214,0.53572 -11.17143,6.41428 c -6.43357,-3.79786 -14.74428,1.905 -13.19071,7.83572 -2.70714,2.25 -3.06857,5.48928 -1.33929,10.07642 0.93429,-3.18071 2.71,-6.155 5.47143,-7.87 5.85715,1.605 11.48857,-0.27714 11.48857,-6.22142 l 15.52858,-8.79072 15.37142,6.04143 c 0,4.11071 6.13215,7.21786 11.39572,5.04071 3.68786,0.43929 4.21214,3.74286 4.82643,6.28572 2.01428,-3.65214 2.39,-7.43714 -2.27857,-10.66572 0,-4.72642 -5.95429,-7.66428 -10.88786,-4.93928 l -13.03,-4.63072 c 11.70214,-3.81428 33.19214,-7.675 33.19214,-7.675 2.92929,2.80715 5.26929,4.87286 8.2,7.38572 1.55429,0.96214 3.75143,0.91143 6.14286,-2.21214 7.30428,-10.83786 14.21,-30.56643 24.76786,-33.28215 3.88142,-1 8.55,1.63 7.55857,10.31286 -1.51,13.20143 -11.17143,24.17714 -23.32286,32.39071 -6.76143,4.50929 -9.61643,2.51715 -14.85786,2.25715 -6.76143,0.77428 -8.57,4.13785 -3,8.8 5.16715,2.73571 9.83072,3.10285 13.59286,2.36428 3.25357,-0.59143 7.05,-4.88143 9.76071,-7.21 3.03929,-3.58714 8.10143,0.66715 4.66858,4.88143 -6.25858,7.61714 -12.54643,12.61072 -20.25,12.49857 -8.13572,1.14643 -6.61572,5.80357 -1.23,8.06072 9.69142,4.10214 18.475,-3.55143 22.89,-8.61643 3.43285,-3.80572 5.89428,-3.95357 5.27642,1.96214 -3.39857,10.75643 -8.06214,14.93429 -15.655,15.45429 -6.14857,-0.55572 -6.21857,4.29 -1.73428,7.58143 10.26428,7.24571 17.71286,-5.10572 21.18571,-12.575 2.45643,-6.76643 6.25715,-3.54643 6.65143,1.99714 0.075,7.43428 -5.25,15.14714 -9.64286,18.95571 -4.39142,3.81 18.93429,28.02572 18.93429,28.02572 0,0 23.32643,-24.21715 18.935,-28.02643 z M 487.695,103.57447 c -3.63071,0 -5.87357,1.27142 -5.87357,2.81428 0,1.56714 2.24286,2.84429 5.87357,2.84429 3.60929,0 5.90143,-1.39286 5.90143,-2.96215 0,-1.54285 -2.29286,-2.69714 -5.90143,-2.69714 z m -100.38857,0 c 3.63071,0 5.87357,1.27142 5.87357,2.81428 0,1.56714 -2.24286,2.84429 -5.87357,2.84429 -3.60929,0 -5.90143,-1.39286 -5.90143,-2.96215 0,-1.54285 2.29286,-2.69714 5.90143,-2.69714 z"
     fill-rule="evenodd"
     id="path12"
     style="stroke-width:0.714286" />
</svg>
