<?xml version="1.0" encoding="UTF-8" standalone="no"?>
<svg
   xmlns:dc="http://purl.org/dc/elements/1.1/"
   xmlns:cc="http://creativecommons.org/ns#"
   xmlns:rdf="http://www.w3.org/1999/02/22-rdf-syntax-ns#"
   xmlns:svg="http://www.w3.org/2000/svg"
   xmlns="http://www.w3.org/2000/svg"
   xmlns:xlink="http://www.w3.org/1999/xlink"
   xmlns:sodipodi="http://sodipodi.sourceforge.net/DTD/sodipodi-0.dtd"
   xmlns:inkscape="http://www.inkscape.org/namespaces/inkscape"
   width="875"
   height="500"
   viewBox="0 0 875 500"
   version="1.1"
   id="svg24"
   sodipodi:docname="Belarus.svg"
   inkscape:version="1.0.2 (e86c8708, 2021-01-15)">
  <metadata
     id="metadata30">
    <rdf:RDF>
      <cc:Work
         rdf:about="">
        <dc:format>image/svg+xml</dc:format>
        <dc:type
           rdf:resource="http://purl.org/dc/dcmitype/StillImage" />
      </cc:Work>
    </rdf:RDF>
  </metadata>
  <defs
     id="defs28" />
  <sodipodi:namedview
     pagecolor="#ffffff"
     bordercolor="#666666"
     borderopacity="1"
     objecttolerance="10"
     gridtolerance="10"
     guidetolerance="10"
     inkscape:pageopacity="0"
     inkscape:pageshadow="2"
     inkscape:window-width="1344"
     inkscape:window-height="729"
     id="namedview26"
     showgrid="false"
     inkscape:zoom="0.62008146"
     inkscape:cx="549.6074"
     inkscape:cy="339.54988"
     inkscape:window-x="0"
     inkscape:window-y="25"
     inkscape:window-maximized="1"
     inkscape:current-layer="svg24" />
  <title
     id="title10">Flag of Belarus</title>
  <rect
     fill="#ce1720"
     width="100.15261%"
     height="72.900017%"
     id="rect12"
     x="0"
     y="0"
     style="stroke-width:0.854467" />
  <path
     d="M 5.5555556,0 H 116.66667 V 500 H 5.5555556 Z"
     fill="#ffffff"
     id="path14"
     style="stroke-width:1.11111" />
  <g
     id="a"
     transform="scale(1.1111111)">
    <path
       id="b"
       d="M 572,0 V 163 H 528 V 0 Z M 10,285 h 79 v -65 h 40 v -79 h 56 V 72 h 46 V 0 h 139 v 72 h 45 v 69 h 56 v 79 h 40 v 65 h 61 v 101 h -61 v 65 h -40 v 79 h -56 v 69 h -45 v 74 h -32 v 62 H 263 V 673 H 231 V 599 H 185 V 530 H 129 V 451 H 89 V 386 H 10 M 10,34 h 79 v 90 H 10 m 310,27 h -41 v 61 h -39 v 77 h -38 v 95 h 38 v 77 h 39 v 60 h 41 v -60 h 39 v -77 h 39 v -95 h -39 v -77 h -39 z m 4,139 v 90 H 275 V 290 Z M 10,526 h 79 v 97 H 10 M 572,535 V 672 H 528 V 535 Z M 464,687 v 68 h 48 v 70 h 60 v 92 h -60 v 71 h -48 v 68 h -56 v -68 h -48 v -71 h -40 v -92 h 40 v -70 h 48 V 687 Z M 10,825 h 79 v -70 h 48 v -68 h 55 v 68 h 48 v 70 h 40 v 92 h -40 v 71 h -48 v 68 H 137 V 988 H 89 V 917 H 10 m 447,-90 h -41 v 87 h 41 z m -271,0 h -41 v 87 h 41 z m 16,1441 v -47 h -34 v -71 h -45 v -43 H 89 v -69 H 10 v -160 h 79 v 46 h 34 v 67 h 45 v 80 h 64 v -72 h 47 v -53 h 34 v -63 h 45 v -67 h 33 v -68 h 32 v -70 h 43 v -94 h -57 v -85 h -62 v -51 H 243 v 74 h 60 v 67 h -40 v 82 h -47 v 72 h -59 v -72 h -49 v -82 H 78 v -67 H 10 v -127 h 79 v -82 h 30 v -63 h 28 v -72 h 40 v -71 h 39 v -47 h 47 v -71 h 57 v 71 h 47 v 47 h 40 v 71 h 39 v 72 h 32 v 62 h 32 v 54 h 52 v 397 h -59 v 67 h -17 v 70 h -44 v 68 h -27 v 50 h -28 v 53 h -48 v 52 h -69 v 145 M 572,1055 v 137 h -44 v -137 z m -562,26 h 79 v 97 H 10 m 0,486 h 79 v 97 H 10 Z m 560,246 v 88 h -42 v -88 z m -58,358 v -55 h -26 v -43 h -38 v -129 h 38 v 52 h 40 v 76 h 44 v 98 m -214,0 v -64 h 42 v 64"
       fill="#ce1720"
       transform="scale(0.1)" />
    <use
       transform="matrix(-1,0,0,1,110,0)"
       xlink:href="#b"
       id="use17"
       x="0"
       y="0"
       width="100%"
       height="100%" />
  </g>
  <use
     transform="matrix(1,0,0,-1,0,500)"
     xlink:href="#a"
     id="use20"
     x="0"
     y="0"
     width="100%"
     height="100%" />
  <path
     d="m 118.66667,333.33333 h 755 V 500 h -755 z"
     fill="#007c30"
     id="path22"
     style="stroke-width:1.02724" />
</svg>
