<?xml version="1.0" encoding="UTF-8" standalone="no"?>
<svg
   xmlns:dc="http://purl.org/dc/elements/1.1/"
   xmlns:cc="http://creativecommons.org/ns#"
   xmlns:rdf="http://www.w3.org/1999/02/22-rdf-syntax-ns#"
   xmlns:svg="http://www.w3.org/2000/svg"
   xmlns="http://www.w3.org/2000/svg"
   xmlns:sodipodi="http://sodipodi.sourceforge.net/DTD/sodipodi-0.dtd"
   xmlns:inkscape="http://www.inkscape.org/namespaces/inkscape"
   version="1.0"
   width="875"
   height="500"
   id="svg18"
   sodipodi:docname="Eritrea.svg"
   inkscape:version="1.0.2 (e86c8708, 2021-01-15)">
  <metadata
     id="metadata24">
    <rdf:RDF>
      <cc:Work
         rdf:about="">
        <dc:format>image/svg+xml</dc:format>
        <dc:type
           rdf:resource="http://purl.org/dc/dcmitype/StillImage" />
      </cc:Work>
    </rdf:RDF>
  </metadata>
  <defs
     id="defs22" />
  <sodipodi:namedview
     pagecolor="#ffffff"
     bordercolor="#666666"
     borderopacity="1"
     objecttolerance="10"
     gridtolerance="10"
     guidetolerance="10"
     inkscape:pageopacity="0"
     inkscape:pageshadow="2"
     inkscape:window-width="1344"
     inkscape:window-height="729"
     id="namedview20"
     showgrid="false"
     inkscape:zoom="0.64506854"
     inkscape:cx="386.18087"
     inkscape:cy="311.65717"
     inkscape:window-x="0"
     inkscape:window-y="25"
     inkscape:window-maximized="1"
     inkscape:current-layer="svg18" />
  <path
     fill="#ea0437"
     d="M 0,0 H 875 V 500 H 0 Z"
     id="path10"
     style="stroke-width:0.935414" />
  <path
     d="M 0,500 H 875 V 250"
     fill="#4189dd"
     id="path12"
     style="stroke-width:0.935414" />
  <path
     d="M 0,0 H 875 V 250"
     fill="#12ad2b"
     id="path14"
     style="stroke-width:0.935414" />
  <path
     d="m 201.46838,356.30918 c -9.45891,2.61177 -14.88181,9.95029 -14.74294,16.87401 l 46.55933,-0.18692 c 0.41838,-7.44002 -5.70242,-14.32102 -15.02069,-17.0307 45.58548,-0.94179 85.18727,-18.01698 92.38337,-28.97317 -7.12133,-3.09066 -15.35537,1.88359 -21.22514,0.73883 13.93645,-6.44124 55.69067,-33.46674 48.90225,-62.43991 -5.27692,16.09245 -21.26255,29.40757 -28.07054,32.98248 15.5975,-23.6838 36.89567,-48.34144 18.41756,-67.43554 0.9329,11.06656 -7.03233,23.24585 -10.55026,24.16092 9.04765,-25.02438 17.68049,-56.44374 -1.92276,-77.15617 2.57435,7.48631 1.53463,28.60465 -2.01002,29.55357 -1.09133,-17.01644 -3.99506,-52.80831 -21.91591,-52.29913 5.69172,5.06683 8.1824,18.89647 8.30881,32.86499 -4.08408,-9.56931 -8.72542,-16.77432 -18.65256,-23.84047 -8.0311,-15.40168 -22.32007,-28.16313 -36.61083,-37.30516 1.60408,11.21078 2.93222,20.05549 18.58492,31.68286 -8.16105,-0.5074 -16.32034,-15.97851 -25.0422,-16.40757 -6.93796,-0.33471 -12.38223,6.28636 -23.71939,2.47645 1.25512,3.74226 6.54451,5.39975 7.66076,8.16817 -2.42837,1.67708 -8.19309,-0.26171 -12.98575,-2.75773 6.59257,8.98001 16.80814,14.26048 25.48016,12.47836 10.31347,-1.98329 21.37115,-0.93467 31.91785,5.06684 -2.69366,1.38332 -13.17805,1.37441 -19.90592,0.53232 6.11544,6.192 10.21734,10.29568 20.85127,10.22803 9.49809,-0.0623 14.47769,-5.06684 16.91675,-1.96727 5.95701,7.05902 9.96632,14.11449 14.94948,22.4251 -11.00781,1.21597 -7.68927,-12.44988 -19.94866,-19.43947 -6.88811,14.25692 7.92249,31.15764 18.00454,38.18284 0.13531,10.71583 1.702,19.68162 6.24718,27.84089 3.06396,5.75226 7.02522,11.63983 5.53152,24.62203 -6.03534,-4.39565 -11.93359,-19.22049 -9.76337,-30.98851 -7.55396,2.05986 -10.50754,15.34293 -6.94687,22.02988 2.65983,5.08998 4.43482,14.83197 1.3673,19.18668 -2.98918,4.05738 -3.30252,3.60339 -3.26335,12.31102 0.10682,5.21103 -2.80403,11.37278 -7.54507,15.66873 0.98987,-3.67106 2.11861,-9.98769 1.02192,-13.93648 -3.7476,6.35759 -13.14956,12.93592 -16.11025,19.77064 -2.90729,6.85073 -3.64436,18.71667 -17.71434,21.45304 -18.10067,3.59272 -24.34787,6.72967 -35.99482,11.49562 -1.29253,-8.84648 2.57614,-27.29432 9.97344,-26.24215 7.22281,1.28541 29.12094,-7.54505 21.28746,-25.99289 -1.54711,5.81459 -6.7083,11.48851 -12.28787,11.73953 6.02822,-7.82102 16.78678,-15.91975 11.54726,-29.0248 -2.91263,5.57067 -7.49343,12.25583 -14.4403,16.01768 7.44713,-14.27117 0.86524,-18.54041 -7.97769,-6.78664 -3.33991,4.53451 -5.35703,13.62133 -7.4792,25.16148 -3.47342,-9.38593 -3.24376,-21.74146 -7.35989,-31.77365 -4.29952,-10.84937 5.70597,-13.71392 10.41496,-12.84334 11.52945,3.0782 30.79802,3.07642 29.36662,-15.97139 -4.97959,6.44303 -13.71214,8.43345 -23.14257,6.11366 10.59121,-7.73376 18.95346,-22.28088 7.15161,-29.8758 -0.39346,8.05425 -6.62641,17.08411 -14.94771,21.24297 -1.94768,-6.79554 -1.94768,-14.00769 -0.27772,-21.91415 -4.64667,4.89057 -8.03999,15.06697 -10.73898,26.63559 -0.20297,-11.43509 1.96015,-19.67449 3.56422,-25.82555 2.43194,-8.98534 8.47618,-3.13872 17.72859,-2.47644 8.91058,0.50561 21.17887,-4.41879 18.83416,-16.50193 -3.04258,4.7802 -9.288,6.64066 -15.66873,6.13505 7.68215,-4.65381 21.06671,-12.92346 13.72639,-25.64396 -3.08354,4.81758 -4.08231,8.93905 -13.00714,10.41674 2.33758,-5.37662 2.72571,-12.97864 9.65299,-15.99096 -12.35731,-2.46043 -19.43236,5.649 -23.02864,18.3499 -1.4581,-8.80553 -3.19392,-12.04752 -3.53931,-18.48877 6.67982,-7.41867 7.37949,-21.93196 -7.08217,-25.17752 -0.85813,7.48632 -0.60354,9.27022 1.04149,15.36608 -6.78842,-4.03246 -16.35594,-6.25788 -22.72597,-0.55546 4.31552,4.65736 10.99534,8.75747 21.29102,3.67818 -2.43194,7.9563 -8.75747,6.59436 -17.44906,3.56065 5.31252,9.97878 12.01726,11.75201 19.41633,10.60191 3.87401,10.21378 4.04493,17.97426 -7.27623,32.84897 0.52341,-9.2435 -0.13352,-16.12984 -7.4774,-23.60369 -6.29349,-6.16352 -11.40839,0.2635 -1.57382,13.96673 -5.96591,-4.39386 -12.71871,-13.31156 -14.75186,-22.22748 -1.96727,11.01493 -0.19584,23.99714 5.90181,31.27516 -2.88414,3.08175 -6.16353,-0.32759 -11.01494,-7.86732 1.83553,24.12889 12.12943,28.78446 25.96442,23.40608 0.39345,13.24391 0.39345,25.50687 1.18036,41.50496 -8.0667,-11.60424 -18.29295,-20.26023 -23.99892,-22.42333 -1.76966,6.49111 4.91907,14.94769 8.65599,19.66914 -5.7042,-1.18036 -18.09711,-10.62148 -18.09711,-10.62148 -1.24624,10.75324 12.65641,20.71956 21.6382,25.17751 -10.55562,-0.45933 -15.21297,-4.45795 -22.03166,-11.01494 0.13175,29.83309 32.32377,24.6523 38.35733,20.0626 0.78691,14.68776 1.90852,31.66682 2.69543,46.35461 -9.10107,-1.58807 -8.38538,-4.32445 -16.17258,-5.04548 -21.61327,-0.8421 -38.75789,-25.94483 -44.43538,-44.41047 -1.62901,3.03903 -0.33649,6.21871 -1.82662,9.95208 -3.50905,-9.06369 -7.99193,-20.7694 -14.00412,-26.21722 1.53108,5.28403 1.6931,10.65352 1.16077,20.52904 -2.0634,-6.39851 -3.9826,-8.36045 -4.12147,-15.87168 0.13175,-5.76651 5.56354,-10.02152 5.26268,-18.13272 -0.22255,-5.9214 -5.62408,-18.75585 -6.41812,-28.69189 -2.61531,10.22625 -4.25678,21.00618 -8.26253,27.33705 1.99042,-10.92057 1.35234,-18.45673 4.71966,-25.80596 3.89003,-7.73734 7.1979,-14.64503 4.60752,-22.45359 -2.48358,3.01589 -1.62902,5.75582 -7.86891,13.08369 -1.35537,-7.96879 8.0683,-20.72312 17.21388,-25.85048 6.45017,-3.39866 14.58095,-15.55479 9.28445,-23.88675 -6.0656,4.35647 -8.78951,10.24226 -17.35827,20.29938 6.1119,-23.89211 21.99248,-30.14286 41.00469,-30.22475 4.20693,-0.0196 12.68845,-1.53822 15.06876,-7.10533 -5.35881,2.06876 -11.69502,2.33224 -17.33335,1.20351 4.10367,-6.02465 12.74543,-5.24131 20.79788,-5.27691 6.31662,-0.0303 16.17791,-0.88661 20.16408,-9.88265 -7.70529,3.33813 -19.72256,4.03247 -27.28898,1.66817 12.03328,-6.23473 30.88169,-6.90592 40.54892,-15.08834 -11.01849,-8.22337 -38.59056,1.91565 -56.00579,13.85991 4.86744,-4.45083 12.56025,-12.34662 16.80458,-18.72022 -9.52479,-4.56657 -33.61272,22.11889 -41.91087,37.97455 -7.88155,4.45083 -11.03452,11.42798 -14.09492,16.2972 4.19981,-14.19106 4.64489,-24.48852 8.14859,-36.17464 -27.01729,9.30047 -15.7873,59.2193 -21.66401,71.16179 0.69166,-13.18517 0.13157,-30.12328 -5.29685,-38.8576 -8.321649,6.34867 -8.993185,43.71436 -1.18036,74.82216 -2.8213,-8.32485 -8.146287,-16.09602 -9.85469,-26.22791 -12.316008,22.46249 7.21979,48.96279 23.55561,69.89596 -12.2982,-6.40564 -24.457892,-20.18366 -32.44519,-31.73446 2.204598,40.20353 44.18829,48.55686 50.70609,58.43771 -8.84648,-4.1179 -25.75896,-12.2665 -32.93549,-3.72801 11.68292,2.69721 21.00191,5.81457 28.51136,10.7372 10.89565,13.60355 31.52796,19.55342 67.46046,21.05602 z"
     fill="#ffc726"
     id="path16"
     style="stroke-width:0.875" />
</svg>
