<?xml version="1.0" encoding="UTF-8" standalone="no"?>
<svg
   xmlns:dc="http://purl.org/dc/elements/1.1/"
   xmlns:cc="http://creativecommons.org/ns#"
   xmlns:rdf="http://www.w3.org/1999/02/22-rdf-syntax-ns#"
   xmlns:svg="http://www.w3.org/2000/svg"
   xmlns="http://www.w3.org/2000/svg"
   xmlns:xlink="http://www.w3.org/1999/xlink"
   xmlns:sodipodi="http://sodipodi.sourceforge.net/DTD/sodipodi-0.dtd"
   xmlns:inkscape="http://www.inkscape.org/namespaces/inkscape"
   width="875"
   height="500"
   version="1.1"
   id="svg46"
   sodipodi:docname="Kenya.svg"
   inkscape:version="1.0.2 (e86c8708, 2021-01-15)">
  <metadata
     id="metadata50">
    <rdf:RDF>
      <cc:Work
         rdf:about="">
        <dc:format>image/svg+xml</dc:format>
        <dc:type
           rdf:resource="http://purl.org/dc/dcmitype/StillImage" />
      </cc:Work>
    </rdf:RDF>
  </metadata>
  <sodipodi:namedview
     pagecolor="#ffffff"
     bordercolor="#666666"
     borderopacity="1"
     objecttolerance="10"
     gridtolerance="10"
     guidetolerance="10"
     inkscape:pageopacity="0"
     inkscape:pageshadow="2"
     inkscape:window-width="1344"
     inkscape:window-height="729"
     id="namedview48"
     showgrid="false"
     inkscape:zoom="0.7733295"
     inkscape:cx="466.52269"
     inkscape:cy="286.68958"
     inkscape:window-x="0"
     inkscape:window-y="25"
     inkscape:window-maximized="1"
     inkscape:current-layer="svg46" />
  <defs
     id="defs11">
    <path
       id="spearshape"
       d="M -1,55.425626 H 1 V -38 c 2,-2 2,-5 2,-8 C 3,-48 3,-56 0,-64.66323 -3,-56 -3,-48 -3,-46 c 0,3 0,6 2,8 z"
       stroke-miterlimit="10"
       transform="rotate(30)" />
    <!-- 32*sqrt(3), -112/sqrt(3)-->
  </defs>
  <rect
     width="875"
     height="500"
     fill="#ffffff"
     id="rect13"
     x="0"
     y="0"
     style="stroke-width:0.900103" />
  <rect
     width="875"
     height="150"
     fill="#000000"
     id="rect15"
     x="0"
     y="0"
     style="stroke-width:0.900103" />
  <rect
     width="875"
     height="150"
     y="175"
     fill="#bb0000"
     id="rect17"
     x="0"
     style="stroke-width:0.900103" />
  <rect
     width="875"
     height="150"
     y="350"
     fill="#006600"
     id="rect19"
     x="0"
     style="stroke-width:0.900103" />
  <g
     transform="matrix(3.125,0,0,3.125,437.5,250)"
     id="g44">
    <g
       id="spear">
      <use
         xlink:href="#spearshape"
         fill="#000000"
         id="use21"
         x="0"
         y="0"
         width="100%"
         height="100%" />
      <use
         xlink:href="#spearshape"
         fill="#ffffff"
         id="use23"
         x="0"
         y="0"
         width="100%"
         height="100%" />
    </g>
    <use
       xlink:href="#spear"
       transform="scale(-1,1)"
       id="use26"
       x="0"
       y="0"
       width="100%"
       height="100%" />
    <path
       d="m -19,24 c 3,8 13,24 19,24 6,0 16,-16 19,-24 V -24 C 16,-32 6,-48 0,-48 c -6,0 -16,16 -19,24 z"
       fill="#bb0000"
       id="path28" />
    <path
       id="deco_r"
       d="m 19,24 c 3,-8 5,-16 5,-24 0,-8 -2,-16 -5,-24 -3,8 -5,16 -5,24 0,8 2,16 5,24 z"
       fill="#000000" />
    <use
       xlink:href="#deco_r"
       transform="scale(-1,1)"
       id="use31"
       x="0"
       y="0"
       width="100%"
       height="100%" />
    <g
       fill="#ffffff"
       id="g42">
      <ellipse
         rx="4"
         ry="6"
         id="ellipse33"
         cx="0"
         cy="0" />
      <path
         id="deco_br"
         d="m 1,5.85 c 0,0 4,8 4,21 0,13 -4,21 -4,21 z" />
      <use
         xlink:href="#deco_br"
         transform="scale(-1)"
         id="use36"
         x="0"
         y="0"
         width="100%"
         height="100%" />
      <use
         xlink:href="#deco_br"
         transform="scale(-1,1)"
         id="use38"
         x="0"
         y="0"
         width="100%"
         height="100%" />
      <use
         xlink:href="#deco_br"
         transform="scale(1,-1)"
         id="use40"
         x="0"
         y="0"
         width="100%"
         height="100%" />
    </g>
  </g>
</svg>
