<?xml version="1.0" encoding="UTF-8" standalone="no"?>
<svg
   xmlns:dc="http://purl.org/dc/elements/1.1/"
   xmlns:cc="http://creativecommons.org/ns#"
   xmlns:rdf="http://www.w3.org/1999/02/22-rdf-syntax-ns#"
   xmlns:svg="http://www.w3.org/2000/svg"
   xmlns="http://www.w3.org/2000/svg"
   xmlns:sodipodi="http://sodipodi.sourceforge.net/DTD/sodipodi-0.dtd"
   xmlns:inkscape="http://www.inkscape.org/namespaces/inkscape"
   width="875"
   height="500"
   version="1.1"
   id="svg16"
   sodipodi:docname="Lebanon.svg"
   inkscape:version="1.0.2 (e86c8708, 2021-01-15)">
  <metadata
     id="metadata22">
    <rdf:RDF>
      <cc:Work
         rdf:about="">
        <dc:format>image/svg+xml</dc:format>
        <dc:type
           rdf:resource="http://purl.org/dc/dcmitype/StillImage" />
      </cc:Work>
    </rdf:RDF>
  </metadata>
  <defs
     id="defs20" />
  <sodipodi:namedview
     pagecolor="#ffffff"
     bordercolor="#666666"
     borderopacity="1"
     objecttolerance="10"
     gridtolerance="10"
     guidetolerance="10"
     inkscape:pageopacity="0"
     inkscape:pageshadow="2"
     inkscape:window-width="1344"
     inkscape:window-height="729"
     id="namedview18"
     showgrid="false"
     inkscape:zoom="0.68875875"
     inkscape:cx="379.23722"
     inkscape:cy="313.32659"
     inkscape:window-x="0"
     inkscape:window-y="25"
     inkscape:window-maximized="1"
     inkscape:current-layer="svg16" />
  <path
     fill="#ed1c24"
     d="M 0,0 H 875 V 500 H 0 Z"
     id="path10"
     style="stroke-width:0.900103" />
  <path
     fill="#ffffff"
     d="M 0,125 H 875 V 375 H 0 Z"
     id="path12"
     style="stroke-width:0.900103" />
  <path
     d="m 432.49217,125 c -5.36667,11.3 -15.47167,19.1975 -25.13084,26.67167 -1.58916,1.3875 -5.54,4.075 -2.67416,6.12083 2.45583,-2.74417 9.195,0.89 5.27833,3.84167 -3.50833,3.28333 -8.33917,4.48583 -12.235,7.19583 -3.45,1.875 -6.95,3.83167 -9.68583,6.70083 -0.18584,4.48334 5.56166,2.00167 7.89416,3.86917 3.0375,3.24667 -1.2875,8.72167 -5.27416,7.46917 -5.09667,0.15666 -8.61667,4.64166 -10.545,8.92 -3.98667,6.165 -11.54167,7.99166 -17.5575,11.5 -3.44167,2.00583 -6.78084,4.22583 -9.98417,6.56666 -4.13083,2.825 -0.5375,8.41667 3.85833,7.04417 4.74417,-0.47333 9.0125,-4.20083 13.925,-3.12667 4.45417,1.565 5.70417,7.38667 4.18667,11.45167 -1.125,3.25417 -3.85,5.54667 -6.0325,8.08833 -3.54417,3.59084 -8.17917,5.92167 -13.06667,7.03334 -4.7225,1.58583 -8.96833,4.47916 -12.06666,8.38583 -3.595,3.62 -7.17667,7.29833 -11.31,10.31667 -1.30584,3.33166 2.37916,6.16916 5.45,6.08083 6.47333,-0.40833 10.95833,-5.705 16.47083,-8.4275 4.575,-2.05583 9.95833,2.875 8.83917,7.64 -0.35417,4.63667 -4.695,6.98917 -8.55417,8.41583 -11.34583,5.70334 -21.1975,13.975 -29.94417,23.1 -1.80916,3.69084 -6.78333,2.60417 -9.46083,5.17667 -1.74417,3.255 2.63333,4.97167 5.24583,4.6375 11.225,-1.35 21.7,-6.095 31.6225,-11.315 3.69,-1.76417 7.155,-4.08583 10.99167,-5.49167 3.60333,-0.89083 8.62833,0.675 9.2725,4.77667 -0.005,4.33 -4.29417,6.7275 -7.69083,8.41917 -10.475,5.50333 -21.97084,8.54583 -33.16667,12.18416 -4.19167,-1.17166 -7.35,6.28584 -2.75167,7.62667 4.86167,1.66667 10.03084,0.33 15.00417,0.11167 15.37917,-2.35584 28.82917,-10.6775 43.20417,-16.05667 5.97666,-1.94833 13.03083,0.77 15.98,6.37 2.96333,4.99167 2.69166,11.55583 -0.43334,16.40583 -4.94,10.56834 -12.45,20.28167 -22.53166,26.35834 -6.32834,3.13333 -13.715,4.33166 -19.13917,9.12833 -5.01667,1.65333 2.515,8.43167 3.60333,3.05167 3.01417,-4.11084 8.33084,-5.34 13.1525,-5.51 7.2475,-0.78834 14.94417,-2.125 20.575,-7.14167 5.04834,-3.92083 10.02334,-9.32917 16.87834,-9.41333 3.78833,0.44916 7.53583,3.49333 11.38333,1.63583 3.36667,-1.54167 8.6475,-0.63833 9.52667,3.50083 1.6075,4.8425 6.59833,7.04584 10.55666,9.63667 1.4325,2.01167 6.1925,7.2 7.29,2.62583 -0.88583,-3.2625 0.38,-8.255 4.66,-7.165 3.73834,0.16667 7.30084,1.54584 11.0325,1.77167 4.96834,1.02917 9.11334,4.43083 11.935,8.53833 1.94084,2.68084 6.1925,7.28584 9.35167,3.73167 1.96,-3.67583 -1.78167,-6.74167 -4.82833,-8.05417 -4.44167,-2.7525 -8.23917,-6.41833 -12.12334,-9.88916 -5.725,-5.34667 -10.66833,-12.14667 -11.5775,-20.13334 -1.23166,-7.9625 -0.58333,-16.085 0.45584,-24.02666 1.30833,-5.1125 7.84666,-7.90417 12.41833,-5.1875 6.4325,2.935 12.82083,7.135 20.19583,6.68 10.65667,0.22916 21.6075,-1.81084 32.02167,1.27666 10.135,3.1925 17.38083,11.745 27.2525,15.44584 2.21,1.34333 5.0375,0.065 5.8475,-2.29584 0.97833,-2.12083 0.2875,-4.83416 -1.75583,-6.04333 -11.44167,-11.54917 -27.0775,-17.15917 -40.31584,-26.18333 -4.1675,-1.05834 -4.92666,-7.76417 -1.07333,-9.7 5.065,-3.68084 12.2325,-1.96667 16.72583,1.82833 3.795,2.2225 8.07084,3.88833 12.52334,3.89167 4.56083,-1.4275 2.35,-8.02667 -1.73334,-8.52334 -7.4,-4.1775 -12.69916,-11.03333 -19.10916,-16.46666 -3.69167,-3.125 -7.73084,-6.28917 -12.69167,-6.895 -2.71083,-0.49417 -5.48333,-0.60167 -8.23083,-0.4175 -2.57667,-2.8 0.85666,-7.0875 4.18833,-6.73667 3.41833,0.23 6.81667,0.48417 10.23083,0.008 3.81584,-0.27916 7.6275,-0.67416 11.45584,-0.7 3.09083,2.10417 9.26666,-1.53083 6.4775,-5.16 -3.0475,-2.67 -7.45334,-2.43833 -11.09417,-3.80833 a 171.07833,171.07833 0 0 0 -19.49833,-5.125 c -4.61084,-0.275 -4.04167,-6.34333 0.0108,-7.01333 2.6525,-0.98917 4.95833,1.04833 7.50417,1.36416 4.34833,0.935 8.8375,0.9225 13.18333,1.87 3.68583,-1.81916 0.83667,-7.2025 -2.49667,-7.51666 -7.865,-2.8125 -14.6625,-7.88834 -21.30833,-12.82667 -7.33667,-5.5175 -13.9925,-11.89833 -21.41917,-17.28917 -2.695,-1.66916 -7.11166,-2.15 -7.82,-5.85083 -0.25,-3.405 3.75667,-4.955 6.5975,-4.15917 4.03084,1.19 7.78584,3.2625 11.89417,4.28 3.2225,0.54834 6.54583,1.50167 9.65167,1.09584 3.94333,-2.47834 -1.69167,-4.06167 -3.73084,-4.92084 -5.25666,-2.83583 -9.92833,-6.61333 -14.66,-10.21666 -3.99833,-3.4125 3.39167,-4.92 5.93334,-3.60584 4.25,1.7775 4.73416,-4.415 1.5575,-5.97333 -3.74334,-1.59167 -6.96167,-4.23333 -10.35584,-6.53833 -6.13333,-4.365 -13.07833,-7.82084 -20.61666,-8.78084 -8.4525,-0.84916 -16.34167,-5.70916 -20.82584,-12.9375 -2.78083,-4.11916 -4.82166,-8.675 -6.79416,-13.21833 z m -27.75584,47.4175 c 4.35584,0.12917 3.68584,7.98083 -0.6025,7.45667 -4.165,-0.26834 -3.91,-8.3 0.6025,-7.45667 z m 41.09,4.22833 c 4.23917,-0.75833 5.13667,6.97667 0.90167,7.34 -4.41333,0.79 -6.04833,-7.83 -0.90167,-7.34 z m -12.035,1.00834 c 4.2975,0.845 3.53334,8.33166 -0.80416,8.39666 -3.17334,0.70667 -6.59334,2.8725 -9.80334,1.25 -2.61083,-2.76166 1.1625,-6.84416 4.07667,-7.74166 2.235,-0.45084 4.29167,-1.46584 6.53083,-1.905 z m 27.69834,0.0325 c 4.14166,1.51 2.68083,8.82083 -1.6875,8.7275 -4.13084,0.55416 -6.055,-6.3375 -2.2025,-7.97167 1.24666,-0.44167 2.55333,-0.81417 3.89,-0.75583 z m -46.725,8.2925 c 3.04583,2.89833 1.24666,8.49166 -2.50834,9.82833 -2.70583,1.505 -6.39583,5.06667 -9.34333,2.13583 -1.6,-3.57916 2.415,-6.27416 4.77667,-8.26083 2.1075,-1.63833 4.43333,-3.12583 7.075,-3.70333 z m 34.77833,16.16416 c 4.36,2.05834 2.14667,9.91584 -2.63833,9.4275 -3.93,-0.99583 -3.41667,-7.73666 0.54166,-8.27416 0.74834,-0.28667 1.43417,-0.70834 2.09667,-1.15334 z m -13.83417,0.78 c 4.0775,1.90917 0.96417,8.71417 -3.14333,7.73334 -4.25833,-0.5 -4.18,-7.98667 0.51667,-7.31084 0.885,-0.0433 1.79833,-0.0667 2.62666,-0.4225 z m 29.82167,3.90334 c 4.46917,-1.38667 9.85,3.21666 8.4,7.88666 -1.99167,3.62 -6.91667,4.0775 -10.44583,2.725 -4.05084,-0.2 -6.77584,-6.29083 -3.16667,-8.87 1.49333,-1.1275 3.37583,-1.59166 5.2125,-1.74166 z m -66.01583,1.17083 c 3.69583,-2.01083 7.61916,4.03167 4.47666,6.69667 -2.08166,3.06083 -7.4275,4.31083 -9.78416,0.90833 -1.95834,-3.325 1.20833,-8.90917 5.30833,-7.605 z m -17.05,2.86167 c 4.19166,0.57333 6.92333,4.38083 8.47333,8.00666 0.3775,4.4175 -6.14167,6.84167 -8.985,3.6275 -3.19833,-2.00583 -5.9975,-6.13166 -4.32083,-9.96083 1.03333,-1.52083 3.09083,-2.14833 4.83333,-1.67333 z M 484.468,226.8275 c 4.55,-1.19833 7.8525,6.07167 3.94583,8.70167 -3.57166,3.24416 -10.51666,-1.05334 -8.65333,-5.6825 0.925,-1.71667 2.7775,-2.85667 4.70833,-3.01917 z m -57.90417,8.29333 c 3.815,0.48584 2.57917,7.0975 -0.94833,6.875 -3.785,-0.70166 -2.91833,-7.2475 0.94833,-6.875 z m -19.35,3.5125 c 3.11084,-2.20166 7.12417,3.17167 4.53584,5.675 -3.10167,2.185 -7.125,-3.1025 -4.53584,-5.675 z m 30.76667,0.65 c 3.60583,2.19167 5.74667,6.2775 6.195,10.4 -1.72833,3.8525 -8.40333,2.92417 -9.15583,-1.17833 -1.31917,-3.24417 -0.10334,-7.41667 2.96,-9.22083 z m 10.73667,6.375 c 4.6475,-1.1675 2.97916,8.54667 -0.90084,5.1775 -1.29,-1.53166 -0.59916,-4.05166 0.9,-5.1775 z m -67.43167,6.76417 c 3.0775,-0.90083 7.56333,0.0467 8.4125,3.57833 0.35833,3.31917 -3.29167,5.04584 -5.96667,5.86834 -4.28583,1.32333 -8.47833,3.495 -13.08833,3.20333 -3.45583,-1.975 -4.69583,-6.01667 -5.9275,-9.54167 3.33417,-3.12666 8.245,-2.20916 12.37833,-2.99166 1.39584,-0.0717 2.79417,-0.10584 4.19167,-0.11667 z m 104.59833,15.22083 c 3.925,-1.925 8.1475,4.30667 4.86167,7.21667 -4.11083,4.73167 -12.025,5.61083 -16.94167,1.63583 -0.59,-4.18666 3.59167,-7.22833 7.30834,-7.82916 1.5625,-0.44167 3.11583,-1.10084 4.77166,-1.02334 z m 22.06417,4.78084 c 4.46083,-0.7675 7.97417,5.595 4.78833,8.88833 -3.01416,4.54583 -10.20333,5.7375 -14.31333,2.01167 -1.6025,-3.76834 1.64833,-7.695 5.10833,-8.90417 1.48667,-0.63333 2.895,-1.44417 4.41667,-1.99583 z m -110.94083,6.765 c 4.13083,-0.40834 7.915,3.69 7.37333,7.7625 2.99,2.9425 -2.305,8.425 -5.28417,5.3775 -2.625,-3.18084 -2.61166,-7.49584 -3.62833,-11.30334 -0.0458,-0.84583 0.58083,-1.94083 1.53917,-1.83666 z m 31.71,2.37416 c 4.27083,-1.84666 9.79583,3.2625 7.47083,7.5875 -1.66083,3.5225 -8.13583,2.34167 -7.92083,-1.73833 -0.0108,-1.9525 -0.16834,-3.95417 0.45,-5.85 z m -15.42667,2.76417 c 4.28167,-0.98167 8.21,4.56917 5.83083,8.2725 -4.26916,0.38 -6.485,-4.68667 -5.83083,-8.2725 z"
     fill="#00a651"
     id="path14"
     style="stroke-width:0.833333" />
</svg>
