<?xml version="1.0" encoding="UTF-8" standalone="no"?>
<svg
   xmlns:dc="http://purl.org/dc/elements/1.1/"
   xmlns:cc="http://creativecommons.org/ns#"
   xmlns:rdf="http://www.w3.org/1999/02/22-rdf-syntax-ns#"
   xmlns:svg="http://www.w3.org/2000/svg"
   xmlns="http://www.w3.org/2000/svg"
   xmlns:sodipodi="http://sodipodi.sourceforge.net/DTD/sodipodi-0.dtd"
   xmlns:inkscape="http://www.inkscape.org/namespaces/inkscape"
   height="500"
   viewBox="0 0 437.5 250"
   width="875"
   version="1.1"
   id="svg18"
   sodipodi:docname="Lesotho.svg"
   inkscape:version="1.0.2 (e86c8708, 2021-01-15)">
  <metadata
     id="metadata24">
    <rdf:RDF>
      <cc:Work
         rdf:about="">
        <dc:format>image/svg+xml</dc:format>
        <dc:type
           rdf:resource="http://purl.org/dc/dcmitype/StillImage" />
      </cc:Work>
    </rdf:RDF>
  </metadata>
  <defs
     id="defs22" />
  <sodipodi:namedview
     pagecolor="#ffffff"
     bordercolor="#666666"
     borderopacity="1"
     objecttolerance="10"
     gridtolerance="10"
     guidetolerance="10"
     inkscape:pageopacity="0"
     inkscape:pageshadow="2"
     inkscape:window-width="1344"
     inkscape:window-height="729"
     id="namedview20"
     showgrid="false"
     inkscape:zoom="0.6413287"
     inkscape:cx="441.28697"
     inkscape:cy="334.76647"
     inkscape:window-x="0"
     inkscape:window-y="25"
     inkscape:window-maximized="1"
     inkscape:current-layer="svg18" />
  <path
     d="M 0,0 H 437.5 V 250 H 0 Z"
     fill="#009543"
     id="path10"
     style="stroke-width:0.900103" />
  <path
     d="M 0,0 H 437.5 V 175 H 0 Z"
     fill="#ffffff"
     id="path12"
     style="stroke-width:0.900103" />
  <path
     d="M 0,0 H 437.5 V 75 H 0 Z"
     fill="#00209f"
     id="path14"
     style="stroke-width:0.900103" />
  <path
     d="m 218.73538,79.215496 -0.39713,0.0081 c -0.86325,0.0186 -1.62512,0.476692 -2.18587,0.901692 -0.56075,0.425 -0.93425,0.849608 -0.93425,0.849608 l -0.0863,0.09847 c -2.93859,0.516671 -5.6195,1.785767 -7.75554,3.859863 -2.8279,2.745916 -4.62995,6.791171 -5.19694,11.943362 -0.58131,5.282459 0.8663,11.172199 2.37956,15.854489 1.51327,4.6823 3.16895,8.17057 3.16895,8.17057 l 0.29378,0.61931 -19.06332,25.66975 -3.83301,-1.32487 -6.90266,14.72331 0.3125,0.19694 c 0,0 16.39485,10.26596 40.16276,9.98535 26.05944,-0.30988 40.29134,-10.47037 40.29134,-10.47037 l 0.28809,-0.20508 -7.13868,-14.54427 -3.39681,1.47786 -19.78434,-26.16862 0.15381,0.0602 c 0,0 1.73679,-3.56745 3.28939,-8.3431 1.5526,-4.77566 3.01108,-10.77791 2.24772,-16.15072 -0.72142,-5.0776 -2.31874,-9.061537 -5.15625,-11.769204 -2.07529,-1.980312 -4.7391,-3.149204 -7.84343,-3.615725 v -0.08219 l -0.11719,-0.120446 c 0,0 -0.39254,-0.408529 -0.97167,-0.808917 -0.48315,-0.334017 -1.12359,-0.628142 -1.81804,-0.724283 z m 2.90446,6.032712 c 2.09654,0.393163 3.69722,1.203667 4.9764,2.424317 1.91812,1.830333 3.26267,4.811004 3.90625,9.340821 0.58923,4.147184 -0.62558,9.788424 -2.08496,14.277344 -0.89582,2.75546 -1.68336,4.6676 -2.23633,5.92448 l -2.99642,-3.96322 -0.0342,-9.39941 h 4.94303 l -6.50065,-6.105144 z m -6.49495,0.06185 0.0911,12.63428 -5.87889,6.158852 h 4.8649 l -0.0342,9.11459 -3.28531,4.42382 c -0.42492,-0.92132 -1.27662,-2.78119 -2.37875,-6.1914 -1.42647,-4.41375 -2.65955,-9.97613 -2.20377,-14.117842 0.48901,-4.443641 1.95727,-7.466137 3.95833,-9.409183 1.347,-1.307946 2.969,-2.17455 4.86653,-2.613117 z m 33.868,65.389812 1.05713,1.53727 -2.9777,4.41814 -3.07374,-3.938 z m -61.47461,1.44206 1.24837,3.84196 -3.6499,0.76823 c 0,0 2.11336,-4.22597 2.40153,-4.61019 z m 3.84196,0.0911 5.37842,1.63329 1.24918,2.68962 -4.70703,1.3444 z m 49.17969,1.72932 1.53645,1.6333 -4.51415,3.55387 -2.78565,-3.45784 z m 10.47038,0.57943 1.82454,3.6499 -3.6499,1.24837 -0.28809,-1.72851 z m -49.75912,0.57455 5.37923,1.15315 1.53727,2.30469 -4.70703,1.82536 z m 29.20247,0.96516 1.44043,2.11345 -5.37923,2.59277 -2.30469,-3.93799 z m -19.11865,0.57699 8.74105,0.38411 0.76823,1.82455 -6.81966,2.49756 z m 31.70003,0.85774 2.78565,3.74675 -5.95541,1.53646 -1.15315,-2.0166 z m -53.4082,0.10011 0.76823,3.07372 -4.61019,-1.82454 z m 9.12679,0.86751 2.49675,5.2832 -6.2435,-1.53646 -0.6722,-2.3055 z m 34.28955,1.34114 3.26579,3.84196 -7.20378,1.15316 -1.44124,-2.3055 z m -11.04329,0.76905 3.16976,4.70703 -8.45215,0.28808 -1.44124,-2.49756 z m -12.67823,0.002 3.07374,4.80306 -7.30062,-1.05631 -0.76823,-2.01742 z"
     id="path16"
     style="stroke-width:0.416667" />
</svg>
