<?xml version="1.0" encoding="UTF-8" standalone="no"?>
<svg
   xmlns:dc="http://purl.org/dc/elements/1.1/"
   xmlns:cc="http://creativecommons.org/ns#"
   xmlns:rdf="http://www.w3.org/1999/02/22-rdf-syntax-ns#"
   xmlns:svg="http://www.w3.org/2000/svg"
   xmlns="http://www.w3.org/2000/svg"
   xmlns:sodipodi="http://sodipodi.sourceforge.net/DTD/sodipodi-0.dtd"
   xmlns:inkscape="http://www.inkscape.org/namespaces/inkscape"
   width="875"
   height="500"
   viewBox="0 0 87.5 50"
   version="1.1"
   id="svg33"
   sodipodi:docname="Namibia.svg"
   inkscape:version="1.0.2 (e86c8708, 2021-01-15)">
  <metadata
     id="metadata37">
    <rdf:RDF>
      <cc:Work
         rdf:about="">
        <dc:format>image/svg+xml</dc:format>
        <dc:type
           rdf:resource="http://purl.org/dc/dcmitype/StillImage" />
      </cc:Work>
    </rdf:RDF>
  </metadata>
  <sodipodi:namedview
     pagecolor="#ffffff"
     bordercolor="#666666"
     borderopacity="1"
     objecttolerance="10"
     gridtolerance="10"
     guidetolerance="10"
     inkscape:pageopacity="0"
     inkscape:pageshadow="2"
     inkscape:window-width="1344"
     inkscape:window-height="729"
     id="namedview35"
     showgrid="false"
     inkscape:zoom="0.63539649"
     inkscape:cx="604.6353"
     inkscape:cy="287.25144"
     inkscape:window-x="0"
     inkscape:window-y="25"
     inkscape:window-maximized="1"
     inkscape:current-layer="svg33" />
  <title
     id="title10">Flag of Namibia</title>
  <defs
     id="defs15">
    <clipPath
       id="c">
      <path
         d="M 0,0 H 90 V 60 H 0 Z"
         id="path12" />
    </clipPath>
  </defs>
  <path
     fill="#003580"
     d="M 0,50 V 0 h 87.5 z"
     id="path17"
     style="stroke-width:0.900103" />
  <path
     fill="#009543"
     d="M 87.5,0 V 50 H 0 Z"
     id="path19"
     style="stroke-width:0.900103" />
  <g
     fill="none"
     clip-path="url(#c)"
     id="g25"
     transform="scale(0.97222222,0.83333333)">
    <path
       stroke="#ffffff"
       stroke-width="20"
       d="M 0,60 90,0"
       id="path21" />
    <path
       stroke="#d21034"
       stroke-width="15"
       d="M 0,60 90,0"
       id="path23" />
  </g>
  <g
     fill="#ffce00"
     transform="matrix(0.83333333,0,0,0.83333333,15,13.617917)"
     id="g31">
    <!-- ty=(87*sqrt(13)-281)/2 -->
    <path
       transform="scale(0.01)"
       d="m 0,-1000 155,420 345,-286 -76,442 442,-76 L 580,-155 1000,0 580,155 866,500 424,424 500,866 155,580 0,1000 -155,580 l -345,286 76,-442 -442,76 286,-345 -420,-155 420,-155 -286,-345 442,76 -76,-442 345,286 z"
       id="path27" />
    <circle
       r="5.5"
       stroke="#003580"
       id="circle29"
       cx="0"
       cy="0" />
  </g>
</svg>
