<?xml version="1.0" encoding="UTF-8" standalone="no"?>
<svg
   xmlns:dc="http://purl.org/dc/elements/1.1/"
   xmlns:cc="http://creativecommons.org/ns#"
   xmlns:rdf="http://www.w3.org/1999/02/22-rdf-syntax-ns#"
   xmlns:svg="http://www.w3.org/2000/svg"
   xmlns="http://www.w3.org/2000/svg"
   xmlns:xlink="http://www.w3.org/1999/xlink"
   xmlns:sodipodi="http://sodipodi.sourceforge.net/DTD/sodipodi-0.dtd"
   xmlns:inkscape="http://www.inkscape.org/namespaces/inkscape"
   version="1.1"
   height="500"
   width="875"
   id="svg65"
   sodipodi:docname="New Zealand.svg"
   inkscape:version="1.0.2 (e86c8708, 2021-01-15)">
  <metadata
     id="metadata69">
    <rdf:RDF>
      <cc:Work
         rdf:about="">
        <dc:format>image/svg+xml</dc:format>
        <dc:type
           rdf:resource="http://purl.org/dc/dcmitype/StillImage" />
      </cc:Work>
    </rdf:RDF>
  </metadata>
  <sodipodi:namedview
     pagecolor="#ffffff"
     bordercolor="#666666"
     borderopacity="1"
     objecttolerance="10"
     gridtolerance="10"
     guidetolerance="10"
     inkscape:pageopacity="0"
     inkscape:pageshadow="2"
     inkscape:window-width="1344"
     inkscape:window-height="729"
     id="namedview67"
     showgrid="false"
     inkscape:zoom="0.67333333"
     inkscape:cx="600"
     inkscape:cy="300"
     inkscape:window-x="0"
     inkscape:window-y="25"
     inkscape:window-maximized="1"
     inkscape:current-layer="svg65" />
  <defs
     id="defs30">
    <clipPath
       id="Canton">
      <path
         d="M 0,0 H 600 V 300 H 0 Z"
         id="path10" />
    </clipPath>
    <clipPath
       id="Diagonals">
      <path
         d="M 0,0 300,150 H 0 Z M 300,0 H 600 L 300,150 Z m 0,150 h 300 v 150 z m 0,0 V 300 H 0 Z"
         id="path13" />
    </clipPath>
    <g
       id="Pentagram">
      <g
         id="Arm"
         transform="translate(0,-0.324925)">
        <path
           d="M 0,0 V 0.5 L 1,0 Z"
           id="path16" />
        <path
           d="M 0,0 V -0.5 L 1,0 Z"
           transform="rotate(-36,1,0)"
           id="path18" />
      </g>
      <use
         xlink:href="#Arm"
         transform="scale(-1,1)"
         id="use21"
         x="0"
         y="0"
         width="100%"
         height="100%" />
      <use
         xlink:href="#Arm"
         transform="rotate(72)"
         id="use23"
         x="0"
         y="0"
         width="100%"
         height="100%" />
      <use
         xlink:href="#Arm"
         transform="rotate(-72)"
         id="use25"
         x="0"
         y="0"
         width="100%"
         height="100%" />
      <use
         xlink:href="#Arm"
         transform="matrix(-0.30901699,0.95105652,0.95105652,0.30901699,0,0)"
         id="use27"
         x="0"
         y="0"
         width="100%"
         height="100%" />
    </g>
  </defs>
  <rect
     fill="#012169"
     x="0"
     y="0"
     width="875"
     height="500"
     id="rect32"
     style="stroke-width:0.779512" />
  <g
     id="Flag_of_the_United_Kingdom"
     transform="scale(0.72916667)">
    <path
       id="Saint_Andrews_Cross"
       stroke="#ffffff"
       d="M 0,0 600,300 M 0,300 600,0"
       stroke-width="60"
       clip-path="url(#Canton)" />
    <path
       id="Saint_Patricks_Cross"
       stroke="#c8102e"
       d="M 0,0 600,300 M 0,300 600,0"
       stroke-width="40"
       clip-path="url(#Diagonals)" />
    <g
       id="Saint_Georges_Cross">
      <path
         stroke="#ffffff"
         d="M 300,0 V 300 M 0,150 h 600"
         stroke-width="100"
         clip-path="url(#Canton)"
         id="path36" />
      <path
         stroke="#c8102e"
         d="M 300,0 V 300 M 0,150 h 600"
         stroke-width="60"
         clip-path="url(#Canton)"
         id="path38" />
    </g>
  </g>
  <g
     id="Southern_Cross"
     transform="matrix(0.72916667,0,0,0.72916667,0,33.023238)">
    <g
       id="Gamma_Crucis">
      <use
         xlink:href="#Pentagram"
         fill="#ffffff"
         transform="matrix(45.4,0,0,45.4,900,120)"
         id="use42"
         x="0"
         y="0"
         width="100%"
         height="100%" />
      <use
         xlink:href="#Pentagram"
         fill="#c8102e"
         transform="matrix(30,0,0,30,900,120)"
         id="use44"
         x="0"
         y="0"
         width="100%"
         height="100%" />
    </g>
    <g
       transform="rotate(82,900,240)"
       id="g57">
      <g
         id="Delta_Crucis">
        <use
           xlink:href="#Pentagram"
           fill="#ffffff"
           transform="matrix(5.6225933,-40.00683,40.00683,5.6225933,900,120)"
           id="use47"
           x="0"
           y="0"
           width="100%"
           height="100%" />
        <use
           xlink:href="#Pentagram"
           fill="#c8102e"
           transform="matrix(3.4793275,-24.756702,24.756702,3.4793275,900,120)"
           id="use49"
           x="0"
           y="0"
           width="100%"
           height="100%" />
      </g>
      <g
         id="Beta_Crucis">
        <use
           xlink:href="#Pentagram"
           fill="#ffffff"
           transform="matrix(6.3184588,-44.95817,44.95817,6.3184588,900,380)"
           id="use52"
           x="0"
           y="0"
           width="100%"
           height="100%" />
        <use
           xlink:href="#Pentagram"
           fill="#c8102e"
           transform="matrix(4.175193,-29.708042,29.708042,4.175193,900,380)"
           id="use54"
           x="0"
           y="0"
           width="100%"
           height="100%" />
      </g>
    </g>
    <g
       id="Alpha_Crucis">
      <use
         xlink:href="#Pentagram"
         fill="#ffffff"
         transform="matrix(50.4,0,0,50.4,900,480)"
         id="use59"
         x="0"
         y="0"
         width="100%"
         height="100%" />
      <use
         xlink:href="#Pentagram"
         fill="#c8102e"
         transform="matrix(35,0,0,35,900,480)"
         id="use61"
         x="0"
         y="0"
         width="100%"
         height="100%" />
    </g>
  </g>
</svg>
