<?xml version="1.0" encoding="UTF-8" standalone="no"?>
<svg
   xmlns:dc="http://purl.org/dc/elements/1.1/"
   xmlns:cc="http://creativecommons.org/ns#"
   xmlns:rdf="http://www.w3.org/1999/02/22-rdf-syntax-ns#"
   xmlns:svg="http://www.w3.org/2000/svg"
   xmlns="http://www.w3.org/2000/svg"
   xmlns:xlink="http://www.w3.org/1999/xlink"
   xmlns:sodipodi="http://sodipodi.sourceforge.net/DTD/sodipodi-0.dtd"
   xmlns:inkscape="http://www.inkscape.org/namespaces/inkscape"
   width="875"
   height="500"
   viewBox="0 0 1120 640"
   version="1.1"
   id="svg29"
   sodipodi:docname="Papua New Guinea.svg"
   inkscape:version="1.0.2 (e86c8708, 2021-01-15)">
  <metadata
     id="metadata35">
    <rdf:RDF>
      <cc:Work
         rdf:about="">
        <dc:format>image/svg+xml</dc:format>
        <dc:type
           rdf:resource="http://purl.org/dc/dcmitype/StillImage" />
      </cc:Work>
    </rdf:RDF>
  </metadata>
  <defs
     id="defs33" />
  <sodipodi:namedview
     pagecolor="#ffffff"
     bordercolor="#666666"
     borderopacity="1"
     objecttolerance="10"
     gridtolerance="10"
     guidetolerance="10"
     inkscape:pageopacity="0"
     inkscape:pageshadow="2"
     inkscape:window-width="1344"
     inkscape:window-height="729"
     id="namedview31"
     showgrid="false"
     inkscape:zoom="0.65093783"
     inkscape:cx="332.41486"
     inkscape:cy="320.37277"
     inkscape:window-x="0"
     inkscape:window-y="25"
     inkscape:window-maximized="1"
     inkscape:current-layer="svg29" />
  <title
     id="title10">Flag of Papua New Guinea</title>
  <rect
     width="1120"
     height="640"
     fill="#000000"
     id="rect12"
     x="0"
     y="0"
     style="stroke-width:1.27293" />
  <path
     d="M 0,0 H 1120 V 640 Z"
     fill="#ce1126"
     id="path14"
     style="stroke-width:1.27293" />
  <path
     d="m 663.28601,207.47539 c -6.30242,8.14045 -21.21653,-8.18846 -39.08308,-8.56143 -17.86656,-0.37296 -30.52278,17.12174 -35.73311,23.07801 -5.21034,5.95626 -21.96023,37.22162 -21.58839,40.5716 0.37185,3.34998 10.4229,-9.30513 14.14473,-11.53845 0.37185,4.46664 -4.09479,9.6781 -2.97814,11.1666 1.11667,1.48851 13.02695,-8.93328 17.12175,-9.30513 1.11666,2.97813 -2.23331,5.95514 -1.11666,10.42178 1.48963,1.48852 8.18959,-7.44476 12.65623,-9.30511 0.74369,3.34997 -4.0948,9.67808 -1.48963,13.77175 1.86146,0.37186 13.02695,-12.6551 16.7499,-14.14472 3.72294,-1.48963 -1.86148,12.28326 0,13.39992 3.34997,-2.23332 13.77288,-14.14474 17.12285,-15.63324 3.34999,-1.48851 -0.37185,15.26139 1.11667,15.26139 4.09367,-2.97813 14.51657,-17.12174 15.63323,-19.35506 1.11666,-2.23332 -1.11666,21.58838 10.42178,34.24459 11.53845,12.65622 29.03427,27.17169 30.89463,27.17169 2.23332,-4.09479 -0.74369,-12.65511 1.11666,-12.28325 5.21033,5.58329 14.88842,13.77175 17.12174,13.77175 2.23332,0 -1.48963,-8.93328 1.48851,-8.93328 5.95626,5.58331 23.078,27.54465 56.57779,37.59459 -2.23332,-6.32812 -7.07292,-11.91141 -7.44477,-14.88843 2.23332,0.37185 10.05106,4.0948 11.53957,3.72184 1.4885,-0.37297 -16.37806,-22.3332 -15.2614,-25.31133 4.0948,-0.37185 5.95626,2.23332 7.44478,0.37185 -1.86148,-2.97702 -17.49472,-20.47173 -17.49472,-24.56651 0,-4.09481 4.83961,0.7448 6.32812,0 1.48851,-0.74482 -5.95515,-16.37806 -4.46663,-18.23841 1.4885,-1.86036 17.86542,10.04993 21.96022,10.04993 4.09479,0 1.11666,-14.51657 2.97813,-15.26138 1.86148,-0.74482 15.63436,7.81662 18.61137,7.81662 2.97702,0 2.60516,-6.32812 3.72182,-5.5833 1.11666,0.74481 33.49979,33.12794 22.33319,71.09437 -11.16659,27.17279 -33.49866,41.68937 -66.25476,29.77797 1.86035,2.97813 19.35506,17.4947 38.33828,12.28326 18.98321,-5.21146 42.0601,-20.09988 39.45493,-57.32151 -2.60517,-37.22161 -14.88953,-42.43306 -16.74989,-48.01636 -1.86035,-5.5833 2.97925,1.48851 7.07293,2.97813 4.09367,1.48963 -0.74482,-7.81773 -1.86149,-11.91252 -1.11665,-4.0948 12.28326,8.56143 15.63324,9.67808 3.34998,1.11667 -7.81661,-30.52165 -11.1666,-32.75497 -3.34997,-2.23332 3.34999,0.7437 5.5833,1.4885 2.23332,0.74482 -20.47283,-34.61644 -25.31132,-34.61644 -4.83849,0 4.09367,-1.86147 6.69996,-1.86147 2.60628,0 -26.0539,-23.07801 -30.89351,-23.07801 -4.8396,0 10.42067,-5.95627 11.9103,-6.32811 2.60628,0.37184 -33.12683,-18.98322 -65.13812,0.37184 -1.86146,-1.48739 15.07603,-13.21231 15.63324,-18.23728 0.18649,-1.30314 -5.58218,-4.09479 -5.95514,-5.5833 -0.37297,-1.4885 8.93328,-5.95513 9.30511,-9.30511 -2.23331,-2.97812 -6.3281,-1.86148 -8.56142,-2.60517 -0.55722,-2.79164 7.81773,-9.67808 7.07292,-12.6551 -0.55832,-1.67499 -6.70107,-2.23332 -8.18958,-1.11666 -1.48851,1.11666 3.90942,-7.81662 2.97813,-10.42178 -0.74369,-1.11667 -3.72182,-0.37186 -6.69996,0.37184 -1.86147,-0.37184 9.67809,-16.378045 7.44477,-18.611365 -2.23331,-2.233319 -33.50091,16.376935 -45.03935,37.221615 -11.53845,20.84467 -2.60404,37.59457 -4.09367,44.66638 -1.48962,7.0718 -3.3511,14.14472 -8.18958,14.14472 -4.83849,0 -16.00397,-7.44476 -19.72691,-11.16659 -3.72295,-3.72182 -4.46664,-6.32811 -9.6781,-7.81662 -5.21145,-1.48851 -17.12173,2.97813 -21.58837,3.34998 -4.46664,0.37185 -21.96136,-3.34998 -23.07801,-2.23332 -1.11667,1.11665 17.12174,7.81661 21.21653,10.04993 4.0948,2.23332 4.46776,5.21146 7.44477,7.07181 2.97702,1.86036 30.89351,10.04994 21.96023,21.58838 z m 109.0608,52.48301 c 8.93328,8.93328 69.2329,49.13302 69.2329,98.26605 0,49.13303 -43.92269,47.64563 -56.57779,46.15601 14.14472,11.91029 67.74439,9.67698 67.74439,-46.15601 0,-49.13303 -69.2329,-98.26605 -78.16618,-102.73269 -8.93328,-4.46664 -11.1666,-4.46664 -2.23332,4.46664 z"
     fill="#fcd116"
     id="path16"
     style="stroke-width:1.1111" />
  <g
     fill="#ffffff"
     id="g27"
     transform="matrix(1.1111041,0,0,1.1111041,23.264354,-2.664226)">
    <path
       d="M 220.254,418.599 231.709,381.748 243.164,419 213,396.168 h 37.418 z"
       id="path18" />
    <path
       id="sl"
       d="m 192.418,178.496 -22.909,73.702 60.327,-44.862 H 155 L 215.327,253 Z" />
    <use
       xlink:href="#sl"
       x="-88"
       y="112.504"
       id="use21"
       width="100%"
       height="100%" />
    <use
       xlink:href="#sl"
       x="87.582001"
       y="104.504"
       id="use23"
       width="100%"
       height="100%" />
    <use
       xlink:href="#sl"
       y="264.504"
       id="use25"
       x="0"
       width="100%"
       height="100%" />
  </g>
</svg>
