<?xml version="1.0" encoding="UTF-8" standalone="no"?>
<svg
   xmlns:dc="http://purl.org/dc/elements/1.1/"
   xmlns:cc="http://creativecommons.org/ns#"
   xmlns:rdf="http://www.w3.org/1999/02/22-rdf-syntax-ns#"
   xmlns:svg="http://www.w3.org/2000/svg"
   xmlns="http://www.w3.org/2000/svg"
   xmlns:sodipodi="http://sodipodi.sourceforge.net/DTD/sodipodi-0.dtd"
   xmlns:inkscape="http://www.inkscape.org/namespaces/inkscape"
   width="875"
   height="500"
   viewBox="0 0 875 500"
   version="1.1"
   id="svg40"
   sodipodi:docname="Republic of Abkhazia.svg"
   inkscape:version="1.0.2 (e86c8708, 2021-01-15)">
  <metadata
     id="metadata46">
    <rdf:RDF>
      <cc:Work
         rdf:about="">
        <dc:format>image/svg+xml</dc:format>
        <dc:type
           rdf:resource="http://purl.org/dc/dcmitype/StillImage" />
      </cc:Work>
    </rdf:RDF>
  </metadata>
  <defs
     id="defs44" />
  <sodipodi:namedview
     pagecolor="#ffffff"
     bordercolor="#666666"
     borderopacity="1"
     objecttolerance="10"
     gridtolerance="10"
     guidetolerance="10"
     inkscape:pageopacity="0"
     inkscape:pageshadow="2"
     inkscape:window-width="1344"
     inkscape:window-height="729"
     id="namedview42"
     showgrid="false"
     inkscape:zoom="0.64040655"
     inkscape:cx="388.82907"
     inkscape:cy="289.7628"
     inkscape:window-x="0"
     inkscape:window-y="25"
     inkscape:window-maximized="1"
     inkscape:current-layer="svg40" />
  <rect
     fill="#00993e"
     width="875"
     height="500"
     id="rect10"
     x="0"
     y="0"
     style="stroke-width:1.55903" />
  <g
     fill="#ffffff"
     id="g18"
     transform="scale(1.4583333,1.6666667)">
    <rect
       y="42.856998"
       width="600"
       height="42.856998"
       id="rect12"
       x="0" />
    <rect
       y="128.571"
       width="600"
       height="42.856998"
       id="rect14"
       x="0" />
    <rect
       y="214.286"
       width="600"
       height="42.856998"
       id="rect16"
       x="0" />
  </g>
  <rect
     fill="#c8312a"
     width="380"
     height="214.285"
     id="rect20"
     x="0"
     y="0"
     style="stroke-width:1.66667" />
  <g
     fill="#ffffff"
     id="g38"
     transform="scale(1.6666667)">
    <path
       d="m 96.352,71.821 c 0,0 -1.965,0.823 -0.619,16.509 1.099,12.911 5.699,17.117 5.699,17.117 l 2.009,7.992 19.056,0.078 c 0,0 0.345,-4.949 1.083,-6.514 1.813,-3.845 8.999,-8.24 12.079,-14.876 3.312,-4.045 1.653,-12.3 8.301,-20.268 3.301,-3.957 -3.867,-2.282 -3.867,-2.282 -3.931,2.607 -5.852,5.667 -6.843,7.805 -0.667,4.119 -3.75,7.563 -4.041,4.572 0,0 -1.12,-5.172 -4.481,-15.226 -0.333,-2.98 -1.774,-13.286 -2.082,-21.152 -0.219,-5.118 -4.699,-5.426 -5.073,-0.231 l -0.541,20.595 -1.071,-23.786 c -0.455,-6.732 -5.548,-5.734 -5.769,-0.155 l -0.219,24.767 -0.928,-24.008 c -1.38,-4.586 -5.006,-1.868 -5.073,3.1 l -0.618,23.36 c 0,0 -0.781,-12.793 -0.957,-18.195 -0.166,-3.249 -3.971,-3.009 -4.33,1.636 -0.518,6.718 -1.333,12.201 -1.715,19.162 z"
       id="path22" />
    <path
       d="M 108.206,27.97 114,10.138 119.794,27.97 104.625,16.95 h 18.749 z"
       id="path24" />
    <path
       d="M 153.263,35.084 138.094,24.063 h 18.749 l -15.169,11.021 5.794,-17.832 z"
       id="path26" />
    <path
       d="M 181.896,56.272 166.727,45.251 h 18.749 l -15.169,11.021 5.794,-17.832 z"
       id="path28" />
    <path
       d="M 198.484,86.198 183.315,75.177 h 18.749 l -15.168,11.021 5.794,-17.832 z"
       id="path30" />
    <path
       d="M 74.738,35.084 89.907,24.063 H 71.157 L 86.326,35.084 80.532,17.252 Z"
       id="path32" />
    <path
       d="M 46.104,56.272 61.273,45.251 H 42.524 L 57.693,56.272 51.898,38.44 Z"
       id="path34" />
    <path
       d="M 29.516,86.198 44.685,75.177 H 25.935 L 41.104,86.198 35.31,68.366 Z"
       id="path36" />
  </g>
</svg>
