<?xml version="1.0" encoding="UTF-8" standalone="no"?>
<svg
   xmlns:dc="http://purl.org/dc/elements/1.1/"
   xmlns:cc="http://creativecommons.org/ns#"
   xmlns:rdf="http://www.w3.org/1999/02/22-rdf-syntax-ns#"
   xmlns:svg="http://www.w3.org/2000/svg"
   xmlns="http://www.w3.org/2000/svg"
   xmlns:xlink="http://www.w3.org/1999/xlink"
   xmlns:sodipodi="http://sodipodi.sourceforge.net/DTD/sodipodi-0.dtd"
   xmlns:inkscape="http://www.inkscape.org/namespaces/inkscape"
   width="875"
   height="499.99997"
   viewBox="0 0 1020.8333 583.3333"
   version="1.1"
   id="svg46"
   sodipodi:docname="Tajikistan.svg"
   inkscape:version="1.0.2 (e86c8708, 2021-01-15)">
  <metadata
     id="metadata52">
    <rdf:RDF>
      <cc:Work
         rdf:about="">
        <dc:format>image/svg+xml</dc:format>
        <dc:type
           rdf:resource="http://purl.org/dc/dcmitype/StillImage" />
      </cc:Work>
    </rdf:RDF>
  </metadata>
  <defs
     id="defs50" />
  <sodipodi:namedview
     pagecolor="#ffffff"
     bordercolor="#666666"
     borderopacity="1"
     objecttolerance="10"
     gridtolerance="10"
     guidetolerance="10"
     inkscape:pageopacity="0"
     inkscape:pageshadow="2"
     inkscape:window-width="1344"
     inkscape:window-height="729"
     id="namedview48"
     showgrid="false"
     inkscape:zoom="0.54137585"
     inkscape:cx="428.11675"
     inkscape:cy="311.30017"
     inkscape:window-x="0"
     inkscape:window-y="25"
     inkscape:window-maximized="1"
     inkscape:current-layer="svg46" />
  <rect
     width="1020.8333"
     fill="#006600"
     height="583.33331"
     id="rect10"
     x="0"
     y="0"
     style="stroke-width:0.779512" />
  <rect
     width="1020.8333"
     fill="#ffffff"
     height="416.66666"
     id="rect12"
     x="0"
     y="0"
     style="stroke-width:0.779512" />
  <rect
     width="1020.8333"
     fill="#cc0000"
     height="166.66667"
     id="rect14"
     x="0"
     y="0"
     style="stroke-width:0.779512" />
  <g
     fill="#f8c300"
     id="g44"
     transform="matrix(0.83333333,0,0,0.83333333,-72.916672,0)">
    <path
       d="m 672,340.7 a 12.5,12.5 0 0 1 23.3,5.9 v 50 h 9.4 v -50 a 12.5,12.5 0 0 1 23.3,-5.9 29.5,29.5 0 1 0 -56,0"
       id="path16" />
    <path
       d="m 678.7,327.65 a 20,20 0 0 1 21.3,9.55 20,20 0 0 1 21.3,-9.55 21.5,21.5 0 0 0 -42.6,0"
       fill="#ffffff"
       id="path18" />
    <path
       id="w"
       d="m 695.3,376.627 a 38,38 0 0 1 -63.845,24.316 39.5,39.5 0 0 1 -59.734,17.467 c 3.6496,36.426 58.252,28.989 62.32,-6.4288 17.154,30.115 54.873,21.49 65.91,-15.4 z" />
    <use
       xlink:href="#w"
       transform="matrix(-1,0,0,1,1400,0)"
       id="use21"
       x="0"
       y="0"
       width="100%"
       height="100%" />
    <path
       id="r"
       d="m 658.84,441.31 c -7.6181,16.446 -22.845,19.271 -36.164,5.9953 0,0 5.3539,-3.7831 11.086,-4.826 -1.0748,-4.5744 1.1291,-10.902 4.2354,-14.324 3.2575,2.2264 7.8036,6.6886 8.9598,11.874 8.0291,-1.0394 11.883,1.2815 11.883,1.2815 z" />
    <use
       xlink:href="#r"
       transform="rotate(9.37,700,804)"
       id="use24"
       x="0"
       y="0"
       width="100%"
       height="100%" />
    <use
       xlink:href="#r"
       transform="rotate(18.74,700,804)"
       id="use26"
       x="0"
       y="0"
       width="100%"
       height="100%" />
    <path
       d="m 603,478 a 340,340 0 0 1 194,0"
       fill="none"
       stroke-width="16"
       stroke="#f8c300"
       id="path28" />
    <g
       transform="translate(700,380)"
       id="g42">
      <g
         transform="translate(0,-140)"
         id="g31">
        <polygon
           id="s"
           points="0,-513674 301930,415571 -488533,-158734 488533,-158734 -301930,415571 "
           transform="matrix(4.8669e-5,0,0,4.8669e-5,0,0)" />
      </g>
      <g
         id="h">
        <use
           xlink:href="#s"
           transform="translate(-70,-121.24356)"
           id="use33"
           x="0"
           y="0"
           width="100%"
           height="100%" />
        <use
           xlink:href="#s"
           transform="translate(-121.24356,-70)"
           id="use35"
           x="0"
           y="0"
           width="100%"
           height="100%" />
        <use
           xlink:href="#s"
           transform="translate(-140)"
           id="use37"
           x="0"
           y="0"
           width="100%"
           height="100%" />
      </g>
      <use
         xlink:href="#h"
         transform="scale(-1,1)"
         id="use40"
         x="0"
         y="0"
         width="100%"
         height="100%" />
    </g>
  </g>
</svg>
