<?xml version="1.0" encoding="UTF-8" standalone="no"?>
<svg
   xmlns:dc="http://purl.org/dc/elements/1.1/"
   xmlns:cc="http://creativecommons.org/ns#"
   xmlns:rdf="http://www.w3.org/1999/02/22-rdf-syntax-ns#"
   xmlns:svg="http://www.w3.org/2000/svg"
   xmlns="http://www.w3.org/2000/svg"
   xmlns:sodipodi="http://sodipodi.sourceforge.net/DTD/sodipodi-0.dtd"
   xmlns:inkscape="http://www.inkscape.org/namespaces/inkscape"
   width="875"
   height="500"
   version="1.1"
   id="svg48"
   sodipodi:docname="Tuvalu.svg"
   inkscape:version="1.0.2 (e86c8708, 2021-01-15)">
  <metadata
     id="metadata54">
    <rdf:RDF>
      <cc:Work
         rdf:about="">
        <dc:format>image/svg+xml</dc:format>
        <dc:type
           rdf:resource="http://purl.org/dc/dcmitype/StillImage" />
      </cc:Work>
    </rdf:RDF>
  </metadata>
  <defs
     id="defs52" />
  <sodipodi:namedview
     pagecolor="#ffffff"
     bordercolor="#666666"
     borderopacity="1"
     objecttolerance="10"
     gridtolerance="10"
     guidetolerance="10"
     inkscape:pageopacity="0"
     inkscape:pageshadow="2"
     inkscape:window-width="1344"
     inkscape:window-height="729"
     id="namedview50"
     showgrid="false"
     inkscape:zoom="0.43450887"
     inkscape:cx="744.95523"
     inkscape:cy="330.62143"
     inkscape:window-x="0"
     inkscape:window-y="25"
     inkscape:window-maximized="1"
     inkscape:current-layer="svg48" />
  <clipPath
     id="c1">
    <path
       d="M 0,0 H 650 V 350 H 0 Z"
       id="path10" />
  </clipPath>
  <clipPath
     id="c2">
    <path
       d="m 0,0 v 150 h 650 v 150 h -50 z m 0,300 v 50 H 300 V 0 h 300 z"
       id="path13" />
  </clipPath>
  <rect
     width="875"
     height="437.5"
     fill="#012169"
     id="rect16"
     x="0"
     y="0"
     style="stroke-width:0.729167" />
  <path
     d="M 0,0 600,300 M 600,0 0,300"
     stroke="#ffffff"
     stroke-width="60"
     clip-path="url(#c1)"
     id="path18"
     transform="scale(0.72916667)" />
  <path
     d="M 0,0 600,300 M 600,0 0,300"
     stroke="#c8102e"
     stroke-width="40"
     clip-path="url(#c2)"
     id="path20"
     transform="scale(0.72916667)" />
  <path
     d="M 0,109.375 H 473.95833 M 218.75,0 v 255.20833"
     stroke="#ffffff"
     stroke-width="72.9167"
     id="path22" />
  <path
     d="M 0,109.375 H 473.95833 M 218.75,0 v 255.20833"
     stroke="#c8102e"
     stroke-width="43.75"
     id="path24" />
  <path
     d="M 0,218.75 H 437.5 V 0 H 875 V 500 H 0 Z"
     fill="#009cde"
     id="path26"
     style="stroke-width:0.779512"
     sodipodi:nodetypes="ccccccc" />
  <g
     fill="#fedd00"
     id="g46"
     transform="matrix(0.72916667,0,0,0.72916667,0,24.353544)">
    <path
       d="m 645.3396,490.91279 29.4368,90.597 -77.0665,-55.992 h 95.2594 l -77.0665,55.993 z"
       id="path28" />
    <path
       d="m 817.46233,463.99977 -29.43671,90.59703 -29.43684,-90.59703 77.06648,55.99207 -95.25997,7.4e-4 z"
       id="path30" />
    <path
       d="m 817.46233,342.01619 -29.43671,90.59703 -29.43684,-90.59703 77.06648,55.99207 -95.25997,7.4e-4 z"
       id="path32" />
    <path
       d="m 943.46715,433.16817 -29.43671,90.59703 -29.43683,-90.59703 77.06647,55.99207 -95.25997,7.3e-4 z"
       id="path34" />
    <path
       d="m 943.46715,167.75458 -29.43671,90.59703 -29.43683,-90.59703 77.06647,55.99207 -95.25997,7.3e-4 z"
       id="path36" />
    <path
       d="m 996.44159,339.96479 29.43681,90.597 -77.06651,-55.992 h 95.25941 l -77.06651,55.993 z"
       id="path38" />
    <path
       d="m 1049.3647,131.56139 -29.4367,90.59703 -29.43681,-90.59703 77.06651,55.99207 -95.26001,7.3e-4 z"
       id="path40" />
    <path
       d="m 1102.8361,271.47361 29.4368,90.597 -77.0665,-55.992 h 95.2594 l -77.0665,55.993 z"
       id="path42" />
    <path
       d="m 1102.8361,37.4052 29.4368,90.597 -77.0665,-55.992 h 95.2594 l -77.0665,55.993 z"
       id="path44" />
  </g>
</svg>
